<svg width="47" height="47" viewBox="0 0 47 47" fill="none" xmlns="http://www.w3.org/2000/svg">
<path d="M31.462 17.6156C31.6023 17.4802 31.7143 17.3181 31.7913 17.139C31.8684 16.9598 31.909 16.7671 31.9108 16.5721C31.9126 16.3771 31.8755 16.1837 31.8017 16.0031C31.728 15.8226 31.619 15.6585 31.4812 15.5206C31.3433 15.3826 31.1794 15.2735 30.9989 15.1995C30.8184 15.1256 30.6251 15.0883 30.43 15.0899C30.235 15.0915 30.0423 15.132 29.863 15.2089C29.6838 15.2858 29.5217 15.3976 29.3861 15.5378L23.4994 21.4226L17.6146 15.5378C17.4801 15.3935 17.318 15.2777 17.1378 15.1975C16.9576 15.1172 16.7632 15.074 16.5659 15.0705C16.3687 15.0671 16.1728 15.1033 15.99 15.1772C15.8071 15.2511 15.6409 15.361 15.5015 15.5005C15.362 15.64 15.2521 15.8061 15.1782 15.989C15.1043 16.1719 15.068 16.3678 15.0715 16.565C15.075 16.7622 15.1182 16.9567 15.1984 17.1368C15.2787 17.317 15.3945 17.4792 15.5388 17.6136L21.4196 23.5004L15.5348 29.3852C15.2754 29.6636 15.1342 30.0318 15.1409 30.4123C15.1476 30.7929 15.3017 31.1559 15.5708 31.425C15.8399 31.6941 16.203 31.8482 16.5835 31.855C16.964 31.8617 17.3323 31.7204 17.6107 31.461L23.4994 25.5762L29.3842 31.4629C29.6626 31.7224 30.0309 31.8636 30.4114 31.8569C30.7919 31.8502 31.1549 31.6961 31.424 31.427C31.6931 31.1579 31.8473 30.7948 31.854 30.4143C31.8607 30.0338 31.7194 29.6655 31.46 29.3871L25.5791 23.5004L31.462 17.6156Z" fill="black"/>
</svg>
