<svg width="20" height="20" viewBox="0 0 20 20" fill="none" xmlns="http://www.w3.org/2000/svg">
<path d="M10.625 12.5C11.1223 12.5 11.5992 12.6975 11.9508 13.0492C12.3025 13.4008 12.5 13.8777 12.5 14.375V15C12.5 17.4638 10.175 20 6.25 20C2.325 20 0 17.4638 0 15V14.375C0 13.8777 0.197544 13.4008 0.549175 13.0492C0.900806 12.6975 1.37772 12.5 1.875 12.5H10.625ZM10.625 13.75H1.875C1.70924 13.75 1.55027 13.8158 1.43306 13.9331C1.31585 14.0503 1.25 14.2092 1.25 14.375V15C1.25 16.7975 3.04 18.75 6.25 18.75C9.46 18.75 11.25 16.7975 11.25 15V14.375C11.25 14.2092 11.1842 14.0503 11.0669 13.9331C10.9497 13.8158 10.7908 13.75 10.625 13.75ZM6.25 4.375C7.16168 4.375 8.03602 4.73716 8.68068 5.38182C9.32534 6.02648 9.6875 6.90082 9.6875 7.8125C9.6875 8.72418 9.32534 9.59852 8.68068 10.2432C8.03602 10.8878 7.16168 11.25 6.25 11.25C5.33832 11.25 4.46398 10.8878 3.81932 10.2432C3.17466 9.59852 2.8125 8.72418 2.8125 7.8125C2.8125 6.90082 3.17466 6.02648 3.81932 5.38182C4.46398 4.73716 5.33832 4.375 6.25 4.375ZM17.5 0C18.1305 0.00011572 18.7377 0.238464 19.1999 0.667296C19.6621 1.09613 19.9452 1.68377 19.9925 2.3125L20 2.5V5C20.0002 5.63072 19.762 6.23821 19.3331 6.70069C18.9043 7.16316 18.3164 7.44645 17.6875 7.49375L17.5 7.5H15.6237L14.1262 9.5C13.4637 10.3825 12.1213 10.025 11.905 9.03L11.8837 8.89125L11.875 8.75V7.41875L11.7775 7.39375C11.3282 7.25763 10.9262 6.99792 10.6174 6.64428C10.3087 6.29064 10.1055 5.85731 10.0312 5.39375L10.0063 5.18625L10 5V2.5C9.9998 1.86928 10.238 1.26179 10.6669 0.799315C11.0957 0.336838 11.6836 0.0535541 12.3125 0.00625014L12.5 0H17.5ZM6.25 5.625C5.96273 5.625 5.67828 5.68158 5.41288 5.79151C5.14748 5.90145 4.90633 6.06258 4.7032 6.2657C4.50008 6.46883 4.33895 6.70998 4.22901 6.97538C4.11908 7.24078 4.0625 7.52523 4.0625 7.8125C4.0625 8.09977 4.11908 8.38422 4.22901 8.64962C4.33895 8.91502 4.50008 9.15617 4.7032 9.3593C4.90633 9.56242 5.14748 9.72355 5.41288 9.83349C5.67828 9.94342 5.96273 10 6.25 10C6.83016 10 7.38656 9.76953 7.7968 9.3593C8.20703 8.94906 8.4375 8.39266 8.4375 7.8125C8.4375 7.23234 8.20703 6.67594 7.7968 6.2657C7.38656 5.85547 6.83016 5.625 6.25 5.625ZM17.5 1.25H12.5C12.1938 1.25004 11.8983 1.36245 11.6695 1.56589C11.4407 1.76934 11.2946 2.04969 11.2587 2.35375L11.25 2.5V5C11.25 5.30617 11.3624 5.60167 11.5659 5.83046C11.7693 6.05926 12.0497 6.20543 12.3538 6.24125L12.5 6.25H13.125V8.75L15 6.25H17.5C17.8062 6.24996 18.1017 6.13756 18.3305 5.93411C18.5593 5.73066 18.7054 5.45031 18.7412 5.14625L18.75 5V2.5C18.75 2.19383 18.6376 1.89833 18.4341 1.66954C18.2307 1.44074 17.9503 1.29457 17.6463 1.25875L17.5 1.25Z" fill="#E15659"/>
</svg>
