<svg width="97" height="96" viewBox="0 0 97 96" fill="none" xmlns="http://www.w3.org/2000/svg">
<rect x="0.699219" width="95.6618" height="95.6618" rx="19.1324" fill="#FF9633"/>
<mask id="mask0_886_6610" style="mask-type:alpha" maskUnits="userSpaceOnUse" x="0" y="0" width="97" height="96">
<rect x="0.699219" width="95.6618" height="95.6618" rx="19.1324" fill="#FF9633"/>
</mask>
<g mask="url(#mask0_886_6610)">
<path d="M96.362 44.0042V105.222V105.228H12.1797V105.222V55.4836C12.1797 49.1437 17.3192 44.0042 23.6591 44.0042H96.362Z" fill="#FFC085"/>
<path d="M104.015 26.7852V107.141H29.3984V38.2646C29.3984 31.9247 34.5379 26.7852 40.8778 26.7852H104.015Z" fill="#FFF7F0"/>
<path d="M84.0092 49.7439H43.6663C42.1269 49.7439 40.8789 51.0288 40.8789 52.6137C40.8789 54.1987 42.1269 55.4836 43.6663 55.4836H84.0092C85.5486 55.4836 86.7966 54.1987 86.7966 52.6137C86.7966 51.0288 85.5486 49.7439 84.0092 49.7439Z" fill="#FFC085"/>
<path d="M84.0092 60.1033H43.6663C42.1269 60.1033 40.8789 61.3881 40.8789 62.9731C40.8789 64.5581 42.1269 65.843 43.6663 65.843H84.0092C85.5486 65.843 86.7966 64.5581 86.7966 62.9731C86.7966 61.3881 85.5486 60.1033 84.0092 60.1033Z" fill="#FFC085"/>
</g>
</svg>
