<svg width="32" height="32" viewBox="0 0 32 32" fill="none" xmlns="http://www.w3.org/2000/svg">
<path d="M9.33268 12.0001C9.33268 12.3537 9.19221 12.6928 8.94216 12.9429C8.69211 13.1929 8.35297 13.3334 7.99935 13.3334C7.64573 13.3334 7.30659 13.1929 7.05654 12.9429C6.80649 12.6928 6.66602 12.3537 6.66602 12.0001C6.66602 11.6465 6.80649 11.3073 7.05654 11.0573C7.30659 10.8072 7.64573 10.6667 7.99935 10.6667C8.35297 10.6667 8.69211 10.8072 8.94216 11.0573C9.19221 11.3073 9.33268 11.6465 9.33268 12.0001ZM9.33268 16.0001C9.33268 16.3537 9.19221 16.6928 8.94216 16.9429C8.69211 17.1929 8.35297 17.3334 7.99935 17.3334C7.64573 17.3334 7.30659 17.1929 7.05654 16.9429C6.80649 16.6928 6.66602 16.3537 6.66602 16.0001C6.66602 15.6465 6.80649 15.3073 7.05654 15.0573C7.30659 14.8072 7.64573 14.6667 7.99935 14.6667C8.35297 14.6667 8.69211 14.8072 8.94216 15.0573C9.19221 15.3073 9.33268 15.6465 9.33268 16.0001ZM13.3327 16.0001C13.3327 16.3537 13.1922 16.6928 12.9422 16.9429C12.6921 17.1929 12.353 17.3334 11.9993 17.3334C11.6457 17.3334 11.3066 17.1929 11.0565 16.9429C10.8065 16.6928 10.666 16.3537 10.666 16.0001C10.666 15.6465 10.8065 15.3073 11.0565 15.0573C11.3066 14.8072 11.6457 14.6667 11.9993 14.6667C12.353 14.6667 12.6921 14.8072 12.9422 15.0573C13.1922 15.3073 13.3327 15.6465 13.3327 16.0001ZM13.3327 12.0001C13.3327 12.3537 13.1922 12.6928 12.9422 12.9429C12.6921 13.1929 12.353 13.3334 11.9993 13.3334C11.6457 13.3334 11.3066 13.1929 11.0565 12.9429C10.8065 12.6928 10.666 12.3537 10.666 12.0001C10.666 11.6465 10.8065 11.3073 11.0565 11.0573C11.3066 10.8072 11.6457 10.6667 11.9993 10.6667C12.353 10.6667 12.6921 10.8072 12.9422 11.0573C13.1922 11.3073 13.3327 11.6465 13.3327 12.0001ZM17.3327 12.0001C17.3327 12.3537 17.1922 12.6928 16.9422 12.9429C16.6921 13.1929 16.353 13.3334 15.9993 13.3334C15.6457 13.3334 15.3066 13.1929 15.0565 12.9429C14.8065 12.6928 14.666 12.3537 14.666 12.0001C14.666 11.6465 14.8065 11.3073 15.0565 11.0573C15.3066 10.8072 15.6457 10.6667 15.9993 10.6667C16.353 10.6667 16.6921 10.8072 16.9422 11.0573C17.1922 11.3073 17.3327 11.6465 17.3327 12.0001ZM17.3327 16.0001C17.3327 16.3537 17.1922 16.6928 16.9422 16.9429C16.6921 17.1929 16.353 17.3334 15.9993 17.3334C15.6457 17.3334 15.3066 17.1929 15.0565 16.9429C14.8065 16.6928 14.666 16.3537 14.666 16.0001C14.666 15.6465 14.8065 15.3073 15.0565 15.0573C15.3066 14.8072 15.6457 14.6667 15.9993 14.6667C16.353 14.6667 16.6921 14.8072 16.9422 15.0573C17.1922 15.3073 17.3327 15.6465 17.3327 16.0001ZM21.3327 12.0001C21.3327 12.3537 21.1922 12.6928 20.9422 12.9429C20.6921 13.1929 20.353 13.3334 19.9993 13.3334C19.6457 13.3334 19.3066 13.1929 19.0565 12.9429C18.8065 12.6928 18.666 12.3537 18.666 12.0001C18.666 11.6465 18.8065 11.3073 19.0565 11.0573C19.3066 10.8072 19.6457 10.6667 19.9993 10.6667C20.353 10.6667 20.6921 10.8072 20.9422 11.0573C21.1922 11.3073 21.3327 11.6465 21.3327 12.0001ZM21.3327 16.0001C21.3327 16.3537 21.1922 16.6928 20.9422 16.9429C20.6921 17.1929 20.353 17.3334 19.9993 17.3334C19.6457 17.3334 19.3066 17.1929 19.0565 16.9429C18.8065 16.6928 18.666 16.3537 18.666 16.0001C18.666 15.6465 18.8065 15.3073 19.0565 15.0573C19.3066 14.8072 19.6457 14.6667 19.9993 14.6667C20.353 14.6667 20.6921 14.8072 20.9422 15.0573C21.1922 15.3073 21.3327 15.6465 21.3327 16.0001ZM25.3327 12.0001C25.3327 12.3537 25.1922 12.6928 24.9422 12.9429C24.6921 13.1929 24.353 13.3334 23.9993 13.3334C23.6457 13.3334 23.3066 13.1929 23.0565 12.9429C22.8065 12.6928 22.666 12.3537 22.666 12.0001C22.666 11.6465 22.8065 11.3073 23.0565 11.0573C23.3066 10.8072 23.6457 10.6667 23.9993 10.6667C24.353 10.6667 24.6921 10.8072 24.9422 11.0573C25.1922 11.3073 25.3327 11.6465 25.3327 12.0001ZM25.3327 16.0001C25.3327 16.3537 25.1922 16.6928 24.9422 16.9429C24.6921 17.1929 24.353 17.3334 23.9993 17.3334C23.6457 17.3334 23.3066 17.1929 23.0565 16.9429C22.8065 16.6928 22.666 16.3537 22.666 16.0001C22.666 15.6465 22.8065 15.3073 23.0565 15.0573C23.3066 14.8072 23.6457 14.6667 23.9993 14.6667C24.353 14.6667 24.6921 14.8072 24.9422 15.0573C25.1922 15.3073 25.3327 15.6465 25.3327 16.0001Z" fill="black"/>
<path d="M21.3327 6.66675C25.1033 6.66675 26.99 6.66675 28.1607 7.83875C29.3327 9.00941 29.3327 10.8961 29.3327 14.6667V17.3334C29.3327 21.1041 29.3327 22.9907 28.1607 24.1614C26.99 25.3334 25.1033 25.3334 21.3327 25.3334H10.666C6.89535 25.3334 5.00868 25.3334 3.83802 24.1614C2.66602 22.9907 2.66602 21.1041 2.66602 17.3334V14.6667C2.66602 10.8961 2.66602 9.00941 3.83802 7.83875C5.00868 6.66675 6.89535 6.66675 10.666 6.66675H15.9993M9.33268 21.3334H22.666" stroke="black" stroke-width="1.5" stroke-linecap="round"/>
</svg>
