<svg width="24" height="24" viewBox="0 0 24 24" fill="none" xmlns="http://www.w3.org/2000/svg">
<path d="M12.596 2.04309C13.671 2.11909 14.655 2.32409 15.339 2.99909C16.037 3.68709 16.259 4.69509 16.259 5.94009C16.259 6.37209 16.202 6.89509 16.142 7.37809C16.116 7.57809 16.091 7.77009 16.066 7.95009L16.01 8.37909H18.06C18.812 8.37909 19.506 8.48709 20.096 8.78309C20.708 9.08909 21.158 9.57009 21.451 10.2141C22.002 11.4281 21.993 13.2221 21.674 15.6081L21.623 15.9981C21.489 17.0081 21.375 17.8701 21.227 18.5781C21.061 19.3731 20.833 20.0741 20.411 20.6281C19.521 21.7961 18.016 22.0001 15.828 22.0001C13.497 22.0001 11.748 21.5821 10.284 21.1761L9.682 21.0061C8.659 20.7161 7.83 20.4801 6.992 20.4201C6.94977 20.8528 6.74799 21.2543 6.42597 21.5463C6.10395 21.8384 5.68475 22.0002 5.25 22.0001H3.75C3.28587 22.0001 2.84075 21.8157 2.51256 21.4875C2.18437 21.1593 2 20.7142 2 20.2501V9.75009C2 8.78409 2.784 8.00009 3.75 8.00009H5.25C5.69386 8.00011 6.12113 8.16879 6.4453 8.47198C6.76947 8.77517 6.96632 9.19022 6.996 9.63309C7.1758 9.6152 7.352 9.57106 7.519 9.50209C8.48 9.08709 10.293 7.96809 10.293 5.30209V4.24909C10.293 3.02909 11.295 1.95109 12.596 2.04309ZM7 18.9181C8.059 18.9821 9.079 19.2731 10.118 19.5701L10.686 19.7301C12.092 20.1201 13.692 20.5001 15.828 20.5001C18.105 20.5001 18.832 20.2261 19.218 19.7191C19.434 19.4361 19.606 19.0011 19.758 18.2711C19.894 17.6211 20 16.8211 20.137 15.7941L20.187 15.4101C20.507 13.0101 20.44 11.6151 20.085 10.8351C19.925 10.4831 19.71 10.2671 19.425 10.1241C19.12 9.97109 18.685 9.87909 18.06 9.87909H15.69C15.009 9.87909 14.397 9.30909 14.479 8.55109C14.505 8.30809 14.544 8.01409 14.584 7.71709L14.654 7.19009C14.714 6.70809 14.759 6.26909 14.759 5.94009C14.759 4.81509 14.546 4.32309 14.286 4.06709C14.011 3.79709 13.512 3.61209 12.491 3.53909C12.14 3.51509 11.793 3.81309 11.793 4.24909V5.30209C11.793 8.85209 9.305 10.3651 8.113 10.8791C7.741 11.0391 7.359 11.1111 7 11.1391V18.9181ZM3.75 20.5001H5.25C5.3163 20.5001 5.37989 20.4737 5.42678 20.4269C5.47366 20.38 5.5 20.3164 5.5 20.2501V9.75009C5.5 9.68378 5.47366 9.62019 5.42678 9.57331C5.37989 9.52643 5.3163 9.50009 5.25 9.50009H3.75C3.6837 9.50009 3.62011 9.52643 3.57322 9.57331C3.52634 9.62019 3.5 9.68378 3.5 9.75009V20.2501C3.5 20.3881 3.612 20.5001 3.75 20.5001Z" fill="#E03249"/>
</svg>
