<svg width="60" height="60" viewBox="0 0 60 60" fill="none" xmlns="http://www.w3.org/2000/svg">
<circle cx="30" cy="30" r="30" fill="#A32FAD" fill-opacity="0.1"/>
<g clip-path="url(#clip0_571_6626)">
<path d="M46 28V32.172C46.0001 32.4347 45.9485 32.6948 45.8481 32.9376C45.7476 33.1803 45.6004 33.4009 45.4147 33.5867L34.5853 44.4147C34.2104 44.7894 33.7021 44.9999 33.172 45H18C17.4696 45 16.9609 44.7893 16.5858 44.4142C16.2107 44.0391 16 43.5304 16 43V17C16 16.4696 16.2107 15.9609 16.5858 15.5858C16.9609 15.2107 17.4696 15 18 15H36" stroke="#A32FAD" stroke-width="1.8" stroke-linecap="round" stroke-linejoin="round"/>
<path d="M34 44.82V35C34 34.4696 34.2107 33.9609 34.5858 33.5858C34.9609 33.2107 35.4696 33 36 33H45.82" stroke="#A32FAD" stroke-width="1.8" stroke-linecap="round" stroke-linejoin="round"/>
<path d="M40 25V17C40 16.4696 40.2107 15.9609 40.5858 15.5858C40.9609 15.2107 41.4696 15 42 15C42.5304 15 43.0391 15.2107 43.4142 15.5858C43.7893 15.9609 44 16.4696 44 17V25" stroke="#A32FAD" stroke-width="1.8" stroke-linecap="round" stroke-linejoin="round"/>
<path d="M40 21H44" stroke="#A32FAD" stroke-width="1.125" stroke-linecap="round" stroke-linejoin="round"/>
<path d="M25 23H32" stroke="#A32FAD" stroke-width="1.8" stroke-linecap="round" stroke-linejoin="round"/>
<path d="M21 29H32" stroke="#A32FAD" stroke-width="1.8" stroke-linecap="round" stroke-linejoin="round"/>
<path d="M21 35H29" stroke="#A32FAD" stroke-width="1.8" stroke-linecap="round" stroke-linejoin="round"/>
</g>
<defs>
<clipPath id="clip0_571_6626">
<rect width="32" height="32" fill="white" transform="translate(15 14)"/>
</clipPath>
</defs>
</svg>
