<svg width="135" height="88" viewBox="0 0 135 88" fill="none" xmlns="http://www.w3.org/2000/svg">
<ellipse opacity="0.1" cx="84" cy="-7.30978" rx="87.6902" ry="84" transform="rotate(90 84 -7.30978)" fill="#FF773C"/>
<path opacity="0.7" d="M19.5547 66.8301L2.65025 45.513C2.65025 45.513 1.91544 42.0107 5.0503 39.5248C8.18516 37.0389 11.4279 38.5524 11.4279 38.5524L28.3323 59.8694C28.3323 59.8694 25.0896 58.3559 21.9547 60.8419C18.8199 63.3278 19.5547 66.8301 19.5547 66.8301ZM14.4549 32.067L31.3593 53.384C31.3593 53.384 34.602 54.8975 37.7369 52.4116C40.8717 49.9256 40.1369 46.4234 40.1369 46.4234L23.2325 25.1063C23.2325 25.1063 23.9673 28.6086 20.8325 31.0945C17.6976 33.5805 14.4549 32.067 14.4549 32.067Z" stroke="#FFB996" stroke-opacity="0.8" stroke-width="3.20073" stroke-linecap="round" stroke-linejoin="round"/>
<g opacity="0.6">
<path d="M78.4993 12.1673C78.4993 11.6811 78.3062 11.2148 77.9624 10.871C77.6186 10.5271 77.1522 10.334 76.666 10.334H72.9993C72.5131 10.334 72.0468 10.5271 71.703 10.871C71.3592 11.2148 71.166 11.6811 71.166 12.1673V37.834C71.166 38.3202 71.3592 38.7865 71.703 39.1303C72.0468 39.4742 72.5131 39.6673 72.9993 39.6673H76.666C77.1522 39.6673 77.6186 39.4742 77.9624 39.1303C78.3062 38.7865 78.4993 38.3202 78.4993 37.834M78.4993 12.1673V37.834M78.4993 12.1673C78.4993 11.6811 78.6925 11.2148 79.0363 10.871C79.3801 10.5271 79.8465 10.334 80.3327 10.334H83.9993C84.4856 10.334 84.9519 10.5271 85.2957 10.871C85.6395 11.2148 85.8327 11.6811 85.8327 12.1673V37.834C85.8327 38.3202 85.6395 38.7865 85.2957 39.1303C84.9519 39.4742 84.4856 39.6673 83.9993 39.6673H80.3327C79.8465 39.6673 79.3801 39.4742 79.0363 39.1303C78.6925 38.7865 78.4993 38.3202 78.4993 37.834M71.166 17.6673H78.4993M78.4993 32.334H85.8327" stroke="#FFB996" stroke-width="2.69388" stroke-linecap="round" stroke-linejoin="round"/>
<path d="M87.6658 19.5006L94.9992 17.6673M91.3325 32.334L98.5247 30.5373M87.3047 11.3606L91.3087 10.389C92.339 10.1415 93.3858 10.7373 93.659 11.731L100.433 36.3306C100.553 36.781 100.5 37.2598 100.285 37.6731C100.07 38.0865 99.7082 38.4047 99.2708 38.5655L99.027 38.6406L95.023 39.6123C93.9927 39.8598 92.9458 39.264 92.6727 38.2703L85.8985 13.6706C85.779 13.2203 85.8319 12.7415 86.0469 12.3282C86.2619 11.9148 86.6235 11.5966 87.0608 11.4358L87.3047 11.3606Z" stroke="#FFB996" stroke-width="2.69388" stroke-linecap="round" stroke-linejoin="round"/>
</g>
<g opacity="0.4">
<path d="M138.463 46.9664L133.79 44.0292C133.223 43.6738 132.539 43.5579 131.887 43.7071C131.235 43.8563 130.669 44.2582 130.314 44.8246L128.47 47.7577L137.413 53.3713L139.256 50.4409C139.996 49.2602 139.642 47.7066 138.463 46.9664ZM112.563 73.0858L121.504 78.7007L136.074 55.5035L127.131 49.8872L112.562 73.0872L112.563 73.0858ZM111.196 80.2198L111 85.495L115.668 83.0259L120.004 80.7362L111.376 75.3146L111.196 80.2198Z" fill="#FFB996"/>
</g>
</svg>
