<svg width="1552" height="675" viewBox="0 0 1552 675" fill="none" xmlns="http://www.w3.org/2000/svg">
<rect width="1552" height="675" fill="white"/>
<rect x="66" y="73" width="605.321" height="44.5635" rx="22.2818" fill="#E3E8F1"/>
<rect x="858.242" y="95.2812" width="289.663" height="44.5635" rx="22.2818" fill="#E3E8F1"/>
<rect x="1196.18" y="95.2812" width="289.663" height="44.5635" rx="22.2818" fill="#E3E8F1"/>
<rect x="631.711" y="184.41" width="289.663" height="28.4711" rx="14.2356" fill="#E3E8F1"/>
<rect x="251.469" y="305" width="289.663" height="28.4711" rx="14.2356" transform="rotate(90 251.469 305)" fill="#E3E8F1"/>
<rect x="134.086" y="212.879" width="382.503" height="28.4711" rx="14.2356" transform="rotate(90 134.086 212.879)" fill="#E3E8F1"/>
<rect x="591.164" y="305" width="289.663" height="28.4711" rx="14.2356" transform="rotate(90 591.164 305)" fill="#E3E8F1"/>
<rect x="421.164" y="438.691" width="155.972" height="28.4711" rx="14.2356" transform="rotate(90 421.164 438.691)" fill="#E3E8F1"/>
<rect x="761.164" y="396.605" width="198.06" height="28.4711" rx="14.2356" transform="rotate(90 761.164 396.605)" fill="#E3E8F1"/>
<rect x="1101.16" y="305" width="289.663" height="28.4711" rx="14.2356" transform="rotate(90 1101.16 305)" fill="#E3E8F1"/>
<rect x="931.164" y="438.691" width="155.972" height="28.4711" rx="14.2356" transform="rotate(90 931.164 438.691)" fill="#E3E8F1"/>
<rect x="1441.16" y="305" width="289.663" height="28.4711" rx="14.2356" transform="rotate(90 1441.16 305)" fill="#E3E8F1"/>
<rect x="1271.16" y="438.691" width="155.972" height="28.4711" rx="14.2356" transform="rotate(90 1271.16 438.691)" fill="#E3E8F1"/>
<rect x="91.9922" y="580.527" width="1393.85" height="28.4711" rx="14.2356" fill="#E3E8F1"/>
</svg>
