<svg xmlns="http://www.w3.org/2000/svg" width="1332.039" height="396.826" viewBox="0 0 1332.039 396.826"><g transform="translate(1350.762 287.102)" style="isolation:isolate"><g transform="translate(-533.929 -283.237)"><g transform="translate(4.421 1.562)"><path d="M-620.374-205.465l-23.7-14.262a5.292,5.292,0,0,1-1.806-7.261h0a5.292,5.292,0,0,1,7.261-1.806l23.7,14.262a5.291,5.291,0,0,1,1.807,7.261h0A5.292,5.292,0,0,1-620.374-205.465Z" transform="translate(652.163 291.342)" fill="none" stroke="#4d4d4d" stroke-miterlimit="10" stroke-width="3"/><path d="M-625.077-197.649l-23.7-14.262a5.291,5.291,0,0,1-1.806-7.261h0a5.29,5.29,0,0,1,7.261-1.806l23.7,14.262a5.29,5.29,0,0,1,1.806,7.26h0A5.291,5.291,0,0,1-625.077-197.649Z" transform="translate(651.345 292.702)" fill="none" stroke="#4d4d4d" stroke-miterlimit="10" stroke-width="3"/><path d="M-637.665-247.22h0c.008.09.016.18.026.27a71.678,71.678,0,0,1-3.171,26.78l25.487,15.041a71.7,71.7,0,0,1,21.911-15.719l.249-.108h0q1.3-.562,2.551-1.239a31.785,31.785,0,0,0,12.233-11.821,31.931,31.931,0,0,0-11.271-43.728,31.929,31.929,0,0,0-43.728,11.271,31.77,31.77,0,0,0-4.435,16.424C-637.807-249.1-637.755-248.16-637.665-247.22Z" transform="translate(653.178 282.182)" fill="none" stroke="#4d4d4d" stroke-miterlimit="10" stroke-width="3"/><path d="M-648.013-212.6a12.615,12.615,0,0,0,5.747,14.219,12.615,12.615,0,0,0,15.071-1.693Z" transform="translate(651.846 294.292)" fill="none" stroke="#4d4d4d" stroke-miterlimit="10" stroke-width="3"/><path d="M-633.988-221.006l13.544-22.95a4.751,4.751,0,0,0-1.678-6.505,4.75,4.75,0,0,0-6.505,1.677,4.75,4.75,0,0,0,1.677,6.505l9.088,5.364" transform="translate(654.365 287.588)" fill="none" stroke="#4d4d4d" stroke-miterlimit="10" stroke-width="3"/><path d="M-625.476-216.7l13.544-22.949a4.751,4.751,0,0,1,6.506-1.676,4.75,4.75,0,0,1,1.677,6.505,4.751,4.751,0,0,1-6.507,1.676l-9.088-5.363" transform="translate(655.847 289.178)" fill="none" stroke="#4d4d4d" stroke-miterlimit="10" stroke-width="3"/></g><g transform="translate(75.428 49.924)"><line x2="7.675" y2="4.53" transform="translate(7.731 9.595)" fill="none" stroke="#4d4d4d" stroke-linecap="round" stroke-miterlimit="10" stroke-width="3"/><line x2="8.894" y2="0.574" transform="translate(13.791)" fill="none" stroke="#4d4d4d" stroke-linecap="round" stroke-miterlimit="10" stroke-width="3"/><line x2="4.802" y2="7.508" transform="translate(0 17.269)" fill="none" stroke="#4d4d4d" stroke-linecap="round" stroke-miterlimit="10" stroke-width="3"/></g><line x1="7.675" y1="4.53" transform="translate(4.2 12.921)" fill="none" stroke="#4d4d4d" stroke-linecap="round" stroke-miterlimit="10" stroke-width="3"/><line x1="4.802" y1="7.508" transform="translate(12.544)" fill="none" stroke="#4d4d4d" stroke-linecap="round" stroke-miterlimit="10" stroke-width="3"/><line x1="8.894" y1="0.575" transform="translate(0 27.353)" fill="none" stroke="#4d4d4d" stroke-linecap="round" stroke-miterlimit="10" stroke-width="3"/></g><g transform="translate(-908.724 -232.99)"><g transform="translate(37.149)"><rect width="12.903" height="32.393" rx="1" transform="translate(0 41.382) rotate(-22.301)" fill="none" stroke="#4d4d4d" stroke-miterlimit="10" stroke-width="3"/><rect width="12.903" height="43.193" rx="1" transform="translate(16.018 23.139) rotate(-22.301)" fill="none" stroke="#4d4d4d" stroke-miterlimit="10" stroke-width="3"/><rect width="12.903" height="53.994" rx="1" transform="translate(32.036 4.896) rotate(-22.301)" fill="none" stroke="#4d4d4d" stroke-miterlimit="10" stroke-width="3"/></g><g transform="translate(0 7.284)"><line x2="35.522" y2="86.608" fill="none" stroke="#4d4d4d" stroke-linecap="round" stroke-linejoin="round" stroke-width="3"/><line x1="103.897" y2="42.613" transform="translate(15.003 35.58)" fill="none" stroke="#4d4d4d" stroke-linecap="round" stroke-linejoin="round" stroke-width="3"/></g></g><circle cx="22.187" cy="22.187" r="22.187" transform="translate(-64.597 -135.17)" fill="none" stroke="#4d4d4d" stroke-linecap="round" stroke-linejoin="round" stroke-width="3"/><circle cx="22.187" cy="22.187" r="22.187" transform="translate(-188.573 -11.182)" fill="none" stroke="#4d4d4d" stroke-linecap="round" stroke-linejoin="round" stroke-width="3"/><path d="M-1301.489-22.945a22.187,22.187,0,0,1-22.187-22.187,22.187,22.187,0,0,1-22.187,22.187A22.187,22.187,0,0,1-1323.676-.758,22.187,22.187,0,0,1-1301.489-22.945Z" transform="translate(0.969 41.762)" fill="none" stroke="#4d4d4d" stroke-linecap="round" stroke-linejoin="round" stroke-width="3"/><circle cx="17.995" cy="17.995" r="17.995" transform="translate(-1199.008 -163.145)" fill="none" stroke="#4d4d4d" stroke-linecap="round" stroke-linejoin="round" stroke-width="3"/><circle cx="8.874" cy="8.874" r="8.874" transform="translate(-865.06 -273.243)" fill="none" stroke="#4d4d4d" stroke-linecap="round" stroke-linejoin="round" stroke-width="3"/><circle cx="8.874" cy="8.874" r="8.874" transform="translate(-1090.115 91.357) rotate(-22.391)" fill="none" stroke="#4d4d4d" stroke-linecap="round" stroke-linejoin="round" stroke-width="3"/><circle cx="8.874" cy="8.874" r="8.874" transform="translate(-355.971 -282.117)" fill="none" stroke="#4d4d4d" stroke-linecap="round" stroke-linejoin="round" stroke-width="3"/><g transform="translate(-1010.315 -121.489)"><circle cx="8.874" cy="8.874" r="8.874" fill="none" stroke="#4d4d4d" stroke-linecap="round" stroke-linejoin="round" stroke-width="3"/></g><g transform="translate(-1134.205 -285.098)"><ellipse cx="25.35" cy="53.482" rx="25.35" ry="53.482" transform="translate(9.568 22.074) rotate(-25.81)" fill="none" stroke="#4d4d4d" stroke-linecap="round" stroke-linejoin="round" stroke-width="3"/><ellipse cx="25.35" cy="53.483" rx="25.35" ry="53.483" transform="translate(0 79.268) rotate(-84.476)" fill="none" stroke="#4d4d4d" stroke-linecap="round" stroke-linejoin="round" stroke-width="3"/><ellipse cx="53.482" cy="25.35" rx="53.482" ry="25.35" transform="matrix(0.543, -0.84, 0.84, 0.543, 5.364, 90.359)" fill="none" stroke="#4d4d4d" stroke-linecap="round" stroke-linejoin="round" stroke-width="3"/><path d="M-1115.068-227.653a6.709,6.709,0,0,1-8.96-3.118,6.708,6.708,0,0,1,3.12-8.96,6.707,6.707,0,0,1,8.96,3.118A6.708,6.708,0,0,1-1115.068-227.653Z" transform="translate(1173.663 292.877)" fill="none" stroke="#4d4d4d" stroke-linecap="round" stroke-linejoin="round" stroke-width="3"/></g><g transform="translate(-259.061 -273.392)"><g transform="translate(81.261)"><path d="M-349.208-244.919l30.552-28.111a7.941,7.941,0,0,1,11.22.467h0a7.94,7.94,0,0,1-.467,11.219l-30.552,28.111a7.94,7.94,0,0,1-11.219-.467h0A7.938,7.938,0,0,1-349.208-244.919Z" transform="translate(351.772 275.127)" fill="none" stroke="#4d4d4d" stroke-linecap="round" stroke-miterlimit="10" stroke-width="3"/></g><circle cx="34.117" cy="34.117" r="34.117" transform="translate(0 66.404) rotate(-34.235)" fill="none" stroke="#4d4d4d" stroke-linecap="round" stroke-miterlimit="10" stroke-width="3"/><circle cx="24.616" cy="24.616" r="24.616" transform="matrix(0.806, -0.592, 0.592, 0.806, 12.989, 70.14)" fill="none" stroke="#4d4d4d" stroke-linecap="round" stroke-miterlimit="10" stroke-width="3"/><line y1="9.25" x2="9.883" transform="translate(72.308 42.853)" fill="none" stroke="#4d4d4d" stroke-linecap="round" stroke-miterlimit="10" stroke-width="3"/></g><g transform="translate(-1348.762 -200.627)"><g transform="translate(67.149 121.916)"><path d="M3.9,0H40.952a3.9,3.9,0,0,1,3.9,3.9v8.511a0,0,0,0,1,0,0H0a0,0,0,0,1,0,0V3.9A3.9,3.9,0,0,1,3.9,0Z" transform="translate(0 16.268) rotate(-21.268)" fill="none" stroke="#4d4d4d" stroke-linecap="round" stroke-miterlimit="10" stroke-width="3"/></g><circle cx="44.804" cy="44.804" r="44.804" transform="matrix(0.902, -0.432, 0.432, 0.902, 0, 38.669)" fill="none" stroke="#4d4d4d" stroke-miterlimit="10" stroke-width="3"/><path d="M-1263.606-119.368l-52.753-72.434-6.55-8.772a55.752,55.752,0,0,0-12.245,77.888,55.751,55.751,0,0,0,77.888,12.244l-6.444-8.849" transform="translate(1349.734 215.337)" fill="none" stroke="#4d4d4d" stroke-linecap="round" stroke-linejoin="round" stroke-width="3"/><path d="M-1335.076-167.387a44.6,44.6,0,0,0,28.433-8.531,44.613,44.613,0,0,0,16.844-24.445,44.6,44.6,0,0,0-28.433,8.532A44.6,44.6,0,0,0-1335.076-167.387Z" transform="translate(1351.608 215.366)" fill="none" stroke="#4d4d4d" stroke-miterlimit="10" stroke-width="3"/><path d="M-1300.014-119.245a44.6,44.6,0,0,0,28.433-8.531,44.614,44.614,0,0,0,16.844-24.445,44.6,44.6,0,0,0-28.433,8.532A44.6,44.6,0,0,0-1300.014-119.245Z" transform="translate(1357.71 223.744)" fill="none" stroke="#4d4d4d" stroke-miterlimit="10" stroke-width="3"/><ellipse cx="22.402" cy="44.804" rx="22.402" ry="44.804" transform="matrix(0.808, -0.589, 0.589, 0.808, 15.267, 36.723)" fill="none" stroke="#4d4d4d" stroke-miterlimit="10" stroke-width="3"/><line y1="52.753" x2="72.434" transform="translate(23.535 33.375)" fill="none" stroke="#4d4d4d" stroke-miterlimit="10" stroke-width="3"/><line x2="7.355" y2="18.431" transform="translate(80.432 111.574)" fill="none" stroke="#4d4d4d" stroke-miterlimit="10" stroke-width="3"/><line y1="21.234" x2="53.211" transform="translate(66.709 131.049)" fill="none" stroke="#4d4d4d" stroke-linecap="round" stroke-miterlimit="10" stroke-width="3"/></g></g></svg>