<svg xmlns="http://www.w3.org/2000/svg" xmlns:xlink="http://www.w3.org/1999/xlink" width="1178" height="458" viewBox="0 0 1178 458"><defs><filter id="a" x="0" y="0" width="1178" height="458" filterUnits="userSpaceOnUse"><feOffset dy="3" input="SourceAlpha"/><feGaussianBlur stdDeviation="3" result="b"/><feFlood flood-opacity="0.051"/><feComposite operator="in" in2="b"/><feComposite in="SourceGraphic"/></filter></defs><g transform="translate(-57 -413)"><g transform="matrix(1, 0, 0, 1, 57, 413)" filter="url(#a)"><path d="M3.993,0H1156.007A4,4,0,0,1,1160,4V436a4,4,0,0,1-3.993,4H3.993A4,4,0,0,1,0,436V4A4,4,0,0,1,3.993,0Z" transform="translate(9 6)" fill="#fff"/></g><path d="M3.993,0H1156.007A4,4,0,0,1,1160,4V67H0V4A4,4,0,0,1,3.993,0Z" transform="translate(66 419)" fill="#e3e8f1"/><rect width="321" height="22" rx="4" transform="translate(192 521)" fill="#e3e8f1"/><rect width="40" height="22" rx="4" transform="translate(681 521)" fill="#e3e8f1"/><rect width="98" height="22" rx="4" transform="translate(817 521)" fill="#e3e8f1"/><rect width="98" height="22" rx="4" transform="translate(817 661)" fill="#e3e8f1"/><rect width="40" height="22" rx="4" transform="translate(681 729)" fill="#e3e8f1"/><rect width="40" height="22" rx="4" transform="translate(681 793)" fill="#e3e8f1"/><rect width="40" height="22" rx="4" transform="translate(681 588)" fill="#e3e8f1"/><rect width="40" height="22" rx="4" transform="translate(681 658)" fill="#e3e8f1"/><rect width="425" height="22" rx="4" transform="translate(192 588)" fill="#e3e8f1"/><rect width="234" height="22" rx="4" transform="translate(192 729)" fill="#e3e8f1"/><rect width="364" height="22" rx="4" transform="translate(192 793)" fill="#e3e8f1"/><rect width="321" height="22" rx="4" transform="translate(192 658)" fill="#e3e8f1"/><circle cx="11" cy="11" r="11" transform="translate(134 585)" fill="#e3e8f1"/><circle cx="11" cy="11" r="11" transform="translate(134 521)" fill="#e3e8f1"/><circle cx="11" cy="11" r="11" transform="translate(134 658)" fill="#e3e8f1"/><circle cx="11" cy="11" r="11" transform="translate(134 729)" fill="#e3e8f1"/><circle cx="11" cy="11" r="11" transform="translate(134 793)" fill="#e3e8f1"/><path d="M0,0H1062.416" transform="translate(127.801 636.926)" fill="none" stroke="#e9e9e9" stroke-width="1"/><path d="M0,0H1062.416" transform="translate(127.801 566.926)" fill="none" stroke="#e9e9e9" stroke-width="1"/><path d="M0,0H1062.416" transform="translate(127.801 705.926)" fill="none" stroke="#e9e9e9" stroke-width="1"/><path d="M0,0H1062.416" transform="translate(127.801 774.926)" fill="none" stroke="#e9e9e9" stroke-width="1"/><rect width="82" height="35" rx="4" transform="translate(1059 514)" fill="#e3e8f1"/></g></svg>