<svg width="1142" height="58" viewBox="0 0 1142 58" fill="none" xmlns="http://www.w3.org/2000/svg">
<g clip-path="url(#clip0_375_206)">
<g style="mix-blend-mode:darken">
<g style="mix-blend-mode:soft-light">
<path d="M1131.99 47.7793C1140 40.1959 1142.08 25.0143 1136.62 13.8703C1131.17 2.72635 1120.25 -0.160079 1112.24 7.42333C1104.23 15.0067 1102.15 30.1883 1107.61 41.3323C1113.06 52.4763 1123.97 55.3627 1131.99 47.7793Z" stroke="#CAC9C9" stroke-opacity="0.4" stroke-width="3" stroke-miterlimit="10" stroke-linecap="round"/>
</g>
<g style="mix-blend-mode:soft-light">
<path d="M1129.61 41.7892C1135.25 36.0316 1136.46 25.0095 1132.32 17.1706C1128.18 9.3317 1120.26 7.64448 1114.62 13.4021C1108.98 19.1597 1107.77 30.1818 1111.91 38.0207C1116.05 45.8596 1123.98 47.5469 1129.61 41.7892Z" stroke="#CAC9C9" stroke-opacity="0.4" stroke-width="3" stroke-miterlimit="10" stroke-linecap="round"/>
</g>
<g style="mix-blend-mode:soft-light">
<path d="M1134.93 10.9239L1140.01 4.30664" stroke="#CAC9C9" stroke-opacity="0.4" stroke-width="3" stroke-miterlimit="10" stroke-linecap="round"/>
</g>
</g>
<g style="mix-blend-mode:darken">
<g style="mix-blend-mode:soft-light">
<g style="mix-blend-mode:soft-light">
<path d="M916.21 23.4383L892.51 9.17631C891.308 8.4527 890.442 7.28132 890.104 5.91972C889.765 4.55812 889.981 3.11775 890.704 1.91531V1.91531C891.428 0.713211 892.599 -0.152306 893.961 -0.490972C895.322 -0.829638 896.763 -0.613729 897.965 0.109309L921.665 14.3713C922.868 15.0946 923.733 16.2659 924.072 17.6276C924.411 18.9893 924.195 20.4298 923.472 21.6323V21.6323C922.748 22.8347 921.577 23.7004 920.215 24.0391C918.853 24.3778 917.413 24.1617 916.21 23.4383V23.4383Z" stroke="#CAC9C9" stroke-opacity="0.4" stroke-width="3" stroke-miterlimit="10"/>
</g>
<g style="mix-blend-mode:soft-light">
<path d="M910.689 32.6148L886.989 18.3528C885.787 17.6294 884.921 16.458 884.582 15.0963C884.244 13.7347 884.46 12.2942 885.183 11.0918V11.0918C885.541 10.4964 886.013 9.97737 886.572 9.56436C887.131 9.15134 887.765 8.85244 888.439 8.68473C889.114 8.51702 889.814 8.48379 890.502 8.58692C891.189 8.69006 891.849 8.92756 892.444 9.28584L916.144 23.5478C916.739 23.9059 917.258 24.3778 917.671 24.9365C918.084 25.4951 918.383 26.1296 918.551 26.8038C918.718 27.478 918.752 28.1785 918.649 28.8655C918.546 29.5526 918.308 30.2126 917.95 30.8078V30.8078C917.227 32.0103 916.056 32.8762 914.694 33.2151C913.332 33.554 911.892 33.3381 910.689 32.6148V32.6148Z" stroke="#CAC9C9" stroke-opacity="0.4" stroke-width="3" stroke-miterlimit="10"/>
</g>
<g style="mix-blend-mode:soft-light">
<path d="M899.934 -27.4764C899.942 -27.3864 899.95 -27.2964 899.96 -27.2064C900.607 -18.1595 899.531 -9.07205 896.789 -0.426411L922.276 14.6146C928.52 8.03627 935.955 2.70228 944.187 -1.10442L944.436 -1.21241C945.303 -1.58707 946.153 -2.00009 946.987 -2.45142C952.063 -5.20712 956.292 -9.29383 959.22 -14.2724C963.524 -21.5657 964.755 -30.2701 962.641 -38.4707C960.527 -46.6713 955.242 -53.6963 947.949 -58.0004C944.338 -60.1318 940.342 -61.531 936.19 -62.1181C932.038 -62.7052 927.811 -62.4687 923.751 -61.4221C919.69 -60.3754 915.875 -58.5392 912.524 -56.0182C909.174 -53.4972 906.352 -50.3409 904.221 -46.7294C901.277 -41.7597 899.744 -36.0814 899.786 -30.3054C899.792 -29.3564 899.844 -28.4164 899.934 -27.4764Z" stroke="#CAC9C9" stroke-opacity="0.4" stroke-width="3" stroke-miterlimit="10"/>
</g>
<g style="mix-blend-mode:soft-light">
<path d="M888.254 19.2539C887.517 21.9261 887.68 24.7669 888.719 27.337C889.757 29.9072 891.614 32.0636 894.001 33.4729C896.357 34.8629 899.101 35.4494 901.819 35.144C904.538 34.8386 907.083 33.658 909.072 31.7799L888.254 19.2539Z" stroke="#CAC9C9" stroke-opacity="0.4" stroke-width="3" stroke-miterlimit="10"/>
</g>
<g style="mix-blend-mode:soft-light">
<path d="M904.798 4.14347L918.342 -18.8065C918.982 -19.8917 919.165 -21.1866 918.85 -22.4065C918.535 -23.6264 917.749 -24.6713 916.664 -25.3115C916.127 -25.6286 915.532 -25.8367 914.915 -25.924C914.297 -26.0113 913.668 -25.976 913.064 -25.8203C912.46 -25.6646 911.893 -25.3914 911.394 -25.0164C910.896 -24.6413 910.476 -24.1718 910.159 -23.6345C909.842 -23.0973 909.634 -22.5029 909.547 -21.8852C909.459 -21.2676 909.495 -20.6388 909.65 -20.0347C909.806 -19.4307 910.079 -18.8632 910.454 -18.3647C910.829 -17.8663 911.299 -17.4465 911.836 -17.1295L920.924 -11.7655" stroke="#CAC9C9" stroke-opacity="0.4" stroke-width="3" stroke-miterlimit="10"/>
</g>
<g style="mix-blend-mode:soft-light">
<path d="M914.792 10.0394L928.336 -12.9096C928.977 -13.9945 930.022 -14.7806 931.242 -15.0949C932.462 -15.4092 933.757 -15.226 934.842 -14.5856C935.379 -14.2686 935.849 -13.8489 936.224 -13.3504C936.599 -12.852 936.872 -12.2845 937.028 -11.6804C937.183 -11.0764 937.219 -10.4476 937.131 -9.82991C937.044 -9.21225 936.836 -8.61785 936.519 -8.08062C936.202 -7.54328 935.782 -7.07368 935.283 -6.69864C934.785 -6.3236 934.217 -6.05047 933.613 -5.89484C933.008 -5.73921 932.379 -5.70412 931.762 -5.79158C931.144 -5.87905 930.549 -6.08736 930.012 -6.4046L920.924 -11.7676" stroke="#CAC9C9" stroke-opacity="0.4" stroke-width="3" stroke-miterlimit="10"/>
</g>
</g>
<g style="mix-blend-mode:soft-light">
<g style="mix-blend-mode:soft-light">
<path d="M963.159 -4.48145L970.834 0.0485549" stroke="#CAC9C9" stroke-opacity="0.4" stroke-width="3" stroke-miterlimit="10" stroke-linecap="round"/>
</g>
<g style="mix-blend-mode:soft-light">
<path d="M955.428 3.19238L960.23 10.7004" stroke="#CAC9C9" stroke-opacity="0.4" stroke-width="3" stroke-miterlimit="10" stroke-linecap="round"/>
</g>
</g>
</g>
<g style="mix-blend-mode:darken">
<g style="mix-blend-mode:soft-light">
<g style="mix-blend-mode:soft-light">
<path d="M681.162 26.866L671.074 31.0033C670.563 31.2129 670.319 31.797 670.528 32.308L682.062 60.4277C682.271 60.9387 682.855 61.183 683.366 60.9734L693.454 56.8361C693.965 56.6265 694.209 56.0424 694 55.5314L682.466 27.4117C682.257 26.9007 681.673 26.6564 681.162 26.866Z" stroke="#CAC9C9" stroke-opacity="0.4" stroke-width="3" stroke-miterlimit="10"/>
</g>
<g style="mix-blend-mode:soft-light">
<path d="M697.18 8.62279L687.092 12.7602C686.581 12.9698 686.337 13.5539 686.546 14.0649L702.178 52.1767C702.388 52.6877 702.972 52.9321 703.483 52.7225L713.57 48.5851C714.081 48.3755 714.325 47.7914 714.116 47.2804L698.484 9.16852C698.275 8.65754 697.691 8.41321 697.18 8.62279Z" stroke="#CAC9C9" stroke-opacity="0.4" stroke-width="3" stroke-miterlimit="10"/>
</g>
<g style="mix-blend-mode:soft-light">
<path d="M713.198 -9.62037L703.11 -5.48299C702.599 -5.27341 702.355 -4.68929 702.564 -4.17831L722.295 43.9267C722.504 44.4377 723.088 44.682 723.599 44.4724L733.687 40.335C734.198 40.1255 734.442 39.5413 734.233 39.0304L714.502 -9.07464C714.293 -9.58562 713.709 -9.82995 713.198 -9.62037Z" stroke="#CAC9C9" stroke-opacity="0.4" stroke-width="3" stroke-miterlimit="10"/>
</g>
</g>
<g style="mix-blend-mode:darken">
<g style="mix-blend-mode:soft-light">
<path d="M633 -2.71582L668.522 83.8922" stroke="#CAC9C9" stroke-opacity="0.4" stroke-width="3" stroke-linecap="round" stroke-linejoin="round"/>
</g>
<g style="mix-blend-mode:soft-light">
<path d="M751.9 32.8643L648.003 75.4773" stroke="#CAC9C9" stroke-opacity="0.4" stroke-width="3" stroke-linecap="round" stroke-linejoin="round"/>
</g>
</g>
</g>
<g style="mix-blend-mode:darken">
<g style="mix-blend-mode:soft-light">
<path d="M525.96 54.3307C538.564 48.2351 538.356 21.7376 525.496 -4.85318C512.636 -31.4439 491.993 -48.0585 479.389 -41.9629C466.785 -35.8673 466.993 -9.36973 479.853 17.221C492.714 43.8117 513.356 60.4263 525.96 54.3307Z" stroke="#CAC9C9" stroke-opacity="0.4" stroke-width="3" stroke-linecap="round" stroke-linejoin="round"/>
</g>
<g style="mix-blend-mode:soft-light">
<path d="M555.91 11.3321C557.257 -2.60326 534.516 -16.2052 505.115 -19.0486C475.714 -21.8919 450.788 -12.9001 449.44 1.0353C448.093 14.9707 470.834 28.5726 500.235 31.416C529.635 34.2594 554.562 25.2675 555.91 11.3321Z" stroke="#CAC9C9" stroke-opacity="0.4" stroke-width="3" stroke-linecap="round" stroke-linejoin="round"/>
</g>
<g style="mix-blend-mode:soft-light">
<path d="M523.993 19.9646C540.031 -4.84673 543.5 -31.1231 531.739 -38.7253C519.979 -46.3276 497.443 -32.3768 481.405 -7.5655C465.366 17.2458 461.898 43.5222 473.658 51.1244C485.418 58.7267 507.954 44.7759 523.993 19.9646Z" stroke="#CAC9C9" stroke-opacity="0.4" stroke-width="3.00067" stroke-linecap="round" stroke-linejoin="round"/>
</g>
<g style="mix-blend-mode:soft-light">
<path d="M505.595 12.2243C503.993 12.9989 502.15 13.1055 500.469 12.5208C498.789 11.936 497.41 10.7079 496.635 9.10635C496.252 8.31319 496.028 7.45222 495.977 6.57265C495.926 5.69307 496.049 4.81211 496.339 3.98007C496.629 3.14803 497.08 2.38121 497.666 1.72342C498.252 1.06562 498.962 0.529724 499.755 0.146346C500.548 -0.237424 501.409 -0.461198 502.288 -0.512193C503.168 -0.563187 504.049 -0.440398 504.881 -0.150849C505.713 0.1387 506.48 0.589333 507.138 1.17532C507.796 1.76131 508.332 2.47117 508.715 3.26434C509.099 4.05751 509.322 4.91847 509.373 5.79805C509.424 6.67763 509.301 7.55858 509.011 8.39062C508.721 9.22266 508.271 9.98948 507.684 10.6473C507.098 11.3051 506.388 11.841 505.595 12.2243V12.2243Z" stroke="#CAC9C9" stroke-opacity="0.4" stroke-width="3" stroke-linecap="round" stroke-linejoin="round"/>
</g>
</g>
<g style="mix-blend-mode:darken">
<path d="M181.995 86.617C191.933 86.617 199.99 78.5603 199.99 68.622C199.99 58.6836 191.933 50.627 181.995 50.627C172.057 50.627 164 58.6836 164 68.622C164 78.5603 172.057 86.617 181.995 86.617Z" stroke="#CAC9C9" stroke-opacity="0.4" stroke-width="3" stroke-linecap="round" stroke-linejoin="round"/>
</g>
<g style="mix-blend-mode:darken">
<g style="mix-blend-mode:soft-light">
<path d="M72.1239 73.8213C94.4435 65.5845 103.871 44.9652 93.1817 27.767C82.4921 10.5687 55.7328 3.30406 33.4132 11.5409C11.0936 19.7778 1.66568 40.397 12.3553 57.5953C23.045 74.7935 49.8043 82.0582 72.1239 73.8213Z" stroke="#CAC9C9" stroke-opacity="0.4" stroke-width="3.00034" stroke-miterlimit="10"/>
</g>
<g style="mix-blend-mode:soft-light">
<path d="M79.128 70.6071L26.3749 14.7934L19.8249 8.03418C7.87261 14.7417 -0.132141 24.833 -2.42852 36.0882C-4.7249 47.3434 -1.12479 58.8405 7.5799 68.0504C11.8901 72.6107 17.3238 76.4721 23.5707 79.4142C29.8177 82.3563 36.7555 84.3215 43.9881 85.1976C51.2207 86.0737 58.6065 85.8435 65.7236 84.5202C72.8407 83.1968 79.5498 80.8063 85.468 77.485L79.024 70.6664" stroke="#CAC9C9" stroke-opacity="0.4" stroke-width="3" stroke-linecap="round" stroke-linejoin="round"/>
</g>
<g style="mix-blend-mode:soft-light">
<path d="M9.53192 33.6294C19.7057 34.0042 29.7395 31.6844 37.965 27.0558C46.2056 22.4429 52.1495 15.796 54.809 8.21985C44.6352 7.84528 34.6013 10.1653 26.3759 14.7941C18.1348 19.4063 12.1907 26.0531 9.53192 33.6294V33.6294Z" stroke="#CAC9C9" stroke-opacity="0.4" stroke-width="3" stroke-miterlimit="10"/>
</g>
<g style="mix-blend-mode:soft-light">
<path d="M50.696 77.1801C60.8697 77.5549 70.9035 75.2352 79.129 70.6066C87.3695 65.9936 93.3134 59.3468 95.973 51.7706C85.7991 51.3961 75.7654 53.7161 67.54 58.3449C59.2988 62.9571 53.3548 69.6039 50.696 77.1801V77.1801Z" stroke="#CAC9C9" stroke-opacity="0.4" stroke-width="3" stroke-miterlimit="10"/>
</g>
<g style="mix-blend-mode:soft-light">
<path d="M79.147 70.5779C89.1438 64.9627 85.4328 47.9217 70.8582 32.5157C56.2837 17.1097 36.3646 9.17273 26.3678 14.7879C16.371 20.4031 20.082 37.4441 34.6566 52.8501C49.2311 68.2561 69.1502 76.1931 79.147 70.5779Z" stroke="#CAC9C9" stroke-opacity="0.4" stroke-width="2.99968" stroke-miterlimit="10"/>
</g>
<g style="mix-blend-mode:soft-light">
<path d="M16.535 63.0246L88.969 22.376" stroke="#CAC9C9" stroke-opacity="0.4" stroke-width="3" stroke-miterlimit="10"/>
</g>
</g>
</g>
<defs>
<clipPath id="clip0_375_206">
<rect width="1142" height="58" fill="white"/>
</clipPath>
</defs>
</svg>
