<svg xmlns="http://www.w3.org/2000/svg" xmlns:xlink="http://www.w3.org/1999/xlink" width="350.162" height="296.906" viewBox="0 0 350.162 296.906"><defs><filter id="a" x="0" y="0" width="350.162" height="296.906" filterUnits="userSpaceOnUse"><feOffset dy="3" input="SourceAlpha"/><feGaussianBlur stdDeviation="3" result="b"/><feFlood flood-opacity="0.051"/><feComposite operator="in" in2="b"/><feComposite in="SourceGraphic"/></filter></defs><g transform="translate(-48.369 -413)"><g transform="matrix(1, 0, 0, 1, 48.37, 413)" filter="url(#a)"><path d="M1.143,0H331.018c.631,0,1.143,1.135,1.143,2.536V276.371c0,1.4-.512,2.535-1.143,2.535H1.143c-.631,0-1.143-1.135-1.143-2.535V2.536C0,1.135.512,0,1.143,0Z" transform="translate(9 6)" fill="#fff"/></g><path d="M1.152,0H333.433c.636,0,1.152,1.38,1.152,3.083V51.64H0V3.083C0,1.38.516,0,1.152,0Z" transform="translate(56.157 419)" fill="#e3e8f1"/><rect width="171" height="22" rx="4" transform="translate(129 500)" fill="#e3e8f1"/><rect width="230" height="22" rx="4" transform="translate(129 573)" fill="#e3e8f1"/><rect width="169" height="22" rx="4" transform="translate(131 639)" fill="#e3e8f1"/><circle cx="11" cy="11" r="11" transform="translate(86 573)" fill="#e3e8f1"/><circle cx="11" cy="11" r="11" transform="translate(86 500)" fill="#e3e8f1"/><circle cx="11" cy="11" r="11" transform="translate(86 637)" fill="#e3e8f1"/><path d="M0,0H271.668" transform="translate(89.231 615.926)" fill="none" stroke="#e9e9e9" stroke-width="1"/><path d="M0,0H271.668" transform="translate(89.231 545.926)" fill="none" stroke="#e9e9e9" stroke-width="1"/></g></svg>