<svg xmlns="http://www.w3.org/2000/svg" width="397.768" height="606" viewBox="0 0 397.768 606"><g transform="translate(-840.232 -128)"><path d="M0,0H394.268" transform="translate(840.232 274.5)" fill="#eaeaea" stroke="#eaeaea" stroke-width="1"/><text transform="translate(1105.818 247)" fill="#838383" font-size="14" font-family="Roboto-Regular, Roboto" letter-spacing="0.007em"><tspan x="0" y="0">Quizzes</tspan></text><text transform="translate(1179.65 247)" fill="#838383" font-size="14" font-family="Roboto-Regular, Roboto" letter-spacing="0.007em"><tspan x="0" y="0">Videos</tspan></text><rect width="321" height="22" rx="4" transform="translate(917 316)" fill="#e3e8f1"/><rect width="66" height="14" rx="4" transform="translate(917 352)" fill="#e3e8f1"/><circle cx="11" cy="11" r="11" transform="translate(868 316)" fill="#e3e8f1"/><rect width="321" height="22" rx="4" transform="translate(917 500)" fill="#e3e8f1"/><rect width="66" height="14" rx="4" transform="translate(917 536)" fill="#e3e8f1"/><circle cx="11" cy="11" r="11" transform="translate(868 500)" fill="#e3e8f1"/><rect width="321" height="22" rx="4" transform="translate(917 408)" fill="#e3e8f1"/><rect width="66" height="14" rx="4" transform="translate(917 444)" fill="#e3e8f1"/><circle cx="11" cy="11" r="11" transform="translate(868 408)" fill="#e3e8f1"/><rect width="321" height="22" rx="4" transform="translate(917 684)" fill="#e3e8f1"/><rect width="66" height="14" rx="4" transform="translate(917 720)" fill="#e3e8f1"/><circle cx="11" cy="11" r="11" transform="translate(868 684)" fill="#e3e8f1"/><rect width="321" height="22" rx="4" transform="translate(917 592)" fill="#e3e8f1"/><rect width="66" height="14" rx="4" transform="translate(917 628)" fill="#e3e8f1"/><circle cx="11" cy="11" r="11" transform="translate(868 592)" fill="#e3e8f1"/><rect width="134" height="14" rx="4" transform="translate(877 128)" fill="#e3e8f1"/><rect width="257" height="31" rx="4" transform="translate(877 178)" fill="#e3e8f1"/><rect width="58" height="26" rx="13" transform="translate(1024 232)" fill="#e3e8f1"/><rect width="58" height="26" rx="13" transform="translate(1105 232)" fill="#e3e8f1"/><rect width="58" height="26" rx="13" transform="translate(1172 232)" fill="#e3e8f1"/></g></svg>