<svg
  role="img"
  width="670"
  height="409"
  aria-labelledby="loading-aria"
  viewBox="0 0 670 409"
  preserveAspectRatio="none"
>
  <title id="loading-aria">Loading...</title>
  <rect
    x="0"
    y="0"
    width="100%"
    height="100%"
    clip-path="url(#clip-path)"
    style='fill: url("#fill");'
  ></rect>
  <defs>
    <clipPath id="clip-path">
        <rect x="45" y="41" rx="3" ry="3" width="134" height="16" /> 
        <rect x="45" y="70" rx="3" ry="3" width="163" height="16" /> 
        <rect x="476" y="35" rx="3" ry="3" width="163" height="31" /> 
        <rect x="476" y="347" rx="3" ry="3" width="163" height="31" /> 
        <rect x="45" y="122" rx="3" ry="3" width="320" height="16" /> 
        <rect x="45" y="172" rx="3" ry="3" width="564" height="16" /> 
        <rect x="45" y="201" rx="3" ry="3" width="69" height="16" /> 
        <rect x="71" y="250" rx="3" ry="3" width="219" height="22" /> 
        <rect x="45" y="357" rx="3" ry="3" width="148" height="22" /> 
        <rect x="71" y="302" rx="3" ry="3" width="219" height="22" /> 
        <rect x="401" y="250" rx="3" ry="3" width="219" height="22" /> 
        <rect x="401" y="302" rx="3" ry="3" width="219" height="22" /> 
        <rect x="32" y="249" rx="12" ry="12" width="26" height="24" /> 
        <rect x="32" y="301" rx="12" ry="12" width="26" height="24" /> 
        <rect x="365" y="301" rx="12" ry="12" width="26" height="24" /> 
        <rect x="365" y="249" rx="12" ry="12" width="26" height="24" /> 
        <rect x="559" y="116" rx="13" ry="13" width="25" height="27" />
    </clipPath>
    <linearGradient id="fill">
      <stop
        offset="0.599964"
        stop-color="#becedd"
        stop-opacity="1"
      >
        <animate
          attributeName="offset"
          values="-2; -2; 1"
          keyTimes="0; 0.25; 1"
          dur="2s"
          repeatCount="indefinite"
        ></animate>
      </stop>
      <stop
        offset="1.59996"
        stop-color="#ecebeb"
        stop-opacity="1"
      >
        <animate
          attributeName="offset"
          values="-1; -1; 2"
          keyTimes="0; 0.25; 1"
          dur="2s"
          repeatCount="indefinite"
        ></animate>
      </stop>
      <stop
        offset="2.59996"
        stop-color="#becedd"
        stop-opacity="1"
      >
        <animate
          attributeName="offset"
          values="0; 0; 3"
          keyTimes="0; 0.25; 1"
          dur="2s"
          repeatCount="indefinite"
        ></animate>
      </stop>
    </linearGradient>
  </defs>
</svg>