<svg width="18" height="18" viewBox="0 0 18 18" fill="none" xmlns="http://www.w3.org/2000/svg">
<path d="M11.7461 3.19577C11.7459 2.56548 11.5588 1.94941 11.2085 1.42544C10.8582 0.901469 10.3604 0.493139 9.778 0.252076C9.19564 0.0110129 8.55487 -0.0519577 7.93672 0.0711263C7.31856 0.19421 6.75079 0.497822 6.30518 0.943571C5.85957 1.38932 5.55614 1.95719 5.43325 2.57538C5.31036 3.19357 5.37353 3.83432 5.61477 4.41661C5.85602 4.9989 6.26451 5.49658 6.78858 5.84673C7.31266 6.19688 7.9288 6.38377 8.55908 6.38377C8.97769 6.38377 9.39219 6.3013 9.77892 6.14108C10.1657 5.98085 10.517 5.74601 10.813 5.44996C11.1089 5.15392 11.3437 4.80247 11.5038 4.41569C11.6639 4.02891 11.7462 3.61437 11.7461 3.19577ZM7.81508 8.01377C5.84508 6.80877 2.65908 6.47677 1.04808 6.38577C0.923226 6.37621 0.797734 6.39227 0.679309 6.43296C0.560883 6.47365 0.452023 6.53811 0.359409 6.62239C0.266795 6.70667 0.192382 6.80899 0.140737 6.92306C0.0890926 7.03714 0.0613056 7.16057 0.059082 7.28577L0.059082 14.6858C0.0622658 14.92 0.155395 15.1441 0.319197 15.3117C0.482999 15.4792 0.704936 15.5773 0.939082 15.5858C3.14235 15.645 5.31562 16.1115 7.34908 16.9618C7.41848 16.9989 7.49623 17.0178 7.57496 17.0165C7.65368 17.0152 7.73076 16.9938 7.79889 16.9543C7.86701 16.9148 7.92392 16.8586 7.96421 16.7909C8.0045 16.7233 8.02683 16.6465 8.02908 16.5678V8.39477C8.02959 8.31826 8.01023 8.24292 7.97289 8.17614C7.93556 8.10936 7.88153 8.05341 7.81608 8.01377H7.81508ZM16.0701 6.38477C14.4651 6.47577 11.2701 6.80777 9.30408 8.01377C9.23845 8.05443 9.18438 8.11129 9.14707 8.1789C9.10977 8.2465 9.09049 8.32256 9.09108 8.39977V16.5608C9.09271 16.64 9.11463 16.7176 9.15475 16.786C9.19487 16.8544 9.25184 16.9113 9.32024 16.9515C9.38864 16.9916 9.46617 17.0135 9.54545 17.0151C9.62472 17.0168 9.70309 16.998 9.77308 16.9608C11.8057 16.1114 13.9779 15.6452 16.1801 15.5858C16.4141 15.5771 16.6359 15.4789 16.7997 15.3114C16.9634 15.1439 17.0567 14.92 17.0601 14.6858V7.28577C17.0579 7.16047 17.0301 7.03696 16.9783 6.92281C16.9266 6.80866 16.8521 6.7063 16.7594 6.622C16.6667 6.53771 16.5577 6.47327 16.4392 6.43264C16.3206 6.39202 16.195 6.37607 16.0701 6.38577V6.38477Z" fill="#E03249"/>
</svg>
