<svg width="364" height="247" viewBox="0 0 364 247" fill="none" xmlns="http://www.w3.org/2000/svg">
<path d="M77.6834 137.411C78.8389 138.821 78.635 140.913 77.2314 142.076L0.756546 205.435V204.72L76.8813 141.651C78.0521 140.682 78.2204 138.936 77.2586 137.759L60.9658 117.844C60.1467 116.842 59.9819 115.494 60.5341 114.322C61.0864 113.152 62.2334 112.421 63.53 112.417L93.7468 112.3L162.128 112.035C163.137 112.037 164.097 112.485 164.735 113.278C165.372 114.073 165.61 115.097 165.387 116.092L153.642 168.284L150.6 181.792V181.794L144.047 210.908C143.765 212.158 142.815 213.119 141.567 213.414C140.319 213.708 139.038 213.275 138.224 212.283L122.657 193.256L118.11 187.697C117.639 187.118 116.971 186.761 116.228 186.69C115.487 186.617 114.764 186.841 114.189 187.315L42.2277 246.934H41.3662L113.837 186.892C114.524 186.321 115.394 186.055 116.281 186.141C117.172 186.226 117.972 186.654 118.538 187.347L123.083 192.903L138.652 211.933C139.34 212.776 140.382 213.127 141.441 212.878C142.498 212.628 143.273 211.847 143.51 210.787L150.156 181.252L153.076 168.286L164.85 115.97C165.035 115.141 164.838 114.287 164.305 113.623C163.776 112.964 162.986 112.585 162.142 112.585H162.13L94.1971 112.849L63.5334 112.967C62.451 112.971 61.4943 113.58 61.0321 114.557C60.5715 115.535 60.7092 116.661 61.3923 117.498L77.6834 137.411Z" fill="#66192D"/>
<path d="M0.75769 218.387V246.932H57.8674L122.658 193.254L123.084 192.901L142.536 176.786C143.84 175.704 145.777 175.893 146.847 177.204L150.158 181.25L150.601 181.79V181.792L152.278 183.842L166.964 201.79C168.571 203.758 171.744 203.01 172.303 200.53L193.641 105.711C194.072 103.802 192.613 101.985 190.653 101.992L181.678 102.028H181.676L173.261 102.06L163.227 102.099H163.223L159.499 102.113H159.497L153.753 102.135L151.4 102.143L137.573 102.198C137.573 102.198 137.573 102.198 137.571 102.198L128.575 102.233H128.573L92.0537 102.374C89.4861 102.383 88.0791 105.366 89.7036 107.353L93.7479 112.298L94.1982 112.846L105.995 127.268C107.057 128.566 106.872 130.476 105.58 131.544L0.75769 218.387Z" fill="#553E93"/>
<path d="M0.755501 81.2044V119.362L64.4449 65.813C65.1263 65.2475 66.1391 65.346 66.6998 66.032L75.6364 76.9558C76.4792 77.9865 78.1395 77.5943 78.4317 76.2952L88.1619 33.0654C88.3862 32.0669 87.6215 31.116 86.5968 31.1211L41.6438 31.2943C40.2997 31.2994 39.5622 32.86 40.4118 33.9009L47.5794 42.6596C48.1351 43.3388 48.0382 44.3373 47.3619 44.8994L0.755501 81.2044Z" fill="#786AB5"/>
<path d="M30.2409 246.935H82.8934L126.145 211.1C126.767 210.584 127.688 210.674 128.2 211.299L140.348 226.147C141.116 227.086 142.629 226.728 142.895 225.546L152.279 183.844L155.382 170.056C155.587 169.144 154.892 168.278 153.959 168.283L153.643 168.285L153.077 168.287L96.2549 168.506C95.0314 168.509 94.3585 169.932 95.1334 170.878L105.09 183.048C105.596 183.666 105.508 184.578 104.891 185.087L30.2409 246.935Z" fill="#FF8548"/>
<path d="M244.467 188.633C245.165 189.456 245.493 190.502 245.388 191.577C245.283 192.65 244.763 193.612 243.92 194.287L178.115 246.935H177.235L243.573 193.858C244.3 193.277 244.749 192.447 244.839 191.523C244.928 190.597 244.647 189.699 244.046 188.989L237.417 181.163C236.411 179.976 236.19 178.358 236.842 176.945C237.497 175.53 238.87 174.647 240.429 174.642L283.865 174.481L297.24 174.432H297.255C298.47 174.432 299.6 174.973 300.355 175.923C301.116 176.877 301.395 178.105 301.118 179.292L288.822 232.048C288.48 233.518 287.357 234.647 285.891 235.002C284.424 235.355 282.908 234.861 281.933 233.712L272.402 222.46C271.199 221.039 269.117 220.839 267.662 222.002L236.499 246.935H235.617L267.317 221.572C269.006 220.22 271.425 220.453 272.823 222.104L282.353 233.353C283.206 234.36 284.478 234.776 285.76 234.467C287.043 234.157 287.988 233.206 288.285 231.924L300.581 179.168C300.817 178.144 300.579 177.087 299.925 176.266C299.274 175.449 298.301 174.982 297.255 174.982H297.244L283.743 175.031H283.741L240.431 175.192C239.089 175.196 237.906 175.958 237.344 177.174C236.781 178.392 236.971 179.784 237.838 180.808L244.467 188.633Z" fill="#66192D"/>
<path d="M105.181 70.7721C105.181 70.7721 107.054 66.5931 111.791 67.1178C116.529 67.6409 115.965 71.83 118.222 71.4378C120.478 71.0455 123.636 71.4378 124.314 74.0562C124.99 76.6747 128.037 75.2347 128.149 77.4592C128.261 79.6837 124.652 81.2544 120.478 79.2914C116.305 77.3284 114.274 80.8163 108.408 80.1846C102.542 79.5529 101.815 78.7684 98.3433 79.1607C94.8716 79.5529 94.9532 76.7952 96.5335 74.963C98.1122 73.1274 104.505 73.3023 105.181 70.7721Z" fill="#C8C1E1"/>
<path d="M91.8064 5.69924C91.8064 5.69924 94.2398 0.268767 100.398 0.949699C106.556 1.63063 105.824 7.07469 108.755 6.56356C111.688 6.05244 115.794 6.56356 116.672 9.96652C117.552 13.3695 121.51 11.4982 121.658 14.39C121.804 17.2819 117.112 19.323 111.688 16.7724C106.262 14.2202 103.623 18.7541 95.9985 17.9339C88.3738 17.1121 87.429 16.0915 82.9174 16.6026C78.4041 17.1138 78.5111 13.5274 80.5639 11.1467C82.6166 8.76258 90.9261 8.98843 91.8064 5.69924Z" fill="#C8C1E1"/>
<path d="M189.671 34.8434C189.671 34.8434 185.549 26.4786 175.119 27.5263C164.688 28.5741 165.931 36.9592 160.963 36.173C155.996 35.3868 149.043 36.173 147.553 41.4133C146.062 46.6536 139.357 43.7719 139.109 48.226C138.861 52.6801 146.807 55.8249 155.996 51.8939C165.185 47.9628 169.655 54.947 182.568 53.6819C195.483 52.4169 197.082 50.8444 204.725 51.6306C212.369 52.4169 212.187 46.8947 208.71 43.2268C205.235 39.5607 191.162 39.9088 189.671 34.8434Z" fill="#C8C1E1"/>
<path d="M232.581 80.0366C232.581 80.0366 230.558 75.9782 225.438 76.4876C220.318 76.9953 220.928 81.0639 218.489 80.6819C216.051 80.2998 212.639 80.6819 211.906 83.2239C211.175 85.7659 207.884 84.3684 207.762 86.5284C207.639 88.69 211.541 90.2149 216.051 88.308C220.561 86.401 222.756 89.7887 229.094 89.1757C235.433 88.5627 236.218 87.7985 239.97 88.1806C243.722 88.5627 243.634 85.8831 241.926 84.1035C240.221 82.3256 233.312 82.4954 232.581 80.0366Z" fill="#C8C1E1"/>
<path d="M266.883 50.0906C266.883 50.0906 264.47 45.251 258.365 45.8572C252.259 46.4634 252.985 51.3149 250.077 50.8598C247.17 50.4047 243.098 50.8598 242.227 53.8926C241.355 56.9253 237.43 55.2578 237.283 57.8338C237.137 60.4115 241.79 62.2302 247.17 59.9564C252.55 57.6827 255.167 61.7224 262.725 60.9923C270.285 60.2604 271.222 59.3502 275.696 59.8053C280.17 60.2604 280.065 57.0646 278.029 54.942C275.995 52.8194 267.757 53.0214 266.883 50.0906Z" fill="#C8C1E1"/>
<path d="M296.416 40.3535C296.416 40.3535 294.198 45.3018 286.315 43.645C278.433 41.9882 268.021 47.7465 271.74 52.7636C275.459 57.7782 260.289 55.3777 260.883 65.1442C261.478 74.9107 268.468 82.8069 282.747 77.5935C297.025 72.3801 304.465 46.7156 304.465 46.7156L296.416 40.3535Z" fill="#66192D"/>
<path d="M309.35 54.3071C315.039 56.1284 326.176 59.2677 326.176 59.2677C326.664 58.8308 325.625 40.2402 325.625 40.2402L331.815 40.5274C331.815 40.5274 337.776 63.19 331.628 67.7603C325.318 72.4509 310.377 66.1207 310.377 66.1207C310.377 66.1207 305.685 53.1338 309.35 54.3071Z" fill="#FFB27D"/>
<path d="M326.917 63.6484C326.873 63.6484 326.831 63.6263 326.807 63.5895C325.9 62.2273 326.036 59.3825 326.04 59.2622C326.043 59.1886 326.112 59.1321 326.18 59.137C326.254 59.1419 326.311 59.2033 326.306 59.2769C326.303 59.3064 326.171 62.1536 327.028 63.4422C327.07 63.5036 327.052 63.5871 326.991 63.6263C326.969 63.6411 326.942 63.6484 326.917 63.6484Z" fill="#EF8062"/>
<path d="M276.333 98.0809C276.864 100.248 285.795 102.406 296.556 99.9562C307.317 97.5041 314.027 96.456 315.039 93.4787C315.039 93.4787 305.396 89.6595 294.635 92.1091C283.872 94.5587 275.803 95.9136 276.333 98.0809Z" fill="#66192D"/>
<path d="M315.714 68.9027C321.18 65.4761 320.047 57.5137 320.047 57.5137C320.047 57.5137 312.602 55.015 304.413 53.5079C301.387 52.9507 300.188 52.7617 298.663 52.7617C279.104 52.7715 276.385 96.8695 276.311 97.7089C296.929 92.8073 315.041 93.4749 315.041 93.4749C316.933 77.7316 315.894 69.6857 315.714 68.9027Z" fill="#E03249"/>
<path d="M312.442 68.1579C312.442 68.1579 318.283 61.2607 320.047 57.5151C320.047 57.5151 313.941 54.5476 306.218 52.957L312.442 68.1579Z" fill="#E03249"/>
<path d="M304.251 53.0979C304.251 53.0979 287.855 51.1932 279.376 56.9048L289.958 65.1447L304.251 53.0979Z" fill="#E03249"/>
<path d="M289.874 64.9377C288.84 66.3367 285.563 65.7575 282.555 63.6441C279.546 61.5308 277.944 58.6835 278.978 57.2845C280.012 55.8854 283.289 56.4647 286.298 58.578C289.307 60.6889 290.908 63.5361 289.874 64.9377Z" fill="#66192D"/>
<path d="M264.895 99.1564C268.778 89.7433 275.103 78.5384 283.309 69.0541C285.211 66.8573 285.972 66.0449 287.274 64.9256C288.323 64.0248 287.804 61.18 286.166 59.3931C284.628 57.7167 281.656 57 281.028 57.4025C279.962 58.0873 278.581 59.6017 276.42 62.017C268.908 70.4066 263.598 79.8761 257.531 95.833L264.895 99.1564Z" fill="#FFB27D"/>
<path d="M255.753 98.1742C257.168 95.7638 258.504 94.4531 258.504 94.4531C258.504 94.4531 264.472 95.9676 264.642 96.5419C265.033 97.8698 265.192 100.641 265.556 101.976C265.713 102.556 266.106 104.534 265.534 104.742C265.037 104.927 263.957 103.476 263.524 102.727C262.132 106.37 258.388 111.036 260.724 103.181C260.719 103.179 260.714 103.179 260.709 103.176C260.398 103.947 258.531 108.846 257.615 108.007C256.806 107.268 258.044 103.535 258.546 102.261C258.533 102.254 258.521 102.249 258.511 102.241C257.885 103.491 256.035 107.094 255.495 106.159C254.817 104.985 256.517 101.152 256.517 101.152C256.517 101.152 255.129 104.644 254.178 103.378C253.53 102.514 254.893 99.8015 255.475 98.6062C255.559 98.4393 255.652 98.2969 255.753 98.1742Z" fill="#FFB27D"/>
<path d="M306.164 56.2027C303.911 57.2311 299.952 54.671 298.272 52.7614C298.276 52.7614 300.428 52.3736 300.784 51.6422C301.298 50.5892 302.177 47.4965 302.177 47.4965L302.172 46.7969L304.007 40.3906L304.461 46.7135L304.574 48.2574L304.579 48.3359L304.695 49.9461L304.697 49.9755L304.736 50.5106L304.813 51.5955C304.879 52.4767 305.149 52.7393 306.213 52.9553C306.218 52.9529 308.084 55.3264 306.164 56.2027Z" fill="#FFB27D"/>
<path d="M296.926 168.029C296.926 168.029 296.998 170.692 298.891 171.444C300.785 172.195 306.275 172.872 304.224 174.585C303.048 175.567 297.501 174.934 295.934 174.934C294.367 174.934 292.898 175.582 291.734 174.585C290.454 173.488 291.734 168.029 291.734 168.029C291.734 168.029 293.085 168.699 294.301 168.67C296.052 168.626 296.926 168.029 296.926 168.029Z" fill="#66192D"/>
<path d="M265.127 168.029C265.127 168.029 265.198 170.692 267.092 171.444C268.985 172.195 274.475 172.872 272.424 174.585C271.248 175.567 265.701 174.934 264.134 174.934C262.567 174.934 261.098 175.582 259.934 174.585C258.654 173.488 259.934 168.029 259.934 168.029C259.934 168.029 261.285 168.699 262.501 168.67C264.252 168.626 265.127 168.029 265.127 168.029Z" fill="#66192D"/>
<path d="M309.458 94.9819C310.328 94.9966 311.02 95.7109 311.011 96.5822C310.966 100.338 310.546 110.806 307.616 127.551C304.917 142.99 301.728 158.549 300.164 166.006C299.604 168.674 297.246 170.625 294.45 170.731L292.947 170.787C289.924 170.903 287.472 168.434 287.693 165.495L291.488 115.035C291.488 115.035 285.193 97.515 289.415 96.4374C295.386 94.9181 305.59 94.9205 309.458 94.9819Z" fill="#D01830"/>
<path d="M304.187 94.9609L269.897 166.996C268.576 169.932 255.255 171.584 258.443 163.771L277.465 99.0919C277.75 98.3089 285.057 97.0743 285.821 96.8558C289.95 95.6752 304.187 94.9609 304.187 94.9609Z" fill="#D01830"/>
<path d="M290.897 123.053C290.875 123.053 290.856 123.049 290.833 123.041C290.745 123.007 290.701 122.906 290.735 122.818L295.323 111.046C296.989 106.854 299.29 104.426 300.926 103.128C302.707 101.714 304.08 101.301 304.137 101.284C304.227 101.257 304.323 101.311 304.35 101.402C304.377 101.493 304.326 101.589 304.232 101.618C304.178 101.635 298.77 103.312 295.643 111.176L291.054 122.945C291.03 123.012 290.966 123.053 290.897 123.053Z" fill="#020202"/>
<path d="M314.263 44.5464L329.509 41.974C330.285 41.8439 330.809 41.1051 330.678 40.327L330.401 38.6776C330.271 37.8995 329.534 37.3742 328.758 37.5068L313.512 40.0791C312.735 40.2092 312.212 40.948 312.342 41.7261L312.62 43.3756C312.753 44.1536 313.487 44.6789 314.263 44.5464Z" fill="#553E93"/>
<path d="M323.989 44.5078L338.702 42.0238C339.719 41.852 340.404 40.8873 340.232 39.8712L339.613 36.1869C339.441 35.1683 338.479 34.4835 337.464 34.6553L322.751 37.1393C321.734 37.3111 321.049 38.2757 321.221 39.2919L321.84 42.9761C322.009 43.9923 322.972 44.6796 323.989 44.5078Z" fill="#FF443C"/>
<path d="M336.151 43.5166L359.485 39.5795C360.318 39.4396 360.88 38.6493 360.74 37.8147L359.664 31.4109C359.524 30.5763 358.736 30.0143 357.903 30.1542L334.569 34.0912C333.736 34.2311 333.174 35.0215 333.314 35.856L334.392 42.2599C334.53 43.0944 335.318 43.6565 336.151 43.5166Z" fill="#786AB5"/>
<path d="M360.905 40.078L362.064 39.8817C362.703 39.7737 363.132 39.1674 363.024 38.5292L361.56 29.8206C361.452 29.18 360.848 28.7504 360.209 28.8584L359.05 29.0548C358.412 29.1628 357.982 29.769 358.09 30.4072L359.554 39.1159C359.662 39.754 360.266 40.186 360.905 40.078Z" fill="#553E93"/>
<path d="M328.655 34.6941C328.655 34.6941 330.23 34.024 330.829 35.4698C331.593 37.3107 330.782 40.3371 330.284 39.1761C329.842 38.1476 329.648 36.9817 329.648 36.9817C329.648 36.9817 330.218 40.6439 329.319 40.4868C328.42 40.3322 327.931 37.3524 327.931 37.3524C327.931 37.3524 328.167 40.8525 327.366 40.4304C326.565 40.0082 326.184 37.9218 326.184 37.9218C326.184 37.9218 326.545 40.7494 325.627 40.2389C324.708 39.7284 324.878 37.6346 324.75 36.7314C324.627 35.8772 325.136 35.5213 325.968 35.4624C325.968 35.4624 326.762 34.9224 327.314 35.0206C327.525 35.0574 327.7 34.8365 327.845 34.7972C328.122 34.7236 328.655 34.6941 328.655 34.6941Z" fill="#FFB27D"/>
<path d="M304.698 49.948C303.288 49.4693 302.178 47.8984 302.178 47.8984H302.377L304.58 48.3403L304.698 49.948Z" fill="#66192D"/>
<path d="M296.416 40.3535C296.416 40.3535 296.823 41.3476 296.516 43.537C296.067 46.7402 299.96 47.533 300.776 46.5266C300.876 46.4015 299.94 41.1807 299.94 41.1807L298.658 40.6701L296.416 40.3535Z" fill="#66192D"/>
<path d="M310.636 40.5258C310.039 36.5176 306.787 33.6359 303.373 34.0925C299.958 34.549 297.674 38.167 298.271 42.1752C298.868 46.1835 302.12 49.0651 305.534 48.6085C308.948 48.1544 311.233 44.5365 310.636 40.5258Z" fill="#FFB27D"/>
<path d="M306.074 35.4595C305.937 35.705 307.464 39.3082 300.326 41.1712C293.189 43.0317 296.308 34.058 301.643 33.1523C309.348 31.844 311.213 36.65 310.734 38.5326C310.257 40.4127 306.074 35.4595 306.074 35.4595Z" fill="#66192D"/>
<path d="M300.953 39.8672C300.953 39.8672 298.426 43.2446 299.909 46.1532C299.909 46.1532 297.92 44.5921 297.782 43.927C297.645 43.2642 297.743 40.7876 297.743 40.7876L300.953 39.8672Z" fill="#66192D"/>
<path d="M299.261 43.1692C300.057 43.7116 301.044 43.6478 301.469 43.0219C301.894 42.3985 301.594 41.4535 300.798 40.911C300.003 40.3686 299.015 40.4324 298.59 41.0583C298.165 41.6793 298.465 42.6243 299.261 43.1692Z" fill="#FFB27D"/>
<path d="M305.062 41.3433C305.101 41.3261 305.133 41.2942 305.143 41.2525C305.163 41.1813 305.116 41.1077 305.04 41.0881C304.996 41.0782 303.979 40.7395 303.276 41.7164C303.232 41.7778 303.244 41.8612 303.311 41.9054C303.374 41.9496 303.451 41.9251 303.51 41.8735C304.094 41.3752 304.937 41.3409 304.973 41.3507C305.003 41.3556 305.035 41.3531 305.062 41.3433Z" fill="#080435"/>
<path d="M309.568 41.0796C309.612 41.0796 309.654 41.06 309.681 41.0231C309.727 40.9618 309.712 40.8783 309.651 40.8341C309.614 40.8071 308.809 40.1297 307.767 40.7777C307.701 40.8194 307.681 40.9004 307.723 40.9642C307.765 41.0281 307.846 41.033 307.919 41.006C308.659 40.7556 309.452 41.0305 309.484 41.0526C309.509 41.0698 309.538 41.0796 309.568 41.0796Z" fill="#080435"/>
<path d="M308.255 42.5425C308.161 42.8517 308.274 43.1561 308.513 43.2224C308.748 43.2886 309.016 43.0898 309.112 42.7805C309.205 42.4713 309.092 42.1669 308.854 42.1006C308.618 42.0344 308.35 42.2332 308.255 42.5425Z" fill="#080435"/>
<path d="M308.273 44.6289C308.273 44.6289 308.018 46.5729 306.512 46.6735C304.886 46.784 304.503 45.0904 304.503 45.0904C304.503 45.0904 306.687 45.5101 308.273 44.6289Z" fill="white"/>
<path d="M303.363 43.2448C303.338 43.2448 303.314 43.2325 303.301 43.208C303.282 43.1736 303.294 43.1294 303.328 43.1098C304.232 42.5919 305.109 42.8201 305.146 42.83C305.183 42.8398 305.207 42.8791 305.195 42.9183C305.185 42.9551 305.146 42.9797 305.109 42.9699C305.099 42.9674 304.249 42.749 303.4 43.235C303.387 43.2423 303.375 43.2448 303.363 43.2448Z" fill="#020202"/>
<path d="M144.615 246.932H197.269L259.086 195.716C259.708 195.201 260.629 195.289 261.14 195.914L273.289 210.762C274.057 211.701 275.569 211.345 275.834 210.163L283.741 175.028H283.743L283.865 174.478L288.322 154.673C288.528 153.761 287.833 152.895 286.898 152.898L229.195 153.123C227.972 153.126 227.301 154.547 228.074 155.495L238.028 167.663C238.536 168.283 238.448 169.195 237.831 169.703L144.615 246.932Z" fill="#FFBA41"/>
</svg>
