<svg width="62" height="95" viewBox="0 0 62 95" fill="none" xmlns="http://www.w3.org/2000/svg">
<path d="M17.9241 78.2627L16.418 91.4907L21.2378 91.8181L23.7481 78.9176L17.9241 78.2627Z" fill="#FF9763"/>
<mask id="mask0_2824_21927" style="mask-type:alpha" maskUnits="userSpaceOnUse" x="16" y="78" width="8" height="14">
<path fill-rule="evenodd" clip-rule="evenodd" d="M17.9241 78.2646L16.418 91.4926L21.2378 91.8201L23.7481 78.9195L17.9241 78.2646Z" fill="white"/>
</mask>
<g mask="url(#mask0_2824_21927)">
<path d="M16.4171 86.3825C15.338 88.2716 22.6252 84.6864 22.6252 84.6864L17.302 83.7217" fill="#E84B23"/>
</g>
<path d="M6.97559 94.175C6.97559 94.175 8.53198 88.4123 12.2473 90.3113C15.9625 92.2104 16.314 88.2158 16.314 88.2158H22.5898L21.7583 94.1749L6.97559 94.175Z" fill="#424242"/>
<mask id="mask1_2824_21927" style="mask-type:alpha" maskUnits="userSpaceOnUse" x="6" y="88" width="17" height="7">
<path fill-rule="evenodd" clip-rule="evenodd" d="M6.97803 94.5793C6.97803 94.5793 8.53443 88.8166 12.2497 90.7156C15.965 92.6147 16.3164 88.6201 16.3164 88.6201H22.5922L21.7607 94.5792L6.97803 94.5793Z" fill="white"/>
</mask>
<g mask="url(#mask1_2824_21927)">
<path d="M23.5671 91.5996C20.478 94.8797 7.66534 92.8843 6.21972 94.5837C4.77411 96.283 19.6266 96.9307 19.6266 96.9307L23.7856 92.2217" fill="#914D44"/>
</g>
<path d="M48.3001 78.2627L51.816 91.4907L47.0459 91.8181L42.5757 78.9176L48.3001 78.2627Z" fill="#FF9763"/>
<mask id="mask2_2824_21927" style="mask-type:alpha" maskUnits="userSpaceOnUse" x="42" y="78" width="10" height="14">
<path fill-rule="evenodd" clip-rule="evenodd" d="M48.2972 78.2646L51.813 91.4926L47.043 91.8201L42.5728 78.9195L48.2972 78.2646Z" fill="white"/>
</mask>
<g mask="url(#mask2_2824_21927)">
<path d="M51.038 86.3825C52.4042 88.2716 44.5723 84.6864 44.5723 84.6864L49.7489 83.7217" fill="#E84B23"/>
</g>
<path d="M61.6611 94.175C61.6611 94.175 59.2292 88.4123 55.8025 90.3113C52.3758 92.2104 51.4174 88.2158 51.4174 88.2158H45.1416L46.8785 94.1749L61.6611 94.175Z" fill="#424242"/>
<mask id="mask3_2824_21927" style="mask-type:alpha" maskUnits="userSpaceOnUse" x="45" y="88" width="17" height="7">
<path fill-rule="evenodd" clip-rule="evenodd" d="M61.6607 94.5793C61.6607 94.5793 59.2288 88.8166 55.802 90.7156C52.3753 92.6147 51.4169 88.6201 51.4169 88.6201H45.1411L46.878 94.5792L61.6607 94.5793Z" fill="white"/>
</mask>
<g mask="url(#mask3_2824_21927)">
<path d="M44.7517 91.5996C47.8408 94.8797 60.6535 92.8843 62.0991 94.5837C63.5447 96.283 48.6922 96.9307 48.6922 96.9307L44.5332 92.2217" fill="#914D44"/>
</g>
<path d="M8.80078 24.9519C8.80078 24.9519 6.67283 21.3562 6.11902 21.1412C5.56521 20.9263 2.98268 19.8286 2.46388 19.6519C1.94507 19.4752 0.715663 17.8555 0.904863 17.4871C1.09406 17.1187 2.62786 18.403 3.13471 18.5481C3.64156 18.6933 6.30874 19.119 5.67963 18.4881C5.05052 17.8572 3.98055 17.6353 4.1024 17.3604C4.22425 17.0854 7.22858 17.8048 7.58122 18.3565C7.93387 18.9082 11.3847 22.9121 11.3847 22.9121L8.80078 24.9519Z" fill="#FAA67C"/>
<mask id="mask4_2824_21927" style="mask-type:alpha" maskUnits="userSpaceOnUse" x="0" y="15" width="11" height="9">
<path fill-rule="evenodd" clip-rule="evenodd" d="M7.98438 23.5388C7.98438 23.5388 5.85642 19.9431 5.30261 19.7282C4.74881 19.5132 2.16628 18.4155 1.64747 18.2388C1.12866 18.0621 -0.100743 16.4424 0.0884572 16.074C0.277658 15.7056 1.81146 16.9899 2.3183 17.1351C2.82515 17.2802 5.49233 17.7059 4.86322 17.075C4.23411 16.4441 3.16414 16.2223 3.286 15.9473C3.40785 15.6723 6.41217 16.3917 6.76482 16.9434C7.11746 17.4951 10.5683 21.499 10.5683 21.499L7.98438 23.5388Z" fill="white"/>
</mask>
<g mask="url(#mask4_2824_21927)">
<path d="M10.9673 21.7165C8.99147 20.4719 7.00686 21.7667 5.3027 21.2938C3.59854 20.8209 6.42534 23.2505 6.42534 23.2505L7.96282 22.5905" fill="#E84B23"/>
</g>
<path d="M9.82228 20.757C7.51055 21.4241 6.13574 25.419 6.13574 25.419C6.13574 25.419 13.0399 34.498 15.5655 34.5161C18.0911 34.5342 25.8158 27.1831 25.8158 27.1831C25.8158 27.1831 28.4666 16.0035 25.5174 16.5371C24.0283 16.8065 15.9155 26.4222 15.9155 26.4222L9.82228 20.757Z" fill="#F28E2C"/>
<mask id="mask5_2824_21927" style="mask-type:alpha" maskUnits="userSpaceOnUse" x="6" y="16" width="21" height="19">
<path fill-rule="evenodd" clip-rule="evenodd" d="M9.8213 20.758C7.50958 21.4251 6.13477 25.42 6.13477 25.42C6.13477 25.42 13.0389 34.4989 15.5645 34.5171C18.0902 34.5352 25.8149 27.1841 25.8149 27.1841C25.8149 27.1841 28.4657 16.0044 25.5165 16.538C24.0274 16.8075 15.9145 26.4232 15.9145 26.4232L9.8213 20.758Z" fill="white"/>
</mask>
<g mask="url(#mask5_2824_21927)">
<path d="M22.6386 23.5713C19.5397 34.0947 14.2063 35.1469 12.4791 37.6082C9.35148 42.0652 25.5474 36.3313 25.5474 36.3313L22.6386 23.5713Z" fill="#C66A32"/>
<path d="M7.58679 28.359C7.21194 24.4363 12.01 21.9326 12.01 21.9326" stroke="#C66A32" stroke-width="0.99853" stroke-linecap="round" stroke-linejoin="round"/>
</g>
<path d="M15.9131 85.664C15.9131 86.7592 25.5151 84.0302 25.5151 84.0302L28.2639 56.9816L35.117 33.8L22.0885 32.4248L15.9131 85.664Z" fill="#516DDB"/>
<mask id="mask6_2824_21927" style="mask-type:alpha" maskUnits="userSpaceOnUse" x="15" y="32" width="21" height="54">
<path fill-rule="evenodd" clip-rule="evenodd" d="M15.9141 85.6621C15.9141 86.7572 25.516 84.0282 25.516 84.0282L28.2648 56.9797L35.118 33.798L22.0895 32.4229L15.9141 85.6621Z" fill="white"/>
</mask>
<g mask="url(#mask6_2824_21927)">
<path d="M25.5094 40.2162C23.0083 39.1232 29.9306 50.1745 27.6231 64.8691C25.3157 79.5637 35.0165 56.3681 35.0165 56.3681" fill="#3152BA"/>
<path d="M29.8008 48.375L26.7873 56.1718L23.7397 83.6606" stroke="#3152BA" stroke-width="0.99853" stroke-linecap="round" stroke-linejoin="round"/>
<path d="M14.7795 83.2863C15.9092 85.6615 26.6217 81.6885 26.6217 81.6885L25.797 85.0394L20.3992 87.0483H13.2021" fill="#589BF7"/>
</g>
<path d="M24.6682 39.1877L33.018 61.0923L42.811 85.1302C50.8586 86.7991 50.8586 84.6272 50.8586 84.6272L41.1995 55.5004L35.1189 33.8L22.0903 32.4248" fill="#516DDB"/>
<mask id="mask7_2824_21927" style="mask-type:alpha" maskUnits="userSpaceOnUse" x="22" y="32" width="29" height="54">
<path fill-rule="evenodd" clip-rule="evenodd" d="M24.6717 39.1857L33.0214 61.0903L42.8144 85.1283C50.862 86.7972 50.862 84.6252 50.862 84.6252L41.2029 55.4985L35.1223 33.798L22.0938 32.4229" fill="white"/>
</mask>
<g mask="url(#mask7_2824_21927)">
<path d="M24.5985 35.7255C23.6269 38.8021 37.0732 36.3812 38.8511 47.1046C40.629 57.8281 43.9484 43.255 43.9484 43.255L36.9857 35.6445" fill="#3152BA"/>
<path d="M33.9546 34.4492L38.6537 51.8035L39.147 53.6255L49.5428 83.7342" stroke="#3152BA" stroke-width="0.665691" stroke-linecap="round" stroke-linejoin="round" stroke-dasharray="1.33"/>
<path d="M33.2983 34.4492L38.4908 53.6255L48.8865 83.7342" stroke="#3152BA" stroke-width="0.99853" stroke-linecap="round" stroke-linejoin="round"/>
<path d="M41.7334 82.4756C49.0306 84.9676 51.818 82.4756 51.818 82.4756L52.2211 84.8134L48.2227 86.3854H42.5777" fill="#589BF7"/>
</g>
<path d="M21.605 34.8838L21.2227 37.3578C21.2227 37.3578 29.3519 39.5099 32.9504 37.6092L32.4256 36.5081L21.3551 34.8838" fill="#FFC562"/>
<path d="M23.3349 21.5065C21.3613 27.8681 21.2227 35.394 21.2227 35.394C28.1809 39.0686 36.5839 37.0618 36.5839 37.0618C34.6294 31.2763 39.8295 17.5948 37.9966 16.5199C36.1637 15.445 32.7884 13.0984 25.5175 16.5384" fill="#F28E2C"/>
<mask id="mask8_2824_21927" style="mask-type:alpha" maskUnits="userSpaceOnUse" x="21" y="14" width="18" height="24">
<path fill-rule="evenodd" clip-rule="evenodd" d="M23.333 21.5055C21.3594 27.8672 21.2207 35.393 21.2207 35.393C28.1789 39.0676 36.582 37.0608 36.582 37.0608C34.6274 31.2754 39.8275 17.5938 37.9946 16.5189C36.1618 15.4441 32.7864 13.0974 25.5155 16.5374" fill="white"/>
</mask>
<g mask="url(#mask8_2824_21927)">
<path d="M29.0501 14.7079C25.1617 20.9922 32.0373 20.9112 35.9139 15.6491C37.812 13.0727 34.284 14.7079 34.284 14.7079" fill="#FFC562"/>
<path d="M29.5569 13.9904C25.6686 20.2747 32.4221 19.7764 36.4207 14.9316C38.4577 12.4636 34.7909 13.9904 34.7909 13.9904" fill="#FF9763"/>
<path d="M33.0741 22.4883C29.9377 24.1885 37.4176 30.5025 36.2889 35.9243C35.1603 41.3461 38.8439 24.9522 38.8439 24.9522L36.2889 23.8124" fill="#C66A32"/>
<path d="M20.5552 33.584C25.953 35.7581 35.7772 36.3509 36.6752 34.5176L20.5552 33.584Z" fill="#F28E2C"/>
</g>
<path d="M37.7876 39.1865C37.2823 40.532 37.0029 40.9762 37.0029 40.9762C37.0029 40.9762 35.4078 41.2127 35.159 41.3455C34.9102 41.4783 33.8321 42.4532 33.7524 42.4651C33.6726 42.4769 33.9788 43.509 34.8661 43.2031L34.4896 44.3647C34.4896 44.3647 35.2245 45.0852 35.8996 45.0139C35.8996 45.0139 37.4782 46.3476 39.3977 44.8068C39.3977 44.8068 41.0945 40.7291 41.3975 40.4444C41.7005 40.1597 37.7876 39.1865 37.7876 39.1865Z" fill="#FF9763"/>
<mask id="mask9_2824_21927" style="mask-type:alpha" maskUnits="userSpaceOnUse" x="33" y="39" width="9" height="7">
<path fill-rule="evenodd" clip-rule="evenodd" d="M37.7929 39.1895C37.2876 40.535 37.0083 40.9791 37.0083 40.9791C37.0083 40.9791 35.4132 41.2157 35.1644 41.3484C34.9156 41.4812 33.8375 42.4562 33.7578 42.468C33.678 42.4798 33.9842 43.5119 34.8715 43.206L34.4949 44.3676C34.4949 44.3676 35.2299 45.0881 35.9049 45.0168C35.9049 45.0168 37.4835 46.3506 39.4031 44.8097C39.4031 44.8097 41.0998 40.732 41.4028 40.4474C41.7058 40.1627 37.7929 39.1895 37.7929 39.1895Z" fill="white"/>
</mask>
<g mask="url(#mask9_2824_21927)">
<path d="M37.7913 39.1895C36.6574 39.2846 41.1939 43.4193 41.1939 43.4193L41.4012 40.4474" fill="#E84B23"/>
</g>
<path d="M32.0396 21.9341L38.485 30.2244L37.1863 38.6598C38.9865 40.3289 41.7003 42.4869 42.1681 41.6262C42.5904 40.8491 45.0699 29.2117 44.7357 28.1666C43.4254 24.0684 40.1496 18.4502 37.9988 16.5186" fill="#F28E2C"/>
<mask id="mask10_2824_21927" style="mask-type:alpha" maskUnits="userSpaceOnUse" x="32" y="16" width="13" height="26">
<path fill-rule="evenodd" clip-rule="evenodd" d="M32.0361 21.9351L38.4815 30.2254L37.1829 38.6608C38.9831 40.3299 41.6969 42.4878 42.1647 41.6271C42.587 40.8501 45.0665 29.2127 44.7323 28.1675C43.422 24.0694 40.1462 18.4512 37.9954 16.5195" fill="white"/>
</mask>
<g mask="url(#mask10_2824_21927)">
<path d="M36.98 35.6455C40.8699 38.9072 42.6567 40.1817 44.7621 39.5069" stroke="#C66A32" stroke-width="0.99853" stroke-linecap="round" stroke-linejoin="round"/>
</g>
<path d="M34.2314 15.4343L34.7159 10.8608L30.8331 10.5586L29.2759 15.7324" fill="#FF9763"/>
<mask id="mask11_2824_21927" style="mask-type:alpha" maskUnits="userSpaceOnUse" x="29" y="10" width="6" height="6">
<path fill-rule="evenodd" clip-rule="evenodd" d="M34.2279 15.4352L34.7125 10.8618L30.8297 10.5596L29.2725 15.7334" fill="white"/>
</mask>
<g mask="url(#mask11_2824_21927)">
<path d="M27.8447 14.7854C32.5138 15.7226 29.1647 13.1783 31.0028 13.0893C31.5085 13.0648 31.6896 10.7158 31.6896 10.7158L30.1989 10.999" fill="#E84B23"/>
</g>
<path d="M33.962 10.3869L33.9358 7.03698L31.6466 2.9873C29.8744 5.84189 23.2742 13.1882 31.3586 12.6494" fill="#FF9763"/>
<path d="M34.3427 10.7662C32.8627 10.7454 32.1499 7.49556 33.2358 6.9905C33.2358 6.9905 30.7379 6.96654 29.7443 5.09376C24.3515 3.6399 27.2876 -2.51184 31.0354 1.14284C33.9046 0.821611 35.9821 3.16627 35.2742 4.55907C40.6227 4.10039 38.7519 10.8282 34.3427 10.7662Z" fill="#4B4D5C"/>
<path d="M33.9978 12.2197C37.0882 11.2318 36.5676 7.63107 32.5059 10.0487L33.9978 12.2197Z" fill="#FF9763"/>
<path d="M30.7531 2.75446C30.7159 3.20131 30.8015 3.64983 31.0008 4.0515C31.0681 4.16517 31.2143 4.20351 31.3287 4.13748C31.4401 4.06857 31.478 3.92434 31.4146 3.8096C31.4024 3.78456 31.3908 3.75932 31.3792 3.734C31.3506 3.6714 31.3958 3.77847 31.3709 3.71432C31.3532 3.66888 31.3362 3.62329 31.3212 3.57691C31.2912 3.48419 31.2674 3.38957 31.2498 3.2937C31.2461 3.27315 31.243 3.25251 31.2394 3.23193C31.2354 3.20385 31.2353 3.20441 31.2394 3.2336C31.2376 3.21979 31.236 3.20596 31.2346 3.19212C31.2295 3.14368 31.226 3.0951 31.2241 3.04639C31.2205 2.94901 31.2233 2.85149 31.2324 2.75446C31.2439 2.62927 31.114 2.5094 30.9928 2.51483C30.8618 2.51817 30.7565 2.62352 30.7531 2.75446H30.7531Z" fill="#373947"/>
<path d="M36.2268 7.26932L36.24 7.32066C36.2591 7.3797 36.298 7.43031 36.3501 7.46387C36.3768 7.48111 36.4075 7.49093 36.4392 7.49231C36.4709 7.49946 36.5039 7.49798 36.5348 7.48803L36.592 7.46387C36.6276 7.44304 36.6572 7.41344 36.678 7.37791L36.7022 7.32066C36.7136 7.27896 36.7136 7.23496 36.7022 7.19327L36.689 7.14192C36.6699 7.08288 36.631 7.03227 36.5789 6.99871C36.5522 6.98147 36.5215 6.97166 36.4898 6.97027C36.4581 6.96313 36.4251 6.9646 36.3942 6.97455L36.337 6.99871C36.3014 7.01954 36.2718 7.04914 36.251 7.08468L36.2268 7.14192C36.2154 7.18362 36.2154 7.22762 36.2268 7.26932Z" fill="#373947"/>
<path d="M29.8674 8.04087C29.7977 7.98178 29.7543 7.89741 29.7467 7.80631C29.7392 7.71521 29.7682 7.62485 29.8272 7.55511L30.2035 7.111C30.3266 6.96577 30.5441 6.94779 30.6893 7.07084C30.8345 7.19389 30.8525 7.41137 30.7295 7.5566L30.3532 8.00071C30.2941 8.07045 30.2097 8.11387 30.1186 8.1214C30.0275 8.12893 29.9372 8.09996 29.8674 8.04087L29.8674 8.04087Z" fill="#190000"/>
<path d="M31.2029 5.99286C32.0271 6.63062 31.9249 7.10969 31.3837 6.74462C30.8425 6.37954 30.6645 5.57619 31.2029 5.99286Z" fill="#190000"/>
<path d="M29.5485 6.98235C28.0552 6.7826 27.5495 8.10496 28.426 8.43167L29.5485 6.98235Z" fill="#FF9763"/>
<ellipse opacity="0.27" cx="30.6991" cy="8.99971" rx="0.57875" ry="0.784839" transform="rotate(-59.417 30.6991 8.99971)" fill="#E84B23"/>
<path d="M29.9057 9.41971C29.471 9.56747 28.9903 9.46688 28.6514 9.15723" stroke="#993443" stroke-width="0.99853" stroke-linecap="round" stroke-linejoin="round"/>
<path d="M34.0357 10.6721C34.0449 10.6672 34.0541 10.6627 34.0637 10.6586L34.0064 10.6827C34.0303 10.6731 34.0551 10.6664 34.0805 10.6626L34.0168 10.6712C34.0474 10.6673 34.0784 10.6674 34.109 10.6713L34.0453 10.6628C34.0761 10.6673 34.1063 10.6755 34.1352 10.687L34.0779 10.6629C34.109 10.6759 34.1383 10.6929 34.165 10.7134L34.1165 10.6759C34.1386 10.6935 34.1586 10.7137 34.176 10.7359L34.1385 10.6874C34.1539 10.708 34.1667 10.7304 34.1768 10.754L34.1526 10.6967C34.1614 10.719 34.1677 10.7423 34.1712 10.766L34.1626 10.7023C34.1658 10.7288 34.1659 10.7556 34.1628 10.7821L34.1714 10.7184C34.1669 10.7503 34.1583 10.7815 34.1458 10.8112L34.17 10.754C34.1568 10.7837 34.1402 10.8117 34.1204 10.8374L34.1579 10.7889C34.1393 10.812 34.1182 10.833 34.095 10.8514L34.1435 10.814C34.1222 10.8301 34.0992 10.8438 34.0748 10.8548L34.1321 10.8307C34.1074 10.8411 34.0814 10.8484 34.0549 10.8524L34.1186 10.8439L34.1106 10.8448C34.0475 10.847 33.9873 10.872 33.9411 10.915C33.8475 11.0086 33.8475 11.1604 33.9411 11.2539C33.9855 11.2997 34.0468 11.3252 34.1106 11.3241C34.1901 11.3174 34.2675 11.295 34.3383 11.2583C34.3907 11.23 34.4381 11.1932 34.4784 11.1494C34.5737 11.0463 34.6317 10.9141 34.643 10.7742C34.6674 10.5113 34.4655 10.2797 34.2221 10.211C34.0786 10.1705 33.925 10.1875 33.7938 10.2583C33.6805 10.3258 33.6422 10.4717 33.7078 10.5862C33.7764 10.6981 33.921 10.736 34.0357 10.6722L34.0357 10.6721Z" fill="#373947"/>
<path d="M31.6055 38.8457C31.9461 42.0179 34.9701 41.0214 34.9701 41.0214" stroke="#3152BA" stroke-width="0.912119" stroke-linecap="round" stroke-linejoin="round"/>
<ellipse cx="21.4536" cy="58.9008" rx="1.94921" ry="0.847045" fill="#FF9763"/>
<path d="M14.9494 88.5409C15.0894 88.6178 15.2246 88.7031 15.3544 88.7962C15.3702 88.8076 15.3859 88.8191 15.4015 88.8307C15.4056 88.8338 15.4524 88.8692 15.4331 88.8543C15.4156 88.8408 15.4653 88.8799 15.464 88.8789C15.4792 88.891 15.4943 88.9033 15.5094 88.9157C15.5724 88.9678 15.6338 89.0218 15.6936 89.0777L15.863 88.6686C14.8065 88.5621 13.743 88.5422 12.6832 88.6092C12.5584 88.6171 12.4375 88.7138 12.4436 88.8489C12.4491 88.9719 12.5492 89.097 12.6832 89.0885C13.743 89.0215 14.8065 89.0413 15.863 89.1479C15.9593 89.1467 16.0457 89.0882 16.0826 88.9992C16.1194 88.9102 16.0997 88.8078 16.0324 88.7388C15.7782 88.5012 15.4957 88.2957 15.1913 88.1271C15.1174 88.0834 15.0257 88.0826 14.951 88.125C14.8764 88.1675 14.8301 88.2466 14.8298 88.3325C14.8294 88.4184 14.8751 88.4979 14.9494 88.5409V88.5409Z" fill="#373947"/>
<path d="M52.8063 87.6035C52.3195 87.9896 51.9043 88.4582 51.5795 88.9878C51.5313 89.0721 51.5387 89.1772 51.5982 89.2539C51.6583 89.3291 51.7566 89.3626 51.8501 89.3398L55.5784 88.7417L56.6254 88.5737C56.7495 88.5538 56.8296 88.3927 56.7928 88.2789C56.7492 88.1443 56.631 88.0902 56.498 88.1116L52.7697 88.7097L51.7227 88.8777L51.9933 89.2297C52.0709 89.1037 52.1537 88.9811 52.2417 88.8619C52.2527 88.8471 52.2638 88.8323 52.2749 88.8175C52.2797 88.8112 52.3109 88.7718 52.2849 88.8045C52.3079 88.7755 52.3308 88.7465 52.3542 88.7179C52.4011 88.6606 52.4492 88.6044 52.4985 88.5492C52.6961 88.3287 52.9125 88.1256 53.1451 87.9424C53.244 87.8644 53.2329 87.6841 53.1451 87.6035C53.0402 87.5072 52.9117 87.5203 52.8062 87.6035H52.8063Z" fill="#373947"/>
<path d="M38.4915 30.576C38.8944 30.727 39.3191 30.8117 39.7491 30.8268C39.881 30.8258 39.9877 30.7191 39.9887 30.5872C39.9861 30.456 39.8803 30.3502 39.7491 30.3475C39.6452 30.3436 39.542 30.3345 39.4386 30.3235C39.3855 30.3178 39.472 30.3291 39.4141 30.3203C39.3921 30.317 39.3701 30.3138 39.3481 30.3102C39.2969 30.3019 39.2459 30.2924 39.195 30.282C38.9988 30.2412 38.8062 30.185 38.6189 30.1138C38.5015 30.0693 38.3511 30.1631 38.3242 30.2812C38.2927 30.4083 38.3662 30.5379 38.4915 30.576V30.576Z" fill="#C66A32"/>
<path d="M15.678 26.3733L16.0292 27.8035C16.0654 27.9303 16.1965 28.0047 16.324 27.9709C16.4499 27.9335 16.5238 27.8034 16.4914 27.6761L16.1402 26.2459C16.104 26.1191 15.9728 26.0446 15.8454 26.0785C15.7195 26.1159 15.6456 26.246 15.678 26.3733Z" fill="#C66A32"/>
<path d="M37.8263 65.1258C38.3889 65.4664 39.0178 65.6828 39.6709 65.7606C39.7957 65.7762 39.9158 65.6393 39.9105 65.521C39.9041 65.3779 39.8047 65.298 39.6709 65.2814C39.598 65.2723 39.6967 65.2857 39.6547 65.2794C39.6358 65.2766 39.6168 65.274 39.5979 65.271C39.56 65.2652 39.5222 65.2588 39.4845 65.2519C39.4129 65.2388 39.3416 65.2239 39.2707 65.2071C39.1252 65.1728 38.9816 65.1309 38.8404 65.0815C38.7716 65.0575 38.7035 65.0318 38.636 65.0043C38.6291 65.0014 38.5818 64.9812 38.619 64.9974C38.6014 64.9898 38.5839 64.9821 38.5664 64.9743C38.5348 64.9603 38.5035 64.9459 38.4723 64.9311C38.3339 64.8652 38.199 64.7921 38.0682 64.7119C37.954 64.6459 37.8079 64.6845 37.7413 64.7985C37.6747 64.9124 37.7127 65.0587 37.8263 65.1258H37.8263Z" fill="#3152BA"/>
</svg>
