<svg xmlns="http://www.w3.org/2000/svg" xmlns:xlink="http://www.w3.org/1999/xlink" width="28.884" height="24.99" viewBox="0 0 28.884 24.99"><defs><style>.a{fill:#fff;}.b{filter:url(#e);}.c{filter:url(#c);}.d{filter:url(#a);}</style><filter id="a" x="0" y="0" width="28" height="22" filterUnits="userSpaceOnUse"><feOffset input="SourceAlpha"/><feGaussianBlur stdDeviation="1" result="b"/><feFlood flood-opacity="0.161"/><feComposite operator="in" in2="b"/><feComposite in="SourceGraphic"/></filter><filter id="c" x="8" y="4" width="12" height="14" filterUnits="userSpaceOnUse"><feOffset input="SourceAlpha"/><feGaussianBlur stdDeviation="1" result="d"/><feFlood flood-opacity="0.161"/><feComposite operator="in" in2="d"/><feComposite in="SourceGraphic"/></filter><filter id="e" x="13.106" y="9" width="15.777" height="15.99" filterUnits="userSpaceOnUse"><feOffset input="SourceAlpha"/><feGaussianBlur stdDeviation="1" result="f"/><feFlood flood-opacity="0.161"/><feComposite operator="in" in2="f"/><feComposite in="SourceGraphic"/></filter></defs><g transform="translate(2 -1)"><g class="d" transform="matrix(1, 0, 0, 1, -2, 1)"><path class="a" d="M3,6H21v5h2V6a2.006,2.006,0,0,0-2-2H3A2.006,2.006,0,0,0,1,6V18a2.006,2.006,0,0,0,2,2h9V18H3Z" transform="translate(2 -1)"/></g><g class="c" transform="matrix(1, 0, 0, 1, -2, 1)"><path class="a" d="M15,12,9,8v8Z" transform="translate(2 -1)"/></g><g class="b" transform="matrix(1, 0, 0, 1, -2, 1)"><path class="a" d="M22.71,18.43a4.128,4.128,0,0,0,.01-.86l1.07-.85a.248.248,0,0,0,.06-.32l-1.03-1.79a.254.254,0,0,0-.31-.11l-1.28.5a3.439,3.439,0,0,0-.75-.42l-.2-1.36a.249.249,0,0,0-.25-.22H17.96a.257.257,0,0,0-.25.21l-.2,1.36a4.151,4.151,0,0,0-.74.42l-1.28-.5a.243.243,0,0,0-.31.11l-1.03,1.79a.248.248,0,0,0,.06.32l1.07.86a4.129,4.129,0,0,0-.01.86l-1.07.85a.248.248,0,0,0-.06.32l1.03,1.79a.254.254,0,0,0,.31.11l1.27-.5a3.439,3.439,0,0,0,.75.42l.2,1.36a.249.249,0,0,0,.25.21h2.07a.257.257,0,0,0,.25-.21l.2-1.36a4.151,4.151,0,0,0,.74-.42l1.28.5a.243.243,0,0,0,.31-.11l1.03-1.79a.248.248,0,0,0-.06-.32ZM19,19.5A1.5,1.5,0,1,1,20.5,18,1.5,1.5,0,0,1,19,19.5Z" transform="translate(2 -1)"/></g></g></svg>