<svg xmlns="http://www.w3.org/2000/svg" xmlns:xlink="http://www.w3.org/1999/xlink" width="24" height="23.315" viewBox="0 0 24 23.315"><defs><style>.a{fill:#fff;}.b{filter:url(#a);}</style><filter id="a" x="0" y="0" width="24" height="23.315" filterUnits="userSpaceOnUse"><feOffset input="SourceAlpha"/><feGaussianBlur stdDeviation="1" result="b"/><feFlood flood-opacity="0.161"/><feComposite operator="in" in2="b"/><feComposite in="SourceGraphic"/></filter></defs><g class="b" transform="matrix(1, 0, 0, 1, 0, 0)"><path class="a" d="M3.63,3.63a1,1,0,0,0,0,1.41L7.29,8.7,7,9H4a1,1,0,0,0-1,1v4a1,1,0,0,0,1,1H7l3.29,3.29A1,1,0,0,0,12,17.58V13.41l4.18,4.18a6.827,6.827,0,0,1-1.6.91,1,1,0,0,0,.81,1.83,9.016,9.016,0,0,0,2.22-1.31l1.34,1.34a1,1,0,0,0,1.41-1.41L5.05,3.63A1.008,1.008,0,0,0,3.63,3.63ZM19,12a6.975,6.975,0,0,1-.41,2.34l1.53,1.53A8.983,8.983,0,0,0,15.22,3.6.908.908,0,0,0,14,4.46v.19a.925.925,0,0,0,.61.85A7.02,7.02,0,0,1,19,12ZM10.29,5.71l-.17.17L12,7.76V6.41A1,1,0,0,0,10.29,5.71ZM16.5,12A4.5,4.5,0,0,0,14,7.97V9.76l2.48,2.48A1.942,1.942,0,0,0,16.5,12Z" transform="translate(0 -0.34)"/></g></svg>