<svg xmlns="http://www.w3.org/2000/svg" xmlns:xlink="http://www.w3.org/1999/xlink" width="86.264" height="86.264" viewBox="0 0 86.264 86.264"><defs><style>.a{fill:#f7f7f7;}.b{fill:none;stroke:#777;stroke-linecap:round;stroke-linejoin:round;stroke-width:4px;}.c,.d{stroke:none;}.d{fill:#d5d4d4;}.e{filter:url(#a);}</style><filter id="a" x="0" y="0" width="86.264" height="86.264" filterUnits="userSpaceOnUse"><feOffset dy="3" input="SourceAlpha"/><feGaussianBlur stdDeviation="3" result="b"/><feFlood flood-opacity="0.161"/><feComposite operator="in" in2="b"/><feComposite in="SourceGraphic"/></filter></defs><g transform="translate(9 6)"><g class="e" transform="matrix(1, 0, 0, 1, -9, -6)"><g class="a" transform="translate(9 6)"><path class="c" d="M 34.13181304931641 67.76362609863281 C 29.59132385253906 67.76362609863281 25.18692398071289 66.87447357177734 21.04094314575195 65.12087249755859 C 17.03615379333496 63.42698287963867 13.4393835067749 61.0019416809082 10.3505334854126 57.91309356689453 C 7.261682987213135 54.82424163818359 4.836633205413818 51.22746276855469 3.142753124237061 47.22267150878906 C 1.389153003692627 43.07670211791992 0.5000030398368835 38.67229461669922 0.5000030398368835 34.13181304931641 C 0.5000030398368835 29.59132385253906 1.389153003692627 25.18692398071289 3.142753124237061 21.04094314575195 C 4.836633205413818 17.03615379333496 7.261682987213135 13.4393835067749 10.3505334854126 10.3505334854126 C 13.4393835067749 7.261682987213135 17.03615379333496 4.836633205413818 21.04094314575195 3.142753124237061 C 25.18692398071289 1.389153003692627 29.59132385253906 0.5000030398368835 34.13181304931641 0.5000030398368835 C 38.67230224609375 0.5000030398368835 43.07670211791992 1.389153003692627 47.22268295288086 3.142753124237061 C 51.22747421264648 4.836633205413818 54.82424163818359 7.261682987213135 57.91309356689453 10.3505334854126 C 61.0019416809082 13.4393835067749 63.42699432373047 17.03615379333496 65.12087249755859 21.04094314575195 C 66.87447357177734 25.18692398071289 67.76362609863281 29.59132385253906 67.76362609863281 34.13181304931641 C 67.76362609863281 38.67229461669922 66.87447357177734 43.07670211791992 65.12087249755859 47.22267150878906 C 63.42699432373047 51.22746276855469 61.0019416809082 54.82424163818359 57.91309356689453 57.91309356689453 C 54.82424163818359 61.0019416809082 51.22747421264648 63.42698287963867 47.22268295288086 65.12087249755859 C 43.07670211791992 66.87447357177734 38.67230224609375 67.76362609863281 34.13181304931641 67.76362609863281 Z"/><path class="d" d="M 34.13181304931641 1 C 29.65860366821289 1 25.31973266601563 1.875862121582031 21.23572158813477 3.603256225585938 C 17.29053115844727 5.271934509277344 13.74717330932617 7.660991668701172 10.70408248901367 10.70408248901367 C 7.660991668701172 13.74717330932617 5.271934509277344 17.29053115844727 3.603256225585938 21.23572158813477 C 1.875862121582031 25.31973266601563 1 29.65860366821289 1 34.13181304931641 C 1 38.60501098632813 1.875862121582031 42.94388580322266 3.603256225585938 47.02790069580078 C 5.271934509277344 50.97309112548828 7.660991668701172 54.51644134521484 10.70408248901367 57.55953216552734 C 13.74717330932617 60.60263442993164 17.29053115844727 62.99169158935547 21.23572158813477 64.66036987304688 C 25.31973266601563 66.38776397705078 29.65860366821289 67.26362609863281 34.13181304931641 67.26362609863281 C 38.60501098632813 67.26362609863281 42.94388580322266 66.38776397705078 47.02790069580078 64.66036987304688 C 50.97309112548828 62.99169158935547 54.51644134521484 60.60263442993164 57.55953216552734 57.55953216552734 C 60.60263442993164 54.51644134521484 62.99169158935547 50.97309112548828 64.66036987304688 47.02790069580078 C 66.38776397705078 42.94388580322266 67.26362609863281 38.60501098632813 67.26362609863281 34.13181304931641 C 67.26362609863281 29.65860366821289 66.38776397705078 25.31973266601563 64.66036987304688 21.23572158813477 C 62.99169158935547 17.29053115844727 60.60263442993164 13.74717330932617 57.55953216552734 10.70408248901367 C 54.51644134521484 7.660991668701172 50.97309112548828 5.271934509277344 47.02790069580078 3.603256225585938 C 42.94388580322266 1.875862121582031 38.60501098632813 1 34.13181304931641 1 M 34.13181304931641 0 C 52.98228454589844 0 68.26362609863281 15.28133392333984 68.26362609863281 34.13181304931641 C 68.26362609863281 52.98228454589844 52.98228454589844 68.26362609863281 34.13181304931641 68.26362609863281 C 15.28133392333984 68.26362609863281 0 52.98228454589844 0 34.13181304931641 C 0 15.28133392333984 15.28133392333984 0 34.13181304931641 0 Z"/></g></g><g transform="translate(21.882 21.16)"><path class="b" d="M31.1,22.5v5.91a2.955,2.955,0,0,1-2.955,2.955H7.455A2.955,2.955,0,0,1,4.5,28.41V22.5" transform="translate(-4.5 -4.769)"/><path class="b" d="M25.276,11.888,17.888,4.5,10.5,11.888" transform="translate(-4.59 -4.5)"/><path class="b" d="M18,4.5V22.231" transform="translate(-4.702 -4.5)"/></g></g></svg>