<svg xmlns="http://www.w3.org/2000/svg" width="24" height="24" viewBox="0 0 24 24"><g fill="#ffffff00" opacity="0"><path d="M 23.5 23.5 L 0.5 23.5 L 0.5 0.5 L 23.5 0.5 L 23.5 23.5 Z" stroke="none"/><path d="M 1 1 L 1 23 L 23 23 L 23 1 L 1 1 M 0 0 L 24 0 L 24 24 L 0 24 L 0 0 Z" stroke="none" fill="#ffffff00"/></g><path d="M22.5,20.5V6.5a2.006,2.006,0,0,0-2-2H6.5a2.006,2.006,0,0,0-2,2v14a2.006,2.006,0,0,0,2,2h14A2.006,2.006,0,0,0,22.5,20.5ZM10,15l2.5,3.01L16,13.5l4.5,6H6.5Z" transform="translate(-1.5 -1.5)" fill="#ffffff00"/></svg>