<svg xmlns="http://www.w3.org/2000/svg" xmlns:xlink="http://www.w3.org/1999/xlink" width="32" height="32" viewBox="0 0 32 32"><defs><linearGradient id="a" x1="1.041" y1="1.205" x2="-0.022" y2="0.056" gradientUnits="objectBoundingBox"><stop offset="0" stop-color="#5169d5"/><stop offset="1" stop-color="#3fa0e8"/></linearGradient></defs><rect width="32" height="32" fill="none"/><g transform="translate(-439 -351)"><rect width="24" height="24" transform="translate(443 355)" fill="#fff" opacity="0"/><path d="M2.063,3.375A2.063,2.063,0,1,0,4.125,5.438,2.062,2.062,0,0,0,2.063,3.375Zm0,6.875a2.063,2.063,0,1,0,2.063,2.063A2.063,2.063,0,0,0,2.063,10.25Zm0,6.875a2.063,2.063,0,1,0,2.063,2.063,2.063,2.063,0,0,0-2.062-2.062Zm19.25.688H7.563a.687.687,0,0,0-.687.688v1.375a.687.687,0,0,0,.688.688h13.75A.688.688,0,0,0,22,19.875V18.5A.688.688,0,0,0,21.313,17.813Zm0-13.75H7.563a.687.687,0,0,0-.687.688V6.125a.688.688,0,0,0,.688.688h13.75A.688.688,0,0,0,22,6.125V4.75A.688.688,0,0,0,21.313,4.063Zm0,6.875H7.563a.687.687,0,0,0-.687.688V13a.687.687,0,0,0,.688.688h13.75A.688.688,0,0,0,22,13V11.625A.688.688,0,0,0,21.313,10.938Z" transform="translate(444 354.625)" fill="url(#a)"/></g></svg>