<svg xmlns="http://www.w3.org/2000/svg" width="24" height="24" viewBox="0 0 24 24"><path d="M0,0H24V24H0Z" fill="#fff" opacity="0"/><path d="M19.087,5.978c.041-1.233.009-2.558,0-2.6H6.631c0,.046-.037,1.37,0,2.6H3.375a13.259,13.259,0,0,0,.959,5.787,8.07,8.07,0,0,0,2.681,3.211,31.8,31.8,0,0,0,4.764,2.631V18.9c-.21.457-1.073,1.288-3.8,1.288H7.029V22.38H18.721V20.187H17.547c-2.772,0-3.425-.872-3.576-1.288V17.607a51,51,0,0,0,4.768-2.626A9.425,9.425,0,0,0,21.42,11.77a16.225,16.225,0,0,0,.955-5.791Zm-12.9,4.882a7.529,7.529,0,0,1-.717-2.827H6.782c.032.274.064.516.105.744a20.229,20.229,0,0,0,1.174,4.407A6.551,6.551,0,0,1,6.188,10.861Zm13.373,0a6.6,6.6,0,0,1-1.9,2.343A19.946,19.946,0,0,0,18.84,8.778c.037-.228.073-.47.105-.744h1.338A7.53,7.53,0,0,1,19.562,10.861Z" transform="translate(-0.375 -0.375)" fill="#eaac00"/></svg>