<svg width="8" height="12" viewBox="0 0 8 12" fill="none" xmlns="http://www.w3.org/2000/svg">
<path d="M2.68007 5.89871L6.39176 2.1886C6.46787 2.12127 6.52754 2.0374 6.56618 1.94342C6.60482 1.84944 6.62141 1.74785 6.61466 1.64646C6.60792 1.54507 6.57803 1.44658 6.52729 1.35854C6.47654 1.2705 6.4063 1.19527 6.32194 1.13861C6.18137 1.03738 6.00956 0.98903 5.83682 1.00209C5.66408 1.01516 5.5015 1.0888 5.37775 1.21002L1.21274 5.40995C1.14481 5.47224 1.09056 5.54797 1.05346 5.63233C1.01635 5.7167 0.997188 5.80786 0.997188 5.90003C0.997188 5.9922 1.01635 6.08335 1.05346 6.16772C1.09056 6.25209 1.14481 6.32782 1.21274 6.39011L5.37775 10.59C5.50176 10.7113 5.66465 10.7848 5.83762 10.7976C6.0106 10.8104 6.18252 10.7616 6.323 10.6599C6.40735 10.6032 6.4776 10.528 6.52834 10.4399C6.57909 10.3519 6.60898 10.2534 6.61572 10.152C6.62246 10.0506 6.60588 9.94903 6.56724 9.85505C6.5286 9.76107 6.46893 9.6772 6.39282 9.60987L2.68007 5.89871Z" fill="white" stroke="white"/>
</svg>
