<svg width="13" height="21" viewBox="0 0 13 21" fill="none" xmlns="http://www.w3.org/2000/svg">
<path d="M4.18184 10.2611L11.1988 3.24705C11.3427 3.11977 11.4555 2.96121 11.5286 2.78354C11.6016 2.60587 11.633 2.41382 11.6202 2.22214C11.6075 2.03046 11.551 1.84426 11.455 1.67782C11.3591 1.51139 11.2263 1.36916 11.0668 1.26205C10.8011 1.07067 10.4763 0.979262 10.1497 1.00396C9.82314 1.02866 9.51579 1.16787 9.28184 1.39705L1.40784 9.33705C1.27941 9.45481 1.17686 9.59798 1.10671 9.75747C1.03656 9.91697 1.00033 10.0893 1.00033 10.2636C1.00033 10.4378 1.03656 10.6101 1.10671 10.7696C1.17686 10.9291 1.27941 11.0723 1.40784 11.1901L9.28184 19.1301C9.51628 19.3593 9.82422 19.4983 10.1512 19.5224C10.4782 19.5466 10.8033 19.4544 11.0688 19.2621C11.2283 19.1549 11.3611 19.0127 11.457 18.8463C11.553 18.6798 11.6095 18.4936 11.6222 18.302C11.635 18.1103 11.6036 17.9182 11.5306 17.7406C11.4575 17.5629 11.3447 17.4043 11.2008 17.2771L4.18184 10.2611Z" fill="#E03249" stroke="#E03249"/>
</svg>
