<svg width="62" height="59" viewBox="0 0 62 59" fill="none" xmlns="http://www.w3.org/2000/svg">
<path d="M30.9755 58.3109C47.7721 58.3109 61.3885 45.2575 61.3885 29.1554C61.3885 13.0533 47.7721 0 30.9755 0C14.1789 0 0.5625 13.0533 0.5625 29.1554C0.5625 45.2575 14.1789 58.3109 30.9755 58.3109Z" fill="#D7D7D7"/>
<path d="M42.2188 16.6582H28.8854C27.4148 16.6582 26.2188 17.8542 26.2188 19.3249V24.6582H20.8854C19.4147 24.6582 18.2188 25.8542 18.2188 27.3249V40.6582C18.2188 42.1289 19.4147 43.3249 20.8854 43.3249H34.2188C35.6894 43.3249 36.8854 42.1289 36.8854 40.6582V35.3249H42.2188C43.6894 35.3249 44.8854 34.1289 44.8854 32.6582V19.3249C44.8854 17.8542 43.6894 16.6582 42.2188 16.6582ZM20.8854 40.6582V27.3249H34.2188L34.2214 40.6582H20.8854ZM42.2188 32.6582H36.8854V27.3249C36.8854 25.8542 35.6894 24.6582 34.2188 24.6582H28.8854V19.3249H42.2188V32.6582Z" fill="black"/>
</svg>
