<svg width="8" height="12" viewBox="0 0 8 12" fill="none" xmlns="http://www.w3.org/2000/svg">
<path d="M4.94132 5.90113L1.23236 9.61397C1.1563 9.68135 1.09669 9.76527 1.05812 9.85928C1.01955 9.95329 1.00304 10.0549 1.00986 10.1563C1.01668 10.2577 1.04664 10.3561 1.09745 10.4441C1.14826 10.5321 1.21856 10.6073 1.30296 10.6639C1.4436 10.765 1.61545 10.8133 1.78818 10.8001C1.96091 10.7869 2.12343 10.7131 2.24709 10.5918L6.40901 6.3888C6.47689 6.32646 6.53108 6.25069 6.56813 6.1663C6.60517 6.0819 6.62426 5.99073 6.6242 5.89856C6.62413 5.8064 6.6049 5.71525 6.56773 5.63091C6.53056 5.54657 6.47626 5.47088 6.40828 5.40864L2.24018 1.21179C2.11607 1.09062 1.95313 1.01723 1.78015 1.00458C1.60717 0.991929 1.43529 1.04084 1.29488 1.14267C1.21057 1.19938 1.14037 1.27467 1.08969 1.36274C1.03902 1.45081 1.0092 1.54933 1.00253 1.65073C0.995862 1.75212 1.01252 1.8537 1.05123 1.94765C1.08994 2.0416 1.14967 2.12543 1.22583 2.1927L4.94132 5.90113Z" fill="white" stroke="white"/>
</svg>
