<svg width="21" height="17" viewBox="0 0 21 17" fill="none" xmlns="http://www.w3.org/2000/svg">
<path d="M18.9609 7.29253H4.6301L9.01635 2.0242C9.22145 1.77743 9.32013 1.4593 9.29067 1.13979C9.26121 0.820273 9.10603 0.525546 8.85927 0.320445C8.61251 0.115345 8.29437 0.0166698 7.97486 0.0461287C7.65534 0.0755875 7.36062 0.230767 7.15552 0.477529L1.11385 7.72753C1.07321 7.7852 1.03686 7.84578 1.0051 7.90878C1.0051 7.9692 1.0051 8.00545 0.920521 8.06586C0.865751 8.20441 0.837075 8.35189 0.835938 8.50086C0.837075 8.64984 0.865751 8.79732 0.920521 8.93586C0.920521 8.99628 0.920521 9.03253 1.0051 9.09295C1.03686 9.15595 1.07321 9.21653 1.11385 9.2742L7.15552 16.5242C7.26913 16.6606 7.4114 16.7703 7.57221 16.8455C7.73302 16.9207 7.90842 16.9595 8.08593 16.9592C8.36826 16.9597 8.64187 16.8614 8.85927 16.6813C8.98162 16.5798 9.08276 16.4553 9.15689 16.3147C9.23103 16.1741 9.2767 16.0203 9.29129 15.862C9.30588 15.7037 9.28911 15.5441 9.24193 15.3924C9.19475 15.2406 9.1181 15.0996 9.01635 14.9775L4.6301 9.7092H18.9609C19.2814 9.7092 19.5887 9.58189 19.8153 9.35528C20.042 9.12868 20.1693 8.82133 20.1693 8.50086C20.1693 8.18039 20.042 7.87305 19.8153 7.64644C19.5887 7.41984 19.2814 7.29253 18.9609 7.29253Z" fill="white"/>
</svg>
