<svg width="62" height="59" viewBox="0 0 62 59" fill="none" xmlns="http://www.w3.org/2000/svg">
<path d="M31.2333 58.3128C48.03 58.3128 61.6464 45.2595 61.6464 29.1574C61.6464 13.0553 48.03 0.00195312 31.2333 0.00195312C14.4367 0.00195312 0.820312 13.0553 0.820312 29.1574C0.820312 45.2595 14.4367 58.3128 31.2333 58.3128Z" fill="url(#paint0_linear_2064_2351)"/>
<path d="M48.0529 19.1669C46.9757 19.611 45.8429 19.9194 44.6829 20.0842C45.2238 20.0842 46.0143 19.0672 46.3471 18.6883C46.8433 18.0966 47.2174 17.4198 47.4496 16.6941C47.4496 16.6941 47.4496 16.5744 47.4496 16.5345C47.4206 16.5205 47.3885 16.5132 47.356 16.5132C47.3235 16.5132 47.2914 16.5205 47.2624 16.5345C46.0107 17.1854 44.6747 17.6749 43.2891 17.9903C43.2488 18.0152 43.2019 18.0284 43.1539 18.0284C43.106 18.0284 43.059 18.0152 43.0187 17.9903C42.8939 17.8706 42.7899 17.751 42.6651 17.6513C42.0909 17.1715 41.437 16.7873 40.7305 16.5146C39.7941 16.1514 38.7846 15.9947 37.7765 16.0559C36.8033 16.1242 35.8548 16.3821 34.989 16.8137C34.1147 17.2507 33.343 17.8547 32.7215 18.5886C32.0806 19.3489 31.6193 20.2333 31.3694 21.181C31.1822 22.0829 31.1822 23.0113 31.3694 23.9131C31.3694 24.0727 31.3694 24.0926 31.2238 24.0727C25.9625 23.5593 21.0896 21.1845 17.5566 17.412C17.3902 17.2325 17.307 17.2325 17.1822 17.412C16.4592 18.6561 16.174 20.0905 16.3689 21.5024C16.5638 22.9142 17.2283 24.2282 18.2639 25.2493C18.5135 25.4886 18.8048 25.7279 19.096 25.9672C18.1743 25.8987 17.2761 25.6547 16.4541 25.2493C16.3085 25.2493 16.2253 25.2493 16.2045 25.3889C16.1739 25.6339 16.1739 25.8816 16.2045 26.1267C16.3648 27.3083 16.8501 28.4278 17.6104 29.3705C18.3707 30.3131 19.3788 31.045 20.5313 31.4912C20.8154 31.5985 21.1074 31.6852 21.4051 31.7504C20.5431 31.8748 19.6667 31.8748 18.8048 31.7504C18.6175 31.7504 18.5551 31.7504 18.6175 31.9698C19.0614 33.0833 19.7953 34.0694 20.7494 34.8339C21.7034 35.5984 22.8459 36.1159 24.0678 36.3371C24.3174 36.3371 24.5462 36.3371 24.7958 36.3371C25.0455 36.3371 24.7958 36.3371 24.7958 36.3371C23.7484 37.2544 22.4738 37.8997 21.093 38.2117C19.2906 38.8401 17.3654 39.0785 15.4556 38.9097C15.1435 38.9097 15.0811 38.9097 14.9979 38.9097C14.9147 38.9097 14.9979 39.0293 14.9979 39.1091C15.4001 39.3484 15.7953 39.5678 16.1837 39.7672C17.3809 40.3799 18.6432 40.8679 19.9489 41.223C23.3124 42.1935 26.8827 42.3009 30.3031 41.5345C33.7235 40.7681 36.8743 39.1548 39.4407 36.8556C41.2828 34.9338 42.7078 32.6799 43.6328 30.2252C44.5577 27.7704 44.9642 25.1638 44.8285 22.5571C44.8285 22.3377 45.0782 22.238 45.2238 22.1183C46.2387 21.3681 47.1355 20.4815 47.8865 19.486C47.9977 19.3343 48.0559 19.1528 48.0529 18.9675C48.0529 18.9675 48.1777 19.1071 48.0529 19.1669Z" fill="white"/>
<defs>
<linearGradient id="paint0_linear_2064_2351" x1="52.7222" y1="8.5372" x2="11.5393" y2="51.5172" gradientUnits="userSpaceOnUse">
<stop stop-color="#33CCFF"/>
<stop offset="1" stop-color="#337FFF"/>
</linearGradient>
</defs>
</svg>
