<svg width="42" height="42" viewBox="0 0 42 42" fill="none" xmlns="http://www.w3.org/2000/svg">
<path d="M21.3069 41.368C32.7033 41.368 41.9419 32.1293 41.9419 20.7328C41.9419 9.33633 32.7033 0.0976562 21.3069 0.0976562C9.91048 0.0976562 0.671875 9.33633 0.671875 20.7328C0.671875 32.1293 9.91048 41.368 21.3069 41.368Z" fill="#007AB5"/>
<path d="M12.6684 16.9657H16.6626V29.6686H12.6684V16.9657ZM14.6725 10.586C15.284 10.586 15.8706 10.8279 16.3043 11.259C16.738 11.69 16.9835 12.2752 16.9872 12.8866C16.9872 13.5005 16.7434 14.0893 16.3093 14.5234C15.8752 14.9575 15.2864 15.2014 14.6725 15.2014C14.3674 15.2032 14.0649 15.1447 13.7824 15.0292C13.5 14.9137 13.2431 14.7435 13.0267 14.5284C12.8103 14.3133 12.6385 14.0575 12.5213 13.7757C12.4041 13.4939 12.3437 13.1918 12.3438 12.8866C12.3456 12.5826 12.4073 12.282 12.5253 12.0019C12.6434 11.7217 12.8154 11.4676 13.0317 11.254C13.2479 11.0403 13.5041 10.8714 13.7857 10.7568C14.0672 10.6422 14.3686 10.5841 14.6725 10.586Z" fill="white"/>
<path d="M19.2344 16.9632H23.0593V18.7134C23.4448 18.0624 23.9976 17.5266 24.6604 17.1617C25.3231 16.7969 26.0715 16.6162 26.8277 16.6386C30.8784 16.6386 31.6123 19.2921 31.6123 22.7501V29.8072H27.6322V23.484C27.6322 21.9879 27.6322 20.0825 25.5574 20.0825C23.4827 20.0825 23.1581 21.7056 23.1581 23.3711V29.6661H19.2344V16.9632Z" fill="white"/>
</svg>
