<svg width="42" height="42" viewBox="0 0 42 42" fill="none" xmlns="http://www.w3.org/2000/svg">
<path d="M21.3537 41.368C32.7501 41.368 41.9888 32.1293 41.9888 20.7328C41.9888 9.33633 32.7501 0.0976562 21.3537 0.0976562C9.95735 0.0976562 0.71875 9.33633 0.71875 20.7328C0.71875 32.1293 9.95735 41.368 21.3537 41.368Z" fill="url(#paint0_linear_2867_6022)"/>
<path d="M27.7552 12.9277C27.3808 12.9277 27.0218 13.0764 26.7571 13.3411C26.4925 13.6058 26.3438 13.9648 26.3438 14.3392C26.3438 14.7135 26.4925 15.0725 26.7571 15.3372C27.0218 15.6019 27.3808 15.7506 27.7552 15.7506C28.1295 15.7506 28.4885 15.6019 28.7532 15.3372C29.0179 15.0725 29.1666 14.7135 29.1666 14.3392C29.1666 13.9648 29.0179 13.6058 28.7532 13.3411C28.4885 13.0764 28.1295 12.9277 27.7552 12.9277Z" fill="white"/>
<path d="M21.4562 14.75C19.8765 14.75 18.3615 15.3775 17.2445 16.4945C16.1275 17.6116 15.5 19.1266 15.5 20.7063C15.5 22.2859 16.1275 23.8009 17.2445 24.918C18.3615 26.035 19.8765 26.6625 21.4562 26.6625C23.0359 26.6625 24.5509 26.035 25.6679 24.918C26.7849 23.8009 27.4124 22.2859 27.4124 20.7063C27.4124 19.1266 26.7849 17.6116 25.6679 16.4945C24.5509 15.3775 23.0359 14.75 21.4562 14.75ZM21.4562 24.5171C20.4442 24.5171 19.4734 24.1161 18.7565 23.4018C18.0396 22.6875 17.635 21.7183 17.6313 20.7063C17.635 19.6929 18.0392 18.7222 18.7557 18.0057C19.4722 17.2892 20.4429 16.885 21.4562 16.8813C22.4682 16.885 23.4375 17.2896 24.1518 18.0066C24.866 18.7235 25.2671 19.6942 25.2671 20.7063C25.2671 21.717 24.8656 22.6863 24.1509 23.4009C23.4362 24.1156 22.4669 24.5171 21.4562 24.5171Z" fill="white"/>
<path d="M26.1808 32.8013H16.5125C14.5871 32.7976 12.7419 32.0301 11.3818 30.6674C10.0217 29.3046 9.25781 27.4578 9.25781 25.5325V15.8783C9.25781 13.9529 10.0217 12.1061 11.3818 10.7434C12.7419 9.38059 14.5871 8.61311 16.5125 8.60938H26.1808C28.1074 8.61311 29.9541 9.38012 31.3164 10.7425C32.6788 12.1049 33.4458 13.9516 33.4496 15.8783V25.5325C33.4458 27.4591 32.6788 29.3058 31.3164 30.6682C29.9541 32.0306 28.1074 32.7976 26.1808 32.8013ZM16.5125 10.8818C15.1898 10.8855 13.9226 11.4136 12.9886 12.3502C12.0547 13.2868 11.5302 14.5556 11.5302 15.8783V25.5325C11.5302 26.8552 12.0547 28.1239 12.9886 29.0605C13.9226 29.9971 15.1898 30.5252 16.5125 30.5289H26.1808C27.5047 30.5252 28.7734 29.9976 29.7096 29.0614C30.6459 28.1252 31.1734 26.8565 31.1772 25.5325V15.8783C31.1734 14.5543 30.6459 13.2855 29.7096 12.3493C28.7734 11.4131 27.5047 10.8855 26.1808 10.8818H16.5125Z" fill="white"/>
<defs>
<linearGradient id="paint0_linear_2867_6022" x1="35.9479" y1="6.13859" x2="6.75941" y2="35.3268" gradientUnits="userSpaceOnUse">
<stop stop-color="#FBE18A"/>
<stop offset="0.21" stop-color="#FCBB45"/>
<stop offset="0.38" stop-color="#F75274"/>
<stop offset="0.52" stop-color="#D53692"/>
<stop offset="0.74" stop-color="#8F39CE"/>
<stop offset="1" stop-color="#5B4FE9"/>
</linearGradient>
</defs>
</svg>
