<svg width="81" height="59" viewBox="0 0 81 59" fill="none" xmlns="http://www.w3.org/2000/svg">
<path d="M51.9298 56.0958C67.4479 49.9338 74.8171 32.8788 68.3893 18.0024C61.9615 3.12595 44.1708 -3.93845 28.6527 2.22356C13.1346 8.38556 5.76545 25.4406 12.1933 40.317C18.6211 55.1934 36.4117 62.2578 51.9298 56.0958Z" fill="url(#paint0_linear_2064_2350)"/>
<path d="M23.8594 45.6476L26.3973 36.574C25.0184 34.1238 24.3031 31.3811 24.317 28.5971C24.3225 24.156 26.1653 19.8983 29.4411 16.7579C32.7169 13.6175 37.1583 11.851 41.791 11.8457C46.4218 11.851 50.861 13.6182 54.1335 16.7591C57.406 19.9 59.2441 24.1578 59.2441 28.5971C59.2441 33.0364 57.406 37.2942 54.1335 40.4351C50.861 43.576 46.4218 45.3432 41.791 45.3485C38.8885 45.3493 36.0306 44.6644 33.4701 43.3543L23.8594 45.6476ZM33.8445 39.8046L34.4478 40.1636C36.6289 41.4424 39.1304 42.1315 41.687 42.1578C45.4424 42.1525 49.0425 40.72 51.698 38.1743C54.3535 35.6286 55.8478 32.1773 55.8534 28.5772C55.8478 24.977 54.3535 21.5258 51.698 18.9801C49.0425 16.4343 45.4424 15.0018 41.687 14.9966C37.9298 14.9966 34.3265 16.4274 31.6698 18.9742C29.0131 21.5211 27.5206 24.9754 27.5206 28.5772C27.5281 31.0621 28.2477 33.4973 29.6008 35.6167L29.9753 36.1951L28.5607 41.2604L33.8445 39.8046Z" fill="white"/>
<path fill-rule="evenodd" clip-rule="evenodd" d="M48.1821 30.8349C47.8365 30.568 47.4326 30.3793 47.0004 30.2826C46.5682 30.1859 46.1189 30.1838 45.6858 30.2765C45.0409 30.5358 44.6249 31.5129 44.188 32.0115C44.1033 32.1309 43.9737 32.2142 43.8263 32.2439C43.6789 32.2737 43.5252 32.2476 43.3975 32.171C41.0164 31.2922 39.0201 29.6598 37.7392 27.5444C37.6194 27.4193 37.5529 27.2556 37.5529 27.0858C37.5529 26.9159 37.6194 26.7522 37.7392 26.6271C38.2233 26.1935 38.5756 25.6421 38.7586 25.0317C38.8035 24.3708 38.6443 23.7119 38.3009 23.1372C37.9681 22.4392 37.5936 21.4222 36.8447 21.0233C36.4998 20.8942 36.1251 20.8557 35.7594 20.9118C35.3937 20.9679 35.0502 21.1165 34.7645 21.3424C34.2638 21.7546 33.8671 22.2702 33.6041 22.8505C33.3411 23.4307 33.2186 24.0606 33.2459 24.6927C33.2463 25.0484 33.2881 25.4029 33.3707 25.7496C33.6113 26.5703 33.9683 27.3553 34.4317 28.0829C34.7746 28.6408 35.1496 29.1801 35.555 29.6982C36.8215 31.4167 38.4342 32.8745 40.2979 33.9857C41.2368 34.5553 42.2422 35.0171 43.2935 35.3617C44.389 35.8316 45.596 36.0107 46.7883 35.8802C47.465 35.7745 48.1053 35.5147 48.6555 35.1225C49.2057 34.7304 49.6497 34.2175 49.9503 33.6268C50.112 33.2622 50.1625 32.8611 50.0959 32.4701C49.9711 31.6725 48.8477 31.2138 48.1821 30.8349Z" fill="white"/>
<defs>
<linearGradient id="paint0_linear_2064_2350" x1="61.8009" y1="8.5289" x2="20.5972" y2="51.5099" gradientUnits="userSpaceOnUse">
<stop stop-color="#60FC7C"/>
<stop offset="1" stop-color="#4AB161"/>
</linearGradient>
</defs>
</svg>
