<svg width="56" height="54" viewBox="0 0 56 54" fill="none" xmlns="http://www.w3.org/2000/svg">
<path d="M36.552 45.7975C47.2132 41.5641 52.1678 29.5969 47.6184 19.0679C43.069 8.5389 30.7384 3.43533 20.0772 7.66873C9.41605 11.9021 4.46143 23.8694 9.0108 34.3984C13.5602 44.9274 25.8908 50.0309 36.552 45.7975Z" fill="#60FC7C"/>
<path d="M15.7969 38.1718L17.5931 31.7498C16.6172 30.0157 16.1109 28.0745 16.1208 26.1041C16.1247 22.9608 17.4289 19.9473 19.7474 17.7247C22.0659 15.5021 25.2094 14.2518 28.4882 14.248C31.7657 14.2518 34.9076 15.5025 37.2238 17.7256C39.5399 19.9486 40.8409 22.9621 40.8409 26.1041C40.8409 29.2461 39.5399 32.2595 37.2238 34.4826C34.9076 36.7056 31.7657 37.9564 28.4882 37.9601C26.434 37.9607 24.4112 37.4759 22.599 36.5487L15.7969 38.1718ZM22.864 34.0363L23.291 34.2904C24.8347 35.1955 26.6051 35.6832 28.4146 35.7018C31.0726 35.6981 33.6206 34.6842 35.5001 32.8824C37.3795 31.0807 38.4372 28.638 38.441 26.09C38.4372 23.5419 37.3795 21.0992 35.5001 19.2975C33.6206 17.4957 31.0726 16.4818 28.4146 16.4781C25.7554 16.4781 23.2052 17.4908 21.3248 19.2934C19.4445 21.0959 18.3881 23.5407 18.3881 26.09C18.3935 27.8487 18.9028 29.5722 19.8605 31.0723L20.1255 31.4816L19.1243 35.0667L22.864 34.0363Z" fill="white"/>
<path fill-rule="evenodd" clip-rule="evenodd" d="M33.0114 27.6874C32.7668 27.4986 32.4809 27.365 32.1751 27.2965C31.8692 27.2281 31.5512 27.2267 31.2446 27.2922C30.7882 27.4757 30.4937 28.1673 30.1846 28.5202C30.1246 28.6047 30.0329 28.6637 29.9285 28.6847C29.8242 28.7058 29.7155 28.6873 29.6251 28.6331C27.9398 28.0111 26.5269 26.8558 25.6204 25.3586C25.5355 25.27 25.4884 25.1542 25.4884 25.0339C25.4884 24.9137 25.5355 24.7979 25.6204 24.7093C25.963 24.4024 26.2123 24.0122 26.3418 23.5802C26.3736 23.1124 26.2609 22.646 26.0179 22.2393C25.7823 21.7453 25.5173 21.0255 24.9873 20.7432C24.7431 20.6518 24.4779 20.6245 24.2191 20.6642C23.9602 20.7039 23.7172 20.8091 23.5149 20.969C23.1606 21.2608 22.8798 21.6257 22.6936 22.0364C22.5075 22.447 22.4208 22.8928 22.4401 23.3402C22.4404 23.592 22.47 23.8429 22.5285 24.0883C22.6988 24.6691 22.9514 25.2247 23.2794 25.7397C23.5221 26.1346 23.7875 26.5162 24.0744 26.8829C24.9708 28.0992 26.1122 29.131 27.4313 29.9175C28.0958 30.3206 28.8074 30.6475 29.5515 30.8914C30.3268 31.2239 31.1811 31.3507 32.025 31.2584C32.5039 31.1835 32.9571 30.9996 33.3465 30.7221C33.7359 30.4446 34.0501 30.0815 34.2629 29.6635C34.3773 29.4054 34.4131 29.1215 34.3659 28.8448C34.2776 28.2802 33.4826 27.9556 33.0114 27.6874Z" fill="white"/>
</svg>
