<svg width="61" height="59" viewBox="0 0 61 59" fill="none" xmlns="http://www.w3.org/2000/svg">
<path d="M60.8261 29.1574C60.8288 25.3279 60.044 21.5355 58.5166 17.997C56.9892 14.4585 54.7491 11.2434 51.9244 8.53555C49.0998 5.82769 45.746 3.68021 42.0549 2.21594C38.3637 0.751675 34.4077 -0.000662083 30.413 0.00195996C22.347 0.00195996 14.6113 3.07369 8.90776 8.5414C3.2042 14.0091 0 21.4249 0 29.1574C0.000555829 36.1015 2.58648 42.8174 7.29238 48.0964C11.9983 53.3754 18.5151 56.871 25.6701 57.9539V37.5929H17.9524V29.1574H25.6701V22.736C25.6701 15.4172 30.205 11.3889 37.153 11.3889C39.4017 11.3959 41.6471 11.5558 43.8722 11.8675V19.0467H40.0445C39.39 18.9629 38.7241 19.0218 38.0965 19.2189C37.469 19.4161 36.8959 19.7464 36.4201 20.1853C35.9442 20.6243 35.5778 21.1605 35.3481 21.7541C35.1184 22.3476 35.0314 22.9832 35.0936 23.6135V29.0776H43.5185L42.1664 37.5132H35.0936V57.9539C42.2618 56.8877 48.7958 53.3988 53.515 48.1177C58.2342 42.8365 60.8274 36.1114 60.8261 29.1574Z" fill="url(#paint0_linear_2064_2348)"/>
<path d="M42.2554 37.5923L43.6075 29.1568H35.1826V23.6927C35.1204 23.0624 35.2074 22.4268 35.4371 21.8333C35.6668 21.2397 36.0332 20.7035 36.5091 20.2645C36.9849 19.8256 37.558 19.4952 38.1856 19.2981C38.8131 19.101 39.479 19.0421 40.1335 19.1259H43.878V11.867C41.6274 11.5248 39.3541 11.3382 37.0756 11.3086C30.1276 11.3086 25.5927 15.297 25.5927 22.6557V29.077H17.875V37.5923H25.5927V57.9533C27.1612 58.194 28.7472 58.314 30.3356 58.3122C31.931 58.314 33.5239 58.194 35.0994 57.9533V37.5923H42.2554Z" fill="white"/>
<defs>
<linearGradient id="paint0_linear_2064_2348" x1="8.90341" y1="8.53721" x2="50.1071" y2="51.5181" gradientUnits="userSpaceOnUse">
<stop stop-color="#4676ED"/>
<stop offset="0.19" stop-color="#436DE4"/>
<stop offset="0.49" stop-color="#3C55CD"/>
<stop offset="0.87" stop-color="#302EA8"/>
<stop offset="1" stop-color="#2B1E99"/>
</linearGradient>
</defs>
</svg>
