<svg width="62" height="59" viewBox="0 0 62 59" fill="none" xmlns="http://www.w3.org/2000/svg">
<path d="M31.3583 58.3128C48.155 58.3128 61.7714 45.2595 61.7714 29.1574C61.7714 13.0553 48.155 0.00195312 31.3583 0.00195312C14.5617 0.00195312 0.945312 13.0553 0.945312 29.1574C0.945312 45.2595 14.5617 58.3128 31.3583 58.3128Z" fill="url(#paint0_linear_2064_2349)"/>
<path d="M40.799 18.1289C40.2473 18.1289 39.7182 18.339 39.328 18.713C38.9379 19.087 38.7188 19.5942 38.7188 20.1231C38.7188 20.652 38.9379 21.1593 39.328 21.5333C39.7182 21.9072 40.2473 22.1173 40.799 22.1173C41.3507 22.1173 41.8798 21.9072 42.2699 21.5333C42.6601 21.1593 42.8792 20.652 42.8792 20.1231C42.8792 19.5942 42.6601 19.087 42.2699 18.713C41.8798 18.339 41.3507 18.1289 40.799 18.1289Z" fill="white"/>
<path d="M31.513 20.7051C29.1847 20.7051 26.9519 21.5917 25.3056 23.1699C23.6593 24.7482 22.7344 26.8887 22.7344 29.1207C22.7344 31.3526 23.6593 33.4932 25.3056 35.0714C26.9519 36.6496 29.1847 37.5363 31.513 37.5363C33.8412 37.5363 36.0741 36.6496 37.7204 35.0714C39.3667 33.4932 40.2916 31.3526 40.2916 29.1207C40.2916 26.8887 39.3667 24.7482 37.7204 23.1699C36.0741 21.5917 33.8412 20.7051 31.513 20.7051ZM31.513 34.505C30.0214 34.5051 28.5907 33.9384 27.534 32.9292C26.4774 31.92 25.8811 30.5505 25.8756 29.1207C25.881 27.689 26.4767 26.3174 27.5328 25.305C28.5888 24.2927 30.0195 23.7216 31.513 23.7163C33.0045 23.7216 34.4331 24.2933 35.4858 25.3063C36.5385 26.3192 37.1296 27.6908 37.1296 29.1207C37.1296 30.5487 36.5379 31.9182 35.4845 32.928C34.4312 33.9378 33.0026 34.505 31.513 34.505Z" fill="white"/>
<path d="M38.4732 46.2082H24.2236C21.3859 46.2029 18.6663 45.1185 16.6617 43.1931C14.6571 41.2676 13.5312 38.6584 13.5313 35.938V22.2976C13.5312 19.5772 14.6571 16.9679 16.6617 15.0425C18.6663 13.117 21.3859 12.0326 24.2236 12.0273H38.4732C41.3129 12.0326 44.0346 13.1163 46.0425 15.0412C48.0504 16.9661 49.1809 19.5753 49.1864 22.2976V35.938C49.1809 38.6602 48.0504 41.2694 46.0425 43.1943C44.0346 45.1192 41.3129 46.2029 38.4732 46.2082ZM24.2236 15.238C22.2742 15.2433 20.4065 15.9894 19.0299 17.3127C17.6534 18.6361 16.8804 20.4287 16.8804 22.2976V35.938C16.8804 37.8068 17.6534 39.5994 19.0299 40.9228C20.4065 42.2461 22.2742 42.9922 24.2236 42.9975H38.4732C40.4246 42.9922 42.2945 42.2468 43.6743 40.924C45.0541 39.6012 45.8317 37.8087 45.8372 35.938V22.2976C45.8317 20.4269 45.0541 18.6343 43.6743 17.3115C42.2945 15.9888 40.4246 15.2433 38.4732 15.238H24.2236Z" fill="white"/>
<defs>
<linearGradient id="paint0_linear_2064_2349" x1="52.868" y1="8.5372" x2="11.6643" y2="51.5181" gradientUnits="userSpaceOnUse">
<stop stop-color="#FBE18A"/>
<stop offset="0.21" stop-color="#FCBB45"/>
<stop offset="0.38" stop-color="#F75274"/>
<stop offset="0.52" stop-color="#D53692"/>
<stop offset="0.74" stop-color="#8F39CE"/>
<stop offset="1" stop-color="#5B4FE9"/>
</linearGradient>
</defs>
</svg>
