<svg width="62" height="59" viewBox="0 0 62 59" fill="none" xmlns="http://www.w3.org/2000/svg">
<path d="M31.1552 58.3128C47.9519 58.3128 61.5682 45.2595 61.5682 29.1574C61.5682 13.0553 47.9519 0.00195312 31.1552 0.00195312C14.3586 0.00195312 0.742188 13.0553 0.742188 29.1574C0.742188 45.2595 14.3586 58.3128 31.1552 58.3128Z" fill="url(#paint0_linear_2064_2347)"/>
<path d="M18.4159 23.8342H24.3028V41.7822H18.4159V23.8342ZM21.3698 14.8204C22.271 14.8204 23.1356 15.1622 23.7748 15.7712C24.4139 16.3802 24.7758 17.207 24.7813 18.0709C24.7813 18.9383 24.4219 19.7702 23.7821 20.3835C23.1423 20.9969 22.2746 21.3415 21.3698 21.3415C20.92 21.3441 20.4742 21.2614 20.0579 21.0982C19.6416 20.9351 19.263 20.6946 18.944 20.3906C18.6251 20.0867 18.3719 19.7252 18.1992 19.3271C18.0264 18.929 17.9375 18.5021 17.9375 18.0709C17.9402 17.6414 18.0312 17.2167 18.2051 16.8209C18.3791 16.4251 18.6327 16.066 18.9514 15.7642C19.2701 15.4623 19.6477 15.2236 20.0627 15.0617C20.4776 14.8997 20.9218 14.8177 21.3698 14.8204Z" fill="white"/>
<path d="M28.1094 23.8304H33.7467V26.3033C34.3149 25.3835 35.1297 24.6265 36.1065 24.1109C37.0832 23.5954 38.1863 23.3402 39.3008 23.3718C45.2709 23.3718 46.3526 27.1209 46.3526 32.0067V41.9778H40.4865V33.0437C40.4865 30.9298 40.4865 28.2376 37.4286 28.2376C34.3707 28.2376 33.8923 30.531 33.8923 32.8842V41.7784H28.1094V23.8304Z" fill="white"/>
<defs>
<linearGradient id="paint0_linear_2064_2347" x1="52.6648" y1="8.5372" x2="11.4612" y2="51.5181" gradientUnits="userSpaceOnUse">
<stop stop-color="#007AB5"/>
<stop offset="1" stop-color="#0046E5"/>
</linearGradient>
</defs>
</svg>
