<svg width="42" height="42" viewBox="0 0 42 42" fill="none" xmlns="http://www.w3.org/2000/svg">
<path d="M41.3325 20.7328C41.3344 18.0225 40.8019 15.3383 39.7655 12.8339C38.7292 10.3295 37.2093 8.05395 35.2928 6.13743C33.3763 4.2209 31.1008 2.701 28.5964 1.66464C26.092 0.628283 23.4078 0.0958053 20.6975 0.0976611C15.2248 0.0976611 9.97615 2.27172 6.10634 6.14157C2.23653 10.0114 0.0625 15.26 0.0625 20.7328C0.0628771 25.6476 1.8174 30.4009 5.01032 34.1372C8.20324 37.8735 12.6249 40.3475 17.4795 41.114V26.7032H12.2431V20.7328H17.4795V16.188C17.4795 11.008 20.5564 8.15695 25.2705 8.15695C26.7962 8.16189 28.3197 8.27509 29.8294 8.4957V13.5769H27.2324C26.7883 13.5175 26.3365 13.5592 25.9107 13.6987C25.4849 13.8383 25.0961 14.0721 24.7732 14.3827C24.4503 14.6934 24.2017 15.0729 24.0459 15.493C23.8901 15.9131 23.831 16.363 23.8732 16.809V20.6764H29.5895L28.672 26.6467H23.8732V41.114C28.7368 40.3593 33.17 37.8901 36.372 34.1522C39.574 30.4144 41.3334 25.6546 41.3325 20.7328Z" fill="#4676ED"/>
<path d="M28.7294 26.7023L29.6468 20.7319H23.9306V16.8646C23.8884 16.4185 23.9474 15.9687 24.1032 15.5486C24.2591 15.1285 24.5077 14.749 24.8306 14.4383C25.1534 14.1276 25.5423 13.8938 25.968 13.7543C26.3938 13.6148 26.8456 13.5731 27.2897 13.6324H29.8303V8.49481C28.3033 8.25262 26.7609 8.12054 25.2149 8.09961C20.5008 8.09961 17.4239 10.9225 17.4239 16.1307V20.6755H12.1875V26.7023H17.4239V41.113C18.4881 41.2834 19.5642 41.3683 20.6419 41.3671C21.7244 41.3684 22.8052 41.2834 23.8741 41.113V26.7023H28.7294Z" fill="white"/>
</svg>
