<svg width="42" height="42" viewBox="0 0 42 42" fill="none" xmlns="http://www.w3.org/2000/svg">
<path d="M20.6663 41.368C32.0626 41.368 41.3013 32.1293 41.3013 20.7328C41.3013 9.33633 32.0626 0.0976562 20.6663 0.0976562C9.26985 0.0976562 0.03125 9.33633 0.03125 20.7328C0.03125 32.1293 9.26985 41.368 20.6663 41.368Z" fill="#33CCFF"/>
<path d="M32.0776 13.6622C31.3467 13.9765 30.5782 14.1948 29.7911 14.3114C30.1581 14.3114 30.6944 13.5916 30.9203 13.3234C31.2569 12.9047 31.5108 12.4257 31.6683 11.912C31.6683 11.912 31.6683 11.8273 31.6683 11.7991C31.6486 11.7891 31.6269 11.784 31.6048 11.784C31.5828 11.784 31.561 11.7891 31.5413 11.7991C30.692 12.2598 29.7855 12.6062 28.8455 12.8294C28.8181 12.847 28.7863 12.8564 28.7537 12.8564C28.7212 12.8564 28.6893 12.847 28.662 12.8294C28.5773 12.7447 28.5067 12.6601 28.4221 12.5895C28.0325 12.2499 27.5888 11.978 27.1094 11.785C26.4741 11.5279 25.7892 11.417 25.1052 11.4603C24.4448 11.5087 23.8013 11.6912 23.2139 11.9967C22.6207 12.3059 22.0971 12.7335 21.6754 13.2529C21.2406 13.791 20.9276 14.417 20.758 15.0877C20.631 15.726 20.631 16.3831 20.758 17.0214C20.758 17.1343 20.758 17.1484 20.6592 17.1343C17.0894 16.771 13.7833 15.0902 11.3861 12.4201C11.2732 12.2931 11.2168 12.2931 11.1321 12.4201C10.6416 13.3007 10.4481 14.3159 10.5803 15.3151C10.7125 16.3144 11.1634 17.2444 11.866 17.9671C12.0354 18.1364 12.233 18.3058 12.4306 18.4752C11.8052 18.4267 11.1958 18.254 10.6381 17.9671C10.5393 17.9671 10.4828 17.9671 10.4687 18.0659C10.448 18.2393 10.448 18.4146 10.4687 18.5881C10.5775 19.4244 10.9068 20.2167 11.4226 20.8839C11.9385 21.5511 12.6225 22.0691 13.4045 22.3849C13.5972 22.4608 13.7954 22.5222 13.9973 22.5683C13.4125 22.6563 12.8178 22.6563 12.233 22.5683C12.106 22.5683 12.0636 22.5683 12.106 22.7236C12.4071 23.5117 12.9051 24.2096 13.5524 24.7507C14.1997 25.2918 14.9749 25.6581 15.8039 25.8146C15.9733 25.8146 16.1285 25.8146 16.2979 25.8146C16.4673 25.8146 16.2979 25.8146 16.2979 25.8146C15.5872 26.4638 14.7224 26.9205 13.7856 27.1414C12.5626 27.5862 11.2564 27.7549 9.96061 27.6354C9.74889 27.6354 9.70655 27.6354 9.65009 27.6354C9.59363 27.6354 9.65009 27.7201 9.65009 27.7766C9.92297 27.9459 10.1911 28.1012 10.4546 28.2423C11.267 28.676 12.1234 29.0214 13.0093 29.2727C15.2914 29.9596 17.7138 30.0356 20.0346 29.4932C22.3553 28.9508 24.4931 27.8089 26.2343 26.1816C27.4842 24.8214 28.451 23.2262 29.0786 21.4888C29.7062 19.7514 29.982 17.9066 29.8899 16.0616C29.8899 15.9064 30.0593 15.8358 30.1581 15.7511C30.8467 15.2201 31.4552 14.5926 31.9647 13.888C32.0402 13.7807 32.0797 13.6522 32.0776 13.521C32.0776 13.521 32.1623 13.6198 32.0776 13.6622Z" fill="white"/>
</svg>
