<svg width="23" height="23" viewBox="0 0 23 23" fill="none" xmlns="http://www.w3.org/2000/svg">
<circle cx="11.5" cy="11.5" r="11.5" fill="#6C6C6C"/>
<path d="M12.0026 4.33398C9.7051 4.33398 7.83594 6.20315 7.83594 8.50065H9.5026C9.5026 7.12232 10.6243 6.00065 12.0026 6.00065C13.3809 6.00065 14.5026 7.12232 14.5026 8.50065C14.5026 9.39148 14.1243 9.72148 13.2684 10.3798C12.9501 10.6248 12.5909 10.9015 12.2468 11.2448C11.1534 12.3373 11.1651 13.4148 11.1693 13.5006V15.1673H12.8359V13.4931C12.8359 13.4731 12.8551 12.9923 13.4251 12.4231C13.6918 12.1565 13.9934 11.9248 14.2843 11.7006C15.1676 11.0206 16.1693 10.2506 16.1693 8.50065C16.1693 6.20315 14.3001 4.33398 12.0026 4.33398ZM11.1693 16.0006H12.8359V17.6673H11.1693V16.0006Z" fill="white"/>
</svg>
