<svg xmlns="http://www.w3.org/2000/svg" xmlns:xlink="http://www.w3.org/1999/xlink" viewBox="0 0 3080.56 3090.63"><defs><style>.cls-1{fill:url(#linear-gradient);}.cls-2,.cls-6{fill:#216b36;}.cls-2{opacity:0.75;}.cls-3{fill:#bdd0fb;}.cls-4{fill:url(#linear-gradient-2);}.cls-5{fill:#91b3fa;}.cls-6{opacity:0.9;}.cls-7{fill:url(#linear-gradient-3);}.cls-8{fill:url(#linear-gradient-4);}.cls-9{fill:#2d2d84;}.cls-10{fill:url(#linear-gradient-5);}.cls-11{fill:url(#linear-gradient-6);}.cls-12{fill:url(#linear-gradient-7);}.cls-13{fill:#ffd524;}.cls-14{fill:#ff1515;}.cls-15{fill:url(#linear-gradient-8);}.cls-16,.cls-17{fill:#f7da2f;}.cls-17,.cls-20{opacity:0.62;}.cls-18,.cls-20{fill:#fff;}.cls-19{fill:#f7da30;}.cls-21{fill:url(#linear-gradient-9);}.cls-22{fill:url(#linear-gradient-10);}.cls-23{fill:url(#linear-gradient-11);}</style><linearGradient id="linear-gradient" x1="3572.28" y1="3656.82" x2="1301.13" y2="1205.42" gradientUnits="userSpaceOnUse"><stop offset="0" stop-color="#dae3fe"/><stop offset="1" stop-color="#e9effd"/></linearGradient><linearGradient id="linear-gradient-2" x1="3011.29" y1="1716.94" x2="1052.78" y2="3239.34" xlink:href="#linear-gradient"/><linearGradient id="linear-gradient-3" x1="1054.15" y1="1079.12" x2="1955.52" y2="3578.38" xlink:href="#linear-gradient"/><linearGradient id="linear-gradient-4" x1="2754.36" y1="1990.84" x2="1935.01" y2="475.05" gradientUnits="userSpaceOnUse"><stop offset="0" stop-color="#53d8ff"/><stop offset="1" stop-color="#3840f7"/></linearGradient><linearGradient id="linear-gradient-5" x1="1889.01" y1="1150.36" x2="2230.29" y2="836.38" gradientUnits="userSpaceOnUse"><stop offset="0" stop-color="#febbba"/><stop offset="1" stop-color="#ff928e"/></linearGradient><linearGradient id="linear-gradient-6" x1="2341.4" y1="675.43" x2="2137.58" y2="440.97" gradientTransform="translate(84.79 -157.78) rotate(9.6)" xlink:href="#linear-gradient-5"/><linearGradient id="linear-gradient-7" x1="2279.68" y1="729.09" x2="2075.85" y2="494.62" gradientTransform="translate(84.79 -157.78) rotate(9.6)" xlink:href="#linear-gradient-5"/><linearGradient id="linear-gradient-8" x1="-706.45" y1="2444.45" x2="2816.52" y2="2444.45" gradientUnits="userSpaceOnUse"><stop offset="0" stop-color="#72cddf"/><stop offset="1" stop-color="#4f52ff"/></linearGradient><linearGradient id="linear-gradient-9" x1="1452.26" y1="1832.88" x2="1762.94" y2="1617.79" gradientTransform="matrix(0.92, -0.39, 0.39, 0.92, -96.35, 306.21)" xlink:href="#linear-gradient-5"/><linearGradient id="linear-gradient-10" x1="1484.11" y1="1878.89" x2="1794.79" y2="1663.8" gradientTransform="matrix(0.92, -0.39, 0.39, 0.92, -96.35, 306.21)" xlink:href="#linear-gradient-5"/><linearGradient id="linear-gradient-11" x1="-854.39" y1="709.67" x2="-923.46" y2="377.82" gradientTransform="matrix(-0.89, -0.45, -0.33, 0.64, 2089.3, 631.18)" xlink:href="#linear-gradient-5"/></defs><title>20943569 [Converted]</title><g id="Illustration"><path class="cls-1" d="M3255.78,2259.86C2943.71,2989.29,2119.94,3302.6,1474.5,3249.18c-176.23-14.58-530.81-43.93-807.67-305.75C135.14,2440.63,217,1389.63,726,770.86c65.55-79.68,519.25-613.56,1226.26-606.41,517.63,5.23,881,297.63,925.13,334.06,55.81,46,178.9,155.37,289.83,328.85C3427.89,1235,3450.8,1804,3255.78,2259.86Z" transform="translate(-304.38 -164.37)"/><path class="cls-2" d="M2447,2285.08s-9.11-383,167.31-485.57,511.88-166.62,524.46-716.64c7.36-322,15.33-462.79,20.67-524.18a36.26,36.26,0,0,0-42.82-38.83c-167.09,31.48-709.9,161-823.71,531.54C2158,1490.62,2447,2285.08,2447,2285.08Z" transform="translate(-304.38 -164.37)"/><path class="cls-3" d="M2987.38,672.9C2804,836.48,2591.88,1126,2478.84,1415.49c-14.51,47.71-57,149.18-75.39,329.46-16.47,150.35-8.28,309.23,11.68,414.4a12.25,12.25,0,0,0,14.33,9.75c11.43-2.16,9.91-14.46,9.8-14.07-22.79-179.69-13.33-403.34,38.91-605.13,66.74-247.79,215.59-488,369.56-691.77l15.84-20.07c119.29-153.19,144.4-154.32,133.25-165A7,7,0,0,0,2987.38,672.9Z" transform="translate(-304.38 -164.37)"/><path class="cls-3" d="M2421.21,2458.61c-13.57-9,18.22-90,20.94-101.71q15-65.18,25.55-131.29c36.88-232.53,37.37-523.87,169.82-636.14,110.24-93.44,485.37-34.44,608.12-12a18.41,18.41,0,0,1,8.56,32.21c-58.86,49.43-184.78,166-217.59,283.55-43.24,154.89-190.5,253.41-322.33,280.07-83.27,16.84-155.61,41.2-205.17,114.47-26.53,39.21-36.08,132.49-65.62,159.73C2431.8,2458.24,2424.86,2461,2421.21,2458.61Z" transform="translate(-304.38 -164.37)"/><path class="cls-4" d="M3073,1642.89c-156.6,6.56-324.7,78-410,212l-8.05,12.79c-18.6,30-124,243.12-182.52,419.8a4.2,4.2,0,0,0,2.67,5.31,4.27,4.27,0,0,0,5.25-2.52c40.79-99.81,99.36-226.35,146-321,50-103.26,85-173.19,199.15-240.18,127-72.14,248.34-79.56,248-79.49a3.37,3.37,0,0,0-.48-6.72Z" transform="translate(-304.38 -164.37)"/><path class="cls-5" d="M1622.18,1914.77s-88-336.8-267.72-382.15S865.7,1515.29,717,1038.1C629.92,758.73,587.71,637.78,567.67,585.5a32.94,32.94,0,0,1,27.67-44.63c153.81-14.35,660.3-37.13,852.46,257.93C1675.61,1148.59,1622.18,1914.77,1622.18,1914.77Z" transform="translate(-304.38 -164.37)"/><path class="cls-3" d="M746.52,642.16c201.14,96.93,458.86,296.64,630.08,521.17,24.62,38,87.1,116,148.34,268.84,52,127.18,84.67,268,93.57,364.83a11.13,11.13,0,0,1-10.07,12.1c-10.52,1-12.27-10.15-12.09-9.83-25.08-162.64-89.36-355.58-185.51-518.73-120.33-199.68-310.49-372.21-496-511.59L896,755.4C753.47,651.48,731.25,656.78,738.32,644.67A6.33,6.33,0,0,1,746.52,642.16Z" transform="translate(-304.38 -164.37)"/><path class="cls-6" d="M2076.05,2468.94c23.78,4.25-273.1-207.57-465-618.91-90.43-193.83-163.81-448.14-307.6-513-119.68-54-432.51,91.46-534.09,141.77a16.73,16.73,0,0,0,.58,30.27c63.79,28.43,203,98.73,261,193.14,76.56,124.44,229.83,173.61,351.64,163.88s192.34-5.5,301.23,162.54S2008.49,2456.88,2076.05,2468.94Z" transform="translate(-304.38 -164.37)"/><path class="cls-7" d="M936.49,1492.72c138.4-33.49,303.1-13.2,411.15,82.46l10.23,9.15c23.75,21.53,169.17,181.27,264.53,320.91a3.82,3.82,0,0,1-1,5.31,3.88,3.88,0,0,1-5.22-.88c-60.61-77-143.46-172.8-207.89-243.76-69.55-77.65-117.64-130-234.07-159.88-129-31.2-236.81-7.3-236.47-7.32a3.06,3.06,0,0,1-1.26-6Z" transform="translate(-304.38 -164.37)"/><path class="cls-8" d="M2283.27,1130.4s117.18,278.08,411.4,309.26l-7.81,51.27s-384.25,66.64-587.35-270.81Z" transform="translate(-304.38 -164.37)"/><path class="cls-9" d="M1626.59,1826.85S1504.14,1338.27,1766.75,926a31.1,31.1,0,0,1,27.71-14.45c61.9,3,274.39,29.09,513.38,237.21,0,0-251.18,212.9-281.38,688.5C2026.46,1837.25,1793.69,1847.28,1626.59,1826.85Z" transform="translate(-304.38 -164.37)"/><path class="cls-10" d="M2123.33,823,1999,960.44a32.48,32.48,0,0,0,.47,44.6c20.74,22,57.46,50.54,105.49,45.09a49.71,49.71,0,0,0,37.2-23.65l75.31-126.94Z" transform="translate(-304.38 -164.37)"/><path class="cls-11" d="M2333.28,734.76s-12.62,230.93-114,243.17-106.86-214.66-106.86-214.66S2209.75,559.83,2333.28,734.76Z" transform="translate(-304.38 -164.37)"/><path class="cls-12" d="M2156.43,834.55s3.54-71.44-37.19-57.58c-52.48,17.87,13.52,74.31,13.52,74.31Z" transform="translate(-304.38 -164.37)"/><path class="cls-13" d="M2147.35,786.34s-15.74,47.44,0,36.68,28.37-127.38,98.69-91.67,201.71,57.33,172.86-78.25S2308.5,634.43,2192.57,603,2092,681.59,2104,701.24c-34.16,16.68-31.64,58.85,0,84.94C2113.25,779.42,2131.61,762.38,2147.35,786.34Z" transform="translate(-304.38 -164.37)"/><path class="cls-5" d="M2361.31,748.4a1.47,1.47,0,0,1-.26-2.92c.23-.05,23.91-4.64,37.43-26.6,11.37-18.47,12.52-43.6,3.42-74.7a1.47,1.47,0,1,1,2.83-.83c9.35,32,8.08,57.9-3.77,77.12-14.23,23.07-38.36,27.72-39.38,27.91Z" transform="translate(-304.38 -164.37)"/><path class="cls-14" d="M1757.24,919.91S1352.62,1314.41,1453,1430s434.75,257.38,434.75,257.38l-10.63-77.55s-285.94-216.79-249.18-251c19.16-17.85,79.22-75.84,132.31-127.26,69.71-67.52,95.41-169.49,63.27-261.06C1809.33,930,1788.27,902.94,1757.24,919.91Z" transform="translate(-304.38 -164.37)"/><path class="cls-15" d="M3101.75,3051C2288.59,2608.19,1436,2639.8,547,3084.57c-36.93,18.47-80.38-8.51-80.38-49.81V2333.9a158.12,158.12,0,0,1,76.66-135.52c886.84-533,1762.32-535,2597.69,4.21a175.61,175.61,0,0,1,80.14,145.26l8.29,626.26C3230.23,3040.12,3159.72,3082.61,3101.75,3051Z" transform="translate(-304.38 -164.37)"/><path class="cls-16" d="M2109.15,2192.54l-89.46,90.75a30.09,30.09,0,0,0-8.13,26.82l24,125.13c4.71,24.51-20.73,43.78-43,32.61l-114-57a30.07,30.07,0,0,0-28,.56L1739,2472.9c-21.85,12-48-6.19-44.31-30.86l19-126a30.12,30.12,0,0,0-9.19-26.47l-93-87.11c-18.21-17.06-9-47.6,15.66-51.68L1752.91,2130a30.12,30.12,0,0,0,22.34-16.92l54.11-115.37c10.59-22.59,42.5-23.22,54-1.07L1942,2109.71a30.13,30.13,0,0,0,23,16l126.44,15.81C2116.2,2144.63,2126.66,2174.77,2109.15,2192.54Z" transform="translate(-304.38 -164.37)"/><path class="cls-17" d="M1855.23,2379.34a59.12,59.12,0,0,0-18.69,6.54l-72.88,40.18a22.81,22.81,0,0,1-33.57-23.38l12.43-82.29a59.2,59.2,0,0,0-18.07-52.07l-60.74-56.89a22.81,22.81,0,0,1,11.87-39.15l41.94-7,1.06,6.38-41.95,6.95a16.34,16.34,0,0,0-8.5,28.05l60.74,56.89a65.68,65.68,0,0,1,20.05,57.76l-12.42,82.29a16.33,16.33,0,0,0,24,16.74l72.87-40.18a65.6,65.6,0,0,1,20.74-7.25Z" transform="translate(-304.38 -164.37)"/><path class="cls-17" d="M1997.56,2409.9a22.86,22.86,0,0,1-31.5,12.12l-56.93-28.49,2.9-5.79,56.93,28.5a16.33,16.33,0,0,0,23.35-17.7l-15.69-81.71a66.33,66.33,0,0,1,17.73-58.52l58.42-59.26a16.34,16.34,0,0,0-9.61-27.69L1960.58,2161a65.64,65.64,0,0,1-50.16-34.94l-38.32-73.88a16.33,16.33,0,0,0-29.29.59l-35.34,75.35a65.38,65.38,0,0,1-15.07,20.51l-4.37-4.77a58.81,58.81,0,0,0,13.58-18.49l35.34-75.35a22.8,22.8,0,0,1,40.89-.82l38.32,73.88a59.17,59.17,0,0,0,45.22,31.5l82.58,10.33a22.81,22.81,0,0,1,13.42,38.65L1999,2262.85a59.74,59.74,0,0,0-16,52.76l15.69,81.71A22.81,22.81,0,0,1,1997.56,2409.9Z" transform="translate(-304.38 -164.37)"/><rect class="cls-17" x="1717.88" y="2163.22" width="25.2" height="6.47" transform="translate(-635.08 147.46) rotate(-9.4)"/><path class="cls-16" d="M1560,2213.47l-60.88,111.93a30.09,30.09,0,0,0-.4,28L1556.41,2467c11.3,22.25-7.82,47.8-32.35,43.23L1398.78,2487a30.12,30.12,0,0,0-26.77,8.28l-90.23,90c-17.66,17.62-47.87,7.33-51.11-17.41l-16.53-126.35a30.13,30.13,0,0,0-16.15-22.9l-113.46-58c-22.22-11.36-21.76-43.26.77-54l115-54.77a30.1,30.1,0,0,0,16.79-22.43l20.11-125.83c3.94-24.65,34.42-34.07,51.59-16l87.64,92.5a30.1,30.1,0,0,0,26.52,9l125.89-19.75C1553.54,2165.47,1571.93,2191.55,1560,2213.47Z" transform="translate(-304.38 -164.37)"/><path class="cls-17" d="M1367.62,2463.18a58.83,58.83,0,0,0-16.17,11.44l-58.92,58.76a22.8,22.8,0,0,1-38.72-13.19l-10.8-82.52a59.24,59.24,0,0,0-31.77-45.05l-74.1-37.88a22.81,22.81,0,0,1,.59-40.9l38.39-18.28,2.78,5.84-38.39,18.28a16.34,16.34,0,0,0-.42,29.3l74.1,37.88a65.67,65.67,0,0,1,35.23,50l10.81,82.51a16.34,16.34,0,0,0,27.73,9.45l58.92-58.76a65.85,65.85,0,0,1,17.93-12.7Z" transform="translate(-304.38 -164.37)"/><path class="cls-17" d="M1512.84,2453.2a22.87,22.87,0,0,1-26.91,20.36l-62.59-11.65,1.18-6.37,62.59,11.65a16.33,16.33,0,0,0,17.55-23.46L1467,2369.54a66.32,66.32,0,0,1,.87-61.14l39.76-73.1a16.34,16.34,0,0,0-16.88-24l-82.22,12.9a65.65,65.65,0,0,1-57.86-19.72l-57.26-60.4a16.33,16.33,0,0,0-28,8.65L1252.28,2235a65.39,65.39,0,0,1-8.81,23.88l-5.52-3.38a58.74,58.74,0,0,0,7.94-21.52l13.13-82.19a22.8,22.8,0,0,1,39.08-12.08l57.25,60.41a59.19,59.19,0,0,0,52.16,17.77l82.22-12.9a22.81,22.81,0,0,1,23.58,33.43l-39.77,73.1a59.76,59.76,0,0,0-.77,55.12l37.67,74.2A22.79,22.79,0,0,1,1512.84,2453.2Z" transform="translate(-304.38 -164.37)"/><rect class="cls-17" x="1176.29" y="2289.83" width="25.2" height="6.47" transform="translate(-1174.37 569) rotate(-25.45)"/><path class="cls-16" d="M1017.76,2379.75l-60.89,111.94a30.09,30.09,0,0,0-.4,28l57.69,113.62c11.3,22.25-7.82,47.79-32.35,43.23l-125.27-23.32a30.1,30.1,0,0,0-26.78,8.28l-90.22,90c-17.67,17.62-47.88,7.33-51.12-17.42l-16.53-126.34a30.12,30.12,0,0,0-16.15-22.9l-113.46-58c-22.21-11.36-21.76-43.27.77-54l115.05-54.77a30.1,30.1,0,0,0,16.79-22.44L695,2269.8c3.94-24.64,34.42-34.07,51.59-16l87.64,92.5a30.1,30.1,0,0,0,26.52,9l125.89-19.76C1011.29,2331.75,1029.68,2357.83,1017.76,2379.75Z" transform="translate(-304.38 -164.37)"/><path class="cls-17" d="M825.37,2629.46a58.88,58.88,0,0,0-16.16,11.45l-58.93,58.76a22.81,22.81,0,0,1-38.72-13.19L700.76,2604A59.24,59.24,0,0,0,669,2558.91L594.89,2521a22.81,22.81,0,0,1,.59-40.91l38.39-18.27,2.78,5.84L598.26,2486a16.34,16.34,0,0,0-.42,29.31l74.1,37.88a65.71,65.71,0,0,1,35.24,50l10.8,82.52a16.33,16.33,0,0,0,27.73,9.44l58.93-58.75a65.44,65.44,0,0,1,17.92-12.7Z" transform="translate(-304.38 -164.37)"/><path class="cls-17" d="M970.59,2619.48a22.87,22.87,0,0,1-26.91,20.36l-62.59-11.65,1.18-6.36,62.6,11.65A16.34,16.34,0,0,0,962.42,2610l-37.67-74.19a66.32,66.32,0,0,1,.86-61.14l39.76-73.11a16.33,16.33,0,0,0-16.88-23.94l-82.22,12.9a65.65,65.65,0,0,1-57.86-19.72l-57.25-60.41a16.34,16.34,0,0,0-28,8.66L710,2401.26a65.34,65.34,0,0,1-8.81,23.87l-5.52-3.37a58.78,58.78,0,0,0,7.94-21.53l13.13-82.18A22.81,22.81,0,0,1,755.85,2306l57.25,60.41a59.21,59.21,0,0,0,52.16,17.78l82.22-12.91a22.82,22.82,0,0,1,23.58,33.44l-39.77,73.1a59.74,59.74,0,0,0-.77,55.11l37.67,74.2A22.8,22.8,0,0,1,970.59,2619.48Z" transform="translate(-304.38 -164.37)"/><rect class="cls-17" x="634.04" y="2456.12" width="25.2" height="6.47" transform="translate(-1298.45 352.13) rotate(-25.45)"/><path class="cls-18" d="M3172.22,2560.91l-118.92,45.78a30.1,30.1,0,0,0-18.46,21.08l-29.7,123.92c-5.82,24.26-36.94,31.33-52.66,11.95l-80.29-98.95a30.06,30.06,0,0,0-25.75-11l-127,10c-24.88,2-41.21-25.44-27.64-46.39l69.29-106.93a30.13,30.13,0,0,0,2.55-27.91l-48.81-117.71c-9.56-23.05,11.47-47.05,35.58-40.62L2873.49,2357a30.09,30.09,0,0,0,27.33-6.2l96.86-82.79c19-16.22,48.3-3.64,49.63,21.28l6.79,127.24a30.11,30.11,0,0,0,14.35,24.07l108.67,66.54C3198.4,2520.16,3195.51,2551.94,3172.22,2560.91Z" transform="translate(-304.38 -164.37)"/><path class="cls-16" d="M2652.41,2334.08l-111.23,62.16a30.12,30.12,0,0,0-15.29,23.48L2514,2546.6c-2.32,24.84-32.12,36.24-50.43,19.29l-93.5-86.58a30.13,30.13,0,0,0-27.06-7.29L2218.73,2500c-24.35,5.47-44.4-19.35-33.93-42l53.45-115.68a30.1,30.1,0,0,0-1.44-28l-65-109.61c-12.73-21.47,4.68-48.21,29.46-45.25l126.53,15.09a30.11,30.11,0,0,0,26.17-10l84.16-95.68c16.49-18.74,47.3-10.44,52.14,14l24.75,125a30.1,30.1,0,0,0,17.61,21.79l117,50.48C2672.56,2290,2674.2,2321.9,2652.41,2334.08Z" transform="translate(-304.38 -164.37)"/><path class="cls-17" d="M2356.45,2442.57a59,59,0,0,0-19.78,1l-81.19,18.24a22.81,22.81,0,0,1-25.71-31.82l34.91-75.54a59.25,59.25,0,0,0-2.82-55.05l-42.45-71.59a22.82,22.82,0,0,1,22.33-34.28l42.22,5-.77,6.42-42.22-5a16.34,16.34,0,0,0-16,24.55l42.44,71.59a65.66,65.66,0,0,1,3.13,61.06l-34.9,75.55a16.33,16.33,0,0,0,18.41,22.79l81.19-18.24a65.46,65.46,0,0,1,21.93-1.17Z" transform="translate(-304.38 -164.37)"/><path class="cls-17" d="M2484.58,2511.64a22.86,22.86,0,0,1-33.62,2.85l-46.72-43.26,4.4-4.74,46.72,43.25a16.33,16.33,0,0,0,27.36-10.47l7.74-82.85a66.35,66.35,0,0,1,33.36-51.24l72.65-40.6a16.34,16.34,0,0,0-1.5-29.26l-76.42-33a65.65,65.65,0,0,1-38.41-47.56L2464,2133.15a16.34,16.34,0,0,0-28.29-7.62l-55,62.5a65.3,65.3,0,0,1-20.2,15.48l-2.86-5.79a58.86,58.86,0,0,0,18.2-14l55-62.49a22.81,22.81,0,0,1,39.5,10.63l16.17,81.64a59.24,59.24,0,0,0,34.63,42.88l76.42,33a22.81,22.81,0,0,1,2.09,40.85l-72.64,40.6a59.73,59.73,0,0,0-30.07,46.2l-7.75,82.85A22.8,22.8,0,0,1,2484.58,2511.64Z" transform="translate(-304.38 -164.37)"/><rect class="cls-17" x="2292.85" y="2190.72" width="6.47" height="25.2" transform="translate(-468.24 4057.68) rotate(-83.19)"/><path class="cls-19" d="M2735.91,1595l-218.52,107.64a57.55,57.55,0,0,0-31.52,43.31l-35.21,241c-6.9,47.2-64.93,66-98.2,31.82l-169.9-174.57a57.56,57.56,0,0,0-50.93-16.59l-240.12,41c-47,8-82.84-41.35-60.61-83.55l113.52-215.53a57.56,57.56,0,0,0,0-53.57l-113.19-215.69C1809.11,1258,1845,1208.7,1892,1216.8l240.06,41.36a57.57,57.57,0,0,0,51-16.51l170.16-174.3c33.33-34.14,91.33-15.24,98.15,32l34.84,241.09a57.55,57.55,0,0,0,31.46,43.36l218.35,108C2778.75,1512.89,2778.71,1573.89,2735.91,1595Z" transform="translate(-304.38 -164.37)"/><path class="cls-20" d="M2160.12,1772.72a112.7,112.7,0,0,0-37.86,0l-156.81,26.76a43.61,43.61,0,0,1-45.92-63.3l74.13-140.76a113.22,113.22,0,0,0,.09-105.37l-73.93-140.87a43.6,43.6,0,0,1,46-63.23l80.1,13.8-2.09,12.19-80.11-13.8a31.22,31.22,0,0,0-33,45.29l73.92,140.88a125.55,125.55,0,0,1-.09,116.88L1930.48,1742a31.22,31.22,0,0,0,32.88,45.33l156.81-26.76a125.2,125.2,0,0,1,42,0Z" transform="translate(-304.38 -164.37)"/><path class="cls-20" d="M2397.89,1917.29a43.7,43.7,0,0,1-64.48,2.11l-84.89-87.21,8.87-8.63,84.89,87.21a31.23,31.23,0,0,0,53.28-17.27l23-157.4a126.81,126.81,0,0,1,68.77-94.51l142.71-70.3a31.22,31.22,0,0,0,.05-56l-142.62-70.53a125.51,125.51,0,0,1-68.6-94.6l-22.78-157.46a31.22,31.22,0,0,0-53.25-17.36L2231.7,1289.19a125.11,125.11,0,0,1-40.1,27.56l-4.89-11.36a112.39,112.39,0,0,0,36.13-24.85L2334,1166.7a43.59,43.59,0,0,1,74.35,24.21l22.77,157.47a113.16,113.16,0,0,0,61.85,85.28l142.62,70.52a43.61,43.61,0,0,1-.06,78.21l-142.71,70.29a114.25,114.25,0,0,0-62,85.21l-23,157.4A43.59,43.59,0,0,1,2397.89,1917.29Z" transform="translate(-304.38 -164.37)"/><rect class="cls-20" x="2062.44" y="1285.9" width="12.37" height="48.17" transform="translate(121.81 2961.57) rotate(-80.22)"/><path class="cls-21" d="M1853,1605.53s-1.7-33.33-10.33-48.77,11.45-19,21.34-4.49,17,54.66,17,54.66S1863.75,1617.16,1853,1605.53Z" transform="translate(-304.38 -164.37)"/><path class="cls-22" d="M1919.28,1691.4a19.76,19.76,0,0,1-33.7-.1c-11.45-18.75-28.79-48.94-32-64.67-4.83-23.86-8.11-55.78,23.56-61.82s72.9-4.07,72.9-4.07,10.41,29.33-15.55,29.47l19.74,8.48s7.77,23.73-16,19.41l20.76,13.56s0,22.19-18.83,15.95C1926.53,1643.1,1931.41,1671.76,1919.28,1691.4Z" transform="translate(-304.38 -164.37)"/><path class="cls-23" d="M2685.8,1417.62c-62.41-30.4-86.25-29.84-112.53-6.88l44.29,34.64c14.31,13,11.61,26.47,6.16,37.77-6.75,14,5.52,33.83,25.86,40.34,14.85,4.76,29.15,1.18,42.44-17.46l11.7-23C2700.09,1466.22,2704.27,1431.15,2685.8,1417.62Z" transform="translate(-304.38 -164.37)"/></g></svg>