<svg xmlns="http://www.w3.org/2000/svg" width="454.028" height="452.853" viewBox="0 0 454.028 452.853"><g transform="translate(-21.235 -30.571)"><path d="M394.115,252.316s-7.918-.57-7.189,17.194,2.541,27.226,2.541,27.226-.233,3.939-3.283,3.166-8.789-4.607-11.624-1.741c-2.939,2.971-1.894,7.53,2.005,12.9S388.574,328.5,389.3,329.6c.716,1.075,1,3.09-1.16,2.9s-16.758-5.141-18.691,1.926,11.387,20.238,12.815,21.706,1.506,2.395.926,3.283-5.329-1.237-9.538-2.474-9.306-1.934-10.079,2.237,5.093,16.375,27.062,29.2l10.569,5.277,10-6.38c20.577-14.961,25.193-27.691,24.006-31.763s-6.189-2.869-10.253-1.217-8.577,4.241-9.242,3.415-.682-1.755.593-3.359,13.209-16.041,10.579-22.879-16.657-.455-18.79-.046-2.048-1.625-1.443-2.766c.616-1.162,7.478-13.989,10.82-19.721s3.927-10.371.705-13.034c-3.107-2.568-8.433,1.82-11.391,2.895s-3.584-2.822-3.584-2.822.857-9.6-.194-27.343-9.064-16.315-9.064-16.315" fill="#ebebeb"/><path d="M394.741,268.226s.021.125.042.371c.021.263.049.625.085,1.09.066.978.162,2.388.284,4.195.243,3.643.554,8.918.914,15.436.725,13.037,1.572,31.055,2.441,50.957s1.671,37.928,2.322,50.968c.331,6.506.6,11.777.786,15.441.09,1.809.16,3.22.208,4.2.019.466.034.829.044,1.092.008.246,0,.373,0,.373s-.022-.125-.043-.37c-.02-.263-.048-.625-.084-1.09-.066-.978-.162-2.388-.285-4.2-.242-3.643-.554-8.917-.914-15.435-.724-13.037-1.571-31.057-2.44-50.965s-1.671-37.92-2.323-50.96c-.331-6.506-.6-11.777-.785-15.442-.09-1.809-.16-3.22-.209-4.2-.019-.466-.033-.829-.044-1.093C394.734,268.353,394.741,268.226,394.741,268.226Z" fill="#e0e0e0"/><path d="M382.372,303.846a3.451,3.451,0,0,1,.658.548c.406.369.977.921,1.676,1.61,1.4,1.382,3.271,3.341,5.3,5.542,1.986,2.172,3.781,4.136,5.169,5.656l1.574,1.706a3.446,3.446,0,0,1,.55.654,3.5,3.5,0,0,1-.662-.543c-.4-.371-.977-.923-1.669-1.62-1.381-1.4-3.231-3.379-5.259-5.579L384.5,306.2l-1.583-1.7A3.46,3.46,0,0,1,382.372,303.846Z" fill="#e0e0e0"/><path d="M398.348,319.213c-.08-.079,3.786-4.127,8.632-9.04s8.842-8.835,8.921-8.757-3.784,4.126-8.633,9.041S398.427,319.291,398.348,319.213Z" fill="#e0e0e0"/><path d="M398.3,349.84a3.747,3.747,0,0,1,.737-.468l2.067-1.161c1.745-.98,4.149-2.342,6.748-3.939s4.911-3.114,6.573-4.227l1.973-1.316a3.633,3.633,0,0,1,.751-.444,3.674,3.674,0,0,1-.659.572c-.441.347-1.088.837-1.9,1.423-1.624,1.175-3.913,2.739-6.525,4.337s-5.042,2.929-6.824,3.847c-.893.455-1.62.814-2.131,1.048A3.6,3.6,0,0,1,398.3,349.84Z" fill="#e0e0e0"/><path d="M380.8,339.122a3.1,3.1,0,0,1,.731.343c.457.244,1.112.608,1.916,1.065,1.609.914,3.818,2.2,6.244,3.644s4.613,2.77,6.184,3.747c.786.488,1.418.89,1.851,1.175a3.1,3.1,0,0,1,.65.479,3.132,3.132,0,0,1-.731-.344c-.457-.243-1.111-.607-1.916-1.064-1.609-.914-3.818-2.2-6.245-3.645s-4.612-2.769-6.183-3.746c-.786-.489-1.418-.89-1.851-1.176A3.12,3.12,0,0,1,380.8,339.122Z" fill="#e0e0e0"/><path d="M377.321,366.156a5.029,5.029,0,0,1,.93.45l2.46,1.356c2.068,1.161,4.911,2.789,8.039,4.609s5.949,3.488,7.98,4.712l2.395,1.468a5.062,5.062,0,0,1,.851.586,5.029,5.029,0,0,1-.93-.45l-2.46-1.357c-2.068-1.161-4.911-2.789-8.04-4.609s-5.947-3.487-7.979-4.711l-2.395-1.468A5.136,5.136,0,0,1,377.321,366.156Z" fill="#e0e0e0"/><path d="M399.523,378.869a5.8,5.8,0,0,1,.919-.615l2.569-1.564c2.168-1.322,5.156-3.156,8.4-5.272s6.137-4.1,8.22-5.551c.995-.69,1.824-1.267,2.47-1.716a5.854,5.854,0,0,1,.935-.592,5.847,5.847,0,0,1-.841.719c-.557.442-1.374,1.067-2.4,1.822-2.043,1.513-4.913,3.541-8.166,5.657s-6.268,3.919-8.476,5.179c-1.106.627-2.006,1.125-2.636,1.454A5.71,5.71,0,0,1,399.523,378.869Z" fill="#e0e0e0"/><path d="M415.407,397.109h-29.24l9.543,72.241h10.153Z" fill="#e0e0e0"/><path d="M387.685,405.99c-.011.007.032.1.156.257a1.872,1.872,0,0,0,.7.505,3.541,3.541,0,0,0,3.089-.38c1.18-.651,2.209-1.93,3.791-2.495a8.3,8.3,0,0,1,5.377.106,23.073,23.073,0,0,1,5.007,2.426,34.644,34.644,0,0,0,4.071,2.185,11.259,11.259,0,0,0,3,.868,5.572,5.572,0,0,0,.849.057c.194,0,.3-.008.3-.024a15.3,15.3,0,0,1-4.01-1.209,39.983,39.983,0,0,1-3.982-2.253,22.206,22.206,0,0,0-5.092-2.5,8.582,8.582,0,0,0-5.676-.062,7.449,7.449,0,0,0-2.136,1.321,16.759,16.759,0,0,1-1.673,1.3,3.436,3.436,0,0,1-2.848.494A2.925,2.925,0,0,1,387.685,405.99Z" fill="#f5f5f5"/><path d="M388.752,419.3c.039.024.231-.3.689-.775a6.484,6.484,0,0,1,2.335-1.481,10.437,10.437,0,0,1,4.066-.613,42.616,42.616,0,0,1,5.088.694,17.545,17.545,0,0,0,5.21.216,14.343,14.343,0,0,0,4.1-1.171A13.054,13.054,0,0,0,412.7,414.7a3.47,3.47,0,0,0,.781-.7,26.069,26.069,0,0,1-3.381,1.859,14.992,14.992,0,0,1-4.017,1.043,17.91,17.91,0,0,1-5.081-.251,38.328,38.328,0,0,0-5.151-.661,10.3,10.3,0,0,0-4.205.739,6.133,6.133,0,0,0-2.347,1.669,4.162,4.162,0,0,0-.442.648C388.775,419.2,388.738,419.287,388.752,419.3Z" fill="#f5f5f5"/><path d="M412.1,426.418a2.454,2.454,0,0,0-.806-.419,8.631,8.631,0,0,0-2.423-.519,15.476,15.476,0,0,0-3.663.209c-1.364.221-2.826.6-4.361.924a18.434,18.434,0,0,1-4.354.492,9.5,9.5,0,0,1-3.457-.748,7.961,7.961,0,0,1-2.622-1.952,2.232,2.232,0,0,0,.494.763,6.18,6.18,0,0,0,1.986,1.495,9.3,9.3,0,0,0,3.579.881,17.6,17.6,0,0,0,4.472-.464c1.552-.33,3-.717,4.337-.957a16.738,16.738,0,0,1,3.57-.306A13.449,13.449,0,0,1,412.1,426.418Z" fill="#f5f5f5"/><path d="M391.335,436.437a4.743,4.743,0,0,1,2.839-.286,13.668,13.668,0,0,1,2.97,1.107A11.293,11.293,0,0,0,401,438.321a11.576,11.576,0,0,0,6.995-1.621,9.953,9.953,0,0,0,1.74-1.339c.356-.379.539-.6.515-.619a25.558,25.558,0,0,1-2.425,1.666,11.98,11.98,0,0,1-6.783,1.437c-2.768-.157-4.893-1.809-6.812-2.027a4.351,4.351,0,0,0-2.206.191A1.451,1.451,0,0,0,391.335,436.437Z" fill="#f5f5f5"/><path d="M392.964,450.3a5.607,5.607,0,0,0,2.438-.484c1.47-.491,3.289-1.618,5.414-2.463a8.8,8.8,0,0,1,3.107-.65,5.716,5.716,0,0,1,2.5.57,5.54,5.54,0,0,1,1.806,1.558,1.33,1.33,0,0,0-.277-.616,4.01,4.01,0,0,0-1.37-1.24,5.731,5.731,0,0,0-2.651-.712,8.718,8.718,0,0,0-3.283.645c-2.2.877-3.963,2.037-5.367,2.594C393.892,450.1,392.953,450.227,392.964,450.3Z" fill="#f5f5f5"/><path d="M394.4,456.754a6.8,6.8,0,0,0,1.851.6,34.04,34.04,0,0,0,9.32.916,6.793,6.793,0,0,0,1.933-.229c-.008-.144-2.963-.018-6.578-.382C397.308,457.314,394.433,456.614,394.4,456.754Z" fill="#f5f5f5"/><rect width="88.155" height="129.42" transform="matrix(0.973, -0.231, 0.231, 0.973, 72.973, 154.322)" fill="#e0e0e0"/><rect width="88.155" height="129.42" transform="matrix(0.973, -0.231, 0.231, 0.973, 66.288, 150.614)" fill="#ebebeb"/><rect width="88.155" height="126.948" transform="matrix(0.973, -0.231, 0.231, 0.973, 59.41, 149.493)" fill="#f5f5f5"/><path d="M144.1,259.849s20.044-13.628,24.919-29.485a23.532,23.532,0,0,1-16.74,7.85S150.15,255.171,144.1,259.849Z" fill="#ebebeb"/><path d="M76.462,178.173l68.106-16.186" fill="none" stroke="#e0e0e0" stroke-miterlimit="10" stroke-width="1"/><path d="M78.591,187.134,146.7,170.948" fill="none" stroke="#e0e0e0" stroke-miterlimit="10" stroke-width="1"/><path d="M80.721,196.1l68.107-16.186" fill="none" stroke="#e0e0e0" stroke-miterlimit="10" stroke-width="1"/><path d="M82.85,205.056l68.107-16.185" fill="none" stroke="#e0e0e0" stroke-miterlimit="10" stroke-width="1"/><path d="M84.98,214.017l68.107-16.185" fill="none" stroke="#e0e0e0" stroke-miterlimit="10" stroke-width="1"/><path d="M87.11,222.979l68.106-16.186" fill="none" stroke="#e0e0e0" stroke-miterlimit="10" stroke-width="1"/><path d="M89.239,231.94l68.107-16.186" fill="none" stroke="#e0e0e0" stroke-miterlimit="10" stroke-width="1"/><path d="M91.369,240.9l68.107-16.186" fill="none" stroke="#e0e0e0" stroke-miterlimit="10" stroke-width="1"/><path d="M21.235,469.256H475.263" fill="none" stroke="#263238" stroke-miterlimit="10" stroke-width="0.05"/><path d="M216.413,434.307l-2.335,25.7L206.369,479.8a2.644,2.644,0,0,0,1.674,3.482h0a2.629,2.629,0,0,0,2.385-.414c4.341-3.307,20.247-15.549,20.312-17.44.076-2.189,4.264-26.944,4.264-26.944Z" fill="#e8505b"/><g opacity="0.6"><path d="M208.043,483.282l22.9-19.584-.124,1.086a3.974,3.974,0,0,1-1.23,2.457c-1.846,1.728-7.048,6.387-19.078,15.636a2.643,2.643,0,0,1-2.463.4Z" fill="#fff"/></g><g opacity="0.6"><path d="M226.619,454.828a1.6,1.6,0,0,0-.672,2.026,1.539,1.539,0,0,0,2,.683,1.687,1.687,0,0,0,.7-2.149,1.6,1.6,0,0,0-2.162-.48" fill="#fff"/></g><path d="M215.181,472.748c-.153.054-.579-1.354-2.021-2.251a8.062,8.062,0,0,0-2.888-.9c-.015-.065.333-.227.942-.244a4.22,4.22,0,0,1,3.8,2.438C215.25,472.351,215.247,472.734,215.181,472.748Z" fill="#263238"/><path d="M212.963,475.973c-.135.1-.862-.83-2.145-1.361a21.359,21.359,0,0,0-2.467-.608,2.927,2.927,0,0,1,2.689.087C212.5,474.7,213.1,475.919,212.963,475.973Z" fill="#263238"/><path d="M219.082,468.735a26.491,26.491,0,0,0-3.169-2.325,26.623,26.623,0,0,0-3.7-1.32,7.232,7.232,0,0,1,6.871,3.645Z" fill="#263238"/><path d="M220.445,460.982c-.087.146-1.435-.608-3.271-.884-1.832-.3-3.347,0-3.384-.166a6.563,6.563,0,0,1,6.655,1.05Z" fill="#263238"/><path d="M221.321,453.456a8.4,8.4,0,0,0-6.877-.545c-.036-.058.281-.348.911-.622a5.758,5.758,0,0,1,5.164.409C221.1,453.067,221.366,453.4,221.321,453.456Z" fill="#263238"/><path d="M218.15,451.017a2.208,2.208,0,0,1,.075-.973,6.775,6.775,0,0,1,1.061-2.452,3,3,0,0,1,1.443-1.281,1.064,1.064,0,0,1,1.164.371,1.732,1.732,0,0,1,.273,1.2,3.737,3.737,0,0,1-3.646,3.064,4.333,4.333,0,0,1-3.973-2.735,1.5,1.5,0,0,1,.071-1.251,1.043,1.043,0,0,1,1.146-.425,3.694,3.694,0,0,1,1.589,1.071,7.568,7.568,0,0,1,1.523,2.191,2.309,2.309,0,0,1,.293.931,12.068,12.068,0,0,0-2.094-2.833,3.449,3.449,0,0,0-1.408-.9.555.555,0,0,0-.626.228,1.034,1.034,0,0,0,0,.825,3.868,3.868,0,0,0,3.472,2.331,3.244,3.244,0,0,0,3.132-2.556,1.254,1.254,0,0,0-.155-.849.575.575,0,0,0-.639-.213,2.713,2.713,0,0,0-1.242,1.061A10.032,10.032,0,0,0,218.15,451.017Z" fill="#263238"/><path d="M316.782,184.735c.021.024,0,.142-.051.332-.436,1.577-3.13,8.146-4.047,8.111-1.028-.038-3.083-1.442-2.9-2.374s3.639-8.16,3.639-8.16.619-1.109,2.7-.619C316.434,182.1,316.717,184.982,316.782,184.735Z" fill="#eb996e"/><path d="M313.362,180.807c.02.025,0,.142-.052.333-.435,1.577-3.129,8.145-4.047,8.111-1.028-.039-3.082-1.443-2.9-2.375s3.639-8.159,3.639-8.159.619-1.109,2.7-.619C313.993,178.4,313.362,180.807,313.362,180.807Z" fill="#eb996e"/><path d="M310.342,178.091c.021.024,0,.142-.051.332-.435,1.577-3.13,8.146-4.047,8.111-1.028-.039-3.083-1.442-2.9-2.374s3.639-8.16,3.639-8.16c-.13.232-.3-1.324,2.7-.619C310.973,175.684,310.342,178.091,310.342,178.091Z" fill="#eb996e"/><path d="M306.532,175.467c.021.024,0,.141-.051.332-.435,1.577-3.13,8.146-4.047,8.111-1.028-.039-3.083-1.443-2.9-2.375s3.639-8.159,3.639-8.159.619-1.109,2.7-.619C307.164,173.059,306.532,175.467,306.532,175.467Z" fill="#eb996e"/><path d="M310.517,188.86a13.968,13.968,0,0,0,1.574-3.094,13.284,13.284,0,0,0,1.148-3.222,13.909,13.909,0,0,0-1.574,3.094A13.251,13.251,0,0,0,310.517,188.86Z" fill="#d1734a"/><path d="M306.613,187.35a27.345,27.345,0,0,0,2.168-4.427,27.259,27.259,0,0,0,1.757-4.605,27.392,27.392,0,0,0-2.167,4.427A27.353,27.353,0,0,0,306.613,187.35Z" fill="#d1734a"/><g opacity="0.78"><path d="M302.784,185.467a27.243,27.243,0,0,0,2.168-4.427,27.353,27.353,0,0,0,1.758-4.6,27.25,27.25,0,0,0-2.168,4.427A27.357,27.357,0,0,0,302.784,185.467Z" fill="#d1734a"/></g><path d="M311.882,198c.155-.392,2.781-8.165,2.781-8.165l-14.974-7.394c-.76,1.009-3.071,11.914-3.071,11.914l.528,3.715s11.384,6.545,11.691,6.6S311.882,198,311.882,198Z" fill="#eb996e"/><path d="M300.164,194.642l-1.533-5.666a9.947,9.947,0,0,1,.874-7.369l.94-1.72,12.731,5.8s-2.95,4.185-6.185,1.92l2.49,4.839Z" fill="#eb996e"/><path d="M308.38,192.93c-.075-.006.035-.664-.184-1.769a6.36,6.36,0,0,0-2.4-3.828l-1.18-.876,1.419.4,3.277.918-.068-.012a3.8,3.8,0,0,0,3.693-1.711,2.377,2.377,0,0,0,.137-.3l.188.4c-3.669-1.487-6.964-2.881-9.282-4.024-1.161-.566-2.084-1.054-2.711-1.41a3.7,3.7,0,0,1-.94-.615,37.358,37.358,0,0,1,3.841,1.611c2.357,1.031,5.664,2.35,9.338,3.834l.286.115-.1.284a2.738,2.738,0,0,1-.188.416,3.812,3.812,0,0,1-1.945,1.686,5.385,5.385,0,0,1-2.356.33l-.036,0-.033-.01-3.256-.99.239-.478a6.4,6.4,0,0,1,2.385,4.212A3.461,3.461,0,0,1,308.38,192.93Z" fill="#d1734a"/><path d="M311.442,187.28c.126.009-.089.7.105,1.621a1.207,1.207,0,0,0,.994.967,1.805,1.805,0,0,0,1.494-1.025c.777-1.35,1.567-2.583,2.035-3.48s.718-1.507.812-1.478a3.422,3.422,0,0,1-.393,1.67,29.956,29.956,0,0,1-1.9,3.642,2.33,2.33,0,0,1-2.094,1.27A1.671,1.671,0,0,1,311.1,189a2.857,2.857,0,0,1,.129-1.3C311.318,187.416,311.4,187.271,311.442,187.28Z" fill="#d1734a"/><path d="M259.486,120.775,255.1,165.82A6.6,6.6,0,0,1,248,171.757l-10.33-.825a6.6,6.6,0,0,1-6.06-6.982c.326-5.4.843-12.028.843-12.028s-9.611-1.494-9.73-11.1c-.056-4.593.589-14.01,1.279-22.59a18.2,18.2,0,0,1,18.15-16.736h.648A17.785,17.785,0,0,1,259.486,120.775Z" fill="#eb996e"/><path d="M232.441,151.784a22.347,22.347,0,0,0,12.529-3.561s-2.962,6.916-12.551,6.051Z" fill="#d1734a"/><path d="M226.093,125.332c.17.179,1.21-.59,2.687-.586,1.475-.017,2.559.742,2.719.561.079-.08-.095-.4-.566-.746a3.76,3.76,0,0,0-2.177-.671,3.615,3.615,0,0,0-2.139.69C226.163,124.928,226.009,125.252,226.093,125.332Z" fill="#263238"/><path d="M240.559,125.332c.17.179,1.211-.59,2.687-.586,1.475-.017,2.559.742,2.719.561.079-.08-.093-.4-.567-.746a3.754,3.754,0,0,0-2.176-.671,3.615,3.615,0,0,0-2.139.69C240.63,124.928,240.476,125.252,240.559,125.332Z" fill="#263238"/><path d="M235.25,133.888a9.75,9.75,0,0,0-2.4-.433c-.377-.039-.734-.114-.8-.371a1.923,1.923,0,0,1,.251-1.118l1.116-2.872c1.548-4.088,2.669-7.45,2.5-7.511s-1.554,3.2-3.1,7.292q-.56,1.512-1.068,2.889a2.183,2.183,0,0,0-.2,1.48.945.945,0,0,0,.62.551,2.541,2.541,0,0,0,.64.089A9.608,9.608,0,0,0,235.25,133.888Z" fill="#263238"/><path d="M239.6,134.909c-.24-.014-.243,1.589-1.615,2.727s-3.079.961-3.091,1.185c-.023.1.38.312,1.1.331a3.989,3.989,0,0,0,2.581-.9,3.474,3.474,0,0,0,1.251-2.286C239.884,135.3,239.706,134.9,239.6,134.909Z" fill="#263238"/><path d="M240.228,117.148c.146.4,1.62.212,3.353.42,1.737.174,3.134.682,3.364.322.1-.173-.141-.551-.707-.939a5.872,5.872,0,0,0-5.116-.565C240.486,116.642,240.165,116.958,240.228,117.148Z" fill="#263238"/><path d="M226.636,118.386c.26.336,1.277-.013,2.5-.029,1.222-.059,2.259.225,2.5-.126.1-.17-.058-.506-.511-.823a3.62,3.62,0,0,0-4.027.124C226.663,117.877,226.521,118.222,226.636,118.386Z" fill="#263238"/><path d="M249.053,110.237l.052.042a7.558,7.558,0,0,1,2.81,4.888c.01.068.019.133.027.194.376,2.741.308,5.53.71,8.267a12.426,12.426,0,0,0,3.375,7.408c.832.776,2.3,1.31,2.989.4a2.347,2.347,0,0,0,.343-1.256c.512-6.619,2.319-12.49,2.307-19.411a5.833,5.833,0,0,0-2.421-4.749c-1.449-1.038-3.218-2.115-4.828-1.353s-3.7,3.777-4.945,5.055" fill="#263238"/><path d="M256.247,125.123c.163-.071,6.6-1.953,6.393,4.617s-6.763,5-6.768,4.816S256.247,125.123,256.247,125.123Z" fill="#eb996e"/><path d="M257.958,132.131c.03-.021.112.083.3.178a1.147,1.147,0,0,0,.855.045,2.833,2.833,0,0,0,1.391-2.5,3.777,3.777,0,0,0-.268-1.649,1.323,1.323,0,0,0-.833-.906.583.583,0,0,0-.685.292c-.094.181-.057.314-.092.324-.019.016-.137-.115-.076-.384a.734.734,0,0,1,.272-.4.866.866,0,0,1,.638-.147,1.609,1.609,0,0,1,1.163,1.057,3.892,3.892,0,0,1,.339,1.844,2.974,2.974,0,0,1-1.761,2.784,1.227,1.227,0,0,1-1.041-.207C257.965,132.29,257.935,132.142,257.958,132.131Z" fill="#d1734a"/><path d="M254.639,105.685c1.617-2.628-2.815-6.4-6.057-7.425s-7.514.558-10.741,1.629c-2.036.675-4.065,1.617-6.209,1.529a14.5,14.5,0,0,1-4.164-1.062,10.653,10.653,0,0,0-4.2-.83,3.966,3.966,0,0,0-3.458,2.193,2.483,2.483,0,0,0,1.661,3.354,3.226,3.226,0,1,0-.861,5.979c-.934-.708-2.366.461-2.251,1.628a3.4,3.4,0,0,0,2.246,2.487c2.74,1.2,5.935.819,8.771-.135s5.465-2.442,8.277-3.467,7.52-2.863,10.342-1.868c2.078.732,3.523,3.235,4.7,2.683a4.018,4.018,0,0,0,2.079-2.955,11.617,11.617,0,0,0-.129-3.74" fill="#263238"/><path d="M220.675,104.892c.054-.033.338.486,1.044,1.253a9.056,9.056,0,0,0,3.65,2.349,8.324,8.324,0,0,0,6.266-.253c2.235-1,4.146-3,6.347-4.891a13.626,13.626,0,0,1,7.385-3.547,7.573,7.573,0,0,1,6.282,2.175,5.733,5.733,0,0,1,1.491,4.247,4.487,4.487,0,0,1-.283,1.208c-.119.258-.193.385-.213.376a10.6,10.6,0,0,0,.243-1.6,5.649,5.649,0,0,0-1.573-3.92,7.178,7.178,0,0,0-5.889-1.894,13.3,13.3,0,0,0-7.023,3.447c-2.16,1.846-4.131,3.9-6.522,4.942a8.936,8.936,0,0,1-10.352-2.476,6.163,6.163,0,0,1-.685-1.024C220.713,105.037,220.655,104.9,220.675,104.892Z" fill="#455a64"/><path d="M257.919,124.837c-.024.022-.283-.181-.531-.7a4.419,4.419,0,0,1-.328-2.382c.146-2.117,2.018-4.388,2.256-7.313a6.613,6.613,0,0,0-.727-3.922,5.019,5.019,0,0,0-2.442-2.109,4.27,4.27,0,0,0-2.193-.3c-.528.084-.812.207-.836.155-.016-.027.232-.233.783-.4a4.081,4.081,0,0,1,2.4.115,5.3,5.3,0,0,1,2.8,2.235,6.969,6.969,0,0,1,.858,4.287,11.934,11.934,0,0,1-1.267,4.141,12.487,12.487,0,0,0-1.18,3.174A5.077,5.077,0,0,0,257.919,124.837Z" fill="#455a64"/><path d="M214.872,265.962" fill="none"/><path d="M201.3,77.756c-.352-.286-1.593-11.036-1.593-11.036l8.972-5.281,14.045,3.235-2.815,7.841-14.377,7.533Z" fill="#eb996e"/><path d="M173.463,86.232s22.619-11.761,37.124-13.305C226.7,71.212,242.94,80.8,242.94,80.8l-3.209-42.5S224.584,27,205.312,31.807C188.973,35.885,172.617,43.8,172.617,43.8Z" fill="#fafafa" stroke="#263238" stroke-miterlimit="10" stroke-width="0.05"/><line x2="2.154" y2="32.093" transform="translate(228.901 36.995)" fill="none" stroke="#e0e0e0" stroke-miterlimit="10" stroke-width="0.05"/><line x2="2.154" y2="32.093" transform="translate(223.228 34.766)" fill="none" stroke="#e0e0e0" stroke-miterlimit="10" stroke-width="0.05"/><line x2="2.154" y2="32.093" transform="translate(217.755 33.985)" fill="none" stroke="#e0e0e0" stroke-miterlimit="10" stroke-width="0.05"/><line x2="2.154" y2="32.093" transform="translate(206.525 35.557)" fill="none" stroke="#e0e0e0" stroke-miterlimit="10" stroke-width="0.05"/><line x2="2.154" y2="32.093" transform="translate(201.3 37.001)" fill="none" stroke="#e0e0e0" stroke-miterlimit="10" stroke-width="0.05"/><line x2="2.154" y2="32.093" transform="translate(195.733 38.415)" fill="none" stroke="#e0e0e0" stroke-miterlimit="10" stroke-width="0.05"/><line x2="2.154" y2="32.093" transform="translate(185.142 42.79)" fill="none" stroke="#e0e0e0" stroke-miterlimit="10" stroke-width="0.05"/><line x2="2.154" y2="32.093" transform="translate(190.204 40.422)" fill="none" stroke="#e0e0e0" stroke-miterlimit="10" stroke-width="0.05"/><line x2="2.154" y2="32.093" transform="translate(179.24 44.686)" fill="none" stroke="#e0e0e0" stroke-miterlimit="10" stroke-width="0.05"/><line x2="2.154" y2="32.093" transform="translate(211.985 34.148)" fill="none" stroke="#e0e0e0" stroke-miterlimit="10" stroke-width="0.05"/><path d="M219.3,55.942a55.25,55.25,0,0,1,15.517,7.067l-13.149,3.575" fill="none" stroke="#e8505b" stroke-linecap="round" stroke-linejoin="round" stroke-width="1"/><path d="M226.136,54.767c.309,3.122.747,7.553,1.056,10.675" fill="none" stroke="#e8505b" stroke-linecap="round" stroke-linejoin="round" stroke-width="1"/><path d="M236.7,67.168a12.31,12.31,0,0,0-4.027-9.869,14.812,14.812,0,0,0-11.088-3.875,6.369,6.369,0,0,0-4.123,1.585c-1.461,1.487-1.544,3.883-.949,5.881a11.44,11.44,0,0,0,5.692,7.05c2.763,1.3,5.9,2.171,9.23,1.019,0,0,4.786-1.686,3.671-5.409" fill="none" stroke="#e8505b" stroke-miterlimit="10" stroke-width="1"/><path d="M212.387,81.811l4.514-3.647a9.832,9.832,0,0,0,3.573-6.4l.245-1.922L207.165,67.1S205.9,71.2,211,72.22c-4.519,1.954-6.208,6.052-7.448,10.49Z" fill="#eb996e"/><path d="M206.8,75.676c.064.038.358-.552,1.174-1.309A6.284,6.284,0,0,1,212.12,72.7l1.452-.017-1.366-.5-3.156-1.166.062.03a3.757,3.757,0,0,1-1.964-3.511,2.288,2.288,0,0,1,.063-.318l-.382.21c3.8.938,7.245,1.733,9.763,2.162,1.258.22,2.279.365,2.988.444a3.658,3.658,0,0,0,1.109.053,36.561,36.561,0,0,0-4.009-.938c-2.484-.541-5.9-1.4-9.7-2.347l-.295-.073L206.6,67a2.753,2.753,0,0,0-.092.441,3.772,3.772,0,0,0,.58,2.478,5.313,5.313,0,0,0,1.7,1.63l.03.019.032.011,3.18,1.1.086-.522a6.324,6.324,0,0,0-4.352,1.989A3.429,3.429,0,0,0,206.8,75.676Z" fill="#d1734a"/><path d="M238.782,443.811,258.231,289.8,254.5,266.458H215.429l-4.663,174.509a2.825,2.825,0,0,0,2.283,2.848l21.361,3.293A3.819,3.819,0,0,0,238.782,443.811Z" fill="#263238"/><path d="M257.674,294.969l35.372,35.008-50.9,12.378,3.623,25.679,68.892-9.376a21.683,21.683,0,0,0,14.663-8.8h0a21.682,21.682,0,0,0,.331-24.885l-53.668-78.783L252.012,254Z" fill="#263238"/><path d="M257.409,292.258" fill="none" stroke="#263238" stroke-miterlimit="10" stroke-width="1"/><path d="M257.674,294.969c-.543-2.4-1.411-6.513-1.954-8.911" fill="none" stroke="#455a64" stroke-miterlimit="10" stroke-width="0.05"/><path d="M235.6,440.908C238.849,428.631,255.55,286.2,255.55,286.2l42.423,45.257L250.566,345.59" fill="none" stroke="#455a64" stroke-miterlimit="10" stroke-width="0.05"/><path d="M257.674,294.969c-1.547,12.949-17.011,132.99-18.558,145.939" fill="none" stroke="#455a64" stroke-miterlimit="10" stroke-width="0.05"/><path d="M255.587,286.543a165.992,165.992,0,0,0-3.659-16.781" fill="none" stroke="#455a64" stroke-miterlimit="10" stroke-width="0.05"/><path d="M254.471,266.95a1.474,1.474,0,0,0-.779,1.986,1.542,1.542,0,0,0,2.079.58,1.616,1.616,0,0,0,.536-2.115,1.7,1.7,0,0,0-2.1-.657" fill="none" stroke="#455a64" stroke-miterlimit="10" stroke-width="0.05"/><path d="M293.115,329.959a26.786,26.786,0,0,1,10.349,6.012" fill="none" stroke="#455a64" stroke-miterlimit="10" stroke-width="0.05"/><path d="M214.872,265.962l-3.443-61.212s-5.13-22.053-9.56-30.908L225.258,156.7l6.065,2.9,11.956,10.912,12.146-7.086s14.538,6.121,18.364,8.416,4.59,8.417,4.59,8.417-12.612,22.226-12.994,30.948,12.6,31.034,12.6,31.034,7.111,2.111,7.51,7.83c.347,4.955-1.946,6.725-1.946,6.725s-.965-5.378-8.234-3.082S252.977,269.4,242.15,269.788,214.872,265.962,214.872,265.962Z" fill="#e8505b"/><path d="M277.784,177.7l9.2,37.8,10.488-25.025,14.854,9s-14.012,49.8-27.879,44.9c0,0-8.641-4.363-9.7-7.47s-17.074-25.681-17.074-25.681Z" fill="#e8505b"/><path d="M269,193.179c-3.495,17.679-.994,34.064,8.99,49.068" fill="none" stroke="#263238" stroke-miterlimit="10" stroke-width="0.05"/><path d="M197.86,74.715s-23.4,39.314-25,45.116c-1.673,6.038,30.81,57.386,30.81,57.386s.638,1.649.646,1.643l23.216-18.55-27.367-38.733L214.872,82.9Z" fill="#e8505b"/><path d="M187.511,119.749a10.972,10.972,0,0,1,13.594,3.4" fill="none" stroke="#263238" stroke-miterlimit="10" stroke-width="0.05"/><path d="M199.776,160.634A21.9,21.9,0,0,1,211.743,180.4" fill="none" stroke="#263238" stroke-miterlimit="10" stroke-width="0.05"/><path d="M228.569,257.225c5.917,2.184,12.586,3,18.512.842,5.078-1.849,9.138-5.665,13.434-8.943s9.378-6.2,14.762-5.732" fill="none" stroke="#263238" stroke-miterlimit="10" stroke-width="0.05"/><path d="M286.986,215.5a34.014,34.014,0,0,0-.927,17.347" fill="none" stroke="#263238" stroke-miterlimit="10" stroke-width="0.05"/><path d="M229.556,257.041c.087-2.5,3.066-3.929,5.564-3.777s4.868,1.278,7.37,1.369c4.242.156,7.968-2.624,11.241-5.327s6.838-5.608,11.079-5.779c.535-.022,1.2.1,1.355.609.139.468-.261.909-.626,1.235-5.215,4.662-10.556,9.406-16.993,12.144s-14.284,3.16-20.136-.673" opacity="0.3"/><path d="M268.544,196.35a48.225,48.225,0,0,0,11.129,33.7c1.309,1.553,2.753,3.082,3.4,5.008s.2,4.4-1.572,5.387a4.352,4.352,0,0,1-4.732-.764,11.7,11.7,0,0,1-2.822-4.192c-5.9-12.618-8.814-27.185-5.024-40.586" opacity="0.3"/><path d="M153.2,398.42c.969-3.358,3.044-6.6,6.254-7.987,3.338-1.439,7.205-.619,10.622.622s6.771,2.9,10.4,3.126,7.724-1.5,8.81-4.966c1.022-3.261-.945-6.739-3.407-9.109a21.5,21.5,0,0,0-35.226,8.457" fill="#e8505b"/><g opacity="0.5"><path d="M153.2,398.42c.969-3.358,3.044-6.6,6.254-7.987,3.338-1.439,7.205-.619,10.622.622s6.771,2.9,10.4,3.126,7.724-1.5,8.81-4.966c1.022-3.261-.945-6.739-3.407-9.109a21.5,21.5,0,0,0-35.226,8.457"/></g><path d="M124.457,412.995c-5.323-5.057-5.057-13.86-2.4-20.706s8.451-12.1,14.924-15.565a47.259,47.259,0,0,1,41.192-1.335,19.55,19.55,0,0,0-15.807,9.282c-2.918,4.845-3.566,10.724-5.976,15.841a24.937,24.937,0,0,1-31.931,12.483" fill="#e8505b"/><path d="M121.9,382.613c-5.893-6.957-6.678-18.125-5.81-27.2s2.972-18.211,1.54-27.216c-.848-5.334-2.918-10.428-3.617-15.784s.292-11.413,4.442-14.87c4.77-3.974,12.282-3.037,17.244.7s7.837,9.592,9.938,15.434c4.615,12.835,6.31,27.068,2.518,40.17s-12.689,24.816-25.743,28.771" fill="#e8505b"/><path d="M119.07,439.692a4.934,4.934,0,0,1-.023-.8c.008-.525,0-1.3.044-2.3.075-2,.268-4.882.714-8.426a112.477,112.477,0,0,1,2.265-12.338,56.915,56.915,0,0,1,5.63-14.286,59.573,59.573,0,0,1,9.2-12.3,58.637,58.637,0,0,1,9.646-8.022c1.472-1.018,2.9-1.79,4.122-2.506,1.257-.66,2.354-1.2,3.253-1.636l2.121-.891a4.775,4.775,0,0,1,.751-.28,4.931,4.931,0,0,1-.713.37L154,377.25c-.883.459-1.964,1.023-3.2,1.7-1.207.735-2.611,1.524-4.062,2.555a60.614,60.614,0,0,0-18.614,20.274c-5.419,9.478-6.9,19.445-7.979,26.431-.489,3.527-.733,6.4-.866,8.39q-.085,1.44-.135,2.291A5.164,5.164,0,0,1,119.07,439.692Z" fill="#263238"/><path d="M68.235,355.168c-10.9,6.58-10.87,12.568-9.049,18.22s8.514,9.579,14.062,7.463c3.137-1.2,5.409-3.923,7.349-6.662s3.764-5.671,6.483-7.639,6.662-2.72,9.395-.77" fill="#e8505b"/><g opacity="0.5"><path d="M68.235,355.168c-10.9,6.58-10.87,12.568-9.049,18.22s8.514,9.579,14.062,7.463c3.137-1.2,5.409-3.923,7.349-6.662s3.764-5.671,6.483-7.639,6.662-2.72,9.395-.77"/></g><path d="M60.072,362.382c2.851-3.939,9.9-5.08,14.342-3.114s7.706,5.864,10.622,9.755,5.755,8,9.794,10.709,9.682,3.688,13.708.96a11.777,11.777,0,0,0,4.656-8.063,26.839,26.839,0,0,0-.64-9.507c-.962-4.573-2.533-9.349-6.193-12.255-4.079-3.238-9.738-3.391-14.943-3.221-5.973.2-12.035.643-17.64,2.713S62.452,356.9,60.072,362.382" fill="#e8505b"/><path d="M110.007,430.96a.889.889,0,0,1-.03-.24c-.009-.187-.021-.418-.036-.7-.023-.658-.055-1.562-.094-2.707-.069-2.391-.166-5.781-.286-9.953-.132-4.2-.3-9.2-.607-14.751s-.722-11.645-1.563-17.992a57.964,57.964,0,0,0-1.807-9.138,47.356,47.356,0,0,0-3.342-8,46.165,46.165,0,0,0-4.215-6.618,43.083,43.083,0,0,0-4.6-5.054,33.856,33.856,0,0,0-8.161-5.564c-.533-.243-1-.483-1.415-.652l-1.065-.414-.652-.264a.836.836,0,0,1-.218-.106.877.877,0,0,1,.233.059l.67.219,1.086.371c.426.156.9.383,1.441.615a32.657,32.657,0,0,1,8.313,5.481,42.572,42.572,0,0,1,4.691,5.062,45.906,45.906,0,0,1,4.294,6.654,47.318,47.318,0,0,1,3.4,8.064,57.733,57.733,0,0,1,1.834,9.214c.845,6.373,1.242,12.481,1.529,18.035s.414,10.561.5,14.765.119,7.607.13,9.959c0,1.145,0,2.05,0,2.708-.005.286-.009.517-.012.7A.922.922,0,0,1,110.007,430.96Z" fill="#263238"/><path d="M113.93,435.887a31.287,31.287,0,0,1-1.194-4.683,49.169,49.169,0,0,1-.5-13.156,87.414,87.414,0,0,1,4.156-19.087c2.237-7.015,5.275-14.518,7.871-22.582a103.769,103.769,0,0,0,3.131-11.947,106.419,106.419,0,0,0,1.546-11.4,166.89,166.89,0,0,0,.348-19.494c-.189-5.553-.484-10.043-.668-13.147-.09-1.528-.161-2.726-.211-3.574-.018-.388-.032-.695-.043-.93a1.492,1.492,0,0,1,0-.319,1.662,1.662,0,0,1,.048.315c.023.234.053.541.091.927.072.846.173,2.043.3,3.568.243,3.1.591,7.588.823,13.147a160.859,160.859,0,0,1-.244,19.544,105.139,105.139,0,0,1-1.525,11.454,102.949,102.949,0,0,1-3.136,12.005c-2.6,8.09-5.653,15.583-7.908,22.571a88.788,88.788,0,0,0-4.239,18.981,50.794,50.794,0,0,0,.343,13.092c.268,1.527.513,2.709.728,3.5.092.377.165.676.22.9A1.472,1.472,0,0,1,113.93,435.887Z" fill="#263238"/><path d="M140.964,440.814h-51.2L88.6,430.96h52.368Z" fill="#455a64"/><path d="M95.258,439.692l6.4,29.564h27.821l5.989-29.564Z" fill="#455a64"/><path d="M140.963,440.814c0,.135-11.257.213-25.139.174s-25.141-.18-25.141-.315,11.255-.212,25.142-.173S140.964,440.68,140.963,440.814Z" fill="#455a64"/><path d="M132.176,455.406a21.1,21.1,0,0,0-4.509-2.584,15.947,15.947,0,0,0-5.483-1.1,19.279,19.279,0,0,0-6.741,1.237c-2.334.789-4.513,1.708-6.636,2.213a15.789,15.789,0,0,1-5.734.173,11.813,11.813,0,0,1-3.686-1.167,7.126,7.126,0,0,1-.889-.565c-.192-.144-.287-.227-.278-.24.027-.039.438.253,1.251.635a12.918,12.918,0,0,0,3.65,1,16.08,16.08,0,0,0,5.586-.27c2.05-.512,4.229-1.441,6.58-2.237a19.159,19.159,0,0,1,6.909-1.224,15.69,15.69,0,0,1,5.6,1.23,14.506,14.506,0,0,1,3.337,1.947,8.5,8.5,0,0,1,.795.686C132.1,455.3,132.187,455.394,132.176,455.406Z" fill="#263238"/><path d="M131.787,457.381a22.2,22.2,0,0,0-4.33-2.55,14.674,14.674,0,0,0-5.287-1.09,19.023,19.023,0,0,0-6.521,1.174c-2.256.753-4.372,1.628-6.394,2.172a16.432,16.432,0,0,1-5.511.619,9.337,9.337,0,0,1-3.613-.967,6.487,6.487,0,0,1-.861-.545c-.185-.14-.277-.22-.267-.234.027-.04.423.246,1.211.608a9.939,9.939,0,0,0,3.551.794,16.847,16.847,0,0,0,5.37-.708c1.979-.557,4.079-1.439,6.36-2.2a18.882,18.882,0,0,1,6.686-1.16,14.484,14.484,0,0,1,5.411,1.221,14.306,14.306,0,0,1,3.2,1.934,9.158,9.158,0,0,1,.763.669C131.717,457.278,131.8,457.368,131.787,457.381Z" fill="#fff"/><path d="M132.683,453.446a24.247,24.247,0,0,0-4.63-2.728,17.018,17.018,0,0,0-5.62-1.351,18.173,18.173,0,0,0-6.956,1.226,62.713,62.713,0,0,1-6.87,2.243,17.487,17.487,0,0,1-5.922.01,13.3,13.3,0,0,1-3.8-1.2,7.037,7.037,0,0,1-.924-.573c-.2-.149-.3-.233-.288-.246.027-.04.45.263,1.294.648a14.658,14.658,0,0,0,3.775,1.034,17.873,17.873,0,0,0,5.783-.11,69.744,69.744,0,0,0,6.8-2.264,18.122,18.122,0,0,1,7.139-1.213,16.7,16.7,0,0,1,5.732,1.484,16.5,16.5,0,0,1,3.415,2.057,9.331,9.331,0,0,1,.821.708C132.607,453.338,132.7,453.434,132.683,453.446Z" fill="#fff"/><path d="M141.416,440.857c0,.135-11.517.244-25.721.244s-25.724-.109-25.724-.244,11.515-.244,25.724-.244S141.416,440.722,141.416,440.857Z" fill="#263238"/><path d="M326.116,234.331A452.347,452.347,0,0,1,362.094,99.422c19.366,41.979,27.377,59.347,46.743,101.326" fill="none" stroke="#e8505b" stroke-linecap="round" stroke-linejoin="round" stroke-width="1"/><path d="M307.33,180.706,392.1,157.674" fill="none" stroke="#e8505b" stroke-linecap="round" stroke-linejoin="round" stroke-width="1"/><path d="M409.919,58.147c-36.556,6.945-63.311,21.791-84.683,51.808S295.718,177.684,303.322,211.4c2.84,12.6,8.3,25.267,19.286,32.366,15.219,9.829,37.047,6.3,54.446-2.314,25.489-12.617,48.659-35.161,57.139-61.03s12.653-54.164-1.76-80.541c0,0-20.987-37.835-53.417-21.738" fill="none" stroke="#e8505b" stroke-miterlimit="10" stroke-width="1"/><path d="M398.648,89.986c1.2,23.422,1.576,30.693,2.778,54.116" fill="none" stroke="#e8505b" stroke-miterlimit="10" stroke-width="1"/><path d="M381.037,123.543q18.555-5.769,36.613-13" fill="none" stroke="#e8505b" stroke-miterlimit="10" stroke-width="1"/></g></svg>