<svg xmlns="http://www.w3.org/2000/svg" xmlns:xlink="http://www.w3.org/1999/xlink" width="340.001" height="406.36" viewBox="0 0 340.001 406.36"><defs><clipPath id="a"><rect width="340" height="340" transform="translate(-0.001 0)" fill="none"/></clipPath></defs><g transform="translate(-725.98 -266.64)"><g transform="translate(693 266.64)"><g transform="translate(32.981)"><rect width="339.411" height="406" transform="translate(0.095 0.36)" fill="#cc4862"/><g opacity="0.5"><path d="M0,0V74.735L203.18,203.18,67.456,0Z" fill="#d65171"/><path d="M0,237.452V291.9l203.18-54.452L0,183Z" transform="translate(0 -34.272)" fill="#d65171"/><path d="M235.954,0H175l60.954,203.18L296.908,0Z" transform="translate(-65.954)" fill="#d65171"/><path d="M453.18,0H385.724L250,203.18,453.18,74.735Z" transform="translate(-113.18)" fill="#d65171"/><path d="M453.18,453.18V378.445L250,250,385.724,453.18Z" transform="translate(-113.18 -46.82)" fill="#d65171"/><path d="M453.18,237.452V183L250,237.452,453.18,291.9Z" transform="translate(-113.18 -34.272)" fill="#d65171"/><path d="M235.954,453.18h60.954L235.954,250,175,453.18Z" transform="translate(-65.954 -46.82)" fill="#d65171"/><path d="M0,453.18H67.456L203.18,250,0,378.445Z" transform="translate(0 -46.82)" fill="#d65171"/></g></g><g transform="translate(33)"><g transform="translate(-0.02 0.36)" clip-path="url(#a)"><g transform="translate(-86.534 -211.226)"><circle cx="181.516" cy="181.516" r="181.516" transform="translate(0 256.702) rotate(-45)" fill="#fff" opacity="0.1"/><circle cx="140.681" cy="140.681" r="140.681" transform="translate(57.748 256.702) rotate(-45)" fill="#fff" opacity="0.2"/></g></g></g></g><g transform="translate(726.857 615.962)"><ellipse cx="168.917" cy="9.289" rx="168.917" ry="9.289" transform="translate(0 20.647)" fill="#0c0c0c" opacity="0.1"/><g transform="translate(25.818)"><path d="M271.637,430.708V414.682H146.614v16.026H67.16v16.025H351.091V430.708Z" transform="translate(-63.381 -414.682)" fill="#0b0c0c" opacity="0.1"/><path d="M266.637,430.708V414.682H141.614v16.026H62.16v16.025H346.091V430.708Z" transform="translate(-62.16 -414.682)" fill="#9e2b46"/></g></g></g></svg>