<svg xmlns="http://www.w3.org/2000/svg" width="190.721" height="322.744" viewBox="0 0 190.721 322.744"><path d="M27.4,428.875c0,4.5,27.972,8.158,62.478,8.158s62.476-3.653,62.476-8.158-27.972-8.158-62.476-8.158S27.4,424.37,27.4,428.875Z" transform="translate(-27.401 -114.288)" fill="#8191a4"/><g transform="translate(16.372)"><g transform="translate(57.074 61.546)"><path d="M84.176,243.394s15.318,14.995,22.382,19.991c0,0,6.336-1.456,19.719-5.385a176.3,176.3,0,0,0,17.249-5.731,52.919,52.919,0,0,0-4.015,12.352s-24.923,12.951-34.943,13.269c0,0-13.7-8.238-23.984-19.077Z" transform="translate(-80.584 -243.394)" fill="#0052dd"/></g><g transform="translate(39.469 147.621)"><path d="M86.522,463.025H97.014l6.68-80.663-7.507-73.986-28.351-2.654,17,84.338C80.034,409.55,84.049,434.489,86.522,463.025Z" transform="translate(-67.836 -305.722)" fill="#011b2e"/><path d="M81.322,419.329a4.9,4.9,0,0,0-.632,2.705c0,1.824.18,8.113.18,8.113h30.707s.112-4.782-3.778-7.335-9.867-.052-15.579-4.064C92.218,418.749,90.687,420.147,81.322,419.329Z" transform="translate(-62.939 -262.659)" fill="#fff"/></g><g transform="translate(0 146.472)"><g transform="translate(0.7)"><path d="M39.763,462.733c2.03-21.864,11.56-65.863,17.64-75.352l.059-82.491,27.707,6.567-8.28,76.1-26.5,74.571C47.225,463.9,43.554,463.563,39.763,462.733Z" transform="translate(-39.763 -304.89)" fill="#133248"/></g><path d="M39.956,419.353a4.818,4.818,0,0,0-.7,2.754v8.042H69.935s.113-4.782-3.777-7.335-9.867-.052-15.58-4.064C50.577,418.749,49.323,420.17,39.956,419.353Z" transform="translate(-39.256 -261.51)" fill="#fff"/></g><g transform="translate(10.729 57.644)"><path d="M107.4,335.829c-1.352,2.277-5.969,4.016-9.939,4.981-.273.068-.543.13-.808.189-.693.155-1.352.282-1.964.384a118.078,118.078,0,0,1-19.667,1.558,31.61,31.61,0,0,1-3.847-.257c-.268-.033-.539-.07-.809-.108-6.861-1.009-14.488-4-18.309-7.83l5.582-24.971-10.617-62.1,14.255-4.879.765-.262,3.2-1.1,2.54-.867,15.078,2.02,2.453.327.865.116,10.786,1.445Z" transform="translate(-47.025 -240.569)" fill="#0074fa"/></g><g transform="translate(19.856)"><g transform="translate(35.611 12.305)"><path d="M81.609,207.738s4.057,1.993,3.567,8.872-2.993,7.921-2.993,7.921S76.369,210.178,81.609,207.738Z" transform="translate(-79.42 -207.738)" fill="#133248"/></g><g transform="translate(9.989 44.835)"><path d="M75.435,232.29l.6,8.541.276,5.121c-4.427,4.234-13-.939-13-.939l-2.444-12.464c2.067-1.81,8.053-1.282,11.676-.754C74.252,232.044,75.435,232.29,75.435,232.29Z" transform="translate(-60.867 -231.294)" fill="#fdb491"/></g><g transform="translate(13.44 45.337)"><path d="M74.483,232.151l.6,8.541c-5.905-.6-11.719-7.937-11.719-7.937l8.225-1.1C73.3,231.906,74.483,232.151,74.483,232.151Z" transform="translate(-63.366 -231.657)" fill="#ef887a"/></g><path d="M91.112,214.646s8.609-5.419,4.973-12.591-13.938-.424-24.368,1.46c-15.734,2.842-19.262,9.326-17.771,17.86s2.863,20.055,7.3,23.853S67.567,242.622,68.9,237,80.562,213.359,91.112,214.646Z" transform="translate(-53.634 -198.828)" fill="#133248"/><g transform="translate(3.198 10.225)"><path d="M91.984,219.023c.03.29.064.587.093.885a133.581,133.581,0,0,1,.182,17.329,10.149,10.149,0,0,1-10.875,9.678c-6.868-.5-15.386-1.505-19.468-3.5A4.1,4.1,0,0,1,59.6,241.3a56.261,56.261,0,0,1-1.548-7.317c-1.363-8.611-2.1-19.476-2.1-19.476,6.779-11.018,29.705-9.965,34.05-3.085C90.993,213,91.616,215.739,91.984,219.023Z" transform="translate(-55.95 -206.232)" fill="#fdb491"/></g><g transform="translate(2.177 6.994)"><path d="M57.288,226.96s3.287-2.788,6.833.993l2.348-.3s-.746-4.806.062-7.566,5.311-3.263,5.59-6.434c0,0,11.145,2.874,18.389-.939s-17.169-13.6-27.385-6.029S54.54,218.965,57.288,226.96Z" transform="translate(-55.211 -203.893)" fill="#133248"/></g><g transform="translate(5.299 37.978)"><path d="M61.336,235.755a4.1,4.1,0,0,1-2.317-2.11,56.261,56.261,0,0,1-1.548-7.317l6.438,3.317S64.522,233.85,61.336,235.755Z" transform="translate(-57.471 -226.328)" fill="#133248"/></g><g transform="translate(3.228 28.986)"><path d="M63.832,221.886s-4.146-3.9-6.833-.993c-2.962,3.2.773,12.3,7.482,11.234Z" transform="translate(-55.971 -219.817)" fill="#fdb491"/></g></g><g transform="translate(26.876 5.126)"><rect width="22.832" height="172.129" transform="translate(122.411 10.621) rotate(42.239)" fill="#fdb900"/><path d="M164.259,228.511l-16.9-15.349,16.516-7,8.55-3.62-2.781,8.859Z" transform="translate(-24.946 -202.54)" fill="#fdb491"/><rect width="22.832" height="12.506" transform="translate(15.108 128.797) rotate(42.239)" fill="#133248"/><rect width="22.832" height="9.968" transform="translate(6.701 138.055) rotate(42.241)" fill="#fd3f2c"/><path d="M165.083,211.4l-5.769-5.238,8.55-3.62Z" transform="translate(-20.39 -202.54)" fill="#133248"/><rect width="8.968" height="22.832" transform="matrix(0.672, -0.74, 0.74, 0.672, 15.108, 128.797)" fill="#fdb900" opacity="0.7" style="mix-blend-mode:multiply;isolation:isolate"/><path d="M170.036,217.7,84.348,312.07a1.743,1.743,0,0,0,.119,2.462h0a1.742,1.742,0,0,0,2.462-.119l85.69-94.371a1.745,1.745,0,0,0-.12-2.464h0A1.743,1.743,0,0,0,170.036,217.7Z" transform="translate(-49.124 -196.983)" fill="#fdb900" opacity="0.7" style="mix-blend-mode:multiply;isolation:isolate"/><path d="M174.829,222.041l-85.69,94.372a1.743,1.743,0,0,0,.119,2.462h0a1.744,1.744,0,0,0,2.464-.117l85.688-94.371a1.746,1.746,0,0,0-.119-2.465h0A1.744,1.744,0,0,0,174.829,222.041Z" transform="translate(-47.299 -195.328)" fill="#fdb900" opacity="0.7" style="mix-blend-mode:multiply;isolation:isolate"/></g><g transform="translate(6.452 64.748)"><path d="M48.2,245.713s-7.372,9.418-2.759,19.414,28.7,23.579,28.7,23.579l41.032,5.125,1.21-8.257s-11.553-2.635-16-3.531-15.734-5-22.009-4.23C78.376,277.813,58.14,252.7,48.2,245.713Z" transform="translate(-43.928 -245.713)" fill="#0052dd"/><path d="M96.73,274.946a21.931,21.931,0,0,0,2.969-.521c2.925-.86,9.03-1.273,8.778-.064-.192.917-1.812.713-2.692,1.537-1.021.958,3.378,1.63,5.543,2.435,3.759,1.4.805,6.615-3.332,7.945s-10.139.58-12.476-3.075Z" transform="translate(-24.271 -235.085)" fill="#fdb491"/></g></g></svg>