<svg width="24" height="24" viewBox="0 0 24 24" fill="none" xmlns="http://www.w3.org/2000/svg">
<path d="M20 3H6.693C6.2861 3.0014 5.8892 3.1262 5.5548 3.3579C5.2204 3.5897 4.9641 3.9175 4.82 4.298L2.063 11.649C2.0211 11.7613 1.9998 11.8802 2 12V14C2 15.103 2.897 16 4 16H9.612L8.49 19.367C8.39 19.6676 8.3626 19.9877 8.4103 20.301C8.4579 20.6142 8.5791 20.9117 8.764 21.169C9.14 21.689 9.746 22 10.388 22H12C12.297 22 12.578 21.868 12.769 21.64L17.469 16H20C21.103 16 22 15.103 22 14V5C22 3.897 21.103 3 20 3ZM11.531 20H10.386L11.948 15.316C11.998 15.1657 12.0117 15.0058 11.9878 14.8492C11.9639 14.6926 11.9032 14.544 11.8106 14.4155C11.7181 14.287 11.5963 14.1823 11.4554 14.1101C11.3144 14.0379 11.1584 14.0001 11 14H4V12.181L6.693 5H16V14.638L11.531 20ZM18 14V5H20L20.001 14H18Z" fill="white"/>
</svg>
