<svg width="24" height="24" viewBox="0 0 24 24" fill="none" xmlns="http://www.w3.org/2000/svg">
<path d="M4 21H17.307C17.7139 20.9986 18.1108 20.8738 18.4452 20.6421C18.7796 20.4103 19.0359 20.0825 19.18 19.702L21.937 12.351C21.9789 12.2387 22.0002 12.1198 22 12V10C22 8.897 21.103 8 20 8H14.388L15.51 4.633C15.61 4.33236 15.6374 4.01229 15.5897 3.69905C15.5421 3.3858 15.4209 3.08832 15.236 2.831C14.86 2.311 14.254 2 13.612 2H12C11.703 2 11.422 2.132 11.231 2.36L6.531 8H4C2.897 8 2 8.897 2 10V19C2 20.103 2.897 21 4 21ZM12.469 4H13.614L12.052 8.684C12.002 8.83425 11.9883 8.99424 12.0122 9.1508C12.0361 9.30736 12.0968 9.456 12.1894 9.5845C12.2819 9.713 12.4037 9.81767 12.5446 9.88991C12.6856 9.96215 12.8416 9.99988 13 10H20V11.819L17.307 19H8V9.362L12.469 4ZM6 10V19H4L3.999 10H6Z" fill="white"/>
</svg>
