<svg xmlns="http://www.w3.org/2000/svg" width="18.375" height="21" viewBox="0 0 18.375 21"><defs><style>.a{fill:#84a9bf;}</style></defs><path class="a" d="M0,19.031A1.969,1.969,0,0,0,1.969,21H16.406a1.969,1.969,0,0,0,1.969-1.969V7.875H0Zm13.125-8.039a.494.494,0,0,1,.492-.492h1.641a.494.494,0,0,1,.492.492v1.641a.494.494,0,0,1-.492.492H13.617a.494.494,0,0,1-.492-.492Zm0,5.25a.494.494,0,0,1,.492-.492h1.641a.494.494,0,0,1,.492.492v1.641a.494.494,0,0,1-.492.492H13.617a.494.494,0,0,1-.492-.492Zm-5.25-5.25a.494.494,0,0,1,.492-.492h1.641a.494.494,0,0,1,.492.492v1.641a.494.494,0,0,1-.492.492H8.367a.494.494,0,0,1-.492-.492Zm0,5.25a.494.494,0,0,1,.492-.492h1.641a.494.494,0,0,1,.492.492v1.641a.494.494,0,0,1-.492.492H8.367a.494.494,0,0,1-.492-.492Zm-5.25-5.25a.494.494,0,0,1,.492-.492H4.758a.494.494,0,0,1,.492.492v1.641a.494.494,0,0,1-.492.492H3.117a.494.494,0,0,1-.492-.492Zm0,5.25a.494.494,0,0,1,.492-.492H4.758a.494.494,0,0,1,.492.492v1.641a.494.494,0,0,1-.492.492H3.117a.494.494,0,0,1-.492-.492ZM16.406,2.625H14.438V.656A.658.658,0,0,0,13.781,0H12.469a.658.658,0,0,0-.656.656V2.625H6.562V.656A.658.658,0,0,0,5.906,0H4.594a.658.658,0,0,0-.656.656V2.625H1.969A1.969,1.969,0,0,0,0,4.594V6.563H18.375V4.594A1.969,1.969,0,0,0,16.406,2.625Z"/></svg>