<svg xmlns="http://www.w3.org/2000/svg" width="20.055" height="20.055" viewBox="0 0 20.055 20.055">
  <path id="calendar" d="M52.055,36.3a2.865,2.865,0,0,0-2.865-2.865h-.716v-.7A.73.73,0,0,0,47.792,32a.716.716,0,0,0-.751.715v.716H37.014v-.7A.73.73,0,0,0,36.332,32a.716.716,0,0,0-.751.715v.716h-.716A2.865,2.865,0,0,0,32,36.3v.537a.179.179,0,0,0,.179.179h19.7a.179.179,0,0,0,.179-.179ZM32,49.192a2.865,2.865,0,0,0,2.865,2.865H49.19a2.865,2.865,0,0,0,2.865-2.865V38.582a.134.134,0,0,0-.134-.134H32.134a.134.134,0,0,0-.134.134ZM47.4,39.88a1.074,1.074,0,1,1-1.074,1.074A1.074,1.074,0,0,1,47.4,39.88Zm0,3.581a1.074,1.074,0,1,1-1.074,1.074A1.074,1.074,0,0,1,47.4,43.462ZM43.818,39.88a1.074,1.074,0,1,1-1.074,1.074A1.074,1.074,0,0,1,43.818,39.88Zm0,3.581a1.074,1.074,0,1,1-1.074,1.074A1.074,1.074,0,0,1,43.818,43.462Zm0,3.581a1.074,1.074,0,1,1-1.074,1.074A1.074,1.074,0,0,1,43.818,47.043Zm-3.581-3.581a1.074,1.074,0,1,1-1.074,1.074A1.074,1.074,0,0,1,40.237,43.462Zm0,3.581a1.074,1.074,0,1,1-1.074,1.074A1.074,1.074,0,0,1,40.237,47.043Zm-3.581-3.581a1.074,1.074,0,1,1-1.074,1.074A1.074,1.074,0,0,1,36.656,43.462Zm0,3.581a1.074,1.074,0,1,1-1.074,1.074A1.074,1.074,0,0,1,36.656,47.043Z" transform="translate(-32 -32.001)" fill="#fff"/>
</svg>
