<svg width="14" height="14" viewBox="0 0 14 14" fill="none" xmlns="http://www.w3.org/2000/svg">
<path d="M12.012 3.69254C12.012 3.25399 11.8378 2.83341 11.5277 2.5233C11.2176 2.2132 10.797 2.03899 10.3585 2.03899H9.94545V1.63766C9.94689 1.52974 9.90687 1.42538 9.83365 1.34608C9.76043 1.26678 9.65959 1.21859 9.5519 1.21143C9.49599 1.20869 9.4401 1.21735 9.38763 1.23687C9.33517 1.2564 9.28722 1.28638 9.2467 1.32501C9.20618 1.36364 9.17394 1.4101 9.15193 1.46157C9.12992 1.51304 9.11861 1.56845 9.11868 1.62443V2.03743H3.33279V1.6361C3.33382 1.52845 3.29362 1.42448 3.22045 1.34551C3.14727 1.26655 3.04665 1.21858 2.93923 1.21143C2.88332 1.20869 2.82743 1.21735 2.77497 1.23687C2.7225 1.2564 2.67455 1.28638 2.63403 1.32501C2.59351 1.36364 2.56127 1.4101 2.53926 1.46157C2.51726 1.51304 2.50594 1.56845 2.50601 1.62443V2.03743H2.09301C1.87573 2.03743 1.66058 2.08025 1.45986 2.16345C1.25914 2.24665 1.07679 2.36859 0.923218 2.5223C0.769651 2.67601 0.647885 2.85848 0.564877 3.05928C0.48187 3.26008 0.439249 3.47526 0.439454 3.69254V4.00366C0.439454 4.01724 0.44213 4.03069 0.447328 4.04324C0.452527 4.05579 0.460147 4.06719 0.469753 4.0768C0.479358 4.08641 0.490762 4.09403 0.503312 4.09922C0.515863 4.10442 0.529313 4.1071 0.542898 4.1071H11.9086C11.936 4.1071 11.9623 4.0962 11.9817 4.0768C12.0011 4.0574 12.012 4.03109 12.012 4.00366V3.69254ZM0.439454 11.1312C0.439454 11.5698 0.613668 11.9903 0.92377 12.3005C1.23387 12.6106 1.65446 12.7848 2.09301 12.7848H10.3585C10.797 12.7848 11.2176 12.6106 11.5277 12.3005C11.8378 11.9903 12.012 11.5698 12.012 11.1312V5.00932C12.012 4.98869 12.0038 4.96891 11.9892 4.95433C11.9746 4.93974 11.9549 4.93154 11.9342 4.93154H0.51723C0.496602 4.93154 0.476821 4.93974 0.462234 4.95433C0.447648 4.96891 0.439454 4.98869 0.439454 5.00932V11.1312ZM9.32556 5.75832C9.44863 5.75832 9.56893 5.79481 9.67125 5.86318C9.77358 5.93156 9.85333 6.02873 9.90042 6.14243C9.94752 6.25612 9.95984 6.38123 9.93583 6.50193C9.91182 6.62263 9.85256 6.7335 9.76554 6.82052C9.67852 6.90754 9.56766 6.9668 9.44696 6.99081C9.32626 7.01482 9.20115 7.0025 9.08745 6.9554C8.97376 6.90831 8.87658 6.82856 8.8082 6.72623C8.73983 6.62391 8.70334 6.50361 8.70334 6.38054C8.70355 6.21566 8.7692 6.05759 8.88586 5.94107C9.00253 5.82455 9.16068 5.7591 9.32556 5.7591V5.75832ZM9.32556 7.82488C9.44863 7.82488 9.56893 7.86137 9.67125 7.92974C9.77358 7.99811 9.85333 8.09529 9.90042 8.20899C9.94752 8.32268 9.95984 8.44779 9.93583 8.56849C9.91182 8.68919 9.85256 8.80006 9.76554 8.88708C9.67852 8.9741 9.56766 9.03336 9.44696 9.05737C9.32626 9.08137 9.20115 9.06905 9.08745 9.02196C8.97376 8.97486 8.87658 8.89511 8.8082 8.79279C8.73983 8.69046 8.70334 8.57016 8.70334 8.4471C8.70304 8.36519 8.7189 8.28403 8.75003 8.20827C8.78117 8.13251 8.82695 8.06364 8.88476 8.00561C8.94257 7.94759 9.01127 7.90155 9.08691 7.87013C9.16256 7.83872 9.24366 7.82254 9.32556 7.82254V7.82488ZM7.25901 5.75832C7.38207 5.75832 7.50237 5.79481 7.6047 5.86318C7.70702 5.93156 7.78677 6.02873 7.83387 6.14243C7.88096 6.25612 7.89328 6.38123 7.86928 6.50193C7.84527 6.62263 7.78601 6.7335 7.69899 6.82052C7.61197 6.90754 7.5011 6.9668 7.3804 6.99081C7.2597 7.01482 7.13459 7.0025 7.0209 6.9554C6.9072 6.90831 6.81002 6.82856 6.74165 6.72623C6.67328 6.62391 6.63679 6.50361 6.63679 6.38054C6.63699 6.21566 6.70264 6.05759 6.81931 5.94107C6.93597 5.82455 7.09412 5.7591 7.25901 5.7591V5.75832ZM7.25901 7.82488C7.38207 7.82488 7.50237 7.86137 7.6047 7.92974C7.70702 7.99811 7.78677 8.09529 7.83387 8.20899C7.88096 8.32268 7.89328 8.44779 7.86928 8.56849C7.84527 8.68919 7.78601 8.80006 7.69899 8.88708C7.61197 8.9741 7.5011 9.03336 7.3804 9.05737C7.2597 9.08137 7.13459 9.06905 7.0209 9.02196C6.9072 8.97486 6.81002 8.89511 6.74165 8.79279C6.67328 8.69046 6.63679 8.57016 6.63679 8.4471C6.63648 8.36519 6.65235 8.28403 6.68348 8.20827C6.71461 8.13251 6.7604 8.06364 6.81821 8.00561C6.87601 7.94759 6.94471 7.90155 7.02036 7.87013C7.096 7.83872 7.1771 7.82254 7.25901 7.82254V7.82488ZM7.25901 9.89143C7.38207 9.89143 7.50237 9.92792 7.6047 9.99629C7.70702 10.0647 7.78677 10.1618 7.83387 10.2755C7.88096 10.3892 7.89328 10.5143 7.86928 10.635C7.84527 10.7557 7.78601 10.8666 7.69899 10.9536C7.61197 11.0407 7.5011 11.0999 7.3804 11.1239C7.2597 11.1479 7.13459 11.1356 7.0209 11.0885C6.9072 11.0414 6.81002 10.9617 6.74165 10.8593C6.67328 10.757 6.63679 10.6367 6.63679 10.5137C6.63679 10.3486 6.70234 10.1904 6.81903 10.0737C6.93572 9.95699 7.09399 9.89143 7.25901 9.89143ZM5.19245 7.82254C5.31552 7.82254 5.43582 7.85904 5.53814 7.92741C5.64047 7.99578 5.72022 8.09296 5.76731 8.20665C5.81441 8.32035 5.82673 8.44546 5.80272 8.56616C5.77871 8.68686 5.71945 8.79772 5.63243 8.88474C5.54541 8.97176 5.43454 9.03102 5.31384 9.05503C5.19314 9.07904 5.06803 9.06672 4.95434 9.01963C4.84064 8.97253 4.74347 8.89278 4.67509 8.79046C4.60672 8.68813 4.57023 8.56783 4.57023 8.44477C4.57023 8.27974 4.63579 8.12148 4.75248 8.00479C4.86917 7.8881 5.02743 7.82254 5.19245 7.82254ZM5.19245 9.8891C5.31552 9.8891 5.43582 9.92559 5.53814 9.99396C5.64047 10.0623 5.72022 10.1595 5.76731 10.2732C5.81441 10.3869 5.82673 10.512 5.80272 10.6327C5.77871 10.7534 5.71945 10.8643 5.63243 10.9513C5.54541 11.0383 5.43454 11.0976 5.31384 11.1216C5.19314 11.1456 5.06803 11.1333 4.95434 11.0862C4.84064 11.0391 4.74347 10.9593 4.67509 10.857C4.60672 10.7547 4.57023 10.6344 4.57023 10.5113C4.57085 10.3467 4.63668 10.189 4.7533 10.0729C4.86992 9.95667 5.02783 9.89143 5.19245 9.89143V9.8891ZM3.1259 7.82254C3.24896 7.82254 3.36926 7.85904 3.47159 7.92741C3.57391 7.99578 3.65366 8.09296 3.70076 8.20665C3.74785 8.32035 3.76017 8.44546 3.73616 8.56616C3.71216 8.68686 3.65289 8.79772 3.56587 8.88474C3.47886 8.97176 3.36799 9.03102 3.24729 9.05503C3.12659 9.07904 3.00148 9.06672 2.88778 9.01963C2.77409 8.97253 2.67691 8.89278 2.60854 8.79046C2.54017 8.68813 2.50368 8.56783 2.50368 8.44477C2.50368 8.27974 2.56923 8.12148 2.68592 8.00479C2.80261 7.8881 2.96087 7.82254 3.1259 7.82254ZM3.1259 9.8891C3.24896 9.8891 3.36926 9.92559 3.47159 9.99396C3.57391 10.0623 3.65366 10.1595 3.70076 10.2732C3.74785 10.3869 3.76017 10.512 3.73616 10.6327C3.71216 10.7534 3.65289 10.8643 3.56587 10.9513C3.47886 11.0383 3.36799 11.0976 3.24729 11.1216C3.12659 11.1456 3.00148 11.1333 2.88778 11.0862C2.77409 11.0391 2.67691 10.9593 2.60854 10.857C2.54017 10.7547 2.50368 10.6344 2.50368 10.5113C2.50429 10.3467 2.57012 10.189 2.68674 10.0729C2.80337 9.95667 2.96128 9.89143 3.1259 9.89143V9.8891Z" fill="#CE434E"/>
</svg>
