<svg width="12" height="12" viewBox="0 0 12 12" fill="none" xmlns="http://www.w3.org/2000/svg">
<path d="M11.25 0.758431C10.925 0.433431 10.4 0.433431 10.075 0.758431L6.00001 4.8251L1.92501 0.750098C1.60001 0.425098 1.07501 0.425098 0.750006 0.750098C0.425006 1.0751 0.425006 1.6001 0.750006 1.9251L4.82501 6.0001L0.750006 10.0751C0.425006 10.4001 0.425006 10.9251 0.750006 11.2501C1.07501 11.5751 1.60001 11.5751 1.92501 11.2501L6.00001 7.1751L10.075 11.2501C10.4 11.5751 10.925 11.5751 11.25 11.2501C11.575 10.9251 11.575 10.4001 11.25 10.0751L7.17501 6.0001L11.25 1.9251C11.5667 1.60843 11.5667 1.0751 11.25 0.758431Z" fill="#E03249"/>
</svg>
