<svg width="14" height="15" viewBox="0 0 14 15" fill="none" xmlns="http://www.w3.org/2000/svg">
<path d="M7.00071 0.5C5.61624 0.499861 4.26282 0.910267 3.1116 1.67932C1.96038 2.44837 1.06306 3.54153 0.533116 4.82056C0.00317398 6.09959 -0.135591 7.50705 0.134369 8.86494C0.404328 10.2228 1.07089 11.4702 2.04976 12.4492C3.02863 13.4283 4.27584 14.0951 5.63368 14.3654C6.99152 14.6356 8.399 14.4971 9.67813 13.9674C10.9573 13.4377 12.0506 12.5406 12.8199 11.3896C13.5892 10.2385 13.9999 8.88517 14 7.5007C14.0003 6.5814 13.8194 5.67105 13.4678 4.82165C13.1162 3.97225 12.6006 3.20045 11.9507 2.55034C11.3007 1.90023 10.529 1.38454 9.67966 1.03274C8.83033 0.680933 7.92001 0.499907 7.00071 0.5ZM7.47189 8.1059C7.47152 8.23075 7.42175 8.35039 7.33347 8.43867C7.24519 8.52695 7.12556 8.57671 7.00071 8.57708H3.76945C3.64448 8.57708 3.52464 8.52744 3.43627 8.43908C3.34791 8.35072 3.29827 8.23087 3.29827 8.1059C3.29827 7.98094 3.34791 7.86109 3.43627 7.77273C3.52464 7.68437 3.64448 7.63472 3.76945 7.63472H6.52882V3.19095C6.52882 3.06599 6.57846 2.94614 6.66683 2.85778C6.75519 2.76941 6.87504 2.71977 7 2.71977C7.12497 2.71977 7.24481 2.76941 7.33318 2.85778C7.42154 2.94614 7.47118 3.06599 7.47118 3.19095L7.47189 8.1059Z" fill="#CE434E"/>
</svg>
