<svg id="clock_time_icon" data-name="clock time icon" xmlns="http://www.w3.org/2000/svg" width="102.123" height="96.572" viewBox="0 0 102.123 96.572">
  <path id="Path_6185" data-name="Path 6185" d="M365.786,374.31a48.286,48.286,0,1,1,48.286-48.286A48.341,48.341,0,0,1,365.786,374.31Zm0-96.235a47.949,47.949,0,1,0,47.949,47.949A48,48,0,0,0,365.786,278.074Z" transform="translate(-317.5 -277.738)"/>
  <path id="Path_6186" data-name="Path 6186" d="M360,354.223c0,18.77,15.665,33.985,34.99,33.985v-67.97C375.665,320.238,360,335.454,360,354.223Z" transform="translate(-345.699 -305.937)" fill="#e03249"/>
  <path id="Path_6187" data-name="Path 6187" d="M461,320.238v67.97a33.985,33.985,0,1,0,0-67.97Z" transform="translate(-412.714 -305.937)" fill="#e94058"/>
  <circle id="Ellipse_1014" data-name="Ellipse 1014" cx="4.711" cy="4.711" r="4.711" transform="translate(43.575 45.258)" fill="#fff"/>
  <path id="Path_6188" data-name="Path 6188" d="M274.347,310.658l1.174,9.311,1.174,9.311H272l1.174-9.311Z" transform="translate(-226.07 -277.965)" fill="#fff"/>
  <path id="Path_6189" data-name="Path 6189" d="M302.08,359.768l-15.314.573-15.314.572.008-1.338.008-1.338,15.305.765Z" transform="translate(-225.706 -309.536)" fill="#fff"/>
  <path id="Path_6190" data-name="Path 6190" d="M603.884,403.38c-.779,0-1.094-.535-1.492-1.213-.1-.169-.207-.353-.332-.547l.283-.182c.128.2.238.385.339.558.4.675.615,1.047,1.2,1.047,1.948,0,3.533-3.245,3.533-7.234s-1.585-7.234-3.533-7.234c-1.125,0-1.907.694-2.536,2.25l-.312-.126c.688-1.7,1.566-2.461,2.848-2.461,2.134,0,3.87,3.4,3.87,7.571S606.018,403.38,603.884,403.38Z" transform="translate(-505.631 -351.056)"/>
</svg>
