<svg width="64" height="65" viewBox="0 0 64 65" fill="none" xmlns="http://www.w3.org/2000/svg">
<path fill-rule="evenodd" clip-rule="evenodd" d="M32 2.91797C15.4314 2.91797 2 16.1936 2 32.5699C2 48.9462 15.4314 62.2219 32 62.2219C48.5686 62.2219 62 48.9462 62 32.5699C62 16.1936 48.5686 2.91797 32 2.91797ZM30 28.4158V10.3276C30 9.23592 30.8955 8.35081 32 8.35081C33.1045 8.35081 34 9.23592 34 10.3276V28.4158C35.5691 29.155 36.6534 30.7369 36.6534 32.5699C36.6534 33.1101 36.5589 33.6283 36.386 34.1098L44.7 42.3273C45.481 43.0991 45.481 44.3508 44.7 45.1226C43.919 45.8944 42.6529 45.8944 41.8719 45.1226L33.5579 36.9051C33.0709 37.0761 32.5464 37.1695 32 37.1695C29.4295 37.1695 27.3464 35.1107 27.3464 32.5699C27.3464 30.7369 28.4306 29.155 30 28.4158Z" fill="url(#paint0_linear_225_8126)"/>
<defs>
<linearGradient id="paint0_linear_225_8126" x1="17" y1="58.7624" x2="36.6132" y2="14.1146" gradientUnits="userSpaceOnUse">
<stop stop-color="#E17D59" stop-opacity="0.9"/>
<stop offset="0.357696" stop-color="#95877C" stop-opacity="0.939353"/>
<stop offset="1" stop-color="#2095B2"/>
</linearGradient>
</defs>
</svg>
