<svg xmlns="http://www.w3.org/2000/svg" width="97.688" height="97.688" viewBox="0 0 97.688 97.688"><g transform="translate(-33.357 -31.452)"><g transform="translate(37.084 57.611)"><path d="M127.18,139.066H42.287V94.137H127.18ZM44.374,136.98h80.72V96.224H44.374Z" transform="translate(-42.287 -94.137)" fill="#c4a6f5"/></g><g transform="translate(33.357 31.452)" opacity="0.2" style="mix-blend-mode:multiply;isolation:isolate"><circle cx="32.649" cy="32.649" r="32.649" transform="translate(25.353 25.353)" fill="#fff"/><circle cx="32.649" cy="32.649" r="32.649" transform="translate(24.972 24.972)" fill="#f7f7f7"/><circle cx="32.649" cy="32.649" r="32.649" transform="translate(24.59 24.59)" fill="#efefef"/><circle cx="32.649" cy="32.649" r="32.649" transform="translate(24.208 24.208)" fill="#e6e6e6"/><circle cx="32.649" cy="32.649" r="32.649" transform="translate(23.827 23.827)" fill="#dedede"/><circle cx="32.649" cy="32.649" r="32.649" transform="translate(23.445 23.445)" fill="#d6d6d6"/><circle cx="32.649" cy="32.649" r="32.649" transform="translate(23.064 23.064)" fill="#cecece"/><circle cx="32.649" cy="32.649" r="32.649" transform="translate(22.682 22.682)" fill="#c5c5c5"/><circle cx="32.649" cy="32.649" r="32.649" transform="translate(22.3 22.3)" fill="#bdbdbd"/><circle cx="32.649" cy="32.649" r="32.649" transform="translate(21.919 21.919)" fill="#b5b5b5"/><circle cx="32.649" cy="32.649" r="32.649" transform="translate(21.537 21.537)" fill="#adadad"/><circle cx="32.649" cy="32.649" r="32.649" transform="translate(21.156 21.156)" fill="#a5a5a5"/><circle cx="32.649" cy="32.649" r="32.649" transform="translate(20.774 20.774)" fill="#9c9c9c"/><circle cx="32.649" cy="32.649" r="32.649" transform="translate(20.392 20.393)" fill="#949494"/><circle cx="32.649" cy="32.649" r="32.649" transform="translate(20.011 20.011)" fill="#8c8c8c"/><circle cx="32.649" cy="32.649" r="32.649" transform="translate(19.629 19.629)" fill="#848484"/><circle cx="32.649" cy="32.649" r="32.649" transform="translate(19.248 19.248)" fill="#7b7b7b"/><circle cx="32.649" cy="32.649" r="32.649" transform="translate(5.342 51.515) rotate(-45)" fill="#737373"/><circle cx="32.649" cy="32.649" r="32.649" transform="translate(4.961 51.134) rotate(-45)" fill="#6b6b6b"/><circle cx="32.649" cy="32.649" r="32.649" transform="translate(4.579 50.752) rotate(-45)" fill="#636363"/><circle cx="32.649" cy="32.649" r="32.649" transform="translate(4.198 50.371) rotate(-45)" fill="#5a5a5a"/><circle cx="32.649" cy="32.649" r="32.649" transform="translate(3.816 49.989) rotate(-45)" fill="#525252"/><circle cx="32.649" cy="32.649" r="32.649" transform="translate(3.434 49.607) rotate(-45)" fill="#4a4a4a"/><circle cx="32.649" cy="32.649" r="32.649" transform="translate(3.053 49.226) rotate(-45)" fill="#424242"/><circle cx="32.649" cy="32.649" r="32.649" transform="translate(2.671 48.844) rotate(-45)" fill="#3a3a3a"/><circle cx="32.649" cy="32.649" r="32.649" transform="translate(2.29 48.463) rotate(-45)" fill="#313131"/><circle cx="32.649" cy="32.649" r="32.649" transform="translate(1.908 48.081) rotate(-45)" fill="#292929"/><circle cx="32.649" cy="32.649" r="32.649" transform="translate(1.526 47.699) rotate(-45)" fill="#212121"/><circle cx="32.649" cy="32.649" r="32.649" transform="translate(1.145 47.318) rotate(-45)" fill="#191919"/><circle cx="32.649" cy="32.649" r="32.649" transform="translate(0.763 46.936) rotate(-45)" fill="#101010"/><circle cx="32.649" cy="32.649" r="32.649" transform="translate(0.382 46.555) rotate(-45)" fill="#080808"/><circle cx="32.649" cy="32.649" r="32.649" transform="translate(0 46.173) rotate(-45)"/></g><path d="M32.649,0A32.649,32.649,0,1,1,0,32.649,32.649,32.649,0,0,1,32.649,0Z" transform="translate(33.357 77.625) rotate(-45)" fill="#e94058"/><g transform="translate(38.127 100.454)"><rect width="82.806" height="2.087" transform="translate(0 0)" fill="#b99de7" opacity="0.5"/></g><g transform="translate(54.52 62.299)"><path d="M84.07,114.8v-4.553q0-4.874,3.868-4.874a4.31,4.31,0,0,1,1.449.225,3.052,3.052,0,0,1,1.063.623,3.189,3.189,0,0,1,.708.978,4.933,4.933,0,0,1,.4,1.261,8.495,8.495,0,0,1,.122,1.5v1.184H89.027V109.87q0-.374-.015-.646a5.061,5.061,0,0,0-.078-.618,2.168,2.168,0,0,0-.17-.565,1.006,1.006,0,0,0-.318-.371.844.844,0,0,0-.508-.153q-1.171,0-1.171,2.032v5.936q0,2.024,1.171,2.024a.86.86,0,0,0,.585-.207,1.157,1.157,0,0,0,.341-.584,4.522,4.522,0,0,0,.141-.741,8.267,8.267,0,0,0,.037-.829v-1.413H91.68V114.9a9.953,9.953,0,0,1-.126,1.451,5.706,5.706,0,0,1-.378,1.291A3.506,3.506,0,0,1,90.5,118.7a2.992,2.992,0,0,1-1.063.7,3.971,3.971,0,0,1-1.5.263A4.294,4.294,0,0,1,86.4,119.4a3.107,3.107,0,0,1-1.1-.688,3.47,3.47,0,0,1-.715-1.062,5.375,5.375,0,0,1-.4-1.325A9.373,9.373,0,0,1,84.07,114.8Z" transform="translate(-84.07 -105.371)" fill="#fff"/><path d="M104.916,114.867v-4.622q0-4.874,3.9-4.874t3.9,4.874V114.8a9.108,9.108,0,0,1-.119,1.524,5.325,5.325,0,0,1-.4,1.325,3.578,3.578,0,0,1-.726,1.065,3.077,3.077,0,0,1-1.115.691,4.85,4.85,0,0,1-3.075,0,3.114,3.114,0,0,1-1.111-.672,3.463,3.463,0,0,1-.722-1.039,5.256,5.256,0,0,1-.408-1.31A8.811,8.811,0,0,1,104.916,114.867Zm5.105.626V109.55q0-2.032-1.208-2.032a1.006,1.006,0,0,0-.615.187,1.082,1.082,0,0,0-.37.512,3.281,3.281,0,0,0-.167.642,4.6,4.6,0,0,0-.048.691v5.943q0,2.024,1.2,2.024T110.021,115.493Z" transform="translate(-96.217 -105.371)" fill="#fff"/><path d="M127,119.762v-13.75h3.23l1.423,9.167,1.534-9.167h3.12v13.75h-1.986l-.06-9.671q-.222,1.49-.778,4.835t-.778,4.835H130.7l-1.638-9.732L129,119.762Z" transform="translate(-109.088 -105.744)" fill="#fff"/><path d="M153.106,119.762v-13.75h2.7v13.75Z" transform="translate(-124.296 -105.744)" fill="#fff"/><path d="M163.369,119.752V105.994h1.941l2.927,7.2v-7.2h2.238v13.758h-1.867l-2.92-7.631v7.631Z" transform="translate(-130.276 -105.734)" fill="#fff"/><path d="M183.789,115.088v-4.843q0-4.874,3.935-4.874a4.491,4.491,0,0,1,1.478.225,3.109,3.109,0,0,1,1.085.623,3.177,3.177,0,0,1,.719.978,4.976,4.976,0,0,1,.408,1.261,8.249,8.249,0,0,1,.126,1.5v.81h-2.579V109.8q0-.359-.018-.63a4.125,4.125,0,0,0-.093-.6,1.9,1.9,0,0,0-.2-.546,1.049,1.049,0,0,0-.926-.5q-1.238,0-1.238,2.032v5.936q0,2.024,1.238,2.024t1.23-2.1v-1.1h-1.526v-1.994h4.224v7.074H189.8l-.341-.962a2.52,2.52,0,0,1-.971.89,2.7,2.7,0,0,1-1.3.34,3.089,3.089,0,0,1-1.307-.271,2.782,2.782,0,0,1-.971-.718,4.075,4.075,0,0,1-.641-1.05,5.536,5.536,0,0,1-.37-1.234A7.422,7.422,0,0,1,183.789,115.088Z" transform="translate(-142.175 -105.371)" fill="#fff"/></g><g transform="translate(57.889 77.18)"><path d="M92.142,153.772l3.45-.685q0,.531.019.935a7.61,7.61,0,0,0,.1.882,3.241,3.241,0,0,0,.215.78,1.4,1.4,0,0,0,.384.511.882.882,0,0,0,.584.207q1.01,0,1.01-1.33a5.035,5.035,0,0,0-1.991-3.624l-1.057-.926q-.505-.434-.8-.723a9.757,9.757,0,0,1-.706-.781,5.069,5.069,0,0,1-.636-.95,5.445,5.445,0,0,1-.392-1.1,5.541,5.541,0,0,1-.164-1.368,4.377,4.377,0,0,1,1.3-3.34,4.815,4.815,0,0,1,3.451-1.229,4.048,4.048,0,0,1,3.038,1.311,4.411,4.411,0,0,1,1.253,3.162l-.009.125v.289l-3.516.5q0-.106.014-.333c.009-.151.014-.275.014-.371a4.552,4.552,0,0,0-.047-.665,3.678,3.678,0,0,0-.154-.636,1.1,1.1,0,0,0-.332-.506.816.816,0,0,0-.543-.188.926.926,0,0,0-.842.453,1.991,1.991,0,0,0-.28,1.07,3.066,3.066,0,0,0,.164,1.012,2.892,2.892,0,0,0,.5.882,7.413,7.413,0,0,0,.612.679q.281.27.748.661t.664.573a14.651,14.651,0,0,1,1.216,1.229,9.7,9.7,0,0,1,.935,1.3,5.849,5.849,0,0,1,.659,1.562,7.151,7.151,0,0,1,.22,1.812,3.874,3.874,0,0,1-1.262,2.984,4.365,4.365,0,0,1-3.067,1.161,4.672,4.672,0,0,1-2.076-.443,3.887,3.887,0,0,1-1.463-1.205,5.917,5.917,0,0,1-.855-1.687A7.488,7.488,0,0,1,92.142,153.772Z" transform="translate(-92.142 -141.028)" fill="#fff"/><path d="M116.609,153.056v-5.832q0-6.15,4.918-6.15t4.928,6.15v5.745a11.564,11.564,0,0,1-.149,1.923,6.738,6.738,0,0,1-.51,1.673,4.518,4.518,0,0,1-.916,1.345,3.892,3.892,0,0,1-1.407.873,6.12,6.12,0,0,1-3.881,0,3.926,3.926,0,0,1-1.4-.848,4.35,4.35,0,0,1-.911-1.311,6.633,6.633,0,0,1-.514-1.653A11.025,11.025,0,0,1,116.609,153.056Zm6.443.79v-7.5q0-2.564-1.524-2.564a1.266,1.266,0,0,0-.776.236,1.36,1.36,0,0,0-.467.646,4.205,4.205,0,0,0-.21.81,5.839,5.839,0,0,0-.061.873v7.5q0,2.555,1.514,2.554T123.052,153.846Z" transform="translate(-106.399 -141.055)" fill="#fff"/><path d="M143.967,153.056v-5.832q0-6.15,4.918-6.15t4.928,6.15v5.745a11.561,11.561,0,0,1-.15,1.923,6.738,6.738,0,0,1-.51,1.673,4.519,4.519,0,0,1-.916,1.345,3.892,3.892,0,0,1-1.407.873,6.12,6.12,0,0,1-3.881,0,3.928,3.928,0,0,1-1.4-.848,4.344,4.344,0,0,1-.912-1.311,6.633,6.633,0,0,1-.514-1.653A11.068,11.068,0,0,1,143.967,153.056Zm6.442.79v-7.5q0-2.564-1.524-2.564a1.264,1.264,0,0,0-.776.236,1.364,1.364,0,0,0-.468.646,4.205,4.205,0,0,0-.21.81,5.839,5.839,0,0,0-.061.873v7.5q0,2.555,1.514,2.554T150.409,153.846Z" transform="translate(-122.34 -141.055)" fill="#fff"/><path d="M171.84,159.22V141.859h2.45l3.693,9.08v-9.08h2.824V159.22h-2.356l-3.684-9.63v9.63Z" transform="translate(-138.581 -141.512)" fill="#fff"/></g><path d="M196.378,51.646l.679,9.3,7.383-10.485Z" transform="translate(-94.99 -11.078)" fill="#4e70d7"/><path d="M207.471,57l11.535-11.752,4.058,4.428Z" transform="translate(-101.453 -8.037)" fill="#4e70d7"/><path d="M206.871,74.638l12.923-3.969-1.749,5.3Z" transform="translate(-101.104 -22.852)" fill="#4e70d7"/><path d="M83.248,224.375l-.679-9.3-7.383,10.485Z" transform="translate(-24.373 -106.993)" fill="#4e70d7"/><path d="M61.64,217.256,50.105,229.008l-4.058-4.428Z" transform="translate(-7.394 -108.265)" fill="#4e70d7"/><path d="M65.969,208.622l-12.923,3.969,1.749-5.3Z" transform="translate(-11.472 -102.459)" fill="#4e70d7"/></g></svg>