<svg width="10" height="14" viewBox="0 0 10 14" fill="none" xmlns="http://www.w3.org/2000/svg">
<path fill-rule="evenodd" clip-rule="evenodd" d="M0.146894 9.14604C0.193339 9.09947 0.248515 9.06253 0.30926 9.03733C0.370005 9.01212 0.435127 8.99915 0.500894 8.99915C0.566661 8.99915 0.631782 9.01212 0.692528 9.03733C0.753273 9.06253 0.808448 9.09947 0.854894 9.14604L4.50089 12.793L8.14689 9.14604C8.24078 9.05215 8.36812 8.99941 8.50089 8.99941C8.63367 8.99941 8.76101 9.05215 8.85489 9.14604C8.94878 9.23992 9.00152 9.36726 9.00152 9.50004C9.00152 9.63281 8.94878 9.76015 8.85489 9.85404L4.85489 13.854C4.80845 13.9006 4.75327 13.9375 4.69253 13.9628C4.63178 13.988 4.56666 14.0009 4.50089 14.0009C4.43513 14.0009 4.37001 13.988 4.30926 13.9628C4.24852 13.9375 4.19334 13.9006 4.14689 13.854L0.146894 9.85404C0.100331 9.80759 0.0633878 9.75242 0.0381813 9.69167C0.0129749 9.63093 0 9.56581 0 9.50004C0 9.43427 0.0129749 9.36915 0.0381813 9.30841C0.0633878 9.24766 0.100331 9.19248 0.146894 9.14604ZM0.146894 4.85404C0.193339 4.9006 0.248515 4.93755 0.30926 4.96275C0.370005 4.98796 0.435127 5.00093 0.500894 5.00093C0.566661 5.00093 0.631782 4.98796 0.692528 4.96275C0.753273 4.93755 0.808448 4.9006 0.854894 4.85404L4.50089 1.20704L8.14689 4.85404C8.24078 4.94793 8.36812 5.00067 8.50089 5.00067C8.63367 5.00067 8.76101 4.94793 8.85489 4.85404C8.94878 4.76015 9.00152 4.63281 9.00152 4.50004C9.00152 4.36726 8.94878 4.23993 8.85489 4.14604L4.85489 0.146039C4.80845 0.099476 4.75327 0.0625333 4.69253 0.0373268C4.63178 0.0121204 4.56666 -0.000854492 4.50089 -0.000854492C4.43513 -0.000854492 4.37001 0.0121204 4.30926 0.0373268C4.24852 0.0625333 4.19334 0.099476 4.14689 0.146039L0.146894 4.14604C0.100331 4.19248 0.0633878 4.24766 0.0381813 4.30841C0.0129749 4.36915 0 4.43427 0 4.50004C0 4.56581 0.0129749 4.63093 0.0381813 4.69167C0.0633878 4.75242 0.100331 4.80759 0.146894 4.85404Z" fill="black"/>
</svg>
