<svg xmlns="http://www.w3.org/2000/svg" width="340" height="246" viewBox="0 0 340 246"><g transform="translate(-26 -57)"><g transform="translate(26 57)" opacity="0.5"><g transform="translate(258.04 73.909)"><path d="M30.821,40.071c.095,0,.19,0,.285,0L31,36.474a3.954,3.954,0,0,1-3.1-1.15c-2.067-2.1-2.319-6.658-2.242-8.234l-3.59-.185c-.015.295-.334,7.26,3.259,10.93A7.488,7.488,0,0,0,30.821,40.071Z" transform="translate(-22.053 -26.905)" fill="#e599a9"/></g><g transform="translate(232.683 47.449)"><path d="M-5.533-6.856c-.029-.09-.06-.18-.093-.269L-9.007-5.907a3.953,3.953,0,0,1-.132,3.3C-10.5.012-14.751,1.663-16.273,2.079l.938,3.469c.285-.077,7-1.931,9.38-6.486A7.489,7.489,0,0,0-5.533-6.856Z" transform="translate(16.273 7.125)" fill="#e599a9"/></g><g transform="translate(237.335 109.561)"><path d="M-8.28,74.164c-.079.054-.156.109-.232.165l2.122,2.9a3.951,3.951,0,0,1,3.2-.8c2.894.566,5.678,4.18,6.506,5.524l3.064-1.879C6.23,79.821,2.556,73.9-2.483,72.9A7.5,7.5,0,0,0-8.28,74.164Z" transform="translate(8.512 -72.758)" fill="#e599a9"/></g><path d="M-.636,136.079a3.168,3.168,0,1,0,3.168-3.168A3.168,3.168,0,0,0-.636,136.079Z" transform="translate(244.114 23.422)" fill="#e599a9"/><path d="M-38.406,51.647a2.3,2.3,0,0,0,2.3,2.3,2.3,2.3,0,0,0,2.3-2.3,2.3,2.3,0,0,0-2.3-2.3A2.3,2.3,0,0,0-38.406,51.647Z" transform="translate(257.269 42.011)" fill="#e599a9"/><path d="M-89.432-32.585a2.3,2.3,0,0,0,2.3,2.3,2.3,2.3,0,0,0,2.3-2.3,2.3,2.3,0,0,0-2.3-2.3A2.3,2.3,0,0,0-89.432-32.585Z" transform="translate(274.776 60.749)" fill="#e599a9"/><path d="M39.142,92.927a2.3,2.3,0,1,0,2.3-2.3A2.3,2.3,0,0,0,39.142,92.927Z" transform="translate(230.663 32.828)" fill="#e599a9"/><circle cx="2.301" cy="2.301" r="2.301" transform="translate(206.726 148.924)" fill="#e599a9"/><g transform="translate(114.718 135.443)"><path d="M-195.856,107.452c-.077.053-.155.107-.231.164l2.122,2.9a3.954,3.954,0,0,1,3.2-.8c2.9.567,5.678,4.18,6.507,5.525l3.065-1.879c-.155-.25-3.829-6.176-8.868-7.171A7.489,7.489,0,0,0-195.856,107.452Z" transform="translate(196.087 -106.045)" fill="#e599a9"/></g><path d="M-201.21,142.655a2.3,2.3,0,0,0,2.3,2.3,2.3,2.3,0,0,0,2.3-2.3,2.3,2.3,0,0,0-2.3-2.3A2.3,2.3,0,0,0-201.21,142.655Z" transform="translate(313.127 21.766)" fill="#e599a9"/><g transform="translate(96.727 54.094)"><path d="M-215.259,14.588c.095,0,.191,0,.285,0l-.11-3.593a3.952,3.952,0,0,1-3.1-1.148c-2.067-2.106-2.319-6.659-2.242-8.236l-3.59-.184c-.016.295-.334,7.259,3.259,10.93A7.491,7.491,0,0,0-215.259,14.588Z" transform="translate(224.026 -1.422)" fill="#e599a9"/></g><g transform="translate(131.384 206.509)"><path d="M-160.216,197.714c-.028-.089-.06-.18-.092-.271l-3.381,1.22a3.961,3.961,0,0,1-.132,3.3c-1.361,2.618-5.612,4.27-7.136,4.685l.939,3.47c.284-.075,7.006-1.933,9.379-6.486A7.485,7.485,0,0,0-160.216,197.714Z" transform="translate(170.957 -197.443)" fill="#e599a9"/></g><path d="M-108.361-8.032a3.169,3.169,0,0,0,3.168,3.169,3.168,3.168,0,0,0,3.168-3.169,3.167,3.167,0,0,0-3.168-3.168A3.168,3.168,0,0,0-108.361-8.032Z" transform="translate(281.131 55.48)" fill="#e599a9"/><path d="M-60.487.764a2.3,2.3,0,0,0,2.3,2.3,2.3,2.3,0,0,0,2.3-2.3,2.3,2.3,0,0,0-2.3-2.3A2.3,2.3,0,0,0-60.487.764Z" transform="translate(264.845 53.331)" fill="#e599a9"/><g transform="translate(72.345 104.965)"><path d="M-260.676,68.253c-.079.054-.157.108-.232.164l2.121,2.9a3.955,3.955,0,0,1,3.2-.8c2.9.567,5.678,4.18,6.506,5.525l3.064-1.879c-.153-.25-3.829-6.176-8.866-7.171A7.488,7.488,0,0,0-260.676,68.253Z" transform="translate(260.908 -66.847)" fill="#e599a9"/></g><g transform="translate(232.623 200.841)"><path d="M-15.488,191.559c-.079.053-.156.11-.232.166l2.122,2.9a3.952,3.952,0,0,1,3.2-.8c2.895.567,5.678,4.179,6.506,5.525l3.064-1.879c-.154-.252-3.829-6.176-8.866-7.171A7.49,7.49,0,0,0-15.488,191.559Z" transform="translate(15.72 -190.153)" fill="#e599a9"/></g><g transform="translate(220.292 229.666)"><path d="M-26.764,240.391q.141,0,.285,0l-.11-3.593a3.951,3.951,0,0,1-3.1-1.149c-2.067-2.1-2.319-6.658-2.242-8.234l-3.59-.185c-.016.294-.334,7.258,3.258,10.929A7.489,7.489,0,0,0-26.764,240.391Z" transform="translate(35.531 -227.225)" fill="#e599a9"/></g><g transform="translate(69.67 141.613)"><path d="M-256.533,127.145q.141,0,.285,0l-.11-3.592a3.956,3.956,0,0,1-3.1-1.148c-2.067-2.1-2.319-6.659-2.242-8.236l-3.59-.184c-.016.294-.334,7.259,3.258,10.929A7.491,7.491,0,0,0-256.533,127.145Z" transform="translate(265.3 -113.98)" fill="#e599a9"/></g><g transform="translate(86.796 191.006)"><path d="M-222.934,180.915c.055-.077.11-.156.162-.233l-2.977-2.014a3.955,3.955,0,0,1-2.745,1.838c-2.917.444-6.755-2.017-7.99-3l-2.249,2.8c.229.186,5.69,4.521,10.769,3.756A7.494,7.494,0,0,0-222.934,180.915Z" transform="translate(238.733 -177.504)" fill="#e599a9"/></g><path d="M-44.271,181.12a2.3,2.3,0,0,0,2.3,2.3,2.3,2.3,0,0,0,2.3-2.3,2.3,2.3,0,0,0-2.3-2.3A2.3,2.3,0,0,0-44.271,181.12Z" transform="translate(259.281 13.209)" fill="#e599a9"/><path d="M-152.956,149.581a2.3,2.3,0,0,0,2.3,2.3,2.3,2.3,0,0,0,2.3-2.3,2.3,2.3,0,0,0-2.3-2.3A2.3,2.3,0,0,0-152.956,149.581Z" transform="translate(296.571 20.225)" fill="#e599a9"/><path d="M-176.94,243.251a3.169,3.169,0,0,0,3.169,3.168,3.168,3.168,0,0,0,3.168-3.168,3.169,3.169,0,0,0-3.168-3.169A3.17,3.17,0,0,0-176.94,243.251Z" transform="translate(304.697 -0.419)" fill="#e599a9"/><path d="M-311.855,121.539a3.169,3.169,0,0,0,3.169,3.168,3.168,3.168,0,0,0,3.168-3.168,3.168,3.168,0,0,0-3.168-3.168A3.169,3.169,0,0,0-311.855,121.539Z" transform="translate(358.294 26.656)" fill="#e599a9"/><path d="M36.183,201.319a2.3,2.3,0,1,0,2.3-2.3A2.3,2.3,0,0,0,36.183,201.319Z" transform="translate(231.678 8.716)" fill="#e599a9"/><g transform="translate(32.668 93.658)"><path d="M-320.8,65.471c.1,0,.191,0,.286,0l-.111-3.592a3.952,3.952,0,0,1-3.1-1.15c-2.068-2.1-2.32-6.658-2.242-8.235l-3.59-.184c-.016.295-.334,7.26,3.259,10.93A7.489,7.489,0,0,0-320.8,65.471Z" transform="translate(329.565 -52.305)" fill="#e599a9"/></g><g transform="translate(44.03 28.164)"><path d="M-304.213-31.659c-.029-.089-.06-.18-.093-.268l-3.381,1.218a3.959,3.959,0,0,1-.132,3.3c-1.36,2.619-5.612,4.269-7.135,4.685l.938,3.469c.285-.077,7.006-1.932,9.38-6.486A7.487,7.487,0,0,0-304.213-31.659Z" transform="translate(314.953 31.927)" fill="#e599a9"/></g><circle cx="2.301" cy="2.301" r="2.301" transform="translate(47.307 63.563)" fill="#e599a9"/><path d="M-259.479,34.082a3.169,3.169,0,0,0,3.168,3.168,3.168,3.168,0,0,0,3.169-3.168,3.168,3.168,0,0,0-3.169-3.168A3.168,3.168,0,0,0-259.479,34.082Z" transform="translate(333.059 46.112)" fill="#e599a9"/><path d="M-254.289-18.648a2.3,2.3,0,0,0,2.3,2.3,2.3,2.3,0,0,0,2.3-2.3,2.3,2.3,0,0,0-2.3-2.3A2.3,2.3,0,0,0-254.289-18.648Z" transform="translate(331.338 57.649)" fill="#e599a9"/><g transform="translate(0 49.189)"><path d="M-371.348-3.481c-.077.054-.155.108-.232.164l2.123,2.9a3.954,3.954,0,0,1,3.2-.8c2.9.567,5.678,4.18,6.507,5.525l3.065-1.879c-.155-.25-3.829-6.176-8.868-7.171A7.5,7.5,0,0,0-371.348-3.481Z" transform="translate(371.58 4.887)" fill="#e599a9"/></g><path d="M-285.074-56.832a3.168,3.168,0,0,0,3.168,3.168,3.168,3.168,0,0,0,3.169-3.168A3.168,3.168,0,0,0-281.906-60,3.168,3.168,0,0,0-285.074-56.832Z" transform="translate(352.336 66.336)" fill="#e599a9"/><g transform="translate(14.897 2.921)"><path d="M-343.653-51.226c.094,0,.191,0,.286,0l-.111-3.592a3.954,3.954,0,0,1-3.1-1.149c-2.068-2.1-2.321-6.659-2.243-8.235l-3.59-.185c-.016.295-.334,7.26,3.259,10.93A7.491,7.491,0,0,0-343.653-51.226Z" transform="translate(352.42 64.392)" fill="#e599a9"/></g><g transform="translate(93.814 2.921)"><path d="M-219.7-51.226c.094,0,.19,0,.285,0l-.111-3.592a3.954,3.954,0,0,1-3.1-1.149c-2.067-2.1-2.321-6.659-2.243-8.235l-3.59-.185c-.016.295-.334,7.26,3.259,10.93A7.491,7.491,0,0,0-219.7-51.226Z" transform="translate(228.469 64.392)" fill="#e599a9"/></g><g transform="translate(131.627)"><path d="M-159.846-67.881c-.029-.089-.06-.18-.093-.268l-3.381,1.218a3.956,3.956,0,0,1-.132,3.3c-1.36,2.618-5.612,4.269-7.135,4.685l.938,3.469c.285-.076,7.006-1.931,9.381-6.485A7.49,7.49,0,0,0-159.846-67.881Z" transform="translate(170.586 68.149)" fill="#e599a9"/></g><path d="M-120.124-48.366a3.168,3.168,0,0,0,3.168,3.168,3.168,3.168,0,0,0,3.169-3.168,3.169,3.169,0,0,0-3.169-3.168A3.168,3.168,0,0,0-120.124-48.366Z" transform="translate(285.173 64.453)" fill="#e599a9"/><path d="M-29.112-22.973A3.169,3.169,0,0,1-32.279-19.8a3.168,3.168,0,0,1-3.168-3.169,3.167,3.167,0,0,1,3.168-3.168A3.168,3.168,0,0,1-29.112-22.973Z" transform="translate(256.076 58.804)" fill="#e599a9"/><g transform="translate(284.814 28.164)"><path d="M74.354-31.659c.029-.089.061-.18.093-.268l3.382,1.218a3.957,3.957,0,0,0,.132,3.3c1.359,2.619,5.612,4.269,7.135,4.685l-.938,3.469c-.284-.077-7.006-1.932-9.38-6.486A7.487,7.487,0,0,1,74.354-31.659Z" transform="translate(-73.939 31.927)" fill="#e599a9"/></g><path d="M26.306-18.648a2.3,2.3,0,0,1-2.3,2.3,2.3,2.3,0,0,1-2.3-2.3,2.3,2.3,0,0,1,2.3-2.3A2.3,2.3,0,0,1,26.306-18.648Z" transform="translate(236.646 57.649)" fill="#e599a9"/><g transform="translate(325.103 49.189)"><path d="M140.419-3.481c.078.054.155.108.232.164l-2.122,2.9a3.955,3.955,0,0,0-3.2-.8c-2.895.567-5.678,4.18-6.506,5.525l-3.064-1.879c.154-.25,3.829-6.176,8.867-7.171A7.5,7.5,0,0,1,140.419-3.481Z" transform="translate(-125.754 4.887)" fill="#e599a9"/></g><path d="M56.595-56.832a3.168,3.168,0,0,1-3.168,3.168,3.168,3.168,0,0,1-3.169-3.168A3.168,3.168,0,0,1,53.427-60,3.168,3.168,0,0,1,56.595-56.832Z" transform="translate(216.144 66.336)" fill="#e599a9"/><g transform="translate(316.049 2.921)"><path d="M114.4-51.226c-.095,0-.19,0-.286,0l.111-3.592a3.954,3.954,0,0,0,3.1-1.149c2.067-2.1,2.321-6.659,2.243-8.235l3.59-.185c.016.295.334,7.26-3.259,10.93A7.491,7.491,0,0,1,114.4-51.226Z" transform="translate(-114.109 64.392)" fill="#e599a9"/></g><g transform="translate(237.132 2.921)"><path d="M-9.557-51.226c-.094,0-.19,0-.285,0l.111-3.592a3.954,3.954,0,0,0,3.1-1.149c2.067-2.1,2.321-6.659,2.243-8.235l3.59-.185c.016.295.334,7.26-3.259,10.93A7.491,7.491,0,0,1-9.557-51.226Z" transform="translate(9.842 64.392)" fill="#e599a9"/></g><g transform="translate(197.217)"><path d="M-70.014-67.881c.03-.089.061-.18.093-.268l3.382,1.218a3.954,3.954,0,0,0,.132,3.3c1.359,2.618,5.612,4.269,7.135,4.685l-.938,3.469c-.284-.076-7.006-1.931-9.381-6.485A7.494,7.494,0,0,1-70.014-67.881Z" transform="translate(70.429 68.149)" fill="#e599a9"/></g><path d="M83.375,18.61a3.168,3.168,0,1,1-3.168-3.168A3.168,3.168,0,0,1,83.375,18.61Z" transform="translate(210.186 49.554)" fill="#e599a9"/><path d="M88.287,78.012a2.3,2.3,0,1,0,2.3-2.3A2.3,2.3,0,0,0,88.287,78.012Z" transform="translate(207.684 36.146)" fill="#e599a9"/><g transform="translate(277.366 154.905)"><path d="M64.591,132.481c-.078.053-.156.109-.232.165l2.122,2.9a3.954,3.954,0,0,1,3.2-.8c2.895.566,5.678,4.18,6.506,5.525l3.065-1.879c-.155-.251-3.829-6.176-8.868-7.171A7.492,7.492,0,0,0,64.591,132.481Z" transform="translate(-64.359 -131.075)" fill="#e599a9"/></g></g></g></svg>