<svg width="35" height="36" viewBox="0 0 35 36" fill="none" xmlns="http://www.w3.org/2000/svg">
<path opacity="0.1" d="M17.5315 35.6237C27.1254 35.6237 34.9028 27.8463 34.9028 18.2523C34.9028 8.65831 27.1254 0.880859 17.5315 0.880859C7.93755 0.880859 0.160156 8.65831 0.160156 18.2523C0.160156 27.8463 7.93755 35.6237 17.5315 35.6237Z" fill="#E03249"/>
<path d="M27.4691 11.3216C27.051 10.9021 26.5542 10.5692 26.0072 10.3421C25.4603 10.115 24.8738 9.99805 24.2816 9.99805C23.6893 9.99805 23.1029 10.115 22.5559 10.3421C22.0089 10.5692 21.5121 10.9021 21.0941 11.3216L22.1591 12.3866C22.4383 12.1074 22.7698 11.8859 23.1346 11.7348C23.4994 11.5837 23.8904 11.5059 24.2853 11.5059C24.6802 11.5059 25.0712 11.5837 25.436 11.7348C25.8008 11.8859 26.1323 12.1074 26.4116 12.3866C26.6908 12.6658 26.9123 12.9973 27.0634 13.3621C27.2145 13.7269 27.2923 14.118 27.2923 14.5128C27.2923 14.9077 27.2145 15.2987 27.0634 15.6636C26.9123 16.0284 26.6908 16.3599 26.4116 16.6391L20.4116 22.6391C19.8486 23.203 19.0848 23.5202 18.288 23.5209C17.4912 23.5216 16.7267 23.2058 16.1628 22.6428C15.5989 22.0799 15.2817 21.316 15.281 20.5192C15.2803 19.7225 15.5961 18.958 16.1591 18.3941L17.2166 17.3291L16.1591 16.2641L15.0941 17.3291C14.6745 17.7472 14.3417 18.2439 14.1145 18.7909C13.8874 19.3379 13.7705 19.9243 13.7705 20.5166C13.7705 21.1089 13.8874 21.6953 14.1145 22.2423C14.3417 22.7893 14.6745 23.286 15.0941 23.7041C15.9427 24.5418 17.0891 25.0085 18.2816 25.0016C18.8761 25.004 19.4652 24.8886 20.0149 24.6621C20.5646 24.4355 21.0639 24.1023 21.4841 23.6816L27.4841 17.6816C28.3248 16.8359 28.7954 15.691 28.7926 14.4985C28.7898 13.306 28.3138 12.1634 27.4691 11.3216Z" fill="#D01830"/>
<path d="M8.6736 24.8678C8.39355 24.589 8.17132 24.2577 8.01968 23.8928C7.86804 23.5279 7.78998 23.1367 7.78998 22.7415C7.78998 22.3464 7.86804 21.9552 8.01968 21.5903C8.17132 21.2254 8.39355 20.8941 8.6736 20.6153L14.6736 14.6153C14.9524 14.3352 15.2837 14.113 15.6486 13.9614C16.0135 13.8097 16.4047 13.7317 16.7999 13.7317C17.195 13.7317 17.5862 13.8097 17.9511 13.9614C18.316 14.113 18.6473 14.3352 18.9261 14.6153C19.2044 14.8962 19.4235 15.2302 19.5703 15.5974C19.7172 15.9645 19.7889 16.3574 19.7811 16.7528C19.7834 17.1494 19.707 17.5425 19.5564 17.9094C19.4058 18.2763 19.1839 18.6097 18.9036 18.8903L17.3136 20.5028L18.3786 21.5678L19.9686 19.9778C20.815 19.1314 21.2905 17.9835 21.2905 16.7865C21.2905 15.5896 20.815 14.4417 19.9686 13.5953C19.1222 12.7489 17.9743 12.2734 16.7774 12.2734C15.5804 12.2734 14.4325 12.7489 13.5861 13.5953L7.5861 19.5953C7.16546 20.0135 6.83164 20.5107 6.60385 21.0584C6.37606 21.6061 6.25879 22.1934 6.25879 22.7865C6.25879 23.3797 6.37606 23.967 6.60385 24.5147C6.83164 25.0624 7.16546 25.5596 7.5861 25.9778C8.44022 26.8092 9.58928 27.2677 10.7811 27.2528C11.9834 27.2539 13.1374 26.7794 13.9911 25.9328L12.9261 24.8678C12.6473 25.1479 12.316 25.3701 11.9511 25.5217C11.5862 25.6734 11.195 25.7514 10.7999 25.7514C10.4047 25.7514 10.0135 25.6734 9.64858 25.5217C9.2837 25.3701 8.95236 25.1479 8.6736 24.8678Z" fill="#D01830"/>
</svg>
