<svg xmlns="http://www.w3.org/2000/svg" width="32" height="32" viewBox="0 0 32 32"><g transform="translate(-797 -1122)"><circle cx="16" cy="16" r="16" transform="translate(797 1122)" fill="#e03249"/><path d="M17.041,6.942,9.4,4.6a2.187,2.187,0,0,0-1.281,0L.484,6.942a.645.645,0,0,0,0,1.248L1.815,8.6a2.158,2.158,0,0,0-.49,1.284.845.845,0,0,0-.07,1.452l-.7,3.146a.438.438,0,0,0,.427.533H2.521a.438.438,0,0,0,.428-.533l-.7-3.146A.843.843,0,0,0,2.2,9.9a1.292,1.292,0,0,1,.567-1.005l5.355,1.645a2.19,2.19,0,0,0,1.281,0l7.638-2.347a.645.645,0,0,0,0-1.249ZM9.66,11.375a3.065,3.065,0,0,1-1.8,0l-3.971-1.22L3.5,13.262c0,.968,2.354,1.752,5.257,1.752s5.257-.784,5.257-1.752l-.388-3.107L9.66,11.375Z" transform="translate(804.619 1128.167)" fill="#fff"/></g></svg>