<svg width="29" height="29" viewBox="0 0 29 29" fill="none" xmlns="http://www.w3.org/2000/svg">
<circle cx="14.5" cy="14.5" r="14.5" fill="white"/>
<circle cx="14.5" cy="14.5" r="14.5" fill="#A32FAD"/>
<g clip-path="url(#clip0_453_2499)">
<path d="M12.3579 11.3934C12.553 11.5886 12.553 11.905 12.3579 12.1002L10.4838 13.9744C10.3901 14.0681 10.2629 14.1208 10.1303 14.1208C9.99782 14.1208 9.87064 14.0681 9.77694 13.9744L8.65244 12.8499C8.45733 12.6547 8.45733 12.3383 8.65244 12.1431C8.84766 11.948 9.16404 11.948 9.35927 12.1431L10.1303 12.9142L11.6511 11.3934C11.8463 11.1983 12.1627 11.1983 12.3579 11.3934Z" fill="white"/>
<path d="M14.0036 12.2471C13.7276 12.2471 13.5038 12.4709 13.5038 12.7468C13.5038 13.0228 13.7276 13.2466 14.0036 13.2466H19.0013C19.2773 13.2466 19.5011 13.0228 19.5011 12.7468C19.5011 12.4709 19.2773 12.2471 19.0013 12.2471H14.0036Z" fill="white"/>
<path d="M13.5038 17.7439C13.5038 17.4679 13.7276 17.2441 14.0036 17.2441H19.0013C19.2773 17.2441 19.5011 17.4679 19.5011 17.7439C19.5011 18.0199 19.2773 18.2437 19.0013 18.2437H14.0036C13.7276 18.2437 13.5038 18.0199 13.5038 17.7439Z" fill="white"/>
<path d="M12.3579 17.0983C12.553 16.9031 12.553 16.5867 12.3579 16.3915C12.1627 16.1963 11.8463 16.1963 11.6511 16.3915L10.1303 17.9122L9.35927 17.1411C9.16404 16.946 8.84767 16.946 8.65244 17.1411C8.45733 17.3363 8.45733 17.6527 8.65244 17.8479L9.77694 18.9724C9.87064 19.0661 9.99782 19.1188 10.1303 19.1188C10.2629 19.1188 10.3901 19.0661 10.4838 18.9724L12.3579 17.0983Z" fill="white"/>
<path fill-rule="evenodd" clip-rule="evenodd" d="M6.00708 21.7426C6.00708 22.5706 6.67832 23.2419 7.50641 23.2419H20.5006C21.3287 23.2419 21.9999 22.5706 21.9999 21.7426V8.74835C21.9999 7.92027 21.3287 7.24902 20.5006 7.24902H7.50641C6.67832 7.24902 6.00708 7.92027 6.00708 8.74835V21.7426ZM7.50641 22.2423C7.23042 22.2423 7.00663 22.0185 7.00663 21.7426V8.74835C7.00663 8.47236 7.23042 8.24858 7.50641 8.24858H20.5006C20.7766 8.24858 21.0004 8.47236 21.0004 8.74835V21.7426C21.0004 22.0185 20.7766 22.2423 20.5006 22.2423H7.50641Z" fill="white"/>
</g>
<defs>
<clipPath id="clip0_453_2499">
<rect width="16" height="16" fill="white" transform="translate(6 7.24902)"/>
</clipPath>
</defs>
</svg>
