<svg width="24" height="24" viewBox="0 0 24 24" fill="none" xmlns="http://www.w3.org/2000/svg">
<path d="M19.7789 21.9016L17.5237 19.6464L17.3772 19.5H17.1701H6.00014C5.17628 19.5 4.50014 18.8239 4.50014 18V15.5H5.50014V18V18.5H6.00014H15.1701H16.3739L15.5244 17.6471L12.9444 15.0571L12.5908 14.7022L12.2366 15.0564L12.0001 15.2929L7.70423 10.997L7.9367 10.7605L8.28423 10.407L7.93369 10.0564L2.0985 4.22125L2.80889 3.51586L19.0566 19.7636L20.4843 21.1912L19.7789 21.9016ZM19.0372 15.5H19.5001V15.9629L19.0372 15.5ZM16.293 11L15.4114 11.8816L14.7071 11.1724L15.589 10.296L16.293 11ZM11.5001 4.5H12.5001V8.96289L11.5001 7.96289V4.5Z" fill="black" stroke="black"/>
</svg>
