<svg width="60" height="40" viewBox="0 0 60 40" fill="none" xmlns="http://www.w3.org/2000/svg">
<g clip-path="url(#clip0)">
<rect width="60" height="40" fill="white"/>
<circle cx="30" cy="12" r="12" fill="#4C78DA"/>
<path d="M36 12.0001H32.8574V6H28.1426V12.0001H25L30.5 19L36 12.0001Z" fill="white"/>
<path d="M1.0343 38V31H2.9643C4.0243 31 4.88096 31.31 5.5343 31.93C6.1943 32.55 6.5243 33.4067 6.5243 34.5C6.5243 35.5933 6.1943 36.45 5.5343 37.07C4.88096 37.69 4.0243 38 2.9643 38H1.0343ZM2.9143 37.26C3.76096 37.26 4.43096 37.03 4.9243 36.57C5.41763 36.11 5.6643 35.42 5.6643 34.5C5.6643 33.58 5.41763 32.89 4.9243 32.43C4.43096 31.97 3.76096 31.74 2.9143 31.74H1.8743V37.26H2.9143ZM12.2879 34.1C12.5546 34.5067 12.6879 34.98 12.6879 35.52C12.6879 36.06 12.5546 36.5333 12.2879 36.94C12.0279 37.3467 11.7046 37.65 11.3179 37.85C10.9312 38.0433 10.5246 38.14 10.0979 38.14C9.67122 38.14 9.26456 38.0433 8.87789 37.85C8.49122 37.65 8.16456 37.3467 7.89789 36.94C7.63789 36.5333 7.50789 36.06 7.50789 35.52C7.50789 34.98 7.63789 34.5067 7.89789 34.1C8.16456 33.6933 8.49122 33.3933 8.87789 33.2C9.26456 33 9.67122 32.9 10.0979 32.9C10.5246 32.9 10.9312 33 11.3179 33.2C11.7046 33.3933 12.0279 33.6933 12.2879 34.1ZM8.81789 36.9C9.16456 37.26 9.59122 37.44 10.0979 37.44C10.6046 37.44 11.0279 37.26 11.3679 36.9C11.7146 36.5333 11.8879 36.0733 11.8879 35.52C11.8879 34.9667 11.7146 34.51 11.3679 34.15C11.0279 33.7833 10.6046 33.6 10.0979 33.6C9.59122 33.6 9.16456 33.7833 8.81789 34.15C8.47789 34.51 8.30789 34.9667 8.30789 35.52C8.30789 36.0733 8.47789 36.5333 8.81789 36.9ZM16.7868 33.04L17.9068 37.02L18.9168 33.04H19.7168L18.3168 38H17.4768L16.3768 33.96L15.2768 38H14.4368L13.0368 33.04H13.8368L14.8468 37.02L15.9668 33.04H16.7868ZM24.7332 34.63V38H23.9532V34.77C23.9532 34.39 23.8432 34.1 23.6232 33.9C23.4099 33.7 23.1232 33.6 22.7632 33.6C22.3699 33.6 22.0299 33.7533 21.7432 34.06C21.4632 34.36 21.3232 34.7567 21.3232 35.25V38H20.5432V33.04H21.3232V33.91C21.5032 33.5967 21.7365 33.35 22.0232 33.17C22.3165 32.99 22.6399 32.9 22.9932 32.9C23.4799 32.9 23.8899 33.0467 24.2232 33.34C24.5632 33.6267 24.7332 34.0567 24.7332 34.63ZM26.1389 38V31H26.9189V38H26.1389ZM32.8836 34.1C33.1503 34.5067 33.2836 34.98 33.2836 35.52C33.2836 36.06 33.1503 36.5333 32.8836 36.94C32.6236 37.3467 32.3003 37.65 31.9136 37.85C31.5269 38.0433 31.1203 38.14 30.6936 38.14C30.2669 38.14 29.8603 38.0433 29.4736 37.85C29.0869 37.65 28.7603 37.3467 28.4936 36.94C28.2336 36.5333 28.1036 36.06 28.1036 35.52C28.1036 34.98 28.2336 34.5067 28.4936 34.1C28.7603 33.6933 29.0869 33.3933 29.4736 33.2C29.8603 33 30.2669 32.9 30.6936 32.9C31.1203 32.9 31.5269 33 31.9136 33.2C32.3003 33.3933 32.6236 33.6933 32.8836 34.1ZM29.4136 36.9C29.7603 37.26 30.1869 37.44 30.6936 37.44C31.2003 37.44 31.6236 37.26 31.9636 36.9C32.3103 36.5333 32.4836 36.0733 32.4836 35.52C32.4836 34.9667 32.3103 34.51 31.9636 34.15C31.6236 33.7833 31.2003 33.6 30.6936 33.6C30.1869 33.6 29.7603 33.7833 29.4136 34.15C29.0736 34.51 28.9036 34.9667 28.9036 35.52C28.9036 36.0733 29.0736 36.5333 29.4136 36.9ZM38.6006 38H37.8206C37.6206 37.76 37.5206 37.4333 37.5206 37.02C37.3673 37.38 37.1406 37.6567 36.8406 37.85C36.5473 38.0433 36.2106 38.14 35.8306 38.14C35.3306 38.14 34.9273 38 34.6206 37.72C34.314 37.4333 34.1606 37.07 34.1606 36.63C34.1606 36.1767 34.3173 35.8133 34.6306 35.54C34.9506 35.2667 35.364 35.09 35.8706 35.01L37.5206 34.74V34.52C37.5206 33.88 37.1306 33.56 36.3506 33.56C35.9773 33.56 35.6873 33.6333 35.4806 33.78C35.2806 33.9267 35.1806 34.11 35.1806 34.33C35.1806 34.3767 35.1873 34.4267 35.2006 34.48L34.5206 34.71C34.4673 34.5833 34.4406 34.45 34.4406 34.31C34.4406 33.9233 34.614 33.5933 34.9606 33.32C35.314 33.04 35.7773 32.9 36.3506 32.9C36.9906 32.9 37.474 33.0433 37.8006 33.33C38.134 33.61 38.3006 34.0067 38.3006 34.52V36.76C38.3006 37.0467 38.3206 37.2767 38.3606 37.45C38.4006 37.6167 38.4806 37.8 38.6006 38ZM35.9206 37.44C36.4206 37.44 36.8106 37.2533 37.0906 36.88C37.3773 36.5 37.5206 36.0433 37.5206 35.51V35.36L36.0106 35.62C35.6706 35.68 35.4106 35.7933 35.2306 35.96C35.0506 36.1267 34.9606 36.3367 34.9606 36.59C34.9606 36.85 35.0473 37.0567 35.2206 37.21C35.394 37.3633 35.6273 37.44 35.9206 37.44ZM44.3217 31V38H43.5417V37.11C43.1484 37.7967 42.5784 38.14 41.8317 38.14C41.1384 38.14 40.5651 37.8967 40.1117 37.41C39.6584 36.9167 39.4317 36.2867 39.4317 35.52C39.4317 34.7733 39.6651 34.15 40.1317 33.65C40.5984 33.15 41.1484 32.9 41.7817 32.9C42.1884 32.9 42.5451 32.9933 42.8517 33.18C43.1584 33.36 43.3884 33.6133 43.5417 33.94V31H44.3217ZM40.7117 36.9C41.0384 37.2467 41.4417 37.42 41.9217 37.42C42.4017 37.42 42.8017 37.2467 43.1217 36.9C43.4417 36.5467 43.6017 36.0867 43.6017 35.52C43.6017 34.9533 43.4417 34.4967 43.1217 34.15C42.8017 33.7967 42.4017 33.62 41.9217 33.62C41.4417 33.62 41.0384 33.7967 40.7117 34.15C40.3917 34.4967 40.2317 34.9533 40.2317 35.52C40.2317 36.0867 40.3917 36.5467 40.7117 36.9ZM45.8459 38V33.04H46.6259V38H45.8459ZM45.7659 32.18V31.2H46.7059V32.18H45.7659ZM52.3406 34.63V38H51.5606V34.77C51.5606 34.39 51.4506 34.1 51.2306 33.9C51.0173 33.7 50.7306 33.6 50.3706 33.6C49.9773 33.6 49.6373 33.7533 49.3506 34.06C49.0706 34.36 48.9306 34.7567 48.9306 35.25V38H48.1506V33.04H48.9306V33.91C49.1106 33.5967 49.344 33.35 49.6306 33.17C49.924 32.99 50.2473 32.9 50.6006 32.9C51.0873 32.9 51.4973 33.0467 51.8306 33.34C52.1706 33.6267 52.3406 34.0567 52.3406 34.63ZM53.7766 38.23L54.5166 38.44C54.4699 38.54 54.4466 38.65 54.4466 38.77C54.4466 38.99 54.5632 39.1633 54.7966 39.29C55.0299 39.4167 55.3632 39.48 55.7966 39.48C56.8566 39.48 57.3866 38.9033 57.3866 37.75V36.9C57.2199 37.22 56.9899 37.47 56.6966 37.65C56.4099 37.83 56.0832 37.92 55.7166 37.92C55.0566 37.92 54.5032 37.69 54.0566 37.23C53.6166 36.7633 53.3966 36.1567 53.3966 35.41C53.3966 34.6367 53.6166 34.0267 54.0566 33.58C54.4966 33.1267 55.0399 32.9 55.6866 32.9C56.0799 32.9 56.4266 32.9933 56.7266 33.18C57.0332 33.36 57.2532 33.61 57.3866 33.93V33.04H58.1666V37.74C58.1666 38.5067 57.9599 39.1033 57.5466 39.53C57.1332 39.9633 56.5499 40.18 55.7966 40.18C55.1099 40.18 54.5832 40.0467 54.2166 39.78C53.8499 39.52 53.6666 39.1733 53.6666 38.74C53.6666 38.5333 53.7032 38.3633 53.7766 38.23ZM56.9766 34.09C56.6699 33.7633 56.2799 33.6 55.8066 33.6C55.3332 33.6 54.9466 33.7633 54.6466 34.09C54.3466 34.4167 54.1966 34.8567 54.1966 35.41C54.1966 35.9633 54.3466 36.4033 54.6466 36.73C54.9466 37.0567 55.3332 37.22 55.8066 37.22C56.2799 37.22 56.6699 37.0567 56.9766 36.73C57.2899 36.4033 57.4466 35.9633 57.4466 35.41C57.4466 34.8567 57.2899 34.4167 56.9766 34.09Z" fill="black"/>
</g>
<defs>
<clipPath id="clip0">
<rect width="60" height="40" fill="white"/>
</clipPath>
</defs>
</svg>
