<svg width="60" height="40" viewBox="0 0 60 40" fill="none" xmlns="http://www.w3.org/2000/svg">
<rect width="60" height="40" fill="white"/>
<path d="M2.02551 38V31H3.95551C5.01551 31 5.87217 31.31 6.52551 31.93C7.18551 32.55 7.51551 33.4067 7.51551 34.5C7.51551 35.5933 7.18551 36.45 6.52551 37.07C5.87217 37.69 5.01551 38 3.95551 38H2.02551ZM3.90551 37.26C4.75217 37.26 5.42217 37.03 5.91551 36.57C6.40884 36.11 6.65551 35.42 6.65551 34.5C6.65551 33.58 6.40884 32.89 5.91551 32.43C5.42217 31.97 4.75217 31.74 3.90551 31.74H2.86551V37.26H3.90551ZM13.2791 34.1C13.5458 34.5067 13.6791 34.98 13.6791 35.52C13.6791 36.06 13.5458 36.5333 13.2791 36.94C13.0191 37.3467 12.6958 37.65 12.3091 37.85C11.9224 38.0433 11.5158 38.14 11.0891 38.14C10.6624 38.14 10.2558 38.0433 9.8691 37.85C9.48243 37.65 9.15577 37.3467 8.8891 36.94C8.6291 36.5333 8.4991 36.06 8.4991 35.52C8.4991 34.98 8.6291 34.5067 8.8891 34.1C9.15577 33.6933 9.48243 33.3933 9.8691 33.2C10.2558 33 10.6624 32.9 11.0891 32.9C11.5158 32.9 11.9224 33 12.3091 33.2C12.6958 33.3933 13.0191 33.6933 13.2791 34.1ZM9.8091 36.9C10.1558 37.26 10.5824 37.44 11.0891 37.44C11.5958 37.44 12.0191 37.26 12.3591 36.9C12.7058 36.5333 12.8791 36.0733 12.8791 35.52C12.8791 34.9667 12.7058 34.51 12.3591 34.15C12.0191 33.7833 11.5958 33.6 11.0891 33.6C10.5824 33.6 10.1558 33.7833 9.8091 34.15C9.4691 34.51 9.2991 34.9667 9.2991 35.52C9.2991 36.0733 9.4691 36.5333 9.8091 36.9ZM17.778 33.04L18.898 37.02L19.908 33.04H20.708L19.308 38H18.468L17.368 33.96L16.268 38H15.428L14.028 33.04H14.828L15.838 37.02L16.958 33.04H17.778ZM25.7244 34.63V38H24.9444V34.77C24.9444 34.39 24.8344 34.1 24.6144 33.9C24.4011 33.7 24.1144 33.6 23.7544 33.6C23.3611 33.6 23.0211 33.7533 22.7344 34.06C22.4544 34.36 22.3144 34.7567 22.3144 35.25V38H21.5344V33.04H22.3144V33.91C22.4944 33.5967 22.7277 33.35 23.0144 33.17C23.3077 32.99 23.6311 32.9 23.9844 32.9C24.4711 32.9 24.8811 33.0467 25.2144 33.34C25.5544 33.6267 25.7244 34.0567 25.7244 34.63ZM27.1301 38V31H27.9101V38H27.1301ZM33.8748 34.1C34.1415 34.5067 34.2748 34.98 34.2748 35.52C34.2748 36.06 34.1415 36.5333 33.8748 36.94C33.6148 37.3467 33.2915 37.65 32.9048 37.85C32.5181 38.0433 32.1115 38.14 31.6848 38.14C31.2581 38.14 30.8515 38.0433 30.4648 37.85C30.0781 37.65 29.7515 37.3467 29.4848 36.94C29.2248 36.5333 29.0948 36.06 29.0948 35.52C29.0948 34.98 29.2248 34.5067 29.4848 34.1C29.7515 33.6933 30.0781 33.3933 30.4648 33.2C30.8515 33 31.2581 32.9 31.6848 32.9C32.1115 32.9 32.5181 33 32.9048 33.2C33.2915 33.3933 33.6148 33.6933 33.8748 34.1ZM30.4048 36.9C30.7515 37.26 31.1781 37.44 31.6848 37.44C32.1915 37.44 32.6148 37.26 32.9548 36.9C33.3015 36.5333 33.4748 36.0733 33.4748 35.52C33.4748 34.9667 33.3015 34.51 32.9548 34.15C32.6148 33.7833 32.1915 33.6 31.6848 33.6C31.1781 33.6 30.7515 33.7833 30.4048 34.15C30.0648 34.51 29.8948 34.9667 29.8948 35.52C29.8948 36.0733 30.0648 36.5333 30.4048 36.9ZM39.5918 38H38.8118C38.6118 37.76 38.5118 37.4333 38.5118 37.02C38.3585 37.38 38.1318 37.6567 37.8318 37.85C37.5385 38.0433 37.2018 38.14 36.8218 38.14C36.3218 38.14 35.9185 38 35.6118 37.72C35.3052 37.4333 35.1518 37.07 35.1518 36.63C35.1518 36.1767 35.3085 35.8133 35.6218 35.54C35.9418 35.2667 36.3552 35.09 36.8618 35.01L38.5118 34.74V34.52C38.5118 33.88 38.1218 33.56 37.3418 33.56C36.9685 33.56 36.6785 33.6333 36.4718 33.78C36.2718 33.9267 36.1718 34.11 36.1718 34.33C36.1718 34.3767 36.1785 34.4267 36.1918 34.48L35.5118 34.71C35.4585 34.5833 35.4318 34.45 35.4318 34.31C35.4318 33.9233 35.6052 33.5933 35.9518 33.32C36.3052 33.04 36.7685 32.9 37.3418 32.9C37.9818 32.9 38.4652 33.0433 38.7918 33.33C39.1252 33.61 39.2918 34.0067 39.2918 34.52V36.76C39.2918 37.0467 39.3118 37.2767 39.3518 37.45C39.3918 37.6167 39.4718 37.8 39.5918 38ZM36.9118 37.44C37.4118 37.44 37.8018 37.2533 38.0818 36.88C38.3685 36.5 38.5118 36.0433 38.5118 35.51V35.36L37.0018 35.62C36.6618 35.68 36.4018 35.7933 36.2218 35.96C36.0418 36.1267 35.9518 36.3367 35.9518 36.59C35.9518 36.85 36.0385 37.0567 36.2118 37.21C36.3852 37.3633 36.6185 37.44 36.9118 37.44ZM45.3129 31V38H44.5329V37.11C44.1396 37.7967 43.5696 38.14 42.8229 38.14C42.1296 38.14 41.5563 37.8967 41.1029 37.41C40.6496 36.9167 40.4229 36.2867 40.4229 35.52C40.4229 34.7733 40.6563 34.15 41.1229 33.65C41.5896 33.15 42.1396 32.9 42.7729 32.9C43.1796 32.9 43.5363 32.9933 43.8429 33.18C44.1496 33.36 44.3796 33.6133 44.5329 33.94V31H45.3129ZM41.7029 36.9C42.0296 37.2467 42.4329 37.42 42.9129 37.42C43.3929 37.42 43.7929 37.2467 44.1129 36.9C44.4329 36.5467 44.5929 36.0867 44.5929 35.52C44.5929 34.9533 44.4329 34.4967 44.1129 34.15C43.7929 33.7967 43.3929 33.62 42.9129 33.62C42.4329 33.62 42.0296 33.7967 41.7029 34.15C41.3829 34.4967 41.2229 34.9533 41.2229 35.52C41.2229 36.0867 41.3829 36.5467 41.7029 36.9ZM51.3771 35.65H47.2771C47.3038 36.1833 47.4705 36.6233 47.7771 36.97C48.0838 37.31 48.4871 37.48 48.9871 37.48C49.4071 37.48 49.7438 37.3833 49.9971 37.19C50.2571 36.99 50.4771 36.71 50.6571 36.35L51.2271 36.69C50.7405 37.6567 49.9838 38.14 48.9571 38.14C48.2705 38.14 47.6871 37.8933 47.2071 37.4C46.7338 36.9 46.4971 36.2733 46.4971 35.52C46.4971 34.7667 46.7371 34.1433 47.2171 33.65C47.6971 33.15 48.2871 32.9 48.9871 32.9C49.7205 32.9 50.3005 33.13 50.7271 33.59C51.1605 34.05 51.3771 34.6467 51.3771 35.38V35.65ZM48.9871 33.56C48.5538 33.56 48.1938 33.6933 47.9071 33.96C47.6205 34.22 47.4305 34.57 47.3371 35.01H50.5971C50.5705 34.5633 50.3971 34.21 50.0771 33.95C49.7571 33.69 49.3938 33.56 48.9871 33.56ZM57.0903 31V38H56.3103V37.11C55.9169 37.7967 55.3469 38.14 54.6003 38.14C53.9069 38.14 53.3336 37.8967 52.8803 37.41C52.4269 36.9167 52.2003 36.2867 52.2003 35.52C52.2003 34.7733 52.4336 34.15 52.9003 33.65C53.3669 33.15 53.9169 32.9 54.5503 32.9C54.9569 32.9 55.3136 32.9933 55.6203 33.18C55.9269 33.36 56.1569 33.6133 56.3103 33.94V31H57.0903ZM53.4803 36.9C53.8069 37.2467 54.2103 37.42 54.6903 37.42C55.1703 37.42 55.5703 37.2467 55.8903 36.9C56.2103 36.5467 56.3703 36.0867 56.3703 35.52C56.3703 34.9533 56.2103 34.4967 55.8903 34.15C55.5703 33.7967 55.1703 33.62 54.6903 33.62C54.2103 33.62 53.8069 33.7967 53.4803 34.15C53.1603 34.4967 53.0003 34.9533 53.0003 35.52C53.0003 36.0867 53.1603 36.5467 53.4803 36.9Z" fill="black"/>
<circle cx="30" cy="12" r="12" fill="#031D25"/>
<path d="M28.916 16.895L24 11.541L25.588 9.811L28.916 13.353L34.832 7L36.421 8.73L28.916 16.895Z" fill="white"/>
</svg>
