<svg width="21" height="21" viewBox="0 0 21 21" fill="none" xmlns="http://www.w3.org/2000/svg">
<path d="M6 11L8.64645 13.6464C8.84171 13.8417 9.15829 13.8417 9.35355 13.6464L15 8" stroke="#0BD684" stroke-width="2" stroke-linecap="round"/>
<path d="M10.5 1.25211e-07C16.299 1.94364e-07 21 4.70101 21 10.5C21 16.299 16.299 21 10.5 21C4.70101 21 5.6059e-08 16.299 1.25211e-07 10.5C1.94364e-07 4.70101 4.70101 5.6059e-08 10.5 1.25211e-07ZM10.5 19.5299C15.4871 19.5299 19.5299 15.4871 19.5299 10.5C19.5299 5.51294 15.4871 1.47013 10.5 1.47013C5.51294 1.47013 1.47013 5.51294 1.47013 10.5C1.47013 15.4871 5.51294 19.5299 10.5 19.5299Z" fill="#0BD684"/>
</svg>
