<svg width="21" height="21" viewBox="0 0 21 21" fill="none" xmlns="http://www.w3.org/2000/svg">
<path d="M4.97 3.7277C6.265 2.66895 7.86625 1.96895 9.625 1.79395V3.56145C8.3475 3.71895 7.18375 4.22645 6.2125 4.97895L4.97 3.7277ZM3.56125 9.62519H1.79375C1.96875 7.86644 2.66875 6.2652 3.7275 4.9702L4.97875 6.2127C4.22625 7.18395 3.71875 8.34769 3.56125 9.62519ZM4.97875 14.7877L3.7275 16.0389C2.66875 14.7439 1.96875 13.1339 1.79375 11.3839H3.56125C3.71875 12.6527 4.22625 13.8164 4.97875 14.7877ZM9.625 17.4389V19.2064C7.86625 19.0314 6.265 18.3314 4.97 17.2727L6.22125 16.0214C7.18375 16.7739 8.3475 17.2814 9.625 17.4389ZM9.625 10.5002V6.1252H11.375V10.5002H14.875L10.5 14.8752L6.125 10.5002H9.625ZM11.375 17.4389V19.2064C15.7938 18.7689 19.25 15.0414 19.25 10.5002C19.25 5.95894 15.7938 2.23145 11.375 1.79395V3.56145C14.8312 3.9902 17.5 6.93019 17.5 10.5002C17.5 14.0702 14.8312 17.0102 11.375 17.4389Z" fill="#0BD684"/>
<path d="M11.3711 19.2148C13.5357 18.94 15.5821 18.0477 17.0226 16.4088C18.4631 14.7698 19.2552 12.661 19.25 10.479C19.2448 8.29697 18.4425 6.19202 16.9942 4.55997C15.5459 2.92792 13.5512 2.06921 11.3852 1.80469V3.55859C13.1669 3.95494 14.3497 4.48619 15.6583 5.74547C16.8176 7.05182 17.4597 8.7367 17.4639 10.4833C17.4681 12.2299 16.8341 13.9178 15.681 15.2297C14.4499 16.4743 13.2192 17.1465 11.3711 17.4531V19.2148Z" fill="#0BD684"/>
</svg>
