<svg width="25" height="25" viewBox="0 0 25 25" fill="none" xmlns="http://www.w3.org/2000/svg">
<path d="M16.7072 9.99707H15.1172V4.99707C15.1172 4.44707 14.6672 3.99707 14.1172 3.99707H10.1172C9.56725 3.99707 9.11725 4.44707 9.11725 4.99707V9.99707H7.52725C6.63725 9.99707 6.18725 11.0771 6.81725 11.7071L11.4072 16.2971C11.7972 16.6871 12.4272 16.6871 12.8172 16.2971L17.4072 11.7071C18.0372 11.0771 17.5972 9.99707 16.7072 9.99707ZM5.11725 19.9971C5.11725 20.5471 5.56725 20.9971 6.11725 20.9971H18.1172C18.6672 20.9971 19.1172 20.5471 19.1172 19.9971C19.1172 19.4471 18.6672 18.9971 18.1172 18.9971H6.11725C5.56725 18.9971 5.11725 19.4471 5.11725 19.9971Z" fill="#E03249"/>
</svg>
