<svg xmlns="http://www.w3.org/2000/svg" width="36.344" height="35.51" viewBox="0 0 36.344 35.51"><g transform="translate(-4535.492 -408.493)"><path d="M4567.3,408.493a4.79,4.79,0,0,1,4.537,4.617,1.319,1.319,0,0,0-.082.749q-.006,12.385,0,24.77a1.387,1.387,0,0,0,.078.751,4.9,4.9,0,0,1-5.065,4.612c-4.6.017-9.2.005-13.8.005-4.164,0-8.327.018-12.491-.008a4.894,4.894,0,0,1-4.98-4.611,1.5,1.5,0,0,0,.073-.753q0-12.381,0-24.762a1.434,1.434,0,0,0-.077-.752,4.8,4.8,0,0,1,4.531-4.617,6,6,0,0,0,1.544,0q12.094.02,24.189,0A5.861,5.861,0,0,0,4567.3,408.493Z" fill="#375997"/><path d="M4550.868,433.151c0-1.7-.022-3.411.012-5.115.012-.551-.131-.762-.723-.731-.871.046-1.748-.014-2.62.021-.545.023-.7-.175-.685-.689.036-1.051.048-2.1,0-3.154-.03-.6.213-.715.754-.693.872.035,1.748-.013,2.62.018.487.017.672-.126.655-.623-.034-.965-.025-1.932-.006-2.9.075-3.684,2.247-5.8,6.018-5.839.989-.011,1.978.047,2.967.08.448.015.656.206.636.692-.039.936-.032,1.876,0,2.813.015.485-.17.656-.658.643-.756-.02-1.515-.016-2.27.023a1.674,1.674,0,0,0-1.843,1.741c-.054.935,0,1.875-.032,2.812-.015.483.234.559.648.553,1.107-.017,2.214.008,3.32-.012.464-.008.681.056.581.61-.193,1.061-.32,2.137-.423,3.211-.051.527-.231.748-.807.715-.842-.047-1.691.021-2.533-.023-.609-.033-.8.165-.792.765.026,3.325-.013,6.651.031,9.976.011.779-.192,1.048-1.01.993-1.043-.071-2.1-.041-3.143-.008-.533.017-.71-.154-.7-.679C4550.885,436.619,4550.868,434.885,4550.868,433.151Z" fill="#fdfdfd"/></g></svg>