<svg xmlns="http://www.w3.org/2000/svg" xmlns:xlink="http://www.w3.org/1999/xlink" width="308" height="234" viewBox="0 0 308 234"><defs><clipPath id="a"><path d="M14102.233,13167H14040v-44h23.356a118.6,118.6,0,0,1-12.357-53c0-62.961,48.354-114,108-114s108,51.041,108,114a118.585,118.585,0,0,1-12.357,53H14272v44h-56.232a103.279,103.279,0,0,1-113.534,0Z" transform="translate(-13052 -11946)" fill="#fff" stroke="#707070" stroke-width="1"/></clipPath></defs><g transform="translate(-953 -1005)"><path d="M10,0H298a10,10,0,0,1,10,10V232a0,0,0,0,1,0,0H0a0,0,0,0,1,0,0V10A10,10,0,0,1,10,0Z" transform="translate(953 1005)" fill="#f5f6fa"/><rect width="308" height="18" transform="translate(953 1221)" fill="#fff"/><g clip-path="url(#a)"><g transform="translate(1020.347 1028.018)"><path d="M692.2,386.348v92.815l-106.971-2V384.346Z" transform="translate(-550.976 -285.226)" fill="#421800"/><path d="M698.835,354.983V385.83c0,.541-.012,1.083-.024,1.624-.012.443-.023.873-.049,1.316q-.018.59-.074,1.181c-.012.284-.037.566-.062.85-.011.171-.023.332-.049.5-.025.307-.05.627-.1.936-.05.59-.124,1.168-.21,1.759-.011.147-.037.295-.061.443-.037.295-.085.59-.136.885v.037c-.073.431-.146.849-.221,1.279-.11.592-.222,1.181-.345,1.76-.011.025-.011.05-.023.073a2.092,2.092,0,0,1-.049.259c-.012.025-.012.049-.025.074-.061.319-.135.627-.209.935a2.371,2.371,0,0,1-.1.406c-.037.223-.1.443-.146.666-.038.121-.063.257-.112.38-.023.112-.061.222-.086.321-.259,1.009-.554,1.993-.861,2.977-.147.467-.294.923-.455,1.391-.011.049-.038.1-.05.147-.146.419-.3.837-.442,1.255-.05.122-.1.245-.147.381-.149.394-.3.787-.456,1.181-.185.48-.383.948-.577,1.416-.174.418-.357.837-.542,1.254-.024.074-.062.136-.085.21-.21.443-.407.885-.615,1.317-.21.456-.431.911-.666,1.367-.443.9-.922,1.8-1.4,2.669l-.664,1.181a72.211,72.211,0,0,1-6.289,9.155q-.46.609-.959,1.181c-.455.554-.922,1.1-1.39,1.624-.394.443-.8.9-1.218,1.328a.266.266,0,0,1-.05.063q-1.77,1.9-3.617,3.6c-.247.246-.506.468-.764.7-.417.382-.836.75-1.268,1.109-.332.294-.677.578-1.021.86-.886.727-1.771,1.428-2.669,2.08-.369.283-.75.554-1.131.812-.616.443-1.244.862-1.872,1.267-.343.234-.7.456-1.058.665-1.254.774-2.521,1.489-3.776,2.1-.307.159-.615.308-.923.455s-.628.3-.959.443c-.406.186-.813.357-1.219.517a3.734,3.734,0,0,1-.48.184c-.479.2-.972.382-1.452.542-.6.221-1.218.406-1.821.578-.417.124-.848.233-1.268.333a.173.173,0,0,1-.085.024c-.418.1-.837.2-1.255.271a3.165,3.165,0,0,1-.331.063c-.346.061-.69.123-1.034.159-.493.075-.984.135-1.476.161a3.483,3.483,0,0,1-.5.037c-.394.023-.776.037-1.158.037h-.049c-.38,0-.762-.014-1.145-.037a2.668,2.668,0,0,1-.442-.037c-.345-.012-.7-.049-1.07-.1a1.565,1.565,0,0,1-.235-.025c-.455-.061-.91-.135-1.377-.221-.394-.061-.787-.147-1.194-.247a35.355,35.355,0,0,1-6.459-2.177,47.136,47.136,0,0,1-5.647-2.978c-.948-.579-1.895-1.194-2.831-1.846-.467-.332-.935-.664-1.4-1.009q-2.2-1.6-4.342-3.494c-.4-.357-.788-.713-1.184-1.082s-.786-.727-1.167-1.083c-.91-.874-1.8-1.772-2.646-2.719a1.953,1.953,0,0,1-.159-.16q-.538-.573-1.071-1.181c-.983-1.107-1.943-2.251-2.854-3.446-.356-.43-.69-.874-1.021-1.316-1.242-1.649-2.424-3.371-3.531-5.156-.3-.48-.592-.972-.875-1.452-.344-.578-.676-1.169-1.008-1.759a67.34,67.34,0,0,1-3.348-6.891c-.146-.345-.3-.688-.417-1.032-.2-.443-.37-.9-.528-1.342q-.37-.978-.7-1.957c-.222-.652-.431-1.316-.639-1.981-.2-.64-.381-1.279-.554-1.931-.2-.689-.382-1.391-.541-2.1-.013-.074-.038-.148-.05-.221q-.352-1.477-.628-2.991c-.245-1.328-.443-2.682-.59-4.047-.062-.431-.1-.862-.135-1.293-.05-.455-.086-.9-.112-1.354-.061-.824-.1-1.661-.123-2.5-.012-.542-.024-1.083-.024-1.624V354.983a50.1,50.1,0,0,1,47.346-50.018.54.54,0,0,1,.136-.012l1.034-.037c.515-.012,1.021-.025,1.537-.025h.049c.531,0,1.06.013,1.588.025.406.012.812.024,1.219.049h.035a50.659,50.659,0,0,1,8.257,1.156,50.114,50.114,0,0,1,38.98,48.417C698.835,354.687,698.835,354.835,698.835,354.983Z" transform="translate(-561.568 -300.859)" fill="#f0d0b4"/><path d="M716.5,504.613v.013H585.965v-.013a64.9,64.9,0,0,1,3.42-20.893c.025-.061.037-.122.063-.184q.606-1.79,1.327-3.544v-.012c.469-1.169.984-2.313,1.526-3.446a64.484,64.484,0,0,1,7.949-12.674c.788-.972,1.587-1.92,2.411-2.829.406-.468.837-.923,1.268-1.379s.86-.886,1.3-1.329a64.748,64.748,0,0,1,7.051-6.078c1.242-.923,2.5-1.785,3.8-2.621.172-.111.345-.221.517-.319.48-.308.959-.6,1.452-.887.664-.393,1.34-.774,2.018-1.144a.073.073,0,0,1,.049-.024c.529-.283,1.046-.591,1.563-.91a38.813,38.813,0,0,0,4.417-3.077,41.157,41.157,0,0,0,15.577-32.3l9.51.05h.161l9.623.049a41.568,41.568,0,0,0,.615,7.149,40.652,40.652,0,0,0,1.735,6.631,41.208,41.208,0,0,0,13.117,18.432,33.266,33.266,0,0,0,2.73,2.018c.1.073.184.135.284.2.442.3.886.591,1.354.862.5.307,1.021.615,1.538.9a.628.628,0,0,1,.221.11c1.083.6,2.152,1.23,3.2,1.883a2.605,2.605,0,0,1,.246.16c.417.259.849.529,1.254.824,1.021.651,2.018,1.366,2.991,2.1a.012.012,0,0,0,.012.012h.012c1.244.923,2.449,1.908,3.63,2.917s2.313,2.066,3.408,3.161a65,65,0,0,1,19.183,46.19Z" transform="translate(-564.063 -279.989)" fill="#f0d0b4"/><path d="M716.5,499.306H585.965a64.9,64.9,0,0,1,3.42-20.893c.025-.061.037-.122.063-.185q.606-1.79,1.327-3.543v-.012c.469-1.169.984-2.313,1.526-3.445a64.473,64.473,0,0,1,7.949-12.674c.788-.972,1.587-1.92,2.411-2.829.406-.468.837-.923,1.268-1.379s.86-.886,1.3-1.329a64.75,64.75,0,0,1,7.051-6.078c1.242-.922,2.5-1.784,3.8-2.621.172-.111.345-.221.517-.32.48-.308.959-.6,1.452-.887.664-.406,1.34-.787,2.018-1.156a.042.042,0,0,1,.049-.013v-.012c.529-.294,1.046-.59,1.563-.9a38.392,38.392,0,0,0,4.393-3.1l.024.024a35.067,35.067,0,0,0,25.087,10.595h.161a35.128,35.128,0,0,0,25.089-10.582l.012-.013a33.05,33.05,0,0,0,2.719,2.031c.1.073.184.135.284.2.442.3.9.58,1.354.862.5.307,1.021.6,1.538.885a1.319,1.319,0,0,1,.221.111c1.083.6,2.152,1.23,3.2,1.895a2.516,2.516,0,0,1,.246.161c.417.258.849.529,1.254.824,1.021.651,2.018,1.366,2.991,2.1h.023c1.244.935,2.462,1.906,3.63,2.928s2.313,2.067,3.408,3.162a65,65,0,0,1,19.183,46.19Z" transform="translate(-564.063 -274.683)" fill="#d42525"/><path d="M580.387,490.043a1.05,1.05,0,0,0,.282.086c6.473,1.685,31.991-29.068,32.25-61.308a59.848,59.848,0,0,0-.457-7.826c-.86-6.952-4.208-13.634-6.987-20.365-2.191-5.327-4.048-10.668-4.048-16.18,0-29.532,8.563-19.91,32.446-35.845,5.771-3.839,9.868-6.989,13.079-9.548,8.871-7.038,11.123-9.562,23.292-9.562,15.478,0,21.63,26.887,23.39,38.379,1.9,12.366,1.919,32.412-5.8,51.5-5.978,14.789-5.98,29.286,5.8,45.393,4.417,6.042,11.184,26.456,19.587,33.038,2.621,2.055,5.39,2.77,8.3,1.281,22.961-11.751,9.144-49.467,2.253-73.079-7.419-25.41-9.659-51.164-15.048-76.82-6.078-28.891-30.811-46.5-40.8-39.363-3.336-5.981-12.059-8.22-20.979-8.22a52.346,52.346,0,0,0-17.916,3.052c-36.482,14.163-37.1,47.977-39.041,62.041-1.6,11.616-7.321,22.469-9.327,33.937v.037a43.127,43.127,0,0,0-.7,7.359c-.087,13.425,1.415,22.505-8.786,33.69C563.444,450.2,569.363,485.208,580.387,490.043Z" transform="translate(-564.298 -301.616)" fill="#421800"/><g transform="translate(52.541 163.25)"><path d="M646.313,448.552l-.039.061-.011.025a17.8,17.8,0,0,1-28.018,2.522L611.566,444c1.131-.726,2.289-1.4,3.47-2.043a.043.043,0,0,1,.049-.013v-.012c.528-.294,1.045-.59,1.562-.9a38.307,38.307,0,0,0,4.393-3.1l.024.024a35.07,35.07,0,0,0,25.088,10.595Z" transform="translate(-611.566 -437.933)" fill="#d42525"/><path d="M675.262,444.094l-6.583,7.062a17.8,17.8,0,0,1-28.018-2.522l-.011-.025-.049-.061a35.124,35.124,0,0,0,25.088-10.582l.012-.013a32.943,32.943,0,0,0,2.719,2.031c.1.073.184.135.284.2.442.295.9.579,1.354.861.5.307,1.021.6,1.537.886a1.236,1.236,0,0,1,.222.111c1.083.6,2.152,1.23,3.2,1.895A2.581,2.581,0,0,1,675.262,444.094Z" transform="translate(-605.854 -437.929)" fill="#d42525"/></g><path d="M639.576,301.6,638.212,522.95l-38.4-10.239-14.107-17.158v-.012a58.547,58.547,0,0,1,2.818-18.046h-3.548v-6.429c-2.159,1.775-4.44,2.392-6.842,1.106-18.916-10.15-7.532-42.726-1.856-63.12,6.113-21.946,7.958-44.191,12.4-66.351,5.008-24.954,25.384-40.163,33.614-34C625.04,303.536,632.227,301.6,639.576,301.6Z" transform="translate(-552.92 -301.616)" fill="#f0d0b4" opacity="0.5" style="mix-blend-mode:multiply;isolation:isolate"/><path d="M89.646,16.568S19.067,46.251,25.032,97.2,3.5,68.836,3.5,68.836l21.53-46.22L101.1,3.191Z" transform="translate(20.84 6.062)" fill="#421800"/></g></g></g></svg>