<svg xmlns="http://www.w3.org/2000/svg" xmlns:xlink="http://www.w3.org/1999/xlink" width="32" height="32" viewBox="0 0 32 32"><defs><clipPath id="a"><circle cx="16" cy="16" r="16" transform="translate(0.142)" fill="#d2dce5"/></clipPath></defs><g transform="translate(-506.6 -249.504)"><g transform="translate(507.458 249.504)"><circle cx="16" cy="16" r="16" transform="translate(-0.858 0)" fill="#d2dce5"/><g transform="translate(-1 0)" clip-path="url(#a)"><g transform="translate(5.306 3.698)"><path d="M602.47,384.64v13.61l-17.245-.293v-13.61Z" transform="translate(-582.491 -371.464)" fill="#421800"/><path d="M611.677,311.409v4.013c0,.07,0,.141,0,.211s0,.114-.006.171,0,.1-.01.154,0,.074-.008.111,0,.043-.006.066c0,.04-.006.082-.013.122-.006.077-.016.152-.027.229,0,.019,0,.038-.008.058,0,.038-.011.077-.018.115v0c-.01.056-.019.11-.029.166-.014.077-.029.154-.045.229,0,0,0,.007,0,.01a.272.272,0,0,1-.006.034s0,.006,0,.01c-.008.042-.018.082-.027.122a.308.308,0,0,1-.013.053c0,.029-.013.058-.019.087s-.008.033-.015.049-.008.029-.011.042c-.034.131-.072.259-.112.387-.019.061-.038.12-.059.181,0,.006,0,.013-.006.019l-.057.163c-.006.016-.013.032-.019.05-.019.051-.039.1-.059.154s-.05.123-.075.184-.047.109-.071.163c0,.01-.008.018-.011.027-.027.058-.053.115-.08.171s-.056.118-.087.178c-.058.117-.12.234-.182.347l-.086.154a9.4,9.4,0,0,1-.818,1.191q-.06.079-.125.154c-.059.072-.12.142-.181.211s-.1.117-.158.173l-.006.008q-.23.247-.471.469c-.032.032-.066.061-.1.091-.054.05-.109.1-.165.144s-.088.075-.133.112c-.115.095-.23.186-.347.271-.048.037-.1.072-.147.106-.08.058-.162.112-.244.165-.045.03-.091.059-.138.087-.163.1-.328.194-.491.274-.04.021-.08.04-.12.059l-.125.058c-.053.024-.106.046-.159.067a.479.479,0,0,1-.062.024c-.062.026-.126.05-.189.071-.078.029-.158.053-.237.075-.054.016-.11.03-.165.043a.023.023,0,0,1-.011,0c-.054.013-.109.026-.163.035a.409.409,0,0,1-.043.008c-.045.008-.09.016-.135.021-.064.01-.128.018-.192.021a.454.454,0,0,1-.066,0c-.051,0-.1,0-.151,0h-.006c-.049,0-.1,0-.149,0a.348.348,0,0,1-.057,0c-.045,0-.091-.006-.139-.013a.2.2,0,0,1-.031,0c-.059-.008-.118-.018-.179-.029s-.1-.019-.155-.032a4.6,4.6,0,0,1-.84-.283,6.139,6.139,0,0,1-.735-.387c-.123-.075-.246-.155-.368-.24-.061-.043-.122-.086-.182-.131q-.286-.209-.565-.455l-.154-.141-.152-.141c-.118-.114-.234-.231-.344-.354a.254.254,0,0,1-.021-.021q-.07-.075-.139-.154c-.128-.144-.253-.293-.371-.448-.046-.056-.09-.114-.133-.171-.162-.215-.315-.439-.459-.671-.039-.062-.077-.126-.114-.189s-.088-.152-.131-.229a8.766,8.766,0,0,1-.436-.9c-.019-.045-.038-.089-.054-.134s-.048-.117-.069-.175q-.048-.127-.091-.255c-.029-.085-.056-.171-.083-.258s-.05-.166-.072-.251-.05-.181-.07-.274c0-.01,0-.019-.006-.029q-.046-.192-.082-.389c-.032-.173-.058-.349-.077-.526-.008-.056-.013-.112-.018-.168s-.011-.117-.015-.176c-.008-.107-.013-.216-.016-.325,0-.07,0-.141,0-.211v-4.013a6.517,6.517,0,0,1,6.16-6.507l.018,0,.135,0c.067,0,.133,0,.2,0h.006c.069,0,.138,0,.207,0,.053,0,.106,0,.159.006h0a6.586,6.586,0,0,1,1.074.15,6.52,6.52,0,0,1,5.071,6.3C611.677,311.37,611.677,311.389,611.677,311.409Z" transform="translate(-593.819 -304.38)" fill="#f0d0b4"/><path d="M602.947,423.148v0H585.965v0a8.444,8.444,0,0,1,.445-2.718c0-.008,0-.016.008-.024q.079-.233.173-.461v0c.061-.152.128-.3.2-.448a8.386,8.386,0,0,1,1.034-1.649c.1-.126.206-.25.314-.368.053-.061.109-.12.165-.179s.112-.115.17-.173a8.42,8.42,0,0,1,.917-.791c.162-.12.325-.232.495-.341.022-.014.045-.029.067-.042.062-.04.125-.078.189-.115.086-.051.174-.1.263-.149a.01.01,0,0,1,.006,0c.069-.037.136-.077.2-.118a5.05,5.05,0,0,0,.575-.4,5.354,5.354,0,0,0,2.027-4.2l1.237.006h.021l1.252.006a5.407,5.407,0,0,0,.08.93,5.288,5.288,0,0,0,.226.863,5.361,5.361,0,0,0,1.706,2.4,4.322,4.322,0,0,0,.355.263l.037.026c.058.038.115.077.176.112s.133.08.2.117a.082.082,0,0,1,.029.014q.211.118.416.245l.032.021c.054.034.11.069.163.107.133.085.262.178.389.274a0,0,0,0,0,0,0h0c.162.12.319.248.472.379s.3.269.443.411a8.456,8.456,0,0,1,2.5,6.009Z" transform="translate(-583.116 -393.938)" fill="#f0d0b4"/><path d="M602.947,445.918H585.965a8.444,8.444,0,0,1,.445-2.718c0-.008,0-.016.008-.024q.079-.233.173-.461v0c.061-.152.128-.3.2-.448a8.386,8.386,0,0,1,1.034-1.649c.1-.126.206-.25.314-.368.053-.061.109-.12.165-.179s.112-.115.17-.173a8.42,8.42,0,0,1,.917-.791c.162-.12.325-.232.495-.341l.067-.042c.062-.04.125-.078.189-.115.086-.053.174-.1.263-.15a.005.005,0,0,1,.006,0v0c.069-.038.136-.077.2-.117a5,5,0,0,0,.571-.4l0,0a4.562,4.562,0,0,0,3.264,1.378h.021a4.57,4.57,0,0,0,3.264-1.377l0,0a4.284,4.284,0,0,0,.354.264c.013.009.024.018.037.026.058.038.117.075.176.112s.133.078.2.115a.173.173,0,0,1,.029.014c.141.078.28.16.416.247l.032.021c.054.034.11.069.163.107.133.085.262.178.389.274h0c.162.122.32.248.472.381s.3.269.443.411a8.456,8.456,0,0,1,2.5,6.009Z" transform="translate(-583.116 -416.707)" fill="#d42525"/><path d="M569.322,326.118a.136.136,0,0,0,.037.011c.842.219,4.162-3.782,4.2-7.976a7.784,7.784,0,0,0-.059-1.018,10.693,10.693,0,0,0-.909-2.649,5.609,5.609,0,0,1-.527-2.1c0-3.842,1.114-2.59,4.221-4.663.751-.5,1.284-.909,1.7-1.242,1.154-.916,1.447-1.244,3.03-1.244,2.014,0,2.814,3.5,3.043,4.993a13.289,13.289,0,0,1-.754,6.7,5.617,5.617,0,0,0,.754,5.905c.575.786,1.455,3.442,2.548,4.3a.949.949,0,0,0,1.08.167c2.987-1.529,1.19-6.435.293-9.507-.965-3.306-1.257-6.656-1.958-9.994-.791-3.759-4.008-6.05-5.308-5.121a3.055,3.055,0,0,0-2.729-1.069,6.81,6.81,0,0,0-2.331.4c-4.746,1.843-4.826,6.242-5.079,8.071-.208,1.511-.953,2.923-1.213,4.415v0a5.61,5.61,0,0,0-.091.957c-.011,1.747.184,2.928-1.143,4.383C567.118,320.934,567.888,325.489,569.322,326.118Z" transform="translate(-567.23 -301.616)" fill="#421800"/><g transform="translate(6.835 21.226)"><path d="M616.087,439.315l-.005.008v0a2.316,2.316,0,0,1-3.645.328l-.869-.932c.147-.094.3-.183.451-.266a.006.006,0,0,1,.006,0v0c.069-.038.136-.077.2-.117a4.993,4.993,0,0,0,.572-.4l0,0a4.563,4.563,0,0,0,3.264,1.378Z" transform="translate(-611.566 -437.933)" fill="#d42525"/><path d="M645.109,438.752l-.857.919a2.316,2.316,0,0,1-3.645-.328v0l-.006-.008a4.57,4.57,0,0,0,3.264-1.377v0a4.286,4.286,0,0,0,.354.264c.013.009.024.018.037.026.058.038.117.075.176.112s.133.078.2.115a.161.161,0,0,1,.029.014c.141.078.28.16.416.246Z" transform="translate(-636.08 -437.95)" fill="#d42525"/></g><path d="M578.941,301.6v29H570.5v0a8.385,8.385,0,0,1,.442-2.7h-.556v-.961a.943.943,0,0,1-1.073.165c-2.966-1.518-1.181-6.389-.291-9.439.958-3.282,1.248-6.608,1.944-9.922.785-3.732,3.98-6.006,5.27-5.084A3.033,3.033,0,0,1,578.941,301.6Z" transform="translate(-567.668 -299.283)" fill="#f0d0b4" opacity="0.5" style="mix-blend-mode:multiply;isolation:isolate"/><path d="M14.709,4.932S5.527,8.793,6.3,15.421s-2.8-3.69-2.8-3.69L6.3,5.719l9.9-2.527Z" transform="translate(-0.336 -2)" fill="#421800"/></g></g></g></g></svg>