<svg xmlns="http://www.w3.org/2000/svg" width="371.43" height="461.671" viewBox="0 0 371.43 461.671"><g transform="translate(-342.999 -137)"><g transform="translate(301.422 174.143)"><g transform="translate(55.526 51.647)"><g transform="translate(73.97 95.11)"><path d="M183.531,219.932a20.573,20.573,0,1,0-.243-32.292l-.006,0-4.513-3.509-6.7,2.089.767-6.7-5.655-4.4-6.7,2.089.768-6.7-4.861-3.779L152.3,168l.468-4.084-2.829-2.2-6.415.633-.863,9.86,33.625,26.14A20.577,20.577,0,0,0,183.531,219.932Zm24.5-7.015a5.9,5.9,0,1,1-1.038-8.281A5.9,5.9,0,0,1,208.027,212.917Z" transform="translate(-142.661 -161.716)" fill="#ebebeb"/></g><g transform="translate(110.34 56.729)"><path d="M216.075,135.574a11.015,11.015,0,1,0-17.287-.29l0,0-1.937,2.37,1.032,3.615-3.577-.5-2.427,2.969,1.032,3.614-3.578-.5-2.086,2.553.629,2.2-2.18-.3-1.213,1.486.256,3.443,5.266.59,14.428-17.659A11.02,11.02,0,0,0,216.075,135.574Zm-3.437-13.2a3.16,3.16,0,1,1-4.446.448A3.16,3.16,0,0,1,212.637,122.371Z" transform="translate(-184.478 -117.589)" fill="#ebebeb"/></g><g transform="translate(0.435)"><path d="M153.1,52.364V116.2H61.418l-3.3-63.385Z" transform="translate(-58.115 -52.364)" fill="#e0e0e0"/></g><g transform="translate(0 0.012)"><rect width="63.25" height="91.679" transform="translate(0.435 63.685) rotate(-90)" fill="#fff"/><path d="M150.164,116.5H57.615V52.378h92.549Zm-91.679-.87h90.809V53.248H58.485Z" transform="translate(-57.615 -52.378)" fill="#e0e0e0"/></g><g transform="translate(10.138 8.096)"><g transform="translate(0.226 0.209)"><rect width="71.82" height="47.534" fill="#fff"/></g><path d="M141.318,61.882s-.124.008-.354.012l-1.022.012L136,61.931l-14.8.056-51.7.1.208-.208c.006,14.523.012,30.615.019,47.528v.005l-.227-.226,71.82.046-.181.18c.04-14.465.072-26.325.095-34.584.02-4.128.036-7.353.046-9.564q.013-1.639.02-2.513c.007-.57.02-.872.02-.872s.013.277.019.834c.005.574.011,1.4.02,2.48.011,2.2.026,5.413.046,9.523.023,8.285.056,20.185.095,34.7v.181h-.181l-71.82.046h-.226v-.232c.007-16.913.013-33,.018-47.528v-.209H69.5l51.837.1,14.753.056,3.9.025,1,.012C141.211,61.874,141.318,61.882,141.318,61.882Z" transform="translate(-69.271 -61.673)" fill="#e0e0e0"/></g><g transform="translate(0.433 0.265)"><path d="M58.115,52.673a7.7,7.7,0,0,1,1.576,1.02c.938.678,2.215,1.639,3.594,2.741s2.593,2.148,3.447,2.93a7.389,7.389,0,0,1,1.312,1.344c-.085.1-2.289-1.722-5.042-3.92A49.93,49.93,0,0,1,58.115,52.673Z" transform="translate(-58.113 -52.669)" fill="#e0e0e0"/></g><g transform="translate(82.182 0.443)"><path d="M162.035,52.877a44.393,44.393,0,0,1-4.824,4.106,44.391,44.391,0,0,1-5.105,3.752,44.309,44.309,0,0,1,4.825-4.107A44.39,44.39,0,0,1,162.035,52.877Z" transform="translate(-152.104 -52.873)" fill="#e0e0e0"/></g><g transform="translate(81.817 55.418)"><g transform="translate(0.002 0.004)"><path d="M161.908,124.369l-10.222-8.284" transform="translate(-151.686 -116.085)" fill="#fff"/></g><path d="M151.686,116.084a47.882,47.882,0,0,1,5.253,3.966,48.06,48.06,0,0,1,4.969,4.318,47.883,47.883,0,0,1-5.254-3.967A48.161,48.161,0,0,1,151.686,116.084Z" transform="translate(-151.684 -116.081)" fill="#e0e0e0"/></g><g transform="translate(0.433 55.92)"><path d="M58.115,124.435a43.536,43.536,0,0,1,4.773-4.064,43.434,43.434,0,0,1,5.055-3.709,43.727,43.727,0,0,1-4.774,4.064A43.721,43.721,0,0,1,58.115,124.435Z" transform="translate(-58.113 -116.658)" fill="#e0e0e0"/></g><g transform="translate(24.947 23.114)"><rect width="15.916" height="45.19" transform="translate(0 15.916) rotate(-90)" fill="#e0e0e0"/></g></g><g transform="translate(44.872 413.968)"><path d="M379.027,469.166c0,.125-74.7.226-166.823.226-92.156,0-166.839-.1-166.839-.226s74.683-.226,166.839-.226C304.329,468.94,379.027,469.041,379.027,469.166Z" transform="translate(-45.365 -468.94)" fill="#263238"/></g><g transform="translate(53.144 193.17)"><g transform="translate(0 0)"><g transform="translate(0 43.829)"><g transform="translate(255.634 145.001)"><path d="M348.789,432.889,370.32,464.2l7.7.181L363.9,432.185Z" transform="translate(-348.789 -432.185)" fill="#263238"/></g><g transform="translate(17.134 147.306)"><path d="M85.918,434.835,74.575,464.4h5.671l19.811-29.436Z" transform="translate(-74.575 -434.835)" fill="#263238"/></g><g transform="translate(23.611 1.694)"><path d="M82.03,305.586l.831,38.256a10.113,10.113,0,0,0,9.885,9.89L306.873,358.5a10.111,10.111,0,0,0,10.337-10.109V302.3A27.23,27.23,0,0,0,293.7,275.315c-39.2-5.39-120.047-13.68-185.384-1.9A31.978,31.978,0,0,0,82.03,305.586Z" transform="translate(-82.022 -267.419)" fill="#e8505b"/></g><g transform="translate(0 48.871)"><path d="M77.532,326.018s-17.641-8.164-21.249,0,.4,18.188,4.41,23.8,3.944,74.573,3.944,74.573l267.517-2.859,3.17-66.338s12.83-15.8,12.028-22.616-11.627-16.731-24.056-6.561-15.636,31.418-15.636,31.418l-213.29,1.6S95.076,329.179,77.532,326.018Z" transform="translate(-54.876 -321.66)" fill="#e8505b"/></g><g transform="translate(38.374 97.67)"><path d="M310.682,377.992c0,.125-47.391.227-105.838.227-58.467,0-105.848-.1-105.848-.227s47.381-.226,105.848-.226C263.291,377.766,310.682,377.868,310.682,377.992Z" transform="translate(-98.996 -377.766)" fill="#263238"/></g><g transform="translate(21.397 52.687)"><path d="M96.454,400.455a.727.727,0,0,1-.025-.21c-.007-.166-.016-.368-.026-.616-.021-.542-.038-1.341-.047-2.369-.005-2.1-.012-5.064-.022-8.713-.01-7.355.052-17.519-.283-28.731a122.5,122.5,0,0,0-1.224-15.728q-.234-.864-.46-1.706c-.218-.546-.43-1.09-.659-1.615-.459-1.05-.929-2.061-1.442-3.007a31.773,31.773,0,0,0-3.256-5.008,23.4,23.4,0,0,0-3.455-3.5,18.311,18.311,0,0,0-3.127-2.012,31.584,31.584,0,0,0-2.951-1.187.774.774,0,0,1,.207.039l.6.157a13.35,13.35,0,0,1,2.225.833,17.729,17.729,0,0,1,3.206,1.971,23.128,23.128,0,0,1,3.547,3.5,31.6,31.6,0,0,1,3.339,5.032c.525.952,1.005,1.968,1.476,3.026.235.529.451,1.074.675,1.626q.24.873.488,1.769A118.412,118.412,0,0,1,96.5,359.8c.336,11.227.223,21.392.151,28.747-.051,3.649-.093,6.615-.123,8.712q-.025,1.5-.039,2.368l-.017.616A.752.752,0,0,1,96.454,400.455Z" transform="translate(-79.477 -326.048)" fill="#263238"/></g><g transform="translate(18.228 68.175)"><path d="M78.175,344.306a1.283,1.283,0,0,1,.711-.221,2.951,2.951,0,0,1,1.962.547,2.994,2.994,0,0,1,.957,1.083,2.718,2.718,0,0,1,.255,1.653,3.237,3.237,0,0,1-2.5,2.668,3.3,3.3,0,0,1-3.3-1.576,2.894,2.894,0,0,1-.423-1.613,3.317,3.317,0,0,1,1.853-2.8,1.36,1.36,0,0,1,.722-.182c.01.039-.246.1-.639.337a3.3,3.3,0,0,0-1.263,1.4,2.688,2.688,0,0,0,.105,2.639,2.922,2.922,0,0,0,2.867,1.349,2.851,2.851,0,0,0,2.168-2.289,2.468,2.468,0,0,0-.989-2.411,2.966,2.966,0,0,0-1.765-.63C78.439,344.259,78.187,344.346,78.175,344.306Z" transform="translate(-75.833 -343.855)" fill="#263238"/></g><g transform="translate(19.325 74.199)"><path d="M79.552,362.376a4.153,4.153,0,0,1-1.209-1.426,8.532,8.532,0,0,1-.1-8.712,4.14,4.14,0,0,1,1.176-1.454c.058.047-.4.6-.893,1.606a9.139,9.139,0,0,0,.1,8.4C79.142,361.79,79.609,362.327,79.552,362.376Z" transform="translate(-77.094 -350.781)" fill="#263238"/></g><g transform="translate(18.167 59.971)"><path d="M76.582,334.423a8.44,8.44,0,0,1-.266,1.3,8.033,8.033,0,0,0,1.269,5.975c.456.665.822,1.024.771,1.079-.03.039-.48-.238-1.027-.886A7.022,7.022,0,0,1,76,335.651,2.683,2.683,0,0,1,76.582,334.423Z" transform="translate(-75.763 -334.422)" fill="#263238"/></g><g transform="translate(13.767 69.586)"><path d="M70.713,345.484c.1-.09.909.726,2.142,1.359,1.225.649,2.359.845,2.341.978a5.118,5.118,0,0,1-4.484-2.338Z" transform="translate(-70.704 -345.477)" fill="#263238"/></g><g transform="translate(8.777 126.867)"><path d="M334.5,411.563c0,.124-60.343.226-134.762.226-74.444,0-134.774-.1-134.774-.226s60.33-.227,134.774-.227C274.161,411.336,334.5,411.438,334.5,411.563Z" transform="translate(-64.967 -411.336)" fill="#263238"/></g><g transform="translate(248.904 84.867)"><path d="M341.279,363.046c.124,0,.226,9.447.226,21.1s-.1,21.1-.226,21.1-.227-9.446-.227-21.1S341.154,363.046,341.279,363.046Z" transform="translate(-341.052 -363.046)" fill="#263238"/></g><g transform="translate(29.665 11.874)"><path d="M219.112,279.139s-.14.018-.414.031l-1.216.045-4.676.131-17.2.4-56.747,1.141c-5.541.134-10.959.117-16.162.461a54.513,54.513,0,0,0-14.718,2.687,26.013,26.013,0,0,0-11.19,7.335,24.365,24.365,0,0,0-3.427,5.067,32.073,32.073,0,0,0-2.128,5.246,49.125,49.125,0,0,0-1.76,9.6c-.266,2.868-.3,5.353-.311,7.382s.036,3.605.059,4.674c.011.519.02.923.026,1.216,0,.274-.007.415-.007.415s-.021-.139-.039-.413c-.017-.292-.041-.7-.071-1.214-.053-1.068-.125-2.645-.144-4.678s-.009-4.522.235-7.4a48.813,48.813,0,0,1,1.706-9.666,32.306,32.306,0,0,1,2.125-5.313,24.6,24.6,0,0,1,3.455-5.154,26.341,26.341,0,0,1,11.332-7.481,54.705,54.705,0,0,1,14.829-2.736c5.23-.351,10.643-.337,16.184-.471l56.749-1.009,17.2-.254,4.678-.046H218.7C218.971,279.126,219.112,279.139,219.112,279.139Z" transform="translate(-88.983 -279.123)" fill="#263238"/></g><g transform="translate(88.652 41.404)"><path d="M159.464,313.353c.016.039-.289.147-.737.484a3.994,3.994,0,0,0-1.349,1.883,3.379,3.379,0,0,0,.484,3.233,3.525,3.525,0,0,0,6.359-1.515,3.379,3.379,0,0,0-1.027-3.1,3.989,3.989,0,0,0-2.053-1.072c-.551-.1-.872-.057-.876-.1a1.82,1.82,0,0,1,.9-.076,3.924,3.924,0,0,1,2.247,1.013,3.971,3.971,0,0,1,1.012,1.415,3.577,3.577,0,0,1,.205,2,3.92,3.92,0,0,1-7.1,1.692,3.58,3.58,0,0,1-.717-1.875,3.967,3.967,0,0,1,.264-1.72,3.926,3.926,0,0,1,1.549-1.919A1.826,1.826,0,0,1,159.464,313.353Z" transform="translate(-156.803 -313.075)" fill="#263238"/></g><g transform="translate(86.7 49.242)"><path d="M155.506,337.063a10.7,10.7,0,0,1-.661-2.572,14.908,14.908,0,0,1,.137-6.418,8.8,8.8,0,0,1,3.75-5.167,5.871,5.871,0,0,1,1.821-.738,1.814,1.814,0,0,1,.716-.067,10.771,10.771,0,0,0-2.365,1.075,8.97,8.97,0,0,0-3.484,5.018,16.269,16.269,0,0,0-.257,6.25C155.37,336.055,155.576,337.048,155.506,337.063Z" transform="translate(-154.559 -322.087)" fill="#263238"/></g><g transform="translate(88.181 28.246)"><path d="M158.9,297.949a20.625,20.625,0,0,0-1.281,1.919,7.616,7.616,0,0,0,2.239,9.81,20.275,20.275,0,0,0,1.987,1.172,1.536,1.536,0,0,1-.622-.135,6.54,6.54,0,0,1-1.551-.776,7.567,7.567,0,0,1-2.334-10.227,6.556,6.556,0,0,1,1.061-1.372C158.689,298.057,158.877,297.929,158.9,297.949Z" transform="translate(-156.261 -297.947)" fill="#263238"/></g><g transform="translate(80.897 45.577)"><path d="M157.008,317.955a44.238,44.238,0,0,0-4.718,1.062,44.083,44.083,0,0,0-4.4,2,12.665,12.665,0,0,1,9.119-3.065Z" transform="translate(-147.887 -317.873)" fill="#263238"/></g><g transform="translate(61.916 87.709)" opacity="0.3"><path d="M126.063,377.294a43.68,43.68,0,0,0,29.561,8.915l-6.594,30.675c-.586,2.728-1.129,5.762.3,8.162,2,3.363,6.65,3.7,10.562,3.645,4.356-.06,8.9-.164,12.758-2.181,5.472-2.857,8.408-8.905,10.531-14.7s3.954-12,8.323-16.362a33.951,33.951,0,0,0,19.263,10.972c2.179.4,4.643.521,6.389-.843a6.082,6.082,0,0,0,1.791-6,17.893,17.893,0,0,0-2.848-5.908l-12.727-19.746c-1.722-2.672-3.607-5.486-6.519-6.76-2.284-1-4.878-.9-7.367-.755a339.579,339.579,0,0,0-61.641,9.32" transform="translate(-126.063 -366.313)"/></g><g transform="translate(43.903)" opacity="0.3"><path d="M191.394,266.281c-5.149,13.6-24.372,16.722-31.123,29.6-6.675,12.738,1.6,29.608-5.276,42.239-2.547,4.678-6.918,8.168-9.406,12.877-1.674,3.17-2.539,6.938-5.24,9.3-3.149,2.747-8.025,2.693-11.808.918s-6.695-4.957-9.388-8.151c-5.047-5.986-9.787-12.456-12.145-19.923-4.059-12.852-.339-27.381,7.8-38.119s20.239-17.977,33-22.313,26.262-5.981,39.681-7.238" transform="translate(-105.354 -265.471)"/></g></g><g transform="translate(34.113)"><g transform="translate(33.99)"><path d="M133.176,223.945a21.193,21.193,0,0,1,7.8-7.232,13.858,13.858,0,0,1,10.426-1.047,10.354,10.354,0,0,1,6.979,7.516c.551,2.787-.191,5.9,1.248,8.351,1.657,2.819,5.649,3.711,7.05,6.665a6.445,6.445,0,0,1-.42,5.68,17.633,17.633,0,0,1-3.821,4.466,9.489,9.489,0,0,1,2.383,2.144,3.263,3.263,0,0,1,.506,3.044,4.46,4.46,0,0,1-2.578,2.087,25.748,25.748,0,0,1-15.389,1.446c-1.373-.3-2.945-.671-4.077.163" transform="translate(-133.176 -215.079)" fill="#263238"/></g><g transform="translate(59.424 13.427)"><path d="M171.805,236.274l-2.813,8.522,19.02,10.79-19.121.618,1.43,15.5,36.828-9.04s2.209-15.019-35.344-26.395l-2.641-.621a3,3,0,0,1-2.1-1.822h0a3.222,3.222,0,0,0-1.506-1.677l-3.137-1.637.022,2.488,1.724,2.027-.275,4.811a4.352,4.352,0,0,0,3.342,4.537l1.761.416" transform="translate(-162.419 -230.517)" fill="#b78876"/></g><g transform="translate(2.923 38.608)"><path d="M121.688,270.838c-.752,0-7.777,1.706-11.79,6.821s-12.44,32.993-12.44,32.993l14.8,2.558,8.991,7.339s37.788-4.952,35.78-6.942a75.833,75.833,0,0,0-6.134-5.059l8.712-28.968,10.458-5.635-3.517-14.475-21.028,2.842Z" transform="translate(-97.458 -259.469)" fill="#fafafa"/><g transform="translate(7.737 26.563)"><path d="M158.979,290.236c0,.125-11.782.227-26.312.227s-26.314-.1-26.314-.227,11.779-.226,26.314-.226S158.979,290.111,158.979,290.236Z" transform="translate(-106.353 -290.01)" fill="#e8505b"/></g><g transform="translate(5.379 35.079)"><path d="M156.268,300.027c0,.125-11.782.226-26.312.226s-26.314-.1-26.314-.226,11.779-.226,26.314-.226S156.268,299.9,156.268,300.027Z" transform="translate(-103.642 -299.801)" fill="#e8505b"/></g><g transform="translate(18.144 44.275)"><path d="M158.179,310.6c0,.125-8.924.226-19.929.226s-19.931-.1-19.931-.226,8.922-.227,19.931-.227S158.179,310.476,158.179,310.6Z" transform="translate(-118.319 -310.374)" fill="#e8505b"/></g><g transform="translate(21.203 53.132)"><path d="M161.7,320.783c0,.125-8.924.226-19.929.226s-19.931-.1-19.931-.226,8.921-.226,19.931-.226S161.7,320.658,161.7,320.783Z" transform="translate(-121.836 -320.557)" fill="#e8505b"/></g><g transform="translate(44.167 15.112)"><path d="M174.568,277.07c0,.125-5.894.227-13.164.227s-13.166-.1-13.166-.227,5.893-.226,13.166-.226S174.568,276.946,174.568,277.07Z" transform="translate(-148.239 -276.844)" fill="#e8505b"/></g><g transform="translate(45.217 6.234)"><path d="M175.683,266.711c0,.125-5.868.364-13.113.533s-13.121.205-13.125.08,5.867-.364,13.114-.533S175.68,266.586,175.683,266.711Z" transform="translate(-149.446 -266.636)" fill="#e8505b"/></g><g transform="translate(17.198 31.211)"><path d="M120.513,295.354a58.364,58.364,0,0,1-1.413,7.115,58.308,58.308,0,0,1-1.854,7.013,58.226,58.226,0,0,1,1.413-7.116A58.126,58.126,0,0,1,120.513,295.354Z" transform="translate(-117.231 -295.354)" fill="#263238"/></g></g><g transform="translate(50.011 178.413)"><g transform="translate(3.513)"><path d="M166.651,420.209l-11.015,34.733,13.278,1.332L181.386,426.1Z" transform="translate(-155.636 -420.209)" fill="#b78876"/></g><g transform="translate(0 16.933)"><path d="M175.84,445.3l-6.325,15.683s13.817,11.7,12.93,14.709L151.6,464.517l8.852-24.839Z" transform="translate(-151.597 -439.678)" fill="#455a64"/><g transform="translate(7.464 16.502)"><path d="M161.578,458.661a1.339,1.339,0,0,0-1.392,1.122,1.287,1.287,0,0,0,1.1,1.389,1.413,1.413,0,0,0,1.467-1.2c.006-.658-.653-1.412-1.3-1.318" transform="translate(-160.179 -458.651)" fill="#e0e0e0"/></g><g transform="translate(0 22.371)"><path d="M151.6,467.868l.99-2.469,29.207,11.634s1.157,1.1.651,2.007Z" transform="translate(-151.597 -465.399)" fill="#e0e0e0"/></g><g transform="translate(15.045 20.874)"><path d="M172.324,464.131c-.059.149-.837-.056-1.753.16-.923.192-1.541.706-1.658.6-.129-.079.423-.9,1.537-1.141S172.407,464.005,172.324,464.131Z" transform="translate(-168.895 -463.678)" fill="#263238"/></g><g transform="translate(18.395 23.649)"><path d="M175.577,467.057c-.018.158-.764.178-1.506.63-.756.431-1.134,1.072-1.282,1.012-.15-.028.065-.947,1-1.492S175.626,466.912,175.577,467.057Z" transform="translate(-172.746 -466.868)" fill="#263238"/></g><g transform="translate(21.595 26.17)"><path d="M176.492,471.972c-.149-.017-.086-.846.6-1.531s1.508-.758,1.526-.609c.041.154-.577.431-1.132,1S176.647,472.012,176.492,471.972Z" transform="translate(-176.426 -469.767)" fill="#263238"/></g><g transform="translate(16.252 16.335)"><path d="M173.551,459.718c-.113.115-.729-.344-1.6-.594-.867-.269-1.633-.223-1.665-.38-.048-.141.8-.464,1.824-.154S173.667,459.626,173.551,459.718Z" transform="translate(-170.283 -458.46)" fill="#263238"/></g><g transform="translate(16.653 10.453)"><path d="M174.828,455.649a3.068,3.068,0,0,1-1.542-.567A7.431,7.431,0,0,1,171.849,454a7.687,7.687,0,0,1-.717-.792,2.012,2.012,0,0,1-.335-.532.7.7,0,0,1,.221-.826.882.882,0,0,1,.785-.105,2.149,2.149,0,0,1,.55.29,5.863,5.863,0,0,1,.841.678,5.782,5.782,0,0,1,1.086,1.451,2.744,2.744,0,0,1,.454,1.584c-.086.025-.264-.572-.794-1.384a6.529,6.529,0,0,0-1.1-1.275,6.1,6.1,0,0,0-.788-.595c-.3-.2-.572-.307-.709-.192-.05.045-.063.065-.029.185a1.647,1.647,0,0,0,.247.39,8.518,8.518,0,0,0,.647.762,9.09,9.09,0,0,0,1.286,1.113A11.524,11.524,0,0,1,174.828,455.649Z" transform="translate(-170.744 -451.697)" fill="#263238"/></g><g transform="translate(20.394 10.042)"><path d="M175.114,455.733a2.616,2.616,0,0,1,.133-1.639,5.325,5.325,0,0,1,1.557-2.411,1.355,1.355,0,0,1,1.267-.423.767.767,0,0,1,.49.664,2.228,2.228,0,0,1-.047.624,3.605,3.605,0,0,1-.376,1.04,3.777,3.777,0,0,1-1.238,1.358c-.892.581-1.586.533-1.58.478a13.446,13.446,0,0,0,1.347-.8,3.775,3.775,0,0,0,1.014-1.274,3.37,3.37,0,0,0,.295-.9c.071-.345.043-.654-.091-.664a.938.938,0,0,0-.724.31,5.521,5.521,0,0,0-.686.7,5.923,5.923,0,0,0-.858,1.433C175.248,455.117,175.2,455.74,175.114,455.733Z" transform="translate(-175.045 -451.224)" fill="#263238"/></g></g></g><g transform="translate(106.33 136.658)"><path d="M216.349,381.262l16.437,28.57,13.446-8.626-16.507-29Z" transform="translate(-216.349 -372.201)" fill="#b78876"/><g transform="translate(11.356 20.841)"><path d="M243.294,396.163l8.491,14.623s17.716-3.718,19.548-1.169L243.569,427.1,229.4,404.855Z" transform="translate(-229.405 -396.163)" fill="#455a64"/><g transform="translate(12.711 18.441)"><path d="M244.345,417.75a1.339,1.339,0,0,0,.031,1.787,1.287,1.287,0,0,0,1.772-.015,1.413,1.413,0,0,0-.043-1.893,1.336,1.336,0,0,0-1.841.22" transform="translate(-244.019 -417.365)" fill="#e0e0e0"/></g><g transform="translate(12.825 12.71)"><path d="M245.489,429l-1.339-2.3,27.12-15.9s1.575-.241,1.983.718Z" transform="translate(-244.15 -410.776)" fill="#e0e0e0"/></g><g transform="translate(21.016 14.169)"><path d="M255.293,412.483c.081.139-.558.627-.951,1.483-.416.845-.39,1.649-.548,1.674-.142.052-.45-.885.043-1.913S255.244,412.341,255.293,412.483Z" transform="translate(-253.568 -412.453)" fill="#263238"/></g><g transform="translate(25.408 13.552)"><path d="M259.621,411.762c.114.112-.329.712-.428,1.575-.124.861.15,1.554.011,1.633-.114.1-.708-.633-.564-1.7S259.536,411.635,259.621,411.762Z" transform="translate(-258.617 -411.745)" fill="#263238"/></g><g transform="translate(29.398 13.015)"><path d="M264.067,414.126c-.105.106-.721-.452-.84-1.413s.329-1.657.457-1.58c.147.064-.014.721.1,1.509C263.872,413.432,264.193,414.028,264.067,414.126Z" transform="translate(-263.205 -411.126)" fill="#263238"/></g><g transform="translate(17.626 10.991)"><path d="M252.48,408.89c.021.16-.718.364-1.452.9s-1.179,1.152-1.322,1.081c-.14-.049.126-.918,1-1.535S252.48,408.742,252.48,408.89Z" transform="translate(-249.67 -408.8)" fill="#263238"/></g><g transform="translate(13.327 7.591)"><path d="M250.069,405.462c.037.055-.446.476-1.4.868a7.341,7.341,0,0,1-1.736.469,7.705,7.705,0,0,1-1.065.079,2.007,2.007,0,0,1-.625-.063.7.7,0,0,1-.517-.682.882.882,0,0,1,.4-.685,2.144,2.144,0,0,1,.567-.256,5.794,5.794,0,0,1,2.863-.214,2.741,2.741,0,0,1,1.528.615c-.033.083-.614-.144-1.579-.224a6.568,6.568,0,0,0-1.68.082,6.18,6.18,0,0,0-.954.257c-.343.108-.594.264-.587.442,0,.067.013.09.129.137a1.663,1.663,0,0,0,.459.044,8.441,8.441,0,0,0,1-.043,9.066,9.066,0,0,0,1.669-.331A11.235,11.235,0,0,1,250.069,405.462Z" transform="translate(-244.728 -404.891)" fill="#263238"/></g><g transform="translate(16.451 3.276)"><path d="M250.483,405.122c-.035.051-.61-.265-1.212-1.112a5.314,5.314,0,0,1-.946-2.708,1.356,1.356,0,0,1,.445-1.26.766.766,0,0,1,.825.022,2.207,2.207,0,0,1,.464.42,3.62,3.62,0,0,1,.591.936,3.781,3.781,0,0,1,.311,1.81c-.09,1.061-.553,1.579-.593,1.54a13.669,13.669,0,0,0,.2-1.552,3.794,3.794,0,0,0-.383-1.583,3.4,3.4,0,0,0-.531-.788c-.23-.267-.49-.436-.581-.336a.936.936,0,0,0-.2.761,5.366,5.366,0,0,0,.13.971,5.916,5.916,0,0,0,.6,1.558C250.079,404.638,250.544,405.055,250.483,405.122Z" transform="translate(-248.32 -399.929)" fill="#263238"/></g></g></g><g transform="translate(22.506 92.746)"><g transform="translate(0 2.878)"><path d="M154.869,371.088l32.279-21.95,20.36,39.636,18.515-10.019s-21.321-51.989-28.975-53.667c-4.289-.941-53.461,8.451-53.461,8.451l-5.494-2.762-13.91-1.692-.888,2.249a47.468,47.468,0,0,0,1.545,38.376l.677,1.378Z" transform="translate(-119.973 -325.022)" fill="#263238"/></g><g transform="translate(19.707)"><path d="M146.487,343.2c.241,1.088,26.924,26.074,26.924,26.074l-15.4,51.739,22.978,4.4,23.074-62.329-42.174-41.372-19.261,8.108Z" transform="translate(-142.631 -321.713)" fill="#263238"/></g><g transform="translate(34.895 26.992)"><path d="M192.372,352.749c.07.1-7.1,5.1-16.011,11.162s-16.2,10.892-16.267,10.788,7.1-5.1,16.012-11.163S192.3,352.645,192.372,352.749Z" transform="translate(-160.093 -352.747)" fill="#455a64"/></g><g transform="translate(67.171 26.994)"><path d="M213.774,385a8.587,8.587,0,0,1-.778-1.2c-.482-.783-1.143-1.935-1.951-3.364-1.606-2.864-3.746-6.864-6.012-11.331s-4.255-8.544-5.658-11.511c-.7-1.484-1.259-2.689-1.632-3.528a8.246,8.246,0,0,1-.538-1.323,8.889,8.889,0,0,1,.7,1.246l1.761,3.464,5.773,11.446c2.265,4.464,4.357,8.483,5.889,11.383l1.823,3.43A8.581,8.581,0,0,1,213.774,385Z" transform="translate(-197.203 -352.749)" fill="#455a64"/></g><g transform="translate(49.959 38.328)"><path d="M182.766,365.781a40.8,40.8,0,0,1-2.469,5.544,40.927,40.927,0,0,1-2.876,5.346,81.229,81.229,0,0,1,5.346-10.889Z" transform="translate(-177.413 -365.78)" fill="#455a64"/></g></g><g transform="translate(0 81.093)"><path d="M99.63,308.315,94.444,327.59a10.111,10.111,0,0,0,.862,7.422h0a10.111,10.111,0,0,0,11.182,5.057l41.356-10.188-4.324-8.588-32.579,2.825,3.489-13.244Z" transform="translate(-94.097 -308.315)" fill="#b78876"/></g><g transform="translate(23.879 64.008)"><path d="M121.551,335.014l.539-2.8,22.411-4.027,6.512-34.555,41.628-4.959-6.995,36.887Z" transform="translate(-121.551 -288.672)" fill="#455a64"/><g transform="translate(46.57 18.976)"><path d="M176.68,315.079a2.344,2.344,0,1,1,2.414-1.9A2.184,2.184,0,0,1,176.68,315.079Z" transform="translate(-175.094 -310.49)" fill="#ebebeb"/></g></g><g transform="translate(12.596 5.219)"><g transform="translate(17.373 4.109)"><path d="M128.553,227.73l.079,2.5.937,37.407a8.025,8.025,0,0,0,8.578,7.556h0c4.695-.154,8.467-3.834,8.43-8.222-.04-4.606,0-9.456,0-9.456s5.922-1.054,7.062-8.811c.566-3.857.3-10.167-.086-15.324a8.176,8.176,0,0,0-9.106-7.516Z" transform="translate(-128.553 -225.804)" fill="#b78876"/><g transform="translate(7.627 29.062)"><path d="M147.723,261.864a19.7,19.7,0,0,1-10.4-2.646s2.577,5.289,10.317,4.475Z" transform="translate(-137.322 -259.218)" fill="#aa6550"/></g></g><path d="M134.907,222.068a9.749,9.749,0,0,1-1.4,12.163c-1.851,1.724-4.605,3.068-4.793,5.591-.208,2.794,3.028,4.883,3.032,7.684.005,2.881-3.318,4.716-3.964,7.523-.52,2.259.83,4.524,2.394,6.235s3.447,3.229,4.386,5.349a9.456,9.456,0,0,1-.264,7.449,23.474,23.474,0,0,1-4.371,6.259,29.175,29.175,0,0,0-7.168-1.6q.231-1.386.46-2.771a2.557,2.557,0,0,1-1.87,2.351,6.84,6.84,0,0,1-3.2.04,51.891,51.891,0,0,1-9.57-2.461,17.134,17.134,0,0,0,3.5-4.369,5.806,5.806,0,0,0,.1-5.4c-.764-1.3-2.173-2.135-2.875-3.468-1.055-2-.186-4.541,1.312-6.233s3.527-2.8,5.308-4.195,3.418-3.272,3.562-5.528c.187-2.927-2.18-5.593-1.891-8.512.331-3.323,3.845-5.355,5.226-8.4,1-2.2.865-4.917,2.4-6.786a5.833,5.833,0,0,1,4.807-1.914,10.822,10.822,0,0,1,5.012,1.762" transform="translate(-108.579 -221.08)" fill="#263238"/><g transform="translate(34.964 27.754)"><path d="M149.862,261.884c-1.4.771-1.318,2.9-.466,4.247s2.221,2.315,3.062,3.674a6.007,6.007,0,0,1-1.415,7.666l3.342,1.264.729-.412,2.051-1.16-.963,2.369h2.139a6.111,6.111,0,0,0,5.023-9.692c-.88-1.218-2.246-2.187-2.541-3.659-.357-1.775.983-3.386,1.64-5.073a7.174,7.174,0,0,0-2.334-8.118" transform="translate(-148.779 -252.989)" fill="#263238"/></g></g></g></g></g><g transform="translate(41.578 146.918)"><g transform="translate(20.833 14.323)"><g transform="translate(0 3.297)"><path d="M73.113,182.274a1.164,1.164,0,0,1,.66,1.05v5.792a1.162,1.162,0,0,1-1.479,1.119,3.615,3.615,0,0,0-2.836.435,3.252,3.252,0,0,0-1.546,2.067,3.324,3.324,0,0,0,.591,2.53,3.71,3.71,0,0,0,2.39,1.584A4.357,4.357,0,0,0,75.45,193.9a1.163,1.163,0,0,1,2.217.706,6.7,6.7,0,0,1-7.139,4.538,6,6,0,0,1-3.938-2.56,5.663,5.663,0,0,1-.955-4.325,5.582,5.582,0,0,1,2.616-3.583,6.087,6.087,0,0,1,3.2-.893v-4.464a1.164,1.164,0,0,1,1.666-1.049Z" transform="translate(-65.53 -182.16)" fill="#e8505b"/></g><g transform="translate(5.981)"><path d="M72.407,179.345a.951.951,0,1,1,.976.927A.951.951,0,0,1,72.407,179.345Z" transform="translate(-72.407 -178.37)" fill="#e8505b"/></g></g><g transform="translate(52.084 46.279)"><path d="M104.568,215.146c0,.027-.289.044-.765.239a3.533,3.533,0,0,0-1.614,1.385,3.37,3.37,0,0,0-.5,1.38,2.927,2.927,0,0,0,.291,1.635,3.2,3.2,0,0,0,5.987-.355,2.931,2.931,0,0,0,.1-1.659,3.36,3.36,0,0,0-.658-1.312,3.537,3.537,0,0,0-1.766-1.184c-.5-.137-.79-.12-.788-.147a.649.649,0,0,1,.21-.017,1.3,1.3,0,0,1,.256.013,1.993,1.993,0,0,1,.345.057,3.588,3.588,0,0,1,2.6,2.54,3.116,3.116,0,0,1-.079,1.783,3.644,3.644,0,0,1-1.119,1.622,3.221,3.221,0,0,1-3.99.237,3.636,3.636,0,0,1-1.3-1.479,3.114,3.114,0,0,1-.291-1.761,3.591,3.591,0,0,1,2.282-2.829,2.027,2.027,0,0,1,.337-.1,1.309,1.309,0,0,1,.252-.043A.681.681,0,0,1,104.568,215.146Z" transform="translate(-101.461 -215.11)" fill="#263238"/></g><g transform="translate(61.657 54.695)"><path d="M114.463,224.818c0,.023-.181.041-.476.168a2.233,2.233,0,0,0-1,.872,1.887,1.887,0,0,0-.119,1.862,1.973,1.973,0,0,0,3.69-.219,1.885,1.885,0,0,0-.338-1.834,2.239,2.239,0,0,0-1.092-.749c-.308-.091-.492-.087-.491-.11a1.048,1.048,0,0,1,.516.017,2.2,2.2,0,0,1,1.2.73,2.232,2.232,0,0,1,.467.877,2,2,0,0,1-.048,1.145,2.191,2.191,0,0,1-4.114.244,2,2,0,0,1-.182-1.132,2.269,2.269,0,0,1,1.468-1.793A1.058,1.058,0,0,1,114.463,224.818Z" transform="translate(-112.468 -224.787)" fill="#263238"/></g><path d="M95.363,190.974s0-.148,0-.437.013-.721.023-1.279c.006-.281.012-.595.02-.941-.009-.346-.052-.724-.08-1.133s-.067-.851-.1-1.321a4.658,4.658,0,0,0-.1-.725q-.067-.372-.137-.765a25.579,25.579,0,0,0-2.407-7.349,26.723,26.723,0,0,0-6.2-8.112l-1.087-.951c-.384-.3-.793-.575-1.2-.869l-.611-.437a5.108,5.108,0,0,0-.633-.417l-1.334-.774c-.225-.129-.448-.264-.678-.389l-.719-.328-1.46-.665c-.5-.209-1.022-.359-1.539-.544l-.784-.267c-.132-.043-.262-.094-.4-.13l-.408-.095a24.71,24.71,0,0,0-3.344-.655c-.574-.065-1.15-.167-1.734-.2l-1.773-.047c-.3,0-.6-.028-.9-.012l-.9.068c-.6.051-1.212.074-1.819.15a28.4,28.4,0,0,0-3.64.766l-.911.256c-.151.043-.305.082-.456.131l-.444.173-1.788.7c-.588.262-1.156.576-1.74.863-.286.153-.59.28-.865.457l-.831.527a29.987,29.987,0,0,0-3.227,2.335l-1.473,1.388-.371.349c-.116.124-.224.254-.338.382l-.674.769-.678.773-.606.836-.605.842-.3.422c-.092.147-.176.3-.264.449L44.8,176.57l-.878,1.919a26.518,26.518,0,0,0-1.315,16.836l.569,2.033.76,1.953.19.484.235.464.468.925.469.92.55.869.547.865.275.43.311.4q.624.8,1.24,1.6a30.1,30.1,0,0,0,2.827,2.808l.739.65c.245.217.525.39.785.585.532.375,1.045.772,1.585,1.122l1.66.966.411.24c.141.072.287.134.431.2l.86.394A28.44,28.44,0,0,0,61,214.558c.588.17,1.186.286,1.773.431l.88.206c.293.063.592.083.887.128l1.76.228c.584.055,1.168.044,1.745.069a24.811,24.811,0,0,0,3.406-.129l.417-.03c.138-.016.275-.045.411-.068l.816-.142c.539-.1,1.082-.17,1.606-.3l1.546-.431.761-.211.731-.28,1.438-.558a5.261,5.261,0,0,0,.691-.314l.671-.338c.443-.228.889-.437,1.315-.672l1.222-.771a26.732,26.732,0,0,0,7.381-7.053c.22-.308.444-.605.65-.907l.543-.928.523-.893c.083-.147.175-.287.248-.436l.206-.446.778-1.69c.232-.544.388-1.086.571-1.586l.254-.735a4.544,4.544,0,0,0,.208-.7q.164-.689.307-1.289c.09-.4.192-.766.255-1.106q.069-.515.126-.933.115-.828.176-1.266c.041-.285.069-.431.069-.431s-.01.147-.043.434l-.151,1.271q-.051.42-.115.937c-.058.342-.157.71-.244,1.112s-.191.833-.3,1.3a4.623,4.623,0,0,1-.2.705q-.12.359-.25.738c-.18.5-.332,1.05-.563,1.6l-.771,1.7c-.067.149-.136.3-.2.45s-.164.291-.247.439l-.52.9q-.265.459-.541.935c-.205.3-.429.6-.649.914a26.783,26.783,0,0,1-7.4,7.121l-1.228.779c-.428.237-.877.451-1.322.681l-.675.342a5.333,5.333,0,0,1-.694.318l-1.446.565c-.244.093-.488.194-.736.284l-.767.215-1.556.437c-.527.132-1.073.2-1.617.305l-.822.145c-.137.023-.275.052-.414.069l-.42.032a25.193,25.193,0,0,1-3.433.136c-.581-.024-1.171-.012-1.759-.066l-1.774-.227c-.3-.043-.6-.065-.895-.127l-.887-.206c-.591-.145-1.2-.262-1.788-.433a28.353,28.353,0,0,1-3.509-1.327l-.868-.4c-.144-.068-.292-.13-.435-.2l-.416-.241-1.674-.973c-.545-.352-1.063-.752-1.6-1.13-.262-.2-.544-.371-.791-.591l-.747-.654a30.429,30.429,0,0,1-2.854-2.832l-1.252-1.613-.315-.406-.277-.433-.553-.873-.555-.877-.473-.928-.472-.933-.237-.469-.193-.489-.767-1.971q-.287-1.021-.576-2.051a26.739,26.739,0,0,1,1.327-16.992l.887-1.937q.534-.917,1.063-1.827c.09-.15.174-.3.268-.452l.306-.426.611-.849.612-.843.684-.78.682-.776c.114-.129.224-.26.341-.385l.374-.351,1.487-1.4a30.285,30.285,0,0,1,3.258-2.354l.839-.531c.278-.178.584-.305.873-.46.59-.29,1.163-.605,1.756-.868l1.8-.7.448-.173c.152-.05.307-.089.461-.133l.918-.257a28.572,28.572,0,0,1,3.672-.767c.612-.077,1.226-.1,1.833-.15l.908-.066c.3-.016.6.01.9.013l1.787.05c.59.038,1.17.141,1.748.208a25.1,25.1,0,0,1,3.369.666l.411.1c.135.037.266.089.4.132l.79.271c.52.188,1.05.341,1.55.552l1.469.673.724.332c.232.126.457.264.684.394l1.341.783a5.242,5.242,0,0,1,.637.422l.613.443c.4.3.815.577,1.2.878l1.092.96a26.769,26.769,0,0,1,6.207,8.182,25.506,25.506,0,0,1,2.378,7.395l.132.769a4.678,4.678,0,0,1,.091.728q.05.708.092,1.326c.024.411.063.79.068,1.136q-.017.521-.031.944-.031.836-.048,1.279C95.375,190.827,95.363,190.974,95.363,190.974Z" transform="translate(-41.578 -161.901)" fill="#263238"/></g><g transform="translate(211.667 46.857)"><g transform="translate(0.545 0.226)"><rect width="179.558" height="272.571" fill="#fff"/></g><g transform="translate(0.172 14.11)"><rect width="179.612" height="117.305" fill="#f5f5f5"/></g><g transform="translate(116.13 255.217)"><path d="M370.657,340.291" transform="translate(-370.657 -340.291)" fill="none" stroke="#4e585d" stroke-miterlimit="10" stroke-width="1"/></g><g transform="translate(42.964 146.54)"><path d="M287.628,216.82v2.668h3.838v.941h-3.838v3.095h-1.093v-7.655h5.4v.951Z" transform="translate(-286.535 -215.409)" fill="#263238"/><path d="M293.514,220.9a3.013,3.013,0,1,1,3.018,2.963A2.884,2.884,0,0,1,293.514,220.9Zm4.965,0a1.954,1.954,0,1,0-1.946,2.045A1.9,1.9,0,0,0,298.479,220.9Z" transform="translate(-287.444 -215.679)" fill="#263238"/><path d="M305.231,217.943v1.018a1.8,1.8,0,0,0-.241-.011,1.729,1.729,0,0,0-1.826,1.957v2.888h-1.05V218h1.005v.973A2.215,2.215,0,0,1,305.231,217.943Z" transform="translate(-288.564 -215.679)" fill="#263238"/><path d="M312.584,218v5.009c0,2.044-1.039,2.974-3.007,2.974a4.293,4.293,0,0,1-2.768-.864l.5-.809a3.54,3.54,0,0,0,2.232.754c1.366,0,1.99-.634,1.99-1.947v-.459a2.65,2.65,0,0,1-2.089.9,2.808,2.808,0,1,1,0-5.61,2.646,2.646,0,0,1,2.144.952V218Zm-1.028,2.745a2,2,0,1,0-1.99,1.892A1.85,1.85,0,0,0,311.556,220.743Z" transform="translate(-289.136 -215.679)" fill="#263238"/><path d="M315.179,220.9a3.013,3.013,0,1,1,3.018,2.963A2.884,2.884,0,0,1,315.179,220.9Zm4.965,0a1.954,1.954,0,1,0-1.946,2.045A1.9,1.9,0,0,0,320.144,220.9Z" transform="translate(-290.266 -215.679)" fill="#263238"/><path d="M326.915,223.273a1.981,1.981,0,0,1-1.268.4,1.654,1.654,0,0,1-1.837-1.815V218.68h-.985v-.864h.985v-1.269h1.05v1.269h1.662v.864h-1.662v3.139a.854.854,0,0,0,.907.973,1.318,1.318,0,0,0,.82-.274Z" transform="translate(-291.261 -215.497)" fill="#263238"/><path d="M338.372,220.9a2.816,2.816,0,0,1-2.93,2.963,2.474,2.474,0,0,1-2.023-.94v3h-1.05V218h1.005v.918a2.468,2.468,0,0,1,2.067-.973A2.813,2.813,0,0,1,338.372,220.9Zm-1.061,0a1.954,1.954,0,1,0-1.958,2.045A1.916,1.916,0,0,0,337.311,220.9Z" transform="translate(-292.504 -215.679)" fill="#263238"/><path d="M345.408,220.294v3.5h-.995v-.766a2.15,2.15,0,0,1-1.9.831c-1.312,0-2.143-.7-2.143-1.706,0-.93.6-1.7,2.329-1.7h1.662v-.208c0-.885-.514-1.4-1.553-1.4a2.933,2.933,0,0,0-1.837.623l-.437-.787a3.862,3.862,0,0,1,2.394-.744C344.511,217.943,345.408,218.708,345.408,220.294Zm-1.05,1.728v-.809H342.74c-1.039,0-1.334.4-1.334.9,0,.579.481.94,1.279.94A1.682,1.682,0,0,0,344.358,222.022Z" transform="translate(-293.546 -215.679)" fill="#263238"/><path d="M347.559,223.182l.438-.831a3.728,3.728,0,0,0,2.034.6c.973,0,1.378-.3,1.378-.788,0-1.3-3.663-.175-3.663-2.482,0-1.038.929-1.739,2.416-1.739a4.207,4.207,0,0,1,2.111.525l-.449.831a3.029,3.029,0,0,0-1.673-.459c-.918,0-1.367.339-1.367.8,0,1.367,3.675.251,3.675,2.5,0,1.05-.962,1.717-2.5,1.717A4.188,4.188,0,0,1,347.559,223.182Z" transform="translate(-294.483 -215.679)" fill="#263238"/><path d="M353.859,223.182l.438-.831a3.725,3.725,0,0,0,2.034.6c.973,0,1.378-.3,1.378-.788,0-1.3-3.663-.175-3.663-2.482,0-1.038.929-1.739,2.416-1.739a4.21,4.21,0,0,1,2.111.525l-.449.831a3.03,3.03,0,0,0-1.673-.459c-.918,0-1.366.339-1.366.8,0,1.367,3.675.251,3.675,2.5,0,1.05-.963,1.717-2.5,1.717A4.183,4.183,0,0,1,353.859,223.182Z" transform="translate(-295.303 -215.679)" fill="#263238"/><path d="M369.506,218.006l-2.166,5.8h-1.005l-1.673-4.4-1.7,4.4h-1.005l-2.155-5.8h1l1.684,4.615,1.75-4.615h.886l1.716,4.637,1.728-4.637Z" transform="translate(-296.078 -215.687)" fill="#263238"/><path d="M371.376,220.9a3.013,3.013,0,1,1,3.017,2.963A2.883,2.883,0,0,1,371.376,220.9Zm4.965,0a1.954,1.954,0,1,0-1.947,2.045A1.9,1.9,0,0,0,376.341,220.9Z" transform="translate(-297.585 -215.679)" fill="#263238"/><path d="M383.092,217.943v1.018a1.781,1.781,0,0,0-.24-.011,1.729,1.729,0,0,0-1.826,1.957v2.888h-1.05V218h1.005v.973A2.214,2.214,0,0,1,383.092,217.943Z" transform="translate(-298.705 -215.679)" fill="#263238"/><path d="M390.368,215.34v8.115h-1.005v-.918a2.451,2.451,0,0,1-2.067.984,2.958,2.958,0,0,1,0-5.916,2.465,2.465,0,0,1,2.023.93V215.34Zm-1.039,5.217a1.954,1.954,0,1,0-1.947,2.045A1.908,1.908,0,0,0,389.33,220.557Z" transform="translate(-299.276 -215.34)" fill="#263238"/><path d="M396.845,217.879c0-.7-.579-1.181-1.564-1.181a2.328,2.328,0,0,0-1.957.864l-.8-.569a3.4,3.4,0,0,1,2.833-1.225c1.574,0,2.591.732,2.591,1.947,0,1.827-1.935,1.947-1.935,3.379H394.92C394.92,219.377,396.845,219.136,396.845,217.879Zm-2.078,5a.705.705,0,1,1,.711.7A.687.687,0,0,1,394.767,222.877Z" transform="translate(-300.339 -215.396)" fill="#263238"/></g><g transform="translate(23.876 170.139)"><g transform="translate(0 0)"><path d="M402.03,242.7c0,.125-30.77.227-68.718.227s-68.724-.1-68.724-.227,30.763-.226,68.724-.226S402.03,242.574,402.03,242.7Z" transform="translate(-264.588 -242.473)"/></g></g><g transform="translate(53.21 177.483)"><g transform="translate(0 0)"><path d="M377.088,251.143c0,.125-17.635.226-39.384.226s-39.389-.1-39.389-.226,17.632-.226,39.389-.226S377.088,251.018,377.088,251.143Z" transform="translate(-298.315 -250.917)"/></g></g><g transform="translate(45.29 45.751)"><g transform="translate(8.982)"><g transform="translate(0.702 2.377)"><g transform="translate(0.257 0.188)"><path d="M364.968,138.66a20.941,20.941,0,1,0-32.492-4.969l-4.26,3.976,1.018,7.072-6.612-1.853-5.331,4.974,1.018,7.072-6.612-1.853-4.583,4.275.621,4.311-4.03-1.129-2.668,2.488-.4,6.55,9.769,2.459,31.7-29.574A20.947,20.947,0,0,0,364.968,138.66Zm-3.1-25.751a6.007,6.007,0,1,1-8.491-.294A6.008,6.008,0,0,1,361.873,112.909Z" transform="translate(-300.638 -102.408)" fill="#263238"/></g><g transform="translate(0.257 0.188)"><path d="M364.968,138.66a20.941,20.941,0,1,0-32.492-4.969l-4.26,3.976,1.018,7.072-6.612-1.853-5.331,4.974,1.018,7.072-6.612-1.853-4.583,4.275.621,4.311-4.03-1.129-2.668,2.488-.4,6.55,9.769,2.459,31.7-29.574A20.947,20.947,0,0,0,364.968,138.66Zm-3.1-25.751a6.007,6.007,0,1,1-8.491-.294A6.008,6.008,0,0,1,361.873,112.909Z" transform="translate(-300.638 -102.408)" fill="none"/></g><g transform="translate(50.84 8.611)"><path d="M369.447,114.171c-.038.04-.393-.365-1.193-.858a5.986,5.986,0,0,0-3.781-.83,5.781,5.781,0,1,0,6.314,6.767,6,6,0,0,0-.566-3.829c-.437-.832-.817-1.214-.774-1.25.013-.012.111.077.287.26a4.611,4.611,0,0,1,.664.892,5.977,5.977,0,0,1,.753,3.989,6.193,6.193,0,0,1-7.261,5.105A6.208,6.208,0,0,1,358.84,119a6.195,6.195,0,0,1,5.6-6.888,5.981,5.981,0,0,1,3.928,1.026,4.623,4.623,0,0,1,.844.725C369.378,114.055,369.46,114.159,369.447,114.171Z" transform="translate(-358.796 -112.092)" fill="#263238"/></g><path d="M364.93,138.632s-.1.1-.3.29l-.923.822a21.909,21.909,0,0,1-4.052,2.576,21.079,21.079,0,0,1-17.651.254l.172-.029-31.645,29.63-.093.087-.125-.031-9.772-2.449-.2-.05.012-.2c.123-2.042.257-4.282.394-6.55l.006-.1.073-.069,2.666-2.49.1-.1.137.038,4.03,1.127-.321.282c-.195-1.346-.408-2.823-.623-4.31l-.019-.133.1-.092,4.581-4.276.106-.1.14.04,6.613,1.851-.329.289c-.323-2.242-.669-4.648-1.018-7.072l-.019-.136.1-.093,1.412-1.319,3.918-3.655.108-.1.141.039,6.612,1.854-.328.287q-.513-3.572-1.016-7.072l-.019-.134.1-.091,4.262-3.973-.048.313a21.37,21.37,0,0,1-2.722-9.534,20.319,20.319,0,0,1,.347-4.845,20.6,20.6,0,0,1,1.394-4.555,21.1,21.1,0,0,1,40.392,10.115,20.693,20.693,0,0,1-2.349,8.063l-.39.745-.431.664c-.284.424-.522.839-.794,1.188-.565.681-1,1.292-1.426,1.718l-.968.967c-.219.215-.339.316-.339.316s.1-.124.306-.35l.932-.994c.414-.434.834-1.052,1.385-1.737.264-.351.494-.767.771-1.192l.418-.665.377-.745a20.966,20.966,0,0,0,.152-18.825,20.747,20.747,0,0,0-37.592.924,20.089,20.089,0,0,0-1.354,4.451,19.831,19.831,0,0,0-.332,4.732,20.879,20.879,0,0,0,2.668,9.3l.1.177-.146.137-4.259,3.977.08-.225q.5,3.5,1.019,7.072l.057.4-.385-.108-6.612-1.853.249-.06-3.917,3.656-1.413,1.318.08-.228c.349,2.424.695,4.831,1.018,7.072l.057.4-.385-.108-6.611-1.855.246-.06-4.584,4.273.079-.224c.213,1.487.424,2.965.618,4.311l.056.388-.376-.106-4.03-1.132.24-.058-2.668,2.486.079-.167-.4,6.549-.184-.252,9.767,2.468-.217.057,31.751-29.517.077-.071.1.043a20.989,20.989,0,0,0,17.448-.118,23.036,23.036,0,0,0,4.071-2.491l.947-.787C364.813,138.714,364.93,138.632,364.93,138.632Z" transform="translate(-300.343 -102.192)" fill="#263238"/></g><g transform="translate(0.257 0.188)"><path d="M364.161,135.928a20.941,20.941,0,1,0-32.492-4.969l-.006.005-4.255,3.97,1.018,7.072-6.612-1.853-5.331,4.973L317.5,152.2l-6.612-1.853-4.582,4.275.62,4.31L302.9,157.8l-2.668,2.488-.4,6.549L309.6,169.3l31.7-29.574A20.945,20.945,0,0,0,364.161,135.928Zm-3.1-25.751a6.007,6.007,0,1,1-8.491-.295A6.007,6.007,0,0,1,361.066,110.177Z" transform="translate(-299.831 -99.676)" fill="#e8505b"/></g><g transform="translate(0.257 0.188)"><path d="M364.161,135.928a20.941,20.941,0,1,0-32.492-4.969l-.006.005-4.255,3.97,1.018,7.072-6.612-1.853-5.331,4.973L317.5,152.2l-6.612-1.853-4.582,4.275.62,4.31L302.9,157.8l-2.668,2.488-.4,6.549L309.6,169.3l31.7-29.574A20.945,20.945,0,0,0,364.161,135.928Zm-3.1-25.751a6.007,6.007,0,1,1-8.491-.295A6.007,6.007,0,0,1,361.066,110.177Z" transform="translate(-299.831 -99.676)" fill="none"/></g><g transform="translate(50.841 8.611)"><path d="M368.64,111.439c-.038.039-.392-.366-1.193-.859a6,6,0,0,0-3.781-.83,5.781,5.781,0,1,0,6.314,6.767,6,6,0,0,0-.566-3.829c-.437-.832-.816-1.214-.774-1.249.013-.013.111.077.288.259a4.649,4.649,0,0,1,.664.892,5.982,5.982,0,0,1,.752,3.99,6.194,6.194,0,0,1-7.26,5.105,6.208,6.208,0,0,1-5.051-5.414,6.193,6.193,0,0,1,5.6-6.888,5.975,5.975,0,0,1,3.928,1.027,4.625,4.625,0,0,1,.844.725C368.572,111.322,368.653,111.426,368.64,111.439Z" transform="translate(-357.99 -109.359)" fill="#263238"/></g><path d="M364.123,135.9s-.1.1-.3.29l-.922.822a21.968,21.968,0,0,1-4.053,2.576,21.084,21.084,0,0,1-17.651.253l.173-.029-31.646,29.63-.093.088-.125-.031-9.771-2.449-.2-.05.012-.2c.124-2.042.258-4.281.395-6.55l.005-.1.073-.069,2.666-2.489.1-.1.137.038,4.03,1.127-.321.282c-.194-1.346-.408-2.822-.622-4.31L306,154.5l.1-.091,4.581-4.277.106-.1.141.039,6.612,1.852-.329.288c-.323-2.242-.669-4.648-1.018-7.072l-.019-.136.1-.093,1.413-1.319,3.917-3.655.108-.1.141.039,6.612,1.854-.328.288q-.513-3.572-1.016-7.073l-.019-.133.1-.092,4.262-3.973-.048.313a21.379,21.379,0,0,1-2.722-9.534,20.32,20.32,0,0,1,.347-4.845,20.561,20.561,0,0,1,1.4-4.554,21.1,21.1,0,0,1,40.391,10.114,20.689,20.689,0,0,1-2.349,8.063l-.389.745-.431.664c-.285.424-.523.839-.795,1.188-.564.681-1,1.292-1.426,1.719l-.968.966c-.219.215-.339.317-.339.317s.1-.124.307-.351l.931-.994c.414-.434.834-1.052,1.385-1.736.264-.351.494-.768.771-1.192l.418-.665q.183-.361.377-.745a20.964,20.964,0,0,0,.152-18.824,20.747,20.747,0,0,0-37.591.923,20.091,20.091,0,0,0-1.355,4.451,19.839,19.839,0,0,0-.331,4.733,20.874,20.874,0,0,0,2.667,9.3l.1.177-.146.137-4.258,3.977.079-.225q.5,3.5,1.019,7.072l.057.395-.385-.108-6.612-1.852.249-.061-3.917,3.656-1.413,1.319.081-.229c.348,2.424.694,4.831,1.017,7.073l.057.4-.385-.108-6.611-1.855.246-.06-4.584,4.273.079-.224c.213,1.487.425,2.964.618,4.311l.056.387-.377-.106-4.029-1.132.24-.058-2.669,2.487.079-.168-.4,6.549-.184-.252,9.767,2.468-.217.056,31.751-29.516.077-.072.1.043a20.984,20.984,0,0,0,17.448-.119,23.037,23.037,0,0,0,4.071-2.491l.947-.786C364.006,135.981,364.123,135.9,364.123,135.9Z" transform="translate(-299.536 -99.459)" fill="#263238"/><g transform="translate(31.412 2.651)"><path d="M366.9,134.664a28.639,28.639,0,0,0,2.812-3.548,17.623,17.623,0,0,0,2.154-4.821,18.239,18.239,0,0,0-9.275-21.3,17.118,17.118,0,0,0-4.951-1.672,16.64,16.64,0,0,0-5.446-.174,18.1,18.1,0,0,0-15.712,14.658,16.617,16.617,0,0,0-.2,5.446,17.084,17.084,0,0,0,1.325,5.056,18.291,18.291,0,0,0,20.607,10.728,17.635,17.635,0,0,0,4.958-1.814,28.728,28.728,0,0,0,3.733-2.559,1.3,1.3,0,0,1-.211.212l-.656.586a8.542,8.542,0,0,1-1.123.885,13.042,13.042,0,0,1-1.646,1.054,17.418,17.418,0,0,1-4.994,1.921,18.585,18.585,0,0,1-14.995-3.122,18.686,18.686,0,0,1-6.118-7.7,17.557,17.557,0,0,1-1.378-5.188,17.09,17.09,0,0,1,.2-5.6,18.571,18.571,0,0,1,16.157-15.072,17.1,17.1,0,0,1,5.6.191,17.538,17.538,0,0,1,5.079,1.734,18.679,18.679,0,0,1,7.259,6.636,18.588,18.588,0,0,1,2.078,15.174,17.438,17.438,0,0,1-2.263,4.85,13.018,13.018,0,0,1-1.165,1.568,8.617,8.617,0,0,1-.961,1.06l-.631.613A1.316,1.316,0,0,1,366.9,134.664Z" transform="translate(-335.652 -102.507)" fill="#263238"/></g><g transform="translate(49.717 7.505)"><path d="M368.794,120.531c-.042-.04.438-.451,1.022-1.39a7.025,7.025,0,0,0,.99-4.444,6.844,6.844,0,0,0-3.725-5.367,6.733,6.733,0,0,0-3.886-.68,6.77,6.77,0,0,0-5.866,5.472,6.734,6.734,0,0,0,.41,3.923,6.842,6.842,0,0,0,5.1,4.089,7.021,7.021,0,0,0,4.5-.679c.976-.518,1.419-.968,1.456-.923.012.013-.094.125-.31.33a5.511,5.511,0,0,1-1.048.771,7.012,7.012,0,0,1-4.664.867,7.128,7.128,0,0,1-3.082-1.273,7.252,7.252,0,0,1-2.4-2.991,7.177,7.177,0,0,1-.47-4.208,7.24,7.24,0,0,1,6.31-5.886,7.172,7.172,0,0,1,4.164.76,7.246,7.246,0,0,1,2.818,2.6,7.126,7.126,0,0,1,1.056,3.164,7.007,7.007,0,0,1-1.187,4.591,5.5,5.5,0,0,1-.841.992C368.926,120.446,368.806,120.544,368.794,120.531Z" transform="translate(-356.697 -108.088)" fill="#263238"/></g><g transform="translate(7.465 38.571)"><path d="M308.12,173.887c-.1-.106,7.039-6.925,15.941-15.23s16.2-14.955,16.3-14.849-7.038,6.924-15.943,15.232S308.218,173.992,308.12,173.887Z" transform="translate(-308.119 -143.806)" fill="#263238"/></g></g><g transform="translate(18.709 26.5)"><path d="M312.394,130.573l.289-.646.389.592a2.968,2.968,0,0,0,1.27,1.082l.646.289-.592.389a2.964,2.964,0,0,0-1.081,1.269l-.29.647-.389-.592a2.966,2.966,0,0,0-1.269-1.082l-.647-.289.592-.389A2.968,2.968,0,0,0,312.394,130.573Z" transform="translate(-310.72 -129.927)" fill="#e8505b"/></g><g transform="translate(0 21.933)"><path d="M290.181,125.052l.168-.376.225.344a1.719,1.719,0,0,0,.738.628l.376.168-.344.226a1.728,1.728,0,0,0-.628.737l-.168.376-.225-.344a1.719,1.719,0,0,0-.738-.628l-.375-.169.344-.225A1.727,1.727,0,0,0,290.181,125.052Z" transform="translate(-289.209 -124.676)" fill="#e8505b"/></g><g transform="translate(61.122 55.015)"><path d="M360.456,163.088l.168-.376.225.344a1.719,1.719,0,0,0,.738.628l.376.168-.344.226a1.728,1.728,0,0,0-.628.737l-.168.376-.225-.344a1.727,1.727,0,0,0-.738-.629l-.375-.168.344-.225A1.727,1.727,0,0,0,360.456,163.088Z" transform="translate(-359.484 -162.712)" fill="#e8505b"/></g><g transform="translate(90.346 37.781)"><path d="M394.757,143.544l.29-.646.388.592a2.972,2.972,0,0,0,1.27,1.081l.647.29-.592.388a2.968,2.968,0,0,0-1.082,1.27l-.289.646-.389-.592a2.967,2.967,0,0,0-1.27-1.081l-.646-.29.592-.388A2.972,2.972,0,0,0,394.757,143.544Z" transform="translate(-393.084 -142.898)" fill="#e8505b"/></g><g transform="translate(85.31 13.579)"><path d="M390.106,116.158l.485-1.086.652,1a4.982,4.982,0,0,0,2.134,1.817l1.086.486-.995.652a4.977,4.977,0,0,0-1.817,2.134l-.486,1.086-.652-1a4.99,4.99,0,0,0-2.134-1.818l-1.086-.485.995-.653A4.988,4.988,0,0,0,390.106,116.158Z" transform="translate(-387.293 -115.072)" fill="#e8505b"/></g><g transform="translate(11.539 6.252)"><path d="M305.288,107.733l.486-1.086.652,1a4.994,4.994,0,0,0,2.134,1.817l1.086.486-.995.652a4.985,4.985,0,0,0-1.818,2.134l-.485,1.086-.652-1a4.994,4.994,0,0,0-2.134-1.817l-1.086-.486.995-.652A4.978,4.978,0,0,0,305.288,107.733Z" transform="translate(-302.476 -106.647)" fill="#e8505b"/></g></g><g transform="translate(20.501 192.321)"><g transform="translate(0 0)"><path d="M392.193,294.358s.278-.03.819-.065a6.158,6.158,0,0,0,1-.117l.642-.1.721-.187a11.823,11.823,0,0,0,3.547-1.587,12.276,12.276,0,0,0,3.705-3.757,12.613,12.613,0,0,0,1.342-2.855,12.38,12.38,0,0,0,.573-3.425c.03-.6.023-1.239,0-1.871-.017-.316-.034-.636-.05-.958q-.074-.479-.149-.967a12.685,12.685,0,0,0-1.391-3.834A12.335,12.335,0,0,0,396.117,269a13.941,13.941,0,0,0-4.885-.64l-5.27.008-112.54.066a12.285,12.285,0,0,0-7.474,2.553,12.762,12.762,0,0,0-2.717,2.888,12.457,12.457,0,0,0-1.626,3.585,13.476,13.476,0,0,0-.374,1.928c-.038.654-.083,1.3-.07,1.97a13.106,13.106,0,0,0,.471,3.863,12.771,12.771,0,0,0,1.609,3.5,13,13,0,0,0,2.6,2.792,11.748,11.748,0,0,0,3.3,1.851,11.057,11.057,0,0,0,3.671.751c2.52.063,5.055.019,7.543.034l14.625.008,50.595.048,34.109.072,9.273.043,2.412.023c.544.008.822.023.822.023s-.278.015-.822.023l-2.412.023-9.273.043-34.109.072-50.595.048-14.625.008c-2.5-.012-5,.033-7.564-.028a11.494,11.494,0,0,1-3.8-.776,12.219,12.219,0,0,1-3.42-1.916,13.432,13.432,0,0,1-2.7-2.892,13.194,13.194,0,0,1-1.67-3.623,13.554,13.554,0,0,1-.491-3.984c-.013-.659.032-1.342.073-2.017a13.9,13.9,0,0,1,.386-2,12.948,12.948,0,0,1,1.686-3.718,13.225,13.225,0,0,1,2.816-2.994,12.747,12.747,0,0,1,7.75-2.648l112.54.067,5.27.008a14.207,14.207,0,0,1,4.977.671,12.6,12.6,0,0,1,6.967,5.783,12.918,12.918,0,0,1,1.4,3.917l.146.985q.024.493.047.976c.02.645.024,1.263-.01,1.882a12.576,12.576,0,0,1-.6,3.48,12.8,12.8,0,0,1-1.38,2.889A12.366,12.366,0,0,1,399,292.41a11.763,11.763,0,0,1-3.6,1.562c-.258.063-.5.13-.729.177l-.648.093a5.735,5.735,0,0,1-1.009.1C392.471,294.359,392.193,294.358,392.193,294.358Z" transform="translate(-260.708 -267.977)" fill="#263238"/></g></g><g transform="translate(20.729 224.297)"><rect width="143.737" height="26.154" rx="13.077" fill="#e8505b"/></g><g transform="translate(33.768 200.179)"><g transform="translate(0 0)"><path d="M291.78,287.673a6.567,6.567,0,0,1-.04-.772c-.011-.539-.027-1.243-.046-2.116-.023-1.86-.056-4.431-.095-7.544l.181.182-15.541.045c-.05.049.428-.429.225-.225v1.383q0,.688,0,1.366,0,1.356,0,2.667c0,1.745-.01,3.423-.014,5.016l-.207-.208,11.137.1,3.22.056.869.025a1.715,1.715,0,0,1,.316.024,9.05,9.05,0,0,1-1.1.05l-3.172.056-11.274.1-.207,0v-.209c0-1.592-.009-3.271-.014-5.016q0-1.31,0-2.667,0-.677,0-1.366v-1.383c-.2.2.276-.277.228-.228l15.541.045h.184l0,.18c-.039,3.159-.071,5.77-.095,7.657q-.029,1.284-.046,2.075A4.491,4.491,0,0,1,291.78,287.673Z" transform="translate(-275.961 -277.011)" fill="#263238"/></g><g transform="translate(0.276 0.228)"><path d="M291.822,277.275a19.775,19.775,0,0,1-2.172,2.092c-1.379,1.249-3.305,2.95-5.451,4.808-.593,0-.166,0-.3,0l0,0-.006-.005-.013-.011-.025-.022-.05-.043-.1-.087-.2-.173-.395-.343-.769-.671-1.451-1.272c-.892-.8-1.713-1.528-2.438-2.176a19.712,19.712,0,0,1-2.171-2.092,20.008,20.008,0,0,1,2.381,1.85l2.5,2.1,1.467,1.253.774.665.395.341.2.172.1.087.05.044.025.022.013.01.006.006,0,0c-.131,0,.3,0-.294,0,2.146-1.858,4.105-3.521,5.538-4.707A19.966,19.966,0,0,1,291.822,277.275Z" transform="translate(-276.278 -277.272)" fill="#263238"/></g><g transform="translate(0.273 5.086)"><path d="M281.894,282.863a34.616,34.616,0,0,1-5.614,5.572,34.62,34.62,0,0,1,5.614-5.572Z" transform="translate(-276.275 -282.859)" fill="#263238"/></g><g transform="translate(10.572 4.764)"><path d="M293.363,288.387a34.556,34.556,0,0,1-5.241-5.894,34.37,34.37,0,0,1,5.241,5.894Z" transform="translate(-288.117 -282.488)" fill="#263238"/></g></g><g transform="translate(55.365 202.511)"><path d="M304.4,284.939v.344h-3.609v-5.231h3.5v.344h-3.115v2.062h2.787v.336h-2.787v2.144Z" transform="translate(-300.792 -279.74)" fill="#263238"/><path d="M312.807,283.2v2.279h-.374v-2.249c0-.882-.455-1.345-1.218-1.345a1.371,1.371,0,0,0-1.427,1.516v2.078h-.373v-2.249c0-.882-.456-1.345-1.218-1.345a1.371,1.371,0,0,0-1.427,1.516v2.078H306.4v-3.9h.359v.837a1.548,1.548,0,0,1,1.494-.866,1.382,1.382,0,0,1,1.427.941,1.646,1.646,0,0,1,1.576-.941A1.463,1.463,0,0,1,312.807,283.2Z" transform="translate(-301.522 -279.935)" fill="#263238"/><path d="M318.294,283v2.474h-.358v-.695a1.5,1.5,0,0,1-1.4.725c-.874,0-1.4-.449-1.4-1.113,0-.591.373-1.091,1.456-1.091h1.338v-.314a1.015,1.015,0,0,0-1.158-1.113,2.018,2.018,0,0,0-1.345.494l-.187-.27a2.375,2.375,0,0,1,1.562-.553A1.326,1.326,0,0,1,318.294,283Zm-.374,1.323V283.6h-1.33c-.807,0-1.091.336-1.091.785,0,.508.4.822,1.083.822A1.336,1.336,0,0,0,317.92,284.328Z" transform="translate(-302.659 -279.935)" fill="#263238"/><path d="M320.4,280.1a.307.307,0,0,1,.306-.307.3.3,0,1,1-.306.307Zm.119,1.247h.373v3.9h-.373Z" transform="translate(-303.345 -279.706)" fill="#263238"/><path d="M322.774,279.693h.374v5.544h-.374Z" transform="translate(-303.655 -279.693)" fill="#263238"/></g><g transform="translate(59.857 234.631)"><path d="M310.053,322.929l-1.407-1.973a4.036,4.036,0,0,1-.573.043h-1.686v1.93h-.43v-5.9h2.115c1.483,0,2.377.741,2.377,1.988a1.809,1.809,0,0,1-1.382,1.846l1.474,2.065Zm-1.98-2.309c1.264,0,1.939-.59,1.939-1.6s-.675-1.6-1.939-1.6h-1.686v3.2Z" transform="translate(-305.957 -316.675)" fill="#fff"/><path d="M316.424,321.049H312.64a1.883,1.883,0,0,0,3.27,1.138l.244.278a2.107,2.107,0,0,1-1.66.717,2.16,2.16,0,0,1-2.267-2.234,2.1,2.1,0,0,1,2.107-2.234,2.083,2.083,0,0,1,2.1,2.217C316.432,320.965,316.424,321.008,316.424,321.049Zm-3.775-.329h3.37a1.686,1.686,0,0,0-3.37,0Z" transform="translate(-306.774 -316.895)" fill="#fff"/><path d="M317.819,322.618l.194-.337a2.56,2.56,0,0,0,1.584.531c.927,0,1.3-.329,1.3-.825,0-1.281-2.915-.337-2.915-2.065,0-.666.556-1.206,1.668-1.206a2.707,2.707,0,0,1,1.509.43l-.194.337a2.262,2.262,0,0,0-1.323-.4c-.86,0-1.239.353-1.239.825,0,1.324,2.915.387,2.915,2.065,0,.716-.615,1.206-1.736,1.206A2.758,2.758,0,0,1,317.819,322.618Z" transform="translate(-307.502 -316.895)" fill="#fff"/><path d="M326.841,321.049h-3.783a1.883,1.883,0,0,0,3.27,1.138l.244.278a2.107,2.107,0,0,1-1.66.717,2.161,2.161,0,0,1-2.267-2.234,2.1,2.1,0,0,1,2.107-2.234,2.083,2.083,0,0,1,2.1,2.217C326.849,320.965,326.841,321.008,326.841,321.049Zm-3.775-.329h3.37a1.686,1.686,0,0,0-3.37,0Z" transform="translate(-308.13 -316.895)" fill="#fff"/><path d="M331.056,322.732a1.332,1.332,0,0,1-.9.311,1.091,1.091,0,0,1-1.2-1.2v-2.875h-.81v-.362h.81v-.96h.421v.96h1.4v.362h-1.4V321.8c0,.565.277.877.818.877a1.012,1.012,0,0,0,.683-.244Z" transform="translate(-308.847 -316.756)" fill="#fff"/><path d="M339.976,319.018c0,1.239-.893,1.98-2.376,1.98h-1.686v1.93h-.43v-5.9H337.6C339.083,317.03,339.976,317.771,339.976,319.018Zm-.438,0c0-1.019-.674-1.6-1.938-1.6h-1.686v3.194H337.6C338.864,320.611,339.538,320.03,339.538,319.018Z" transform="translate(-309.803 -316.675)" fill="#fff"/><path d="M345.23,320.359v2.789h-.4v-.785a1.686,1.686,0,0,1-1.584.818c-.986,0-1.585-.506-1.585-1.256,0-.665.421-1.23,1.643-1.23h1.509v-.355a1.145,1.145,0,0,0-1.306-1.255,2.288,2.288,0,0,0-1.517.556l-.21-.3a2.684,2.684,0,0,1,1.761-.624A1.5,1.5,0,0,1,345.23,320.359Zm-.421,1.492v-.826h-1.5c-.91,0-1.231.379-1.231.885,0,.573.447.927,1.222.927A1.508,1.508,0,0,0,344.809,321.85Z" transform="translate(-310.607 -316.895)" fill="#fff"/><path d="M347.016,322.618l.194-.337a2.561,2.561,0,0,0,1.584.531c.928,0,1.3-.329,1.3-.825,0-1.281-2.915-.337-2.915-2.065,0-.666.556-1.206,1.669-1.206a2.7,2.7,0,0,1,1.508.43l-.194.337a2.26,2.26,0,0,0-1.323-.4c-.859,0-1.239.353-1.239.825,0,1.324,2.916.387,2.916,2.065,0,.716-.615,1.206-1.736,1.206A2.763,2.763,0,0,1,347.016,322.618Z" transform="translate(-311.305 -316.895)" fill="#fff"/><path d="M351.649,322.618l.194-.337a2.56,2.56,0,0,0,1.584.531c.927,0,1.3-.329,1.3-.825,0-1.281-2.915-.337-2.915-2.065,0-.666.556-1.206,1.669-1.206a2.706,2.706,0,0,1,1.508.43l-.194.337a2.26,2.26,0,0,0-1.323-.4c-.859,0-1.239.353-1.239.825,0,1.324,2.916.387,2.916,2.065,0,.716-.616,1.206-1.737,1.206A2.758,2.758,0,0,1,351.649,322.618Z" transform="translate(-311.908 -316.895)" fill="#fff"/><path d="M363.1,318.754l-1.668,4.4h-.4l-1.484-3.818-1.492,3.818h-.387l-1.669-4.4h.4l1.467,3.927,1.5-3.927h.363l1.491,3.918,1.483-3.918Z" transform="translate(-312.475 -316.9)" fill="#fff"/><path d="M364.586,320.949a2.2,2.2,0,1,1,2.2,2.234A2.143,2.143,0,0,1,364.586,320.949Zm3.969,0a1.771,1.771,0,1,0-1.769,1.853A1.745,1.745,0,0,0,368.555,320.949Z" transform="translate(-313.593 -316.895)" fill="#fff"/><path d="M373.227,318.715v.413c-.033,0-.067-.009-.1-.009a1.519,1.519,0,0,0-1.559,1.736v2.293h-.421v-4.4h.4v.961A1.669,1.669,0,0,1,373.227,318.715Z" transform="translate(-314.447 -316.895)" fill="#fff"/><path d="M378.667,316.622v6.254h-.413v-1.037a1.949,1.949,0,0,1-1.8,1.071,2.234,2.234,0,0,1,0-4.467,1.971,1.971,0,0,1,1.794,1.053v-2.874Zm-.422,4.054a1.771,1.771,0,1,0-1.769,1.853A1.745,1.745,0,0,0,378.245,320.676Z" transform="translate(-314.855 -316.622)" fill="#fff"/></g><g transform="translate(0.172 13.884)"><path d="M416.947,63.046c0,.125-40.211.226-89.8.226-49.608,0-89.811-.1-89.811-.226s40.2-.226,89.811-.226C376.736,62.82,416.947,62.921,416.947,63.046Z" transform="translate(-237.335 -62.82)" fill="#263238"/></g><g transform="translate(5.984 4.791)"><path d="M248.388,54.551a2.186,2.186,0,1,1-2.186-2.186A2.186,2.186,0,0,1,248.388,54.551Z" transform="translate(-244.017 -52.365)" fill="#263238"/></g><g transform="translate(12.264 4.791)"><path d="M255.608,54.551a2.186,2.186,0,1,1-2.186-2.186A2.186,2.186,0,0,1,255.608,54.551Z" transform="translate(-251.237 -52.365)" fill="#263238"/></g><g transform="translate(18.542 4.791)"><path d="M262.828,54.551a2.186,2.186,0,1,1-2.186-2.186A2.186,2.186,0,0,1,262.828,54.551Z" transform="translate(-258.456 -52.365)" fill="#263238"/></g><path d="M417.24,319.655c0-1.861-.086-112.148-.208-272.571l.207.207-179.854.019h-.022l.227-.226c-.017,102.857-.034,197.686-.046,272.571l-.181-.181,179.877.181-179.877.18h-.18v-.18c-.013-74.885-.029-169.714-.046-272.571v-.227h.248l179.854.019h.209v.208C417.325,207.507,417.241,317.795,417.24,319.655Z" transform="translate(-237.137 -46.857)" fill="#263238"/></g><g transform="translate(352.871 250.63)"><g transform="translate(0 0)"><g transform="translate(32.49)"><path d="M439.962,423.628a2.159,2.159,0,0,0-.148-.357c-.118-.251-.276-.589-.478-1.018a25.61,25.61,0,0,1-1.4-4.078,36,36,0,0,1,.12-15.75,84.305,84.305,0,0,1,2.922-10.579c1.236-3.755,2.672-7.738,3.845-12.044a46.6,46.6,0,0,0,1.9-13.848c-.178-4.9-1.628-9.787-3.223-14.655s-3.237-9.64-3.73-14.432a22,22,0,0,1,2.646-13.328c2.111-3.89,4.767-7.216,6.755-10.661a37.048,37.048,0,0,0,4.06-10.248,38.17,38.17,0,0,0,.257-15.878,29.573,29.573,0,0,0-1.656-5.607,2.137,2.137,0,0,0,.1.373c.083.265.194.621.336,1.075a40.842,40.842,0,0,1,1.03,4.2,38.663,38.663,0,0,1-.412,15.759,36.918,36.918,0,0,1-4.073,10.119c-1.983,3.4-4.651,6.716-6.8,10.651a22.444,22.444,0,0,0-2.729,13.6c.5,4.874,2.155,9.671,3.743,14.539s3.029,9.7,3.209,14.517a46.381,46.381,0,0,1-1.853,13.707c-1.154,4.285-2.573,8.27-3.794,12.035a83.357,83.357,0,0,0-2.874,10.642,35.589,35.589,0,0,0,.04,15.867,23.509,23.509,0,0,0,1.5,4.072l.524,1A2.076,2.076,0,0,0,439.962,423.628Z" transform="translate(-436.84 -281.143)" fill="#263238"/></g><g transform="translate(37.916 14.529)"><path d="M447.277,318.452s4.036-12.905-3.2-20.463a.448.448,0,0,0-.767.222C442.92,300.342,442.437,306.834,447.277,318.452Z" transform="translate(-443.078 -297.847)" fill="#e8505b"/><g transform="translate(1.762 4.442)"><path d="M445.123,302.955a11.843,11.843,0,0,0,.272,2.381c.265,1.64.577,3.566.92,5.693s.644,4.052.9,5.693a13,13,0,0,0,.428,2.355,10.031,10.031,0,0,0-.072-2.4c-.134-1.475-.394-3.5-.76-5.73s-.752-4.232-1.068-5.677A10.7,10.7,0,0,0,445.123,302.955Z" transform="translate(-445.103 -302.955)" fill="#263238"/></g></g><g transform="translate(24.376 48.96)"><path d="M440.509,354.047s-2.468-13.3-12.4-16.589a.448.448,0,0,0-.575.555C428.188,340.077,430.8,346.041,440.509,354.047Z" transform="translate(-427.511 -337.434)" fill="#e8505b"/><g transform="translate(3.298 3.455)"><path d="M431.307,341.409a11.857,11.857,0,0,0,1.353,1.978l3.476,4.6L439.6,352.6a12.884,12.884,0,0,0,1.479,1.882,10.028,10.028,0,0,0-1.186-2.087c-.807-1.241-1.986-2.913-3.351-4.71s-2.644-3.389-3.6-4.518A10.791,10.791,0,0,0,431.307,341.409Z" transform="translate(-431.304 -341.407)" fill="#263238"/></g></g><g transform="translate(32.299 79.366)"><path d="M444.38,391.954s1.5-13.44-7.049-19.476a.447.447,0,0,0-.711.364C436.647,375.008,437.411,381.472,444.38,391.954Z" transform="translate(-436.62 -372.393)" fill="#e8505b"/><g transform="translate(2.293 4.156)"><path d="M439.266,377.172a11.9,11.9,0,0,0,.721,2.286c.574,1.559,1.246,3.389,1.99,5.412s1.4,3.856,1.974,5.415a12.863,12.863,0,0,0,.869,2.231,10.057,10.057,0,0,0-.529-2.341c-.412-1.422-1.055-3.364-1.839-5.48s-1.546-4.01-2.132-5.368A10.735,10.735,0,0,0,439.266,377.172Z" transform="translate(-439.257 -377.171)" fill="#263238"/></g></g><g transform="translate(24.136 113.189)"><path d="M435.675,430.567s1.017-13.484-7.742-19.21a.448.448,0,0,0-.7.389C427.34,413.909,428.335,420.342,435.675,430.567Z" transform="translate(-427.235 -411.281)" fill="#e8505b"/><g transform="translate(2.426 4.086)"><path d="M430.033,415.98a11.907,11.907,0,0,0,.8,2.259c.629,1.538,1.366,3.343,2.182,5.337s1.542,3.8,2.166,5.341a12.986,12.986,0,0,0,.948,2.2,9.979,9.979,0,0,0-.612-2.321c-.463-1.406-1.174-3.324-2.034-5.411s-1.689-3.953-2.322-5.289A10.766,10.766,0,0,0,430.033,415.98Z" transform="translate(-430.025 -415.979)" fill="#263238"/></g></g><g transform="translate(47.915 6.606)"><path d="M454.575,305.926s11.986-6.26,12.221-16.722a.447.447,0,0,0-.7-.386C464.316,290.05,459.38,294.293,454.575,305.926Z" transform="translate(-454.575 -288.738)" fill="#e8505b"/><g transform="translate(0.099 4.058)"><path d="M464.323,293.406a11.849,11.849,0,0,0-1.493,1.874l-3.379,4.672-3.391,4.661a12.94,12.94,0,0,0-1.366,1.966,9.971,9.971,0,0,0,1.647-1.746c.949-1.136,2.2-2.753,3.52-4.585s2.463-3.523,3.263-4.766A10.777,10.777,0,0,0,464.323,293.406Z" transform="translate(-454.689 -293.404)" fill="#263238"/></g></g><g transform="translate(35.045 35.069)"><path d="M439.777,337.906s12.344-5.52,13.214-15.95a.447.447,0,0,0-.674-.428C450.464,322.649,445.279,326.586,439.777,337.906Z" transform="translate(-439.777 -321.463)" fill="#e8505b"/><g transform="translate(0.097 3.928)"><path d="M450.3,325.981a11.821,11.821,0,0,0-1.6,1.78l-3.656,4.458-3.668,4.445a12.929,12.929,0,0,0-1.482,1.88,9.99,9.99,0,0,0,1.749-1.642c1.017-1.077,2.366-2.615,3.792-4.364s2.674-3.365,3.547-4.558A10.791,10.791,0,0,0,450.3,325.981Z" transform="translate(-439.889 -325.979)" fill="#263238"/></g></g><g transform="translate(42.131 61.927)"><path d="M447.941,372.844s8.476-10.537,4.5-20.218a.448.448,0,0,0-.795-.074C450.507,354.395,447.683,360.26,447.941,372.844Z" transform="translate(-447.924 -352.343)" fill="#e8505b"/><g transform="translate(0.116 4.574)"><path d="M451.618,357.6a11.735,11.735,0,0,0-.618,2.315c-.352,1.624-.766,3.529-1.224,5.635s-.884,4.007-1.241,5.628a13.062,13.062,0,0,0-.464,2.348,9.984,9.984,0,0,0,.81-2.259c.416-1.421.915-3.405,1.389-5.612s.847-4.214,1.081-5.673A10.86,10.86,0,0,0,451.618,357.6Z" transform="translate(-448.057 -357.602)" fill="#263238"/></g></g><g transform="translate(33.751 102.156)"><path d="M438.29,415.25s12.251-5.727,12.945-16.169a.448.448,0,0,0-.682-.417C448.72,399.817,443.6,403.84,438.29,415.25Z" transform="translate(-438.29 -398.596)" fill="#e8505b"/><g transform="translate(0.098 3.965)"><path d="M448.605,403.157a11.787,11.787,0,0,0-1.574,1.806l-3.582,4.52-3.592,4.506a12.976,12.976,0,0,0-1.451,1.9,9.968,9.968,0,0,0,1.722-1.672c1-1.093,2.32-2.654,3.718-4.426s2.616-3.41,3.469-4.618A10.755,10.755,0,0,0,448.605,403.157Z" transform="translate(-438.403 -403.155)" fill="#263238"/></g></g><g transform="translate(0 62.57)"><g transform="translate(9.336 3.075)"><path d="M410.235,356.618a1.012,1.012,0,0,0-.016.3c.006.236.013.52.022.865.036.812.084,1.91.145,3.279.157,2.882.377,6.9.641,11.709v.011l0,.017c.875,4.893,3.367,10.317,6.714,15.583,2.456,3.879,5.03,7.405,7.249,10.685a75.779,75.779,0,0,1,5.435,8.984,38.1,38.1,0,0,1,2.542,6.593c.216.808.378,1.438.471,1.869a3.413,3.413,0,0,0,.179.651,3.349,3.349,0,0,0-.079-.671c-.061-.438-.192-1.078-.38-1.9a34.753,34.753,0,0,0-2.411-6.7,71.718,71.718,0,0,0-5.371-9.088c-2.2-3.3-4.765-6.835-7.207-10.695-3.33-5.239-5.809-10.581-6.716-15.4l0,.028c-.337-4.8-.619-8.818-.822-11.7-.11-1.366-.2-2.461-.264-3.272-.035-.343-.063-.625-.087-.859A.983.983,0,0,0,410.235,356.618Z" transform="translate(-410.219 -356.618)" fill="#263238"/></g><g transform="translate(14.691 12.987)"><path d="M418.33,388.856s-5.187-12.488,1.338-20.669a.448.448,0,0,1,.785.151C421.03,370.426,422.1,376.847,418.33,388.856Z" transform="translate(-416.375 -368.014)" fill="#e8505b"/><g transform="translate(1.701 4.527)"><path d="M419.53,373.219a10.816,10.816,0,0,0-.411,2.362c-.184,1.467-.39,3.5-.551,5.75s-.237,4.295-.237,5.775a10.034,10.034,0,0,0,.145,2.4,12.976,12.976,0,0,0,.212-2.385c.111-1.657.241-3.6.384-5.751s.286-4.095.4-5.752A11.81,11.81,0,0,0,419.53,373.219Z" transform="translate(-418.331 -373.219)" fill="#263238"/></g><g opacity="0.3"><path d="M418.33,388.856s-5.187-12.488,1.338-20.669a.448.448,0,0,1,.785.151C421.03,370.426,422.1,376.847,418.33,388.856Z" transform="translate(-416.375 -368.014)"/></g></g><g transform="translate(31.515 43.284)"><path d="M436.918,423.486s-4.158-12.867,3.009-20.492a.448.448,0,0,1,.77.214C441.1,405.335,441.649,411.822,436.918,423.486Z" transform="translate(-435.719 -402.848)" fill="#e8505b"/><g transform="translate(1.049 4.453)"><path d="M439.34,407.968a10.745,10.745,0,0,0-.6,2.321c-.3,1.447-.671,3.456-1.014,5.686s-.585,4.262-.705,5.738a10.022,10.022,0,0,0-.05,2.4,12.921,12.921,0,0,0,.405-2.359c.244-1.642.532-3.57.85-5.7s.617-4.059.866-5.7A11.861,11.861,0,0,0,439.34,407.968Z" transform="translate(-436.925 -407.968)" fill="#263238"/></g><g opacity="0.3"><path d="M436.918,423.486s-4.158-12.867,3.009-20.492a.448.448,0,0,1,.77.214C441.1,405.335,441.649,411.822,436.918,423.486Z" transform="translate(-435.719 -402.848)"/></g></g><path d="M409.524,371.65s-11.078-7.755-9.96-18.16a.447.447,0,0,1,.743-.293C401.914,354.648,406.261,359.494,409.524,371.65Z" transform="translate(-399.485 -353.082)" fill="#e8505b"/><g opacity="0.3"><path d="M409.524,371.65s-11.078-7.755-9.96-18.16a.447.447,0,0,1,.743-.293C401.914,354.648,406.261,359.494,409.524,371.65Z" transform="translate(-399.485 -353.082)"/></g><g transform="translate(2.076 4.292)"><path d="M401.879,358.018a10.771,10.771,0,0,0,.92,2.214c.632,1.337,1.549,3.162,2.621,5.147s2.1,3.752,2.9,5a10,10,0,0,0,1.407,1.944,13.043,13.043,0,0,0-1.1-2.127c-.795-1.458-1.729-3.169-2.761-5.059l-2.748-5.07A11.867,11.867,0,0,0,401.879,358.018Z" transform="translate(-401.872 -358.017)" fill="#263238"/></g><g transform="translate(11.279 38.64)"><path d="M429.421,410.033s-13.36-2.083-16.939-11.917a.447.447,0,0,1,.538-.59C415.1,398.121,421.139,400.557,429.421,410.033Z" transform="translate(-412.453 -397.508)" fill="#e8505b"/><g opacity="0.3"><path d="M429.421,410.033s-13.36-2.083-16.939-11.917a.447.447,0,0,1,.538-.59C415.1,398.121,421.139,400.557,429.421,410.033Z" transform="translate(-412.453 -397.508)"/></g><g transform="translate(3.537 3.209)"><path d="M416.522,401.2a10.747,10.747,0,0,0,1.8,1.583c1.157.921,2.783,2.156,4.62,3.467s3.541,2.442,4.8,3.213a10,10,0,0,0,2.12,1.125,12.97,12.97,0,0,0-1.924-1.425l-4.707-3.326-4.7-3.342A11.928,11.928,0,0,0,416.522,401.2Z" transform="translate(-416.52 -401.198)" fill="#263238"/></g></g></g><g transform="translate(19.763 138.324)"><path d="M446.5,440.18l-3.832,25.138-15.305-.026-5.156-25.112Z" transform="translate(-422.208 -440.18)" fill="#455a64"/></g><g transform="translate(22.006 141.861)"><path d="M432.868,448.779a4.267,4.267,0,0,0,.71-2.1,2.29,2.29,0,0,0-1.038-2.161,2.48,2.48,0,0,0-2.564.211,3.745,3.745,0,0,0-1.466,2.308,9.849,9.849,0,0,0-.19,2.84,9.4,9.4,0,0,0,.621,2.9,6.415,6.415,0,0,0,1.774,2.531,4.954,4.954,0,0,0,2.945,1.23,5.394,5.394,0,0,0,3.063-.89,9.173,9.173,0,0,0,2.286-2.066,5.014,5.014,0,0,0,1.158-2.761,3.2,3.2,0,0,0-1.086-2.663,2.489,2.489,0,0,0-2.712-.165,2.9,2.9,0,0,0-1.565,2.049,3.935,3.935,0,0,0,1.935,3.979,5.41,5.41,0,0,0,3.695.534,8.416,8.416,0,0,0,2.633-1.031,13.887,13.887,0,0,0,1.474-1,3.075,3.075,0,0,0,.472-.4,3.8,3.8,0,0,0-.522.333c-.337.224-.832.559-1.5.924a8.535,8.535,0,0,1-2.594.942,5.191,5.191,0,0,1-3.5-.558,3.628,3.628,0,0,1-1.745-3.656,2.544,2.544,0,0,1,1.391-1.787,2.112,2.112,0,0,1,2.3.14,2.814,2.814,0,0,1,.926,2.338,4.627,4.627,0,0,1-1.081,2.529,8.8,8.8,0,0,1-2.181,1.965,4.993,4.993,0,0,1-2.825.825,4.543,4.543,0,0,1-2.693-1.129,5.994,5.994,0,0,1-1.664-2.367,9.029,9.029,0,0,1-.6-2.775,9.522,9.522,0,0,1,.166-2.722,3.381,3.381,0,0,1,1.3-2.093,2.131,2.131,0,0,1,2.187-.217,1.96,1.96,0,0,1,.888,1.846,3.978,3.978,0,0,1-.634,1.953,5.692,5.692,0,0,1-2.853,2.138,6.274,6.274,0,0,1-2.72.324,7.137,7.137,0,0,1-2.261-.671c0,.006.039.037.128.092a4.487,4.487,0,0,0,.4.23,5.575,5.575,0,0,0,1.711.511,6.289,6.289,0,0,0,2.814-.264,5.886,5.886,0,0,0,3.026-2.2" transform="translate(-424.786 -444.247)" fill="#263238"/></g></g></g></g><g transform="translate(452 137)"><g transform="translate(0 0)"><path d="M186.2,43.524c.486.177.593.559.809.833a15.2,15.2,0,0,0,11.964,6.083,7.566,7.566,0,0,0,7.809-6.283A7.683,7.683,0,0,0,202,35.618a7.573,7.573,0,0,0-9.349,3.34c-.109.179-.233.35-.453.683a17.689,17.689,0,0,0-2.439-5.2c-.367-.508.08-.794.381-1.1a13.064,13.064,0,0,1,19.287,1.11c3.417,4.359,4.064,9.2,1.536,14.168A12.588,12.588,0,0,1,198.492,55.9,13.042,13.042,0,0,1,186.2,43.524Z" transform="translate(-165.249 -29.607)" fill="#e03249"/><path d="M191.861,48.405a13.676,13.676,0,0,1-7.958-7.738,8.589,8.589,0,0,0-3.418-4.4,7.644,7.644,0,0,0-11.668,6.4c-.066,4.02-.016,8.04-.018,12.06,0,1.313-.072,1.363-1.379,1.022a5.17,5.17,0,0,1-4.028-4.65,60.03,60.03,0,0,1,.147-10.505,13.1,13.1,0,0,1,25.862.04,15.154,15.154,0,0,1,.19,2.068A8.66,8.66,0,0,0,191.861,48.405Z" transform="translate(-163.233 -29.606)" fill="#e03249"/><path d="M186.319,49.909a14.625,14.625,0,0,0,4.9,6.094,1.147,1.147,0,0,1,.394,1.073c-.006,4.278-.019,8.557.009,12.834.005.817-.252,1.016-1.034.849a5.425,5.425,0,0,1-4.434-5.15c-.053-5.119-.015-10.238-.01-15.357C186.142,50.2,186.2,50.142,186.319,49.909Z" transform="translate(-165.242 -31.344)" fill="#e03249"/><path d="M279.949,51.235c0,1.861-.037,3.354.013,4.844.032.941-.065,1.489-1.27,1.505-1.272.016-1.215-.643-1.211-1.519.02-4.84,0-9.681.023-14.521,0-.482-.312-1.211.472-1.358.573-.108,1.516-.328,1.712.2.451,1.223.85.661,1.51.256a5.437,5.437,0,0,1,8.129,2.943c1.443,4.148-.479,8.392-4.162,9.213A5.726,5.726,0,0,1,279.949,51.235Zm-.021-4.8c.027,2.614,1.445,4.246,3.676,4.234,2.165-.013,3.665-1.773,3.668-4.3,0-2.49-1.538-4.354-3.633-4.4C281.453,41.932,279.9,43.8,279.928,46.439Z" transform="translate(-173.254 -30.477)" fill="#e03249"/><path d="M314.034,53.007a6.4,6.4,0,0,1-6.286-7.09c.261-4.029,3.312-6.639,7.129-6.1a5.881,5.881,0,0,1,4.881,6.152c-.044,1.017-.569,1.055-1.322,1.049-2.183-.02-4.37.057-6.55-.027-1.66-.064-1.7.689-1.112,1.861a3.646,3.646,0,0,0,6.133.522c.811-1.177,1.62-1.033,2.322-.419.769.674-.174,1.327-.56,1.851A5.667,5.667,0,0,1,314.034,53.007Zm-.288-7.936a5.155,5.155,0,0,0,1.212-.016c.7-.176,1.856.574,2.044-.544a2.236,2.236,0,0,0-1.657-2.3,3.493,3.493,0,0,0-3.482.255c-.725.516-1.512,1.241-1.275,2.147.246.946,1.276.3,1.944.444A6.029,6.029,0,0,0,313.746,45.071Z" transform="translate(-175.912 -30.474)" fill="#e03249"/><path d="M245.418,47.01c-1.024,0-2.047-.019-3.07.006-1.619.037-1.878.544-1.043,1.985a3.629,3.629,0,0,0,6.022.4c.79-1.148,1.565-1.092,2.313-.46.826.7-.138,1.338-.525,1.841a6.057,6.057,0,0,1-8.1,1.184,6.967,6.967,0,0,1-2.108-8.778,5.886,5.886,0,0,1,11.269,2.544c.03.993-.291,1.351-1.277,1.295C247.741,46.96,246.578,47.01,245.418,47.01Zm-1.19-1.943a3.639,3.639,0,0,0,1.009-.016c.746-.225,2.031.678,2.186-.593a2.35,2.35,0,0,0-2.068-2.411,3.367,3.367,0,0,0-3.411.7c-.538.532-1.173,1.178-.931,1.911.267.812,1.179.3,1.8.4A9.628,9.628,0,0,0,244.228,45.067Z" transform="translate(-169.809 -30.47)" fill="#e03249"/><path d="M299.994,47.011c-1.023,0-2.049.066-3.065-.014-1.907-.15-1.692.817-1.062,1.963a3.621,3.621,0,0,0,6.005.46c.785-1.122,1.537-1.144,2.314-.5.943.781-.136,1.426-.537,1.94a6.067,6.067,0,0,1-8.278.937c-2.7-1.932-3.429-6.217-1.571-9.218a5.99,5.99,0,0,1,6.732-2.67,5.855,5.855,0,0,1,4.2,5.449c.089,1.156-.075,1.828-1.473,1.676A29.946,29.946,0,0,0,299.994,47.011Zm-1.163-1.944a3.752,3.752,0,0,0,1.014-.015c.754-.221,2.086.661,2.194-.579a2.45,2.45,0,0,0-2.1-2.431,3.508,3.508,0,0,0-3.277.577c-.637.549-1.31,1.284-1.085,2.065s1.193.288,1.828.371A11.034,11.034,0,0,0,298.831,45.067Z" transform="translate(-174.599 -30.47)" fill="#e03249"/><path d="M263.884,47.9c0,1.162.02,2.325-.01,3.487-.011.414.357,1.073-.386,1.158-.627.072-1.66.414-1.838-.249-.347-1.3-.716-.641-1.278-.265a4.716,4.716,0,0,1-4.845.535,3.529,3.529,0,0,1-2.25-3.562,3.266,3.266,0,0,1,2.451-3.175c1.285-.411,2.667-.515,3.994-.8.689-.149,1.647-.085,1.591-1.181A1.862,1.862,0,0,0,259.934,42c-1.453-.363-3.015-.453-3.688,1.216-.584,1.447-1.608.98-2.271.58-.882-.533-.111-1.353.245-1.933,1.11-1.8,3.686-2.585,6.224-1.971a4.3,4.3,0,0,1,3.384,4.32c.076,1.225.013,2.461.013,3.69Zm-6.413,2.986c2.339.065,3.77-1.286,3.877-3.189.044-.789-.25-.947-.922-.875-3.286.356-4.674.667-4.631,2.262A1.711,1.711,0,0,0,257.47,50.888Z" transform="translate(-171.134 -30.469)" fill="#e03249"/><path d="M224.34,46.229c0-1.569-.017-3.139.01-4.707.008-.5-.262-1.215.529-1.337.568-.089,1.475-.368,1.692.213.485,1.294.908.41,1.4.121,3.3-1.943,6.654-.378,7.014,3.427.236,2.5.06,5.044.135,7.565.028.967-.432,1.08-1.237,1.12-1,.049-1.286-.311-1.255-1.279.062-1.977.057-3.958,0-5.935-.064-2.372-.993-3.466-2.831-3.476-1.8-.008-2.844,1.123-2.96,3.429-.1,1.973-.07,3.957-.026,5.934.021.913-.161,1.355-1.214,1.336-.975-.018-1.315-.309-1.278-1.293C224.388,49.643,224.34,47.935,224.34,46.229Z" transform="translate(-168.593 -30.468)" fill="#e03249"/><path d="M270.13,41.617a5.06,5.06,0,0,1,2.535-1.6c.673-.091,1.728-.726,1.868.7.1.978.175,1.769-1.34,1.844-2.217.109-3.027,1.154-3.115,3.463-.068,1.768-.073,3.54-.018,5.307.03.955-.247,1.307-1.252,1.313s-1.26-.324-1.244-1.284c.052-3.129-.015-6.261.049-9.39.012-.614-.568-1.591.639-1.82C269.311,39.955,270.127,40.176,270.13,41.617Z" transform="translate(-172.381 -30.479)" fill="#e03249"/><path d="M323.247,46.37c0-1.634-.019-3.268.012-4.9.009-.482-.279-1.253.559-1.272.639-.014,1.619-.534,1.835.619.156.835.39.673.837.233a3.944,3.944,0,0,1,2.341-1.126c.7-.083,1.434-.164,1.374.912-.043.749.309,1.556-1.047,1.722-2.824.344-3.377,1.106-3.421,4.011-.025,1.634-.065,3.271.014,4.9.054,1.114-.534,1.148-1.376,1.177-.9.032-1.173-.289-1.144-1.169C323.288,49.776,323.248,48.073,323.247,46.37Z" transform="translate(-177.271 -30.485)" fill="#e03249"/></g></g></g></svg>