<svg xmlns="http://www.w3.org/2000/svg" xmlns:xlink="http://www.w3.org/1999/xlink" width="21.928" height="25.292" viewBox="0 0 21.928 25.292"><defs><style>.a{fill:#f2f2f2;}.b{filter:url(#a);}</style><filter id="a" x="0" y="0" width="21.928" height="25.292" filterUnits="userSpaceOnUse"><feOffset input="SourceAlpha"/><feGaussianBlur stdDeviation="1" result="b"/><feFlood flood-opacity="0.161"/><feComposite operator="in" in2="b"/><feComposite in="SourceGraphic"/></filter></defs><g class="b" transform="matrix(1, 0, 0, 1, 0, 0)"><path class="a" d="M18.92,13a.991.991,0,0,0-.98.86,6.006,6.006,0,0,1-7.42,4.96,5.837,5.837,0,0,1-4.39-4.53A6.014,6.014,0,0,1,12,7V9.79a.5.5,0,0,0,.85.35l3.79-3.79a.5.5,0,0,0,0-.71L12.85,1.85a.5.5,0,0,0-.85.36V5a8,8,0,0,0-7.84,9.6,7.774,7.774,0,0,0,5.99,6.19,8.007,8.007,0,0,0,9.77-6.67,1,1,0,0,0-1-1.12ZM10.9,16V11.73h-.09l-1.77.63v.69l1.01-.31V16Zm3.42-4.22a1.79,1.79,0,0,0-1.18,0,1.057,1.057,0,0,0-.45.33,1.532,1.532,0,0,0-.29.57,3.224,3.224,0,0,0-.1.82v.74a2.757,2.757,0,0,0,.11.82,1.627,1.627,0,0,0,.3.57,1.152,1.152,0,0,0,.46.33,1.79,1.79,0,0,0,1.18,0,1.057,1.057,0,0,0,.45-.33,1.7,1.7,0,0,0,.29-.57,2.83,2.83,0,0,0,.1-.82V13.5a2.757,2.757,0,0,0-.11-.82,1.627,1.627,0,0,0-.3-.57A1.226,1.226,0,0,0,14.32,11.78Zm.01,2.57a2.206,2.206,0,0,1-.04.48,1.083,1.083,0,0,1-.11.32.389.389,0,0,1-.19.17.7.7,0,0,1-.25.05.655.655,0,0,1-.25-.05.436.436,0,0,1-.19-.17,1.072,1.072,0,0,1-.12-.32,2.206,2.206,0,0,1-.04-.48v-.97a2.206,2.206,0,0,1,.04-.48.8.8,0,0,1,.12-.31.436.436,0,0,1,.19-.17.7.7,0,0,1,.25-.05.655.655,0,0,1,.25.05.436.436,0,0,1,.19.17,1,1,0,0,1,.12.31,2.206,2.206,0,0,1,.04.48v.97Z" transform="translate(-1 1.29)"/></g></svg>