<svg xmlns="http://www.w3.org/2000/svg" width="169.006" height="198.213" viewBox="0 0 169.006 198.213"><ellipse cx="84.503" cy="21.518" rx="84.503" ry="21.518" transform="translate(0 155.176)" fill="#8191a4"/><g transform="translate(2.398)"><path d="M293.088,410.1c25.188-33.864,35.4-71.479,35.4-71.479l-.036,32.694s-21.486,35.982-28.965,44C296.5,415.314,293.088,413.972,293.088,410.1Z" transform="translate(-214.43 -281.513)" fill="#009461"/><g transform="translate(0 126.811)"><g transform="translate(21.364)"><path d="M354.341,401.531s-35.291-15.706-51.312-11.819-51.377,40.4-51.377,40.4c-.45,4,2.16,6.772,6.542,8.825,0,0,29.081-17.4,46.943-34.55,0,0,30.636,16.629,47.515,11.313C354.287,415.181,358.644,406.126,354.341,401.531Z" transform="translate(-251.601 -389.094)" fill="#011b2e"/></g><path d="M264.412,430.518a5.068,5.068,0,0,1-1.772,2.259c-1.469,1.178-6.655,5.1-6.655,5.1l-19.855-24.756s3.784-3.182,8.356-1.7,6.422,7.921,13.349,9.934C257.836,421.359,257.7,423.5,264.412,430.518Z" transform="translate(-236.131 -380.736)" fill="#e8e8e8"/></g><g transform="translate(100.045)"><path d="M311.514,325.806c-.283-2.761.412-12.334,1.211-14.929,1.895-6.147,7.482-13.122,20.324-13.589,15.151-.55,23.563,10.584,23.183,26.837a8.338,8.338,0,0,1,6.419,7.584c.677,6.533-3.411,5.183-3.411,5.183a12.069,12.069,0,0,1,4.875,6.242c1.084,3.033-1.991,9.992-6.9,8.9,0,0-.811,5.853-5.948,5.563s-4.883-3.564-4.883-3.564-7.522,5.314-11.476,4.628a5.351,5.351,0,0,1-4.313-4.693s-3.905,5.407-8.246,3.629-4.613-7.319-4.613-7.319-5.407.946-7.029-3.245,2.951-9.735,2.951-9.735-3.58.131-4.528-2.072C307.049,330.412,311.514,325.806,311.514,325.806Z" transform="translate(-308.575 -297.269)" fill="#133248"/></g><g transform="translate(105.125 16.808)"><g transform="translate(18.654 26.683)"><path d="M325.761,333.144l.668,3.747.753,4.236.646,3.66a8.154,8.154,0,0,0,6.814.128,20,20,0,0,0,5.19-2.881l-.023-.3-.113-1.388L338.934,331l-.155-1.96c-1.17-.6-3.011-.167-4.955.576-1.913.721-3.932,1.757-5.518,2.407C326.8,332.648,325.761,333.144,325.761,333.144Z" transform="translate(-325.761 -328.762)" fill="#fdb491"/></g><g transform="translate(18.657 29.058)"><path d="M325.763,332.492l1.417,7.981c5.285-1.911,8.93-9.992,8.93-9.992l-7.807.889C326.793,331.992,325.763,332.492,325.763,332.492Z" transform="translate(-325.763 -330.481)" fill="#ef887a"/></g><path d="M322.358,343.948a18.1,18.1,0,0,0,9.215.3,29.626,29.626,0,0,0,7.785-2.924,41.479,41.479,0,0,0,4.724-2.966c1.051-.757,1.906-1.446,2.505-1.951.646-.552,1-.895,1-.895s.128-2.011.09-4.927a63.323,63.323,0,0,0-1.03-11.044c-.916-4.568-2.592-8.7-5.64-10.1l-4.977.046-23.576.218s-.03.355-.068.992c-.079,1.389-.188,4.125-.106,7.462,0,.25.012.5.022.761C312.6,328.19,314.452,341.471,322.358,343.948Z" transform="translate(-312.253 -309.44)" fill="#fdb491"/><g transform="translate(31.791 21.149)"><path d="M336.143,334.5c.65-.552,2.676-4.813,2.676-4.813s.128-2.011.088-4.929l-2.121,1.186S333.864,332.807,336.143,334.5Z" transform="translate(-335.274 -324.754)" fill="#133248"/></g><g transform="translate(30.447 10.049)"><path d="M334.3,319.662s2.895-4.788,6.191-2.154c3.632,2.9,2,13.111-5.242,13.055Z" transform="translate(-334.3 -316.716)" fill="#fdb491"/></g><g transform="translate(0.137)"><path d="M312.352,310.7c.072,3.045,5.405,6.09,24.888,6.266,0,0,.007,8.978,3.843,8.16.913-.195,1.812-5.333,5.527-5.579-.913-4.568-2.592-8.7-5.639-10.1l-28.555.264S312.388,310.059,312.352,310.7Z" transform="translate(-312.352 -309.44)" fill="#133248"/></g><g transform="translate(23.141 0.001)"><path d="M329.01,310.517s2.3,13.433,3.577,26.463c.144,1.458.275,2.917.385,4.349.258,3.3,2.744,7.058,5.6,7.771l-.874-10.736c1.052-.758,1.906-1.447,2.505-1.954.65-.552,1.005-.895,1.005-.895s.126-2.008.087-4.927a62.522,62.522,0,0,0-1.029-11.044c-.913-4.567-2.592-8.695-5.641-10.1l-4.979.044A2,2,0,0,0,329.01,310.517Z" transform="translate(-329.01 -309.441)" fill="#133248"/></g></g><g transform="translate(16.975 139.726)"><g transform="translate(20.228)"><path d="M378.933,400.675s-44.07-3.74-60.408-1.53-55.276,34.87-55.276,34.87c-.862,3.937,1.449,6.96,5.594,9.454,0,0,30.723-14.3,50.261-29.515,0,0,33.779,17.362,51.362,15.355C384.3,427.731,382.633,406.442,378.933,400.675Z" transform="translate(-263.07 -398.446)" fill="#133248"/></g><path d="M274.755,437.031a5.057,5.057,0,0,1-2,2.063c-1.584,1.021-7.147,4.386-7.147,4.386l-17.189-26.674s4.091-2.774,8.485-.824,5.57,8.543,12.252,11.259C269.16,427.241,268.8,429.351,274.755,437.031Z" transform="translate(-248.423 -392.03)" fill="#fff"/></g><g transform="translate(107.523 55.98)"><path d="M321.583,393.426c.661,11.526-1.461,18.208-4.758,28.109,19.472,6.912,28.38,9.574,44.5,6.964.566-9.471,2.153-25.957,1.878-35.885-.823-29.516-4.176-48.468-4.176-48.468l-8.1-3.132-8.305-3.209-14.088.717-2.966.152-5.041.26s-.645,14.378-5.1,26.718c-3.627,10.034.534,12.051,2.808,14.441.09.093.173.185.257.28a4.542,4.542,0,0,1,.772,1.181c.057.131.111.272.167.421.137.376.275.8.4,1.255A78.466,78.466,0,0,1,321.583,393.426Z" transform="translate(-313.99 -337.805)" fill="#08c086"/><g transform="translate(4.235 42.288)"><path d="M317.056,368.426c.09.093.173.185.257.28a4.542,4.542,0,0,1,.772,1.181c.057.131.111.272.167.421a53.576,53.576,0,0,0,21.048,4.133c.453,0,.913,0,1.378-.014a.6.6,0,0,0-.012-1.193h-.015A51.857,51.857,0,0,1,317.056,368.426Z" transform="translate(-317.056 -368.426)" fill="#009461"/></g><path d="M324.517,338.523c.544,5.314.463,14.224,7.159,14.4,8.048.21,13.439-8.5,15.234-11.906l-8.305-3.209Z" transform="translate(-309.979 -337.805)" fill="#fdb491"/></g><g transform="translate(93.604 62.322)"><path d="M303.911,412.683c10.338-5.762,32.433-18.624,32.433-18.624s12.341-15.326,26.521-51.662c0,0,7.183,6.412,2.988,25.783s-22.093,37.263-22.093,37.263-24.162,12.012-34.877,12.807Z" transform="translate(-303.911 -342.397)" fill="#009461"/></g><g transform="translate(35.54 102.932)"><path d="M273.86,398.838l70.207,7.024a2.886,2.886,0,0,0,3.158-2.584h0a2.886,2.886,0,0,0-2.584-3.16l-70.207-7.024a2.886,2.886,0,0,0-3.16,2.584h0A2.886,2.886,0,0,0,273.86,398.838Z" transform="translate(-258.286 -363.697)" fill="#fff"/><path d="M273.861,405.652l.006.012L336,411.675,321.529,378.42a4.357,4.357,0,0,0-3.567-2.6l-4.078-.4,18.25,35.866Z" transform="translate(-257.296 -370.425)" fill="#fff"/><path d="M277.324,406.923l51.424,4.973a4.7,4.7,0,0,0,4.766-6.56l-11.2-25.731a4.706,4.706,0,0,0-3.86-2.8l-51.424-4.974a4.7,4.7,0,0,0-4.766,6.561l11.2,25.731A4.706,4.706,0,0,0,277.324,406.923Z" transform="translate(-261.866 -371.803)" fill="#cecece"/><path d="M283.726,386.972a3.978,3.978,0,1,0,4.354-3.562A3.979,3.979,0,0,0,283.726,386.972Z" transform="translate(-253.545 -367.389)" fill="#011b2e" opacity="0.2"/></g></g></svg>