<svg xmlns="http://www.w3.org/2000/svg" width="112.494" height="101.56" viewBox="0 0 112.494 101.56"><g transform="translate(9.354)"><path d="M327.771,75.558A28.888,28.888,0,0,0,331.233,65.3c.47-6.637-2.313-15.453-14.525-20.7C302.3,38.4,288.723,49.215,283.014,65.035c-7.863,21.789-16.689,32.235-16.689,32.235l34.641,18.717S311.29,102.051,327.771,75.558Z" transform="translate(-266.325 -42.824)" fill="#133248"/></g><g transform="translate(42.92 54.042)"><path d="M353.365,105.4s-14.612,17.9-46.973,21.778l-.007-.012v0c-5.123-5.717-10.823-19.124-14.618-30.26-1.42-4.162-1.5-6.6-.283-9.168a11.674,11.674,0,0,1,5.86-5.63c.579-.255,1.137-.267,1.654.808,1.174,2.433,2.341,5.3,3.673,8.1,4.041,8.495,7.218,16.343,9.171,21.422h0a73.891,73.891,0,0,1,18.769-4.567c10.781-1.225,19.515-8.21,19.515-8.21Z" transform="translate(-290.63 -81.957)" fill="#dd1e20"/></g><g transform="translate(0.825 46.527)"><path d="M303.55,129.316c-.13-6.459-.423-2.3.706-10.138.035-.307.073-.62.112-.931.1-.178.2-.352.3-.528a29.316,29.316,0,0,0,3.248-7.061c1.875-7.039.468-11.509-.039-15.935.41-2.042,1.849-8.95,2.306-10.984l-9.023-3.482-1.881-.725-.112-.043v0l-1.922-.74-.148-.055a32.4,32.4,0,0,0-13.655-2.116c-.307.019-.6.039-.911.069l-3.45.307-.131.012-2.214.2L263.912,78.3l-3.763,51.016Z" transform="translate(-260.149 -76.515)" fill="#fd3f2c"/><g transform="translate(16.583 0)"><path d="M272.157,77.159c4.186,8.435,14.434,17.86,19.685,14.952,3.23-1.784,4.55-7.651,4.74-11.853l-1.881-.724-.115-.043v0l-1.921-.74-.146-.058a32.441,32.441,0,0,0-13.658-2.114l-.475.065-.432.054-3.452.257-.133.011Z" transform="translate(-272.157 -76.515)" fill="#fdb491"/></g><g transform="translate(17.704 38.678)"><path d="M299.486,107.577c-.039.311-.082.621-.115.929-2.223.475-9.2,1.456-21.067-1.385q-2.306-.553-4.862-1.309a.658.658,0,1,1,.374-1.262c17.113,5.083,25.851,2.533,25.938,2.509l.025-.008C299.683,107.222,299.586,107.4,299.486,107.577Z" transform="translate(-272.969 -104.522)" fill="#d91866"/></g></g><g transform="translate(21.558 10.486)"><g transform="translate(3.653 24.74)"><path d="M294.739,77.307l-2.085,3.337L290.3,84.42l-2.036,3.258c-2.538.342-4.814-.932-6.587-2.508a20.623,20.623,0,0,1-3.865-4.769l5.119-10.24.91-1.82c1.352-.123,2.95,1,4.531,2.464,1.555,1.436,3.092,3.205,4.365,4.444C293.943,76.428,294.739,77.307,294.739,77.307Z" transform="translate(-277.807 -68.331)" fill="#fdb491"/></g><g transform="translate(11.432 27.79)"><path d="M292.592,76.466l-4.444,7.111C283.816,79.7,283.44,70.54,283.44,70.54l7.147,3.868C291.8,75.589,292.592,76.466,292.592,76.466Z" transform="translate(-283.44 -70.54)" fill="#ef887a"/></g><g transform="translate(6.505)"><path d="M300.83,90.735a18.762,18.762,0,0,1-8.965-3.266,30.691,30.691,0,0,1-6.337-5.814,43.63,43.63,0,0,1-3.389-4.668c-.714-1.137-1.266-2.125-1.645-2.845-.413-.782-.621-1.243-.621-1.243s.655-1.98,1.819-4.766a65.21,65.21,0,0,1,5.257-10.2c2.638-4.03,5.844-7.344,9.311-7.517l4.759,1.969L323.56,61.7s-.108.354-.319.982c-.461,1.364-1.409,4.027-2.774,7.194-.1.24-.209.482-.318.729C316.274,79.383,309.376,91.416,300.83,90.735Z" transform="translate(-279.872 -50.417)" fill="#fdb491"/></g><g transform="translate(6.505 17.72)"><path d="M280.582,73.664c-.41-.78-.71-5.652-.71-5.652s.655-1.979,1.82-4.763l1.577,1.957S283.421,72.923,280.582,73.664Z" transform="translate(-279.872 -63.248)" fill="#133248"/></g><g transform="translate(6.749 7.177)"><path d="M289.552,60.253s-.928-5.712-5.108-4.459c-4.607,1.382-6.985,11.81-.012,14.553Z" transform="translate(-280.049 -55.614)" fill="#fdb491"/></g><g transform="translate(13.579 0.001)"><path d="M321.288,62.68c-1.244,2.893-7.54,3.755-26.3-3.6,0,0-3.475,8.613-6.84,6.346-.8-.539.32-5.817-3.149-7.489,2.64-4.03,5.846-7.343,9.315-7.515l27.3,11.281S321.5,62.053,321.288,62.68Z" transform="translate(-284.995 -50.418)" fill="#133248"/></g><path d="M303.025,53.62s-7.394,12-13.65,24.01c-.7,1.346-1.391,2.7-2.051,4.027-1.838,3.7-6.006,5.2-9.706,4.795-2.386-2.114-2.457-3.077-2.457-3.077l8.772-6.389c-.717-1.137-1.268-2.124-1.648-2.842-.41-.782-.62-1.244-.62-1.244s.653-1.979,1.819-4.764a65.128,65.128,0,0,1,5.255-10.2c2.642-4.03,5.847-7.343,9.315-7.517l4.759,1.968A2.022,2.022,0,0,1,303.025,53.62Z" transform="translate(-275.162 -50.417)" fill="#133248"/></g><g transform="translate(0 48.311)"><path d="M323.682,110.31s-16.056,13.385-48.418,17.258l-.005-.012v0c-5.125-5.717-10.823-19.123-14.618-30.26a20.461,20.461,0,0,1,3.5-19.486c1.374,1.063,2.559,3.063,3.733,5.5s2.341,5.3,3.672,8.1c4.041,8.495,7.22,16.343,9.171,21.422h0a73.81,73.81,0,0,1,18.771-4.568,117.09,117.09,0,0,0,21.115-4.7Z" transform="translate(-259.551 -77.807)" fill="#dd1e20"/></g><path d="M303.76,98.358s8.624-7.466,13.259-6.868,8.077,4.789,8.376,8.082-3.932,2.877-7.482,2.073-11.074,3.465-11.074,3.465A13.233,13.233,0,0,1,303.76,98.358Z" transform="translate(-242.708 -24.295)" fill="#fdb491"/><g transform="translate(63.318 53.139)"><path d="M354.289,86.6l-16.626,40.731a3.843,3.843,0,0,1-3.56,2.392h-24.85a3.843,3.843,0,0,1-3.562-5.3l16.62-40.731a3.845,3.845,0,0,1,3.56-2.392h24.85A3.847,3.847,0,0,1,354.289,86.6Z" transform="translate(-305.401 -81.303)" fill="#e8e8e8"/><path d="M353.011,86.6l-16.626,40.731a3.843,3.843,0,0,1-3.56,2.392H312.606a3.843,3.843,0,0,1-3.562-5.3l16.62-40.731a3.845,3.845,0,0,1,3.56-2.392h20.219A3.847,3.847,0,0,1,353.011,86.6Z" transform="translate(-304.123 -81.303)" fill="#fff"/><path d="M331.269,100.931a6.573,6.573,0,0,1-5.605,4.05c-2.237,0-3.354-1.813-2.5-4.05a6.573,6.573,0,0,1,5.605-4.05C331.011,96.881,332.128,98.694,331.269,100.931Z" transform="translate(-298.742 -75.368)" fill="#e8e8e8"/><path d="M341.485,98.132s1.863-4.171-.115-5.288l-1.682,4.121s-3.654-3.3-6.192-1.693-6.626,10.385-5.347,12.737,8.367,4.426,10.893,1.494S342.419,100.808,341.485,98.132Z" transform="translate(-296.826 -76.906)" fill="#fdb491"/></g></svg>