<svg width="25" height="25" viewBox="0 0 25 25" fill="none" xmlns="http://www.w3.org/2000/svg">
<path d="M22.5086 10.4243H21.7031V10.3828H12.7031V14.3828H18.3546C17.5301 16.7113 15.3146 18.3828 12.7031 18.3828C9.38963 18.3828 6.70312 15.6963 6.70312 12.3828C6.70312 9.06931 9.38963 6.38281 12.7031 6.38281C14.2326 6.38281 15.6241 6.95981 16.6836 7.90231L19.5121 5.07381C17.7261 3.40931 15.3371 2.38281 12.7031 2.38281C7.18062 2.38281 2.70312 6.86031 2.70312 12.3828C2.70312 17.9053 7.18062 22.3828 12.7031 22.3828C18.2256 22.3828 22.7031 17.9053 22.7031 12.3828C22.7031 11.7123 22.6341 11.0578 22.5086 10.4243Z" fill="#FFC107"/>
<path d="M3.85547 7.72831L7.14097 10.1378C8.02997 7.93681 10.183 6.38281 12.7025 6.38281C14.232 6.38281 15.6235 6.95981 16.683 7.90231L19.5115 5.07381C17.7255 3.40931 15.3365 2.38281 12.7025 2.38281C8.86147 2.38281 5.53047 4.55131 3.85547 7.72831Z" fill="#FF3D00"/>
<path d="M12.7033 22.3792C15.2863 22.3792 17.6333 21.3907 19.4078 19.7832L16.3128 17.1642C15.2751 17.9534 14.007 18.3803 12.7033 18.3792C10.1023 18.3792 7.89378 16.7208 7.06178 14.4062L3.80078 16.9187C5.45578 20.1572 8.81678 22.3792 12.7033 22.3792Z" fill="#4CAF50"/>
<path d="M22.5086 10.4243H21.7031V10.3828H12.7031V14.3828H18.3546C17.9602 15.491 17.2498 16.4594 16.3111 17.1683L16.3126 17.1673L19.4076 19.7863C19.1886 19.9853 22.7031 17.3828 22.7031 12.3828C22.7031 11.7123 22.6341 11.0578 22.5086 10.4243Z" fill="#1976D2"/>
</svg>
