<svg xmlns="http://www.w3.org/2000/svg" xmlns:xlink="http://www.w3.org/1999/xlink" width="23.791" height="14.275" viewBox="0 0 23.791 14.275"><defs><style>.a{fill:url(#a);}</style><linearGradient id="a" x1="0.838" y1="1.295" x2="0.131" y2="0.5" gradientUnits="objectBoundingBox"><stop offset="0" stop-color="#5169d5"/><stop offset="1" stop-color="#3fa0e8"/></linearGradient></defs><path class="a" d="M23.135,7.816,12.766,4.63a2.97,2.97,0,0,0-1.739,0L.657,7.816a.875.875,0,0,0,0,1.695l1.808.555A2.929,2.929,0,0,0,1.8,11.809,1.147,1.147,0,0,0,1.7,13.78L.756,18.051a.6.6,0,0,0,.58.724H3.422A.6.6,0,0,0,4,18.051L3.054,13.78a1.144,1.144,0,0,0-.067-1.952,1.754,1.754,0,0,1,.769-1.365l7.27,2.234a2.973,2.973,0,0,0,1.739,0l10.37-3.186a.875.875,0,0,0,0-1.7Zm-10.02,6.018a4.161,4.161,0,0,1-2.438,0L5.286,12.178,4.758,16.4c0,1.314,3.2,2.379,7.137,2.379s7.137-1.065,7.137-2.379l-.527-4.218-5.391,1.656Z" transform="translate(0 -4.5)"/></svg>