<svg xmlns="http://www.w3.org/2000/svg" xmlns:xlink="http://www.w3.org/1999/xlink" width="644.159" height="273.341" viewBox="0 0 644.159 273.341"><defs><linearGradient id="a" x1="1.22" y1="1.237" x2="0.197" y2="0.209" gradientUnits="objectBoundingBox"><stop offset="0" stop-color="#dae3fe"/><stop offset="1" stop-color="#e9effd"/></linearGradient><linearGradient id="b" x1="2.013" y1="-0.184" x2="0.821" y2="0.361" gradientUnits="objectBoundingBox"><stop offset="0" stop-color="#ff928e"/><stop offset="1" stop-color="#fe7062"/></linearGradient><linearGradient id="c" x1="0.97" y1="-0.074" x2="0.045" y2="1.078" xlink:href="#b"/><linearGradient id="d" x1="0.627" y1="-1.564" x2="0.798" y2="-4.01" gradientUnits="objectBoundingBox"><stop offset="0" stop-color="#febbba"/><stop offset="1" stop-color="#ff928e"/></linearGradient><linearGradient id="e" x1="5.83" y1="-11.399" x2="10.163" y2="-21.072" xlink:href="#d"/><linearGradient id="f" x1="2.282" y1="-1.042" x2="0.793" y2="0.258" gradientUnits="objectBoundingBox"><stop offset="0" stop-color="#4f52ff"/><stop offset="1" stop-color="#4042e2"/></linearGradient><linearGradient id="g" x1="1.163" y1="-0.265" x2="0.155" y2="0.922" xlink:href="#f"/><linearGradient id="h" x1="1.142" y1="-0.929" x2="0.32" y2="0.911" xlink:href="#b"/><linearGradient id="i" x1="-4.739" y1="0.5" x2="-3.739" y2="0.5" gradientUnits="objectBoundingBox"><stop offset="0" stop-color="#09005d"/><stop offset="1" stop-color="#1a0f91"/></linearGradient><linearGradient id="j" x1="-3.908" y1="-77.693" x2="-4.091" y2="-37.877" xlink:href="#f"/><linearGradient id="k" x1="49.754" y1="-0.843" x2="49.247" y2="2.39" xlink:href="#d"/><linearGradient id="l" x1="14.255" y1="-22.776" x2="14.127" y2="16.665" xlink:href="#f"/><linearGradient id="m" x1="13.74" y1="0.5" x2="14.74" y2="0.5" xlink:href="#i"/><linearGradient id="n" x1="53.92" y1="-0.224" x2="53.405" y2="2.539" xlink:href="#d"/><linearGradient id="o" x1="1.845" y1="-0.209" x2="-0.819" y2="1.235" xlink:href="#i"/><linearGradient id="p" x1="1.405" y1="-0.727" x2="0.599" y2="0.24" xlink:href="#b"/><linearGradient id="q" x1="0.328" y1="1.566" x2="0.733" y2="-0.054" xlink:href="#d"/><linearGradient id="r" x1="89.187" y1="-17.607" x2="90.619" y2="-17.868" xlink:href="#d"/><linearGradient id="s" x1="-0.599" y1="-1.544" x2="0.541" y2="-1.544" xlink:href="#i"/><linearGradient id="t" x1="260.741" y1="-59.844" x2="264.922" y2="-60.697" xlink:href="#d"/><linearGradient id="u" x1="1.592" y1="-0.616" x2="0.587" y2="0.52" xlink:href="#b"/><linearGradient id="v" x1="0.799" y1="-0.337" x2="0.056" y2="1.68" xlink:href="#d"/><linearGradient id="w" x1="1.152" y1="-1.139" x2="0.322" y2="0.762" xlink:href="#b"/><linearGradient id="x" x1="49.304" y1="18.683" x2="48.682" y2="21.087" xlink:href="#d"/><linearGradient id="y" x1="-65.028" y1="0.5" x2="-64.028" y2="0.5" gradientUnits="objectBoundingBox"><stop offset="0" stop-color="#2b3582"/><stop offset="0.392" stop-color="#23286c"/><stop offset="1" stop-color="#150e42"/></linearGradient><linearGradient id="z" x1="-66.943" y1="0.5" x2="-65.943" y2="0.5" xlink:href="#i"/><linearGradient id="aa" x1="-232.754" y1="0.5" x2="-231.754" y2="0.5" xlink:href="#d"/><linearGradient id="ab" x1="-180.612" y1="0.5" x2="-179.612" y2="0.5" xlink:href="#y"/><linearGradient id="ac" x1="-122.72" y1="0.5" x2="-121.72" y2="0.5" xlink:href="#i"/><linearGradient id="ad" x1="-203.991" y1="0.5" x2="-202.991" y2="0.5" xlink:href="#d"/><linearGradient id="ae" x1="0.88" y1="-0.205" x2="-0.06" y2="1.491" xlink:href="#y"/><linearGradient id="af" x1="6.854" y1="-12.552" x2="-1.009" y2="3.599" xlink:href="#y"/><linearGradient id="ag" x1="-38.554" y1="0.308" x2="-39.425" y2="1.354" xlink:href="#d"/><linearGradient id="ah" x1="-17.1" y1="-0.057" x2="-18.329" y2="1.819" xlink:href="#f"/><linearGradient id="ai" x1="33.968" y1="-7.688" x2="15.968" y2="-3.284" xlink:href="#f"/><linearGradient id="aj" x1="-122.008" y1="1.478" x2="-121.736" y2="0.434" xlink:href="#d"/><linearGradient id="ak" x1="-86.537" y1="0.35" x2="-87.649" y2="1.106" xlink:href="#d"/><linearGradient id="al" x1="-63.199" y1="0.152" x2="-62.449" y2="1.129" xlink:href="#i"/><linearGradient id="am" x1="-357.733" y1="-0.685" x2="-362.284" y2="1.784" xlink:href="#d"/><linearGradient id="an" x1="2.652" y1="-2.02" x2="0.044" y2="0.971" xlink:href="#d"/><linearGradient id="ao" x1="-47.701" y1="-0.752" x2="-48.055" y2="0.28" xlink:href="#d"/><linearGradient id="ap" x1="1.344" y1="-4.334" x2="0.773" y2="-1.249" xlink:href="#d"/><linearGradient id="aq" x1="5.267" y1="10.244" x2="4.528" y2="12.707" xlink:href="#i"/><linearGradient id="ar" x1="4.053" y1="0.133" x2="3.655" y2="0.802" xlink:href="#i"/><linearGradient id="as" x1="0" y1="0.5" x2="1" y2="0.5" xlink:href="#a"/></defs><g transform="translate(425.633)"><path d="M1418.952,591.166c-9.9,2.889-19.268,4.752-26.671,6.224-87,17.3-189.95,12.258-211.83,11.026-32.308-1.819-94.761-5.334-139.912-20.051-68.312-22.264-57.675-57.341-4.688-80.5,9.693-4.235,60.889-27.743,164.945-31.513,62.974-2.281,136.382,2.32,189.54,14.664C1501.923,516.931,1493.98,569.275,1418.952,591.166Z" transform="translate(-1256.314 -338.074)" opacity="0" fill="url(#a)"/><g transform="translate(32.004 136.751)"><path d="M39.218,0h0A39.218,39.218,0,0,1,78.437,39.218v96.195a0,0,0,0,1,0,0H0a0,0,0,0,1,0,0V39.218A39.218,39.218,0,0,1,39.218,0Z" transform="translate(19.925 0)" fill="url(#b)"/><path d="M39.218,0h0A39.218,39.218,0,0,1,78.437,39.218v96.195a0,0,0,0,1,0,0H0a0,0,0,0,1,0,0V39.218A39.218,39.218,0,0,1,39.218,0Z" transform="translate(0 0)" fill="url(#c)"/><g transform="translate(4.761 5.898)"><path d="M1369.781,1935.665a.5.5,0,0,1-.5-.5v-9.607a9.476,9.476,0,0,1,9.607-9.315h15.063a.5.5,0,0,1,0,1H1378.89a8.477,8.477,0,0,0-8.61,8.318v9.607A.5.5,0,0,1,1369.781,1935.665Z" transform="translate(-1369.283 -1916.245)" fill="url(#d)"/><path d="M1369.781,2174.135a.5.5,0,0,1-.5-.5v-3.915a.5.5,0,0,1,1,0v3.915A.5.5,0,0,1,1369.781,2174.135Z" transform="translate(-1369.283 -2144.526)" fill="url(#e)"/></g></g><g transform="translate(121.147 185.029)"><path d="M33.793,0h0A33.794,33.794,0,0,1,67.587,33.794V86.941a0,0,0,0,1,0,0H0a0,0,0,0,1,0,0V33.793A33.793,33.793,0,0,1,33.793,0Z" transform="translate(19.925)" fill="url(#f)"/><path d="M33.794,0h0A33.794,33.794,0,0,1,67.587,33.794V86.941a0,0,0,0,1,0,0H0a0,0,0,0,1,0,0V33.794A33.794,33.794,0,0,1,33.794,0Z" transform="translate(0)" fill="url(#g)"/><g transform="translate(5.081 4.078)"><path d="M2286.217,2412.894a.5.5,0,0,1-.5-.5v-10.3c0-5.49,5.045-9.954,11.244-9.954h17.772a.5.5,0,1,1,0,1h-17.772c-5.651,0-10.248,4.018-10.248,8.958v10.3A.5.5,0,0,1,2286.217,2412.894Z" transform="translate(-2285.719 -2392.139)" fill="#91b3fa"/><path d="M2286.217,2668.646a.5.5,0,0,1-.5-.5v-4.2a.5.5,0,0,1,1,0v4.2A.5.5,0,0,1,2286.217,2668.646Z" transform="translate(-2285.719 -2636.967)" fill="#91b3fa"/></g></g><g transform="translate(39.717 0)"><g transform="translate(76.727 2.872)"><path d="M2186.821,499.921c11.4-3.378,22.272-2.467,27.7-1.032,6.417,1.7,8.546,2.97,14.226,3.611,5.05.569,18.468-3.516,16.749-.443-2.239,4.006-1.625,19.693,1.717,26.234.486.951-15.4,3.307-25.031,1.547-13.275-2.425-17.548-6.492-26.264-4.642a25.877,25.877,0,0,0-9.028,3.869C2187.778,519.393,2185.932,509.592,2186.821,499.921Z" transform="translate(-2186.467 -496.313)" fill="url(#h)"/><path d="M2185.992,618.134a.5.5,0,0,1-.5-.5V484.914a.5.5,0,0,1,1,0V617.636A.5.5,0,0,1,2185.992,618.134Z" transform="translate(-2185.493 -484.416)" fill="#26264f"/></g><g transform="translate(0 0)"><path d="M1606.009,1794.836a.8.8,0,0,1,.021-.209c1.041-4.13,5.3-6.245,5.3-6.245l2.048.16c1.178,3.639,1.938,5.416,1.748,6.411-.005.027-.013.054-.021.081A48.634,48.634,0,0,1,1606.009,1794.836Z" transform="translate(-1585.852 -1658.214)" fill="url(#i)"/><path d="M1615.362,1854.7a.887.887,0,0,1-.65.656,28.1,28.1,0,0,1-7.829-.11.746.746,0,0,1-.619-.744A48.661,48.661,0,0,0,1615.362,1854.7Z" transform="translate(-1586.083 -1717.883)" fill="url(#j)"/><path d="M1643.244,1755.725l.9,4.319a.706.706,0,0,0,.6.58,5.952,5.952,0,0,0,1.39-.022.887.887,0,0,0,.7-1.043l-.623-3.834Z" transform="translate(-1619.452 -1628.746)" fill="url(#k)"/><path d="M1841.122,1851a11.818,11.818,0,0,1-3.9-.558c0,.218,0,.439.007.669a.432.432,0,0,0,.412.438l12.014-.078a.548.548,0,0,0,.44-.8C1848.516,1850.806,1844.5,1851.1,1841.122,1851Z" transform="translate(-1794.489 -1714.219)" fill="url(#l)"/><path d="M1850.377,1798.408a.6.6,0,0,0-.047-.09,15.311,15.311,0,0,0-9.1-5.715l-2.562-.081a12.287,12.287,0,0,0-1.162,5.655,11.822,11.822,0,0,0,3.906.558C1844.792,1798.83,1848.8,1798.538,1850.377,1798.408Z" transform="translate(-1794.748 -1661.951)" fill="url(#m)"/><path d="M1844.542,1747.016c.029.191.38,3.093.516,4.218a.556.556,0,0,0,.469.5,5.9,5.9,0,0,0,1.76-.027.759.759,0,0,0,.574-.761V1746.4Z" transform="translate(-1801.099 -1620.327)" fill="url(#n)"/><path d="M1637.572,1174.918s-4.1,36.433-1.821,59.2a17.6,17.6,0,0,0,4.1-.456s4.259-35.622,5.636-45.816a.343.343,0,0,1,.677-.021c1.7,8.576,8.377,42.206,9.171,45.382a5.679,5.679,0,0,0,4.1,0s-3.644-48.73-6.376-57.383Z" transform="translate(-1612.069 -1104.638)" fill="url(#o)"/><path d="M1576.249,733.52s13.779-1.861,26.354.037a5.752,5.752,0,0,1,4.857,6.452l-1.153,8.539s-3.644,19.583-6.376,28.236c0,0-10.475,1.822-15.484-.911,0,0-4.1-24.592-6.376-28.235C1578.07,747.638,1575.793,738.074,1576.249,733.52Z" transform="translate(-1558.942 -705.594)" fill="url(#p)"/><path d="M1684.019,613.59l-1.724,11.659s4.817,2.212,8.19-.1l-.726-8.228Z" transform="translate(-1654.691 -598.108)" fill="url(#q)"/><g transform="translate(26.037 3.132)"><path d="M1699.757,529.107c.053.1,1.093,5.977,1.733,9.617a2.553,2.553,0,0,1-2.365,2.991l-1.4.083a4.975,4.975,0,0,1-5.211-4.213l-1.009-6.592S1698.438,526.716,1699.757,529.107Z" transform="translate(-1689.042 -524.349)" fill="url(#r)"/><path d="M1667.2,493.742a1.957,1.957,0,0,1,.137-2.873,2.761,2.761,0,0,1,3.293-.476.918.918,0,0,0,1.082-.214.584.584,0,0,1,.545-.2.859.859,0,0,0,.971-.747,2.265,2.265,0,0,1,2-2.083c2.681-.518,4.018,2.165,3.97,4.051s-2.986,2.282-4.654,1.969c-1.224-.23-2.283.846-2.759,1.434a.884.884,0,0,0-.174.76l.423,1.822a8.392,8.392,0,0,1-.995,1.628,1.8,1.8,0,0,1-.967.621c-.5-.93-1.9-1.088-2.548-1.109a.888.888,0,0,1-.644-.305,1.949,1.949,0,0,1,.211-3.048A.886.886,0,0,0,1667.2,493.742Z" transform="translate(-1666.239 -487.082)" fill="url(#s)"/><path d="M1678.753,599.78s-.058-3.29-1.389-3.6-2.768.654-1.629,2.623C1677.151,601.254,1678.753,599.78,1678.753,599.78Z" transform="translate(-1674.434 -585.479)" fill="url(#t)"/></g><path d="M1424.623,550.728s-39.1-10.644-19.687-38.018l1.313,1.86s-5.849,18.541,13.529,20.3C1419.778,534.872,1424.8,547.817,1424.623,550.728Z" transform="translate(-1399.527 -507.076)" fill="url(#u)"/><path d="M1453.325,460.774s-.44-5.285,2.2-5.726,3.523,2.2,3.964,3.524-3.964,3.964-4.845,3.964S1453.325,460.774,1453.325,460.774Z" transform="translate(-1448.048 -455)" fill="url(#v)"/><path d="M1872.462,799.012s5.055,20,30.407-2.034l-1.943-1.187s-22.321,15.836-26.255-11.176C1874.671,784.615,1872.462,796.583,1872.462,799.012Z" transform="translate(-1826.293 -752.438)" fill="url(#w)"/><path d="M2165.52,854.3s5.3.087,5.566-2.579-2.432-3.369-3.78-3.72-3.69,4.219-3.631,5.1S2165.52,854.3,2165.52,854.3Z" transform="translate(-2089.076 -809.62)" fill="url(#x)"/></g></g><g transform="translate(119.175 70.97)"><path d="M2600.349,2347.081c2.265.2,6.2.513,9.3.649a8.937,8.937,0,0,0,3.553-.347c0,.069,0,.135-.005.2a.643.643,0,0,1-.61.606,109.1,109.1,0,0,1-12.171.012.456.456,0,0,1-.371-.686A3.55,3.55,0,0,1,2600.349,2347.081Z" transform="translate(-2562.243 -2233.343)" fill="url(#y)"/><path d="M2613.1,2305.452c-3.1-.136-7.031-.454-9.3-.65,2.228-2.732,9.3-4.574,9.3-4.574h2a8.384,8.384,0,0,1,1.556,4.877A8.943,8.943,0,0,1,2613.1,2305.452Z" transform="translate(-2565.696 -2191.064)" fill="url(#z)"/><path d="M2688.485,2266.844l-.187,3.7a.843.843,0,0,1-.721.794,3.282,3.282,0,0,1-1.5-.124,1,1,0,0,1-.671-.768l-.646-3.6Z" transform="translate(-2638.753 -2160.939)" fill="url(#aa)"/><g transform="translate(67.079 107.044)"><path d="M2928.671,2376.516a1.947,1.947,0,0,0,1.614-1.541.076.076,0,0,1,0,.02,1.76,1.76,0,0,1-.859,1.881,4.478,4.478,0,0,1-2.381.481,2.2,2.2,0,0,1-1.787-1.065l-.007-.009C2926,2376.756,2927.034,2376.812,2928.671,2376.516Z" transform="translate(-2922.847 -2365.557)" fill="url(#ab)"/><path d="M2901.789,2278.508h1.647c2.507-.067,4.082,6.769,4.6,9.416a1.947,1.947,0,0,1-1.612,1.542c-1.639.3-2.677.24-3.417-.234a24.041,24.041,0,0,1-2.35-7.648A2.854,2.854,0,0,1,2901.789,2278.508Z" transform="translate(-2900.596 -2278.507)" fill="url(#ac)"/></g><path d="M2895.095,2243.362l.914,3.636a.986.986,0,0,1-.514,1.118,3.5,3.5,0,0,1-1.894.459.827.827,0,0,1-.673-.55l-1.341-3.826Z" transform="translate(-2825.387 -2139.749)" fill="url(#ad)"/><path d="M2598.088,1743.275s8.169,51.067,8.035,51.348a6.792,6.792,0,0,0,4.715.13s-.737-27.3-2.469-37.766c0,0,13.942,24.4,18.37,36.558a11.063,11.063,0,0,0,4.22-1.533s-15.012-43.919-19.018-49.769Z" transform="translate(-2560.54 -1687.55)" fill="url(#ae)"/><path d="M2648.04,1836.124a.332.332,0,0,1-.28-.153l-2.979-4.757-2.107-.424a.329.329,0,1,1,.129-.645l2.247.452a.328.328,0,0,1,.214.147l3.054,4.877a.328.328,0,0,1-.278.5Z" transform="translate(-2600.534 -1766.865)" fill="url(#af)"/><path d="M2213.519,1240.572a54.75,54.75,0,0,1,8.866,2.764,3.059,3.059,0,0,1,1.5,1.507c1,2.2,4,7.7,9.821,10.334a16.047,16.047,0,0,0-2.775,7.314c-3.494-2.6-6.512-6.945-7.96-14.069a2.841,2.841,0,0,1-2.479-.069,25.262,25.262,0,0,1-2.2-1.248,2.882,2.882,0,0,1-1.276-1.714,9.949,9.949,0,0,1-.1-2.656l-2.833-.878A1.008,1.008,0,0,1,2213.519,1240.572Z" transform="translate(-2213.46 -1234.853)" fill="url(#ag)"/><path d="M2392.418,1394.019a16.05,16.05,0,0,1,2.775-7.314c3.615,1.634,8.316,2.156,14.3.081a6.345,6.345,0,0,1,1.713-.337c3.187-.187,13.689-.529,22.381,2.344a6.751,6.751,0,0,1,4.075,3.708c2.35,5.4,6.157,17.684-4.41,23.886a26.087,26.087,0,0,0-2.551-4.826c1.7-2.87,2.207-6.791-.814-11.9-2.2,5.946-3.235,14.621-3.449,18.46a8.257,8.257,0,0,0,.646,3.693l.054.128a.437.437,0,0,1-.307.6,50.1,50.1,0,0,1-13.985.82.76.76,0,0,1-.678-.582c-2.894-12.189-2.9-20.5-2.192-25.76C2407.273,1397.626,2399,1398.916,2392.418,1394.019Z" transform="translate(-2374.948 -1366.381)" fill="url(#ah)"/><path d="M2569.142,1424.8l-.044,0a.326.326,0,0,1-.282-.368c.7-5.272,2.1-7.53,2.159-7.624a.328.328,0,0,1,.555.351c-.014.022-1.388,2.251-2.064,7.359A.327.327,0,0,1,2569.142,1424.8Z" transform="translate(-2534.124 -1393.743)" fill="url(#ai)"/><path d="M2667.816,1314.818a82.832,82.832,0,0,0,1.132,8.245.643.643,0,0,1-.3.735,6.226,6.226,0,0,1-6.005-.094,1.342,1.342,0,0,1-.743-1.26l.261-6.149Z" transform="translate(-2618.116 -1301.851)" fill="url(#aj)"/><g transform="translate(41.414 0)"><path d="M2643.129,1231.433s-1.925,4.422-2.053,6.742-.63,3.827,2.053,4.294a5.707,5.707,0,0,0,6.169-3.181s1.918-3.562,1.488-5.021S2643.129,1231.433,2643.129,1231.433Z" transform="translate(-2640.635 -1226.606)" fill="url(#ak)"/><path d="M2645.439,1193.01l-.154-.068a.37.37,0,0,1-.18-.506c.379-.73,1.117-2.406.164-2.8-1.229-.5-6.094-1.5-7.143-3.222a3.212,3.212,0,0,1,1.228-4.41.185.185,0,0,1,.242.08l.112.211a.182.182,0,0,0,.336-.035.182.182,0,0,1,.328-.047c.322.516,1.193,1.353,3.523,1.784,3.311.61,5.5,1.95,5.552,4.237a.184.184,0,0,0,.283.151c.245-.149.635-.219,1.159.221.909.764.536,2.748-1.456,4.378a.181.181,0,0,0,.008.292c.361.235.9.795-.5,1.541a4.707,4.707,0,0,1-2.937.64.182.182,0,0,1-.148-.22l.444-2.01a.183.183,0,0,0-.178-.222Z" transform="translate(-2637.692 -1181.991)" fill="url(#al)"/><path d="M2716.182,1279.136s.734-2.824,2-2.033-.657,3.164-1.674,3.271Z" transform="translate(-2708.52 -1267.692)" fill="url(#am)"/></g><path d="M2262.47,1272.031a.325.325,0,0,1-.255-.122,19.26,19.26,0,0,0-2.609-2.784,1.32,1.32,0,0,1-.721-.8,1.007,1.007,0,0,1,.19-.812.326.326,0,0,1,.336-.138l2.407.482a.33.33,0,0,1,.15.073l1.279,1.1a.328.328,0,1,1-.427.5l-1.215-1.042-2.079-.417a.228.228,0,0,0,0,.107c.027.113.171.249.4.382a20.256,20.256,0,0,1,2.8,2.942.328.328,0,0,1-.255.535Z" transform="translate(-2254.429 -1259.032)" fill="url(#an)"/><path d="M2636.445,1653.962l-8.686-.188s7.575-2.142,8.044-1.559a26.566,26.566,0,0,0,7.267-7.424,26.107,26.107,0,0,1,2.551,4.826C2643.315,1650.971,2640.286,1653.323,2636.445,1653.962Z" transform="translate(-2587.315 -1599.611)" fill="url(#ao)"/><path d="M2619.242,1723.333s.18,3.461-4.363,2.958c-2.469-.273-6.456-2.575-6.456-2.575S2618.814,1723.689,2619.242,1723.333Z" transform="translate(-2569.866 -1670.486)" fill="url(#ap)"/><g transform="translate(5.098 34.374)"><path d="M2492,1714.956h-.05l-21.6-.023a.956.956,0,1,1,0-1.913l21.6.024a.956.956,0,0,1,.047,1.911Z" transform="translate(-2449.506 -1695.554)" fill="url(#aq)"/><path d="M2267.119,1534.1H2285.1a3.434,3.434,0,0,1,3.1,1.945l8.313,17.445h-22.351a2.083,2.083,0,0,1-1.937-1.3l-6.448-16.143A1.423,1.423,0,0,1,2267.119,1534.1Z" transform="translate(-2265.681 -1534.103)" fill="url(#ar)"/><path d="M2383.667,1609.252c.39,1.2.1,2.361-.643,2.6s-1.666-.541-2.056-1.74-.1-2.362.644-2.6S2383.278,1608.054,2383.667,1609.252Z" transform="translate(-2369.557 -1600.308)" fill="#91b3fa"/></g></g><g transform="translate(117.865 202.578)"><path d="M2241.171,2530.411c.71,7.845,3.572,56-32,66.1-1.076.306-2.373-.4-2.393-1.292-.121-5.707.917-23.639,16.706-42.7,11.391-13.754,15.667-20.078,17.028-22.256A.4.4,0,0,1,2241.171,2530.411Z" transform="translate(-2206.109 -2530.135)" fill="#91b3fa"/><g transform="translate(0 15.494)"><path d="M2200.709,2739.1a.665.665,0,0,1-.489-1.116c18.875-20.469,28.338-46.762,28.615-48.442a.665.665,0,0,1,1.3-.237c.055.166.2.608-1.709,5.424-1.027,2.592-2.8,6.767-5.408,11.936-4.354,8.625-11.673,21.219-21.816,32.219A.662.662,0,0,1,2200.709,2739.1Zm28.16-49.379h0Zm0,0v0Zm-.027-.206Z" transform="translate(-2200.045 -2688.854)" fill="#bdd0fb"/></g></g><g transform="translate(118.343 246.151)"><path d="M2259.265,2976.873c-3.035,4.935-22.544,34.564-47.951,24.857-.769-.293-1.224-1.278-.841-1.815,2.439-3.417,10.946-13.525,28.638-17.8,12.766-3.091,18.069-4.934,19.831-5.618C2259.127,2976.419,2259.369,2976.7,2259.265,2976.873Z" transform="translate(-2209.809 -2976.48)" fill="#bdd0fb"/><path d="M2205.609,3061.762a.664.664,0,0,1-.12-1.316c19.908-3.71,37.006-14.9,38.081-15.89a.665.665,0,0,1,1.167.6c-.25.751-6.268,4.383-11.923,7.2a106.771,106.771,0,0,1-27.083,9.4A.591.591,0,0,1,2205.609,3061.762Zm37.869-17.024Z" transform="translate(-2204.946 -3037.665)" fill="url(#as)"/></g><g transform="translate(0 -22.641)"><g transform="translate(-425.633 50.5)" fill="none" stroke="#707070" stroke-width="3" stroke-dasharray="30" opacity="0.16"><rect width="429" height="121" rx="4" stroke="none"/><rect x="1.5" y="1.5" width="426" height="118" rx="2.5" fill="none"/></g><text transform="translate(-397.633 61.5)" fill="#46267d" font-size="55" font-family="Pacifico-Regular, Pacifico"><tspan x="-370.81" y="72">You can do this!</tspan></text></g></g></svg>