<svg xmlns="http://www.w3.org/2000/svg" xmlns:xlink="http://www.w3.org/1999/xlink" width="543.159" height="438.332" viewBox="0 0 543.159 438.332"><defs><linearGradient id="a" x1="1.174" y1="0.02" x2="0.397" y2="0.648" gradientUnits="objectBoundingBox"><stop offset="0" stop-color="#fff"/><stop offset="0.216" stop-color="#fff" stop-opacity="0.761"/><stop offset="0.604" stop-color="#fff" stop-opacity="0.357"/><stop offset="0.874" stop-color="#fff" stop-opacity="0.098"/><stop offset="1" stop-color="#fff" stop-opacity="0"/></linearGradient></defs><g transform="translate(-127.178 -141.991)"><g transform="translate(127.936 141.991)"><path d="M495.681,392.182c0,5.074-84.85,9.185-189.519,9.185s-189.519-4.111-189.519-9.185S201.5,383,306.163,383,495.681,387.111,495.681,392.182Z" transform="translate(-93.935 -12.385)" fill="#8191a4"/><g transform="translate(0 0)"><rect width="76.976" height="64.054" transform="translate(173.332 288.701)" fill="#cecece"/><rect width="76.976" height="20.305" transform="translate(173.332 288.701)" fill="#b5b5b5"/><path d="M394.235,394.433H174.384a24.438,24.438,0,0,1,24.366-24.366H369.869a24.437,24.437,0,0,1,24.366,24.366Z" transform="translate(-71.936 -17.311)" fill="#fff"/><path d="M524.393,124.088V365.307H100.2V124.763a10.161,10.161,0,0,1,10.131-10.131H514.936A9.484,9.484,0,0,1,524.393,124.088Z" transform="translate(-100.2 -114.632)" fill="#133248"/><rect width="424.193" height="128.292" transform="translate(0 122.382)" fill="#011b2e"/><path d="M524.4,296.149a38.019,38.019,0,0,1-38.03,38.024H138.223A38.023,38.023,0,0,1,100.2,296.149Z" transform="translate(-100.2 -45.474)" fill="#fff"/><path d="M266.182,312.642a9.876,9.876,0,1,1-9.876-9.876A9.875,9.875,0,0,1,266.182,312.642Z" transform="translate(-44.486 -42.953)" fill="#133248"/><path d="M501.147,134.508V329.444a6.66,6.66,0,0,1-6.644,6.637H119.721a6.662,6.662,0,0,1-6.643-6.637V134.508a6.662,6.662,0,0,1,6.643-6.644H494.5A6.66,6.66,0,0,1,501.147,134.508Z" transform="translate(-95.293 -109.591)" fill="#353535"/><path d="M501.147,134.508v13.814H113.079V134.508a6.659,6.659,0,0,1,6.643-6.643H494.5A6.659,6.659,0,0,1,501.147,134.508Z" transform="translate(-95.293 -109.59)" fill="#686868"/><g transform="translate(365.889 25.368)"><path d="M371.518,136.188A3.187,3.187,0,1,1,368.332,133,3.186,3.186,0,0,1,371.518,136.188Z" transform="translate(-365.145 -133.001)" fill="#f7bf18"/><path d="M379,136.188A3.187,3.187,0,1,1,375.81,133,3.186,3.186,0,0,1,379,136.188Z" transform="translate(-362.296 -133.001)" fill="#08c086"/><path d="M386.114,136.188A3.187,3.187,0,1,1,382.927,133,3.186,3.186,0,0,1,386.114,136.188Z" transform="translate(-359.584 -133.001)" fill="#fd3f2c"/></g><g transform="translate(61.613 56.465)"><rect width="301.521" height="150.17" fill="#fff"/><rect width="301.521" height="12.892" fill="#686868"/><g transform="translate(271.275 3.772)"><path d="M346.6,160.924a2.674,2.674,0,1,1-2.675-2.674A2.675,2.675,0,0,1,346.6,160.924Z" transform="translate(-341.249 -158.25)" fill="#f7bf18"/><path d="M352.875,160.924a2.674,2.674,0,1,1-2.675-2.674A2.675,2.675,0,0,1,352.875,160.924Z" transform="translate(-338.857 -158.25)" fill="#08c086"/><path d="M358.849,160.924a2.675,2.675,0,1,1-2.675-2.674A2.675,2.675,0,0,1,358.849,160.924Z" transform="translate(-336.582 -158.25)" fill="#fd3f2c"/></g><g transform="translate(98.164 26.711)"><circle cx="45.9" cy="45.9" r="45.9" transform="translate(0 90.64) rotate(-80.878)" fill="#0074fa"/><path d="M242.292,243.743V195.469l41.247,24.137Z" transform="translate(-205.84 -167.009)" fill="#fff"/></g><g transform="translate(17.147 24.371)" opacity="0.3"><rect width="48.336" height="6.471" transform="translate(0 103.403)" fill="#686868"/><rect width="48.336" height="6.471" transform="translate(0 88.631)" fill="#686868"/><rect width="48.336" height="6.471" transform="translate(0 73.86)" fill="#686868"/><rect width="48.336" height="6.471" transform="translate(0 59.088)" fill="#686868"/><rect width="48.336" height="6.471" transform="translate(0 44.316)" fill="#686868"/><rect width="48.336" height="6.471" transform="translate(0 29.544)" fill="#686868"/><rect width="48.336" height="6.471" transform="translate(0 14.772)" fill="#686868"/><rect width="48.336" height="6.471" fill="#686868"/></g><g transform="translate(234.282 24.371)" opacity="0.3"><rect width="48.336" height="6.471" transform="translate(0 103.403)" fill="#686868"/><rect width="48.336" height="6.471" transform="translate(0 88.631)" fill="#686868"/><rect width="48.336" height="6.471" transform="translate(0 73.86)" fill="#686868"/><rect width="48.336" height="6.471" transform="translate(0 59.088)" fill="#686868"/><rect width="48.336" height="6.471" transform="translate(0 44.316)" fill="#686868"/><rect width="48.336" height="6.471" transform="translate(0 29.544)" fill="#686868"/><rect width="48.336" height="6.471" transform="translate(0 14.772)" fill="#686868"/><rect width="48.336" height="6.471" fill="#686868"/></g></g><path d="M351.211,128.123l-207.74,207.74H247.256L455.931,127.188Z" transform="translate(-83.714 -109.848)" fill="#fff" opacity="0.1"/><path d="M241.811,127.189l-.933.933-127.8,127.8V152.133l24.012-24.012Z" transform="translate(-95.294 -109.848)" fill="#fff" opacity="0.1"/><path d="M429.743,184.7V288.48l-25.47,25.47H300.491Z" transform="translate(-23.889 -87.937)" fill="#fff" opacity="0.1"/></g></g><g transform="translate(449.977 317.929)"><path d="M552.5,436.5l-33.637-37.606H336.448A4.9,4.9,0,0,0,334.4,406.4l20.512,26.917a28.8,28.8,0,0,0,22.908,11.344H548.848A4.9,4.9,0,0,0,552.5,436.5Z" transform="translate(-333.394 -182.266)" fill="#8191a4"/><g transform="translate(0.001)"><g transform="translate(0.338 176.597)"><path d="M334.556,394.483c2.375,8.753,30.61,38.048,36.653,44.245a22.688,22.688,0,0,0,17.162,8.688,3.344,3.344,0,0,0,.334.015H527.6a3.223,3.223,0,1,0,0-6.447H389.067a16.255,16.255,0,1,1,0-32.51H527.6a3.225,3.225,0,1,0,0-6.451h-.2l.541-1.1L469.8,369.907H353.065S328.669,372.8,334.556,394.483Z" transform="translate(-333.639 -369.907)" fill="#fdb900"/><path d="M362.353,407.85c.062-.131.127-.261.193-.391a18.336,18.336,0,0,1,15.575-8.827H516.665a3.231,3.231,0,0,0,3.229-3.084H378.121A16.289,16.289,0,0,0,362.353,407.85Z" transform="translate(-322.699 -360.138)" opacity="0.2"/><g transform="translate(38.014 38.566)"><path d="M377.421,430.343h139.7v-32.51h-139.7A16.257,16.257,0,0,0,363,406.589h0a16.256,16.256,0,0,0,0,15h0A16.255,16.255,0,0,0,377.421,430.343Z" transform="translate(-361.166 -397.833)" fill="#fff"/></g><g transform="translate(54.932 46.225)"><path d="M512.451,405.547H374.5a1.084,1.084,0,0,1,0-2.168H512.451Z" transform="translate(-373.416 -403.379)" fill="#cecece"/><g transform="translate(0 7.513)"><path d="M512.451,410.987H374.5a1.084,1.084,0,0,1,0-2.168H512.451Z" transform="translate(-373.416 -408.819)" fill="#cecece"/></g><g transform="translate(0 15.025)"><path d="M512.451,416.427H374.5a1.084,1.084,0,0,1,0-2.168H512.451Z" transform="translate(-373.416 -414.259)" fill="#cecece"/></g></g></g><g transform="translate(0 130.923)"><path d="M334.311,361.41c2.493,9.175,33.415,40.945,37.368,44.979a22.683,22.683,0,0,0,16.785,8.22c.11.01.221.015.334.015H527.7a3.223,3.223,0,1,0,0-6.447H389.16a16.255,16.255,0,1,1,0-32.51H527.7a3.225,3.225,0,1,0,0-6.451h-.674l.674-1.362-58.14-31.021H352.819S328.424,339.723,334.311,361.41Z" transform="translate(-333.394 -336.834)" fill="#fd3f2c"/><path d="M362.357,374.955c.059-.128.124-.253.188-.38a16.241,16.241,0,0,1,14.122-8.749c.481-.044.963-.065,1.453-.065H516.663a3.23,3.23,0,0,0,3.229-3.084H378.12A16.294,16.294,0,0,0,362.357,374.955Z" transform="translate(-322.359 -326.987)" opacity="0.2"/><g transform="translate(38.352 38.832)"><path d="M377.421,397.463h139.7v-32.51h-139.7A16.255,16.255,0,0,0,363,373.709h0a16.256,16.256,0,0,0,0,15h0A16.255,16.255,0,0,0,377.421,397.463Z" transform="translate(-361.166 -364.953)" fill="#fff"/></g><g transform="translate(55.27 46.49)"><path d="M512.45,372.668H374.5a1.085,1.085,0,0,1,0-2.17H512.45Z" transform="translate(-373.416 -370.498)" fill="#cecece"/><g transform="translate(0 7.514)"><path d="M512.45,378.107H374.5a1.084,1.084,0,1,1,0-2.168H512.45Z" transform="translate(-373.416 -375.939)" fill="#cecece"/></g><g transform="translate(0 15.027)"><path d="M512.45,383.547H374.5a1.084,1.084,0,1,1,0-2.168H512.45Z" transform="translate(-373.416 -381.379)" fill="#cecece"/></g></g></g><g transform="translate(1.958 87.554)"><g transform="translate(36.394 36.794)"><path d="M377.421,364.583h139.7v-32.51h-139.7A16.255,16.255,0,0,0,363,340.829h0a16.256,16.256,0,0,0,0,15h0A16.255,16.255,0,0,0,377.421,364.583Z" transform="translate(-361.166 -332.073)" fill="#fff"/></g><path d="M335.729,330c1.689,6.194,16.268,22.622,26.808,33.919.092.092.186.2.293.305.146.16.291.307.425.453,3.269,3.5,6.086,6.433,7.948,8.347a.768.768,0,0,0,.106.1c1.1,1.143,1.848,1.9,2.1,2.167l.093.094.012.012a22.5,22.5,0,0,0,14.408,5.755,2.7,2.7,0,0,0,.333.028h138.9a3.23,3.23,0,0,0,0-6.46H388.613a16.248,16.248,0,0,1-16.254-16.254,15.833,15.833,0,0,1,.664-4.585.048.048,0,0,1,.014-.04,16.284,16.284,0,0,1,15.576-11.629H527.158a3.232,3.232,0,0,0,3.229-3.084V339a3.254,3.254,0,0,0-1.262-2.552l-.014-.014a3.658,3.658,0,0,0-.956-.5l-.04-.014L470.977,305.43H354.244S329.842,308.314,335.729,330Z" transform="translate(-334.812 -305.43)" fill="#0074fa"/><path d="M362,346.09c0,.319.014.638.026.957a.875.875,0,0,1,.014.134,11.644,11.644,0,0,1,.624-2.592.048.048,0,0,1,.014-.04,16.284,16.284,0,0,1,15.576-11.629H516.8a3.232,3.232,0,0,0,3.229-3.084H378.254A16.28,16.28,0,0,0,362,346.09Z" transform="translate(-324.454 -296.131)" opacity="0.2"/><g transform="translate(53.312 44.452)"><path d="M512.451,339.788H374.5a1.085,1.085,0,0,1,0-2.17H512.451Z" transform="translate(-373.416 -337.618)" fill="#cecece"/><g transform="translate(0 7.513)"><path d="M512.451,345.228H374.5a1.085,1.085,0,0,1,0-2.17H512.451Z" transform="translate(-373.416 -343.058)" fill="#cecece"/></g><g transform="translate(0 15.027)"><path d="M512.451,350.667H374.5a1.084,1.084,0,1,1,0-2.168H512.451Z" transform="translate(-373.416 -348.499)" fill="#cecece"/></g></g></g><g transform="translate(52.111)"><ellipse cx="37.689" cy="4.895" rx="37.689" ry="4.895" transform="translate(7.646 99.486)" fill="#0074fa" opacity="0.5" style="mix-blend-mode:multiply;isolation:isolate"/><path d="M461.771,299.55a37.3,37.3,0,0,1-3.288,13.994c-6.948,15.433-24.02,25.982-43.554,25.247-25.031-.94-44.624-20.034-43.774-42.647.511-13.622,8.334-25.413,19.935-32.434a15.7,15.7,0,0,1,6.81-2.146,28.92,28.92,0,0,1,5.528.091c4.5.442,9.307,1.536,14.335,1.725,5.8.218,11.372-.69,16.471-.51,3.854.135,7.442.894,10.621,3.229C455.6,273.981,462.274,286.151,461.771,299.55Z" transform="translate(-371.129 -234.625)" fill="#fd3f2c"/><path d="M427.228,262.87c1.4,3.615-3.038,6.822-7.219,8.638-8.234,3.581-27.9.737-30.111-5.179-.848-2.279-.17-3.78,1-4.766,6.039-.551,12.718,1.547,19.863,1.816C416.554,263.6,422.129,262.689,427.228,262.87Z" transform="translate(-364.122 -234.624)" fill="#dd1e20"/><path d="M411.727,274.435a7.507,7.507,0,0,1-2.449,1,3.073,3.073,0,0,1-2.179-.247s-.388-7.259-8.275-17.278a25.231,25.231,0,0,0-16.067-9.208,2.55,2.55,0,0,1-2.174-2.444,1.068,1.068,0,0,1,0-.175,2.542,2.542,0,0,1,.313-1.126,2.587,2.587,0,0,1,2.316-1.333C403.251,244.1,411.727,274.435,411.727,274.435Z" transform="translate(-367.528 -241.425)" fill="#6f3840"/><g transform="translate(43.186)"><path d="M441.5,242.031s-.1,30.085-39.1,34.165c0,0,.017-.091.061-.264.682-3.1,8.151-33.04,39.017-33.9Z" transform="translate(-402.4 -242.031)" fill="#08c086"/><path d="M441.5,242.031s-.1,30.085-39.1,34.165c0,0,.017-.091.061-.264l39.017-33.9Z" transform="translate(-402.4 -242.031)" fill="#08c086" opacity="0.8" style="mix-blend-mode:multiply;isolation:isolate"/></g><path d="M458.483,313.543c-6.948,15.433-24.02,25.982-43.554,25.247-25.031-.94-44.624-20.034-43.774-42.647.511-13.622,8.334-25.413,19.935-32.434a15.7,15.7,0,0,1,6.81-2.146,28.92,28.92,0,0,1,5.528.091,35.769,35.769,0,0,1,10.726,11.331s-17.271-1.718-24.605,12.348,1.518,42.38,27.261,44.291S458.483,313.543,458.483,313.543Z" transform="translate(-371.129 -234.625)" fill="#dd1e20"/><path d="M414.658,273.041l8.949-8.089S440.4,276.015,441.9,295.3l-8.31,3.657A45.667,45.667,0,0,0,414.658,273.041Z" transform="translate(-354.544 -233.298)" fill="url(#a)"/></g></g></g><g transform="translate(127.178 361.406)"><path d="M234.483,415.373c0,4.788-30.183,8.67-67.416,8.67s-67.416-3.882-67.416-8.67,30.183-8.671,67.416-8.671S234.483,410.584,234.483,415.373Z" transform="translate(-99.651 -222.769)" fill="#8191a4"/><g transform="translate(2.284)"><g transform="translate(23.389)"><g transform="translate(0 1.024)"><rect width="19.613" height="147.861" transform="translate(0.001 22.467) rotate(-8.709)" fill="#0074fa"/><path d="M137.628,293.754l-19.388,2.97,4.267-14.806,2.212-7.663,4.4,6.649Z" transform="translate(-118.241 -274.255)" fill="#fdb491"/><rect width="19.613" height="10.743" transform="translate(20.764 158.004) rotate(-8.709)" fill="#133248"/><path d="M0,0H19.613a0,0,0,0,1,0,0V7.362a1.2,1.2,0,0,1-1.2,1.2H1.2A1.2,1.2,0,0,1,0,7.362V0A0,0,0,0,1,0,0Z" transform="translate(22.39 168.622) rotate(-8.708)" fill="#fd3f2c"/><path d="M127.948,280.9l-6.617,1.013,2.212-7.663Z" transform="translate(-117.064 -274.255)" fill="#0074fa"/><rect width="19.613" height="7.704" transform="translate(19.597 150.389) rotate(-8.709)" fill="#0052dd"/><path d="M122.535,295.68l16.58,108.234a1.5,1.5,0,0,0,1.708,1.254h0a1.5,1.5,0,0,0,1.253-1.708L125.5,295.226a1.5,1.5,0,0,0-1.708-1.254h0A1.5,1.5,0,0,0,122.535,295.68Z" transform="translate(-116.612 -266.75)" fill="#0052dd"/><path d="M128.025,294.834l16.58,108.234a1.5,1.5,0,0,0,1.708,1.254h0a1.5,1.5,0,0,0,1.254-1.708L130.987,294.38a1.5,1.5,0,0,0-1.708-1.254h0A1.5,1.5,0,0,0,128.025,294.834Z" transform="translate(-114.52 -267.072)" fill="#0052dd"/></g><g transform="translate(34.825)"><rect width="19.613" height="147.861" transform="translate(0.001 21.258) rotate(-0.187)" fill="#fdb900"/><path d="M163.072,294.711l-19.614.064,6.415-14.01,3.323-7.25,3.371,7.229Z" transform="translate(-143.458 -273.514)" fill="#fdb491"/><rect width="19.613" height="10.743" transform="translate(0.449 158.376) rotate(-0.187)" fill="#133248"/><path d="M0,0H19.613a0,0,0,0,1,0,0V7.362a1.2,1.2,0,0,1-1.2,1.2H1.2A1.2,1.2,0,0,1,0,7.362V0A0,0,0,0,1,0,0Z" transform="translate(0.484 169.118) rotate(-0.186)" fill="#fd3f2c"/><path d="M154.8,280.742l-6.694.022,3.323-7.25Z" transform="translate(-141.688 -273.514)" fill="#fdb900"/><rect width="19.613" height="7.704" transform="translate(0.424 150.672) rotate(-0.187)" fill="#fdb900" opacity="0.7" style="mix-blend-mode:multiply;isolation:isolate"/><path d="M147.006,294.586l.359,109.5a1.5,1.5,0,0,0,1.5,1.494h0a1.5,1.5,0,0,0,1.493-1.5L150,294.576a1.5,1.5,0,0,0-1.5-1.493h0A1.5,1.5,0,0,0,147.006,294.586Z" transform="translate(-142.106 -266.058)" fill="#fdb900" opacity="0.7" style="mix-blend-mode:multiply;isolation:isolate"/><path d="M152.562,294.563l.358,109.5a1.5,1.5,0,0,0,1.5,1.493h0a1.5,1.5,0,0,0,1.493-1.5l-.358-109.5a1.5,1.5,0,0,0-1.5-1.493h0A1.5,1.5,0,0,0,152.562,294.563Z" transform="translate(-139.99 -266.067)" fill="#fdb900" opacity="0.7" style="mix-blend-mode:multiply;isolation:isolate"/></g><g transform="translate(46.859 0.882)"><rect width="19.613" height="147.861" transform="translate(22.001 19.636) rotate(8.085)" fill="#fd3f2c"/><path d="M187.52,296.55,168.1,293.791l8.364-12.942,4.332-6.7,2.3,7.638Z" transform="translate(-146.103 -274.153)" fill="#fdb491"/><rect width="19.613" height="10.743" transform="translate(2.716 155.392) rotate(8.085)" fill="#133248"/><path d="M0,0H19.613a0,0,0,0,1,0,0V7.362a1.2,1.2,0,0,1-1.2,1.2H1.2A1.2,1.2,0,0,1,0,7.362V0A0,0,0,0,1,0,0Z" transform="translate(1.204 166.027) rotate(8.086)" fill="#fd3f2c"/><path d="M180.785,281.791l-6.627-.942,4.332-6.7Z" transform="translate(-143.795 -274.153)" fill="#fd3f2c"/><rect width="7.704" height="19.613" transform="translate(2.716 155.392) rotate(-81.915)" fill="#dd1e20"/><path d="M175.109,294.447l-15.4,108.408a1.5,1.5,0,0,0,1.272,1.693h0a1.5,1.5,0,0,0,1.693-1.272l15.4-108.408a1.5,1.5,0,0,0-1.273-1.694h0A1.5,1.5,0,0,0,175.109,294.447Z" transform="translate(-149.306 -266.911)" fill="#dd1e20"/><path d="M180.61,295.223l-15.4,108.408a1.5,1.5,0,0,0,1.272,1.694h0a1.5,1.5,0,0,0,1.694-1.273l15.4-108.408a1.5,1.5,0,0,0-1.273-1.693h0A1.5,1.5,0,0,0,180.61,295.223Z" transform="translate(-147.21 -266.615)" fill="#dd1e20"/></g></g><g transform="translate(12.231 79.68)"><path d="M215.961,331.211l-1.016,7.935-.932,7.2-.648,5-.766,5.945-.917,7.122-.577,4.477-.847,6.55-.913,7.033-1.434,11.117-.892,6.933-1.453,11.212-.877,6.847-1.46,11.3-.877,6.757-.751,5.849a249.479,249.479,0,0,1-77.075,0l-.753-5.849-.881-6.757-1.46-11.3-.877-6.847-1.449-11.212-.9-6.933-1.433-11.117-.913-7.033-.847-6.55-.577-4.477-.911-7.122-.768-5.945-.646-5-.932-7.2-1.022-7.935Z" transform="translate(-110.161 -331.211)" fill="#fff"/></g><path d="M5.81,0h117.2a5.809,5.809,0,0,1,5.809,5.809v8.509a5.809,5.809,0,0,1-5.809,5.809H5.81A5.81,5.81,0,0,1,0,14.318V5.81A5.81,5.81,0,0,1,5.81,0Z" transform="translate(0 79.682)" fill="#fff"/><path d="M212.647,345.787l-.767,5.945-.917,7.123-.576,4.476H114.3l-.576-4.476-.912-7.123-.767-5.945Z" transform="translate(-97.213 -245.978)" fill="#cecece" opacity="0.5"/></g></g></g></svg>