<svg xmlns="http://www.w3.org/2000/svg" width="200.629" height="214.267" viewBox="0 0 200.629 214.267"><g transform="translate(-50 -30)"><g transform="translate(55.299 75.012)"><ellipse cx="47.982" cy="8.246" rx="47.982" ry="8.246" transform="translate(99.367 152.763)" fill="#bcbdc1" opacity="0.4" style="mix-blend-mode:multiply;isolation:isolate"/><g transform="translate(67.937)"><g transform="translate(54.771 149.93)"><path d="M344.816,395.242c-2.367,3.23-2.2,6.357.856,9.5h2.1l.651-2.511c2.217,2.193,5.476,2.515,8.623,2.515a20.394,20.394,0,0,0,6.182-1c2.818-.993,1.788-1.229-.548-1.495-5.039-.573-10.224-3.621-11.54-6.977Z" transform="translate(-314.713 -395.242)" fill="#1f1f1f"/><path d="M309.583,395.463c2.512,3.117,2.486,6.248-.42,9.531l-2.1.1-.763-2.478c-2.116,2.292-5.357,2.763-8.5,2.906a20.364,20.364,0,0,1-6.22-.719c-2.861-.864-1.842-1.146.478-1.519,5.008-.8,10.048-4.084,11.209-7.5Z" transform="translate(-289.833 -395.345)" fill="#1f1f1f"/></g><path d="M373.026,193.622c0,7.245-1.955,23.364-8.633,27.832a6.653,6.653,0,0,1-3.759,1.168c-5.023,0-6.136-.227-11.6-29.45.159-.019.313-.046.472-.073a10.892,10.892,0,0,0,4.941-2.341c-.824-2.823-2.273-6.032-5.223-6.514l.008-.045a27.985,27.985,0,0,0,2.609-4.559,18.777,18.777,0,0,0,3.7-6.146,13.529,13.529,0,0,1,1.482,2.887,27.818,27.818,0,0,0,1.822-6.409C367.212,171.826,373.026,177.458,373.026,193.622Z" transform="translate(-262.666 -140.276)" fill="#efefef"/><path d="M319.858,164.439A27.983,27.983,0,0,1,317.248,169l-.008.045a4.511,4.511,0,0,0-.792-.068c-.637,0-7.441.641-7.441,2.127,0,.882,1.272,1.614,2.345,1.614.678,0,1.314-.214,1.977-.214.409,0,.368.705.136.974-2.4,2.827-6.168,4.291-9.523,5a27.023,27.023,0,0,1-5.408.59c-.36,0-.71-.009-1.055-.027-10.264-.541-15.182-8.968-15.182-16.091,0-.428.009-.836.028-1.223.091-2,.368-3.477.368-4.946a13.968,13.968,0,0,0-2.259-7.718,30.182,30.182,0,0,1,3.973-8.355,12.841,12.841,0,0,0,1.314,4.391,14.807,14.807,0,0,1,5.663-6.5,11.473,11.473,0,0,0,3.541,3.228,16.587,16.587,0,0,1,7.645-4.455c-.013.323-.019.645-.019.972a33.557,33.557,0,0,0,3.559,14.4,16.164,16.164,0,0,1,.6-2.7,18.384,18.384,0,0,1,3.978-7.7,5.551,5.551,0,0,1,1.863.532,3.348,3.348,0,0,1,2.369-1.081c1.873,0,4.269,2.169,4.269,5.472a3.83,3.83,0,0,1-1.342,3.059C321.013,153.157,321.144,160.221,319.858,164.439Z" transform="translate(-230.68 -125.075)" fill="#faceb4"/><path d="M343,203.167a10.892,10.892,0,0,1-4.941,2.341,1.707,1.707,0,0,0-1.05-.65c-1.059,0-3.751,4.1-8.064,4.1a5.1,5.1,0,0,1-2.177-.468,4.592,4.592,0,0,1-2.288-2.4c3.355-.7,7.119-2.172,9.523-5,.233-.268.273-.974-.136-.974-.664,0-1.3.214-1.978.214-1.073,0-2.345-.732-2.345-1.614,0-1.486,6.8-2.127,7.441-2.127a4.515,4.515,0,0,1,.792.068C340.727,197.135,342.176,200.344,343,203.167Z" transform="translate(-251.217 -152.685)" fill="#faceb4"/><path d="M286.4,235.471a63.469,63.469,0,0,1,5.067,9.377,53.48,53.48,0,0,1-9.459-2.281,14.647,14.647,0,0,1-5.881-3.546c.146,1.819.29,3.624.431,5.355.01.081.019.164.023.245.177,2.137.35,4.155.5,5.919-.223-.037-.445-.065-.663-.092a19.015,19.015,0,0,0-2.224-.136,16.448,16.448,0,0,0-5.286.845c-.141.045-.281.1-.422.145-1.937-9.286-7.073-36.587-7.073-46.741,0-9.9,3.286-17.632,12.041-21.568-.019.386-.028.8-.028,1.223,0,7.123,4.918,15.55,15.182,16.091a6.332,6.332,0,0,0,2.064,3.632,55.027,55.027,0,0,1,1.017,10.164C291.695,221.37,290.8,229.988,286.4,235.471Z" transform="translate(-221.813 -146.347)" fill="#efefef"/><path d="M321.122,216.785a5.344,5.344,0,0,1-2.268,2.2,4.375,4.375,0,0,1-1.922.445,3.92,3.92,0,0,1-2.5-.859,6.332,6.332,0,0,1-2.064-3.632c.345.018.7.027,1.055.027a27.023,27.023,0,0,0,5.408-.59A4.6,4.6,0,0,0,321.122,216.785Z" transform="translate(-245.571 -160.98)" fill="#0b80b3"/><path d="M324.642,255.1c0,.137,0,.278,0,.414a34.062,34.062,0,0,0-10.054,7.845q-.4.483-.774.982-.251-.6-.518-1.2a63.474,63.474,0,0,0-5.067-9.377c4.395-5.483,5.294-14.1,5.294-21.368a55.03,55.03,0,0,0-1.017-10.164,3.92,3.92,0,0,0,2.5.859,4.375,4.375,0,0,0,1.922-.445C321.1,231.509,324.642,250.323,324.642,255.1Z" transform="translate(-243.638 -164.645)" fill="#05a0e2"/><path d="M350.98,242.676a15.352,15.352,0,0,1-2.359,8.6c-3.082,4.672-9.359,7.672-19.9,7.672a50.687,50.687,0,0,1-8.581-.318,34.063,34.063,0,0,1,10.054-7.845c0-.137,0-.278,0-.414,0-4.782-3.54-23.59-7.722-32.45a5.35,5.35,0,0,0,2.268-2.2,5.1,5.1,0,0,0,2.177.468c4.314,0,7.005-4.1,8.064-4.1a1.706,1.706,0,0,1,1.05.65c-.16.027-.314.054-.472.073,5.463,29.222,6.577,29.45,11.6,29.45a6.653,6.653,0,0,0,3.759-1.168C350.957,241.617,350.98,242.144,350.98,242.676Z" transform="translate(-249.193 -159.912)" fill="#efefef"/><path d="M321.2,138.63a33.267,33.267,0,0,1-.432,5.4,27.813,27.813,0,0,1-1.822,6.409,13.53,13.53,0,0,0-1.482-2.887,18.778,18.778,0,0,1-3.7,6.146c1.286-4.218,1.155-11.282-2-14.109a3.83,3.83,0,0,0,1.342-3.059c0-3.3-2.4-5.472-4.269-5.472a3.336,3.336,0,0,0-2.363,1.086,5.575,5.575,0,0,0-1.868-.536,18.384,18.384,0,0,0-3.978,7.7,16.161,16.161,0,0,0-.6,2.7,33.556,33.556,0,0,1-3.559-14.4c0-.327.005-.65.019-.972a16.588,16.588,0,0,0-7.645,4.455,11.473,11.473,0,0,1-3.541-3.227,14.807,14.807,0,0,0-5.663,6.5,12.84,12.84,0,0,1-1.314-4.391,30.183,30.183,0,0,0-3.973,8.355,42.252,42.252,0,0,0-1.968,10.327,23.173,23.173,0,0,1-2.678-10.959c0-5.382,1.25-10.377,4.487-14.164h-.091a17.273,17.273,0,0,0-6.723,1.332c5.427-5.119,17.045-10.518,25.354-10.518C302.521,114.334,321.2,120.943,321.2,138.63Z" transform="translate(-224.589 -114.334)" fill="#5b3327"/><g transform="translate(54.314 91.364)"><path d="M309.946,344.5c-.205.045-.414.085-.619.127-.432.087-.864.159-1.3.222a31.719,31.719,0,0,1-5.1.314c-.264,0-.532-.009-.8-.018-1.43-6.572-2.006-8.688-10.75-43.841h0a48.526,48.526,0,0,1-1.954-8.888c0-.081-.013-.164-.023-.245-.141-1.731-.286-3.536-.431-5.355a14.647,14.647,0,0,0,5.881,3.546,53.465,53.465,0,0,0,9.459,2.281q.266.6.518,1.2.369-.5.774-.982a50.688,50.688,0,0,0,8.581.318c10.541,0,16.818-3,19.9-7.672a19.957,19.957,0,0,1,.527,4.477c0,6.631-5.7,35.981-8.1,54.168-.272.032-.545.064-.813.086a31.812,31.812,0,0,1-5.086.114c-.4-.027-.8-.06-1.2-.1-.246-.027-.487-.054-.733-.091.632-16.286.824-28.251.409-41.064a12.65,12.65,0,0,1-13.032-.118c.082,1.677.177,3.336.278,4.991C305.99,307.51,307.314,323.317,309.946,344.5Z" transform="translate(-288.977 -285.514)" fill="#666"/></g><g transform="translate(0 100.664)"><path d="M292.419,351.881c.066.859-96.5,8.305-96.571,7.394C195.786,358.463,292.354,351.027,292.419,351.881Z" transform="translate(-191.24 -325.726)" fill="#40241b"/><path d="M291.936,323.379a2.339,2.339,0,0,0-.909-.55c-.084-.021-.165-.047-.246-.062l-.246-.034c-.087,0-.172,0-.257,0s-.138.016-.208.022a1.7,1.7,0,0,0-.826.341,1.531,1.531,0,0,0-.457.637,1.418,1.418,0,0,0,.07,1.174,1.172,1.172,0,0,0,.526.5c.141.048.221.06.232.037s-.043-.084-.161-.175a1.325,1.325,0,0,1-.322-.486,1.133,1.133,0,0,1,.06-.874,1.1,1.1,0,0,1,.353-.406,1.2,1.2,0,0,1,.575-.179,1.6,1.6,0,0,1,1.33.54,2.345,2.345,0,0,1,.586,1.644,2.393,2.393,0,0,1-.844,1.759,4.228,4.228,0,0,1-2.145.884l-.077.013h-.02l-.043,0-.171.015-.173.016c-.057,0-.1,0-.149,0-.1,0-.192,0-.3-.009l-.313-.032a4.982,4.982,0,0,1-1.243-.38,8.778,8.778,0,0,1-2.319-1.653,22.455,22.455,0,0,1-2.09-2.331c-.672-.843-1.326-1.742-1.981-2.667-2.616-3.7-5.255-7.852-8.685-11.436a30.054,30.054,0,0,0-2.735-2.522,21,21,0,0,0-3.075-2.09,17.638,17.638,0,0,0-3.384-1.449,16.181,16.181,0,0,0-3.541-.649,17.249,17.249,0,0,0-3.466.112l-.419.058-.1.014-.052.007-.066.012-.2.038-.4.076-.421.1c-.283.064-.544.156-.811.236s-.524.187-.775.3a11.8,11.8,0,0,0-1.444.733,13.78,13.78,0,0,0-1.285.884,24.6,24.6,0,0,0-2.163,1.93c-.655.642-1.263,1.259-1.868,1.8a15.125,15.125,0,0,1-1.8,1.424,9.885,9.885,0,0,1-9.72.725,15.164,15.164,0,0,1-1.995-1.128c-.681-.446-1.378-.963-2.123-1.5a24.691,24.691,0,0,0-2.437-1.576,14.122,14.122,0,0,0-1.4-.676,12.169,12.169,0,0,0-1.542-.5c-.266-.068-.539-.12-.812-.172s-.55-.091-.84-.109l-.431-.037-.406-.015-.2-.007h-.225l-.423.007a17.35,17.35,0,0,0-3.444.422,15.991,15.991,0,0,0-3.4,1.187,17.782,17.782,0,0,0-3.125,1.95,25.061,25.061,0,0,0-5.03,5.45,53.472,53.472,0,0,0-3.725,6.32c-1.1,2.142-2.1,4.281-3.107,6.31a34.8,34.8,0,0,1-3.262,5.561,10.988,10.988,0,0,1-.969,1.108,6.619,6.619,0,0,1-1.074.881,4.515,4.515,0,0,1-1.173.565c-.1.04-.193.049-.29.077-.049.012-.092.025-.145.035l-.173.024-.172.024-.043.006h-.011l-.076,0-.172.009-.067,0-.08,0a4.228,4.228,0,0,1-2.258-.548,2.4,2.4,0,0,1-1.1-1.612,2.346,2.346,0,0,1,.332-1.714,1.6,1.6,0,0,1,1.23-.732,1.2,1.2,0,0,1,.591.091,1.1,1.1,0,0,1,.59,1.19,1.282,1.282,0,0,1-.241.513c-.1.106-.152.17-.137.19s.095,0,.23-.065a1.138,1.138,0,0,0,.441-.554,1.4,1.4,0,0,0-.1-1.16,1.531,1.531,0,0,0-.542-.559,1.716,1.716,0,0,0-.864-.211c-.07,0-.126,0-.21.01s-.167.025-.251.04l-.238.07c-.078.028-.155.065-.234.1a2.344,2.344,0,0,0-.816.679,3.034,3.034,0,0,0-.558,2.234,3.174,3.174,0,0,0,.436,1.231,3.3,3.3,0,0,0,.958,1,5.091,5.091,0,0,0,2.733.781l.092,0h.105l.172,0,.086,0a.635.635,0,0,0,.065,0l.022,0,.043,0,.173-.02.174-.019c.061-.009.132-.025.2-.038a3.9,3.9,0,0,0,.4-.093,5.466,5.466,0,0,0,1.449-.651,7.568,7.568,0,0,0,1.263-.987,11.831,11.831,0,0,0,1.091-1.2c.035-.044.067-.09.1-.133a32.627,32.627,0,0,0,2.387-3.031c1.663-2.33,3.412-5.149,5.461-8.018a52.527,52.527,0,0,1,3.343-4.249,27.788,27.788,0,0,1,4.013-3.78,17.074,17.074,0,0,1,4.768-2.586,14.39,14.39,0,0,1,2.578-.621c.216-.034.433-.051.65-.078l.147-.016.169-.012.339-.021.168-.01h.157l.314,0c.207-.009.425.01.637.013a23.061,23.061,0,0,1,4.907.863c1.556.417,3.033.878,4.434,1.215.7.17,1.38.308,2.036.408,3.479.479,5.494,1.2,10.934-.818.633-.2,1.286-.442,1.951-.718,1.333-.549,2.72-1.231,4.194-1.883a22.95,22.95,0,0,1,4.714-1.608c.208-.036.422-.089.627-.112l.311-.045.155-.022.168-.016.338-.03.169-.015.147-.006c.218-.007.436-.024.655-.023a14.406,14.406,0,0,1,2.641.217,17.072,17.072,0,0,1,5.109,1.822,27.655,27.655,0,0,1,4.547,3.121,52.336,52.336,0,0,1,3.955,3.688c2.463,2.52,4.623,5.039,6.618,7.091a33.348,33.348,0,0,0,2.87,2.678l.024.018.051.049a9.7,9.7,0,0,0,2.656,1.8,5.975,5.975,0,0,0,1.53.422l.392.03c.129.011.271,0,.4,0,.066,0,.139,0,.2-.008l.172-.021.171-.02.109-.015.09-.018a5.088,5.088,0,0,0,2.58-1.187,3.309,3.309,0,0,0,.794-1.132,3.169,3.169,0,0,0,.244-1.281A3.034,3.034,0,0,0,291.936,323.379Z" transform="translate(-187.215 -302.937)" fill="#40241b"/></g><path d="M284.46,316.58s-.01,0-.014-.01,0,.013,0,.023a2.228,2.228,0,0,1-2.027,1.532,2.105,2.105,0,0,1-1.642-.824,2.39,2.39,0,0,1-2.054,1.473,2.8,2.8,0,0,1-2.318-1.269,2.194,2.194,0,0,1-1.991,1.627,2.417,2.417,0,0,1-1.937-.84,2.9,2.9,0,0,1-.572-1.855,4.416,4.416,0,0,1,.068-.778c.327-1.9,1.737-3.4,1.828-5.695a16.449,16.449,0,0,1,5.286-.845,19,19,0,0,1,2.224.136,6.659,6.659,0,0,0,2.109,3.059,4.12,4.12,0,0,1,1.09,1.755,4.289,4.289,0,0,1,.164,1.236A3.617,3.617,0,0,1,284.46,316.58Z" transform="translate(-226.705 -205.157)" fill="#faceb4"/><path d="M339.7,54.8c-.123,1.686-1.848,3.192-4.86,3.3s-4.749-1.773-4.861-3.3c-.043-.607,1.548-.6,1.591,0,.083,1.147,1.158,2.281,3.27,2.355a2.922,2.922,0,0,0,3.269-2.355c.044-.6,1.635-.607,1.591,0Z" transform="matrix(0.966, 0.259, -0.259, 0.966, -239.745, -112.506)" fill="#5b3327"/><path d="M338.031,54.724c-.1,1.4-1.531,2.644-4.026,2.732s-3.934-1.468-4.027-2.732c-.036-.5,1.283-.5,1.318,0,.068.95.959,1.89,2.709,1.951a2.421,2.421,0,0,0,2.708-1.951c.037-.5,1.355-.5,1.318,0Z" transform="matrix(0.966, -0.259, 0.259, 0.966, -277.96, 61.442)" fill="#5b3327"/><g transform="translate(74.116 53.034)"><path d="M326.084,215.427c.07-.1.5.12,1.2.151a7.493,7.493,0,0,0,2.547-.407,19.177,19.177,0,0,0,2.458-1c.653-.309,1.1-.548,1.168-.449.152.168-1.459,1.489-3.427,2.087a5.856,5.856,0,0,1-2.815.265C326.42,215.914,326.02,215.5,326.084,215.427Z" transform="translate(-326.077 -213.699)" fill="#e3916e"/></g><g transform="translate(52.829 16.337)"><g transform="translate(27.99)"><path d="M341.93,153.827c.026-.026.109,0,.234.056a2.361,2.361,0,0,0,.527.2,2.79,2.79,0,0,0,1.89-.351,3.158,3.158,0,0,0,1.287-2.329,5.981,5.981,0,0,0-.575-3.181,4.8,4.8,0,0,0-2.227-2.248,3.438,3.438,0,0,0-.664-.214c-.114-.013-.3-.032-.366-.033l-.338.028a.957.957,0,0,0-.326.06l-.317.088c-.195.093-.391.177-.567.281-1.446.9-1.616,2.238-1.808,2.17-.034-.009-.047-.09-.043-.234a1.8,1.8,0,0,1,.109-.619,3.688,3.688,0,0,1,1.366-1.871,6.253,6.253,0,0,1,.665-.393l.39-.139a1.426,1.426,0,0,1,.416-.1l.444-.057c.2,0,.281.008.437.018a3.815,3.815,0,0,1,.927.246,5.421,5.421,0,0,1,2.7,2.623,6.472,6.472,0,0,1,.6,3.7,3.729,3.729,0,0,1-1.784,2.791,2.906,2.906,0,0,1-1.322.32c-.107,0-.176,0-.306,0l-.246-.037a2.55,2.55,0,0,1-.472-.141,1.463,1.463,0,0,1-.532-.409C341.938,153.926,341.9,153.854,341.93,153.827Z" transform="translate(-338.638 -144.943)" fill="#e3916e"/></g><g transform="translate(29.594 2.243)"><path d="M343.574,154.117c.023-.023.091-.011.186.025a1.362,1.362,0,0,0,.166.064c.069.01.144.023.224.042l-.033,0c.105-.028.221-.056.346-.082a2.976,2.976,0,0,0,.362-.177,1.816,1.816,0,0,0,.586-.753,2.622,2.622,0,0,0,.153-.535c.013-.1.036-.18.046-.284s.01-.223.014-.336a2.573,2.573,0,0,0-.273-1.166,2.09,2.09,0,0,0-.78-.879l-.118-.082-.12-.044c-.081-.029-.15-.069-.238-.1l-.317-.045-.154-.022c-.032,0,.035,0,.026,0H343.6l-.067,0a2.061,2.061,0,0,0-1.515.738l.008-.015c-.177.267-.259.508-.33.48-.045-.02-.1-.218.036-.623l.008-.017a2.1,2.1,0,0,1,.6-.707,2.3,2.3,0,0,1,1.154-.438l.087-.008.044,0,.022,0h.01l.045,0,.155.013.318.028c.119.027.251.074.378.116l.193.069.165.1a2.62,2.62,0,0,1,1.046,1.135,3.054,3.054,0,0,1,.322,1.506c-.008.113-.018.224-.026.335s-.046.245-.069.364a3.021,3.021,0,0,1-.235.666,2.163,2.163,0,0,1-.876.921,2.5,2.5,0,0,1-.511.163c-.164.01-.311.013-.438.014H344.1a.047.047,0,0,1-.018,0c-.105-.047-.2-.093-.272-.136a.752.752,0,0,1-.159-.153C343.577,154.2,343.552,154.14,343.574,154.117Z" transform="translate(-341.643 -149.146)" fill="#e3916e"/></g><g transform="translate(0 46.69)"><path d="M286.94,232.422a27.826,27.826,0,0,1,.033,4.641c-.049,1.39-.045,3.015-.088,4.753-.009.435-.019.878-.028,1.325,0,.22-.018.456-.007.667s.024.452.035.678c.046.909.092,1.834.139,2.757.136,3.692.426,7.4.566,10.179a26.362,26.362,0,0,1,.079,4.645,29.54,29.54,0,0,1-.58-4.609c-.252-2.774-.6-6.465-.735-10.192-.043-.93-.085-1.86-.127-2.775-.01-.23-.02-.456-.03-.684s.012-.456.015-.683c.015-.447.03-.89.046-1.324.071-1.739.109-3.362.214-4.751A28.287,28.287,0,0,1,286.94,232.422Z" transform="translate(-286.196 -232.422)" fill="#7b6d70"/></g><g transform="translate(33.447 33.333)"><g transform="translate(11.551 5.403)"><path d="M370.965,226.59c-.111,0-.226-.56-.329-1.409-.046-.433-.115-.9-.13-1.469,0-.547.018-1.111.047-1.682.059-1.138.16-2.273.283-3.122a8.426,8.426,0,0,1,.2-1.044c.073-.242.154-.361.208-.345s.064.171.074.422.019.572.014,1.007c-.013.851-.058,1.986-.116,3.118-.03.563-.061,1.126-.089,1.655-.014.5.014,1.02,0,1.441C371.128,226.015,371.077,226.585,370.965,226.59Z" transform="translate(-370.505 -217.518)" fill="#7b6d70"/></g><g transform="translate(5.497)"><path d="M367.233,226.458a9.948,9.948,0,0,1-1.054-2.369c-.281-.735-.6-1.6-.947-2.558l-1.193-3.027c-1.626-4.24-3.584-8.912-4.271-10.89l.237.051c-.5.384-.8.584-.84.539s.2-.316.638-.764a.146.146,0,0,1,.207,0,.166.166,0,0,1,.027.037l.008.017c.952,1.865,3.023,6.5,4.608,10.777.4,1.066.793,2.1,1.131,3.061.307.972.589,1.861.827,2.614A9.927,9.927,0,0,1,367.233,226.458Z" transform="translate(-359.161 -207.395)" fill="#7b6d70"/></g><g transform="translate(0 3.124)"><path d="M349.426,213.272c.005.029-.153.08-.463.153l.062-.086c.3,1.062.891,3.912,1.657,7.581s1.683,8.165,2.783,12.462a38.127,38.127,0,0,0,1.981,6.067,6.493,6.493,0,0,0,1.576,2.275,3.815,3.815,0,0,0,2.25.806,9.2,9.2,0,0,0,5.043-.891c.013.021-.089.106-.291.248a4.313,4.313,0,0,1-.934.537,6.223,6.223,0,0,1-1.635.5c-.328.029-.687.08-1.054.092s-.753.009-1.16-.007a5.957,5.957,0,0,1-1.291-.2,3.551,3.551,0,0,1-1.276-.658,6.906,6.906,0,0,1-1.778-2.442,35.988,35.988,0,0,1-2.075-6.163c-1.121-4.324-1.994-8.833-2.689-12.52s-1.151-6.564-1.268-7.659l0-.012a.087.087,0,0,1,.076-.094C349.25,213.241,349.42,213.243,349.426,213.272Z" transform="translate(-348.862 -213.248)" fill="#7b6d70"/></g></g><g transform="translate(20.436 27.434)"><path d="M324.486,205.98c-.031-.135,1.57-.468,3.8-1.4a18.823,18.823,0,0,0,3.549-2.018l.856-.714c.288-.246.55-.561.829-.842l.209-.217a.263.263,0,0,0,.049-.059.516.516,0,0,0,.034-.077.555.555,0,0,0,.019-.342l.008.007a.158.158,0,0,0,.037.018c.008,0,.031,0,.026,0l-.039,0-.242.018a5.158,5.158,0,0,0-.575.07l-.635.093-.3.02-.151.011-.039,0a.6.6,0,0,1-.062,0l-.086,0a3.281,3.281,0,0,1-1.291-.339,2.479,2.479,0,0,1-1.032-.879,1.47,1.47,0,0,1-.158-.343,1.676,1.676,0,0,1-.046-.205l-.012-.145a.96.96,0,0,1,.37-.755,3.475,3.475,0,0,1,1.083-.587,10.357,10.357,0,0,1,1.06-.318c.692-.17,1.35-.282,1.959-.371a24.669,24.669,0,0,1,2.954-.256,2.3,2.3,0,0,1,.493.029l.347.066c.188.041.287.076.285.106s-.107.043-.3.051l-.352.005a2.448,2.448,0,0,0-.454.036c-.7.093-1.7.235-2.893.459-.593.114-1.234.249-1.895.432a10.03,10.03,0,0,0-.991.325,3.012,3.012,0,0,0-.876.486.452.452,0,0,0-.158.235l.013.145c.007.038.019.051.024.078a.864.864,0,0,0,.092.186,1.871,1.871,0,0,0,.772.627,2.67,2.67,0,0,0,1.032.266l.066,0s.041,0,.013,0l.037,0,.152-.011.3-.021.571-.087a5.775,5.775,0,0,1,.633-.076l.164-.011.083-.005.041,0c.021,0-.031,0,.049,0h.009l.019,0,.038,0a.609.609,0,0,1,.1.025.507.507,0,0,1,.169.091.657.657,0,0,1,.192.243,1.215,1.215,0,0,1-.093,1.039.9.9,0,0,1-.14.175l-.209.216c-.287.283-.538.581-.848.842l-.937.76a17.291,17.291,0,0,1-3.737,1.98A11.816,11.816,0,0,1,324.486,205.98Z" transform="translate(-324.485 -196.343)" fill="#e3916e"/></g></g></g><ellipse cx="45.406" cy="3.48" rx="45.406" ry="3.48" transform="translate(0 158.063)" fill="#bcbdc1" opacity="0.4" style="mix-blend-mode:multiply;isolation:isolate"/><g transform="translate(8.37 149.407)"><g transform="translate(43.158)"><path d="M156.482,398.177c-.36-.731,7.349-4.587,7.731-3.811C164.553,395.056,156.841,398.9,156.482,398.177Z" transform="translate(-156.47 -394.263)" fill="#40241b"/></g><g transform="translate(48.878 0.801)"><path d="M167.2,399.749c-.361-.731,7.48-4.659,7.863-3.884C175.4,396.554,167.559,400.476,167.2,399.749Z" transform="translate(-167.187 -395.764)" fill="#40241b"/></g><g transform="translate(54.731 1.689)"><path d="M178.166,401.417c-.362-.73,7.453-4.664,7.836-3.889C186.345,398.216,178.527,402.142,178.166,401.417Z" transform="translate(-178.154 -397.427)" fill="#40241b"/></g><g transform="translate(60.297 2.615)"><path d="M188.593,403.077c-.36-.731,7.349-4.587,7.731-3.811C196.664,399.956,188.951,403.8,188.593,403.077Z" transform="translate(-188.581 -399.163)" fill="#40241b"/></g><g transform="translate(67.111 3.659)"><path d="M201.361,405.032c-.36-.731,7.349-4.586,7.731-3.811C209.432,401.911,201.72,405.76,201.361,405.032Z" transform="translate(-201.349 -401.118)" fill="#40241b"/></g><g transform="translate(43.116 3.869)"><path d="M156.427,401.554c.561-.59,6.817,5.3,6.222,5.922C162.118,408.033,155.868,402.141,156.427,401.554Z" transform="translate(-156.392 -401.512)" fill="#40241b"/></g><g transform="translate(48.836 4.742)"><path d="M167.143,403.188c.564-.588,6.92,5.437,6.322,6.061C172.932,409.8,166.582,403.773,167.143,403.188Z" transform="translate(-167.108 -403.147)" fill="#40241b"/></g><g transform="translate(54.689 5.636)"><path d="M178.111,404.862c.566-.586,6.891,5.465,6.29,6.087C183.866,411.5,177.547,405.444,178.111,404.862Z" transform="translate(-178.075 -404.822)" fill="#40241b"/></g><g transform="translate(60.254 6.486)"><path d="M188.537,406.455c.566-.585,6.81,5.381,6.209,6C194.211,413.011,187.974,407.038,188.537,406.455Z" transform="translate(-188.501 -406.414)" fill="#40241b"/></g><g transform="translate(67.068 7.529)"><path d="M201.3,408.41c.567-.583,6.808,5.408,6.206,6.027C206.974,414.99,200.739,408.992,201.3,408.41Z" transform="translate(-201.268 -408.37)" fill="#40241b"/></g><path d="M81.343,405.917a7.516,7.516,0,0,0,.256-1.632s-.005.005-.007.006l0-.01c-.028-.012-.12.123-.259.367s-.311.605-.557,1.018a25,25,0,0,1-1.9,2.945c-.751,1.032-1.611,1.979-2.236,2.708a6.672,6.672,0,0,0-1.026,1.242.013.013,0,0,0,.01,0l0,.006a6.137,6.137,0,0,0,1.55-.379l.734-.226.4-.125.424-.107,1.8-.473c.615-.145,1.238-.247,1.817-.371.291-.055.568-.126.839-.165l.764-.1a6.439,6.439,0,0,0,1.567-.305l-.007-.005.007-.005c0-.029-.143-.06-.393-.093-.125-.016-.278-.033-.452-.049s-.374-.02-.586-.065a12.519,12.519,0,0,1-2.953-.793A16.216,16.216,0,0,1,81.343,405.917Z" transform="translate(-75.61 -398.934)" fill="#40241b"/><g transform="translate(0.013 0.082)"><path d="M98.1,395.433c-12.329,7.163-22.309,12.813-22.464,12.548s9.634-6.26,21.909-13.565Z" transform="translate(-75.635 -394.416)" fill="#40241b"/><path d="M116.485,394.416c23.178,3.4,53.716,8.243,53.635,8.774-.073.473-30.719-4-53.866-7.647Z" transform="translate(-94.574 -394.416)" fill="#40241b"/></g></g></g><g transform="translate(50 30)"><circle cx="40.03" cy="40.03" r="40.03" transform="translate(0 25.227)" fill="#d9c69c"/><circle cx="40.03" cy="40.03" r="40.03" transform="translate(2.135 24.159)" fill="#f9e8cc"/><circle cx="33.358" cy="33.358" r="33.358" transform="translate(8.806 30.831)" fill="#da6903"/><circle cx="26.687" cy="26.687" r="26.687" transform="translate(15.478 37.503)" fill="#f9e8cc"/><circle cx="20.015" cy="20.015" r="20.015" transform="translate(22.15 44.174)" fill="#da6903"/><circle cx="13.343" cy="13.343" r="13.343" transform="translate(28.821 50.846)" fill="#f9e8cc"/><circle cx="6.672" cy="6.672" r="6.672" transform="translate(35.493 57.518)" fill="#a33400"/><g transform="translate(19.986 1.872)"><path d="M87.458,64.929c-.571-.4,21.575-31.844,22.179-31.417C110.175,33.893,88.024,65.33,87.458,64.929Z" transform="translate(-87.447 -33.508)" fill="#546f74"/></g><path d="M86.941,92.355a1.334,1.334,0,1,1,.5-1.821A1.334,1.334,0,0,1,86.941,92.355Z" transform="translate(-66.294 -57.912)" fill="#2b2b2b"/><g transform="translate(42.164 1.856)"><path d="M151.19,64.9c-.57.4-22.784-30.99-22.18-31.417C129.549,33.1,151.758,64.5,151.19,64.9Z" transform="translate(-128.998 -33.478)" fill="#546f74"/></g><path d="M127.357,33.736a1.868,1.868,0,1,1,1.879-1.857A1.868,1.868,0,0,1,127.357,33.736Z" transform="translate(-85.203 -30)" fill="#da6903"/><path d="M128.3,33.6a.8.8,0,1,1,.805-.8A.8.8,0,0,1,128.3,33.6Z" transform="translate(-86.136 -30.932)" fill="#2b2b2b"/><path d="M169.89,92.433a1.334,1.334,0,1,1,.737-1.737A1.335,1.335,0,0,1,169.89,92.433Z" transform="translate(-105.046 -57.912)" fill="#2b2b2b"/></g></g></svg>