<svg xmlns="http://www.w3.org/2000/svg" width="324.266" height="229.906" viewBox="0 0 324.266 229.906">
  <g id="Group_10236" data-name="Group 10236" transform="translate(-28.734 -258.35)">
    <g id="Rectangle_3231" data-name="Rectangle 3231" transform="translate(34 289)" fill="#847171" stroke="#707070" stroke-width="1" opacity="0">
      <rect width="319" height="198" stroke="none"/>
      <rect x="0.5" y="0.5" width="318" height="197" fill="none"/>
    </g>
    <g id="Group_10234" data-name="Group 10234" transform="translate(34.163 289)">
      <path id="Path_5041" data-name="Path 5041" d="M534.768,363.414a68.96,68.96,0,0,1-11.211,25.454c-3.9,0-18.637,0-39.609,0-11.715,0-25.376,0-40.181,0-88.207-.016-217.055-.1-217.164-.472l-.027-.07a.409.409,0,0,1-.027-.1c-.106-.274-42.791-77.274,23.568-130.878,25.965-20.973-1.624-34.818,19.022-58.168,15.651-17.7,32.244-10.81,49.3-7.559,8.8,1.678,17.727,2.386,26.71-1.756a42.646,42.646,0,0,0,14.022-10.909,53.644,53.644,0,0,1,8.618-7.846c9.641-7.04,21.094-10.458,32.531-11.407,29.482-2.429,62.66,11.24,79.782,31.216,3.447,4.023,19.122,24.837,6.765,53.447-1.808,4.189-1.44,8.335.336,12.488,2.458,5.743,7.609,11.5,13.426,17.416,8.083,8.224,17.526,16.791,22.734,26.039C534.22,319.583,539.731,341.3,534.768,363.414Z" transform="translate(-218.368 -190.071)" fill="#ebf3fa"/>
      <path id="Path_5042" data-name="Path 5042" d="M1979.228,690.946a7.941,7.941,0,0,1,7.762-4.327s7.946-8.112,16.419-1.082c0,0,9.007-1.742,15.677,1.508,4.447,2.167,5.916,4.441,5.916,4.441Z" transform="translate(-1745.162 -620.368)" fill="#fff"/>
      <path id="Path_5043" data-name="Path 5043" d="M2370.32,1217.793a6.6,6.6,0,0,1,6.448-3.594s6.6-6.74,13.64-.9c0,0,7.483-1.448,13.024,1.253,3.695,1.8,4.915,3.689,4.915,3.689Z" transform="translate(-2106.688 -1085.718)" fill="#fff"/>
      <path id="Path_5045" data-name="Path 5045" d="M347.282,1506.316H260.557c-20.411-.058-33.4-.136-33.43-.241l-.026-.06a.328.328,0,0,1-.026-.088,95.024,95.024,0,0,1-7.381-16.435,99.648,99.648,0,0,1-5.471-26.6,49.815,49.815,0,0,1,38.391,18.9C269.962,1503.508,334.351,1475.2,347.282,1506.316Z" transform="translate(-207.314 -1307.687)" fill="#2b478b" opacity="0.5"/>
      <g id="Group_6441" data-name="Group 6441" transform="translate(69.203 5.552)">
        <path id="Path_5046" data-name="Path 5046" d="M1216.111,665.093a74.966,74.966,0,1,1-74.966-74.966A74.713,74.713,0,0,1,1216.111,665.093Z" transform="translate(-1051.682 -569.263)" fill="#e03249"/>
        <path id="Path_5047" data-name="Path 5047" d="M1330.357,665.093a74.712,74.712,0,0,1-20.645,51.664L1200.645,613.879a74.967,74.967,0,0,1,129.713,51.214Z" transform="translate(-1165.928 -569.263)" fill="#f3566d"/>
        <g id="Group_6432" data-name="Group 6432" transform="translate(0 3.836)">
          <g id="Group_6431" data-name="Group 6431">
            <path id="Path_5053" data-name="Path 5053" d="M1030.763,642.81h0c-.52,0-1.043-.013-1.555-.025a.344.344,0,0,1,.017-.687c.508.013,1.027.021,1.543.025a.344.344,0,0,1,0,.687Zm1.549,0a.344.344,0,0,1,0-.688c.513,0,1.031-.014,1.542-.027a.34.34,0,0,1,.353.335.344.344,0,0,1-.335.352c-.514.013-1.037.023-1.554.028Zm-4.647-.076h-.015c-.52-.022-1.042-.048-1.553-.079a.344.344,0,0,1,.041-.686c.507.03,1.026.057,1.541.078a.344.344,0,0,1-.014.687Zm7.738-.005a.344.344,0,0,1-.014-.687c.512-.022,1.031-.049,1.541-.08a.344.344,0,1,1,.042.686c-.514.031-1.037.058-1.553.081Zm-10.83-.178h-.027c-.515-.039-1.036-.084-1.549-.132a.344.344,0,1,1,.064-.684c.509.047,1.027.091,1.538.131a.344.344,0,0,1-.026.686Zm13.923-.009a.344.344,0,0,1-.026-.687c.514-.04,1.032-.085,1.538-.133a.344.344,0,0,1,.065.684c-.51.049-1.031.094-1.549.134Zm-17.007-.281-.039,0c-.519-.058-1.039-.12-1.544-.186a.344.344,0,0,1,.088-.682c.5.065,1.017.127,1.532.184a.344.344,0,0,1-.037.685Zm20.092-.013a.344.344,0,0,1-.038-.685c.51-.057,1.025-.12,1.532-.186a.344.344,0,0,1,.089.681c-.511.067-1.03.13-1.544.188Zm-23.165-.383a.321.321,0,0,1-.05,0c-.511-.075-1.028-.155-1.537-.239a.344.344,0,1,1,.111-.678c.5.083,1.018.162,1.525.237a.344.344,0,0,1-.05.684Zm26.237-.018a.344.344,0,0,1-.05-.684c.5-.075,1.018-.156,1.525-.239a.344.344,0,0,1,.113.678c-.511.084-1.028.166-1.536.241A.321.321,0,0,1,1044.652,641.847Zm-29.295-.485a.337.337,0,0,1-.062-.006c-.512-.093-1.026-.191-1.527-.292a.344.344,0,0,1,.135-.674c.5.1,1.008.2,1.516.29a.344.344,0,0,1-.061.682Zm32.351-.022a.343.343,0,0,1-.062-.681c.5-.092,1.011-.19,1.515-.292a.344.344,0,1,1,.135.674c-.507.1-1.021.2-1.527.294A.321.321,0,0,1,1047.709,641.339Zm-35.389-.587a.353.353,0,0,1-.074-.008c-.507-.111-1.018-.228-1.516-.346a.344.344,0,1,1,.159-.669c.494.117,1,.232,1.5.343a.344.344,0,0,1-.073.679Zm38.426-.026a.344.344,0,0,1-.073-.679c.5-.11,1-.225,1.5-.345a.344.344,0,0,1,.159.668c-.5.12-1.014.237-1.516.347A.341.341,0,0,1,1050.746,640.727Zm-41.441-.689a.34.34,0,0,1-.085-.011c-.5-.129-1.009-.262-1.5-.4a.344.344,0,0,1,.182-.663c.49.134.992.267,1.491.4a.344.344,0,0,1-.085.676Zm44.455-.03a.344.344,0,0,1-.085-.676c.5-.128,1-.261,1.491-.4a.344.344,0,0,1,.183.663c-.5.137-1,.272-1.5.4A.355.355,0,0,1,1053.76,640.008Zm-47.443-.79a.34.34,0,0,1-.1-.014c-.494-.145-.995-.3-1.489-.45a.344.344,0,0,1,.2-.656c.49.153.987.3,1.477.447a.344.344,0,0,1-.1.673Zm50.43-.034a.344.344,0,0,1-.1-.673c.492-.145.989-.3,1.476-.449a.344.344,0,0,1,.206.656c-.491.154-.993.307-1.488.453A.356.356,0,0,1,1056.747,639.184Zm-53.394-.891a.335.335,0,0,1-.108-.018c-.493-.163-.99-.333-1.478-.5a.343.343,0,1,1,.228-.648c.484.17.977.338,1.466.5a.344.344,0,0,1-.108.67Zm56.35-.036a.344.344,0,0,1-.108-.67c.486-.162.978-.33,1.46-.5a.344.344,0,1,1,.228.648c-.486.172-.981.341-1.471.5A.356.356,0,0,1,1059.7,638.257Zm-59.284-.994a.34.34,0,0,1-.119-.022c-.487-.181-.977-.368-1.459-.556a.344.344,0,0,1,.251-.64c.477.187.964.372,1.447.552a.344.344,0,0,1-.12.666Zm62.206-.036a.344.344,0,0,1-.12-.666c.478-.178.963-.364,1.441-.551a.344.344,0,1,1,.251.64c-.482.189-.97.376-1.453.556A.343.343,0,0,1,1062.625,637.226Zm-65.1-1.1a.338.338,0,0,1-.13-.026c-.479-.2-.963-.4-1.437-.606a.344.344,0,1,1,.273-.631c.47.2.95.406,1.426.6a.344.344,0,0,1-.131.661Zm67.987-.035a.344.344,0,0,1-.132-.662c.474-.2.951-.4,1.416-.6a.344.344,0,1,1,.273.631c-.469.2-.949.406-1.427.6A.346.346,0,0,1,1065.51,636.094Zm-70.839-1.2a.341.341,0,0,1-.141-.031c-.47-.213-.946-.434-1.415-.656a.344.344,0,0,1,.295-.621c.465.221.938.44,1.4.651a.344.344,0,0,1-.142.657Zm73.671-.03a.344.344,0,0,1-.142-.657c.462-.21.932-.428,1.395-.648a.344.344,0,1,1,.295.621c-.467.222-.939.442-1.406.653A.341.341,0,0,1,1068.342,634.867Zm-76.477-1.3a.34.34,0,0,1-.152-.036c-.466-.231-.934-.469-1.391-.7a.344.344,0,0,1,.316-.61c.453.234.917.47,1.38.7a.344.344,0,0,1-.153.651Zm79.266-.024a.344.344,0,0,1-.153-.651c.459-.228.92-.462,1.372-.7a.344.344,0,1,1,.316.61c-.455.236-.92.473-1.382.7A.343.343,0,0,1,1071.131,633.542Zm-82.024-1.4a.343.343,0,0,1-.163-.041c-.453-.245-.912-.5-1.364-.753a.344.344,0,1,1,.337-.6c.449.253.9.5,1.354.747a.344.344,0,0,1-.164.646Zm84.767-.018a.344.344,0,0,1-.164-.646c.446-.241.9-.491,1.347-.744a.344.344,0,1,1,.337.6c-.452.255-.909.507-1.358.75A.347.347,0,0,1,1073.874,632.119Zm-87.472-1.5a.34.34,0,0,1-.174-.047c-.447-.262-.9-.531-1.337-.8a.344.344,0,1,1,.357-.587c.437.266.883.533,1.327.793a.344.344,0,0,1-.174.64Zm90.164-.012a.344.344,0,0,1-.174-.64c.441-.259.885-.524,1.321-.79a.344.344,0,1,1,.358.587c-.44.268-.888.536-1.332.8A.341.341,0,0,1,1076.567,630.6ZM983.753,629a.341.341,0,0,1-.184-.054c-.437-.277-.877-.561-1.308-.845a.344.344,0,1,1,.378-.574c.428.282.865.564,1.3.839a.344.344,0,0,1-.184.634Zm95.453-.007a.343.343,0,0,1-.184-.634c.433-.275.868-.556,1.293-.836a.344.344,0,0,1,.378.574c-.429.282-.867.566-1.3.843A.337.337,0,0,1,1079.206,628.992Zm-98.045-1.7a.343.343,0,0,1-.193-.06c-.425-.291-.855-.59-1.278-.89a.344.344,0,1,1,.4-.561c.419.3.846.594,1.268.883a.344.344,0,0,1-.194.627Zm100.627,0a.344.344,0,0,1-.194-.627c.419-.286.844-.582,1.264-.881a.344.344,0,0,1,.4.561c-.423.3-.852.6-1.274.887A.338.338,0,0,1,1081.789,627.291Zm2.523-1.79a.344.344,0,0,1-.2-.62c.415-.3.829-.616,1.234-.924a.343.343,0,0,1,.417.546c-.407.311-.825.624-1.243.931A.341.341,0,0,1,1084.312,625.5Zm-105.68,0a.34.34,0,0,1-.2-.067c-.415-.305-.834-.619-1.246-.933a.344.344,0,0,1,.417-.547c.409.311.824.623,1.236.926a.343.343,0,0,1-.2.62Zm108.141-1.873a.344.344,0,0,1-.213-.613c.4-.317.805-.642,1.2-.966a.344.344,0,0,1,.436.532c-.4.327-.806.654-1.211.974A.342.342,0,0,1,1086.773,623.625Zm-110.606-.007a.342.342,0,0,1-.213-.074c-.409-.323-.817-.651-1.212-.976a.344.344,0,1,1,.436-.532c.392.322.8.648,1.2.968a.344.344,0,0,1-.213.613Zm113-1.954a.344.344,0,0,1-.223-.606c.389-.33.782-.669,1.168-1.008a.344.344,0,0,1,.453.517c-.389.341-.784.683-1.176,1.015A.343.343,0,0,1,1089.168,621.664Zm-115.4-.011a.342.342,0,0,1-.222-.081c-.4-.337-.793-.679-1.178-1.017a.344.344,0,1,1,.454-.516c.382.335.774.674,1.168,1.009a.343.343,0,0,1-.222.605Zm117.727-2.032a.344.344,0,0,1-.231-.6c.379-.345.76-.7,1.132-1.048a.344.344,0,1,1,.471.5c-.375.354-.759.709-1.141,1.056A.344.344,0,0,1,1091.494,619.622Zm-120.055-.013a.342.342,0,0,1-.231-.09c-.379-.345-.764-.7-1.141-1.056a.344.344,0,1,1,.471-.5c.375.353.756.706,1.133,1.048a.344.344,0,0,1-.231.6Zm122.311-2.11a.343.343,0,0,1-.24-.59c.37-.361.739-.727,1.1-1.086a.344.344,0,0,1,.488.484c-.359.362-.731.731-1.1,1.094A.344.344,0,0,1,1093.75,617.5Zm-124.567-.014a.343.343,0,0,1-.24-.1c-.371-.361-.742-.73-1.1-1.095a.344.344,0,0,1,.488-.484c.359.362.728.728,1.1,1.086a.344.344,0,0,1-.24.59Zm126.748-2.185a.344.344,0,0,1-.248-.582c.356-.371.712-.749,1.058-1.123a.344.344,0,1,1,.5.467c-.349.377-.708.758-1.066,1.132A.345.345,0,0,1,1095.932,615.3ZM967,615.285a.341.341,0,0,1-.248-.106c-.356-.372-.715-.752-1.066-1.132a.344.344,0,0,1,.5-.467c.349.376.7.754,1.058,1.123a.343.343,0,0,1-.248.581Zm131.034-2.259a.344.344,0,0,1-.256-.573c.343-.384.686-.775,1.018-1.16a.344.344,0,0,1,.521.449c-.335.388-.681.781-1.027,1.169A.343.343,0,0,1,1098.037,613.026ZM964.9,613.012a.343.343,0,0,1-.256-.115c-.346-.387-.691-.779-1.026-1.168a.344.344,0,1,1,.52-.449c.332.385.675.775,1.018,1.159a.344.344,0,0,1-.256.573Zm135.162-2.332a.344.344,0,0,1-.264-.563c.331-.4.66-.8.978-1.195a.344.344,0,0,1,.536.431c-.322.4-.653.8-.986,1.2A.343.343,0,0,1,1100.062,610.68Zm-137.186-.012a.344.344,0,0,1-.265-.124c-.33-.4-.661-.8-.984-1.2a.344.344,0,0,1,.536-.431c.32.4.649.8.977,1.193a.344.344,0,0,1-.264.564Zm139.13-2.4a.344.344,0,0,1-.272-.555c.313-.4.628-.816.937-1.228a.344.344,0,1,1,.55.412c-.311.415-.629.831-.944,1.237A.343.343,0,0,1,1102.006,608.265Zm-141.07-.008a.343.343,0,0,1-.272-.133c-.318-.409-.635-.825-.942-1.235a.344.344,0,0,1,.55-.412c.305.407.619.819.935,1.226a.344.344,0,0,1-.271.554Zm142.93-2.473a.344.344,0,0,1-.278-.545c.3-.416.6-.84.894-1.26a.344.344,0,0,1,.564.393c-.3.423-.6.851-.9,1.27A.343.343,0,0,1,1103.866,605.784Zm-144.785,0a.344.344,0,0,1-.279-.143c-.3-.419-.605-.845-.9-1.266a.344.344,0,1,1,.564-.393c.291.418.591.84.892,1.257a.344.344,0,0,1-.278.545Zm-1.769-2.538a.343.343,0,0,1-.286-.152c-.288-.43-.576-.866-.854-1.3a.344.344,0,1,1,.577-.373c.276.427.561.86.847,1.287a.343.343,0,0,1-.285.535Zm148.327,0a.344.344,0,0,1-.285-.535c.286-.426.572-.861.85-1.29a.344.344,0,0,1,.577.373c-.28.433-.568.871-.856,1.3A.344.344,0,0,1,1105.639,603.239Zm-150.006-2.593a.343.343,0,0,1-.292-.162c-.271-.435-.543-.881-.808-1.324a.344.344,0,0,1,.59-.353c.263.44.533.882.8,1.315a.344.344,0,0,1-.292.525Zm151.69-.013a.344.344,0,0,1-.291-.525c.27-.435.542-.879.8-1.319a.343.343,0,1,1,.59.352c-.266.444-.539.892-.811,1.33A.344.344,0,0,1,1107.323,600.634Zm-153.278-2.64a.344.344,0,0,1-.3-.172c-.256-.445-.512-.9-.762-1.351a.344.344,0,1,1,.6-.332c.248.448.5.9.756,1.341a.344.344,0,0,1-.3.515Zm154.871-.024a.344.344,0,0,1-.3-.515c.257-.447.512-.9.759-1.347a.344.344,0,1,1,.6.332c-.249.451-.506.907-.765,1.358A.342.342,0,0,1,1108.917,597.97Zm-156.365-2.681a.344.344,0,0,1-.3-.183c-.241-.454-.481-.918-.714-1.377a.344.344,0,1,1,.612-.311c.232.456.47.915.709,1.366a.343.343,0,0,1-.143.464A.339.339,0,0,1,952.551,595.289Zm157.865-.037a.343.343,0,0,1-.3-.5c.239-.453.479-.915.711-1.373a.344.344,0,0,1,.614.311c-.234.462-.476.927-.717,1.384A.344.344,0,0,1,1110.417,595.252Zm-159.265-2.717a.344.344,0,0,1-.309-.193c-.224-.461-.448-.932-.666-1.4a.344.344,0,1,1,.623-.29c.216.464.439.932.661,1.389a.344.344,0,0,1-.309.494Zm160.669-.052a.343.343,0,0,1-.309-.494c.225-.464.448-.934.664-1.4a.343.343,0,1,1,.623.289c-.216.467-.441.941-.668,1.409A.343.343,0,0,1,1111.821,592.482ZM949.85,589.735a.343.343,0,0,1-.314-.2c-.21-.472-.417-.95-.616-1.422a.344.344,0,0,1,.633-.268c.2.468.4.942.611,1.411a.343.343,0,0,1-.314.483Zm163.279-.07a.344.344,0,0,1-.314-.483c.208-.471.415-.949.615-1.421a.344.344,0,1,1,.633.267c-.2.476-.409.957-.619,1.431A.344.344,0,0,1,1113.129,589.664Zm-164.482-2.772a.344.344,0,0,1-.319-.215c-.193-.479-.384-.966-.569-1.448a.344.344,0,0,1,.642-.246c.183.478.373.961.564,1.437a.344.344,0,0,1-.318.472Zm165.69-.091a.343.343,0,0,1-.319-.472c.191-.475.381-.96.564-1.442a.344.344,0,0,1,.642.245c-.185.485-.376.974-.568,1.453A.345.345,0,0,1,1114.338,586.8ZM947.54,584a.344.344,0,0,1-.323-.226c-.176-.486-.35-.979-.518-1.467a.344.344,0,0,1,.65-.223c.166.484.339.973.514,1.455a.344.344,0,0,1-.323.461Zm167.906-.1a.343.343,0,0,1-.324-.46c.175-.483.348-.975.514-1.461a.344.344,0,1,1,.65.222c-.167.49-.342.986-.518,1.473A.342.342,0,0,1,1115.446,583.9Zm-168.912-2.828a.344.344,0,0,1-.327-.238c-.159-.492-.316-.991-.466-1.484a.344.344,0,0,1,.657-.2c.149.489.3.984.463,1.473a.344.344,0,0,1-.221.433A.351.351,0,0,1,946.534,581.068Zm169.918-.114a.344.344,0,0,1-.327-.449c.159-.493.314-.99.462-1.479a.344.344,0,1,1,.658.2c-.149.493-.306.995-.466,1.491A.344.344,0,0,1,1116.451,580.954ZM945.631,578.1a.344.344,0,0,1-.33-.249c-.141-.5-.281-1-.414-1.5a.344.344,0,1,1,.664-.177c.132.5.27,1,.411,1.487a.344.344,0,0,1-.236.425A.339.339,0,0,1,945.631,578.1Zm171.721-.122a.342.342,0,0,1-.331-.437c.14-.495.277-1,.408-1.488a.344.344,0,0,1,.665.176c-.132.5-.271,1-.412,1.5A.343.343,0,0,1,1117.352,577.982Zm-172.52-2.872a.344.344,0,0,1-.333-.261c-.124-.5-.246-1.009-.361-1.513a.344.344,0,1,1,.67-.154c.115.5.235,1,.359,1.5a.343.343,0,0,1-.334.426Zm173.314-.123a.33.33,0,0,1-.082-.01.343.343,0,0,1-.251-.416c.122-.5.242-1.005.356-1.5a.344.344,0,1,1,.67.153c-.115.5-.235,1.01-.359,1.513A.343.343,0,0,1,1118.146,574.987Zm-174.007-2.9a.344.344,0,0,1-.336-.272c-.107-.506-.211-1.019-.308-1.525a.344.344,0,0,1,.675-.13c.1.5.2,1.011.306,1.513a.343.343,0,0,1-.265.407A.364.364,0,0,1,944.139,572.09Zm174.7-.124a.329.329,0,0,1-.071-.007.344.344,0,0,1-.266-.407c.105-.5.207-1.012.3-1.513a.344.344,0,0,1,.675.129c-.1.506-.2,1.019-.306,1.525A.344.344,0,0,1,1118.835,571.966Zm-175.284-2.918a.344.344,0,0,1-.338-.284c-.089-.506-.174-1.023-.255-1.534a.344.344,0,1,1,.679-.107c.08.507.165,1.019.253,1.522a.345.345,0,0,1-.339.4Zm175.867-.125a.351.351,0,0,1-.059-.005.344.344,0,0,1-.28-.4c.087-.505.172-1.018.251-1.523a.343.343,0,1,1,.679.106c-.079.509-.164,1.026-.252,1.534A.344.344,0,0,1,1119.418,568.923ZM943.07,565.988a.344.344,0,0,1-.34-.3c-.071-.509-.139-1.028-.2-1.542a.344.344,0,1,1,.682-.083c.062.51.13,1.025.2,1.53a.346.346,0,0,1-.341.391Zm176.825-.126a.321.321,0,0,1-.048,0,.343.343,0,0,1-.293-.387c.07-.508.137-1.023.2-1.531a.344.344,0,1,1,.682.082c-.062.512-.129,1.03-.2,1.543A.344.344,0,0,1,1119.9,565.862Zm-177.2-2.95a.344.344,0,0,1-.342-.308c-.054-.514-.1-1.035-.148-1.548a.344.344,0,1,1,.685-.06c.044.51.093,1.026.147,1.536a.344.344,0,0,1-.306.378Zm177.568-.126-.035,0a.343.343,0,0,1-.307-.377c.052-.506.1-1.022.145-1.536a.344.344,0,0,1,.685.058c-.045.518-.094,1.039-.146,1.548A.343.343,0,0,1,1120.265,562.786Zm-177.836-2.961a.344.344,0,0,1-.342-.32c-.036-.515-.068-1.038-.094-1.552a.344.344,0,1,1,.686-.036c.026.511.058,1.029.094,1.54a.344.344,0,0,1-.319.367Zm178.1-.127h-.024a.344.344,0,0,1-.32-.366c.035-.509.065-1.027.092-1.541a.344.344,0,1,1,.686.035c-.026.517-.057,1.04-.092,1.552A.344.344,0,0,1,1120.529,559.7Zm-178.262-2.968a.344.344,0,0,1-.343-.332c-.018-.512-.032-1.034-.041-1.552a.344.344,0,0,1,.337-.35h.006a.344.344,0,0,1,.344.337c.009.513.023,1.032.041,1.54a.344.344,0,0,1-.331.356Zm178.419-.127h-.012a.344.344,0,0,1-.332-.355c.017-.511.03-1.03.039-1.543a.348.348,0,0,1,.349-.338.345.345,0,0,1,.338.349c-.009.517-.022,1.04-.039,1.555A.344.344,0,0,1,1120.686,556.6Zm-178.474-2.968a.344.344,0,0,1-.344-.344v-.086c0-.515,0-1.038.013-1.555a.349.349,0,0,1,.349-.338.344.344,0,0,1,.338.349c-.009.513-.013,1.032-.013,1.543v.086A.344.344,0,0,1,942.211,553.636Zm178.526-.13a.344.344,0,0,1-.344-.343c0-.513-.005-1.033-.014-1.544a.344.344,0,0,1,.338-.35.35.35,0,0,1,.349.338c.009.515.013,1.038.014,1.555A.344.344,0,0,1,1120.737,553.507Zm-178.473-3.055h-.012a.344.344,0,0,1-.332-.355c.018-.518.04-1.041.066-1.554a.344.344,0,0,1,.687.035c-.026.509-.048,1.028-.066,1.542A.343.343,0,0,1,942.264,550.452Zm178.418-.041a.344.344,0,0,1-.343-.332c-.018-.514-.04-1.033-.066-1.542a.344.344,0,0,1,.687-.036c.026.513.049,1.036.067,1.554a.344.344,0,0,1-.332.356Zm-178.259-3.053H942.4a.343.343,0,0,1-.319-.366c.035-.516.076-1.038.12-1.551a.344.344,0,1,1,.685.059c-.044.509-.084,1.027-.119,1.539A.344.344,0,0,1,942.423,547.358Zm178.1-.041a.343.343,0,0,1-.343-.32c-.036-.513-.075-1.031-.12-1.539a.344.344,0,1,1,.685-.059c.044.512.085,1.033.121,1.55a.344.344,0,0,1-.319.367Zm-177.834-3.046-.036,0a.344.344,0,0,1-.307-.377c.053-.516.112-1.036.173-1.546a.344.344,0,1,1,.682.083c-.061.506-.119,1.022-.172,1.534A.343.343,0,0,1,942.688,544.271Zm177.567-.041a.344.344,0,0,1-.341-.308c-.053-.511-.112-1.027-.173-1.534a.344.344,0,0,1,.682-.083c.062.51.12,1.03.174,1.546a.344.344,0,0,1-.306.377ZM943.06,541.2a.348.348,0,0,1-.047,0,.344.344,0,0,1-.293-.387c.07-.509.147-1.027.227-1.539a.344.344,0,1,1,.679.106c-.079.508-.155,1.022-.225,1.526A.344.344,0,0,1,943.06,541.2Zm176.823-.04a.343.343,0,0,1-.34-.3c-.071-.507-.147-1.021-.226-1.527a.344.344,0,0,1,.679-.106c.08.51.156,1.028.227,1.539a.344.344,0,0,1-.293.388A.386.386,0,0,1,1119.883,541.155Zm-176.345-3.021a.351.351,0,0,1-.06-.005.344.344,0,0,1-.279-.4c.088-.5.182-1.019.28-1.53a.344.344,0,0,1,.675.13c-.1.507-.191,1.017-.278,1.518A.344.344,0,0,1,943.538,538.134Zm175.865-.04a.343.343,0,0,1-.338-.285c-.088-.5-.181-1.012-.279-1.517a.344.344,0,1,1,.675-.13c.1.51.193,1.024.28,1.53a.342.342,0,0,1-.28.4A.326.326,0,0,1,1119.4,538.094Zm-175.28-3a.359.359,0,0,1-.071-.007.344.344,0,0,1-.266-.407c.106-.5.218-1.015.333-1.519a.344.344,0,1,1,.67.153c-.114.5-.226,1.008-.331,1.507A.344.344,0,0,1,944.123,535.091Zm174.695-.04a.343.343,0,0,1-.336-.273c-.106-.5-.218-1.011-.332-1.507a.344.344,0,0,1,.67-.153c.115.5.227,1.011.334,1.519a.343.343,0,0,1-.265.407A.34.34,0,0,1,1118.817,535.051Zm-174-2.98a.328.328,0,0,1-.083-.01.343.343,0,0,1-.251-.416c.123-.5.253-1.008.386-1.506a.344.344,0,1,1,.664.177c-.131.495-.26,1-.383,1.495A.344.344,0,0,1,944.813,532.071Zm173.312-.04a.344.344,0,0,1-.334-.261c-.122-.5-.252-1-.384-1.495a.344.344,0,0,1,.664-.177c.133.5.263,1.006.387,1.506a.344.344,0,0,1-.251.416A.355.355,0,0,1,1118.125,532.031Zm-172.517-2.955a.348.348,0,0,1-.094-.013.344.344,0,0,1-.236-.425c.141-.5.289-1,.439-1.492a.344.344,0,0,1,.658.2c-.149.491-.3.989-.435,1.481A.344.344,0,0,1,945.608,529.076Zm171.72-.039a.344.344,0,0,1-.331-.25c-.14-.492-.287-.99-.436-1.48a.344.344,0,1,1,.657-.2c.15.494.3,1,.439,1.492a.343.343,0,0,1-.236.425A.351.351,0,0,1,1117.329,529.037ZM946.51,526.105a.344.344,0,0,1-.327-.449c.16-.494.325-.993.493-1.482a.344.344,0,0,1,.65.223c-.166.485-.33.98-.489,1.47A.344.344,0,0,1,946.51,526.105Zm169.917-.033a.344.344,0,0,1-.327-.238c-.158-.489-.322-.982-.487-1.464a.344.344,0,0,1,.651-.223c.166.486.331.983.491,1.476a.344.344,0,0,1-.222.433A.338.338,0,0,1,1116.427,526.073Zm-168.91-2.91a.34.34,0,0,1-.117-.021.344.344,0,0,1-.206-.44c.176-.486.359-.979.544-1.463a.344.344,0,1,1,.642.245c-.184.48-.365.969-.54,1.451A.344.344,0,0,1,947.517,523.163Zm167.906-.021a.344.344,0,0,1-.323-.227c-.175-.482-.356-.969-.538-1.446a.344.344,0,0,1,.642-.245c.184.481.367.972.542,1.458a.344.344,0,0,1-.323.461Zm-166.8-2.883a.344.344,0,0,1-.318-.472c.193-.481.393-.966.594-1.442a.344.344,0,0,1,.633.268c-.2.472-.4.954-.59,1.431A.344.344,0,0,1,948.626,520.258Zm165.691-.011a.343.343,0,0,1-.319-.216c-.19-.471-.386-.949-.586-1.421a.343.343,0,1,1,.633-.267c.2.475.4.957.591,1.432a.344.344,0,0,1-.191.447A.34.34,0,0,1,1114.317,520.247Zm-1.2-2.843a.343.343,0,0,1-.315-.2c-.206-.466-.421-.937-.636-1.4a.344.344,0,1,1,.623-.289c.217.467.432.942.641,1.411a.344.344,0,0,1-.314.483Zm-163.28-.008a.344.344,0,0,1-.314-.483c.21-.474.427-.952.645-1.42a.344.344,0,1,1,.623.29c-.216.464-.431.938-.64,1.409A.345.345,0,0,1,949.836,517.4Zm161.979-2.792a.343.343,0,0,1-.309-.194c-.223-.458-.453-.922-.684-1.378a.344.344,0,1,1,.613-.311c.233.46.465.927.69,1.389a.344.344,0,0,1-.309.494Zm-160.67-.025a.344.344,0,0,1-.309-.494c.225-.464.459-.934.693-1.4a.344.344,0,1,1,.613.311c-.233.458-.464.925-.689,1.385A.343.343,0,0,1,951.145,514.579Zm159.273-2.73a.342.342,0,0,1-.3-.183c-.239-.451-.485-.907-.732-1.354a.344.344,0,0,1,.6-.332c.248.45.5.91.737,1.364a.344.344,0,0,1-.3.5Zm-157.866-.039a.344.344,0,0,1-.3-.5c.242-.457.492-.918.742-1.371a.344.344,0,0,1,.6.332c-.248.449-.5.906-.736,1.36A.344.344,0,0,1,952.551,511.81Zm156.374-2.667a.344.344,0,0,1-.3-.173c-.254-.442-.515-.888-.779-1.328a.344.344,0,0,1,.59-.353c.265.443.529.894.785,1.338a.344.344,0,0,1-.3.515Zm-154.872-.051a.343.343,0,0,1-.3-.515c.257-.447.522-.9.788-1.343a.344.344,0,1,1,.59.353c-.264.441-.528.89-.783,1.333A.343.343,0,0,1,954.053,509.092Zm153.286-2.6a.343.343,0,0,1-.292-.162c-.269-.433-.546-.87-.825-1.3a.344.344,0,1,1,.578-.373c.28.434.56.875.831,1.311a.344.344,0,0,1-.292.525Zm-151.691-.06a.344.344,0,0,1-.291-.525c.273-.438.553-.88.835-1.315a.344.344,0,0,1,.577.374c-.279.431-.558.87-.828,1.3A.343.343,0,0,1,955.647,506.43Zm150.014-2.538a.344.344,0,0,1-.286-.152c-.285-.425-.578-.853-.869-1.272a.344.344,0,0,1,.564-.393c.293.422.588.853.875,1.282a.344.344,0,0,1-.284.535Zm-148.328-.067a.344.344,0,0,1-.285-.535c.289-.429.584-.861.88-1.285a.344.344,0,0,1,.564.393c-.293.42-.587.849-.873,1.275A.343.343,0,0,1,957.333,503.825Zm146.561-2.472a.343.343,0,0,1-.279-.142c-.3-.415-.607-.833-.913-1.242a.344.344,0,0,1,.55-.412c.309.412.618.833.92,1.251a.344.344,0,0,1-.278.545Zm-144.786-.073a.344.344,0,0,1-.278-.545c.3-.416.612-.838.923-1.253a.344.344,0,0,1,.55.413c-.309.412-.617.83-.916,1.243A.343.343,0,0,1,959.107,501.281Zm142.932-2.4a.343.343,0,0,1-.272-.133c-.313-.4-.635-.811-.955-1.21a.344.344,0,1,1,.536-.431c.323.4.647.812.963,1.219a.344.344,0,0,1-.271.554ZM960.968,498.8a.343.343,0,0,1-.271-.555c.317-.407.641-.818.966-1.22a.344.344,0,1,1,.535.431c-.322.4-.644.806-.958,1.211A.343.343,0,0,1,960.968,498.8Zm139.131-2.336a.344.344,0,0,1-.265-.124c-.328-.394-.663-.789-1-1.176a.344.344,0,1,1,.521-.449c.336.39.674.789,1,1.185a.344.344,0,0,1-.264.564Zm-137.186-.077a.344.344,0,0,1-.263-.564c.331-.4.67-.8,1.007-1.186a.344.344,0,0,1,.52.449c-.335.388-.671.783-1,1.177A.342.342,0,0,1,962.913,496.387Zm135.164-2.267a.344.344,0,0,1-.257-.115c-.341-.382-.689-.766-1.037-1.142a.344.344,0,1,1,.5-.467c.35.379.7.766,1.045,1.151a.343.343,0,0,1-.256.572Zm-133.137-.078a.344.344,0,0,1-.256-.573c.343-.384.7-.77,1.047-1.15a.344.344,0,1,1,.5.467c-.349.376-.7.76-1.039,1.141A.342.342,0,0,1,964.94,494.042Zm131.035-2.2a.343.343,0,0,1-.248-.106c-.356-.372-.719-.744-1.076-1.105a.343.343,0,1,1,.488-.484c.361.364.726.739,1.085,1.114a.344.344,0,0,1-.248.581Zm-128.929-.077a.344.344,0,0,1-.248-.581c.357-.372.722-.747,1.086-1.113a.344.344,0,0,1,.488.484c-.36.363-.723.735-1.078,1.1A.343.343,0,0,1,967.046,491.769Zm126.749-2.124a.341.341,0,0,1-.24-.1c-.368-.359-.743-.718-1.114-1.068a.343.343,0,1,1,.471-.5c.374.352.752.715,1.123,1.076a.344.344,0,0,1-.24.59Zm-124.566-.074a.344.344,0,0,1-.24-.59c.369-.359.747-.72,1.124-1.074a.344.344,0,1,1,.471.5c-.373.351-.749.71-1.114,1.066A.343.343,0,0,1,969.229,489.57Zm122.311-2.05a.342.342,0,0,1-.232-.09c-.378-.344-.765-.69-1.15-1.029a.344.344,0,0,1,.453-.516c.388.342.778.69,1.159,1.037a.344.344,0,0,1-.231.6Zm-120.055-.071a.344.344,0,0,1-.231-.6c.383-.348.773-.7,1.16-1.035a.344.344,0,1,1,.453.517c-.384.336-.771.682-1.151,1.027A.342.342,0,0,1,971.486,487.449Zm117.727-1.976a.344.344,0,0,1-.223-.082c-.39-.331-.789-.664-1.185-.989a.344.344,0,1,1,.435-.531c.4.328.8.663,1.195,1a.344.344,0,0,1-.223.606Zm-115.4-.066a.344.344,0,0,1-.222-.606c.391-.332.793-.666,1.194-.994a.344.344,0,0,1,.435.532c-.4.326-.8.658-1.185.986A.342.342,0,0,1,973.813,485.408Zm113-1.9a.343.343,0,0,1-.214-.074c-.4-.316-.81-.635-1.219-.948a.343.343,0,1,1,.416-.546c.413.315.826.637,1.229.955a.344.344,0,0,1-.213.613Zm-110.606-.06a.344.344,0,0,1-.213-.613c.4-.32.818-.64,1.227-.952a.344.344,0,1,1,.416.547c-.407.31-.816.628-1.218.945A.341.341,0,0,1,976.21,483.448Zm108.141-1.821a.343.343,0,0,1-.2-.067c-.414-.305-.836-.609-1.252-.905a.344.344,0,1,1,.4-.56c.419.3.844.6,1.261.912a.344.344,0,0,1-.2.621Zm-105.679-.054a.344.344,0,0,1-.2-.621c.416-.306.84-.612,1.259-.909a.344.344,0,0,1,.4.561c-.416.295-.836.6-1.25.9A.343.343,0,0,1,978.671,481.573Zm103.15-1.742a.342.342,0,0,1-.193-.06c-.424-.29-.856-.58-1.283-.862a.344.344,0,1,1,.378-.574c.43.284.865.576,1.292.868a.344.344,0,0,1-.195.627ZM981.2,479.784a.344.344,0,0,1-.194-.628c.426-.291.86-.582,1.289-.864a.344.344,0,1,1,.378.574c-.426.28-.857.569-1.28.858A.342.342,0,0,1,981.2,479.784Zm98.036-1.66a.345.345,0,0,1-.184-.053c-.431-.274-.873-.549-1.312-.817a.344.344,0,1,1,.358-.587c.443.27.887.547,1.323.823a.344.344,0,0,1-.184.634Zm-95.452-.039a.344.344,0,0,1-.184-.634c.435-.276.879-.551,1.318-.819a.344.344,0,0,1,.358.587c-.436.266-.876.539-1.308.813A.341.341,0,0,1,983.779,478.084Zm92.8-1.578a.341.341,0,0,1-.174-.047c-.442-.259-.893-.519-1.34-.771a.344.344,0,1,1,.337-.6c.451.254.9.515,1.35.777a.344.344,0,0,1-.174.64Zm-90.163-.031a.344.344,0,0,1-.174-.64c.443-.26.9-.52,1.345-.773a.344.344,0,1,1,.338.6c-.446.251-.9.509-1.335.767A.339.339,0,0,1,986.419,476.476Zm87.459-1.493a.343.343,0,0,1-.163-.041c-.45-.244-.91-.487-1.366-.724a.344.344,0,1,1,.316-.61c.46.238.923.484,1.377.729a.344.344,0,0,1-.164.646Zm-84.765-.023a.344.344,0,0,1-.163-.646c.453-.245.914-.489,1.37-.725a.344.344,0,1,1,.316.61c-.453.234-.91.476-1.36.719A.343.343,0,0,1,989.112,474.96Zm82.008-1.407a.343.343,0,0,1-.152-.036c-.458-.227-.926-.455-1.392-.676a.344.344,0,1,1,.3-.621c.469.223.94.452,1.4.681a.344.344,0,0,1-.153.652Zm-79.265-.014a.344.344,0,0,1-.154-.651c.461-.229.931-.456,1.395-.677a.344.344,0,0,1,.295.621c-.461.219-.926.445-1.384.672A.338.338,0,0,1,991.856,473.539Zm76.46-1.318a.34.34,0,0,1-.142-.031c-.465-.211-.942-.422-1.415-.627a.344.344,0,1,1,.273-.631c.477.206.957.419,1.426.632a.344.344,0,0,1-.142.657Zm-73.67-.006a.344.344,0,0,1-.142-.657c.467-.212.944-.423,1.417-.628a.344.344,0,0,1,.273.631c-.469.2-.942.413-1.406.623A.342.342,0,0,1,994.645,472.215Zm2.833-1.226a.344.344,0,0,1-.131-.661c.478-.2.963-.392,1.443-.58a.344.344,0,1,1,.251.64c-.476.187-.958.38-1.432.576A.343.343,0,0,1,997.478,470.989Zm67.985,0a.344.344,0,0,1-.131-.026c-.477-.2-.96-.391-1.436-.577a.344.344,0,1,1,.251-.64c.48.188.967.384,1.448.582a.344.344,0,0,1-.131.662Zm-65.1-1.128a.344.344,0,0,1-.12-.666c.485-.18.977-.358,1.462-.529a.344.344,0,1,1,.228.648c-.481.17-.97.346-1.451.525A.344.344,0,0,1,1000.363,469.859Zm62.206-.006a.34.34,0,0,1-.119-.022c-.48-.178-.97-.356-1.457-.527a.344.344,0,0,1,.228-.648c.491.172.984.351,1.468.531a.344.344,0,0,1-.12.666Zm-59.284-1.023a.344.344,0,0,1-.108-.67c.49-.163.988-.324,1.48-.478a.344.344,0,1,1,.206.656c-.488.153-.982.312-1.469.474A.349.349,0,0,1,1003.285,468.83Zm56.351-.009a.351.351,0,0,1-.109-.018c-.487-.162-.983-.322-1.475-.475a.344.344,0,1,1,.206-.656c.495.155.995.316,1.486.479a.344.344,0,0,1-.108.67Zm-53.394-.917a.344.344,0,0,1-.1-.673c.495-.146,1-.289,1.5-.426a.344.344,0,0,1,.182.663c-.493.136-.993.278-1.484.422A.343.343,0,0,1,1006.242,467.9Zm50.431-.01a.347.347,0,0,1-.1-.014c-.494-.145-.993-.287-1.484-.422a.344.344,0,0,1,.182-.663c.495.136,1,.279,1.5.425a.344.344,0,0,1-.1.674Zm-47.444-.812a.344.344,0,0,1-.085-.677c.5-.128,1.009-.254,1.51-.373a.344.344,0,0,1,.159.669c-.5.118-1,.243-1.5.37A.348.348,0,0,1,1009.229,467.081Zm44.456-.009a.347.347,0,0,1-.085-.011c-.5-.127-1-.252-1.5-.37a.344.344,0,1,1,.159-.669c.5.119,1.011.245,1.51.373a.344.344,0,0,1-.086.676Zm-41.442-.709a.344.344,0,0,1-.073-.679c.506-.111,1.018-.219,1.522-.32a.344.344,0,1,1,.136.674c-.5.1-1.008.207-1.51.318A.331.331,0,0,1,1012.243,466.364Zm38.427-.007a.339.339,0,0,1-.073-.008c-.5-.11-1.009-.217-1.51-.317a.344.344,0,1,1,.135-.674c.505.1,1.017.209,1.522.32a.344.344,0,0,1-.073.679Zm-35.39-.6a.344.344,0,0,1-.062-.682c.507-.093,1.023-.183,1.532-.267a.344.344,0,1,1,.112.678c-.506.084-1.017.173-1.52.265A.342.342,0,0,1,1015.28,465.752Zm32.353-.006a.338.338,0,0,1-.062-.005c-.5-.092-1.016-.181-1.521-.265a.344.344,0,0,1,.112-.678c.509.084,1.024.174,1.532.267a.344.344,0,0,1-.061.682Zm-29.3-.5a.344.344,0,0,1-.05-.684c.508-.075,1.027-.147,1.54-.214a.344.344,0,0,1,.089.682c-.51.066-1.024.138-1.529.212A.348.348,0,0,1,1018.337,465.247Zm26.239,0a.355.355,0,0,1-.05,0c-.505-.074-1.02-.146-1.529-.211a.344.344,0,1,1,.088-.682c.513.067,1.031.138,1.541.213a.344.344,0,0,1-.05.684Zm-23.167-.394a.344.344,0,0,1-.038-.685c.512-.057,1.032-.111,1.547-.16a.344.344,0,1,1,.065.684c-.51.049-1.027.1-1.535.159Zm20.094,0-.039,0c-.507-.057-1.023-.11-1.535-.158a.344.344,0,1,1,.065-.684c.515.049,1.036.1,1.547.159a.344.344,0,0,1-.038.685Zm-17.01-.289a.344.344,0,0,1-.026-.686c.515-.04,1.037-.076,1.551-.107a.344.344,0,1,1,.041.686c-.511.031-1.029.066-1.539.106Zm13.925,0h-.027c-.508-.039-1.026-.075-1.54-.105a.344.344,0,1,1,.041-.686c.518.031,1.04.067,1.552.106a.344.344,0,0,1-.026.686Zm-10.832-.183a.344.344,0,0,1-.014-.687c.513-.022,1.034-.04,1.549-.053a.344.344,0,1,1,.018.687c-.511.013-1.029.031-1.538.053Zm7.739,0h-.015c-.512-.022-1.031-.039-1.542-.052a.344.344,0,0,1,.017-.687c.515.013,1.038.031,1.554.053a.344.344,0,0,1-.015.687Zm-4.647-.078a.344.344,0,0,1,0-.687c.266,0,.532,0,.8,0s.505,0,.757,0a.344.344,0,0,1,.341.346.347.347,0,0,1-.347.341c-.26,0-.521,0-.78,0s-.509,0-.763,0Z" transform="translate(-941.868 -463.6)" fill="#2b478b"/>
          </g>
          <path id="Path_5054" data-name="Path 5054" d="M1256.59,509.84a4.016,4.016,0,1,1,4.016,4.016A4.016,4.016,0,0,1,1256.59,509.84Z" transform="translate(-1211.381 -499.759)" fill="#2b478b"/>
        </g>
        <g id="Group_6433" data-name="Group 6433" transform="translate(13.317 19.351)">
          <path id="Path_5055" data-name="Path 5055" d="M1134.628,732.648a76.056,76.056,0,1,1,29.7-6A75.811,75.811,0,0,1,1134.628,732.648Zm0-149.554a73.03,73.03,0,1,0,28.517,5.757A72.805,72.805,0,0,0,1134.628,583.094Z" transform="translate(-1058.339 -580.069)" fill="#172a49"/>
        </g>
        <rect id="Rectangle_2536" data-name="Rectangle 2536" width="19.02" height="6.392" transform="translate(79.637 16.155)" fill="#172a49"/>
        <rect id="Rectangle_2537" data-name="Rectangle 2537" width="3.059" height="7.252" transform="translate(87.617 10.113)" fill="#172a49"/>
        <g id="Group_6434" data-name="Group 6434" transform="translate(83.226)">
          <path id="Path_5056" data-name="Path 5056" d="M1527.176,448.736a5.921,5.921,0,1,1,5.92-5.921A5.928,5.928,0,0,1,1527.176,448.736Zm0-9.292a3.371,3.371,0,1,0,3.371,3.371A3.375,3.375,0,0,0,1527.176,439.444Z" transform="translate(-1521.255 -436.895)" fill="#172a49"/>
        </g>
        <g id="Group_6436" data-name="Group 6436" transform="translate(57.205 60.483)">
          <path id="Path_5057" data-name="Path 5057" d="M1407.439,891.621a33.91,33.91,0,0,1-.544,6.064,33.676,33.676,0,0,1-63.914,7.566,33.028,33.028,0,0,1-1.715-4.842,33.9,33.9,0,0,1-.4-15.952c0-.027.012-.052.016-.079a33.759,33.759,0,0,1,13.141-20.028q1.038-.753,2.136-1.427a33.486,33.486,0,0,1,17.609-4.969q1.285,0,2.545.1a33.443,33.443,0,0,1,16.674,5.926h0a33.793,33.793,0,0,1,9.235,9.643q.774,1.222,1.444,2.511a33.515,33.515,0,0,1,3.767,15.492Z" transform="translate(-1340.106 -857.954)" fill="#f99746"/>
          <g id="Group_6435" data-name="Group 6435" transform="translate(0.764 4.654)">
            <path id="Path_5058" data-name="Path 5058" d="M1366.89,906.175c-1.343,2.128.561,5.822-3.469,4.815s-6.494-1.456-6.717.782,3.022,2.24,3.022,4.591-1.456,3.128-3.694,2.012-2.883-2.741-5.487-1.733-4.115.336-4.7-1.679a2.95,2.95,0,0,0-.418-.882c0-.027.011-.052.016-.079a33.762,33.762,0,0,1,13.141-20.028q1.037-.754,2.136-1.428a4.429,4.429,0,0,1,3.374,1.76c2.351,2.912,3.918,1.456,3.359,4.814s.336,3.807,2.239,3.695,4.143-.113,4.366,1.344S1368.234,904.047,1366.89,906.175Z" transform="translate(-1345.425 -892.232)" fill="#ed7f35"/>
            <path id="Path_5059" data-name="Path 5059" d="M1543.041,1082.871s-2.342.751-2.96-.884.088-1.988-1.988-2.474-2.253-1.9-3.579-1.723-.663.707-2.21,1.856-2.961.619-2.916,2.74,2.342,2.452,2.806,3.845-.331,1.988.663,3.048,2.85.6,1.988,2.055-2.188,2.585-1.525,4.838.2,2.387,1.326,3.977,3.314,2.121,3.645,1.06-1.525-2.452-.928-3.512,1.591-.332,1.989-1.922,2.01-1.591,2.142-2.7-1.944-2.784-1.148-3.491,2.386,1.281,3.623-.486.4-3.181,1.679-4.86S1543.924,1081.9,1543.041,1082.871Z" transform="translate(-1502.961 -1050.852)" fill="#ed7f35"/>
            <path id="Path_5060" data-name="Path 5060" d="M1653.984,1007.728a33.921,33.921,0,0,1-.544,6.064,33.48,33.48,0,0,1-5.313,12.916,3.842,3.842,0,0,1-2.692-.072c-4.2-1.679-1.091-6.214.588-8.481s-2.6-1.26-5.709-3.359.336-7.725-2.855-6.8-7.053,2.1-8.9-1.008,1.679-3.611.084-6.214.924-4.114,4.115-4.366,2.771-2.519,6.717-2.855,3.863,4.7,8.229,4.366,4.17.672,4.17.672a2.028,2.028,0,0,1,.911.191A33.694,33.694,0,0,1,1653.984,1007.728Z" transform="translate(-1587.414 -978.715)" fill="#ed7f35"/>
            <path id="Path_5061" data-name="Path 5061" d="M1660.965,912.026c-3.631,1.767-5.089-3.038-8.192-1.594-3.129,1.456-2.582-1.343-5.043-3.135s-7.389,1.456-7.166-1.343,3.918-2.015,4.7-4.254,4.366-1.68,4.366-1.68a2.419,2.419,0,0,1,.652-.148s0,0,0,0a33.784,33.784,0,0,1,9.234,9.643Q1660.294,910.737,1660.965,912.026Z" transform="translate(-1598.162 -898.504)" fill="#ed7f35"/>
            <path id="Path_5062" data-name="Path 5062" d="M1516.818,894.221s1.9-2.746-1.119-3.556-2.967.25-5.318,0-3.275,1.569-1.512,3.556,3.191,5.8,4.786,3.768S1514.943,894.417,1516.818,894.221Z" transform="translate(-1484.605 -890.354)" fill="#ed7f35"/>
          </g>
        </g>
        <g id="Group_6440" data-name="Group 6440" transform="translate(81.904 52.647)">
          <g id="Group_6437" data-name="Group 6437" transform="translate(5.802)">
            <path id="Path_5063" data-name="Path 5063" d="M1554.492,831.223l-.494.007a1.466,1.466,0,0,1-1.558-1.394l.23-41.037a.891.891,0,0,1,.917-.841h0a.9.9,0,0,1,.946.817l1.383,41.1A1.379,1.379,0,0,1,1554.492,831.223Z" transform="translate(-1552.44 -787.957)" fill="#172a49"/>
          </g>
          <path id="Path_5066" data-name="Path 5066" d="M1512.05,1047.564a7.529,7.529,0,1,1,7.652,7.4A7.529,7.529,0,0,1,1512.05,1047.564Z" transform="translate(-1512.049 -1005.936)" fill="#2b478b"/>
        </g>
        <text id="_1" data-name="1" transform="translate(85.654 41.716)" fill="#fff" font-size="16" font-family="BasisGrotesquePro-Regular, Basis Grotesque Pro" letter-spacing="0.008em"><tspan x="0" y="0">1</tspan></text>
        <text id="_2" data-name="2" transform="translate(143.592 100.988)" fill="#fff" font-size="16" font-family="BasisGrotesquePro-Regular, Basis Grotesque Pro" letter-spacing="0.008em"><tspan x="0" y="0">2</tspan></text>
        <text id="_3" data-name="3" transform="translate(84.749 156.896)" fill="#fff" font-size="16" font-family="BasisGrotesquePro-Regular, Basis Grotesque Pro" letter-spacing="0.008em"><tspan x="0" y="0">3</tspan></text>
      </g>
      <path id="Path_5067" data-name="Path 5067" d="M2239.859,1135.229a6.047,6.047,0,0,1,5.853-2.934s5.991-5.5,12.381-.733c0,0,6.792-1.181,11.822,1.023,3.353,1.469,4.461,3.011,4.461,3.011Z" transform="translate(-1991.76 -1014.099)" fill="#fff"/>
      <path id="Path_5068" data-name="Path 5068" d="M1612.185,240.63s1.473-3.415,5-3.036c0,0,5.115-5.692,10.568-.759,0,0,5.8-1.222,10.091,1.058a9.908,9.908,0,0,1,3.808,3.116Z" transform="translate(-1438.822 -225.846)" fill="#fff"/>
      <path id="Path_5069" data-name="Path 5069" d="M471.109,1362.952a11.735,11.735,0,0,1,11.15-5.066s11.414-9.5,23.586-1.267c0,0,12.938-2.04,22.52,1.766,6.388,2.538,8.5,5.2,8.5,5.2Z" transform="translate(-433.612 -1211.114)" fill="#fff" opacity="0.7"/>
      <path id="Path_5070" data-name="Path 5070" d="M722.888,1138.436a6.494,6.494,0,0,1,6.254-3.036s6.4-5.692,13.23-.759c0,0,7.257-1.222,12.632,1.058,3.583,1.52,4.767,3.115,4.767,3.115Z" transform="translate(-655.412 -1016.752)" fill="#fff" opacity="0.5"/>
      <path id="Path_5071" data-name="Path 5071" d="M298.015,1253.116a6.494,6.494,0,0,1,6.254-3.036s6.4-5.692,13.23-.759c0,0,7.257-1.222,12.632,1.058,3.583,1.521,4.767,3.116,4.767,3.116Z" transform="translate(-281.128 -1117.777)" fill="#fff" opacity="0.5"/>
      <path id="Path_5072" data-name="Path 5072" d="M674.2,984.117a4.206,4.206,0,0,1,4.11-2.291s4.207-4.3,8.694-.573c0,0,4.769-.922,8.3.8a7.965,7.965,0,0,1,3.133,2.352Z" transform="translate(-612.526 -882.062)" fill="#fff" opacity="0.5"/>
      <g id="Group_6452" data-name="Group 6452" transform="translate(267.065 161.011)">
        <g id="Group_6443" data-name="Group 6443" transform="translate(10.032 16.227)">
          <path id="Path_5074" data-name="Path 5074" d="M2484.856,1652.46c1.193.484,5.456.093,5.594-.248s-2.65-3.589-3.844-4.073a2.331,2.331,0,1,0-1.751,4.321Z" transform="translate(-2483.4 -1647.968)" fill="#a8d29f"/>
          <path id="Path_5075" data-name="Path 5075" d="M2580.162,1694.512c-.67,1.1-.973,5.37-.659,5.561s3.97-2.036,4.64-3.135a2.331,2.331,0,1,0-3.981-2.426Z" transform="translate(-2567.951 -1687.984)" fill="#a8d29f"/>
          <path id="Path_5076" data-name="Path 5076" d="M2525.689,1739.292c1.227.392,5.448-.323,5.56-.673s-2.916-3.377-4.142-3.769a2.331,2.331,0,1,0-1.417,4.442Z" transform="translate(-2519.224 -1724.408)" fill="#a8d29f"/>
          <g id="Group_6442" data-name="Group 6442" transform="translate(6.906 4.145)">
            <path id="Path_5077" data-name="Path 5077" d="M2547.171,1697.656c0-.1-.476-9.762-5.768-14.752l.113-.12c5.341,5.036,5.815,14.767,5.819,14.865Z" transform="translate(-2541.404 -1682.784)" fill="#a8d29f"/>
          </g>
        </g>
        <g id="Group_6445" data-name="Group 6445" transform="translate(30.552 17.967)">
          <path id="Path_5078" data-name="Path 5078" d="M2709.777,1665.538a2.134,2.134,0,1,1-1.786-2.691,1.615,1.615,0,1,1,1.786,2.691Z" transform="translate(-2699.958 -1662.577)" fill="#a8d29f"/>
          <path id="Path_5079" data-name="Path 5079" d="M2658.535,1707.731a2.134,2.134,0,1,1-2.367,2.2,1.615,1.615,0,1,1,2.367-2.2Z" transform="translate(-2655.736 -1701.9)" fill="#a8d29f"/>
          <path id="Path_5080" data-name="Path 5080" d="M2693.055,1730.143a2.134,2.134,0,1,1-1.577-2.819,1.615,1.615,0,1,1,1.577,2.819Z" transform="translate(-2685.199 -1719.432)" fill="#a8d29f"/>
          <g id="Group_6444" data-name="Group 6444" transform="translate(3.918 3.496)">
            <path id="Path_5081" data-name="Path 5081" d="M2688.942,1702.814c-.01-.066-1.028-6.693,1.875-10.814l-.093-.065c-2.929,4.159-1.9,10.831-1.894,10.9Z" transform="translate(-2688.647 -1691.935)" fill="#a8d29f"/>
          </g>
        </g>
        <g id="Group_6448" data-name="Group 6448" transform="translate(17.561)">
          <g id="Group_6446" data-name="Group 6446" transform="translate(4.989 4.858)">
            <path id="Path_5082" data-name="Path 5082" d="M2595.5,1582.3l-.337-.054a102.719,102.719,0,0,0-6.639-29.638l.307-.132A103.032,103.032,0,0,1,2595.5,1582.3Z" transform="translate(-2588.528 -1552.48)" fill="#a8d29f"/>
          </g>
          <g id="Group_6447" data-name="Group 6447">
            <path id="Path_5083" data-name="Path 5083" d="M2555.4,1517.355a2.335,2.335,0,1,0,2.651-2.34,1.768,1.768,0,1,0-2.651,2.34Z" transform="translate(-2553.966 -1514.092)" fill="#8c9df4"/>
            <path id="Path_5084" data-name="Path 5084" d="M2590.644,1512.4a2.335,2.335,0,1,0,2.836,2.113,1.768,1.768,0,0,0-2.836-2.113Z" transform="translate(-2584.574 -1511.683)" fill="#8c9df4"/>
            <path id="Path_5085" data-name="Path 5085" d="M2595.831,1545.84a2.335,2.335,0,1,0-.93,3.411,1.768,1.768,0,0,0,.93-3.411Z" transform="translate(-2586.279 -1541.723)" fill="#8c9df4"/>
            <path id="Path_5086" data-name="Path 5086" d="M2582.752,1554.746a2.335,2.335,0,1,0-3.52.34,1.768,1.768,0,0,0,3.52-.34Z" transform="translate(-2575.346 -1546.382)" fill="#8c9df4"/>
            <path id="Path_5087" data-name="Path 5087" d="M2549.221,1554.152a2.335,2.335,0,1,0-1.643-3.13,1.768,1.768,0,1,0,1.643,3.13Z" transform="translate(-2546.631 -1545.998)" fill="#8c9df4"/>
            <path id="Path_5088" data-name="Path 5088" d="M2585.311,1547.551a.582.582,0,1,1,.483.666A.582.582,0,0,1,2585.311,1547.551Z" transform="translate(-2580.699 -1542.847)" fill="#f99746"/>
          </g>
          <path id="Path_5089" data-name="Path 5089" d="M2633.54,1648.094c-.961,1.181-2,6.138-1.66,6.412s4.977-1.751,5.938-2.933a2.757,2.757,0,1,0-4.278-3.479Z" transform="translate(-2621.672 -1630.955)" fill="#a8d29f"/>
        </g>
        <g id="Group_6451" data-name="Group 6451" transform="translate(0 13.806)">
          <g id="Group_6449" data-name="Group 6449" transform="translate(3.18 3.426)">
            <path id="Path_5090" data-name="Path 5090" d="M2433.088,1675.61l-.228-.005a68.756,68.756,0,0,0-7.007-19.083l.192-.115A68.985,68.985,0,0,1,2433.088,1675.61Z" transform="translate(-2425.854 -1656.406)" fill="#a8d29f"/>
          </g>
          <g id="Group_6450" data-name="Group 6450">
            <path id="Path_5091" data-name="Path 5091" d="M2401.764,1635.009a1.563,1.563,0,1,0,1.554-1.785,1.183,1.183,0,1,0-1.554,1.785Z" transform="translate(-2401.094 -1632.302)" fill="#f99746"/>
            <path id="Path_5092" data-name="Path 5092" d="M2426.43,1628.239a1.563,1.563,0,1,0,2.067,1.153,1.183,1.183,0,0,0-2.067-1.153Z" transform="translate(-2422.908 -1627.632)" fill="#f99746"/>
            <path id="Path_5093" data-name="Path 5093" d="M2430.51,1649.089a1.563,1.563,0,1,0-.318,2.345,1.183,1.183,0,1,0,.318-2.345Z" transform="translate(-2424.38 -1646.528)" fill="#f99746"/>
            <path id="Path_5094" data-name="Path 5094" d="M2424.565,1657.733a1.563,1.563,0,1,0-2.306.535,1.183,1.183,0,0,0,2.306-.535Z" transform="translate(-2419.485 -1652.166)" fill="#f99746"/>
            <path id="Path_5095" data-name="Path 5095" d="M2401.013,1658.293a1.563,1.563,0,1,0-1.365-1.933,1.183,1.183,0,0,0,1.365,1.933Z" transform="translate(-2399.147 -1652.441)" fill="#f99746"/>
            <path id="Path_5096" data-name="Path 5096" d="M2423.542,1653.241a.39.39,0,1,1,.379.4A.39.39,0,0,1,2423.542,1653.241Z" transform="translate(-2420.637 -1649.857)" fill="#2a4a7c"/>
          </g>
          <path id="Path_5097" data-name="Path 5097" d="M2468.452,1713.5c-.533.868-.787,4.248-.539,4.4s3.149-1.6,3.684-2.467a1.846,1.846,0,0,0-3.145-1.933Z" transform="translate(-2459.64 -1702.5)" fill="#a8d29f"/>
        </g>
        <path id="Path_5098" data-name="Path 5098" d="M2426.814,1788.716a6.321,6.321,0,0,1,5.853-3.638c4.589-.215,7.749,2.578,11.54,1.29s10.067-4.2,16-2.261,6.937,4.61,6.937,4.61Z" transform="translate(-2423.52 -1751.099)" fill="#a8d29f"/>
      </g>
      <g id="Group_6459" data-name="Group 6459" transform="translate(199.144 164.824)">
        <g id="Group_6455" data-name="Group 6455" transform="translate(0 4.21)">
          <g id="Group_6453" data-name="Group 6453" transform="translate(4.089 3.981)">
            <path id="Path_5099" data-name="Path 5099" d="M1868.77,1636.946l-.276-.044a84.17,84.17,0,0,0-5.442-24.291l.251-.108A84.438,84.438,0,0,1,1868.77,1636.946Z" transform="translate(-1863.053 -1612.503)" fill="#a8d29f"/>
          </g>
          <g id="Group_6454" data-name="Group 6454">
            <path id="Path_5100" data-name="Path 5100" d="M1835.9,1583.714a1.914,1.914,0,1,0,2.173-1.917,1.449,1.449,0,0,0-2.173,1.917Z" transform="translate(-1834.726 -1581.039)" fill="#8c9df4"/>
            <path id="Path_5101" data-name="Path 5101" d="M1864.786,1579.648a1.914,1.914,0,1,0,2.323,1.732,1.449,1.449,0,0,0-2.323-1.732Z" transform="translate(-1859.811 -1579.065)" fill="#8c9df4"/>
            <path id="Path_5102" data-name="Path 5102" d="M1869.037,1607.06a1.914,1.914,0,1,0-.762,2.8,1.449,1.449,0,0,0,.762-2.8Z" transform="translate(-1861.209 -1603.686)" fill="#8c9df4"/>
            <path id="Path_5103" data-name="Path 5103" d="M1858.319,1614.36a1.914,1.914,0,1,0-2.884.279,1.449,1.449,0,1,0,2.884-.279Z" transform="translate(-1852.25 -1607.505)" fill="#8c9df4"/>
            <path id="Path_5104" data-name="Path 5104" d="M1830.836,1613.873a1.914,1.914,0,1,0-1.347-2.566,1.449,1.449,0,0,0,1.347,2.566Z" transform="translate(-1828.714 -1607.189)" fill="#8c9df4"/>
          </g>
          <path id="Path_5105" data-name="Path 5105" d="M1860.416,1608.462a.477.477,0,1,1,.4.546A.477.477,0,0,1,1860.416,1608.462Z" transform="translate(-1856.635 -1604.607)" fill="#233862"/>
          <path id="Path_5106" data-name="Path 5106" d="M1889.695,1640c-.787.968-1.637,5.03-1.361,5.255s4.079-1.435,4.867-2.4a2.26,2.26,0,0,0-3.507-2.851Z" transform="translate(-1881.188 -1632.007)" fill="#a8d29f"/>
          <path id="Path_5107" data-name="Path 5107" d="M1866.366,1742.911a2.176,2.176,0,1,1-1.443,2.961,1.647,1.647,0,1,1,1.443-2.961Z" transform="translate(-1859.795 -1723.255)" fill="#a8d29f"/>
        </g>
        <g id="Group_6458" data-name="Group 6458" transform="translate(13.169 0)">
          <g id="Group_6456" data-name="Group 6456" transform="translate(4.517 4.571)">
            <path id="Path_5108" data-name="Path 5108" d="M1977.249,1610.159l.317-.05a96.615,96.615,0,0,1,6.247-27.889l-.289-.125A96.969,96.969,0,0,0,1977.249,1610.159Z" transform="translate(-1977.249 -1582.095)" fill="#a8d29f"/>
          </g>
          <g id="Group_6457" data-name="Group 6457" transform="translate(5.561)">
            <path id="Path_5109" data-name="Path 5109" d="M2033.217,1549.043a2.2,2.2,0,1,1-2.495-2.2,1.664,1.664,0,0,1,2.495,2.2Z" transform="translate(-2024.352 -1545.972)" fill="#8c9df4"/>
            <path id="Path_5110" data-name="Path 5110" d="M2001.652,1544.375a2.2,2.2,0,1,1-2.667,1.988,1.663,1.663,0,0,1,2.667-1.988Z" transform="translate(-1997.151 -1543.706)" fill="#8c9df4"/>
            <path id="Path_5111" data-name="Path 5111" d="M1987.25,1575.846a2.2,2.2,0,1,1,.875,3.21,1.663,1.663,0,0,1-.875-3.21Z" transform="translate(-1986.023 -1571.972)" fill="#8c9df4"/>
            <path id="Path_5112" data-name="Path 5112" d="M2013.218,1584.226a2.2,2.2,0,1,1,3.311.32,1.663,1.663,0,1,1-3.311-.32Z" transform="translate(-2009.973 -1576.356)" fill="#8c9df4"/>
            <path id="Path_5113" data-name="Path 5113" d="M2033.21,1583.669a2.2,2.2,0,1,1,1.546-2.946,1.664,1.664,0,0,1-1.546,2.946Z" transform="translate(-2025.433 -1575.996)" fill="#8c9df4"/>
            <path id="Path_5114" data-name="Path 5114" d="M2027.3,1577.457a.548.548,0,1,0-.455.627A.548.548,0,0,0,2027.3,1577.457Z" transform="translate(-2021.425 -1573.031)" fill="#2a4a7c"/>
          </g>
          <path id="Path_5115" data-name="Path 5115" d="M1943.924,1672.068c.9,1.112,1.879,5.775,1.562,6.033s-4.684-1.648-5.588-2.76a2.594,2.594,0,0,1,4.026-3.274Z" transform="translate(-1939.316 -1655.94)" fill="#a8d29f"/>
          <path id="Path_5116" data-name="Path 5116" d="M1987.07,1731.819c-.939.458-3.014,3.242-2.883,3.51s3.6.347,4.541-.11a1.891,1.891,0,0,0-1.657-3.4Z" transform="translate(-1978.839 -1709.252)" fill="#a8d29f"/>
        </g>
        <path id="Path_5117" data-name="Path 5117" d="M1855.431,1801.914s3.856-5.094,9.339-3.23,12.792.168,12.772,2.722Z" transform="translate(-1852.25 -1767.963)" fill="#a8d29f"/>
      </g>
      <g id="Group_6461" data-name="Group 6461" transform="translate(66.191 51.927)">
        <path id="Path_5135" data-name="Path 5135" d="M917.042,595.808a.606.606,0,1,1-.838-.182A.606.606,0,0,1,917.042,595.808Z" transform="translate(-891.657 -595.53)" fill="#dde7fe"/>
        <path id="Path_5136" data-name="Path 5136" d="M907.732,850.258a.888.888,0,1,1-1.228-.266A.888.888,0,0,1,907.732,850.258Z" transform="translate(-882.997 -819.569)" fill="#dde7fe"/>
        <path id="Path_5137" data-name="Path 5137" d="M714.369,880.005a1.235,1.235,0,1,1-1.707-.37A1.235,1.235,0,0,1,714.369,880.005Z" transform="translate(-712.095 -845.634)" fill="#fff"/>
        <path id="Path_5138" data-name="Path 5138" d="M803.774,710.491a.9.9,0,1,1-1.248-.27A.9.9,0,0,1,803.774,710.491Z" transform="translate(-791.394 -696.438)" fill="#dde7fe"/>
      </g>
      <path id="Path_5139" data-name="Path 5139" d="M582.573,910.416a.419.419,0,1,1-.58-.126A.419.419,0,0,1,582.573,910.416Z" transform="translate(-531.125 -820.827)" fill="#dde7fe"/>
      <path id="Path_5140" data-name="Path 5140" d="M413.741,1372.764a.855.855,0,1,1-.506-1.1A.855.855,0,0,1,413.741,1372.764Z" transform="translate(-381.615 -1227.279)" fill="#dde7fe"/>
      <g id="Group_6462" data-name="Group 6462" transform="translate(35.328 100.024)">
        <path id="Path_5141" data-name="Path 5141" d="M453.941,1080.083a.551.551,0,1,1-.246-.74A.551.551,0,0,1,453.941,1080.083Z" transform="translate(-452.896 -1069.782)" fill="#dde7fe"/>
        <path id="Path_5142" data-name="Path 5142" d="M511.3,1196.444a.808.808,0,1,1-.36-1.085A.809.809,0,0,1,511.3,1196.444Z" transform="translate(-502.993 -1171.96)" fill="#fff"/>
        <path id="Path_5143" data-name="Path 5143" d="M573.963,1000.668a.822.822,0,1,1-.366-1.1A.822.822,0,0,1,573.963,1000.668Z" transform="translate(-558.177 -999.478)" fill="#dde7fe"/>
      </g>
      <path id="Path_5144" data-name="Path 5144" d="M866.849,1309.086a.419.419,0,1,1-.248-.539A.419.419,0,0,1,866.849,1309.086Z" transform="translate(-781.516 -1171.701)" fill="#dde7fe"/>
      <path id="Path_5145" data-name="Path 5145" d="M353.47,1696.027c-48.023-.058-85.809-.159-85.866-.338l-.026-.061a.326.326,0,0,1-.026-.088,94.989,94.989,0,0,1-7.381-16.434c6.979-1.222,23.922-2.821,41.389,5.793C324.142,1696.039,343.136,1678.841,353.47,1696.027Z" transform="translate(-247.791 -1497.302)" fill="#2b478b"/>
      <path id="Path_5146" data-name="Path 5146" d="M404.453,1555.9s5.356-20.1,13.593-20.98S407.633,1549.115,404.453,1555.9Z" transform="translate(-374.893 -1371.108)" fill="#2b478b"/>
      <path id="Path_5147" data-name="Path 5147" d="M423.824,1623.765s8.44-12.558,13.982-11.246S427.56,1619.845,423.824,1623.765Z" transform="translate(-391.957 -1439.417)" fill="#2b478b"/>
      <path id="Path_5148" data-name="Path 5148" d="M954.2,1730.012s6.108-9.546,10.515-8.643S956.974,1727.016,954.2,1730.012Z" transform="translate(-859.185 -1535.338)" fill="#2b478b"/>
      <path id="Path_5149" data-name="Path 5149" d="M967.121,1765.374s7.356-5.656,10.5-3.735S970.088,1763.837,967.121,1765.374Z" transform="translate(-870.565 -1570.515)" fill="#2b478b"/>
      <path id="Path_5150" data-name="Path 5150" d="M937.536,1723.6s2.051-9.05,5.7-9.579S938.838,1720.521,937.536,1723.6Z" transform="translate(-844.502 -1528.892)" fill="#2b478b"/>
      <circle id="Ellipse_773" data-name="Ellipse 773" cx="6.429" cy="6.429" r="6.429" transform="translate(249.287 52.324) rotate(-80.783)" fill="#fff"/>
      <path id="Path_5151" data-name="Path 5151" d="M1397.964,1758.231h-8.382c-.449-.38.311-1.246,1.105-1.3a4.883,4.883,0,0,1,1.279.151c.115-1.532.774-8.419,3.257-8.142,2.791.31,0,3.033-.789,4.645a38.319,38.319,0,0,0-1.483,3.715c.226.049.461.1.7.141.37-1.136,1.747-4.957,3.5-4.734,2.055.26,1.229,1.793-.228,2.7-1.069.668-2.381,1.619-3.005,2.078a8.907,8.907,0,0,0,1.639.131A3.537,3.537,0,0,1,1397.964,1758.231Z" transform="translate(-1242.606 -1559.669)" fill="#2b478b"/>
      <path id="Rectangle_2538" data-name="Rectangle 2538" d="M.459,0H318.065a.459.459,0,0,1,.459.459v0a.459.459,0,0,1-.459.459H.459A.459.459,0,0,1,0,.459v0A.459.459,0,0,1,.459,0Z" transform="translate(0 198.339)" fill="#233862"/>
      <g id="Group_6463" data-name="Group 6463" transform="translate(206.003 5.552)">
        <path id="Path_5152" data-name="Path 5152" d="M1973.32,438.888a17.862,17.862,0,0,0-10.437-.986s6.73-.46,10.72,3.811c0,0,2.79-4.279,7.4-5.26C1981.006,436.452,1977.569,436.043,1973.32,438.888Z" transform="translate(-1937.812 -422.49)" fill="#739af0"/>
        <path id="Path_5153" data-name="Path 5153" d="M1883.073,425.933a13.812,13.812,0,0,0-8.067-.81s5.207-.325,8.273,3a10.257,10.257,0,0,1,5.75-4.035A9.6,9.6,0,0,0,1883.073,425.933Z" transform="translate(-1860.398 -411.598)" fill="#739af0"/>
        <path id="Path_5154" data-name="Path 5154" d="M1793.1,412.455a12.575,12.575,0,0,0-7.369-.426s4.724-.5,7.641,2.407a9.336,9.336,0,0,1,5.075-3.892A8.737,8.737,0,0,0,1793.1,412.455Z" transform="translate(-1781.753 -399.681)" fill="#739af0"/>
        <path id="Path_5155" data-name="Path 5155" d="M1757.323,387.088a8.517,8.517,0,0,0-5,.178s3.154-.633,5.3,1.141a6.323,6.323,0,0,1,3.176-2.944A5.918,5.918,0,0,0,1757.323,387.088Z" transform="translate(-1752.327 -377.589)" fill="#739af0"/>
        <path id="Path_5156" data-name="Path 5156" d="M1948.237,320.786a8.517,8.517,0,0,0-5-.083s3.183-.467,5.238,1.416a6.324,6.324,0,0,1,3.325-2.775A5.917,5.917,0,0,0,1948.237,320.786Z" transform="translate(-1920.507 -319.343)" fill="#739af0"/>
        <path id="Path_5157" data-name="Path 5157" d="M2024.646,384.709a12.409,12.409,0,0,0-7.237-.824s4.681-.23,7.4,2.79a9.214,9.214,0,0,1,5.212-3.556A8.621,8.621,0,0,0,2024.646,384.709Z" transform="translate(-1985.847 -375.507)" fill="#739af0"/>
        <path id="Path_5158" data-name="Path 5158" d="M1991.818,343.134a11.474,11.474,0,0,0-6.715-.509s4.317-.375,6.93,2.32a8.518,8.518,0,0,1,4.692-3.467A7.97,7.97,0,0,0,1991.818,343.134Z" transform="translate(-1957.387 -338.836)" fill="#739af0"/>
      </g>
      <g id="Group_6466" data-name="Group 6466" transform="translate(182.93 62.302)">
        <g id="Group_6464" data-name="Group 6464">
          <path id="Path_5159" data-name="Path 5159" d="M1770.215,750.363a.584.584,0,0,1-.419-.289,34.272,34.272,0,0,0-16.985-14.993.585.585,0,0,1,.441-1.085,35.435,35.435,0,0,1,17.562,15.5.585.585,0,0,1-.6.868Z" transform="translate(-1752.446 -733.953)" fill="#2b478b"/>
        </g>
        <g id="Group_6465" data-name="Group 6465" transform="translate(14.478 12.887)">
          <path id="Path_5160" data-name="Path 5160" d="M1879.455,849.474l-.443-7.286-1.792,2.642-3.182-.247Z" transform="translate(-1874.037 -842.188)" fill="#2b478b"/>
        </g>
      </g>
      <g id="Group_6469" data-name="Group 6469" transform="translate(116.918 137.223)">
        <g id="Group_6467" data-name="Group 6467" transform="translate(1.451 3.756)">
          <path id="Path_5161" data-name="Path 5161" d="M1226.577,1288.045a.585.585,0,0,1,.419.289,34.271,34.271,0,0,0,16.985,14.993.586.586,0,1,1-.441,1.085,35.435,35.435,0,0,1-17.562-15.5.586.586,0,0,1,.6-.867Z" transform="translate(-1225.901 -1288.038)" fill="#8c9df4"/>
        </g>
        <g id="Group_6468" data-name="Group 6468" transform="translate(0)">
          <path id="Path_5162" data-name="Path 5162" d="M1213.717,1256.493l.443,7.286,1.792-2.642,3.183.247Z" transform="translate(-1213.717 -1256.493)" fill="#8c9df4"/>
        </g>
      </g>
      <g id="Group_6460" data-name="Group 6460" transform="translate(17.288 76.5)">
        <path id="Path_5118" data-name="Path 5118" d="M3.181.326S3.148.386,3.1.491A2.978,2.978,0,0,0,2.962.93a2.751,2.751,0,0,0-.079.629A2.27,2.27,0,0,0,3,2.295a14.088,14.088,0,0,1,.463,1.633,3.863,3.863,0,0,1,.083,1.214,2.13,2.13,0,0,1-.353.957,3.808,3.808,0,0,1-.843.86s-.127.067-.314.149a4.52,4.52,0,0,1-.671.24,1.063,1.063,0,0,1-.621.02C.588,7.3.511,7.151.578,6.857A2.957,2.957,0,0,0,.64,6.409a4.576,4.576,0,0,0,0-.535A4.725,4.725,0,0,0,.58,5.3a3.642,3.642,0,0,0-.138-.549,10.3,10.3,0,0,1-.35-1.222,3.825,3.825,0,0,1-.088-1,2.765,2.765,0,0,1,.207-.9A4.563,4.563,0,0,1,.747.7L1.16.04Z" transform="translate(5.04 51.891)" fill="#ffb27d"/>
        <path id="Path_5119" data-name="Path 5119" d="M0,.03s.028,0,.072.016A1.1,1.1,0,0,1,.242.107.82.82,0,0,1,.437.229a.539.539,0,0,1,.149.2,4.651,4.651,0,0,0,.409.752c.154.235.317.452.462.641s.271.351.352.476.116.213.079.256a.29.29,0,0,1-.3.089.982.982,0,0,1-.38-.2,2.86,2.86,0,0,1-.4-.389,4.222,4.222,0,0,1-.359-.482A2.537,2.537,0,0,1,.2,1.056a3.612,3.612,0,0,1-.135-.5C.037.4.02.272.011.179S0,.03,0,.03Z" transform="translate(7.549 54.05)" fill="#ffb27d"/>
        <path id="Path_5120" data-name="Path 5120" d="M26.113,5.217A4.786,4.786,0,0,0,25.589,2.6,4.669,4.669,0,0,0,23.9.8a4.5,4.5,0,0,0-4.871.076l-.05.032-.05.033-.049.033-.049.033a27.679,27.679,0,0,0-4.458,4.317c-1.674,1.912-3.458,4.163-5.11,6.357s-3.172,4.325-4.325,6S3,20.587,2.825,20.963a18.616,18.616,0,0,0-.743,2.727c-.3,1.326-.629,2.952-.938,4.531s-.595,3.111-.8,4.248S0,34.348,0,34.348s.163.059.426.13a7.853,7.853,0,0,0,1.03.209,4.8,4.8,0,0,0,1.259.015,2.151,2.151,0,0,0,1.114-.453s.265-.707.672-1.776.957-2.5,1.526-3.954S7.186,25.6,7.672,24.454A11.42,11.42,0,0,1,8.7,22.35c.157-.144,1.3-.86,2.924-1.91S15.366,18,17.469,16.523a62.972,62.972,0,0,0,5.774-4.487c1.577-1.43,2.636-2.71,2.671-3.6.009-.235.021-.481.034-.737s.029-.521.046-.793.036-.551.056-.833S26.091,5.505,26.113,5.217Z" transform="translate(4.74 18.784)" fill="#ef7e29"/>
        <path id="Path_5121" data-name="Path 5121" d="M1.607.862s-.121.114-.3.3a7.883,7.883,0,0,0-.624.766A4.416,4.416,0,0,0,.133,2.94,1.662,1.662,0,0,0,.049,3.97a2.806,2.806,0,0,0,.495.907c.221.287.482.566.738.854a6.9,6.9,0,0,1,.712.908A2.77,2.77,0,0,1,2.41,7.707a4.043,4.043,0,0,0,.3,1.049,2.92,2.92,0,0,0,.488.767,2.061,2.061,0,0,0,.6.471,1.45,1.45,0,0,0,.644.162l4.065.014a1.123,1.123,0,0,0,.125-.6A.772.772,0,0,0,8.4,9.088a1.574,1.574,0,0,0-.779-.37A2.043,2.043,0,0,1,6.654,8.2a2.839,2.839,0,0,1-.636-.929,4.673,4.673,0,0,1-.334-1.188,6.37,6.37,0,0,1-.058-1.293c.024-.431.027-.9.018-1.356s-.03-.907-.053-1.3-.05-.737-.071-.979S5.484.769,5.484.769L2.268,0Z" transform="translate(0 110.733)" fill="#2a4a7c"/>
        <path id="Path_5122" data-name="Path 5122" d="M.071,1.613s-.022.26-.042.658S-.007,3.2,0,3.75A9.485,9.485,0,0,0,.138,5.312c.088.452.228.794.443.9l11.07.014a1.078,1.078,0,0,0-.028-.209,1.566,1.566,0,0,0-.2-.481A1.706,1.706,0,0,0,10.9,5a2.65,2.65,0,0,0-1.03-.375,10.717,10.717,0,0,1-1.527-.375A9.247,9.247,0,0,1,6.68,3.539a5.6,5.6,0,0,1-1.425-1.1A3.391,3.391,0,0,1,4.435.9.993.993,0,0,0,3.529.013,3.052,3.052,0,0,0,2.054.369a9.886,9.886,0,0,0-1.376.8C.311,1.421.071,1.613.071,1.613Z" transform="translate(25.458 114.736)" fill="#2a4a7c"/>
        <path id="Path_5123" data-name="Path 5123" d="M16.268,1.015s-.037.458-.1,1.283-.16,2.017-.276,3.484-.254,3.209-.405,5.136-.317,4.036-.489,6.238c-.233,2.991-.479,6.152-.717,9.255s-.469,6.146-.675,8.9-.385,5.226-.521,7.18-.226,3.393-.254,4.088c-.048,1.207-.132,2.595-.231,4s-.213,2.821-.321,4.087-.21,2.383-.286,3.182-.123,1.281-.123,1.281a2.746,2.746,0,0,1-.342.274,5,5,0,0,1-1.026.544,6.144,6.144,0,0,1-1.709.4,7.959,7.959,0,0,1-2.39-.165s-.2-.688-.521-1.9-.752-2.953-1.215-5.055-.954-4.566-1.388-7.232-.809-5.532-1.04-8.438l-.011-.143-.011-.144-.011-.144-.011-.144c-.215-2.958-.459-6.734-.706-10.733S1,18.024.775,14.172.361,6.839.222,4.32,0,.246,0,.246Z" transform="translate(18.6 56.332)" fill="#8c9df4"/>
        <path id="Path_5124" data-name="Path 5124" d="M16.268,1.015s-.037.458-.1,1.283-.16,2.017-.276,3.484-.254,3.209-.405,5.136-.317,4.036-.489,6.238L2.238,37.551l-.011-.143-.011-.144-.011-.144-.011-.144c-.215-2.958-.459-6.734-.706-10.733S1,18.024.775,14.172.361,6.839.222,4.32,0,.246,0,.246Z" transform="translate(18.6 56.332)" fill="#707fe5"/>
        <path id="Path_5125" data-name="Path 5125" d="M30.591,4.779s-.658,1.666-1.752,4.359-2.623,6.409-4.366,10.513-3.7,8.586-5.645,12.824-3.886,8.217-5.6,11.323S10.1,49.443,8.937,51.509s-2.068,3.657-2.762,4.862S5,58.393,4.7,58.909s-.439.732-.439.732-.244-.1-.616-.265-.871-.4-1.381-.663A12.113,12.113,0,0,1,.814,57.85,2.163,2.163,0,0,1,0,56.98s.163-1.49.478-3.815.783-5.489,1.393-8.835,1.364-6.878,2.25-9.937a22.872,22.872,0,0,1,3.05-7.117,15.126,15.126,0,0,0,1.843-3.445,45.451,45.451,0,0,0,1.563-4.611c.459-1.6.849-3.214,1.146-4.637s.5-2.661.593-3.522c.105-1,.255-2.179.421-3.379s.347-2.424.515-3.522.323-2.072.436-2.77.184-1.123.184-1.123Z" transform="translate(1.607 53.476)" fill="#8c9df4"/>
        <path id="Path_5126" data-name="Path 5126" d="M0,9.025s.439.216,1.161.52,1.73.7,2.866,1.045a20.348,20.348,0,0,0,3.644.8,8.536,8.536,0,0,0,3.491-.222s-.039-.052-.116-.142-.191-.219-.342-.374-.336-.335-.556-.528-.474-.4-.76-.6a1.782,1.782,0,0,1-.376-.365A1.863,1.863,0,0,1,8.758,8.7a1.959,1.959,0,0,1-.124-.51,2.026,2.026,0,0,1,.016-.538q.02-.125.039-.246t.036-.237q.017-.116.032-.228t.028-.219c.05-.357.089-.676.119-.953s.051-.512.065-.7S8.991,4.73,9,4.632,9,4.484,9,4.484L6.3,2.3,3.741.212a12.254,12.254,0,0,1-.547,3.877A11.288,11.288,0,0,1,1.9,6.841,10.414,10.414,0,0,1,.6,8.481,6.089,6.089,0,0,1,0,9.025Z" transform="translate(23.144 9.708)" fill="#ffb27d"/>
        <path id="Path_5127" data-name="Path 5127" d="M1.163,39.726c.705.427,1.4.827,2.1,1.2s1.394.712,2.1,1.022,1.425.588,2.162.833a23.073,23.073,0,0,0,2.279.629,22.565,22.565,0,0,0,2.88.441c.974.092,1.941.137,2.84.162s1.731.031,2.433.044a15.554,15.554,0,0,1,1.659.087.581.581,0,0,0,.117,0,.588.588,0,0,0,.113-.02.663.663,0,0,0,.11-.042.812.812,0,0,0,.107-.063,4,4,0,0,0,.186-.854c.091-.536.208-1.306.342-2.257s.286-2.083.447-3.344.33-2.651.5-4.116l.023-.177c.007-.059.015-.119.021-.178s.013-.119.018-.179.01-.119.013-.179l.01-.079q.1-.859.192-1.739t.18-1.772q.087-.892.168-1.795t.156-1.807q.061-.7.117-1.4t.105-1.386q.049-.688.092-1.361t.078-1.328c.03-.545.055-1.079.075-1.6s.036-1.026.046-1.516.016-.962.015-1.416-.006-.887-.019-1.3q-.008-.282-.021-.549t-.029-.519q-.016-.252-.037-.488t-.045-.456a12.931,12.931,0,0,0-1.343-4.408,14.887,14.887,0,0,0-1.041-1.727c-.368-.529-.75-1.012-1.126-1.457l-1.482-1.4a7.076,7.076,0,0,1-1.052.021A5.668,5.668,0,0,1,15.645,3.1a5.8,5.8,0,0,1-1-.342,7.442,7.442,0,0,1-1.02-.559c-.38-.245-.768-.5-1.14-.729s-.729-.452-1.048-.633a7.008,7.008,0,0,0-.821-.413C10.4.34,10.238.31,10.161.358A7.11,7.11,0,0,0,8.5,1.749,12.668,12.668,0,0,0,7.014,3.817a21.513,21.513,0,0,0-1.3,2.651A33.168,33.168,0,0,0,4.6,9.61q-.29.966-.545,1.992t-.475,2.1q-.219,1.076-.4,2.2t-.324,2.276q-.046.358-.088.721t-.08.727q-.038.365-.073.731t-.064.732q-.006.068-.011.135l-.011.135-.01.134-.01.134q-.068,1-.157,1.966t-.192,1.895q-.1.928-.219,1.814T1.7,29.025q-.166,1.129-.34,2.163c-.115.688-.23,1.341-.343,1.956S.795,34.335.691,34.869.488,35.893.4,36.337q-.067.339-.126.64t-.109.564q-.05.263-.09.488T0,38.442a.524.524,0,0,0,.1.352,1.9,1.9,0,0,0,.313.365,4.356,4.356,0,0,0,.4.328C.944,39.584,1.068,39.667,1.163,39.726Z" transform="translate(15.025 16.093)" fill="#aec3ff"/>
        <path id="Path_5128" data-name="Path 5128" d="M1.163,39.725c.705.427,1.4.827,2.1,1.2s1.394.712,2.1,1.022,1.425.589,2.162.833a23.06,23.06,0,0,0,2.279.629,22.571,22.571,0,0,0,2.88.441c.974.092,1.941.136,2.84.162s1.731.031,2.433.044a15.571,15.571,0,0,1,1.659.087.578.578,0,0,0,.23-.017.66.66,0,0,0,.11-.042.81.81,0,0,0,.107-.063,4,4,0,0,0,.186-.854c.091-.536.208-1.306.342-2.257s.286-2.083.447-3.344.33-2.65.5-4.116q.011-.088.023-.177t.021-.178q.01-.089.018-.179t.013-.179l.01-.079q.1-.86.192-1.739t.18-1.772q.087-.892.168-1.795t.156-1.807q.062-.7.117-1.4t.105-1.386q.049-.688.092-1.361t.077-1.328c.029-.545.055-1.079.075-1.6s.036-1.026.046-1.516.016-.962.015-1.416-.007-.887-.019-1.3q-.008-.282-.02-.549t-.028-.52q-.016-.252-.037-.488t-.045-.456a14.78,14.78,0,0,0-.489-2.406,13.887,13.887,0,0,0-.8-2.1,13.1,13.1,0,0,0-1.024-1.774,11.94,11.94,0,0,0-1.161-1.439c-.088-.093-.226-.219-.385-.356s-.338-.285-.505-.421-.325-.261-.44-.352l-.188-.147a7.085,7.085,0,0,1-1.052.021A5.672,5.672,0,0,1,15.645,3.1a5.8,5.8,0,0,1-1-.342,7.443,7.443,0,0,1-1.02-.559c-.38-.245-.767-.5-1.139-.729s-.729-.452-1.048-.633a7,7,0,0,0-.821-.413C10.4.34,10.237.31,10.16.358A7.11,7.11,0,0,0,8.5,1.749,12.668,12.668,0,0,0,7.013,3.817a21.512,21.512,0,0,0-1.3,2.651A33.162,33.162,0,0,0,4.6,9.61q-.29.966-.545,1.992t-.475,2.1q-.219,1.076-.4,2.2t-.324,2.276q-.046.358-.088.721t-.08.727q-.038.365-.073.731t-.064.732q-.006.068-.011.135t-.011.135l-.01.134-.01.134q-.068,1-.157,1.966t-.192,1.895q-.1.928-.219,1.814T1.7,29.025q-.166,1.129-.34,2.163c-.115.688-.23,1.341-.343,1.956S.795,34.335.691,34.868.488,35.893.4,36.337q-.067.339-.126.64t-.109.564q-.05.263-.09.488T0,38.441a.525.525,0,0,0,.1.352,1.9,1.9,0,0,0,.313.365,4.35,4.35,0,0,0,.4.328C.944,39.584,1.068,39.666,1.163,39.725Z" transform="translate(15.001 16.102)" fill="#f99746"/>
        <path id="Path_5129" data-name="Path 5129" d="M0,.254S.108.462.323.788A10.409,10.409,0,0,0,1.29,2.033,9.283,9.283,0,0,0,2.9,3.449,7.285,7.285,0,0,0,5.135,4.5c.05-.357.089-.676.119-.953s.051-.512.065-.7.023-.336.027-.434.006-.149.006-.149L2.65.075Z" transform="translate(26.794 11.931)" fill="#ed985f"/>
        <path id="Path_5130" data-name="Path 5130" d="M7.962,11.392s-.426.074-1.074.118a12.248,12.248,0,0,1-2.4-.059,5.846,5.846,0,0,1-2.5-.857A3.118,3.118,0,0,1,.6,8.322C.463,7.26.282,6.294.154,5.428A9.011,9.011,0,0,1,.033,3.133a2.61,2.61,0,0,1,.79-1.675A4.748,4.748,0,0,1,3.114.421,10.73,10.73,0,0,1,5.787.126,4.234,4.234,0,0,1,7.494.506a2.731,2.731,0,0,1,1,.813A4.069,4.069,0,0,1,9.03,2.327a8.017,8.017,0,0,1,.3,1.934,24.246,24.246,0,0,1,.02,2.955,12.893,12.893,0,0,1-.409,2.777C8.722,10.755,8.4,11.288,7.962,11.392Z" transform="translate(25.439 2.693)" fill="#ffb27d"/>
        <path id="Path_5131" data-name="Path 5131" d="M.516,2.654A.235.235,0,0,0,.454,2.6a.468.468,0,0,0-.1-.042A1.015,1.015,0,0,0,.2,2.53C.146,2.522.079,2.515,0,2.512c0,0,.016-.01.045-.026A1.279,1.279,0,0,1,.17,2.428a1.352,1.352,0,0,1,.188-.06,1.2,1.2,0,0,1,.235-.033,2.7,2.7,0,0,1,.094-.387,2.126,2.126,0,0,1,.19-.429,1.479,1.479,0,0,1,.319-.382A1.224,1.224,0,0,1,1.673.89a.69.69,0,0,0-.065.043,1.084,1.084,0,0,0-.148.13,1.011,1.011,0,0,0-.159.219.9.9,0,0,0-.1.311A3.137,3.137,0,0,1,2.092.955,5.916,5.916,0,0,1,3.572.483,14.156,14.156,0,0,1,5.859.251c.921-.028,2.013,0,3.313.087a7.252,7.252,0,0,1,3.584.99,2.448,2.448,0,0,1,1.131,1.754,3.263,3.263,0,0,1-.326,1.766,2.568,2.568,0,0,1-.782,1.027,1.333,1.333,0,0,1-.892.09,8.91,8.91,0,0,1-1.209-.319c-.436-.137-.9-.287-1.35-.393a4.235,4.235,0,0,0-1.317-.131A1.7,1.7,0,0,0,6.988,5.6a3.613,3.613,0,0,0-.678.921c-.184.336-.334.678-.474.956a1.459,1.459,0,0,1-.41.58.465.465,0,0,1-.3.1.293.293,0,0,1-.171-.141,2.283,2.283,0,0,0-.205-.269,1.265,1.265,0,0,0-.407-.286.411.411,0,0,0-.446.015.756.756,0,0,0-.234.43,2.486,2.486,0,0,0-.055.651,3.394,3.394,0,0,0,.09.676,1.215,1.215,0,0,1-.049.654,2.847,2.847,0,0,1-.305.628A4.671,4.671,0,0,1,3,10.984c-.1.117-.163.186-.163.186L1.807,10.021a4.553,4.553,0,0,1-.726-1.444A16.009,16.009,0,0,1,.523,6.441,15.46,15.46,0,0,1,.251,4.323,3.37,3.37,0,0,1,.383,2.935l.033-.07L.449,2.8l.033-.07Z" transform="translate(23.229)" fill="#233862"/>
        <path id="Path_5132" data-name="Path 5132" d="M0,.65s.358.27.99.689,1.539.986,2.636,1.58A30.9,30.9,0,0,0,7.408,4.661a20.847,20.847,0,0,0,4.428,1.17c.03-.545.055-1.079.075-1.6s.036-1.026.046-1.516.016-.962.015-1.416S11.967.412,11.954,0Z" transform="translate(25.899 30.328)" fill="#ef7e29"/>
        <path id="Path_5133" data-name="Path 5133" d="M0,3.815c.023-.026.106-.253.249-.584a10.011,10.011,0,0,1,.613-1.2A5.414,5.414,0,0,1,1.847.8,2.5,2.5,0,0,1,3.212.132,7.9,7.9,0,0,1,4.73.138,12.077,12.077,0,0,1,6.37.391,3.662,3.662,0,0,1,7.5.8c.219.151.246.313-.025.469-.09.052-.284.173-.54.353s-.574.42-.914.71a10.7,10.7,0,0,0-1.04,1.015,7.435,7.435,0,0,0-.919,1.267,1.843,1.843,0,0,1-.542.575,3.575,3.575,0,0,1-.692.378,5.141,5.141,0,0,1-.6.207c-.155.044-.253.063-.253.063Z" transform="translate(61.424 20.562)" fill="#ffb27d"/>
        <path id="Path_5134" data-name="Path 5134" d="M2.294,2.959a4.9,4.9,0,0,0-1.79,2,5.039,5.039,0,0,0-.5,2.481,4.781,4.781,0,0,0,.77,2.366A4.434,4.434,0,0,0,2.786,11.46l.054.022.054.022.054.022L3,11.547a27.515,27.515,0,0,0,5.613,1.273c2.288.327,4.878.556,7.431.684s5.076.155,7.214.079a24.243,24.243,0,0,0,4.932-.544c.4-.112,1.387-.524,2.64-1.079s2.774-1.256,4.246-1.942,2.9-1.361,3.953-1.863,1.745-.833,1.745-.833-.047-.174-.143-.441a8.322,8.322,0,0,0-.431-1A4.993,4.993,0,0,0,39.478,4.8a2.145,2.145,0,0,0-1.022-.667l-1.594.257-3.647.588-4,.644c-1.206.193-2.191.35-2.675.426a18.475,18.475,0,0,1-7.182-.389,37.088,37.088,0,0,1-6.261-2.216C11.208,2.618,9.542,1.8,8.165,1.323S5.7.695,4.975,1.2c-.193.133-.4.271-.608.413s-.432.288-.658.436-.459.3-.7.452S2.536,2.805,2.294,2.959Z" transform="translate(22.888 19.438)" fill="#f99746"/>
      </g>
    </g>
  </g>
</svg>
