<svg xmlns="http://www.w3.org/2000/svg" width="340" height="38" viewBox="0 0 340 38"><g transform="translate(-718 -311)"><rect width="340" height="38" rx="16" transform="translate(718 311)" fill="#375997"/><g transform="translate(-3739 -91.501)"><path d="M4557.908,408.493a3.375,3.375,0,0,1,3.2,3.254.933.933,0,0,0-.058.528q0,8.729,0,17.457a.977.977,0,0,0,.055.529,3.452,3.452,0,0,1-3.57,3.25c-3.242.012-6.484,0-9.726,0-2.935,0-5.868.013-8.8-.006a3.449,3.449,0,0,1-3.51-3.25,1.057,1.057,0,0,0,.051-.531q0-8.725,0-17.451a1.013,1.013,0,0,0-.054-.53,3.381,3.381,0,0,1,3.193-3.254,4.226,4.226,0,0,0,1.088,0q8.524.014,17.047,0A4.13,4.13,0,0,0,4557.908,408.493Z" fill="#375997"/></g><g transform="translate(-2.494)"><path d="M4549.681,427.333c0-1.2-.015-2.4.008-3.6.009-.388-.092-.537-.509-.515-.614.032-1.232-.01-1.846.015-.384.016-.5-.123-.483-.486.025-.741.034-1.483,0-2.223-.021-.422.15-.5.531-.488.614.025,1.232-.009,1.846.013.343.012.474-.089.461-.439-.023-.68-.018-1.362,0-2.042.053-2.6,1.583-4.085,4.241-4.115.7-.008,1.394.033,2.091.056.316.011.462.145.448.488-.027.66-.022,1.322,0,1.982.01.342-.12.462-.464.453-.533-.014-1.068-.011-1.6.016a1.18,1.18,0,0,0-1.3,1.227c-.038.659,0,1.321-.022,1.982-.011.34.165.394.457.39.78-.012,1.56.006,2.339-.008.328-.006.48.039.41.43-.136.748-.226,1.506-.3,2.263-.036.371-.163.527-.569.5-.593-.033-1.192.015-1.785-.016-.429-.023-.562.116-.558.539.018,2.343-.009,4.687.021,7.031.008.549-.135.739-.711.7-.735-.05-1.477-.029-2.215-.006-.376.012-.5-.109-.5-.479C4549.692,429.777,4549.681,428.555,4549.681,427.333Z" transform="translate(-3742.352 -92.963)" fill="#fdfdfd"/><text transform="translate(829 336)" fill="#fff" font-size="14" font-family="Roboto-Regular, Roboto" letter-spacing="0.007em"><tspan x="0" y="0">Connect with Facebook</tspan></text></g></g></svg>