<svg xmlns="http://www.w3.org/2000/svg" width="159.571" height="112.289" viewBox="0 0 159.571 112.289">
  <g id="Group_10089" data-name="Group 10089" transform="translate(-434.628 -343.53)">
    <path id="Path_7281" data-name="Path 7281" d="M587.314,474.208c-10.066,0-146.149-.294-146.149-.31-.056-.132-17.275-21.236,4.407-43.3,10.743-10.933-9.866-25.1,0-37.259,16.9-20.832,33.621-9.1,47.552-14.959a22.384,22.384,0,0,0,7.4-5.253,27.527,27.527,0,0,1,4.55-3.777q.376-.25.759-.488a30.286,30.286,0,0,1,3.036-1.648q1.052-.5,2.144-.918h0a35.088,35.088,0,0,1,3.553-1.157,40.2,40.2,0,0,1,5.3-1.04q1.182-.154,2.383-.243c15.565-1.17,33.082,5.412,42.121,15.031a22.831,22.831,0,0,1,3.572,25.737c-4.119,8.7,13.136,17.006,19.268,26.938C602.8,456.815,587.456,473.879,587.314,474.208Z" transform="translate(0 -18.643)" fill="#ebf3fa" opacity="0.45"/>
    <g id="Group_10073" data-name="Group 10073" transform="translate(513.709 370.3)" opacity="0.8">
      <path id="Path_7282" data-name="Path 7282" d="M1504.505,719.249a19.937,19.937,0,0,1-1.518,3.24,19.792,19.792,0,0,1-36.822-8.654,19.452,19.452,0,0,1,.025-3.018,19.924,19.924,0,0,1,2.984-8.891c.008-.014.017-.026.025-.04a19.839,19.839,0,0,1,11.28-8.424c.483-.138.973-.258,1.467-.359a19.681,19.681,0,0,1,10.724.791q.71.258,1.386.564a19.65,19.65,0,0,1,8.02,6.621h0a19.864,19.864,0,0,1,3.165,7.18q.182.83.293,1.677a19.7,19.7,0,0,1-1.03,9.313Z" transform="translate(-1466.119 -692.697)" fill="#d7e5ff"/>
      <g id="Group_10072" data-name="Group 10072" transform="translate(3.056 0.405)">
        <path id="Path_7283" data-name="Path 7283" d="M1519.422,706.742c-1.169.905-.859,3.329-2.883,1.963s-3.295-2.108-3.867-.917,1.22,1.844.748,3.143-1.432,1.436-2.445.369-1.042-2.093-2.682-2.059-2.34-.641-2.26-1.872a1.732,1.732,0,0,0-.054-.571l.025-.04a19.839,19.839,0,0,1,11.28-8.424c.483-.139.973-.259,1.466-.36a2.6,2.6,0,0,1,1.51,1.65c.714,2.08,1.872,1.591.888,3.334s-.579,2.17.495,2.49,2.311.77,2.142,1.619S1520.591,705.837,1519.422,706.742Z" transform="translate(-1505.978 -697.976)" fill="#aec3ff"/>
        <path id="Path_7284" data-name="Path 7284" d="M1798.845,907.69a19.91,19.91,0,0,1-1.518,3.24A19.674,19.674,0,0,1,1791.8,917a2.258,2.258,0,0,1-1.472-.581c-1.982-1.771.645-3.651,2.027-4.566s-1.185-1.218-2.479-3,1.737-4.2-.211-4.33-4.317-.257-4.714-2.344,1.652-1.657,1.294-3.415,1.336-2.087,3.149-1.586,2.036-.835,4.283-.228,1.189,3.373,3.669,4.064,2.168,1.208,2.168,1.208a1.194,1.194,0,0,1,.465.289A19.821,19.821,0,0,1,1798.845,907.69Z" transform="translate(-1763.514 -881.544)" fill="#aec3ff"/>
        <path id="Path_7285" data-name="Path 7285" d="M1858.127,804.951c-2.36.247-2.2-2.7-4.2-2.525-2.021.176-1.156-1.26-2.156-2.744s-4.374-.679-3.688-2.181,2.568-.326,3.451-1.405,2.749-.051,2.749-.051a1.426,1.426,0,0,1,.39.049s0,0,0,0a19.854,19.854,0,0,1,3.165,7.18Q1858.015,804.1,1858.127,804.951Z" transform="translate(-1821.766 -788.118)" fill="#aec3ff"/>
        <path id="Path_7286" data-name="Path 7286" d="M1730.105,726.2s1.6-1.135.1-2.189-1.689-.457-2.937-1.068-2.124.209-1.549,1.661.6,3.845,1.887,3.042S1729.03,725.928,1730.105,726.2Z" transform="translate(-1708.702 -720.837)" fill="#aec3ff"/>
      </g>
    </g>
    <path id="Path_7287" data-name="Path 7287" d="M574.383,1709.306h6.9c.37-.314-.256-1.026-.91-1.074a4.031,4.031,0,0,0-1.053.125c-.095-1.261-.637-6.931-2.681-6.7-2.3.255,0,2.5.65,3.824a31.553,31.553,0,0,1,1.221,3.058c-.187.04-.38.08-.577.116-.3-.935-1.438-4.081-2.879-3.9-1.692.214-1.012,1.476.188,2.225.88.551,1.96,1.333,2.474,1.711a7.347,7.347,0,0,1-1.35.108A2.907,2.907,0,0,0,574.383,1709.306Z" transform="translate(-128.724 -1253.995)" fill="#a8d29f"/>
    <path id="Path_7288" data-name="Path 7288" d="M1932.6,1715.87h-6.41c-.344-.291.238-.953.845-1a3.745,3.745,0,0,1,.978.116c.088-1.172.592-6.438,2.49-6.227,2.135.237,0,2.319-.6,3.552a29.249,29.249,0,0,0-1.134,2.841c.173.038.353.074.536.108.283-.869,1.335-3.791,2.674-3.62,1.572.2.94,1.371-.174,2.066-.817.512-1.821,1.238-2.3,1.59a6.8,6.8,0,0,0,1.254.1A2.7,2.7,0,0,1,1932.6,1715.87Z" transform="translate(-1377.119 -1260.558)" fill="#a8d29f"/>
    <g id="Group_10074" data-name="Group 10074" transform="translate(553.832 403.146)">
      <path id="Path_7289" data-name="Path 7289" d="M2051.779,1235.849s.153-1.517-.641-1.465-1,.416-.915.708a8.288,8.288,0,0,0,.86,1.256Z" transform="translate(-2045.548 -1225.7)" fill="#ffb27d"/>
      <path id="Path_7290" data-name="Path 7290" d="M2071.491,1253.661a12.942,12.942,0,0,1-2.767,2.223c-.179.113-.366.227-.563.342a20.923,20.923,0,0,1-2.588,1.273c-.11.045-.238.095-.382.146a18.653,18.653,0,0,1-4.506,1.04c-.112,0-.219,0-.318,0-1.965-.079-2.2-7.7-2.2-7.7a.966.966,0,0,1,1.228-.571s1.533,4.306,2.082,4.657c.488.312,3.292-3.939,5.706-4.237C2068.8,1250.632,2071.491,1253.661,2071.491,1253.661Z" transform="translate(-2052.896 -1240.471)" fill="#232323"/>
      <path id="Path_7291" data-name="Path 7291" d="M2105.959,1770.342s.145,1.679-.21,1.853l-4.541-.01a.573.573,0,0,1,.091-.276.8.8,0,0,1,.438-.317.986.986,0,0,1,.2-.047c.359-.046,1.981-.412,2.227-1.495C2104.382,1769.1,2105.959,1770.342,2105.959,1770.342Z" transform="translate(-2092.642 -1719.97)"/>
      <path id="Path_7292" data-name="Path 7292" d="M2109.027,1774.88s.133,1.4-.192,1.545l-4.166-.008a.446.446,0,0,1,.084-.231.742.742,0,0,1,.4-.264,1.012,1.012,0,0,1,.183-.039c.329-.038,1.817-.344,2.044-1.246C2107.58,1773.844,2109.027,1774.88,2109.027,1774.88Z" transform="translate(-2095.837 -1724.259)" fill="none" stroke="#fff" stroke-miterlimit="10" stroke-width="1"/>
      <path id="Path_7293" data-name="Path 7293" d="M2119.523,1449.866c.022,1.1.075,2.23.178,3.247.49,4.828.663,10.661.733,11.786.122,1.952.508,5.071.508,5.071a2.493,2.493,0,0,0,2.256.38,50.772,50.772,0,0,0,1.511-9.222l.012-.234c.032-.625.065-1.34.1-2.111.227-5.165.474-12.837.474-12.837l-5.7-1.338S2119.467,1447.13,2119.523,1449.866Z" transform="translate(-2109.539 -1419.808)" fill="#ce4141"/>
      <path id="Path_7294" data-name="Path 7294" d="M2095.564,1322.233a18.644,18.644,0,0,1-4.506,1.04,4.441,4.441,0,0,0,2.166-.964c.571-.69,1.532-2.563,2.3-1.8C2095.881,1320.871,2095.775,1321.582,2095.564,1322.233Z" transform="translate(-2083.27 -1305.059)" fill="#232323"/>
      <path id="Path_7295" data-name="Path 7295" d="M2259.37,1501.579a8.864,8.864,0,0,1,.3,1.7,6.069,6.069,0,0,1-.619,1.611c-.215.259-.224-1.126-.367-1.343s-.065.517-.18.577-.306-.556-.391-.775.306-.979.342-1.525S2259.37,1501.579,2259.37,1501.579Z" transform="translate(-2237.501 -1472.333)" fill="#ffb27d"/>
      <path id="Path_7296" data-name="Path 7296" d="M2275.45,1749.076s.808.737.65,1.261-.887.873-.985,1.514-.493.99-.848.99h-1.692s-.261-.451.37-.587.869-.889.829-1.587a12.342,12.342,0,0,1,.059-1.63l1.34-.311Z" transform="translate(-2250.822 -1700.612)"/>
      <path id="Path_7297" data-name="Path 7297" d="M2279.329,1752.07s.65.685.523,1.171-.714.81-.793,1.4-.4.919-.682.919h-1.361a.369.369,0,0,1,.3-.544c.508-.126.7-.824.667-1.473a13.187,13.187,0,0,1,.047-1.513l1.079-.288Z" transform="translate(-2254.931 -1703.399)" fill="none" stroke="#fff" stroke-miterlimit="10" stroke-width="1"/>
      <path id="Path_7298" data-name="Path 7298" d="M2132.382,1442.7s5.334,11.413,8.172,16.42,3.725,6.405,3.725,6.405,1.626-.641,1.774-1.077c0,0-1.085-9.667-2.986-12.024a17.533,17.533,0,0,1-2.4-6.725,24.519,24.519,0,0,0-1.305-4.733Z" transform="translate(-2121.425 -1416.445)" fill="#ce4141"/>
      <path id="Path_7299" data-name="Path 7299" d="M2119.321,1267.792a9.244,9.244,0,0,0,4.688,2.434c1.3.248,3.924.488,4.577-.435a1.652,1.652,0,0,0,.12-1.037,21.691,21.691,0,0,1,1.063-8.87,8.626,8.626,0,0,0,.284-1.351c.323-2.585.288-4.538-1.956-5.58-3.361-1.562-4.741-.277-4.741-.277a5.63,5.63,0,0,0-2.6,3.27C2119.118,1260.814,2119.321,1267.792,2119.321,1267.792Z" transform="translate(-2109.358 -1242.131)" fill="#232323"/>
      <path id="Path_7300" data-name="Path 7300" d="M2176.621,1216.213a2.494,2.494,0,0,1-2.51.164,2.866,2.866,0,0,1-.046-1.032c.018-.484.063-.959.063-.959l1.2-.785,1.141-.749C2176.329,1215.428,2176.877,1216.03,2176.621,1216.213Z" transform="translate(-2159.901 -1205.821)" fill="#ffb27d"/>
      <path id="Path_7301" data-name="Path 7301" d="M2176.42,1222.933a3.675,3.675,0,0,1-2.2,1.43c.018-.484.07-1.017.07-1.017l1.19-.727Z" transform="translate(-2160.055 -1214.839)" fill="#ed985f"/>
      <path id="Path_7302" data-name="Path 7302" d="M2157.333,1172.452s2.894,1.08,3.538-.7,1.451-2.844-.369-3.609-2.427-.213-2.789.33S2156.6,1172.125,2157.333,1172.452Z" transform="translate(-2144.176 -1164.189)" fill="#ffb27d"/>
      <path id="Path_7303" data-name="Path 7303" d="M2158.328,1154.192c.033-.026.1-.039.242-.019a.573.573,0,0,0-.246-.125.714.714,0,0,0-.343-.712.427.427,0,0,1,.143.342c-.308-.473-1.078-.925-3.406-1.2-3.067-.358-2.454,1.772-2.108,2.08s1.454-.13,2.171.072.648,1.282.866,1.475.172-.081.536-.167.286.475.119.816.2.907.2.907l.563-.408a5.3,5.3,0,0,0,1.3-2.933C2158.35,1154.28,2158.339,1154.236,2158.328,1154.192Z" transform="translate(-2139.831 -1150.04)" fill="#2c3a64"/>
      <path id="Path_7304" data-name="Path 7304" d="M2220.24,1344.156a21.679,21.679,0,0,1,1.062-8.87,8.606,8.606,0,0,0,.284-1.351h0c-1.1-.362-3.1.443-3.1.443S2218.018,1341.059,2220.24,1344.156Z" transform="translate(-2200.892 -1317.534)" fill="#232323"/>
      <path id="Path_7305" data-name="Path 7305" d="M2183.745,1266.685s1.351.491,2.212,4.067c.569,2.363,1.617,5.835,1.735,6.927s-1.2,7.481-1.2,7.481a.858.858,0,0,1-.641.044,1.059,1.059,0,0,1-.638-.381s-.315-4.258-.233-6.269c.034-.835-3.867-6.118-5.972-6.8C2178.183,1271.487,2183.745,1266.685,2183.745,1266.685Z" transform="translate(-2164.401 -1255.526)" fill="#232323"/>
      <path id="Path_7306" data-name="Path 7306" d="M1995.368,1128.924a44.913,44.913,0,0,1,8.408.718l.471-1.186.516-1.3a27.456,27.456,0,0,1-7.241-4.658Z" transform="translate(-1994.916 -1122.394)" fill="#aec3ff"/>
      <path id="Path_7307" data-name="Path 7307" d="M1992.137,1121.176l-2.241,6.616h0a.6.6,0,0,1-.393-.771l1.973-5.559a.492.492,0,0,1,.661-.286Z" transform="translate(-1989.468 -1121.135)" fill="#f99746"/>
      <path id="Path_7308" data-name="Path 7308" d="M2044.357,1204.761h0a.811.811,0,0,0,.951-.634l.772-3.861a.81.81,0,0,0-.634-.951h0a.81.81,0,0,0-.951.634l-.772,3.861A.81.81,0,0,0,2044.357,1204.761Z" transform="translate(-2039.549 -1193.307)" fill="#f99746"/>
      <path id="Path_7309" data-name="Path 7309" d="M1995.368,1197.162a44.925,44.925,0,0,1,8.408.718l.471-1.186A21.515,21.515,0,0,0,1995.368,1197.162Z" transform="translate(-1994.916 -1190.632)" fill="#739af0"/>
      <path id="Path_7310" data-name="Path 7310" d="M2088.8,1177.389l1.22.215a1.346,1.346,0,0,0,1.51-.8.841.841,0,0,0,.072-.22c.293-1.272-.405-1.507-.405-1.507l-1.57-.612-.5,1.765v.006Z" transform="translate(-2081.185 -1170.379)" fill="#f99746"/>
      <path id="Path_7311" data-name="Path 7311" d="M2088.8,1198.647l1.22.214a1.345,1.345,0,0,0,1.51-.8,5.911,5.911,0,0,0-2.4-.574v.006Z" transform="translate(-2081.185 -1191.637)" fill="#ed7d2b"/>
      <path id="Path_7312" data-name="Path 7312" d="M2047.141,1221.359s.6.238.487.5-.868.624-.988.417S2046.766,1221.138,2047.141,1221.359Z" transform="translate(-2042.229 -1213.644)" fill="#ffb27d"/>
      <path id="Path_7313" data-name="Path 7313" d="M2068.754,1233.423a8.409,8.409,0,0,0,.12-.891c.007-.281.04-.51-.026-.517s-.114.044-.141.134-.13.649-.13.649l.052.54Z" transform="translate(-2062.512 -1223.513)" fill="#ffb27d"/>
      <path id="Path_7314" data-name="Path 7314" d="M2165.667,1798.392" transform="translate(-2152.158 -1746.469)" fill="none" stroke="#fff" stroke-miterlimit="10" stroke-width="1"/>
    </g>
    <g id="Group_10076" data-name="Group 10076" transform="translate(464.344 390.784)">
      <path id="Path_7315" data-name="Path 7315" d="M1260,1240.615l-3.381,40.2s-.354,2.437,1.458,2.441c2.98.007,14.833,0,14.833,0s-2.243-.507-2.216-1.648c.032-1.345,3.951-41.37,3.951-41.37Z" transform="translate(-1223.292 -1218.741)" fill="#7599ea"/>
      <path id="Path_7316" data-name="Path 7316" d="M1285.763,1273.756c-.586,0-12.061.021-14.963-.016-1.265-.016-1.487-1.125-1.5-1.842a3.583,3.583,0,0,1,.038-.6l.088-1.045.224-2.663.2-2.353.254-3.023.214-2.552,2.4-28.563,14.646-.38s-1.651,16.75-2.818,28.943c-.13,1.359-.254,2.661-.369,3.877q-.056.582-.108,1.137c-.108,1.154-.207,2.213-.293,3.148-.045.493-.087.951-.125,1.371-.149,1.644-.236,2.694-.237,2.894a1.69,1.69,0,0,0,.028.325C1283.686,1273.7,1285.543,1273.756,1285.763,1273.756Z" transform="translate(-1235.026 -1209.957)" fill="#90aff4"/>
      <path id="Path_7317" data-name="Path 7317" d="M837.111,959.883l8.235,33.078,1.128,4.53,3.835,15.407h71.255l-14.136-53.014Z" transform="translate(-835.97 -959.883)" fill="#aec3ff"/>
      <path id="Path_7318" data-name="Path 7318" d="M823.365,959.882l-1.141.38,12.822,53.785,1.517-1.151Z" transform="translate(-822.224 -959.882)" fill="#90aff4"/>
      <path id="Path_7319" data-name="Path 7319" d="M989.466,1652.529h70.817l1.956-1.151H990.983Z" transform="translate(-976.644 -1598.364)" fill="#7599ea"/>
      <rect id="Rectangle_3208" data-name="Rectangle 3208" width="15.333" height="0.729" transform="translate(53.023 64.528) rotate(180)" fill="#aec3ff"/>
      <path id="Path_7320" data-name="Path 7320" d="M1288.377,1666.382l-.079.557-14.42,2.913.2-2.353.094-1.117Z" transform="translate(-1239.251 -1612.217)" fill="#5888dd"/>
      <path id="Path_7321" data-name="Path 7321" d="M1285.768,1737.151c-.586,0-12.061.021-14.963-.016-1.265-.016-1.487-1.125-1.5-1.842l14.352-2.7c-.149,1.644-.236,2.694-.238,2.894a1.683,1.683,0,0,0,.028.325C1283.691,1737.093,1285.548,1737.151,1285.768,1737.151Z" transform="translate(-1235.031 -1673.351)" fill="#5888dd" opacity="0.4"/>
      <path id="Path_7322" data-name="Path 7322" d="M837.109,959.882h70.316l11.409,42.607H847.716Z" transform="translate(-835.968 -959.882)" fill="#aec3ff"/>
      <path id="Path_7323" data-name="Path 7323" d="M950.6,1028.131H884.757l-2.353-9.372-.91-3.626-.371-1.479-2.418-9.631-.125-.5-1.278-5.091-.572-2.278-.488-1.943-1.144-4.555h64.889l1.256,4.555.535,1.943.628,2.278,4.137,15.007h0l.351,1.271.163.59,2.857,10.361Z" transform="translate(-871.045 -987.37)" fill="#739af0"/>
      <path id="Path_7324" data-name="Path 7324" d="M941.247,994.206h-65l-1.143-4.556h64.888Z" transform="translate(-871.048 -987.368)" fill="#607cf4"/>
      <g id="Group_10075" data-name="Group 10075" transform="translate(6.721 3.772)">
        <path id="Path_7325" data-name="Path 7325" d="M909.9,1009.646a.43.43,0,0,1,.427-.569.778.778,0,0,1,.711.569.43.43,0,0,1-.427.57A.778.778,0,0,1,909.9,1009.646Z" transform="translate(-909.887 -1009.077)" fill="#e9f3fe"/>
        <path id="Path_7326" data-name="Path 7326" d="M934.585,1009.646a.43.43,0,0,1,.428-.569.778.778,0,0,1,.711.569.43.43,0,0,1-.427.57A.778.778,0,0,1,934.585,1009.646Z" transform="translate(-932.675 -1009.077)" fill="#e9f3fe"/>
        <path id="Path_7327" data-name="Path 7327" d="M961.161,1009.646a.43.43,0,0,1,.427-.569.778.778,0,0,1,.712.569.43.43,0,0,1-.427.57A.778.778,0,0,1,961.161,1009.646Z" transform="translate(-957.214 -1009.077)" fill="#e9f3fe"/>
      </g>
    </g>
    <path id="Path_7328" data-name="Path 7328" d="M1452.277,369.143c2.661-3.124,6.764-9.4,9.527-12.614a1.019,1.019,0,0,0-.776-1.682H1456l4.742-10.722a.42.42,0,0,0-.721-.422l-11.466,15.346a.635.635,0,0,0,.586,1.009l5.691-.7-3.386,9.3A.488.488,0,0,0,1452.277,369.143Z" transform="translate(-936.076 0)" fill="#f77d48"/>
    <g id="Group_10080" data-name="Group 10080" transform="translate(481.173 369.423)">
      <path id="Path_7329" data-name="Path 7329" d="M1133.513,770.458l-57.208,4.82a5.726,5.726,0,0,1-5.709-8.042l24.237-54.242a5.726,5.726,0,0,1,9.992-.842l32.971,49.422A5.726,5.726,0,0,1,1133.513,770.458Z" transform="translate(-1067.917 -707.43)" fill="#e6efff"/>
      <g id="Group_10077" data-name="Group 10077" transform="translate(0 0)">
        <path id="Path_7330" data-name="Path 7330" d="M1107.521,746.456l-57.208,4.82a7.9,7.9,0,0,1-7.874-11.092l24.237-54.242a7.9,7.9,0,0,1,13.781-1.161l32.971,49.422a7.9,7.9,0,0,1-5.907,12.253Zm-33.932-60.835a3.51,3.51,0,0,0-2.947,2.092L1046.4,741.956a3.555,3.555,0,0,0,3.544,4.992l57.207-4.82a3.555,3.555,0,0,0,2.659-5.515l-32.971-49.422A3.51,3.51,0,0,0,1073.589,685.622Z" transform="translate(-1041.742 -681.265)" fill="#f77d48"/>
      </g>
      <g id="Group_10079" data-name="Group 10079" transform="translate(27.571 16.126)">
        <g id="Group_10078" data-name="Group 10078">
          <path id="Path_7331" data-name="Path 7331" d="M1404.3,930.2a5.233,5.233,0,0,1,.223-2.078,4.793,4.793,0,0,1,.979-1.719,5.142,5.142,0,0,1,1.644-1.219,6.413,6.413,0,0,1,2.251-.578,6.555,6.555,0,0,1,2.333.192,5.113,5.113,0,0,1,1.842.925,4.8,4.8,0,0,1,1.253,1.531,5.237,5.237,0,0,1,.567,2.011,5.113,5.113,0,0,1-.224,2.061,4.833,4.833,0,0,1-.98,1.7,5.1,5.1,0,0,1-1.661,1.22,6.55,6.55,0,0,1-2.268.579,6.41,6.41,0,0,1-2.316-.193,5.124,5.124,0,0,1-1.824-.926,4.829,4.829,0,0,1-1.251-1.515A5.11,5.11,0,0,1,1404.3,930.2Zm8.844-10.349-8.24.694-3.54-28.057,10.575-.891Z" transform="translate(-1401.361 -891.601)" fill="#f77d48"/>
        </g>
      </g>
    </g>
    <g id="Group_10084" data-name="Group 10084" transform="translate(458.068 403.319)">
      <path id="Path_7332" data-name="Path 7332" d="M976.294,1267.681s.179-.4.3-.594.612-.751.7-.624.422.98.243,1.219.012.654-.881.906Z" transform="translate(-958.206 -1255.476)" fill="#ffb27d"/>
      <path id="Path_7333" data-name="Path 7333" d="M846.878,1249.351s4.57,3.815,6.352,3.462c1.394-.276,3.6-.975,3.6-.975a1.406,1.406,0,0,1,.417,1.216s-2.807,2.641-4.806,2.658a6.367,6.367,0,0,1-4.6-1.549Z" transform="translate(-838.712 -1239.694)" fill="#ed7d2b"/>
      <path id="Path_7334" data-name="Path 7334" d="M742.327,1765.945s.133,2.14.547,2.171c.055,0,2.1,0,2.1,0l2.611-.015a.847.847,0,0,0-.78-.762,3.539,3.539,0,0,1-2.5-1.678C743.815,1764.6,742.327,1765.945,742.327,1765.945Z" transform="translate(-742.176 -1716.046)"/>
      <path id="Path_7335" data-name="Path 7335" d="M740.364,1457.947a5.446,5.446,0,0,0,1.413.265,5.188,5.188,0,0,0,1.319-.188,36.109,36.109,0,0,1,.972-4.629c.431-1.669,1.047-3.814,1.922-6.48a87.709,87.709,0,0,0,3.225-12.087c0-.021.005-.032.005-.032l-.008,0-7.445-3.269s.92,10.155-.254,14.053a16.409,16.409,0,0,0-.426,1.867A74.849,74.849,0,0,0,740.364,1457.947Z" transform="translate(-740.363 -1407.9)" fill="#ce4141"/>
      <path id="Path_7336" data-name="Path 7336" d="M757.836,1453.4c.431-1.669,1.047-3.814,1.922-6.48a87.759,87.759,0,0,0,3.225-12.087c0-.012,0-.023,0-.036l-7.445-3.269s.92,10.155-.254,14.053C755.118,1446.122,757.836,1453.4,757.836,1453.4Z" transform="translate(-754.132 -1407.9)" fill="#ce4141"/>
      <path id="Path_7337" data-name="Path 7337" d="M818.172,1765.945s.133,2.14.547,2.171c.055,0,2.1,0,2.1,0l2.611-.015a.847.847,0,0,0-.78-.762,3.538,3.538,0,0,1-2.5-1.678C819.66,1764.6,818.172,1765.945,818.172,1765.945Z" transform="translate(-812.207 -1716.046)"/>
      <path id="Path_7338" data-name="Path 7338" d="M777.9,1434.645a105.98,105.98,0,0,1-1.042,14.661c-1.139,8.08-.753,11.51-.753,11.51a7.748,7.748,0,0,1-1.1.279,4.982,4.982,0,0,1-1.629-.188s-1.63-8.083-1.162-12.127-2.232-13.877-2.232-13.877Z" transform="translate(-767.711 -1410.782)" fill="#ce4141"/>
      <path id="Path_7339" data-name="Path 7339" d="M804.372,1194.6l1.453.953,1.324-.374a3.163,3.163,0,0,0,.31-1.587,9.863,9.863,0,0,0-.052-1.057l-1.961-.865-.732-.323c0,.011.057.6.065.687A5,5,0,0,1,804.372,1194.6Z" transform="translate(-799.465 -1186.137)" fill="#ffb27d"/>
      <path id="Path_7340" data-name="Path 7340" d="M763.165,1244.36c-1.809,1.747-8.654,1.453-9.076-.471s.46-16.38,3.55-17.288c.641-.188,4.069.919,4.069.919a21.727,21.727,0,0,1,.891,3.2c.068.349.268,4.043.418,7.5.07,1.616.129,3.181.159,4.327A12.475,12.475,0,0,1,763.165,1244.36Z" transform="translate(-752.945 -1218.667)" fill="#f99746"/>
      <path id="Path_7341" data-name="Path 7341" d="M810.922,1195.942a5.694,5.694,0,0,0,2.533,1.531,9.885,9.885,0,0,0-.052-1.057l-1.961-.865C811.009,1195.544,810.745,1195.641,810.922,1195.942Z" transform="translate(-805.461 -1190.017)" fill="#fca56b"/>
      <path id="Path_7342" data-name="Path 7342" d="M800.541,1142.664s-3.159.985-3.742-.991-1.384-3.181.608-3.894,2.609-.075,2.964.538S801.347,1142.357,800.541,1142.664Z" transform="translate(-791.859 -1136.385)" fill="#ffb27d"/>
      <path id="Path_7343" data-name="Path 7343" d="M783.694,1125.127s-.2,2.3-.677,2.2-1-.313-.93.38-.463,1.882-1.148,1.879c-1.471-.006-3.07-3.781-2.667-4.5C779.433,1123.024,785.373,1122.608,783.694,1125.127Z" transform="translate(-775.307 -1123.386)" fill="#163560"/>
      <path id="Path_7344" data-name="Path 7344" d="M804.806,1215.828a14.536,14.536,0,0,0-2.622-.965c-.27.089-.607.915-.607.915l4.069.92A2.02,2.02,0,0,0,804.806,1215.828Z" transform="translate(-796.884 -1207.845)" fill="#ed7d2b"/>
      <g id="Group_10082" data-name="Group 10082" transform="translate(8.143 1.457)">
        <path id="Path_7345" data-name="Path 7345" d="M860.748,1358.619l-12.955,12.2c-.254.239-.574.315-.711.169l-.437-.464c-.138-.146-.042-.461.212-.7l12.954-12.2c.254-.239.574-.315.712-.169l.437.464C861.1,1358.065,861,1358.38,860.748,1358.619Z" transform="translate(-846.581 -1340.898)" fill="#1f4d84"/>
        <path id="Path_7346" data-name="Path 7346" d="M853.478,1450.829l-5.685,5.352c-.254.239-.574.315-.711.169l-.437-.464c-.138-.146-.042-.461.212-.7l5.685-5.352Z" transform="translate(-846.581 -1426.263)" fill="#739af0"/>
        <path id="Path_7347" data-name="Path 7347" d="M987.219,1155.5a10.154,10.154,0,1,0,16.829-10.2c-.052-.052-.105-.1-.159-.154a10.154,10.154,0,0,0-16.67,10.358Zm2.9-9.371a9.353,9.353,0,1,1,.4,13.22A9.341,9.341,0,0,1,990.121,1146.133Z" transform="translate(-976.03 -1142.388)" fill="#1f4d84"/>
        <g id="Group_10081" data-name="Group 10081" transform="translate(11.55 0.802)" opacity="0.5">
          <path id="Path_7348" data-name="Path 7348" d="M1013.394,1168.6a9.353,9.353,0,1,1-.4-13.219A9.314,9.314,0,0,1,1013.394,1168.6Z" transform="translate(-997.23 -1152.845)" fill="#b3cff9"/>
        </g>
      </g>
      <path id="Path_7349" data-name="Path 7349" d="M794.83,1291.817c-7.138-5.086-6.544-11.874-6.544-11.874a17.011,17.011,0,0,1,6.386,7.547C794.741,1289.106,794.8,1290.671,794.83,1291.817Z" transform="translate(-784.601 -1267.94)" fill="#ed7d2b"/>
      <g id="Group_10083" data-name="Group 10083" transform="translate(3.536 8.853)">
        <path id="Path_7350" data-name="Path 7350" d="M955.393,1397.822a1.949,1.949,0,0,0,.912-.563s.215.015-.035.472c-.021.038-.067.137-.1.206a.044.044,0,0,0,.037.064,4.764,4.764,0,0,1,1.142.024c.077.016.1.2.1.28a.715.715,0,0,1-.15.488,2.5,2.5,0,0,1-.9.472,2.732,2.732,0,0,1-1.4-.175l-.457-.212.142-.849.115.024C954.977,1398.091,955.2,1397.869,955.393,1397.822Z" transform="translate(-941.654 -1385.115)" fill="#ffb27d"/>
        <path id="Path_7351" data-name="Path 7351" d="M788.854,1238.859s-6.414,1.221,1.887,10.509c1.328,1.485,8.5,3.42,8.5,3.42s.727-.619.361-1.12c0,0-4.938-3.586-6.025-4.156-.489-.256-1.9-5.724-2.694-7.04A3.592,3.592,0,0,0,788.854,1238.859Z" transform="translate(-786.49 -1238.859)" fill="#f99746"/>
      </g>
      <path id="Path_7352" data-name="Path 7352" d="M978.562,1265.221a3.271,3.271,0,0,0,.251-.613,3.383,3.383,0,0,1,.414-.937c.044-.043.187.013.2.2a1.085,1.085,0,0,1-.1.406,4.567,4.567,0,0,0-.136.806C979.093,1265.406,978.562,1265.221,978.562,1265.221Z" transform="translate(-960.3 -1252.903)" fill="#ffb27d"/>
    </g>
    <g id="Group_10086" data-name="Group 10086" transform="translate(468.869 369.318)">
      <g id="Group_10085" data-name="Group 10085" transform="translate(0)">
        <path id="Path_7353" data-name="Path 7353" d="M1010.654,1034.691a.387.387,0,0,0-.069.414v0a2.571,2.571,0,0,0,.812.892c.049.04.092.076.13.109l.029.026.023.02c.357.329.223.4.864,1.073.731.762,1.235.775,1.378.706.121-.059-.125-.463-.4-.917l-.04-.066-.108-.182c-.32-.546-.237-.8-.161-1.615.062-.661,1.029-3.69,1.029-3.69l-1.4-.242s-.423,2.412-.888,2.784c-.249.2-.527.2-.766.347l-.05.031A1.837,1.837,0,0,0,1010.654,1034.691Z" transform="translate(-1000.641 -1004.286)" fill="#ffb27d"/>
        <path id="Path_7354" data-name="Path 7354" d="M1010.654,1072.772a.387.387,0,0,0-.069.414v0a2.979,2.979,0,0,0,.814.889c.048.04.091.077.129.111l.029.026.023.02c.357.329.223.4.864,1.073.731.761,1.235.775,1.378.706.121-.059-.125-.463-.4-.917a3.12,3.12,0,0,1-1.3-.962c-.424-.542-.712-1.232-1-1.656l-.082-.015A1.84,1.84,0,0,0,1010.654,1072.772Z" transform="translate(-1000.641 -1042.367)" fill="#233862"/>
        <path id="Path_7355" data-name="Path 7355" d="M1145.832,1028.719c.087.433.7.361,1.393.193s.525.032,1.506-.076,1.278-.474,1.308-.62c.027-.129-.458-.175-.978-.235l-.2-.024a4.245,4.245,0,0,1-1.55-.764,6.229,6.229,0,0,1-1.258-1.5l-1.345.106s.705,1.073.978,1.539a1.627,1.627,0,0,1,.132.917A1.726,1.726,0,0,0,1145.832,1028.719Z" transform="translate(-1124.513 -999.186)" fill="#ffb27d"/>
        <path id="Path_7356" data-name="Path 7356" d="M1160.472,1056.409c.689-.168.525.032,1.506-.076s1.278-.474,1.308-.62c.027-.13-.458-.175-.978-.235l0,.01a2.765,2.765,0,0,1-1.405.436c-.665.016-1.37-.175-1.83-.168a1.72,1.72,0,0,0,.01.46C1159.166,1056.649,1159.783,1056.577,1160.472,1056.409Z" transform="translate(-1137.76 -1026.683)" fill="#233862"/>
        <path id="Path_7357" data-name="Path 7357" d="M1036.5,926.909l-1.259,3.383-1.643,4.418a2.661,2.661,0,0,1-.872-.08,3.782,3.782,0,0,1-.843-.411,48.015,48.015,0,0,1,1.309-7.467,4.852,4.852,0,0,1,.732-1.583C1035.247,923.613,1036.5,926.909,1036.5,926.909Z" transform="translate(-1020.338 -905.98)" fill="#233862"/>
        <path id="Path_7358" data-name="Path 7358" d="M928.951,874.6a13.863,13.863,0,0,0-4.61.362,1.375,1.375,0,0,1-1.419-.641h0l-5.1-.4s-1.684,3.73-.763,6.108a.9.9,0,0,0,.891.575h0l4.066.006c2.536,0,5.367-1.741,5.733-1.814.6-.12.839,1.079,1.438,2.338s5.632,5.576,5.632,5.576a4.433,4.433,0,0,0,1.094-.112,1.076,1.076,0,0,0,.469-.3S930.808,875.2,928.951,874.6Z" transform="translate(-914.061 -859.043)" fill="#2a4e96"/>
        <path id="Path_7359" data-name="Path 7359" d="M889.823,680.2a1.809,1.809,0,0,0-.974-.254,2.7,2.7,0,0,1-.47-.029c-1.946-.286-3.119,2.54-3.188,3.394-.127,1.568-.956,1.807-2.124,2.788-2.342,1.968-1.656,4.256-.376,5.107a2.836,2.836,0,0,0,2.122,0c.019.013,3.7-2.058,5.519-3.057C893.054,687.762,890.916,680.848,889.823,680.2Z" transform="translate(-881.498 -679.894)" fill="#233862"/>
        <path id="Path_7360" data-name="Path 7360" d="M946.716,742.053a2.4,2.4,0,0,1-1.5.045,2.668,2.668,0,0,1-.988-1.184c.258-.012.541-.237.76-1.717l.11.039,1.846.665s-.134.593-.221,1.157C946.655,741.533,946.615,741.986,946.716,742.053Z" transform="translate(-939.404 -734.651)" fill="#ffb27d"/>
        <path id="Path_7361" data-name="Path 7361" d="M957.422,740.377s-.074.32-.182.917a2.085,2.085,0,0,1-1.665-1.582Z" transform="translate(-949.878 -735.126)" fill="#ed975d"/>
        <path id="Path_7362" data-name="Path 7362" d="M955.471,702.535s-2.526-.34-2.29-1.91.069-2.671,1.692-2.521,1.846.8,1.894,1.34S956.134,702.582,955.471,702.535Z" transform="translate(-947.652 -696.695)" fill="#ffb27d"/>
        <path id="Path_7363" data-name="Path 7363" d="M947.948,696.912a7.043,7.043,0,0,1-2.718,1.505,2.109,2.109,0,0,1-1.517-.241,4.294,4.294,0,0,0,1.039-1.407.774.774,0,0,1,.638-.456C946.176,696.246,947.666,696.216,947.948,696.912Z" transform="translate(-938.925 -695.024)" fill="#233862"/>
        <path id="Path_7364" data-name="Path 7364" d="M985.759,699.25a3.982,3.982,0,0,1,.711.911,3.059,3.059,0,0,1,.082,1.626s.843-1.639.366-2.435A.674.674,0,0,0,985.759,699.25Z" transform="translate(-977.747 -697.487)" fill="#233862"/>
        <path id="Path_7365" data-name="Path 7365" d="M922.711,765.734c-.078,5.114-.022,4.045-.582,4.531a2.149,2.149,0,0,1-1.013.219c-1.568.1-4.325-.156-4.429-.445-.361-1-.106-1.314-.407-2.85-.031-.163-.07-.34-.116-.532a3.206,3.206,0,0,1,.4-3.107,13.222,13.222,0,0,1,1.727-2.734c2.135,1.269,2.308.2,2.308.2S922.75,763.24,922.711,765.734Z" transform="translate(-913.273 -754.61)" fill="#f99746"/>
        <path id="Path_7366" data-name="Path 7366" d="M1035.246,954.387l-1.643,4.418a2.659,2.659,0,0,1-.872-.08,3.78,3.78,0,0,1-.843-.411,48.014,48.014,0,0,1,1.309-7.467Z" transform="translate(-1020.338 -930.074)" fill="#2a4e96"/>
        <path id="Path_7367" data-name="Path 7367" d="M976.779,763.473s2.2.373,2.455,1.32,1.105,6.69,1.105,6.69-.62.6-1.136.089-1.622-5.374-1.622-5.374Z" transform="translate(-969.455 -757.065)" fill="#f99746"/>
        <path id="Path_7368" data-name="Path 7368" d="M925.313,821.614c-1.568.1-4.325-.156-4.43-.445-.361-1-.106-1.314-.407-2.85l.757-2.13s-.126,2.372.573,3,2.863,1.205,3.2,1.727A1.907,1.907,0,0,1,925.313,821.614Z" transform="translate(-917.469 -805.74)" fill="#ed7d2b"/>
        <path id="Path_7369" data-name="Path 7369" d="M960.132,871.05a6.581,6.581,0,0,1,1.8-.207,3.637,3.637,0,0,1,.936.812c.076.174-.556-.132-.761-.187a1.831,1.831,0,0,0-.657.144,2.185,2.185,0,0,1-1.178.118Z" transform="translate(-954.084 -856.174)" fill="#ffb27d"/>
        <path id="Path_7370" data-name="Path 7370" d="M886.265,760.815s-2.077.127-2.8,1.13c-1.013,1.411-3.023,7.428-1.872,8.231,1.3.9,5.9.239,5.9.239a1.87,1.87,0,0,0-.06-1.062c-.213-.346-3.676-.907-3.836-1.067s2-3.116,2-3.6S886.265,760.815,886.265,760.815Z" transform="translate(-881.25 -754.611)" fill="#f99746"/>
        <path id="Path_7371" data-name="Path 7371" d="M984.544,876.851a2.988,2.988,0,0,0,.43.468.317.317,0,0,0,.175.037l-.218-.393Z" transform="translate(-976.625 -861.751)" fill="#ffb27d"/>
        <path id="Path_7372" data-name="Path 7372" d="M983.569,871.234l.942.458a.168.168,0,0,1-.156.06,2.257,2.257,0,0,1-.409-.113Z" transform="translate(-975.725 -856.565)" fill="#ffb27d"/>
      </g>
      <path id="Path_7373" data-name="Path 7373" d="M969.972,885.263l-9.845,0v.217l9.757,0Z" transform="translate(-954.08 -869.515)" fill="#233862"/>
      <path id="Path_7374" data-name="Path 7374" d="M990.154,820.948l7.455,0,2.245-5.576-7.444,0Z" transform="translate(-981.805 -804.986)" fill="#233862"/>
      <path id="Path_7375" data-name="Path 7375" d="M1054.137,847.482a.258.258,0,0,0-.253-.355.509.509,0,0,0-.457.355.258.258,0,0,0,.253.355A.509.509,0,0,0,1054.137,847.482Z" transform="translate(-1040.214 -834.306)" fill="#fff"/>
    </g>
    <g id="Group_10088" data-name="Group 10088" transform="translate(524.495 406.183)">
      <path id="Path_7376" data-name="Path 7376" d="M1665.521,1160.869a2.141,2.141,0,0,0-1.7.087c-2.892.119-3,3.083-2.66,4.186.477,1.549-1.21,2.771.661,3.4,2.171.728,3.992-.136,3.868.239C1672.555,1169.32,1667.8,1161.628,1665.521,1160.869Z" transform="translate(-1656.769 -1160.741)" fill="#163560"/>
      <path id="Path_7377" data-name="Path 7377" d="M1630.4,1276.447a7.574,7.574,0,0,1-.773,1.169c-.6.752-3.753-1.033-3.482-1.169s1.856-4.7,2.233-5.274,1.663-.871,1.663-.871Z" transform="translate(-1624.652 -1261.902)" fill="#f99746"/>
      <path id="Path_7378" data-name="Path 7378" d="M1782.658,1747.449s.87.794.7,1.358-.955.94-1.061,1.63-.531,1.066-.913,1.066h-1.821s-.281-.485.4-.632.935-.957.893-1.709a13.273,13.273,0,0,1,.064-1.755l1.443-.334Z" transform="translate(-1766.266 -1702.121)"/>
      <path id="Path_7379" data-name="Path 7379" d="M1664.844,1756.377s.313,3.364-.069,3.552l-4.889-.01s0-.564.785-.69,2.165-.585,2.4-1.609S1664.844,1756.377,1664.844,1756.377Z" transform="translate(-1655.817 -1710.712)"/>
      <path id="Path_7380" data-name="Path 7380" d="M1667.228,1270.973a19.438,19.438,0,0,1,0,2.26,6.548,6.548,0,0,1-.992,2.182c-.294.679-.626.79-.626.79l-2.567.629-.9.221-2.846-.85s-1.3-3.619-.776-5.656a15.656,15.656,0,0,1,1.316-3.451,20.3,20.3,0,0,1,5.347-.193Z" transform="translate(-1654.44 -1258.697)" fill="#f99746"/>
      <path id="Path_7381" data-name="Path 7381" d="M1717.87,1324.051c-.048.817-1.119,1.883-1.237,2.154-.294.679-.626.789-.626.789l-2.567.629-.464-1.328s3.751-.985,3.148-4.457Z" transform="translate(-1704.838 -1309.487)" fill="#ed7d2b"/>
      <path id="Path_7382" data-name="Path 7382" d="M1654.391,1396.256a42.242,42.242,0,0,0-1.5,5.881c-.09,1.494,2.695,21.221,2.807,21.909.105.649.911,1.063.911,1.063a1.22,1.22,0,0,0,.9.069,2.224,2.224,0,0,0,.966-.455s1.1-14.069.418-19.095a79.609,79.609,0,0,1-.687-9.372Z" transform="translate(-1649.356 -1378.2)" fill="#ce4141"/>
      <path id="Path_7383" data-name="Path 7383" d="M1684.045,1394.549s2.15,2.885,2.351,4.835.314,8.8.742,10.7,2,5.56,2,11.49a1.183,1.183,0,0,1-.667.521,5.522,5.522,0,0,1-.586.162.922.922,0,0,1-1.031-.489c-1.061-2.136-4.44-9.024-4.613-10.454-.123-1.012-1.189-7.709-3.517-11.639-.559-.943.343-4.7.343-4.7Z" transform="translate(-1673.038 -1376.624)" fill="#ce4141"/>
      <path id="Path_7384" data-name="Path 7384" d="M1668.583,1387.421a2.954,2.954,0,0,0,1.69.47c1.343.027,4.67-.342,4.67-.342a2.752,2.752,0,0,1,.142.849s-4.064,1.025-6.418.15A1.488,1.488,0,0,1,1668.583,1387.421Z" transform="translate(-1663.774 -1370.042)" fill="#233862"/>
      <g id="Group_10087" data-name="Group 10087" transform="translate(5.565 17.619)">
        <path id="Path_7385" data-name="Path 7385" d="M1680.01,1391.944a.7.7,0,1,1,.613-.693A.657.657,0,0,1,1680.01,1391.944Zm0-1.184a.5.5,0,1,0,.41.49A.456.456,0,0,0,1680.01,1390.76Z" transform="translate(-1679.398 -1390.557)" fill="#fff"/>
      </g>
      <path id="Path_7386" data-name="Path 7386" d="M1615.927,1340.038l-6.108.057-3.005-7.063,6.108-.057Z" transform="translate(-1606.814 -1319.77)" fill="#b5453c"/>
      <path id="Path_7387" data-name="Path 7387" d="M1677.527,1370.006l-.448-.55a1.575,1.575,0,0,0-.523-.316c-.22-.046-.684-.314-.729-.238s.357.614.357.614l.02,0c-.461.347-1.625.041-1.769.182-.174.172.24.542.462.75a1.63,1.63,0,0,0,1.352.4c.362-.113.932-.227.932-.227Z" transform="translate(-1669.213 -1352.931)" fill="#ffb27d"/>
      <path id="Path_7388" data-name="Path 7388" d="M1612.334,1346.509s.384-.436.628-.227-.064,1.239-.3,1.134S1612.2,1346.637,1612.334,1346.509Z" transform="translate(-1611.875 -1332.005)" fill="#ffb27d"/>
      <path id="Path_7389" data-name="Path 7389" d="M1709.563,1267.787a4.377,4.377,0,0,1,3,2.473c.989,1.8,2.681,5.112,2.043,6.048-.28.411-2.966,1.874-8.147,1.038a1.567,1.567,0,0,1,.5-.958s4.36-1.4,4.352-1.678c-.014-.527-.589-.982-3.025-3.418C1707.627,1270.629,1709.563,1267.787,1709.563,1267.787Z" transform="translate(-1698.822 -1259.58)" fill="#f99746"/>
      <path id="Path_7390" data-name="Path 7390" d="M1697.556,1236.8c.06-.081-.017-.337-.113-.816a8.94,8.94,0,0,1-.231-1.858l-.129.022-2.167.365s.049.579.051,1.125c0,0,0,.009,0,.014,0,.474-.128,1.191.032,1.284A2.755,2.755,0,0,0,1697.556,1236.8Z" transform="translate(-1688.161 -1228.496)" fill="#ffb27d"/>
      <path id="Path_7391" data-name="Path 7391" d="M1694.916,1234.769s.043.817.045,1.363c1.213-.029,1.86-1.207,2.122-1.727Z" transform="translate(-1688.161 -1228.756)" fill="#e8945b"/>
      <path id="Path_7392" data-name="Path 7392" d="M1675.294,1191.526s2.841-.4,2.561-2.17-.1-3.006-1.926-2.823-2.071.913-2.121,1.525S1674.548,1191.586,1675.294,1191.526Z" transform="translate(-1668.671 -1184.54)" fill="#ffb27d"/>
      <path id="Path_7393" data-name="Path 7393" d="M1684.576,1182.975s1.106,1.947,2.345,2.063a2.374,2.374,0,0,0,1.7-.285,3.414,3.414,0,0,1-1.42-1.816S1685,1181.9,1684.576,1182.975Z" transform="translate(-1678.614 -1180.818)" fill="#163560"/>
      <path id="Path_7394" data-name="Path 7394" d="M1671.843,1187.488a1.78,1.78,0,0,0-.711.764,2.888,2.888,0,0,0-.125,1.681s-.809-1.314-.279-2.215C1671.29,1186.763,1671.843,1187.488,1671.843,1187.488Z" transform="translate(-1665.662 -1185.194)" fill="#163560"/>
    </g>
    <rect id="Rectangle_3209" data-name="Rectangle 3209" width="157.864" height="0.507" rx="0.254" transform="translate(435.596 455.312)" fill="#233862"/>
  </g>
</svg>
