<svg xmlns="http://www.w3.org/2000/svg" width="305.392" height="305.392" viewBox="0 0 305.392 305.392">
  <g id="Group_10263" data-name="Group 10263" transform="translate(-20.242 -4.866)">
    <g id="Group_10258" data-name="Group 10258" transform="translate(20.242 4.867)" opacity="0.4" style="mix-blend-mode: multiply;isolation: isolate">
      <circle id="Ellipse_942" data-name="Ellipse 942" cx="90.549" cy="90.549" r="90.549" transform="translate(32.226 92.068)" fill="#fff"/>
      <circle id="Ellipse_943" data-name="Ellipse 943" cx="90.549" cy="90.549" r="90.549" transform="translate(28.834 265.942) rotate(-86.639)" fill="#fafdf7"/>
      <circle id="Ellipse_944" data-name="Ellipse 944" cx="90.549" cy="90.549" r="90.549" transform="translate(35.746 88.548)" fill="#f5fcef"/>
      <circle id="Ellipse_945" data-name="Ellipse 945" cx="90.549" cy="90.549" r="90.549" transform="translate(0 177.337) rotate(-45)" fill="#effae7"/>
      <circle id="Ellipse_946" data-name="Ellipse 946" cx="90.549" cy="90.549" r="90.549" transform="translate(1.76 175.577) rotate(-45)" fill="#eaf8df"/>
      <circle id="Ellipse_947" data-name="Ellipse 947" cx="90.549" cy="90.549" r="90.549" transform="matrix(0.522, -0.853, 0.853, 0.522, 7.079, 203.796)" fill="#e5f6d7"/>
      <circle id="Ellipse_948" data-name="Ellipse 948" cx="90.549" cy="90.549" r="90.549" transform="translate(5.28 172.057) rotate(-45)" fill="#e0f5d0"/>
      <circle id="Ellipse_949" data-name="Ellipse 949" cx="90.549" cy="90.549" r="90.549" transform="translate(7.04 170.297) rotate(-45)" fill="#daf3c8"/>
      <circle id="Ellipse_950" data-name="Ellipse 950" cx="90.549" cy="90.549" r="90.549" transform="translate(28.244 236.372) rotate(-76.987)" fill="#d5f1c0"/>
      <circle id="Ellipse_951" data-name="Ellipse 951" cx="90.549" cy="90.549" r="90.549" transform="translate(30.004 234.612) rotate(-76.987)" fill="#d0efb8"/>
      <circle id="Ellipse_952" data-name="Ellipse 952" cx="90.549" cy="90.549" r="90.549" transform="matrix(0.212, -0.977, 0.977, 0.212, 32.699, 234.327)" fill="#cbeeb0"/>
      <circle id="Ellipse_953" data-name="Ellipse 953" cx="90.549" cy="90.549" r="90.549" transform="matrix(0.174, -0.985, 0.985, 0.174, 37.224, 236.684)" fill="#c6eca8"/>
      <circle id="Ellipse_954" data-name="Ellipse 954" cx="90.549" cy="90.549" r="90.549" transform="translate(35.284 229.331) rotate(-76.987)" fill="#c0eaa0"/>
      <circle id="Ellipse_955" data-name="Ellipse 955" cx="90.549" cy="90.549" r="90.549" transform="translate(37.044 227.571) rotate(-76.987)" fill="#bbe898"/>
      <circle id="Ellipse_956" data-name="Ellipse 956" cx="90.549" cy="90.549" r="90.549" transform="translate(19.36 157.976) rotate(-45)" fill="#b6e790"/>
      <circle id="Ellipse_957" data-name="Ellipse 957" cx="90.549" cy="90.549" r="90.549" transform="translate(27.768 115.495) rotate(-26.458)" fill="#b1e588"/>
      <circle id="Ellipse_958" data-name="Ellipse 958" cx="90.549" cy="90.549" r="90.549" transform="translate(22.88 154.456) rotate(-45)" fill="#abe381"/>
      <circle id="Ellipse_959" data-name="Ellipse 959" cx="90.549" cy="90.549" r="90.549" transform="translate(24.64 152.696) rotate(-45)" fill="#a6e179"/>
      <circle id="Ellipse_960" data-name="Ellipse 960" cx="90.549" cy="90.549" r="90.549" transform="translate(26.401 150.936) rotate(-45)" fill="#a1e071"/>
      <circle id="Ellipse_961" data-name="Ellipse 961" cx="90.549" cy="90.549" r="90.549" transform="translate(28.161 149.176) rotate(-45)" fill="#9cde69"/>
      <circle id="Ellipse_962" data-name="Ellipse 962" cx="90.549" cy="90.549" r="90.549" transform="matrix(0.973, -0.23, 0.23, 0.973, 49.014, 80.145)" fill="#96dc61"/>
      <circle id="Ellipse_963" data-name="Ellipse 963" cx="90.549" cy="90.549" r="90.549" transform="translate(42.011 95.268) rotate(-21.828)" fill="#91da59"/>
      <circle id="Ellipse_964" data-name="Ellipse 964" cx="90.549" cy="90.549" r="90.549" transform="translate(43.771 93.508) rotate(-21.828)" fill="#8cd951"/>
      <circle id="Ellipse_965" data-name="Ellipse 965" cx="90.549" cy="90.549" r="90.549" transform="translate(45.531 91.748) rotate(-21.828)" fill="#87d749"/>
      <circle id="Ellipse_966" data-name="Ellipse 966" cx="90.549" cy="90.549" r="90.549" transform="matrix(0.235, -0.972, 0.972, 0.235, 55.758, 207.165)" fill="#82d541"/>
      <circle id="Ellipse_967" data-name="Ellipse 967" cx="90.549" cy="90.549" r="90.549" transform="translate(55.658 202.262) rotate(-74.803)" fill="#7cd339"/>
      <circle id="Ellipse_968" data-name="Ellipse 968" cx="90.549" cy="90.549" r="90.549" transform="translate(77.988 46.307)" fill="#77d232"/>
      <circle id="Ellipse_969" data-name="Ellipse 969" cx="90.549" cy="90.549" r="90.549" transform="translate(79.748 44.547)" fill="#72d02a"/>
      <circle id="Ellipse_970" data-name="Ellipse 970" cx="90.549" cy="90.549" r="90.549" transform="translate(81.508 42.787)" fill="#6dce22"/>
      <circle id="Ellipse_971" data-name="Ellipse 971" cx="90.549" cy="90.549" r="90.549" transform="translate(83.268 41.027)" fill="#67cc1a"/>
      <circle id="Ellipse_972" data-name="Ellipse 972" cx="90.549" cy="90.549" r="90.549" transform="translate(47.521 129.815) rotate(-45)" fill="#62cb12"/>
      <circle id="Ellipse_973" data-name="Ellipse 973" cx="90.549" cy="90.549" r="90.549" transform="translate(49.281 128.055) rotate(-45)" fill="#5dc90a"/>
    </g>
    <g id="Group_10259" data-name="Group 10259" transform="translate(69.524 4.867)">
      <circle id="Ellipse_974" data-name="Ellipse 974" cx="90.549" cy="90.549" r="90.549" transform="translate(0 128.055) rotate(-45)" fill="#5dc90a"/>
      <path id="Path_20916" data-name="Path 20916" d="M156.39,206.756a91.6,91.6,0,1,1,91.6-91.6A91.708,91.708,0,0,1,156.39,206.756Zm0-179.431a87.827,87.827,0,1,0,87.827,87.827A87.927,87.927,0,0,0,156.39,27.325Z" transform="translate(-28.334 12.053)" fill="#fff"/>
      <circle id="Ellipse_977" data-name="Ellipse 977" cx="90.549" cy="90.549" r="90.549" transform="translate(0 128.055) rotate(-45)" fill="#fff" opacity="0.1"/>
    </g>
    <g id="Group_10260" data-name="Group 10260" transform="translate(93.852 50.944)" opacity="0">
      <path id="Path_20917" data-name="Path 20917" d="M152.139,212.628A92.4,92.4,0,0,1,62.19,139.95a1.429,1.429,0,1,1,2.8-.6,89.216,89.216,0,0,0,114.769,66.055,1.43,1.43,0,0,1,.886,2.719A91.93,91.93,0,0,1,152.139,212.628Zm60.626-23.291a1.429,1.429,0,0,1-.957-2.491,89.3,89.3,0,0,0,29.45-66.2v-.366a1.429,1.429,0,0,1,1.42-1.439h.01a1.43,1.43,0,0,1,1.429,1.42v.385a92.158,92.158,0,0,1-30.393,68.321A1.434,1.434,0,0,1,212.765,189.338ZM61.591,122.174a1.353,1.353,0,0,1-1.429-1.336v-.189A92.171,92.171,0,0,1,90.414,52.46a1.428,1.428,0,1,1,1.917,2.117A89.314,89.314,0,0,0,63.02,120.649,1.514,1.514,0,0,1,61.591,122.174ZM240.65,102.894a1.43,1.43,0,0,1-1.395-1.126c-8.779-40.7-45.417-70.238-87.116-70.238a89.019,89.019,0,0,0-27.792,4.419,1.43,1.43,0,0,1-.89-2.717,91.9,91.9,0,0,1,28.682-4.56c43.035,0,80.848,30.488,89.91,72.492a1.429,1.429,0,0,1-1.1,1.7A1.366,1.366,0,0,1,240.65,102.894Z" transform="translate(-48.162 -38.672)"/>
    </g>
    <g id="Group_10262" data-name="Group 10262" transform="translate(136.805 88.42)">
      <g id="Group_10261" data-name="Group 10261">
        <path id="Path_20918" data-name="Path 20918" d="M121.714,140.582,83.136,102,97.016,88.125l24.7,24.7L184.1,50.439l13.879,13.879Z" transform="translate(-79.847 -47.148)" fill="#fff"/>
        <path id="Path_20919" data-name="Path 20919" d="M123.277,145.436,81.41,103.568,98.58,86.4l24.7,24.7,62.385-62.385,17.17,17.17ZM87.99,103.568l35.287,35.289,72.974-72.974-10.59-10.588-62.385,62.385-24.7-24.7Z" transform="translate(-81.41 -48.712)" fill="#fff"/>
      </g>
    </g>
    <g id="Ellipse_976" data-name="Ellipse 976" transform="translate(107.329 42.563)" fill="none" stroke="#000" stroke-width="2.5">
      <ellipse cx="90.5" cy="90" rx="90.5" ry="90" stroke="none"/>
      <ellipse cx="90.5" cy="90" rx="89.25" ry="88.75" fill="none"/>
    </g>
  </g>
</svg>
