<svg xmlns="http://www.w3.org/2000/svg" width="270.222" height="207.566" viewBox="0 0 270.222 207.566"><defs><style>.a{fill:#ecf3fe;}.b{fill:#dfe5ea;}.c{fill:#5b97ef;}.d{fill:#fff;}.e{fill:#e4ecf9;}.f{fill:#3b82f4;}.g{fill:#474747;opacity:0.29;}.h{fill:#f4b545;}.i{fill:#232323;opacity:0.1;}.j{fill:#46c1aa;}.k{fill:#52d1bd;}.l{fill:#3caf99;}.m{fill:#727272;}.n{fill:#302f2f;}.o{fill:#f4b698;}.p{opacity:0.28;}.q{fill:#e29586;}.r{fill:#565656;}.s{fill:#363636;opacity:0.2;}.t{fill:#eee;}.u{fill:#4786d1;}</style></defs><g transform="translate(-103.493 -86.794)"><g transform="translate(103.493 86.794)"><path class="a" d="M902.2,720.245a65.81,65.81,0,0,1,8.691-13.842c28.169-34.442,83.52-31.54,115.976-3.777,36,30.79,32.667,82.61,31.932,91.464-2.56,30.8-18.559,80.94-55.362,91.153-17.1,4.745-33.411-.591-47.643-10.489a29.834,29.834,0,0,0-36.79,2.076A50.927,50.927,0,0,1,905.4,885.3a48.755,48.755,0,0,1-25.884,2.837c-34.186-4.68-67.58-43.581-67.266-79.954C812.612,766.444,857.305,734.429,902.2,720.245Z" transform="translate(-812.249 -681.186)"/><g transform="translate(59.707 33.257)"><path class="b" d="M1747.8,1838.82v82.062c0,.1,0,.2-.009.3,0,.048,0,.1-.01.143s0,.09-.01.138c0,.019,0,.038,0,.057s-.01.062-.014.09c0,.071-.019.142-.028.214s-.024.138-.038.2a.812.812,0,0,1-.024.1.219.219,0,0,1-.014.076.777.777,0,0,1-.024.1c-.014.062-.033.124-.048.181a.087.087,0,0,1-.01.033c-.033.1-.062.209-.1.309a.018.018,0,0,1,0,.014c-.019.052-.038.1-.057.152s-.038.09-.052.133a.2.2,0,0,0-.014.038c-.057.128-.114.261-.181.385-.019.038-.043.086-.067.129s-.048.081-.071.124-.043.081-.071.119c-.047.081-.1.161-.152.238-.033.052-.067.1-.1.143-.081.1-.157.209-.243.309q-.093.114-.186.214c-.062.071-.128.138-.195.2-.028.033-.062.062-.1.1a.728.728,0,0,1-.09.081c-.034.033-.071.067-.109.1-.01.009-.024.019-.033.029-.09.08-.185.157-.281.228a.127.127,0,0,0-.029.024c-.076.052-.152.109-.233.161-.029.019-.052.038-.076.052-.043.028-.086.057-.128.081a.754.754,0,0,1-.1.062,1.31,1.31,0,0,1-.114.067,5.333,5.333,0,0,1-.837.385c-.019,0-.033.014-.052.019s-.043.014-.062.019c-.067.024-.133.047-.2.066-.119.038-.238.067-.357.1l-.186.043a1.049,1.049,0,0,1-.119.019l-.147.029c-.009,0-.014,0-.019,0l-.119.014c-.019,0-.038,0-.057,0l-.1.014c-.019,0-.038,0-.062,0l-.219.014c-.1,0-.209.009-.314.009H1596.874c-.1,0-.209,0-.314-.009l-.219-.014a2.135,2.135,0,0,1-.243-.029,1.268,1.268,0,0,1-.138-.019c-.114-.014-.228-.038-.338-.062a.682.682,0,0,1-.095-.024c-.119-.029-.238-.057-.357-.1-.071-.024-.138-.043-.2-.066a6.407,6.407,0,0,1-.923-.4l-.214-.128c-.081-.047-.162-.1-.238-.152a5.919,5.919,0,0,1-1.251-1.136q-.128-.15-.243-.314a5.619,5.619,0,0,1-.652-1.17c-.038-.1-.076-.2-.114-.3s-.066-.2-.1-.309-.057-.209-.081-.314-.043-.2-.062-.295c0-.014,0-.033-.009-.047-.015-.1-.029-.195-.038-.29a.036.036,0,0,1,0-.024c-.009-.076-.014-.147-.019-.223-.014-.147-.019-.295-.019-.447V1838.82a5.848,5.848,0,0,1,2.14-4.531.255.255,0,0,1,.038-.029l.3-.233a5.831,5.831,0,0,1,3.391-1.079h145.055a4.075,4.075,0,0,1,.418.019.2.2,0,0,1,.076,0c.133.01.271.024.4.043l.091.014c.114.019.228.043.338.071a.546.546,0,0,1,.086.019c.138.033.271.071.4.114s.252.086.371.133a4.724,4.724,0,0,1,.5.233,2.8,2.8,0,0,1,.266.143,3.8,3.8,0,0,1,.438.285c0-.005,0,0,0,0l.3.233a.252.252,0,0,1,.038.029c.081.062.152.128.224.195.057.048.11.1.162.152a5.115,5.115,0,0,1,.457.5q.1.121.186.242a5.522,5.522,0,0,1,.623,1.093c.047.1.09.214.133.323,0,0,0,.01,0,.014a5.443,5.443,0,0,1,.166.537c.024.09.043.176.062.266.014.071.029.138.038.209s.024.142.033.214a2.343,2.343,0,0,1,.028.257,1.665,1.665,0,0,1,.015.219C1747.8,1838.616,1747.8,1838.72,1747.8,1838.82Z" transform="translate(-1591 -1777.947)"/><path class="c" d="M1751.689,1174.049h-156.1a5.867,5.867,0,0,1,1.788-2.524.268.268,0,0,1,.038-.029l.3-.233,72.321-54.869a5.946,5.946,0,0,1,7.2,0l72.316,54.869s0,0,0,0l.3.233a.272.272,0,0,1,.038.029c.081.062.152.128.224.195.057.048.11.1.162.152a5.13,5.13,0,0,1,.457.5q.1.121.185.242a5.516,5.516,0,0,1,.623,1.093c.047.1.09.214.133.323C1751.684,1174.039,1751.689,1174.044,1751.689,1174.049Z" transform="translate(-1595.238 -1115.181)"/><path class="d" d="M68.111,0h0a68.111,68.111,0,0,1,68.111,68.111v65.935a0,0,0,0,1,0,0H0a0,0,0,0,1,0,0V68.111A68.111,68.111,0,0,1,68.111,0Z" transform="translate(9.322 10.487)"/><rect class="e" width="105.195" height="6.18" rx="3.09" transform="translate(24.836 33.968)"/><path class="e" d="M3.09,0H102.1a3.09,3.09,0,0,1,3.09,3.09v0a3.09,3.09,0,0,1-3.09,3.09H3.09A3.09,3.09,0,0,1,0,3.09v0A3.09,3.09,0,0,1,3.09,0Z" transform="translate(24.836 47.171)"/><path class="e" d="M3.09,0H102.1a3.09,3.09,0,0,1,3.09,3.09v0a3.09,3.09,0,0,1-3.09,3.09H3.09A3.09,3.09,0,0,1,0,3.09v0A3.09,3.09,0,0,1,3.09,0Z" transform="translate(24.836 60.374)"/><path class="e" d="M3.09,0H102.1a3.09,3.09,0,0,1,3.09,3.09v0a3.09,3.09,0,0,1-3.09,3.09H3.09A3.09,3.09,0,0,1,0,3.09v0A3.09,3.09,0,0,1,3.09,0Z" transform="translate(24.836 73.577)"/><path class="e" d="M3.09,0H102.1a3.09,3.09,0,0,1,3.09,3.09v0a3.09,3.09,0,0,1-3.09,3.09H3.09A3.09,3.09,0,0,1,0,3.09v0A3.09,3.09,0,0,1,3.09,0Z" transform="translate(24.836 86.779)"/><path class="f" d="M1669.4,1882.052v0a3.847,3.847,0,0,1-.809.666l-71.4,44.03h-.323a5.737,5.737,0,0,1-1.7-.252c-.076-.024-.152-.047-.224-.071a5.82,5.82,0,0,1-2.421-1.6q-.093-.1-.186-.214a5.444,5.444,0,0,1-.49-.689c-.053-.081-.1-.162-.143-.242s-.09-.171-.128-.257a5.839,5.839,0,0,1-.58-2.543V1838.82a5.848,5.848,0,0,1,2.14-4.531.255.255,0,0,1,.038-.029l.3-.233a5.831,5.831,0,0,1,3.391-1.079h1.341l6.269,3.865,57.79,35.64,2.173,1.341,4.147,2.558a3.847,3.847,0,0,1,.809.666v0A3.754,3.754,0,0,1,1669.4,1882.052Z" transform="translate(-1591 -1777.947)"/><path class="f" d="M2680.329,1838.82v82.062c0,.1,0,.2-.009.3a1.406,1.406,0,0,1-.01.143c0,.043,0,.09-.01.138,0,.019,0,.038,0,.057s-.01.062-.014.09c-.005.071-.019.142-.029.214s-.023.138-.038.2c0,.01,0,.024,0,.033a.513.513,0,0,1-.019.067.211.211,0,0,1-.014.076.82.82,0,0,1-.024.1c-.015.062-.029.119-.048.181a.083.083,0,0,1-.01.033,3.189,3.189,0,0,1-.1.309.017.017,0,0,1,0,.014c-.019.052-.033.1-.057.152s-.033.085-.052.133a.308.308,0,0,0-.014.038c-.057.128-.114.261-.181.385-.019.038-.042.086-.066.129s-.048.081-.072.124-.042.081-.071.119c-.048.081-.1.161-.152.238-.034.052-.067.1-.1.143-.081.109-.162.209-.243.309-.062.076-.124.147-.186.214s-.128.138-.195.2c-.029.033-.062.062-.1.1a.719.719,0,0,1-.09.081c-.033.033-.071.067-.109.1-.01.009-.024.019-.033.029-.091.08-.186.157-.281.228a.121.121,0,0,0-.028.024c-.077.052-.152.109-.233.161-.029.019-.052.038-.077.052-.042.028-.086.057-.128.081a.752.752,0,0,1-.1.062,1.316,1.316,0,0,1-.114.067,5.326,5.326,0,0,1-.837.385.547.547,0,0,0-.052.019c-.019,0-.043.014-.062.019-.066.024-.133.047-.2.066-.119.038-.238.067-.357.1l-.185.043a1.064,1.064,0,0,1-.119.019l-.147.029h-.014c-.043,0-.086.014-.124.019-.019,0-.038,0-.057,0l-.1.014c-.019,0-.038,0-.062,0l-.219.014c-.1,0-.209.009-.314.009h-.323l-71.4-44.03a3.7,3.7,0,0,1-.8-.666v0a3.744,3.744,0,0,1,0-5.03v0a3.7,3.7,0,0,1,.8-.666l4.143-2.558,2.174-1.341,57.794-35.64,6.269-3.865h1.341a4.074,4.074,0,0,1,.418.019.2.2,0,0,1,.076,0c.134.01.271.024.4.043l.09.014c.114.019.228.043.338.071a.552.552,0,0,1,.086.019c.138.033.271.071.4.114s.252.086.371.133a4.69,4.69,0,0,1,.5.233,2.792,2.792,0,0,1,.267.143,3.852,3.852,0,0,1,.438.285c0-.005,0,0,0,0l.3.233a.262.262,0,0,1,.038.029c.081.062.152.128.224.195.057.048.11.1.161.152a5.121,5.121,0,0,1,.457.5q.1.121.185.242a5.529,5.529,0,0,1,.623,1.093c.047.1.09.214.133.323,0,0,.005.01.005.014a5.51,5.51,0,0,1,.167.537c.024.09.043.176.062.266.014.071.028.138.038.209s.024.142.033.214a2.344,2.344,0,0,1,.029.257,1.686,1.686,0,0,1,.014.219C2680.324,1838.616,2680.329,1838.72,2680.329,1838.82Z" transform="translate(-2523.526 -1777.947)"/><path class="g" d="M1747.8,2361v.853a6.006,6.006,0,0,1-5.874,6.128H1596.874a6.006,6.006,0,0,1-5.874-6.128V2361l74.608-49.062a6.86,6.86,0,0,1,7.582,0Z" transform="translate(-1591 -2219.179)"/><path class="c" d="M1747.8,2390.229v.818a5.873,5.873,0,0,1-5.874,5.871H1596.874a5.873,5.873,0,0,1-5.874-5.871v-.818l74.608-47a7.112,7.112,0,0,1,7.582,0Z" transform="translate(-1591 -2248.112)"/><rect class="f" width="48.753" height="6.18" rx="3.09" transform="translate(24.836 20.766)"/></g><path class="h" d="M908.14,1503.87H908.1c-1.739-.069-3.49-.219-5.2-.446a.962.962,0,1,1,.253-1.907c1.655.219,3.346.365,5.027.431a.962.962,0,0,1-.038,1.924Zm5.131-.024a.962.962,0,0,1-.046-1.924c1.66-.081,3.353-.235,5.031-.459a.962.962,0,1,1,.255,1.907c-1.732.231-3.479.391-5.193.474Zm-15.3-1.328a.977.977,0,0,1-.217-.025c-1.688-.388-3.381-.862-5.03-1.409a.962.962,0,1,1,.606-1.826c1.593.528,3.227.985,4.856,1.359a.962.962,0,0,1-.215,1.9Zm25.467-.019a.962.962,0,0,1-.2-1.9c1.633-.351,3.284-.771,4.906-1.249a.962.962,0,1,1,.544,1.846c-1.669.492-3.367.923-5.046,1.284A.959.959,0,0,1,923.441,1502.5Zm9.849-2.889a.962.962,0,0,1-.337-1.864c1.573-.586,3.15-1.236,4.688-1.932a.962.962,0,1,1,.794,1.753c-1.577.714-3.2,1.381-4.809,1.983A.967.967,0,0,1,933.29,1499.609Zm-45.06-.3a.968.968,0,0,1-.378-.078c-1.558-.667-3.142-1.416-4.707-2.225a.962.962,0,1,1,.884-1.709c1.525.787,3.066,1.516,4.582,2.165a.962.962,0,0,1-.38,1.847Zm54.411-3.933a.962.962,0,0,1-.459-1.809c1.354-.732,2.642-1.487,3.828-2.245a.962.962,0,1,1,1.037,1.622c-1.226.784-2.555,1.563-3.949,2.316A.96.96,0,0,1,942.642,1495.371Zm-63.536-.774a.959.959,0,0,1-.5-.139c-1.491-.9-2.956-1.863-4.353-2.848a.962.962,0,1,1,1.11-1.572c1.361.96,2.789,1.894,4.242,2.775a.962.962,0,0,1-.5,1.785Zm-8.386-5.926a.959.959,0,0,1-.612-.22c-1.3-1.074-2.555-2.19-3.72-3.318a.976.976,0,0,1,1.007-1.672,43.56,43.56,0,0,0,4.709.787.962.962,0,1,1-.212,1.913q-.892-.1-1.79-.235.606.525,1.23,1.04a.962.962,0,0,1-.613,1.7Zm6.4-2.243a.962.962,0,0,1-.008-1.925c1.341-.011,2.7-.089,4.026-.23.273-.029.594-.063.993-.111a.962.962,0,1,1,.228,1.91c-.408.049-.738.084-.978.11q-2.149.228-4.252.246Zm10.2-1.189a.962.962,0,0,1-.2-1.9c1.677-.353,3.323-.777,4.892-1.261a.962.962,0,1,1,.568,1.839c-1.625.5-3.329.94-5.063,1.3A.966.966,0,0,1,887.322,1485.24Zm-25.31-1.361a.958.958,0,0,1-.319-.055,48.183,48.183,0,0,1-4.838-2,.963.963,0,1,1,.833-1.735,46.076,46.076,0,0,0,4.643,1.924.962.962,0,0,1-.319,1.87Zm35.114-1.685a.962.962,0,0,1-.381-1.847,38.627,38.627,0,0,0,4.469-2.262.962.962,0,1,1,.984,1.655,40.47,40.47,0,0,1-4.692,2.375A.965.965,0,0,1,897.127,1482.193Zm-33.726-.7a.961.961,0,0,1-.738-.344,44.413,44.413,0,0,1-3.138-4.2.963.963,0,0,1,1.61-1.055,42.537,42.537,0,0,0,3,4.019.962.962,0,0,1-.737,1.581Zm-10.631-2.041a.961.961,0,0,1-.506-.144,49.694,49.694,0,0,1-4.3-2.984.962.962,0,1,1,1.18-1.52,47.78,47.78,0,0,0,4.131,2.867.963.963,0,0,1-.507,1.781Zm53.129-2.532a.962.962,0,0,1-.62-1.7,25.32,25.32,0,0,0,3.462-3.516.963.963,0,0,1,1.5,1.206,27.3,27.3,0,0,1-3.724,3.784A.959.959,0,0,1,905.9,1476.919Zm-61.225-3.749a.959.959,0,0,1-.668-.269,48.437,48.437,0,0,1-3.571-3.826.962.962,0,1,1,1.477-1.234,46.793,46.793,0,0,0,3.43,3.674.962.962,0,0,1-.668,1.656Zm13.153-.263a.963.963,0,0,1-.873-.556,30.683,30.683,0,0,1-1.821-4.966.963.963,0,0,1,1.859-.5,28.752,28.752,0,0,0,1.707,4.652.962.962,0,0,1-.872,1.368Zm54.421-3.948a.962.962,0,0,1-.862-1.388A22.787,22.787,0,0,0,913,1463.23l.07-.272a.963.963,0,0,1,1.868.467l-.074.29a24.7,24.7,0,0,1-1.751,4.708A.963.963,0,0,1,912.248,1468.96Zm-74.142-3.649a.962.962,0,0,1-.8-.431,46.04,46.04,0,0,1-2.641-4.524.962.962,0,0,1,1.716-.873,44.138,44.138,0,0,0,2.531,4.335.962.962,0,0,1-.8,1.494Zm17.115-2.258a.963.963,0,0,1-.96-.9c-.036-.548-.053-1.1-.053-1.655a25.878,25.878,0,0,1,.262-3.661.963.963,0,0,1,1.906.274,23.925,23.925,0,0,0-.243,3.387c0,.509.017,1.024.049,1.53a.962.962,0,0,1-.9,1.022Zm59.508-3.971h-.042a.963.963,0,0,1-.92-1q.024-.557.024-1.115a27.194,27.194,0,0,0-.274-3.824.963.963,0,0,1,1.906-.271,29.127,29.127,0,0,1,.293,4.1q0,.6-.025,1.2A.963.963,0,0,1,914.729,1459.082Zm-81.274-2.9a.963.963,0,0,1-.9-.626,47.482,47.482,0,0,1-1.555-5,.963.963,0,0,1,1.867-.469,45.529,45.529,0,0,0,1.492,4.8.963.963,0,0,1-.9,1.3Zm23.179-3.23a.963.963,0,0,1-.911-1.272,34.884,34.884,0,0,1,2.082-4.846.963.963,0,0,1,1.708.889,32.951,32.951,0,0,0-1.967,4.577A.963.963,0,0,1,856.633,1452.956Zm56.678-3.984a.963.963,0,0,1-.916-.667,31,31,0,0,0-1.9-4.593.963.963,0,0,1,1.714-.876,32.931,32.931,0,0,1,2.022,4.879.963.963,0,0,1-.917,1.258Zm-82.366-2.718a.963.963,0,0,1-.952-.827,52.154,52.154,0,0,1-.469-5.206.963.963,0,0,1,1.924-.077,50.17,50.17,0,0,0,.452,5.012.964.964,0,0,1-.954,1.1Zm30.384-2.389a.962.962,0,0,1-.786-1.516,41.622,41.622,0,0,1,3.292-4.093.962.962,0,1,1,1.422,1.3,39.773,39.773,0,0,0-3.14,3.9A.961.961,0,0,1,861.329,1443.865Zm47.329-3.994a.963.963,0,0,1-.778-.394,30.365,30.365,0,0,0-3.254-3.758.962.962,0,1,1,1.347-1.375,32.3,32.3,0,0,1,3.461,4,.962.962,0,0,1-.776,1.531Zm-40.417-3.566a.962.962,0,0,1-.623-1.7,38.8,38.8,0,0,1,4.233-3.124.962.962,0,1,1,1.034,1.623,36.826,36.826,0,0,0-4.022,2.968A.959.959,0,0,1,868.242,1436.3Zm-37.71-.29-.056,0a.962.962,0,0,1-.906-1.016,51.907,51.907,0,0,1,.559-5.2.963.963,0,0,1,1.9.3,50.029,50.029,0,0,0-.537,5A.963.963,0,0,1,830.532,1436.015Zm70.8-3.27a.958.958,0,0,1-.539-.166,25.043,25.043,0,0,0-4.334-2.359.962.962,0,1,1,.746-1.774,26.974,26.974,0,0,1,4.668,2.541.962.962,0,0,1-.541,1.759Zm-24.443-1.907a.962.962,0,0,1-.388-1.843,30.3,30.3,0,0,1,5.01-1.706.962.962,0,1,1,.455,1.87,28.391,28.391,0,0,0-4.691,1.6A.956.956,0,0,1,876.889,1430.838Zm15.035-2.008a.986.986,0,0,1-.174-.016,22.417,22.417,0,0,0-4.016-.362c-.272,0-.591.006-.886.017a.962.962,0,1,1-.074-1.923c.32-.012.662-.006.961-.018a24.364,24.364,0,0,1,4.361.393.962.962,0,0,1-.172,1.909Zm-59.738-2.926a.963.963,0,0,1-.927-1.223,48.766,48.766,0,0,1,1.687-4.95.963.963,0,0,1,1.787.718,46.679,46.679,0,0,0-1.62,4.754A.963.963,0,0,1,832.185,1425.9Zm3.815-9.5a.963.963,0,0,1-.849-1.413,50.926,50.926,0,0,1,2.687-4.486.963.963,0,0,1,1.6,1.072,49.034,49.034,0,0,0-2.586,4.315A.962.962,0,0,1,836,1416.4Zm5.706-8.514a.962.962,0,0,1-.742-1.575c1.1-1.332,2.286-2.631,3.521-3.861a.962.962,0,1,1,1.359,1.363c-1.191,1.187-2.333,2.439-3.4,3.724A.96.96,0,0,1,841.707,1407.89Zm7.262-7.24a.962.962,0,0,1-.613-1.7c1.331-1.1,2.736-2.154,4.175-3.137a.962.962,0,1,1,1.087,1.589c-1.391.95-2.749,1.97-4.036,3.032A.958.958,0,0,1,848.969,1400.65Zm8.47-5.789a.962.962,0,0,1-.472-1.8c1.506-.844,3.074-1.635,4.66-2.351a.962.962,0,1,1,.792,1.753c-1.535.694-3.053,1.459-4.511,2.276A.958.958,0,0,1,857.439,1394.861Zm9.352-4.227a.962.962,0,0,1-.321-1.87c1.628-.574,3.3-1.089,4.983-1.529a.962.962,0,1,1,.488,1.862c-1.627.426-3.252.925-4.83,1.482A.968.968,0,0,1,866.791,1390.634Z" transform="translate(-828.199 -1333.102)"/><g transform="translate(13.969 29.474)"><path class="i" d="M1067.086,1085.262l-72.635,9.687,17.61,13.35.276,24.571,15.175-12.883,8.527,6.426Z" transform="translate(-994.451 -1083.772)"/><g transform="translate(1.585)"><path class="j" d="M1243.551,1113.424l-.4-35.891,55.152-11.716Z" transform="translate(-1225.666 -1065.816)"/><path class="k" d="M1032.852,1088.943c.279-.14,54.906-23.127,54.906-23.127l-72.635,9.687Z" transform="translate(-1015.123 -1065.816)"/><path class="l" d="M1254.267,1409.881l-5.864,19.9,25.152-21.353Z" transform="translate(-1230.517 -1382.173)"/><path class="k" d="M1324.89,1093.524l17.838,13.443,31.047-41.151Z" transform="translate(-1301.14 -1065.816)"/></g></g><path class="i" d="M2992.6,1929.494a1.688,1.688,0,0,0-1.787-1.573l-64.906,4.124a1.688,1.688,0,0,0-1.574,1.786l1.676,26.352a1.689,1.689,0,0,0,1.787,1.573l64.906-4.124a1.688,1.688,0,0,0,1.573-1.786Z" transform="translate(-2762.4 -1832.381)"/><g transform="translate(162.074 93.114)"><path class="d" d="M3014.116,1926.017l-64.906,4.124a1.689,1.689,0,0,1-1.788-1.573l-1.676-26.352a1.688,1.688,0,0,1,1.573-1.786l64.906-4.124a1.689,1.689,0,0,1,1.788,1.573l1.676,26.352A1.689,1.689,0,0,1,3014.116,1926.017Z" transform="translate(-2944.242 -1896.303)"/><path class="f" d="M3389.743,1966.9l-28.324,1.8a1.336,1.336,0,0,1-1.413-1.244l0-.067a1.335,1.335,0,0,1,1.245-1.413l28.323-1.8a1.335,1.335,0,0,1,1.413,1.244l0,.066A1.335,1.335,0,0,1,3389.743,1966.9Z" transform="translate(-3326.738 -1958.972)"/><path class="a" d="M3394.67,2044.4l-28.324,1.8a1.335,1.335,0,0,1-1.413-1.244l0-.067a1.335,1.335,0,0,1,1.245-1.413l28.323-1.8a1.335,1.335,0,0,1,1.414,1.244l0,.067A1.335,1.335,0,0,1,3394.67,2044.4Z" transform="translate(-3331.286 -2030.539)"/><path class="a" d="M3399.6,2121.91l-28.323,1.8a1.335,1.335,0,0,1-1.414-1.244l0-.066a1.336,1.336,0,0,1,1.245-1.413l28.323-1.8a1.335,1.335,0,0,1,1.413,1.244l0,.067A1.335,1.335,0,0,1,3399.6,2121.91Z" transform="translate(-3335.834 -2102.105)"/><path class="a" d="M3404.523,2199.416l-28.324,1.8a1.335,1.335,0,0,1-1.413-1.244l0-.066a1.335,1.335,0,0,1,1.245-1.412l28.323-1.8a1.335,1.335,0,0,1,1.413,1.244l0,.067A1.335,1.335,0,0,1,3404.523,2199.416Z" transform="translate(-3340.384 -2173.671)"/><g transform="translate(0 0.435)"><circle class="a" cx="12.501" cy="12.501" r="12.501" transform="translate(0 17.679) rotate(-45)"/><g transform="translate(10.825 7.71)"><path class="m" d="M3096.495,2200.565a9.852,9.852,0,0,1-2.138,1.433,9.577,9.577,0,0,1-1.226.51,9.7,9.7,0,0,1-1.385.359,9.955,9.955,0,0,1-7.38-1.532,5.761,5.761,0,0,1,3.3-3.012h0a5.342,5.342,0,0,1,.781-.214l.032-.007a5.505,5.505,0,0,1,.722-.093l2.076-.132a5.606,5.606,0,0,1,.728,0,.165.165,0,0,1,.033,0,5.391,5.391,0,0,1,.8.114h0A5.756,5.756,0,0,1,3096.495,2200.565Z" transform="translate(-3083.062 -2182.902)"/><path class="n" d="M3088.816,2007.92l.425,6.685a2.671,2.671,0,0,1-2.5,2.837l-6.287.4a2.672,2.672,0,0,1-2.836-2.5l-.426-6.685c-.378-5.937,5.45-6.039,5.45-6.039a6.924,6.924,0,0,1,3.036.461,4.949,4.949,0,0,1,3.08,4.274C3088.785,2007.536,3088.8,2007.725,3088.816,2007.92Z" transform="translate(-3076.425 -2002.6)"/><path class="o" d="M3140.291,2167.614l.125,1.966a1.825,1.825,0,0,1-3.591.228l-.125-1.966a1.364,1.364,0,0,1,.311-.941,1.566,1.566,0,0,1,.166-.179,1.8,1.8,0,0,1,.393-.279,2.083,2.083,0,0,1,1.68-.107,1.786,1.786,0,0,1,.425.226l.02.014a1.48,1.48,0,0,1,.168.143A1.36,1.36,0,0,1,3140.291,2167.614Z" transform="translate(-3131.381 -2153.671)"/><path class="p" d="M3100.545,2039.9l.182,2.863a4.705,4.705,0,0,1-2.8,4.59l.048.755a4.639,4.639,0,0,1-1.585.387l-.384.024a4.64,4.64,0,0,1-1.622-.183l-.048-.755a4.706,4.706,0,0,1-3.358-4.2l-.182-2.863a4.705,4.705,0,0,1,4.385-4.955l.384-.024a4.665,4.665,0,0,1,2.976.836h0A4.688,4.688,0,0,1,3100.545,2039.9Z" transform="translate(-3088.993 -2033.008)"/><path class="o" d="M3099.935,2030.063l.229,3.6a4.661,4.661,0,0,1-.662,2.705l0,0a5.017,5.017,0,0,1-.366.523,4.725,4.725,0,0,1-1.768,1.359,4.639,4.639,0,0,1-1.586.386l-.384.024a4.625,4.625,0,0,1-1.62-.182,4.707,4.707,0,0,1-3.359-4.2l-.228-3.577c0-.05,0-.1-.006-.15a4.7,4.7,0,0,1,4.389-4.846l.384-.024a4.659,4.659,0,0,1,2.888.778,4.706,4.706,0,0,1,1.147,1.078,4.656,4.656,0,0,1,.944,2.526Z" transform="translate(-3088.43 -2023.904)"/><g transform="translate(11.506 6.175)"><path class="o" d="M3219.429,2084.945a1.879,1.879,0,0,1-1.756,1.994l-.239-3.749a1.869,1.869,0,0,1,.742.1h0A1.878,1.878,0,0,1,3219.429,2084.945Z" transform="translate(-3217.434 -2083.186)"/><path class="q" d="M3219.26,2093.609a1.163,1.163,0,0,1-1.087,1.235l-.148-2.321A1.163,1.163,0,0,1,3219.26,2093.609Z" transform="translate(-3217.979 -2091.805)"/></g><path class="r" d="M3132.528,2199.54h0l-1.1,4.873a10,10,0,0,1-2.378.151l-1.706-4.7h0l.991-.063.037.034,1.667,1.517,1.464-1.716.033-.039Z" transform="translate(-3122.747 -2184.448)"/><g transform="translate(0 6.798)"><path class="o" d="M3069.117,2091.317l.238,3.749a1.878,1.878,0,0,1-.656-3.674c.028-.009.057-.017.086-.023l.047-.009A1.794,1.794,0,0,1,3069.117,2091.317Z" transform="translate(-3067.358 -2091.317)"/><path class="q" d="M3076.688,2101.866a1.164,1.164,0,0,0,1.235,1.087l-.147-2.321A1.164,1.164,0,0,0,3076.688,2101.866Z" transform="translate(-3075.97 -2099.918)"/></g><path class="r" d="M3199.572,2251.807a9.559,9.559,0,0,1-1.226.51l-.027-.43Z" transform="translate(-3188.278 -2232.71)"/><path class="s" d="M3162.5,2201.351l1.456.9,1.03-2.717Z" transform="translate(-3155.208 -2184.442)"/><path class="t" d="M3164.989,2197.543l-1.061,2.626-1.426-.808,1.5-1.755.2-.228Z" transform="translate(-3155.208 -2182.452)"/><path class="s" d="M3127.352,2203.829l1.353,2.565,1.342-1.076Z" transform="translate(-3122.752 -2188.408)"/><path class="t" d="M3130.046,2202.13l-1.311.982-1.384-2.471.768-.264.222.2Z" transform="translate(-3122.752 -2185.222)"/><path class="n" d="M3190.333,2018.893c-3.478.474-3.346-2.707-3.08-4.274A4.95,4.95,0,0,1,3190.333,2018.893Z" transform="translate(-3177.949 -2013.698)"/><path class="n" d="M3088.019,2018.929c-.108.2-1.175,2.443-3.342,2.581s-5.526,1.658-5.495,3.822-3.133-6.416,3.406-7.516S3088.019,2018.929,3088.019,2018.929Z" transform="translate(-3077.594 -2016.367)"/></g></g></g><path class="k" d="M2825.063,2240.271q-.686,0-1.372-.029a.962.962,0,1,1,.078-1.922,32.134,32.134,0,0,0,4.975-.186.962.962,0,1,1,.219,1.912A34.292,34.292,0,0,1,2825.063,2240.271Zm-6.421-.662a.948.948,0,0,1-.2-.021,31.557,31.557,0,0,1-5.062-1.523.962.962,0,1,1,.708-1.79,29.5,29.5,0,0,0,4.751,1.429.962.962,0,0,1-.2,1.9Zm15.252-.506a.962.962,0,0,1-.244-1.893,38.608,38.608,0,0,0,4.749-1.585.962.962,0,1,1,.726,1.783,40.634,40.634,0,0,1-4.986,1.664A.974.974,0,0,1,2833.895,2239.1Zm-24.759-3.235a.954.954,0,0,1-.491-.136,36.906,36.906,0,0,1-4.319-3.017.963.963,0,0,1,1.212-1.5,34.929,34.929,0,0,0,4.091,2.86.962.962,0,0,1-.493,1.789Zm34.257-.607a.962.962,0,0,1-.468-1.8,44.165,44.165,0,0,0,4.245-2.683.963.963,0,1,1,1.12,1.566,46.051,46.051,0,0,1-4.431,2.8A.957.957,0,0,1,2843.393,2235.261Zm-42.234-5.809a.96.96,0,0,1-.695-.3,48.094,48.094,0,0,1-3.412-3.977.963.963,0,0,1,1.526-1.173,46.123,46.123,0,0,0,3.275,3.817.962.962,0,0,1-.695,1.629Zm50.571-.143a.962.962,0,0,1-.646-1.677,43.236,43.236,0,0,0,3.529-3.57.963.963,0,1,1,1.447,1.269,45.144,45.144,0,0,1-3.687,3.73A.963.963,0,0,1,2851.73,2229.309Zm3.309-5.717a.962.962,0,0,1-.093-1.92,23.538,23.538,0,0,0,2.772-.441.963.963,0,0,1-.041-1.132,34.176,34.176,0,0,0,2.487-4.324.962.962,0,0,1,1.736.83,35.885,35.885,0,0,1-2.345,4.146l.218-.067a.962.962,0,1,1,.575,1.837,26,26,0,0,1-5.215,1.066A.89.89,0,0,1,2855.038,2223.592Zm-5.12-.074a.919.919,0,0,1-.124-.008,27.423,27.423,0,0,1-5.178-1.209.962.962,0,1,1,.611-1.825,25.467,25.467,0,0,0,4.812,1.126.962.962,0,0,1-.121,1.917Zm-55.029-2.185a.963.963,0,0,1-.818-.453c-.933-1.5-1.794-3.031-2.557-4.565a.963.963,0,0,1,1.724-.857c.736,1.478,1.565,2.959,2.466,4.4a.962.962,0,0,1-.815,1.472Zm69.9-.751a.962.962,0,0,1-.453-1.812,29.654,29.654,0,0,0,4.17-2.7.962.962,0,1,1,1.176,1.524,31.668,31.668,0,0,1-4.442,2.87A.959.959,0,0,1,2864.789,2220.582Zm-24.573-.274a.952.952,0,0,1-.458-.117,27.937,27.937,0,0,1-4.415-2.952.962.962,0,1,1,1.222-1.487,26.054,26.054,0,0,0,4.111,2.747.962.962,0,0,1-.46,1.808Zm32.683-5.946a.962.962,0,0,1-.7-1.625,34.606,34.606,0,0,0,3.162-3.858.962.962,0,1,1,1.573,1.109,36.306,36.306,0,0,1-3.339,4.074A.959.959,0,0,1,2872.9,2214.363Zm-40.513-.578a.963.963,0,0,1-.768-.38,18.782,18.782,0,0,1-2.628-4.7.963.963,0,0,1,1.8-.68,16.837,16.837,0,0,0,2.361,4.22.962.962,0,0,1-.766,1.544Zm30.454-1.425a.947.947,0,0,1-.255-.034.962.962,0,0,1-.674-1.182,22.215,22.215,0,0,0,.789-4.843.963.963,0,0,1,1.923.09,24.186,24.186,0,0,1-.856,5.262A.963.963,0,0,1,2862.84,2212.359Zm15.97-6.346a.963.963,0,0,1-.854-1.4,38.373,38.373,0,0,0,2-4.585.963.963,0,0,1,1.812.652,40.164,40.164,0,0,1-2.1,4.816A.962.962,0,0,1,2878.81,2206.013Zm-49.958-1.69a.963.963,0,0,1-.961-.916c-.014-.3-.022-.594-.022-.89a19.63,19.63,0,0,1,.528-4.467.962.962,0,0,1,1.874.438,17.744,17.744,0,0,0-.476,4.029c0,.266.007.531.02.8a.962.962,0,0,1-.915,1.008Zm34.4-2.12a.964.964,0,0,1-.943-.774,25.966,25.966,0,0,0-1.441-4.729.963.963,0,0,1,1.782-.729,27.964,27.964,0,0,1,1.547,5.081.963.963,0,0,1-.755,1.132A.951.951,0,0,1,2863.254,2202.2Zm-32.154-7.778a.962.962,0,0,1-.858-1.4,23.281,23.281,0,0,1,2.954-4.455.963.963,0,1,1,1.471,1.242,21.314,21.314,0,0,0-2.709,4.085A.963.963,0,0,1,2831.1,2194.425Zm28.3-1.68a.96.96,0,0,1-.812-.444,23.674,23.674,0,0,0-3.056-3.859.962.962,0,0,1,1.371-1.351,25.568,25.568,0,0,1,3.307,4.173.963.963,0,0,1-.81,1.481Zm-21.708-6.064a.962.962,0,0,1-.556-1.749,16.787,16.787,0,0,1,4.86-2.4.962.962,0,1,1,.551,1.844,14.869,14.869,0,0,0-4.3,2.131A.96.96,0,0,1,2837.694,2186.681Zm14.48-1.086a.953.953,0,0,1-.469-.123,12.274,12.274,0,0,0-4.478-1.514.962.962,0,1,1,.238-1.909,14.161,14.161,0,0,1,5.181,1.745.962.962,0,0,1-.471,1.8Z" transform="translate(-2639.672 -2067.031)"/><g transform="translate(217.166 95.07)"><circle class="i" cx="18.758" cy="18.758" r="18.758" transform="translate(0 26.528) rotate(-45)"/><g transform="translate(11.757 5.54)"><ellipse class="h" cx="18.758" cy="18.748" rx="18.758" ry="18.748"/><g transform="translate(5.643 5.799)"><path class="d" d="M3888.135,2077.313l.444-1.472,3.561.253-2.738,9.519a7.677,7.677,0,0,0-.275,1.2.709.709,0,0,0,.121.5.48.48,0,0,0,.358.2,3.356,3.356,0,0,0,1.949-.817,8.257,8.257,0,0,0,2.193-2.445,7.909,7.909,0,0,0,.715-6.608,7.11,7.11,0,0,0-1.6-2.606,8.25,8.25,0,0,0-2.749-1.848,11.763,11.763,0,0,0-3.822-.868,13.512,13.512,0,0,0-4.074.286,10.232,10.232,0,0,0-3.34,1.416,9.244,9.244,0,0,0-2.508,2.484,11.539,11.539,0,0,0-1.471,2.957,13.637,13.637,0,0,0-.674,3.379,9.677,9.677,0,0,0,.622,4.305,8.6,8.6,0,0,0,2.455,3.413,11.055,11.055,0,0,0,4.124,2.15,17.925,17.925,0,0,0,5.622.623,13.417,13.417,0,0,0,4.309-.832,8.346,8.346,0,0,0,3.1-2.137l2.873.2a9.562,9.562,0,0,1-2.011,2.445,10.381,10.381,0,0,1-2.772,1.72,13.765,13.765,0,0,1-3.47.938,19.412,19.412,0,0,1-4.115.114,19.2,19.2,0,0,1-5.913-1.294,12.284,12.284,0,0,1-4.292-2.825,10.644,10.644,0,0,1-2.466-4.1,13.148,13.148,0,0,1-.574-5.087,14.9,14.9,0,0,1,1.339-5.3,12.369,12.369,0,0,1,7.668-6.7,15.337,15.337,0,0,1,5.8-.63,14.185,14.185,0,0,1,4.647,1.082,10.451,10.451,0,0,1,3.509,2.411,9.4,9.4,0,0,1,2.09,3.488,10.922,10.922,0,0,1,.5,4.3,10.222,10.222,0,0,1-2.975,6.474,9.048,9.048,0,0,1-3,1.982,7.888,7.888,0,0,1-3.577.552,3.272,3.272,0,0,1-1.673-.492,1.831,1.831,0,0,1-.725-1.237,5.245,5.245,0,0,1-2.8,1.271,5.048,5.048,0,0,1-2.934-.493,4.929,4.929,0,0,1-2.172-2.139,6.265,6.265,0,0,1-.64-3.487,10.2,10.2,0,0,1,1.207-4.1,8.63,8.63,0,0,1,2.829-3.173,6.037,6.037,0,0,1,3.89-1.038A3.9,3.9,0,0,1,3888.135,2077.313Zm-7.875,6.458a3.966,3.966,0,0,0,.5,2.528,2.14,2.14,0,0,0,1.706.988,3.006,3.006,0,0,0,2.3-.852,6.578,6.578,0,0,0,1.646-2.451,9.738,9.738,0,0,0,.711-2.95,4.567,4.567,0,0,0-.077-1.3,3.071,3.071,0,0,0-.428-1.04,2.183,2.183,0,0,0-.749-.71,2.428,2.428,0,0,0-1.043-.3,3,3,0,0,0-2.2.771,6.046,6.046,0,0,0-1.634,2.3A9.263,9.263,0,0,0,3880.26,2083.771Z" transform="translate(-3871.678 -2069.796)"/></g></g></g><path class="u" d="M3261.7,868.7l2.028-1.065a.626.626,0,0,1,.908.66l-.387,2.256a.627.627,0,0,0,.18.554l1.64,1.6a.626.626,0,0,1-.347,1.067l-2.267.329a.627.627,0,0,0-.471.342l-1.013,2.053a.626.626,0,0,1-1.123,0l-1.014-2.053a.626.626,0,0,0-.471-.342l-2.267-.329a.626.626,0,0,1-.347-1.067l1.64-1.6a.625.625,0,0,0,.18-.554l-.387-2.256a.626.626,0,0,1,.908-.66l2.027,1.065A.626.626,0,0,0,3261.7,868.7Z" transform="translate(-3069.156 -853.284)"/><g transform="translate(22.258 167.614)"><path class="u" d="M1107.943,2879.287a5.387,5.387,0,1,1,5.39-5.386A5.394,5.394,0,0,1,1107.943,2879.287Zm0-9.292a3.9,3.9,0,1,0,3.907,3.905A3.91,3.91,0,0,0,1107.943,2870Z" transform="translate(-1102.553 -2868.513)"/><circle class="u" cx="2.745" cy="2.745" r="2.745" transform="translate(1.508 5.387) rotate(-45)"/></g><ellipse class="u" cx="2.477" cy="2.476" rx="2.477" ry="2.476" transform="translate(136.6 200.231)"/><ellipse class="u" cx="2.477" cy="2.476" rx="2.477" ry="2.476" transform="translate(95.48 3.561)"/></g></g></svg>