<svg xmlns="http://www.w3.org/2000/svg" width="166.751" height="60.025" viewBox="0 0 166.751 60.025">
  <g id="Group_10277" data-name="Group 10277" transform="translate(-239 -65)">
    <path id="Path_20923" data-name="Path 20923" d="M0,0H166.751L136.615,30.522l30.136,29.5H0Z" transform="translate(239 65)" fill="#e03249" opacity="0.9"/>
    <g id="guest" transform="translate(273.018 73)">
      <g id="Group_10268" data-name="Group 10268" transform="translate(57.302 19.398)">
        <g id="Group_10267" data-name="Group 10267">
          <path id="Path_20920" data-name="Path 20920" d="M435.192,223.626l-4.272-3.047-.24,4.312,2.393,1.707a1.825,1.825,0,0,0,2.119-2.972Z" transform="translate(-430.679 -220.579)" fill="#f5f6fa"/>
        </g>
      </g>
      <g id="Group_10270" data-name="Group 10270" transform="translate(48.48 0)">
        <g id="Group_10269" data-name="Group 10269">
          <path id="Path_20921" data-name="Path 20921" d="M334.586.006a4,4,0,1,0,3.773,4.218A4,4,0,0,0,334.586.006Z" transform="translate(-330.361 0)" fill="#f5f6fa"/>
        </g>
      </g>
      <g id="Group_10272" data-name="Group 10272" transform="translate(21.302 9.263)">
        <g id="Group_10271" data-name="Group 10271">
          <path id="Path_20922" data-name="Path 20922" d="M59.153,126.538l-3.413-5.5.7-12.583a2.7,2.7,0,0,0-2.549-2.85l-4.813-.268a2.7,2.7,0,0,0-2.715,1.844l3.428-.947-8.528,4.692a1.836,1.836,0,0,0-.266.178l-5.863,4.729a1.823,1.823,0,0,0-.323,2.5l-3.058,6.094-2.386-1.2a1.8,1.8,0,0,0-2.416.8l-5.461,10.882a1.8,1.8,0,0,0,.8,2.416l2.1,1.054a1.862,1.862,0,1,0,3.127-.314c.07-.12,2.329-4.626,9.654-19.225l5.989-4.8,8.384-4.613-5.664,4.636-.4,7.178-2,6.785-5.144,9.983a2.112,2.112,0,1,0,3.754,1.935l5.237-10.161a2.111,2.111,0,0,0,.149-.371l2.192-7.448,1.731.1,3.84,6.187v10.73a2.112,2.112,0,0,0,4.224,0V127.652A2.111,2.111,0,0,0,59.153,126.538Z" transform="translate(-21.302 -105.334)" fill="#f5f6fa"/>
        </g>
      </g>
    </g>
  </g>
</svg>
