<svg xmlns="http://www.w3.org/2000/svg" xmlns:xlink="http://www.w3.org/1999/xlink" width="480.037" height="593.708" viewBox="0 0 480.037 593.708"><defs><linearGradient id="a" x1="0.137" y1="1" x2="1.084" y2="-0.194" gradientUnits="objectBoundingBox"><stop offset="0" stop-color="#4d76da"/><stop offset="1" stop-color="#273b6d"/></linearGradient></defs><g transform="translate(39.037 423.691)"><ellipse cx="227" cy="89" rx="227" ry="89" transform="translate(-13 -76)" fill="url(#a)"/><g transform="translate(-39.037 -423.691)" opacity="0.31" style="mix-blend-mode:overlay;isolation:isolate"><circle cx="3.45" cy="3.45" r="3.45" fill="#fff"/><circle cx="3.45" cy="3.45" r="3.45" transform="translate(23.472)" fill="#fff"/><circle cx="3.45" cy="3.45" r="3.45" transform="translate(46.945)" fill="#fff"/><circle cx="3.45" cy="3.45" r="3.45" transform="translate(70.417)" fill="#fff"/><circle cx="3.45" cy="3.45" r="3.45" transform="translate(0 23.472)" fill="#fff"/><circle cx="3.45" cy="3.45" r="3.45" transform="translate(23.472 23.472)" fill="#fff"/><circle cx="3.45" cy="3.45" r="3.45" transform="translate(46.945 23.472)" fill="#fff"/><circle cx="3.45" cy="3.45" r="3.45" transform="translate(70.417 23.472)" fill="#fff"/><circle cx="3.45" cy="3.45" r="3.45" transform="translate(0 46.945)" fill="#fff"/><circle cx="3.45" cy="3.45" r="3.45" transform="translate(23.472 46.945)" fill="#fff"/><circle cx="3.45" cy="3.45" r="3.45" transform="translate(46.945 46.945)" fill="#fff"/><circle cx="3.45" cy="3.45" r="3.45" transform="translate(70.417 46.945)" fill="#fff"/><circle cx="3.45" cy="3.45" r="3.45" transform="translate(0 70.417)" fill="#fff"/><circle cx="3.45" cy="3.45" r="3.45" transform="translate(23.472 70.417)" fill="#fff"/><circle cx="3.45" cy="3.45" r="3.45" transform="translate(46.945 70.417)" fill="#fff"/><circle cx="3.45" cy="3.45" r="3.45" transform="translate(70.417 70.417)" fill="#fff"/><circle cx="3.45" cy="3.45" r="3.45" transform="translate(0 93.889)" fill="#fff"/><circle cx="3.45" cy="3.45" r="3.45" transform="translate(23.472 93.889)" fill="#fff"/><circle cx="3.45" cy="3.45" r="3.45" transform="translate(46.945 93.889)" fill="#fff"/><circle cx="3.45" cy="3.45" r="3.45" transform="translate(70.417 93.889)" fill="#fff"/><circle cx="3.45" cy="3.45" r="3.45" transform="translate(0 117.362)" fill="#fff"/><circle cx="3.45" cy="3.45" r="3.45" transform="translate(23.472 117.362)" fill="#fff"/><circle cx="3.45" cy="3.45" r="3.45" transform="translate(46.945 117.362)" fill="#fff"/><circle cx="3.45" cy="3.45" r="3.45" transform="translate(70.417 117.362)" fill="#fff"/><circle cx="3.45" cy="3.45" r="3.45" transform="translate(0 140.834)" fill="#fff"/><circle cx="3.45" cy="3.45" r="3.45" transform="translate(23.472 140.834)" fill="#fff"/><circle cx="3.45" cy="3.45" r="3.45" transform="translate(46.945 140.834)" fill="#fff"/><circle cx="3.45" cy="3.45" r="3.45" transform="translate(70.417 140.834)" fill="#fff"/><circle cx="3.45" cy="3.45" r="3.45" transform="translate(0 164.306)" fill="#fff"/><circle cx="3.45" cy="3.45" r="3.45" transform="translate(23.472 164.306)" fill="#fff"/><circle cx="3.45" cy="3.45" r="3.45" transform="translate(46.945 164.306)" fill="#fff"/><circle cx="3.45" cy="3.45" r="3.45" transform="translate(70.417 164.306)" fill="#fff"/><circle cx="3.45" cy="3.45" r="3.45" transform="translate(0 187.779)" fill="#fff"/><circle cx="3.45" cy="3.45" r="3.45" transform="translate(23.472 187.779)" fill="#fff"/><circle cx="3.45" cy="3.45" r="3.45" transform="translate(46.945 187.779)" fill="#fff"/><circle cx="3.45" cy="3.45" r="3.45" transform="translate(70.417 187.779)" fill="#fff"/><circle cx="3.45" cy="3.45" r="3.45" transform="translate(0 211.251)" fill="#fff"/><circle cx="3.45" cy="3.45" r="3.45" transform="translate(23.472 211.251)" fill="#fff"/><circle cx="3.45" cy="3.45" r="3.45" transform="translate(46.945 211.251)" fill="#fff"/><circle cx="3.45" cy="3.45" r="3.45" transform="translate(70.417 211.251)" fill="#fff"/><circle cx="3.45" cy="3.45" r="3.45" transform="translate(0 234.723)" fill="#fff"/><circle cx="3.45" cy="3.45" r="3.45" transform="translate(23.472 234.723)" fill="#fff"/><circle cx="3.45" cy="3.45" r="3.45" transform="translate(46.945 234.723)" fill="#fff"/><circle cx="3.45" cy="3.45" r="3.45" transform="translate(70.417 234.723)" fill="#fff"/><circle cx="3.45" cy="3.45" r="3.45" transform="translate(0 258.196)" fill="#fff"/><circle cx="3.45" cy="3.45" r="3.45" transform="translate(23.472 258.196)" fill="#fff"/><circle cx="3.45" cy="3.45" r="3.45" transform="translate(46.945 258.196)" fill="#fff"/><circle cx="3.45" cy="3.45" r="3.45" transform="translate(70.417 258.196)" fill="#fff"/><circle cx="3.45" cy="3.45" r="3.45" transform="translate(0 281.668)" fill="#fff"/><circle cx="3.45" cy="3.45" r="3.45" transform="translate(23.472 281.668)" fill="#fff"/><circle cx="3.45" cy="3.45" r="3.45" transform="translate(46.945 281.668)" fill="#fff"/><circle cx="3.45" cy="3.45" r="3.45" transform="translate(70.417 281.668)" fill="#fff"/><circle cx="3.45" cy="3.45" r="3.45" transform="translate(0 305.141)" fill="#fff"/><circle cx="3.45" cy="3.45" r="3.45" transform="translate(23.472 305.141)" fill="#fff"/><circle cx="3.45" cy="3.45" r="3.45" transform="translate(46.945 305.141)" fill="#fff"/><circle cx="3.45" cy="3.45" r="3.45" transform="translate(70.417 305.141)" fill="#fff"/><circle cx="3.45" cy="3.45" r="3.45" transform="translate(0 328.613)" fill="#fff"/><circle cx="3.45" cy="3.45" r="3.45" transform="translate(23.472 328.613)" fill="#fff"/><circle cx="3.45" cy="3.45" r="3.45" transform="translate(46.945 328.613)" fill="#fff"/><circle cx="3.45" cy="3.45" r="3.45" transform="translate(70.417 328.613)" fill="#fff"/><circle cx="3.45" cy="3.45" r="3.45" transform="translate(0 352.085)" fill="#fff"/><circle cx="3.45" cy="3.45" r="3.45" transform="translate(23.472 352.085)" fill="#fff"/><circle cx="3.45" cy="3.45" r="3.45" transform="translate(46.945 352.085)" fill="#fff"/><circle cx="3.45" cy="3.45" r="3.45" transform="translate(70.417 352.085)" fill="#fff"/><circle cx="3.45" cy="3.45" r="3.45" transform="translate(0 375.558)" fill="#fff"/><circle cx="3.45" cy="3.45" r="3.45" transform="translate(23.472 375.558)" fill="#fff"/><circle cx="3.45" cy="3.45" r="3.45" transform="translate(46.945 375.558)" fill="#fff"/><circle cx="3.45" cy="3.45" r="3.45" transform="translate(70.417 375.558)" fill="#fff"/><circle cx="3.45" cy="3.45" r="3.45" transform="translate(0 399.03)" fill="#fff"/><circle cx="3.45" cy="3.45" r="3.45" transform="translate(23.472 399.03)" fill="#fff"/><circle cx="3.45" cy="3.45" r="3.45" transform="translate(46.945 399.03)" fill="#fff"/><circle cx="3.45" cy="3.45" r="3.45" transform="translate(70.417 399.03)" fill="#fff"/><circle cx="3.45" cy="3.45" r="3.45" transform="translate(0 422.502)" fill="#fff"/><circle cx="3.45" cy="3.45" r="3.45" transform="translate(23.472 422.502)" fill="#fff"/><circle cx="3.45" cy="3.45" r="3.45" transform="translate(46.945 422.502)" fill="#fff"/><circle cx="3.45" cy="3.45" r="3.45" transform="translate(70.417 422.502)" fill="#fff"/><circle cx="3.45" cy="3.45" r="3.45" transform="translate(0 445.975)" fill="#fff"/><circle cx="3.45" cy="3.45" r="3.45" transform="translate(23.472 445.975)" fill="#fff"/><circle cx="3.45" cy="3.45" r="3.45" transform="translate(46.945 445.975)" fill="#fff"/><circle cx="3.45" cy="3.45" r="3.45" transform="translate(70.417 445.975)" fill="#fff"/><circle cx="3.45" cy="3.45" r="3.45" transform="translate(0 469.447)" fill="#fff"/><circle cx="3.45" cy="3.45" r="3.45" transform="translate(23.472 469.447)" fill="#fff"/><circle cx="3.45" cy="3.45" r="3.45" transform="translate(46.945 469.447)" fill="#fff"/><circle cx="3.45" cy="3.45" r="3.45" transform="translate(70.417 469.447)" fill="#fff"/><circle cx="3.45" cy="3.45" r="3.45" transform="translate(0 492.919)" fill="#fff"/><circle cx="3.45" cy="3.45" r="3.45" transform="translate(23.472 492.919)" fill="#fff"/><circle cx="3.45" cy="3.45" r="3.45" transform="translate(46.945 492.919)" fill="#fff"/><circle cx="3.45" cy="3.45" r="3.45" transform="translate(70.417 492.919)" fill="#fff"/><circle cx="3.45" cy="3.45" r="3.45" transform="translate(0 516.392)" fill="#fff"/><circle cx="3.45" cy="3.45" r="3.45" transform="translate(23.472 516.392)" fill="#fff"/><circle cx="3.45" cy="3.45" r="3.45" transform="translate(46.945 516.392)" fill="#fff"/><circle cx="3.45" cy="3.45" r="3.45" transform="translate(70.417 516.392)" fill="#fff"/><circle cx="3.45" cy="3.45" r="3.45" transform="translate(0 539.864)" fill="#fff"/><circle cx="3.45" cy="3.45" r="3.45" transform="translate(23.472 539.864)" fill="#fff"/><circle cx="3.45" cy="3.45" r="3.45" transform="translate(46.945 539.864)" fill="#fff"/><circle cx="3.45" cy="3.45" r="3.45" transform="translate(70.417 539.864)" fill="#fff"/><circle cx="3.45" cy="3.45" r="3.45" transform="translate(0 563.336)" fill="#fff"/><circle cx="3.45" cy="3.45" r="3.45" transform="translate(23.472 563.336)" fill="#fff"/><circle cx="3.45" cy="3.45" r="3.45" transform="translate(46.945 563.336)" fill="#fff"/><circle cx="3.45" cy="3.45" r="3.45" transform="translate(70.417 563.336)" fill="#fff"/><circle cx="3.45" cy="3.45" r="3.45" transform="translate(0 586.809)" fill="#fff"/><circle cx="3.45" cy="3.45" r="3.45" transform="translate(23.472 586.809)" fill="#fff"/><circle cx="3.45" cy="3.45" r="3.45" transform="translate(46.945 586.809)" fill="#fff"/><circle cx="3.45" cy="3.45" r="3.45" transform="translate(70.417 586.809)" fill="#fff"/></g></g></svg>