<svg xmlns="http://www.w3.org/2000/svg" xmlns:xlink="http://www.w3.org/1999/xlink" width="800.676" height="465.346" viewBox="0 0 800.676 465.346"><defs><style>.a{fill:#f97046;}.b{fill:#ff9750;}.c{fill:#ffaf66;}.al,.d{fill:#ffd961;}.e{fill:#dbac6e;}.f{fill:#ff9c39;}.g{fill:#ffbf4d;}.h{fill:#c9755b;}.i{fill:#a85139;}.j{fill:#e69917;}.k{fill:#1b1c20;}.l{fill:#c3c5c8;}.m{fill:#98989c;}.n{fill:#edeeef;}.o{fill:#feb329;}.p{fill:#fac657;}.as,.q{fill:#fff;}.r{fill:#c16546;}.s{fill:#c9ac8f;}.t{fill:#d17343;}.u{fill:#e94f0a;}.v{fill:#d8bc98;}.w{fill:#e2c59a;}.x{fill:#e8cca7;}.y{fill:#39373a;}.z{fill:#fcb681;}.aa{fill:#683b22;}.ab{fill:#f7a872;}.ac{fill:#d8dadc;}.ad{fill:#c4001d;}.ae{fill:#4a7edc;}.af{fill:#ff7d5e;}.ag{fill:#5169d5;}.ah{fill:#586838;}.ai{fill:#8cc8dd;}.aj{fill:#f7af2c;}.ak{fill:#ffaf45;}.al{stroke:rgba(0,0,0,0);stroke-miterlimit:10;}.am,.an,.aq{fill:#5b382e;font-family:BungeeInline-Regular, Bungee Inline;}.am{font-size:18px;}.an{font-size:60px;}.ao{fill:#faab49;}.ap{fill:#db4137;}.aq{font-size:30px;}.ar{fill:url(#e);}.as{font-size:14px;font-family:Roboto-Medium, Roboto;font-weight:500;letter-spacing:0.089em;}.at{filter:url(#f);}.au{filter:url(#c);}.av{filter:url(#a);}</style><filter id="a" x="237.113" y="203.597" width="34.14" height="38.362" filterUnits="userSpaceOnUse"><feOffset dy="3" input="SourceAlpha"/><feGaussianBlur stdDeviation="3" result="b"/><feFlood flood-opacity="0.231"/><feComposite operator="in" in2="b"/><feComposite in="SourceGraphic"/></filter><filter id="c" x="201.626" y="273.335" width="208.514" height="113.033" filterUnits="userSpaceOnUse"><feOffset dy="3" input="SourceAlpha"/><feGaussianBlur stdDeviation="3" result="d"/><feFlood flood-opacity="0.161"/><feComposite operator="in" in2="d"/><feComposite in="SourceGraphic"/></filter><linearGradient id="e" x1="0.973" y1="1" x2="0.015" gradientUnits="objectBoundingBox"><stop offset="0" stop-color="#5169d5"/><stop offset="1" stop-color="#3fa0e8"/></linearGradient><filter id="f" x="155.5" y="420.346" width="155" height="45" filterUnits="userSpaceOnUse"><feOffset dy="1" input="SourceAlpha"/><feGaussianBlur stdDeviation="1.5" result="g"/><feFlood flood-opacity="0.2"/><feComposite operator="in" in2="g"/><feComposite in="SourceGraphic"/></filter></defs><g transform="translate(-230 -181.154)"><g transform="translate(229.064 -117.958)"><path class="a" d="M552.817,458.275c0-1.193-2.241-123.586-2.241-123.586l21.849-5.646,33.536,5.354,12.964,59.2,7.283-1.086,2.241-22.757,30.814,1.153,5.042,14.91,6.162.151L687.275,451.7Z"/><path class="a" d="M212.19,459.946l2.8-46.64,34.735-.42L253.648,420l22.97,2.474,7.843-13.4,42.018-10.889L336,400.226l6.163,23.5,19.048.692,10.645-31.929,15.126-8.844,3.361,9.074,5.042-.2,2.241-13.66,8.964-.358,8.964-19.745L469.9,343.484l8.964,3.531-.56-39.235,47.06-8.668,24.651,7.253L560.9,477.6Z"/><path class="a" d="M328.278,444.082l39.623,6.832,103.385-33.247L495.134,304.68l-16.829,3.1.56,39.235-8.964-3.531-54.343,15.272L406.594,378.5l-8.964.359-2.241,13.66-5.042.2-3.361-9.074-15.126,8.844L361.214,424.42l-19.048-.692L336,400.226l-8.547-1.833Z"/><path class="b" d="M327.85,398.478l5.012,29.082h2.851L336,400.226l8.26,23.216,16.951.978.469,44.313-135.557-3.484-8.235-51.309,31.835-1.054,6.488,23.225,23.675-2.138,4.83-25.734Z"/><path class="c" d="M249.727,412.886l-31.836,1.054,2.476,15.425a195.579,195.579,0,0,0,35.84,6.719Z"/><path class="c" d="M361.214,424.42l-16.95-.978L336,400.226l-.292,27.333h-2.85l-5.012-29.081-43.13,9.761-4.83,25.734L256.347,436.1a316.947,316.947,0,0,0,32.308,1.607c29.514,0,55.762-3.823,72.6-9.76Z"/><path class="b" d="M525.365,299.112l-1.121,71.228-3.922-.638-3.411-69.033-33.71,6.069,6.028,66.991-16.247,4.825L469.9,343.484l-54.343,15.272-.735,46.475L394.189,417.45l-7.2-33.8-15.126,8.844-7.325,84.794,302.572-33.523-10.181-72.945-27.308-1.022,1.634,41.4-18.908-3.121-10.277-74.235-27.4-4.09-1.12,46.175-10.084-19.082-12.626.1-5.85-53.47Z"/><path class="c" d="M498.554,387.965a544.6,544.6,0,0,0,52.087-32.8l-5.656-51.691-19.62-4.362-1.12,71.228-3.922-.639-3.411-69.032-33.71,6.069,6.028,66.991-16.247,4.825-3.082-35.07L418,357.321l-3.176,47.91L394.189,417.45l-7.2-33.8-15.127,8.844-3.833,44.376C401.559,432.569,449.256,415.348,498.554,387.965Z"/><path class="c" d="M574.666,329.749l-.172,7.1q3.67-3.042,7.121-6.059Z"/><path class="d" d="M549.5,451.313c-146.326,20.9-548.564.951-548.564.951v72.212l800.676,2.851V417.107S695.826,430.41,549.5,451.313Z"/><path class="e" d="M274.536,472.319c-11.386,0-12.3,13.208-12.3,20.04l23.683,1.594C285.922,488.032,285.922,472.319,274.536,472.319Z"/><path class="d" d="M273.45,473.686c-9.853,0-10.642,13.833-10.642,20.988l20.495,1.67C283.3,490.142,283.3,473.686,273.45,473.686Z"/><path class="f" d="M219.719,490.708c13.726,2.561,35.976,4.226,61.067,4.224,31.114,0,57.77-2.567,69.173-6.224C317.752,490.08,276.1,491.19,219.719,490.708Z"/><path class="g" d="M471.2,481.248l-238.152,14.02s201.907,8.468,213.168,6.9C457.122,500.655,471.2,481.248,471.2,481.248Z"/><path class="d" d="M600.175,483.25l170.335,6.134S624.1,499.749,616.136,498.769C608.419,497.82,600.175,483.25,600.175,483.25Z"/><path class="g" d="M.936,481.4l18.6,52.576L801.612,622.53V485.836C693.615,489.637,509.6,507.057.936,481.4Z"/><path class="h" d="M285.865,486.779l1.537-12.468,25.96-.171,2.9,15.371L311.654,489l-1.025-12.98-21.69.171-.342,10.418Z"/><path class="h" d="M278.833,497.327l.94-12.028,18.445-2.391,23.3.8,2.776,12.6Z"/><path class="i" d="M297.463,498.238l1.093-15.318,24.1.841,1.639,12.541Z"/><path class="d" d="M21.172,482.407c77.568,18.552,238.479,31.3,424.443,31.3,24.969,0,276.341-7.285,356-27.872C695.06,489.586,514.5,506.591,21.172,482.407Z"/><path class="f" d="M801.612,506.423V622.53H.936V481.4S111.543,535.879,464.9,535.879C729.179,535.879,801.612,506.423,801.612,506.423Z"/><path class="e" d="M400.638,460.159"/><path class="e" d="M405.133,470.772"/><path class="b" d="M428.816,434.347,418,357.321l-2.441,1.435L411.4,438.617Z"/><path class="c" d="M397.732,378.5l5.693,35.353,5.067-3.416-.967-33.987Z"/><path class="b" d="M394.231,418.207l-3.074-15.286,6.234,2.306,3.324,8.358Z"/><path class="a" d="M284.72,408.239l-5.63,42.674-2.277-17.079-.195-11.362Z"/><path class="f" d="M426.82,494.942c28.221,4.08,74.062,6.456,125.826,5.929,64.19-.652,119.28-5.581,142.944-12.052C629.092,491.828,543.121,494.59,426.82,494.942Z"/><g transform="translate(14 88.174)"><rect class="j" width="3.652" height="4.065" transform="translate(76.817 499.861)"/><path class="k" d="M132.133,483.082l11.972,2.183A1.576,1.576,0,0,0,145.938,484l.029-.158a1.576,1.576,0,0,0-1.268-1.833l-11.972-2.184Z" transform="translate(-12.151 -14.194)"/><g transform="translate(69.919 509.918)"><g transform="translate(8.999 8.671)"><rect class="l" width="2.156" height="7.149" transform="translate(9.525 0.099) rotate(-2.633)"/><rect class="l" width="7.149" height="2.156" transform="translate(14.561 8.823) rotate(-20.633)"/><rect class="l" width="2.156" height="7.149" transform="translate(12.826 15.135) rotate(-38.633)"/><rect class="l" width="7.148" height="2.156" transform="translate(4.039 20.06) rotate(-56.634)"/><rect class="l" width="2.156" height="7.149" transform="translate(0 9.334) rotate(-74.633)"/><circle class="l" cx="6.219" cy="6.219" r="6.219" transform="translate(3.414 7.165) rotate(-16.223)"/></g><path class="k" d="M69.919,554.868a20.007,20.007,0,1,0,20.007-20.007A20.007,20.007,0,0,0,69.919,554.868Zm9.861,0a10.146,10.146,0,1,1,10.146,10.146A10.147,10.147,0,0,1,79.78,554.868Z" transform="translate(-69.919 -534.861)"/><path class="m" d="M79.9,556.817a11.978,11.978,0,1,0,11.978-11.979A11.978,11.978,0,0,0,79.9,556.817Zm1.947,0a10.03,10.03,0,1,1,10.03,10.031A10.031,10.031,0,0,1,81.844,556.817Z" transform="translate(-71.868 -536.81)"/></g><path class="n" d="M93.68,556.479l.346.2a1.257,1.257,0,0,0,1.721-.446l7.916-13.458L101.15,541.3l-7.916,13.458A1.257,1.257,0,0,0,93.68,556.479Z" transform="translate(-4.52 -26.201)"/><rect class="o" width="54.266" height="4.332" transform="translate(92.731 520.378) rotate(-59.535)"/><path class="p" d="M98.846,519.194c14.843,0,17.981,18.23,17.981,29.468l-.176.177h-5.568a3.762,3.762,0,0,1-3.719-3.041c-1.39-7.605-7.818-12.181-15.771-12.181H71.222v-2.2C73.6,527.238,81.982,519.194,98.846,519.194Z" transform="translate(-0.254 -21.883)"/><path class="q" d="M109.095,547.149c.34,1.86,2.006,2.544,3.9,2.544h3.8q.024.964.031,1.936l-.176.177h-5.568a3.762,3.762,0,0,1-3.719-3.041c-1.39-7.605-7.818-12.181-15.771-12.181H71.222v-2.2H92.569C100.9,534.384,107.638,539.179,109.095,547.149Z" transform="translate(-0.254 -24.85)"/><rect class="j" width="8.756" height="11.734" transform="translate(96.286 472.903)"/><path class="k" d="M101.326,501.086h-.708a1.71,1.71,0,0,1-1.71-1.71V489.77a1.71,1.71,0,0,1,1.71-1.71h.708a.621.621,0,0,1,.621.621v11.783A.621.621,0,0,1,101.326,501.086Z" transform="translate(-5.662 -15.803)"/><path class="k" d="M248.644,511.689h39.675v-9.111H248.644a3.58,3.58,0,0,0-3.58,3.58v1.951A3.58,3.58,0,0,0,248.644,511.689Z" transform="translate(-34.207 -18.638)"/><path class="k" d="M295.252,455.393l-9.182,41.918,8.9,1.95,9.183-41.918a3.581,3.581,0,0,0-2.731-4.263l-1.906-.418A3.58,3.58,0,0,0,295.252,455.393Z" transform="translate(-42.216 -8.873)"/><g transform="translate(120.425 521.867)"><path class="k" d="M143.15,561.728h24a37.807,37.807,0,0,0,10.389-1.455l8.567-2.448v-8.115H132.684v1.552A10.466,10.466,0,0,0,143.15,561.728Z" transform="translate(-132.684 -549.711)"/><path class="k" d="M241.346,558.957H140.153a1.929,1.929,0,0,1-1.929-1.929v-.768H241.346Z" transform="translate(-133.766 -550.99)"/><path d="M269.783,563.108a.747.747,0,1,0,0-1.494H256.915c-.156-.008-19.273-.956-29.334-3.958a.747.747,0,1,0-.427,1.432c10.236,3.055,28.935,3.982,29.726,4.019Z" transform="translate(-151.03 -551.257)"/><path d="M271.47,565.634a.747.747,0,1,0,0-1.494H258.6a211.82,211.82,0,0,1-22.465-2.4.747.747,0,0,0-.262,1.471,212.891,212.891,0,0,0,22.692,2.42Z" transform="translate(-152.718 -552.058)"/><rect width="3.859" height="1.276" transform="translate(85.556 11.933) rotate(-82.942)"/><g transform="translate(101.825 5.677)"><path d="M259.971,562.25h12.868c.826-.039,19.525-.966,29.762-4.021a.747.747,0,1,0-.426-1.432c-10.064,3-29.179,3.95-29.371,3.959H259.971a.747.747,0,1,0,0,1.494Z" transform="translate(-259.223 -556.766)"/></g><rect width="2.479" height="2.978" transform="translate(142.209 5.318)"/></g><g transform="translate(120.4 494.86)"><path class="j" d="M132.652,529.646H137.2a13.857,13.857,0,0,1,8.052,2.427l14.473,10.5v6.366H132.652Z" transform="translate(-132.652 -518.785)"/><rect class="j" width="24.989" height="27.681" transform="translate(26.892)"/><rect class="k" width="24.989" height="2.006" transform="translate(26.892 6.777)"/></g><rect class="j" width="37.166" height="6.614" transform="translate(172.307 515.998)"/><path class="k" d="M184.842,502.811l3.189-23.265a2.888,2.888,0,0,1,2.861-2.5h1.694a3.109,3.109,0,0,1,3.08,3.531l-4.317,31.488H160.8a1.621,1.621,0,0,1-1.621-1.621v-3.975a1.3,1.3,0,0,1,1.3-1.3h21.654A2.732,2.732,0,0,0,184.842,502.811Z" transform="translate(-17.433 -13.652)"/><g transform="translate(117.268 418.649)"><path class="r" d="M137.944,480.208c-3.107-.361-4.629.2-4.1-3.665.232-1.683.875-2.238,1.862-2.527a16.707,16.707,0,0,1,5.919-.794c5.376.608,12.43.13,21.743.737a3.507,3.507,0,0,0,2.378-1.892A57.643,57.643,0,0,1,174.2,454.68l7.707,3.22c-3.61,10.706-9.944,15.617-14.052,22.1-.265.417-3.069,1.622-10.6.362-11.547-1.932-11.852-3.455-15.6-3.942-2.21.614-2.541-.09-2.966.146-.667.372-.718,1.5-.719,1.588-.009.991,1.21,1.021,1.217,1.028S139.633,480.4,137.944,480.208Z" transform="translate(-129.733 -427.933)"/><path class="s" d="M173.481,470.811s7.083,3.906,8.708,5.022a89,89,0,0,0,7.3-15.415c.835-3.139.415-6.278-2.253-7.464a5.364,5.364,0,0,0-6.063,1.465C180.575,455.4,175.1,464.184,173.481,470.811Z" transform="translate(-137.494 -427.516)"/><path class="t" d="M191.062,435.123c.175-1.521-.689-3.141-2.12-2.915a1.949,1.949,0,0,0-.909.418,5.4,5.4,0,0,0-2.956-3.22c-2.38-.908-6.944.474-6.944.474a15.284,15.284,0,0,0-1.019,3.52c.1.686,1.084.68.678,1.723a16.089,16.089,0,0,1-1.807,2.826c-.553.728-.447,1.267-.15,1.515a1.66,1.66,0,0,0,1.11.227c.744.752-.213,1.1.4,1.813a1.038,1.038,0,0,1,.118,1.23c-.213.452-.674,2.7,2.84,2.656a8.389,8.389,0,0,0,2.381-.394l1.053,4.887,8.336-1.242-2.326-10.805A3.872,3.872,0,0,0,191.062,435.123Z" transform="translate(-137.906 -422.936)"/><path class="k" d="M177.559,442.246a8.147,8.147,0,0,1,1.181-.015,2.583,2.583,0,0,1,1.933.69c1.288,1.626,2.363,2.915,1.043,3.36-.419.142-.491-.307-.69-.936-.649-2.047-1.094-1.436-2.183-1.579a9.441,9.441,0,0,0-1.3-.107s-.751.167-.69-.937C176.88,442.237,177.559,442.246,177.559,442.246Z" transform="translate(-138.152 -425.498)"/><path class="u" d="M178.968,444.117a9.441,9.441,0,0,0-1.3-.107s-.125,0-.175,0a1.267,1.267,0,0,0,.2.5c.181.258.376.264,1,.188a2.334,2.334,0,0,0,1.137-.567A3.853,3.853,0,0,1,178.968,444.117Z" transform="translate(-138.278 -425.849)"/><path class="k" d="M177.064,433.942a.927.927,0,0,0,.154.8c.192.229,1.429-.315,1.9-.513a5.991,5.991,0,0,1,3.084-.035c.558.11.264-.315-.608-.472a11,11,0,0,0-2.762-.186A6.189,6.189,0,0,0,177.064,433.942Z" transform="translate(-138.188 -423.797)"/><path class="k" d="M184.681,428.733a13.506,13.506,0,0,0,.547,1.593c.219.431,1.391,1.065,1.739,2.679a11.719,11.719,0,0,1-.59,4.127c-.406,1.514-.033,2.925.38,2.8,1.061-.312,1.912-.742,2.035-1.3a13.9,13.9,0,0,0-.035-2.649c.064-1.994.813-2.9,1.172-3.164.7-.511,1.782-.83,2.388.2,1.075,1.83-1.143,4.687-1.1,5.711a38.992,38.992,0,0,0,.406,4.64.533.533,0,0,0,.557.313c.9-.117,2.99-.529,2.581-1.793-1.432-4.417,1.185-9.017-1.88-12.09C191.428,428.346,185.227,427.724,184.681,428.733Z" transform="translate(-139.682 -422.768)"/><path class="k" d="M181.358,422.138a4.878,4.878,0,0,0-3.455,4.222c-.146,1.6.28,2.042.6,2.175a13.825,13.825,0,0,0,5.4.464c.853,1.066,5.266.949,5.792,1.016,1.173.15,1.873,1.308,2.116,3.723.109,1.081-1.031,6.145-.751,6.62.245.414.515,1.989,1.86,1.4,1.066-.469.213-2.388,1.613-7.892,1.683-6.617-.662-10.687-5.111-11.854S182.324,421.768,181.358,422.138Z" transform="translate(-138.352 -421.441)"/><path class="t" d="M166.331,501.308l-1.283-13.05s7.5-.649,7.648-1.443c3.207-14.431-.036-15.14,3.419-26.082,1.742-5.515,2.791-5.691,7.822-10.819,2.68-2.733,9.529,1.049,9.155,8.844-.505,10.521-4.46,27.524-5.013,32.744-.877,8.273-5.391,8.138-9.583,9.087A59.67,59.67,0,0,1,166.331,501.308Z" transform="translate(-135.847 -426.829)"/><path class="t" d="M134.55,542.024c-3.91-.145-5.333-1.251-5.213-2.389.145-1.376,3.475-.8,8.616-2.679,1.253-.459,3.33-.869,5.068-1.3-1.678-10.288-5.956-14.923-8.451-26.687-.415-1.956-.344-6.052,1.424-7.139a20.1,20.1,0,0,1,5.123-2.525c3.816-1.244,8.874-1.948,27.994-2.6l-.039,13.577c-6.446.261-18.618.561-24.877-.513,3.743,6.149.535,9.091,4.785,23.63,1.049,3.586,1.281,4.138.919,6.672-.406,2.843-2.534,1.955-6.805,1.593C138,541.231,138.459,542.169,134.55,542.024Z" transform="translate(-128.871 -436.14)"/><path class="v" d="M176.5,510.3c5.3-.566,5.792-6.594,5.792-6.594l-11.98-7c-19.337.505-24.158.933-27.922,2.165a24.438,24.438,0,0,0-5.46,2.878c-1.767,1.087-1.574,5.263-1.159,7.219,2.383,11.236,5.669,17.014,7.486,26.38,2.228-.446,7.13.534,9.18,2.139-1.694-6.685-3.652-20.252-5.791-27.2C153.62,511.186,169.586,511.041,176.5,510.3Z" transform="translate(-130.075 -436.14)"/><path class="w" d="M190.652,450.066a7.83,7.83,0,0,0-3.657.578,27.628,27.628,0,0,1-5.005,1.54,19.673,19.673,0,0,0-6.132,8.955c-2.093,6.347-.991,9.626-4.687,21.833-.211.7-.577,3.9-1.37,4.906,3.558-.209,10.317,2.092,15.44,5.411a15.578,15.578,0,0,1,3.9,3.68,17.494,17.494,0,0,0,.84-5.227c-.294-8.212,3.732-22.3,4.238-32.819C194.415,454.731,192.856,451.549,190.652,450.066Z" transform="translate(-136.775 -427.025)"/><path class="t" d="M141.474,481.106c-3.122-.361-4.621.2-4.26-3.664.158-1.683.777-2.238,1.751-2.527a16.437,16.437,0,0,1,5.885-.794c5.4.608,12.436.13,21.775.737a3.3,3.3,0,0,0,2.294-1.892,54.733,54.733,0,0,1,7.688-17.388l7.848,3.22c-4.891,16.727-8.874,16.785-12.453,22.037-.274.4-3.626,1.683-11.214.422-11.632-1.932-12-3.455-15.777-3.942-2.184.614-2.544-.09-2.96.146-.651.372-.651,1.5-.649,1.588.035.991,1.255,1.021,1.262,1.028S143.172,481.3,141.474,481.106Z" transform="translate(-130.401 -428.108)"/><path class="x" d="M176.548,471.71s7.254,3.906,8.928,5.022a84.684,84.684,0,0,0,6.627-15.415c.7-3.139.139-6.278-2.581-7.464a5.206,5.206,0,0,0-6,1.465C182.965,456.294,177.873,465.083,176.548,471.71Z" transform="translate(-138.093 -427.691)"/><path class="y" d="M141.122,545.027a3.781,3.781,0,0,0,3.334,2.341,31.271,31.271,0,0,0,5.886,0,21.342,21.342,0,0,1-.354,3.262,9.645,9.645,0,0,0-.071,1.277s-2.2.212-4.965.212a45.724,45.724,0,0,0-6.312-.071c-2.625.284-8.37-.638-9.149-.78s-.769-.914-.7-1.308c.349-.323.065-1.317.42-1.6s3.4-.781,5.887-1.56A57.548,57.548,0,0,1,141.122,545.027Z" transform="translate(-128.76 -445.578)"/><path class="v" d="M194.225,450.383a13.433,13.433,0,0,0-.7-2.814,21.481,21.481,0,0,0-4.131.505,24.025,24.025,0,0,0-4.2,1.443,21.576,21.576,0,0,0-.42,3.536,10.825,10.825,0,0,1,4.691-2.525C191.609,449.962,193.385,449.95,194.225,450.383Z" transform="translate(-139.7 -426.544)"/></g><g transform="translate(180.341 415.184)"><path class="q" d="M276.121,438.557a2.852,2.852,0,0,0,.96-.16,1.316,1.316,0,0,0,.724-.624c-1.032-.076-2.944-.044-2.944-.044l-.116.729A11.4,11.4,0,0,0,276.121,438.557Z" transform="translate(-220.345 -421.155)"/><g class="av" transform="matrix(1, 0, 0, 1, -193.41, -204.25)"><path class="z" d="M288.071,429.389a2.167,2.167,0,0,0-2.349-2.557,1.913,1.913,0,0,0-.891.409,5.292,5.292,0,0,0-2.9-3.154c-2.332-.889-6.8.464-6.8.464a14.986,14.986,0,0,0-1,3.448c.1.672.8,1.03.441,1.709-.513.969-1.547,2.747-1.547,2.747-.542.713-.439,1.241-.146,1.485a2.172,2.172,0,0,0,1.235.22c.262.212.107,1.171.107,1.171a11.188,11.188,0,0,0,2.939-.063c-.351,1.263-2.636,1.367-2.636,1.367s-.163,2.626,2.345,2.676c.785.016,1.738.012,2.635.08l1.11,4.756,8.166-1.217-1.609-8.349C287.393,432.922,287.929,430.623,288.071,429.389Z" transform="translate(-26.53 -214.19)"/></g><path class="aa" d="M274.414,428.228a.646.646,0,0,0,0,.616c.114.215.809.042,1.224.038a4.536,4.536,0,0,1,1.547.106c.442.133.46-.278-.23-.5a4.814,4.814,0,0,0-1.4-.319A2.547,2.547,0,0,0,274.414,428.228Z" transform="translate(-220.265 -419.284)"/><path d="M286.143,417.742c-4.349-1.14-7.179-.394-8.126-.032a4.822,4.822,0,0,0-3.108,3.558c-.113,1.569.257,2.111.552,2.274,1.147.634,3.065.436,5.321.311a16.483,16.483,0,0,1,1.579,2.379,22.52,22.52,0,0,1,.24,2.895c.06.679,1.126.6,1.148.269.134-1.949.4-2.617.756-2.873a1.324,1.324,0,0,1,2.064,1.016,15.767,15.767,0,0,0,.753,5.5c.039.1.426.393.492-.328a10.034,10.034,0,0,1,.459-1.409c.3-.754,1.049-1.343,1.605-2.589C292.444,422.985,290.5,418.886,286.143,417.742Z" transform="translate(-220.373 -417.134)"/><path class="ab" d="M263.216,494.816l-1.283-13.05s7.5-.649,7.648-1.443c3.207-14.431-.035-15.14,3.42-26.083,1.741-5.515,2.455-6.042,7.822-10.818,2.636-2.346,9.3,1.687,8.924,9.482-.505,10.521-4.228,26.886-4.781,32.1-.878,8.273-5.14,8.858-9.332,9.807C271.684,495.71,263.692,494.921,263.216,494.816Z" transform="translate(-217.843 -422.139)"/><path class="ab" d="M220.009,535.756c-3.834-.142-5.385-1.22-5.435-2.33-.061-1.342,3.273-.777,8.011-2.613a32.336,32.336,0,0,1,3.539-.97,1.805,1.805,0,0,0,1.394-1.532c1.292-9.406.415-18.069,1.349-25.386.24-1.88-.333-5.317,1.23-6.377,2.051-1.391,13-4.363,31.55-5l2.055,13.47c-6.158.745-18.427,1.284-24.713-.628,1.076,9.1-3,11.744-4.151,22.608a41.642,41.642,0,0,0-.144,6.849c.021,2.774-2.185,1.907-6.4,1.554C223.26,534.982,223.844,535.9,220.009,535.756Z" transform="translate(-208.593 -431.668)"/><path class="ac" d="M227.7,536.414c.5.357-.363,2.421,2.142,2.96,4.084.879,4.967-1.334,4.943.228a18.078,18.078,0,0,1,.542,3.69c0,.282.093,1.246.093,1.246s-2.118.208-4.816.208a44.718,44.718,0,0,0-6.166-.069,52.1,52.1,0,0,1-9.075-.551,1.6,1.6,0,0,1-1.134-1.465c.069-.716-.076-1.334.837-1.822.37-.2,2.877-.634,5.247-1.282C225.263,538.2,227.2,536.056,227.7,536.414Z" transform="translate(-208.526 -440.423)"/><path class="z" d="M212.861,535.478c-3.91-.145-5.333-1.251-5.213-2.39.145-1.375,3.475-.8,8.616-2.679a37.3,37.3,0,0,1,3.778-.995,2.263,2.263,0,0,0,1.666-1.57c2.775-9.643,3.212-18.526,5.3-26.026.536-1.927.479-5.451,2.245-6.538,2.318-1.426,14-4.473,33.117-5.123l-.039,14.261c-6.429.764-19.09,1.317-25.239-.644-.3,9.331-4.817,11.589-7.676,22.727a44.419,44.419,0,0,0-1.2,7.021c-.406,2.844-2.534,1.955-6.805,1.593C216.314,534.685,216.771,535.623,212.861,535.478Z" transform="translate(-207.239 -431.396)"/><path class="ad" d="M272.053,503.757a8.588,8.588,0,0,0,5.793-6.594l-11.981-7c-19.336.505-22.72,1.877-27.536,2.78a15.324,15.324,0,0,0-5.846,2.263c-1.766,1.087-6.486,24.805-6.937,28.568,1.354,2.179,8.01,3.828,11.6,4.122,1.354-2.827,4.514-21.61,6.34-22.847C252.384,506.282,265.166,505.932,272.053,503.757Z" transform="translate(-210.736 -431.396)"/><path class="ae" d="M287.624,444.324c-.623-.561-3.063-.683-3.985-.436-2.552.685-3.3,1.443-4.765,1.8a23.99,23.99,0,0,0-6.379,9.962c-2.093,6.348-.743,8.619-4.439,20.825-.211.7-.578,3.9-1.371,4.907,3.558-.21,10.318,2.092,15.44,5.411a15.551,15.551,0,0,1,3.9,3.68,17.474,17.474,0,0,0,.84-5.228c-.293-8.211,3.732-22.3,4.238-32.819C291.3,448.238,288.246,444.884,287.624,444.324Z" transform="translate(-218.771 -422.336)"/><path class="n" d="M221.8,536.153c.467.367-.7,2.482,1.8,3.035,4.07.9,5.271-1.368,5.037.233-.067.967.367,1.735.063,3.784-.043.289-.071,1.276-.071,1.276s-2.2.213-4.964.213a45.6,45.6,0,0,0-6.313-.071,52.05,52.05,0,0,1-9.23-.566,1.4,1.4,0,0,1-.967-1.5c.167-.734.1-1.368,1.1-1.868.406-.2,3.034-.649,5.55-1.314C219.06,537.988,221.329,535.786,221.8,536.153Z" transform="translate(-207.142 -440.372)"/><path class="af" d="M277.547,437.992c-.351,1.263-2.636,1.367-2.636,1.367a3.3,3.3,0,0,0,.027.512c2.174-.323,2.57-1.571,2.732-2.011-2.07.234-2.5-.294-3.03-.074-.014.156-.031.269-.031.269A11.188,11.188,0,0,0,277.547,437.992Z" transform="translate(-220.319 -421.157)"/></g><g transform="translate(170.766 417.065)"><path class="n" d="M199.073,439.117h1.855a3.03,3.03,0,0,0,2.832-1.927l6.113-15.477-1.708-.674-6.113,15.477a1.2,1.2,0,0,1-1.125.766h-1.855Z" transform="translate(-195.991 -419.777)"/><rect class="n" width="3.082" height="101.485"/></g><g transform="translate(212.185 467.671)"><rect class="n" width="1.978" height="15.735" transform="translate(9.089 1.944)"/><rect class="n" width="23.697" height="1.505" transform="translate(1.924 5.419)"/><path class="n" d="M249.039,494.122h14.789V492.13H249.039a.332.332,0,0,1-.332-.332v-3.224a4.462,4.462,0,0,1,1.143-3.4,3.369,3.369,0,0,1,2.28-.82l.076,0h32.755v-1.992H252.234a5.4,5.4,0,0,0-3.736,1.347,6.331,6.331,0,0,0-1.782,4.863V491.8A2.327,2.327,0,0,0,249.039,494.122Z" transform="translate(-246.715 -482.361)"/></g><path class="z" d="M245.512,485.106c-2.276,0-2.475-2.765-2.958-6.615-.211-1.676.274-2.353,1.163-2.845a16.434,16.434,0,0,1,5.573-2.049c5.406-.575,12.169-2.564,21.418-3.991a3.3,3.3,0,0,0,1.831-2.343,54.743,54.743,0,0,1,3.744-18.64l8.359,1.446c-1.157,17.389-5.033,18.307-7.39,24.21-.18.45-3.176,2.426-10.857,2.837-11.774.631-12.487-.622-16.276-.282-1.963,1.319-2.573,1.374-2.851,1.43a7.552,7.552,0,0,0-.868,1.956,9.877,9.877,0,0,0-.056,3.054S246.345,485.106,245.512,485.106Z" transform="translate(-33.708 -8.1)"/><path class="ag" d="M279.525,465.85s7.927,2.243,9.8,2.971a84.791,84.791,0,0,0,3.134-16.484c0-3.216-1.222-6.159-4.135-6.728a5.206,5.206,0,0,0-5.54,2.728C282.455,449.411,279.385,459.093,279.525,465.85Z" transform="translate(-40.937 -7.494)"/><g transform="translate(96.997 469.481)"><path class="o" d="M251.693,486.618a22.145,22.145,0,0,0-12.806,4.079L227.8,498.56a21,21,0,0,0-8.305,12.366l-3.117,13.4a12.525,12.525,0,0,1-12.2,9.684H190.586a6.7,6.7,0,0,1-6.7-6.7v-21.47a1.566,1.566,0,0,0-1.566-1.566h-6.877a1.566,1.566,0,0,0-1.566,1.566v21.47a6.7,6.7,0,0,1-6.7,6.7H147.9a12.524,12.524,0,0,1-12.362-10.515l-4.767-29.337a21.191,21.191,0,0,1-.016-6.7l.132-.838H104.517c-.035.1-.083.244-.112.356a19.294,19.294,0,0,0,.381,12.363l12.931,34.592a13.432,13.432,0,0,0,12.582,8.729H272.046a5.867,5.867,0,0,0,4.522-2.13l1.867-2.26a15.371,15.371,0,0,0,3.52-9.787V486.618Z" transform="translate(-103.569 -485.002)"/><path class="o" d="M105.141,485.325q.136-.36.286-.715C105.327,484.847,105.233,485.086,105.141,485.325Z" transform="translate(-103.876 -484.61)"/></g><path class="ah" d="M131.122,474.66l7.766-49.27h-6.231l-1.226,2.126h.183a1.6,1.6,0,0,1,1.539,2.051L121.82,468.447a4.059,4.059,0,0,1-3.9,2.923H106.156a19.363,19.363,0,0,0-1.409,3.29Z" transform="translate(-6.802 -3.563)"/><g transform="translate(211.602 504.024)"><circle class="k" cx="20.007" cy="20.007" r="20.007" transform="translate(0 37.049) rotate(-67.805)"/><circle class="m" cx="12.117" cy="12.117" r="12.117" transform="translate(12.175 16.072) rotate(-9.255)"/><circle class="l" cx="9.692" cy="9.692" r="9.692" transform="translate(13.521 31.569) rotate(-68.593)"/><path class="n" d="M270.1,558.328a6.681,6.681,0,1,0,6.681-6.681A6.681,6.681,0,0,0,270.1,558.328Z" transform="translate(-250.699 -532.246)"/></g><path class="p" d="M271.935,523.752c14.66,0,26.555,10.627,26.646,25.982l-.175.177h-6.791a3.76,3.76,0,0,1-3.719-3.038c-1.389-7.607-8.007-12.184-15.96-12.184s-14.571,4.577-15.961,12.184a3.759,3.759,0,0,1-3.718,3.038h-6.968C245.288,534.461,257.218,523.752,271.935,523.752Z" transform="translate(-34.251 -22.774)"/><path class="n" d="M157.54,543.367H218.2v-.434a2.854,2.854,0,0,0-2.854-2.854H157.54c-9.239,0-13.73-4.917-15.5-14.045-.756-3.894-5.358-35.488-5.409-35.789h-.295a1.552,1.552,0,0,0-1.547,1.675c.519,6.536,3.357,31.513,4.027,34.967C141,538.131,146.144,543.367,157.54,543.367Z" transform="translate(-12.668 -16.229)"/><path class="n" d="M323.5,542.219h2.049a2.536,2.536,0,0,0,2.536-2.536v-5.947a2.535,2.535,0,0,0-2.536-2.535H323.5Z" transform="translate(-49.527 -24.229)"/><path class="ai" d="M119.186,471.886H106.5l-.007-.013,25.282-43.841h1.107a1.6,1.6,0,0,1,1.538,2.051l-11.332,38.879A4.06,4.06,0,0,1,119.186,471.886Z" transform="translate(-7.142 -4.079)"/><path class="k" d="M105.073,485.177H131.22l-.315,2c-.017.108-.029.215-.044.323H104.315A19.279,19.279,0,0,1,105.073,485.177Z" transform="translate(-6.718 -15.24)"/><path class="ah" d="M293.717,493.155h.167a1.745,1.745,0,0,0,1.745-1.745V483.6h-3.657v7.809A1.745,1.745,0,0,0,293.717,493.155Z" transform="translate(-43.369 -14.932)"/><rect class="o" width="5.919" height="1.503" transform="translate(247.472 473.843)"/><path class="ah" d="M318.33,493.155h.167a1.745,1.745,0,0,0,1.745-1.745V483.6h-3.657v7.809A1.745,1.745,0,0,0,318.33,493.155Z" transform="translate(-48.176 -14.932)"/><rect class="o" width="5.919" height="1.503" transform="translate(267.278 473.843)"/><path class="n" d="M125.66,511.968l-20.136.627a1.9,1.9,0,0,1-1.962-1.9v-.237a1.9,1.9,0,0,1,1.962-1.9l20.136.627A1.379,1.379,0,0,1,127,510.561v.027A1.38,1.38,0,0,1,125.66,511.968Z" transform="translate(-6.571 -19.805)"/><rect class="k" width="11.05" height="5.287" rx="1.175" transform="translate(108.932 481.55)"/><rect class="aj" width="9.582" height="3.603" rx="0.548" transform="translate(109.666 482.392)"/><path class="o" d="M76.9,522.334l4.425-.5a3.278,3.278,0,0,0,2.907-3.257V517.8a3.277,3.277,0,0,0-2.907-3.257l-4.425-.5Z" transform="translate(-1.363 -20.877)"/><path class="k" d="M76.052,522.618H75.56a1.187,1.187,0,0,1-1.187-1.188v-6.667a1.187,1.187,0,0,1,1.187-1.187h.492a.431.431,0,0,1,.431.431v8.178A.432.432,0,0,1,76.052,522.618Z" transform="translate(-0.87 -20.786)"/><path class="ah" d="M184.566,419.107h57.313a10.763,10.763,0,0,1,10.7,9.552L257.38,471.1h30.261V424.9a17.748,17.748,0,0,0-18.4-17.736l-85.669,3.161a6.17,6.17,0,0,0-1.079.134l-48.855,9.734a1.182,1.182,0,0,0-.951,1.159v.478h11.66Z" transform="translate(-12.259)"/><g transform="translate(221.326 489.418)"><rect class="ak" width="3.181" height="3.181" transform="translate(25.429)"/><rect class="ak" width="3.181" height="3.181" transform="translate(28.61 3.181)"/><rect class="ak" width="3.181" height="3.181" transform="translate(31.791)"/><rect class="ak" width="3.181" height="3.181" transform="translate(34.971 3.181)"/><rect class="ak" width="3.181" height="3.181" transform="translate(38.152)"/><rect class="ak" width="3.181" height="3.181" transform="translate(41.333 3.181)"/><rect class="ak" width="3.181" height="3.181" transform="translate(44.514)"/><rect class="ak" width="3.181" height="3.181" transform="translate(47.695 3.181)"/><rect class="ak" width="3.181" height="3.181" transform="translate(50.876)"/><rect width="3.181" height="3.181" transform="translate(25.429 3.181)"/><rect width="3.181" height="3.181" transform="translate(28.61)"/><rect width="3.181" height="3.181" transform="translate(31.791 3.181)"/><rect width="3.181" height="3.181" transform="translate(34.971)"/><rect width="3.181" height="3.181" transform="translate(38.152 3.181)"/><rect width="3.181" height="3.181" transform="translate(41.333)"/><rect width="3.181" height="3.181" transform="translate(44.514 3.181)"/><rect width="3.181" height="3.181" transform="translate(47.695)"/><rect width="3.181" height="3.181" transform="translate(50.876 3.181)"/><rect class="ak" width="3.181" height="3.181"/><rect class="ak" width="3.181" height="3.181" transform="translate(3.181 3.181)"/><rect class="ak" width="3.181" height="3.181" transform="translate(6.362)"/><rect class="ak" width="3.181" height="3.181" transform="translate(9.542 3.181)"/><rect class="ak" width="3.181" height="3.181" transform="translate(12.723)"/><rect class="ak" width="3.181" height="3.181" transform="translate(15.904 3.181)"/><rect class="ak" width="3.181" height="3.181" transform="translate(19.085)"/><rect class="ak" width="3.181" height="3.181" transform="translate(22.266 3.181)"/><rect width="3.181" height="3.181" transform="translate(0 3.181)"/><rect width="3.181" height="3.181" transform="translate(3.181)"/><rect width="3.181" height="3.181" transform="translate(6.362 3.181)"/><rect width="3.181" height="3.181" transform="translate(9.542)"/><rect width="3.181" height="3.181" transform="translate(12.723 3.181)"/><rect width="3.181" height="3.181" transform="translate(15.904)"/><rect width="3.181" height="3.181" transform="translate(19.085 3.181)"/><rect width="3.181" height="3.181" transform="translate(22.266)"/></g></g><g class="au" transform="matrix(1, 0, 0, 1, 0.94, 299.11)"><path class="al" d="M22647.27,4888.675a12,12,0,0,1-12-12v-59.041a12,12,0,0,1,12-12h32.85l1.777-10.465,10.705,10.465h120.18a12,12,0,0,1,12,12v59.041a12,12,0,0,1-12,12Z" transform="translate(-22424.14 -4514.81)"/></g><text class="am" transform="translate(306.575 622.017)"><tspan x="-53.856" y="0">bhai ghar</tspan><tspan x="-65.043" y="30">wapis lejao</tspan></text><text class="an" transform="translate(82.17 316.958)"><tspan x="0.65" y="98">404</tspan></text><g transform="translate(-29 75.363)"><g transform="matrix(0.964, 0.187, -0.267, 0.643, 249.194, 464.602)"><g transform="translate(0 0)"><path class="ao" d="M6.085.072l.06-.06c-.015.07-.027.139-.035.209a.166.166,0,0,0-.042.027C5.452.785,4.9,1.412,4.33,1.991Q2.406,3.934.485,5.88l-.472.479C2.013,4.243,4,2.115,6.085.072Z" transform="translate(21.355 5.941)"/><path class="ao" d="M14.656.029a.794.794,0,0,0,.3.274c-.12.154-.321.353-.431.473-.416.456-.842.9-1.27,1.349C11.966,3.474,10.652,4.8,9.338,6.136c-2.678,2.71-5.376,5.4-8.054,8.11-.334.336-.674.67-.995,1.017a1.114,1.114,0,0,1-.26-.421A.179.179,0,0,0,.08,14.8c.944-1.035,1.98-2,2.973-2.992Q5.3,9.564,7.558,7.325C9.941,4.957,12.121,2.383,14.585.094,14.608.073,14.632.05,14.656.029Z" transform="translate(13.095 7.536)"/><path class="ao" d="M14.541.029c.01.028.022.055.033.084a9.162,9.162,0,0,0-1.2,1.171c-.771.791-1.531,1.592-2.293,2.391C10.016,4.8,8.956,5.921,7.856,7.013c-2.61,2.59-5.245,5.162-7.8,7.8l-.022.023a1.9,1.9,0,0,1,.009-.224.156.156,0,0,0,.082-.047C4.44,10.066,8.935,5.716,13.312,1.271,13.717.859,14.112.422,14.541.029Z" transform="translate(13.03 7.182)"/><path class="ao" d="M14.339.32l-.008.006c-1.125.983-2.124,2.139-3.166,3.2C10.141,4.573,9.139,5.646,8.084,6.665c-2.4,2.322-4.733,4.722-7.09,7.089-.322.324-.646.647-.965.972.046-.159.1-.319.157-.476a.206.206,0,0,0,.052-.031c.658-.561,1.244-1.225,1.85-1.836q1.952-1.962,3.9-3.932Q9.826,4.563,13.668.677c.211-.213.418-.439.636-.649A2.307,2.307,0,0,0,14.339.32Z" transform="translate(13.145 6.553)"/><path class="ao" d="M11.849,5.386a1.3,1.3,0,0,0,.181.406c-2.012-.755-3.948-1.775-5.88-2.678-1.329-.621-2.656-1.25-3.971-1.9A16.262,16.262,0,0,1,.063.11.186.186,0,0,0,.024.083.121.121,0,0,0,0,0C.482.27,1.059.465,1.532.681,2.874,1.3,4.223,1.9,5.57,2.51q2.055.924,4.105,1.852a14.088,14.088,0,0,1,2.111,1A.16.16,0,0,0,11.849,5.386Z" transform="translate(0.944 17.008)"/><path class="ao" d="M12.107,5.595a2.425,2.425,0,0,0-.055.487,16.48,16.48,0,0,0-1.787-.824c-1.347-.615-2.7-1.22-4.05-1.828C4.849,2.815,3.483,2.2,2.122,1.578A11.416,11.416,0,0,1,.078.6.153.153,0,0,0,.028.576,1.9,1.9,0,0,1,.017,0,59.2,59.2,0,0,0,5.666,2.721C7.811,3.674,10,4.566,12.107,5.595Z" transform="translate(0.696 15.928)"/><path class="ao" d="M12.176,5.721q-.037.123-.078.246c-.756-.273-1.478-.675-2.2-1.012C8.63,4.364,7.366,3.771,6.1,3.186c-.83-.384-1.682-.732-2.5-1.144A23.518,23.518,0,0,0,.014.313L0,.31C.042.2.086.1.129,0,2.094,1.034,4.181,1.891,6.2,2.827,7.5,3.435,8.812,4.044,10.11,4.669A12.161,12.161,0,0,1,12.176,5.721Z" transform="translate(0.993 14.581)"/><path class="ao" d="M12.225,5.664c-.041.124-.081.25-.115.376C10.031,5.028,7.872,4.145,5.757,3.206A57.3,57.3,0,0,1,0,.424C.034.28.075.139.121,0l.03.012A23.775,23.775,0,0,1,3.763,1.762c.815.412,1.673.759,2.5,1.142,1.269.586,2.534,1.18,3.8,1.771C10.777,5.008,11.485,5.394,12.225,5.664Z" transform="translate(0.769 15.177)"/><path d="M28.418,7.631a.119.119,0,0,1,.033.144,4.545,4.545,0,0,1-.989,1.166c-2.568,2.742-5.245,5.391-7.9,8.058C17.545,19.032,15.418,21,13.5,23.125a.157.157,0,0,1-.05.038.136.136,0,0,1-.178.072c-2.176-.773-4.262-1.876-6.341-2.849-1.329-.621-2.656-1.249-3.971-1.9A15.544,15.544,0,0,1,.787,17.346c-1.11-.448-.9-2.489.012-3.088C2.852,11.9,5.119,9.682,7.3,7.431,9.7,4.957,12.049,2.393,14.616.079a.14.14,0,0,1,.156-.042c2.5.777,4.911,1.843,7.317,2.834,1.947.8,3.882,1.627,5.825,2.437A.118.118,0,0,1,28,5.419a.114.114,0,0,1-.033.109,2.035,2.035,0,0,0-.14,1.423c.059.188.2.646.477.634A.139.139,0,0,1,28.418,7.631Zm-.362.208a.8.8,0,0,1-.3-.274c-.024.021-.048.044-.071.065-2.464,2.29-4.644,4.863-7.027,7.231q-2.255,2.24-4.5,4.486c-.993.99-2.03,1.957-2.973,2.992a.179.179,0,0,1-.051.038,1.115,1.115,0,0,0,.26.421c.321-.347.661-.681.995-1.017,2.678-2.71,5.376-5.4,8.054-8.11,1.314-1.331,2.628-2.662,3.922-4.011.428-.446.855-.892,1.27-1.348C27.734,8.192,27.935,7.993,28.055,7.839ZM27.6,7.295c-.011-.029-.023-.056-.033-.084-.429.393-.824.831-1.229,1.242C21.965,12.9,17.47,17.248,13.151,21.742a.156.156,0,0,1-.082.047,1.9,1.9,0,0,0-.009.224l.022-.023c2.56-2.634,5.2-5.205,7.8-7.8,1.1-1.091,2.16-2.217,3.228-3.338.762-.8,1.522-1.6,2.293-2.391A9.164,9.164,0,0,1,27.6,7.295Zm-.1-1.341-.06.06c-2.08,2.043-4.072,4.172-6.072,6.287l.472-.479q1.922-1.945,3.845-3.89c.573-.578,1.123-1.206,1.738-1.743a.166.166,0,0,1,.042-.027C27.473,6.092,27.485,6.023,27.5,5.953Zm-.023.927.008-.006a2.316,2.316,0,0,1-.035-.292c-.218.21-.424.436-.636.649Q22.961,11.109,19.13,15q-1.947,1.967-3.9,3.932c-.606.61-1.192,1.274-1.85,1.836a.208.208,0,0,1-.052.031c-.056.157-.111.317-.157.476.32-.325.643-.648.965-.972,2.357-2.366,4.685-4.766,7.089-7.089,1.055-1.019,2.057-2.092,3.082-3.138C25.353,9.018,26.352,7.863,27.477,6.88Zm-1.953.642a26.264,26.264,0,0,1,2.013-2.037c-1.827-.763-3.648-1.54-5.48-2.293-2.4-.988-4.8-2.052-7.29-2.834-2.575,2.328-4.937,4.9-7.344,7.388C5.339,9.9,3.173,12.02,1.2,14.271,3.228,15.345,5.39,16.23,7.475,17.2c1.329.619,2.66,1.238,3.979,1.876a12.232,12.232,0,0,1,1.9.976c.142-.11.272-.238.4-.36,2.66-2.5,5.118-5.214,7.632-7.848C22.764,10.4,24.137,8.955,25.524,7.522ZM13.091,20.548q.041-.123.079-.246A12.158,12.158,0,0,0,11.1,19.251c-1.3-.625-2.6-1.235-3.912-1.842-2.017-.936-4.1-1.794-6.069-2.827-.043.1-.087.2-.128.31l.014,0A23.512,23.512,0,0,1,4.6,16.624c.814.411,1.667.759,2.5,1.144,1.267.585,2.531,1.178,3.8,1.769C11.613,19.874,12.335,20.275,13.091,20.548Zm-.212.668c.034-.126.075-.251.115-.376-.741-.27-1.448-.656-2.158-.988-1.266-.591-2.53-1.185-3.8-1.771-.831-.383-1.689-.73-2.5-1.142A23.783,23.783,0,0,0,.919,15.189l-.03-.012c-.046.139-.087.28-.12.424a57.3,57.3,0,0,0,5.756,2.782C8.641,19.322,10.8,20.2,12.879,21.216Zm.1,1.583a1.3,1.3,0,0,1-.181-.406.161.161,0,0,1-.063-.026,14.085,14.085,0,0,0-2.111-1q-2.049-.931-4.105-1.852c-1.347-.605-2.7-1.211-4.038-1.828C2,17.472,1.426,17.277.944,17.008a.12.12,0,0,1,.024.083.187.187,0,0,1,.039.027,16.272,16.272,0,0,0,2.116,1.107c1.315.647,2.642,1.275,3.972,1.9C9.026,21.024,10.962,22.045,12.974,22.8Zm-.226-.79a2.416,2.416,0,0,1,.055-.487c-2.106-1.029-4.3-1.921-6.441-2.874A59.186,59.186,0,0,1,.713,15.928a1.906,1.906,0,0,0,.011.576.152.152,0,0,1,.05.027,11.417,11.417,0,0,0,2.044.975c1.361.623,2.727,1.237,4.093,1.852s2.7,1.213,4.05,1.828A16.486,16.486,0,0,1,12.748,22.009ZM.378,16.252a4.143,4.143,0,0,1,.34-1.506A2.052,2.052,0,0,0,.378,16.252Z"/><path class="ap" d="M26.366,5.154a26.275,26.275,0,0,0-2.013,2.037c-1.387,1.433-2.761,2.879-4.137,4.321-2.514,2.634-4.972,5.348-7.632,7.848-.13.122-.26.25-.4.36a12.232,12.232,0,0,0-1.9-.976c-1.319-.638-2.65-1.257-3.979-1.876C4.218,15.9,2.056,15.014.028,13.94,2,11.689,4.167,9.568,6.253,7.415,8.659,4.93,11.021,2.355,13.6.027c2.489.782,4.891,1.846,7.29,2.834C22.718,3.614,24.54,4.391,26.366,5.154Z" transform="translate(1.171 0.331)"/><path class="ao" d="M.368,0a4.146,4.146,0,0,0-.34,1.506A2.052,2.052,0,0,1,.368,0Z" transform="translate(0.349 14.746)"/></g></g><g transform="matrix(0.964, 0.187, -0.267, 0.643, 250.769, 460.474)"><g transform="translate(0 0)"><path class="ao" d="M6.085.072l.06-.06c-.015.07-.027.139-.035.209a.166.166,0,0,0-.042.027C5.452.785,4.9,1.412,4.33,1.991Q2.406,3.934.485,5.88l-.472.479C2.013,4.243,4,2.115,6.085.072Z" transform="translate(21.355 5.941)"/><path class="ao" d="M14.656.029a.794.794,0,0,0,.3.274c-.12.154-.321.353-.431.473-.416.456-.842.9-1.27,1.349C11.966,3.474,10.652,4.8,9.338,6.136c-2.678,2.71-5.376,5.4-8.054,8.11-.334.336-.674.67-.995,1.017a1.114,1.114,0,0,1-.26-.421A.179.179,0,0,0,.08,14.8c.944-1.035,1.98-2,2.973-2.992Q5.3,9.564,7.558,7.325C9.941,4.957,12.121,2.383,14.585.094,14.608.073,14.632.05,14.656.029Z" transform="translate(13.095 7.536)"/><path class="ao" d="M14.541.029c.01.028.022.055.033.084a9.162,9.162,0,0,0-1.2,1.171c-.771.791-1.531,1.592-2.293,2.391C10.016,4.8,8.956,5.921,7.856,7.013c-2.61,2.59-5.245,5.162-7.8,7.8l-.022.023a1.9,1.9,0,0,1,.009-.224.156.156,0,0,0,.082-.047C4.44,10.066,8.935,5.716,13.312,1.271,13.717.859,14.112.422,14.541.029Z" transform="translate(13.03 7.182)"/><path class="ao" d="M14.339.32l-.008.006c-1.125.983-2.124,2.139-3.166,3.2C10.141,4.573,9.139,5.646,8.084,6.665c-2.4,2.322-4.733,4.722-7.09,7.089-.322.324-.646.647-.965.972.046-.159.1-.319.157-.476a.206.206,0,0,0,.052-.031c.658-.561,1.244-1.225,1.85-1.836q1.952-1.962,3.9-3.932Q9.826,4.563,13.668.677c.211-.213.418-.439.636-.649A2.307,2.307,0,0,0,14.339.32Z" transform="translate(13.145 6.553)"/><path class="ao" d="M11.849,5.386a1.3,1.3,0,0,0,.181.406c-2.012-.755-3.948-1.775-5.88-2.678-1.329-.621-2.656-1.25-3.971-1.9A16.262,16.262,0,0,1,.063.11.186.186,0,0,0,.024.083.121.121,0,0,0,0,0C.482.27,1.059.465,1.532.681,2.874,1.3,4.223,1.9,5.57,2.51q2.055.924,4.105,1.852a14.088,14.088,0,0,1,2.111,1A.16.16,0,0,0,11.849,5.386Z" transform="translate(0.944 17.008)"/><path class="ao" d="M12.107,5.595a2.425,2.425,0,0,0-.055.487,16.48,16.48,0,0,0-1.787-.824c-1.347-.615-2.7-1.22-4.05-1.828C4.849,2.815,3.483,2.2,2.122,1.578A11.416,11.416,0,0,1,.078.6.153.153,0,0,0,.028.576,1.9,1.9,0,0,1,.017,0,59.2,59.2,0,0,0,5.666,2.721C7.811,3.674,10,4.566,12.107,5.595Z" transform="translate(0.696 15.928)"/><path class="ao" d="M12.176,5.721q-.037.123-.078.246c-.756-.273-1.478-.675-2.2-1.012C8.63,4.364,7.366,3.771,6.1,3.186c-.83-.384-1.682-.732-2.5-1.144A23.518,23.518,0,0,0,.014.313L0,.31C.042.2.086.1.129,0,2.094,1.034,4.181,1.891,6.2,2.827,7.5,3.435,8.812,4.044,10.11,4.669A12.161,12.161,0,0,1,12.176,5.721Z" transform="translate(0.993 14.581)"/><path class="ao" d="M12.225,5.664c-.041.124-.081.25-.115.376C10.031,5.028,7.872,4.145,5.757,3.206A57.3,57.3,0,0,1,0,.424C.034.28.075.139.121,0l.03.012A23.775,23.775,0,0,1,3.763,1.762c.815.412,1.673.759,2.5,1.142,1.269.586,2.534,1.18,3.8,1.771C10.777,5.008,11.485,5.394,12.225,5.664Z" transform="translate(0.769 15.177)"/><path d="M28.418,7.631a.119.119,0,0,1,.033.144,4.545,4.545,0,0,1-.989,1.166c-2.568,2.742-5.245,5.391-7.9,8.058C17.545,19.032,15.418,21,13.5,23.125a.157.157,0,0,1-.05.038.136.136,0,0,1-.178.072c-2.176-.773-4.262-1.876-6.341-2.849-1.329-.621-2.656-1.249-3.971-1.9A15.544,15.544,0,0,1,.787,17.346c-1.11-.448-.9-2.489.012-3.088C2.852,11.9,5.119,9.682,7.3,7.431,9.7,4.957,12.049,2.393,14.616.079a.14.14,0,0,1,.156-.042c2.5.777,4.911,1.843,7.317,2.834,1.947.8,3.882,1.627,5.825,2.437A.118.118,0,0,1,28,5.419a.114.114,0,0,1-.033.109,2.035,2.035,0,0,0-.14,1.423c.059.188.2.646.477.634A.139.139,0,0,1,28.418,7.631Zm-.362.208a.8.8,0,0,1-.3-.274c-.024.021-.048.044-.071.065-2.464,2.29-4.644,4.863-7.027,7.231q-2.255,2.24-4.5,4.486c-.993.99-2.03,1.957-2.973,2.992a.179.179,0,0,1-.051.038,1.115,1.115,0,0,0,.26.421c.321-.347.661-.681.995-1.017,2.678-2.71,5.376-5.4,8.054-8.11,1.314-1.331,2.628-2.662,3.922-4.011.428-.446.855-.892,1.27-1.348C27.734,8.192,27.935,7.993,28.055,7.839ZM27.6,7.295c-.011-.029-.023-.056-.033-.084-.429.393-.824.831-1.229,1.242C21.965,12.9,17.47,17.248,13.151,21.742a.156.156,0,0,1-.082.047,1.9,1.9,0,0,0-.009.224l.022-.023c2.56-2.634,5.2-5.205,7.8-7.8,1.1-1.091,2.16-2.217,3.228-3.338.762-.8,1.522-1.6,2.293-2.391A9.164,9.164,0,0,1,27.6,7.295Zm-.1-1.341-.06.06c-2.08,2.043-4.072,4.172-6.072,6.287l.472-.479q1.922-1.945,3.845-3.89c.573-.578,1.123-1.206,1.738-1.743a.166.166,0,0,1,.042-.027C27.473,6.092,27.485,6.023,27.5,5.953Zm-.023.927.008-.006a2.316,2.316,0,0,1-.035-.292c-.218.21-.424.436-.636.649Q22.961,11.109,19.13,15q-1.947,1.967-3.9,3.932c-.606.61-1.192,1.274-1.85,1.836a.208.208,0,0,1-.052.031c-.056.157-.111.317-.157.476.32-.325.643-.648.965-.972,2.357-2.366,4.685-4.766,7.089-7.089,1.055-1.019,2.057-2.092,3.082-3.138C25.353,9.018,26.352,7.863,27.477,6.88Zm-1.953.642a26.264,26.264,0,0,1,2.013-2.037c-1.827-.763-3.648-1.54-5.48-2.293-2.4-.988-4.8-2.052-7.29-2.834-2.575,2.328-4.937,4.9-7.344,7.388C5.339,9.9,3.173,12.02,1.2,14.271,3.228,15.345,5.39,16.23,7.475,17.2c1.329.619,2.66,1.238,3.979,1.876a12.232,12.232,0,0,1,1.9.976c.142-.11.272-.238.4-.36,2.66-2.5,5.118-5.214,7.632-7.848C22.764,10.4,24.137,8.955,25.524,7.522ZM13.091,20.548q.041-.123.079-.246A12.158,12.158,0,0,0,11.1,19.251c-1.3-.625-2.6-1.235-3.912-1.842-2.017-.936-4.1-1.794-6.069-2.827-.043.1-.087.2-.128.31l.014,0A23.512,23.512,0,0,1,4.6,16.624c.814.411,1.667.759,2.5,1.144,1.267.585,2.531,1.178,3.8,1.769C11.613,19.874,12.335,20.275,13.091,20.548Zm-.212.668c.034-.126.075-.251.115-.376-.741-.27-1.448-.656-2.158-.988-1.266-.591-2.53-1.185-3.8-1.771-.831-.383-1.689-.73-2.5-1.142A23.783,23.783,0,0,0,.919,15.189l-.03-.012c-.046.139-.087.28-.12.424a57.3,57.3,0,0,0,5.756,2.782C8.641,19.322,10.8,20.2,12.879,21.216Zm.1,1.583a1.3,1.3,0,0,1-.181-.406.161.161,0,0,1-.063-.026,14.085,14.085,0,0,0-2.111-1q-2.049-.931-4.105-1.852c-1.347-.605-2.7-1.211-4.038-1.828C2,17.472,1.426,17.277.944,17.008a.12.12,0,0,1,.024.083.187.187,0,0,1,.039.027,16.272,16.272,0,0,0,2.116,1.107c1.315.647,2.642,1.275,3.972,1.9C9.026,21.024,10.962,22.045,12.974,22.8Zm-.226-.79a2.416,2.416,0,0,1,.055-.487c-2.106-1.029-4.3-1.921-6.441-2.874A59.186,59.186,0,0,1,.713,15.928a1.906,1.906,0,0,0,.011.576.152.152,0,0,1,.05.027,11.417,11.417,0,0,0,2.044.975c1.361.623,2.727,1.237,4.093,1.852s2.7,1.213,4.05,1.828A16.486,16.486,0,0,1,12.748,22.009ZM.378,16.252a4.143,4.143,0,0,1,.34-1.506A2.052,2.052,0,0,0,.378,16.252Z"/><path class="ap" d="M26.366,5.154a26.275,26.275,0,0,0-2.013,2.037c-1.387,1.433-2.761,2.879-4.137,4.321-2.514,2.634-4.972,5.348-7.632,7.848-.13.122-.26.25-.4.36a12.232,12.232,0,0,0-1.9-.976c-1.319-.638-2.65-1.257-3.979-1.876C4.218,15.9,2.056,15.014.028,13.94,2,11.689,4.167,9.568,6.253,7.415,8.659,4.93,11.021,2.355,13.6.027c2.489.782,4.891,1.846,7.29,2.834C22.718,3.614,24.54,4.391,26.366,5.154Z" transform="translate(1.171 0.331)"/><path class="ao" d="M.368,0a4.146,4.146,0,0,0-.34,1.506A2.052,2.052,0,0,1,.368,0Z" transform="translate(0.349 14.746)"/></g></g></g><text class="aq" transform="translate(147.17 360.383)"><tspan x="-54.225" y="0">error</tspan></text></g><g transform="translate(390 605)"><g transform="translate(12)"><g class="at" transform="matrix(1, 0, 0, 1, -172, -423.85)"><rect class="ar" width="146" height="36" rx="4" transform="translate(160 423.85)"/></g><text class="as" transform="translate(61 23)"><tspan x="-56.998" y="0">BACK TO HOME</tspan></text></g></g></g></svg>