<svg xmlns="http://www.w3.org/2000/svg" width="350.303" height="369.517" viewBox="0 0 350.303 369.517">
  <g id="Group_10184" data-name="Group 10184" transform="translate(-107.191 -62.287)">
    <path id="Path_7395" data-name="Path 7395" d="M256.474,76.922H238.029a1.139,1.139,0,0,1-1.139-1.139h0a1.139,1.139,0,0,1,1.139-1.14h18.445a1.139,1.139,0,0,1,1.139,1.14h0A1.139,1.139,0,0,1,256.474,76.922Z" fill="#fff"/>
    <g id="Group_10135" data-name="Group 10135">
      <g id="Group_10131" data-name="Group 10131">
        <g id="Group_10130" data-name="Group 10130">
          <rect id="Rectangle_3215" data-name="Rectangle 3215" width="66.592" height="42.231" transform="translate(107.191 212.381) rotate(-7.765)" fill="#ebebeb"/>
          <g id="Group_10129" data-name="Group 10129">
            <path id="Path_7396" data-name="Path 7396" d="M173.172,203.383c-2.318,2.912-4.7,5.723-7.043,8.6-2.371,2.823-4.751,5.647-7.145,8.446q-3.747,4.385-7.523,8.7c-.078.093-.146.185-.224.278q-3.341,3.813-6.7,7.63l-.334.362-.409-.26q-4.256-2.78-8.491-5.573c-.1-.055-.2-.124-.3-.193-3.2-2.1-6.4-4.223-9.591-6.384-3.044-2.043-6.094-4.127-9.133-6.212-3.028-2.142-6.075-4.213-9.088-6.4,3.131,1.8,6.228,3.711,9.338,5.567,3.105,1.9,6.21,3.8,9.3,5.737q5.162,3.21,10.328,6.53c.01,0,.01,0,.022.011q3.862,2.46,7.729,4.948c2.031-2.282,4.069-4.579,6.113-6.836.006-.028.006-.028.016-.029q4.087-4.554,8.2-9.058,3.69-4.026,7.417-8C168.164,208.626,170.636,205.954,173.172,203.383Z" fill="#fff"/>
            <path id="Path_7397" data-name="Path 7397" d="M136.386,231.155c-.027.024-.043.056-.07.08-.306.345-.612.689-.92,1.024-1.464,1.623-2.976,3.192-4.523,4.725-1.882,1.891-3.823,3.72-5.775,5.541-1.966,1.792-3.943,3.575-5.978,5.306s-4.093,3.435-6.248,5.031c1.763-2.027,3.621-3.946,5.5-5.827s3.832-3.722,5.774-5.542c1.975-1.8,3.952-3.586,5.987-5.317,1.618-1.382,3.269-2.747,4.968-4.049.393-.306.786-.6,1.19-.9C136.322,231.2,136.359,231.179,136.386,231.155Z" fill="#fff"/>
            <path id="Path_7398" data-name="Path 7398" d="M178.537,243.907c-2.5-.96-4.953-2.049-7.367-3.174s-4.806-2.311-7.19-3.51c-2.369-1.232-4.728-2.474-7.048-3.793-1.891-1.064-3.766-2.161-5.6-3.334-.4-.248-.784-.5-1.172-.748-.032-.016-.056-.043-.088-.059a.443.443,0,0,0,.106.036c.469.188.928.368,1.388.558,1.986.8,3.932,1.674,5.871,2.57,2.424,1.123,4.807,2.312,7.182,3.522,2.368,1.231,4.728,2.474,7.047,3.793S176.3,242.426,178.537,243.907Z" fill="#fff"/>
          </g>
        </g>
      </g>
      <g id="Group_10134" data-name="Group 10134">
        <g id="Group_10133" data-name="Group 10133">
          <rect id="Rectangle_3216" data-name="Rectangle 3216" width="66.9" height="105.492" transform="translate(307.209 234.373) rotate(-76.683)" fill="#ebebeb"/>
          <g id="Group_10132" data-name="Group 10132">
            <path id="Path_7399" data-name="Path 7399" d="M425.273,193.571c-5.085,2.983-10.208,5.781-15.309,8.694-5.113,2.822-10.24,5.641-15.374,8.413q-8.037,4.346-16.08,8.579c-.168.093-.321.19-.49.283q-7.11,3.734-14.252,7.46l-.7.344-.456-.618q-4.705-6.531-9.376-13.075c-.114-.138-.223-.3-.331-.455q-5.305-7.4-10.539-14.9c-3.335-4.756-6.655-9.574-9.96-14.388-3.254-4.891-6.579-9.688-9.787-14.635,3.6,4.442,7.092,9.034,10.63,13.549,3.508,4.575,7.016,9.149,10.479,13.78q5.8,7.686,11.543,15.538c.015,0,.015,0,.026.028q4.308,5.838,8.606,11.719c4.3-2.217,8.623-4.451,12.93-6.621.025-.038.025-.038.041-.035q8.637-4.4,17.284-8.714,7.749-3.849,15.523-7.6C414.884,198.467,420.06,195.926,425.273,193.571Z" fill="#fff"/>
            <path id="Path_7400" data-name="Path 7400" d="M355.074,213.658c-.053.02-.1.059-.149.079-.649.335-1.3.67-1.943.989-3.089,1.564-6.218,3.021-9.378,4.406-3.86,1.724-7.771,3.321-11.693,4.9-3.927,1.529-7.866,3.038-11.86,4.437s-8.008,2.744-12.1,3.875c3.76-1.991,7.6-3.768,11.455-5.477,3.875-1.72,7.786-3.318,11.693-4.9,3.946-1.54,7.885-3.05,11.879-4.449,3.179-1.119,6.4-2.2,9.652-3.153.754-.228,1.5-.441,2.27-.651C354.952,213.694,355.021,213.678,355.074,213.658Z" fill="#fff"/>
            <path id="Path_7401" data-name="Path 7401" d="M410.111,256.527c-3.152-2.847-6.152-5.852-9.08-8.889s-5.787-6.157-8.628-9.287c-2.8-3.17-5.578-6.351-8.255-9.622-2.189-2.651-4.336-5.341-6.381-8.12-.445-.594-.876-1.184-1.306-1.774-.039-.042-.058-.1-.1-.137a.742.742,0,0,0,.136.113c.587.546,1.162,1.073,1.733,1.615,2.481,2.313,4.859,4.716,7.214,7.145,2.943,3.041,5.788,6.156,8.609,9.3,2.8,3.169,5.579,6.351,8.256,9.622C405.008,249.751,407.643,253.061,410.111,256.527Z" fill="#fff"/>
          </g>
        </g>
      </g>
    </g>
    <path id="Path_7402" data-name="Path 7402" d="M149.155,378.639,187.7,378.4l38.542-.088,77.085-.167,77.085.166,38.542.088,38.542.245-38.542.245-38.542.088-77.085.166-77.085-.168-38.542-.088Z" fill="#263238"/>
    <g id="Group_10147" data-name="Group 10147">
      <g id="Group_10144" data-name="Group 10144">
        <g id="Group_10137" data-name="Group 10137">
          <path id="Path_7403" data-name="Path 7403" d="M386.171,317.685s-16.591-3.762-25.686-12.141-14.174-23.39-14.174-23.39a142.77,142.77,0,0,1,18.608,4.887,31.42,31.42,0,0,1,5.629,7.96,38.142,38.142,0,0,0,.044-5.69A25.316,25.316,0,0,1,376.5,292.9C384.041,299.5,386.171,317.685,386.171,317.685Z" fill="#e8505b"/>
          <g id="Group_10136" data-name="Group 10136">
            <path id="Path_7404" data-name="Path 7404" d="M356.671,289.45c-2.262-1.566-4.564-3.075-6.816-4.654a.13.13,0,0,1,.136-.221c4.276,2.553,8.491,5.283,12.569,8.141,1.422,1,2.817,2.034,4.2,3.091-.1-.163-.192-.328-.29-.491-.5-.834-1.022-1.651-1.547-2.468a35.329,35.329,0,0,0-3.522-4.7c-.049-.053.034-.132.081-.077,1.29,1.489,2.581,2.964,3.761,4.544.561.752,1.08,1.53,1.577,2.325.257.413.507.829.745,1.253.08.142.168.284.249.429,2.146,1.684,4.234,3.441,6.229,5.3q1.845,1.719,3.563,3.56c-.641-2.007-1.2-4.038-1.946-6.015-.025-.068.086-.1.11-.028.722,2.074,1.513,4.158,2.071,6.288q1.908,2.059,3.632,4.277c-.02-.09-.039-.182-.06-.27-.188-.782-.384-1.562-.593-2.339-.4-1.5-.845-2.992-1.351-4.462a25.915,25.915,0,0,0-4.457-8.419c-.047-.055.035-.133.082-.078a32.369,32.369,0,0,1,6.354,13.269q.265,1.061.506,2.127c.085.376.185.76.249,1.147.5.677.993,1.362,1.464,2.063a71.863,71.863,0,0,1,7.02,13.767A158.66,158.66,0,0,1,396,343.383c.03.11-.134.148-.17.043-3.244-9.709-6.559-19.557-12.114-28.235-1.172-1.832-2.441-3.6-3.788-5.3a31.357,31.357,0,0,1-8.069-1.607,35.784,35.784,0,0,1-8.086-3.9,49.391,49.391,0,0,1-4.144-3.131.056.056,0,1,1,.07-.087,33.065,33.065,0,0,0,7.605,4.6,41.468,41.468,0,0,0,8.37,2.809c1.225.267,2.467.464,3.71.632a70.274,70.274,0,0,0-4.892-5.42c-.56-.559-1.14-1.094-1.716-1.635a39.335,39.335,0,0,0-6.133-3.513c-2.719-1.313-5.394-2.705-8.085-4.074-1.518-.772-3.026-1.563-4.557-2.31-.065-.032-.005-.127.06-.1,2.726,1.317,5.5,2.548,8.249,3.809,2.59,1.187,5.211,2.378,7.7,3.775.108.06.208.126.313.187-2.247-1.957-4.572-3.822-6.953-5.619Q360.069,291.813,356.671,289.45Z" fill="#263238"/>
            <path id="Path_7405" data-name="Path 7405" d="M357.615,298c1.349.592,2.723,1.116,4.058,1.74,1.374.642,2.676,1.394,3.979,2.166.058.034.005.114-.053.086-1.323-.633-2.663-1.225-3.973-1.884-1.342-.675-2.668-1.4-4.044-2C357.516,298.083,357.548,297.975,357.615,298Z" fill="#263238"/>
          </g>
        </g>
        <g id="Group_10139" data-name="Group 10139">
          <path id="Path_7406" data-name="Path 7406" d="M440.07,234.071a23.7,23.7,0,0,0-4.959,13.779c-.054,1.488.18,3.561.353,6a39.349,39.349,0,0,0-10.827,9.254,19.617,19.617,0,0,1,10.941-2.619,32.817,32.817,0,0,1-.634,4.958,18.608,18.608,0,0,0-7.037,1.392,15.736,15.736,0,0,1,6.346,1.261c-2.958,9.409-11.749,19.075-36.026,23.18a50.939,50.939,0,0,1,4.3-34.162C409.8,242.806,440.07,234.071,440.07,234.071Z" fill="#e8505b"/>
          <g id="Group_10138" data-name="Group 10138">
            <path id="Path_7407" data-name="Path 7407" d="M389.825,331.539q.631-6.03,1.572-12.023a240.1,240.1,0,0,1,4.9-23.764,95.344,95.344,0,0,1,3.5-10.828,16.628,16.628,0,0,1-.09-1.943q-.024-1.165-.012-2.332.027-2.334.223-4.658a55.8,55.8,0,0,1,1.492-9.1c.444-1.73.959-3.433,1.467-5.144a.056.056,0,0,1,.108.033,66.7,66.7,0,0,0-1.792,9.085,85.521,85.521,0,0,0-.816,9.11q-.045,1.251-.047,2.5c0,.353.015.713.029,1.072a78.159,78.159,0,0,1,4.09-8.467,103.034,103.034,0,0,1,8.309-12.43,5.2,5.2,0,0,1,.2-1.358q.17-.814.353-1.625c.248-1.109.527-2.212.828-3.308.6-2.2,1.4-4.326,2.088-6.5a.057.057,0,0,1,.108.033c-.642,2.151-1.067,4.377-1.559,6.566-.244,1.083-.481,2.167-.719,3.25q-.179.813-.347,1.627c-.008.039-.014.081-.022.121q1.472-1.855,3.006-3.66c4.636-5.436,9.718-10.451,14.834-15.43.629-.612,1.274-1.209,1.911-1.812.053-.05.128.03.078.082-4.889,5.1-9.7,10.259-14.261,15.659q-1.625,1.925-3.2,3.9c.551-.373,1.108-.737,1.656-1.1,1.412-.925,2.843-1.824,4.316-2.649s2.958-1.632,4.471-2.382c1.557-.772,3.221-1.4,4.723-2.274.064-.037.12.072.054.1a35.113,35.113,0,0,0-4.429,2.454c-1.478.876-2.953,1.759-4.4,2.679-1.427.9-2.861,1.8-4.278,2.718-1.181.767-2.344,1.606-3.568,2.314a114.775,114.775,0,0,0-7.778,11.32A83.286,83.286,0,0,0,402.8,281c.291-.127.583-.25.87-.377l2.223-.987c1.427-.634,2.862-1.252,4.294-1.875,2.722-1.185,5.488-2.272,8.159-3.571a37.124,37.124,0,0,0,4.358-2.421c.061-.04.113.058.054.1-4.977,3.432-10.558,5.849-16.066,8.286l-2.389,1.058c-.656.29-1.314.615-1.99.868a85.021,85.021,0,0,0-4.105,11.25,228.807,228.807,0,0,0-5.282,23.485c-1.393,7.93-2.333,15.912-3.062,23.927-.091,1-.181,2-.295,3a.316.316,0,0,1-.632-.016C388.984,339.659,389.4,335.583,389.825,331.539Z" fill="#263238"/>
            <path id="Path_7408" data-name="Path 7408" d="M404.594,264.5c.445-2.468,1.1-4.881,1.767-7.3a.056.056,0,0,1,.108.033c-.613,2.371-1.053,4.789-1.5,7.2q-.681,3.68-1.2,7.389c-.006.042-.071.043-.068,0A65.253,65.253,0,0,1,404.594,264.5Z" fill="#263238"/>
            <path id="Path_7409" data-name="Path 7409" d="M415.056,271.19a43.939,43.939,0,0,1,5.28-2.971c.884-.457,1.781-.892,2.677-1.326.924-.447,1.884-.821,2.8-1.281.065-.033.12.066.055.1-.888.446-1.73.985-2.6,1.461-.9.49-1.793.989-2.695,1.473-1.775.953-3.521,2.011-5.384,2.784A.136.136,0,0,1,415.056,271.19Z" fill="#263238"/>
          </g>
        </g>
        <g id="Group_10141" data-name="Group 10141">
          <path id="Path_7410" data-name="Path 7410" d="M385.869,288.944s-15.352-3.667-22.4-13.967c-6.733-9.836-8.908-26.6-9.081-28.077.277,1.352,3.444,16.006,13.9,22.832C376.285,274.963,384.019,279.261,385.869,288.944Z" fill="#263238" opacity="0.1"/>
          <path id="Path_7411" data-name="Path 7411" d="M371.7,262.417a19.611,19.611,0,0,1,5.66,9.323.025.025,0,0,1-.048.016,22.917,22.917,0,0,0-5.687-9.255C371.571,262.451,371.647,262.367,371.7,262.417Z" fill="#263238"/>
          <g id="Group_10140" data-name="Group 10140">
            <path id="Path_7412" data-name="Path 7412" d="M385.869,288.944s-15.352-3.667-22.4-13.967c-6.733-9.836-8.908-26.6-9.081-28.077a.758.758,0,0,1-.017-.1s7.361,10.468,15.1,13.137S388.088,271.836,385.869,288.944Z" fill="#e8505b"/>
            <path id="Path_7413" data-name="Path 7413" d="M357.089,252.57a62.749,62.749,0,0,0,4.746,8.116,32.574,32.574,0,0,0,6.316,6.5c2.085,1.657,4.291,3.158,6.4,4.781-.016-.025-.031-.052-.048-.076-.4-.588-.82-1.16-1.257-1.718-.879-1.124-1.84-2.184-2.806-3.232-1.909-2.07-3.856-4.1-5.566-6.341a23.466,23.466,0,0,1-2.462-3.966c-.032-.065.076-.1.107-.036,2.49,5.189,7.463,8.509,11.013,12.891a22.617,22.617,0,0,1,1.418,1.941,7.97,7.97,0,0,1,.884,1.56,32.307,32.307,0,0,1,5.238,5.294,21.457,21.457,0,0,0-.616-2.98,15.059,15.059,0,0,0-1.628-3.888c-.038-.062.057-.125.094-.063a18.317,18.317,0,0,1,1.791,3.864,13.548,13.548,0,0,1,.559,3.315l.008.01a30.286,30.286,0,0,1,2.074,3.226c-.064-.328-.125-.656-.191-.984-.3-1.529-.641-3.056-1.038-4.564a27.381,27.381,0,0,0-3.693-8.65c-.042-.06.053-.122.094-.062a32.926,32.926,0,0,1,4.091,8.462c.489,1.507.882,3.039,1.226,4.584.169.756.32,1.514.465,2.274.075.393.161.8.224,1.2a55.2,55.2,0,0,1,3.541,10.408,152.663,152.663,0,0,1,3.274,19.413,161.5,161.5,0,0,1,1.059,20.612c-.014.864-.065,1.726-.113,2.588-.013.223-.345.255-.355.02-.151-3.406-.239-6.816-.441-10.219s-.5-6.806-.863-10.2a181.34,181.34,0,0,0-3.2-19.849c-1.245-5.613-2.859-11.263-5.927-16.181a30.426,30.426,0,0,0-5.539-6.587c-2.152-1.932-4.506-3.625-6.775-5.415a37.153,37.153,0,0,1-6.218-5.977,48.979,48.979,0,0,1-4.883-7.924c-.362-.7-.733-1.387-1.1-2.081C356.961,252.568,357.056,252.505,357.089,252.57Z" fill="#263238"/>
            <path id="Path_7414" data-name="Path 7414" d="M359.74,254.821a51.644,51.644,0,0,0,3.42,5.981.042.042,0,0,1-.071.046,41.635,41.635,0,0,1-3.456-5.991C359.6,254.792,359.709,254.756,359.74,254.821Z" fill="#263238"/>
          </g>
        </g>
        <g id="Group_10143" data-name="Group 10143">
          <path id="Path_7415" data-name="Path 7415" d="M442.21,282.154s.244,21.818-12.8,28.116-20.04,1.052-28.9,3.163a.03.03,0,0,0,.016-.012c.344-.52,6.67-9.614,16.733-12.118C427.6,298.723,439.072,291.245,442.21,282.154Z" fill="#e8505b"/>
          <path id="Path_7416" data-name="Path 7416" d="M442.21,281.674s.244,21.818-12.8,28.116-20.04,1.052-28.9,3.162a.025.025,0,0,0,.016-.011,49.325,49.325,0,0,1,14.832-4.375C423.576,307.576,439.292,302.215,442.21,281.674Z" opacity="0.1"/>
          <g id="Group_10142" data-name="Group 10142">
            <path id="Path_7417" data-name="Path 7417" d="M399.644,313.821a22,22,0,0,1,5.189-3.514c.28-.133.568-.243.852-.363.138-.174.284-.34.438-.5.391-.408.8-.8,1.228-1.167a18.339,18.339,0,0,1,2.624-1.893c2.161-1.27,4.53-2.159,6.74-3.34a.056.056,0,0,1,.054.1c-1.092.567-2.149,1.193-3.212,1.813-1.034.6-2.091,1.179-3.1,1.829a22.221,22.221,0,0,0-2.582,1.935c-.229.2-.45.419-.67.64a35.252,35.252,0,0,1,4.409-1.171c2.388-.482,4.8-.824,7.186-1.332a33.407,33.407,0,0,0,3.462-.935c1.083-.871,2.163-1.737,3.188-2.682a26.115,26.115,0,0,0,3.372-3.739c.044-.059.141,0,.1.059a39.878,39.878,0,0,1-5.349,5.9c.562-.214,1.119-.442,1.668-.692a26.928,26.928,0,0,0,11.117-9.249c.041-.06.138,0,.1.06a30.5,30.5,0,0,1-8.993,8.633,27.007,27.007,0,0,1-5.682,2.689,52.721,52.721,0,0,1-7.061,1.669,50.005,50.005,0,0,0-6.914,1.645,20.879,20.879,0,0,0-5.8,3.051,27.12,27.12,0,0,0-7.817,9.693,48.686,48.686,0,0,0-4.3,15.953c-.028.234-.389.234-.373-.009C390.123,329.733,392.574,320.19,399.644,313.821Z" fill="#263238"/>
            <path id="Path_7418" data-name="Path 7418" d="M414.784,306.706a7.51,7.51,0,0,1,2.681-2.431,9.826,9.826,0,0,0,3.19-2.639c.043-.059.141,0,.1.059a10.767,10.767,0,0,1-2.817,2.523,9.831,9.831,0,0,0-3.069,2.539A.048.048,0,0,1,414.784,306.706Z" fill="#263238"/>
          </g>
        </g>
      </g>
      <g id="Group_10146" data-name="Group 10146">
        <g id="Group_10145" data-name="Group 10145">
          <path id="Path_7419" data-name="Path 7419" d="M407.862,329.924l-.594,12-1.82,36.656H378.082l-1.82-36.656-.594-12Z" fill="#37474f"/>
          <path id="Path_7420" data-name="Path 7420" d="M407.862,329.924l-.594,12H376.262l-.594-12Z" fill="#263238"/>
        </g>
        <rect id="Rectangle_3217" data-name="Rectangle 3217" width="36.03" height="11.446" transform="translate(373.75 324.916)" fill="#37474f"/>
      </g>
    </g>
    <path id="Path_7421" data-name="Path 7421" d="M328.832,62.287H165.659a16.658,16.658,0,0,0-16.5,16.813V414.99a16.67,16.67,0,0,0,16.5,16.814H328.832a16.686,16.686,0,0,0,16.523-16.814V79.1A16.674,16.674,0,0,0,328.832,62.287Zm6.2,342.318c0,8.841-6.621,15.993-14.786,15.993H174.269c-8.185,0-14.806-7.152-14.806-15.993V91.831c0-18.01,6.621-18.889,14.806-18.889h29.244c1.7,0,3.089,1.931,3.089,4.324V78.3c0,5.608,3.069,5.627,6.833,5.627h67.621c3.8,0,6.852-.019,6.852-5.627V77.266c0-2.393,1.371-4.324,3.1-4.324h29.235c8.165,0,14.786,2.394,14.786,18.889Z" fill="#263238"/>
    <line id="Line_748" data-name="Line 748" x1="0.55" transform="translate(158.918 384.78)" fill="none"/>
    <path id="Path_7422" data-name="Path 7422" d="M334.785,92.131V404.9c0,8.841-6.621,15.993-14.787,15.993H174.025c-8.184,0-14.8-7.152-14.8-15.993V92.131c0-18.01,6.621-18.888,14.8-18.888H203.27c1.7,0,3.089,1.93,3.089,4.324V78.6c0,5.608,3.069,5.627,6.833,5.627h67.62c3.8,0,6.853-.019,6.853-5.627V77.567c0-2.394,1.371-4.324,3.1-4.324H320C328.164,73.243,334.785,75.636,334.785,92.131Z" fill="#fff"/>
    <path id="Path_7423" data-name="Path 7423" d="M335.038,92.11v28.376H159.473V92.11c0-18.01,6.621-18.889,14.8-18.889h29.245c1.7,0,3.089,1.931,3.089,4.324v1.033c0,5.608,3.069,5.627,6.833,5.627h67.62c3.8,0,6.853-.019,6.853-5.627V77.545c0-2.393,1.37-4.324,3.1-4.324h29.235C328.417,73.221,335.038,75.615,335.038,92.11Z" fill="#e8505b"/>
    <g id="Group_10153" data-name="Group 10153">
      <g id="Group_10151" data-name="Group 10151">
        <g id="u5Zjqx">
          <g id="Group_10148" data-name="Group 10148">
            <path id="Path_7424" data-name="Path 7424" d="M198.464,79.967l-.283.281-.16.161a3.843,3.843,0,0,0-5.447,0c-.05-.053-.1-.107-.152-.16l-.279-.28-.008,0V79.96l.02-.017c.119-.105.235-.215.358-.316a4.406,4.406,0,0,1,1.921-.894c.181-.034.364-.051.547-.073.062-.008.467-.009.479-.008.124.009.249.015.373.028a4.225,4.225,0,0,1,1,.24,4.381,4.381,0,0,1,.68.318,4.292,4.292,0,0,1,.649.454c.1.087.2.179.3.268Z" fill="#fff"/>
            <path id="Path_7425" data-name="Path 7425" d="M193.471,81.3l-.447-.443a3.141,3.141,0,0,1,1.817-.912,3.186,3.186,0,0,1,2.732.9l-.449.447a2.583,2.583,0,0,0-3.653,0Z" fill="#fff"/>
            <path id="Path_7426" data-name="Path 7426" d="M196.678,81.742l-.444.444a1.321,1.321,0,0,0-1.872,0l-.443-.443A1.939,1.939,0,0,1,196.678,81.742Z" fill="#fff"/>
          </g>
          <path id="Path_7427" data-name="Path 7427" d="M195.7,82.589a.4.4,0,1,1-.4-.4A.4.4,0,0,1,195.7,82.589Z" fill="#fff"/>
        </g>
        <g id="Group_10149" data-name="Group 10149">
          <path id="Path_7428" data-name="Path 7428" d="M170.914,80.821a1.163,1.163,0,1,1,1.164,1.164A1.164,1.164,0,0,1,170.914,80.821Z" fill="#fff"/>
          <path id="Path_7429" data-name="Path 7429" d="M174.579,80.821a1.164,1.164,0,1,1,1.164,1.164A1.164,1.164,0,0,1,174.579,80.821Z" fill="#fff"/>
          <path id="Path_7430" data-name="Path 7430" d="M178.244,80.821a1.163,1.163,0,1,1,1.164,1.164A1.164,1.164,0,0,1,178.244,80.821Z" fill="#fff"/>
          <path id="Path_7431" data-name="Path 7431" d="M181.909,80.821a1.163,1.163,0,1,1,1.163,1.164A1.163,1.163,0,0,1,181.909,80.821Z" fill="#fff"/>
          <path id="Path_7432" data-name="Path 7432" d="M185.574,80.821a1.163,1.163,0,1,1,1.163,1.164A1.163,1.163,0,0,1,185.574,80.821Z" fill="#fff"/>
        </g>
        <g id="Group_10150" data-name="Group 10150">
          <path id="Path_7433" data-name="Path 7433" d="M321.861,83.361h-9.472V78.973h9.472Zm-8.989-.483h8.507V79.456h-8.507Z" fill="#fff"/>
          <rect id="Rectangle_3218" data-name="Rectangle 3218" width="6.106" height="2.897" transform="translate(313.175 79.718)" fill="#fff"/>
          <rect id="Rectangle_3219" data-name="Rectangle 3219" width="0.843" height="2.347" transform="translate(321.867 79.994)" fill="#fff"/>
        </g>
      </g>
      <g id="Group_10152" data-name="Group 10152">
        <path id="Path_7434" data-name="Path 7434" d="M176.1,109.629l-5.187-4.86L176.1,99.91l.805.857-4.271,4,4.271,4Z" fill="#fff"/>
        <path id="Path_7435" data-name="Path 7435" d="M319.113,109.981h-3.5v-1.216a.278.278,0,0,0-.157-.246,4.232,4.232,0,0,1-.387-.224.276.276,0,0,0-.293-.014l-1.056.608-1.747-3.028,1.056-.608a.282.282,0,0,0,.131-.26c0-.076-.005-.15-.005-.223s0-.146,0-.219a.283.283,0,0,0-.131-.265l-1.055-.608,1.747-3.028,1.054.608a.278.278,0,0,0,.292-.013,4.442,4.442,0,0,1,.39-.226.277.277,0,0,0,.157-.245V99.558h3.5v1.216a.274.274,0,0,0,.155.245,4.166,4.166,0,0,1,.39.226.278.278,0,0,0,.292.013L321,100.65l1.747,3.028-1.056.609a.281.281,0,0,0-.133.261c0,.076.006.148.006.222s0,.145-.005.218a.279.279,0,0,0,.13.262l1.057.611L321,108.889l-1.055-.608a.278.278,0,0,0-.291.013,4.166,4.166,0,0,1-.39.226.274.274,0,0,0-.155.245Zm-2.747-.75h2v-.466a1.022,1.022,0,0,1,.565-.914c.109-.056.216-.118.318-.184a1.025,1.025,0,0,1,1.078-.036l.4.234,1-1.729-.409-.236a1.024,1.024,0,0,1-.5-.948l0-.182-.005-.186a1.025,1.025,0,0,1,.507-.947l.406-.234-1-1.729-.4.233a1.023,1.023,0,0,1-1.077-.034,3.248,3.248,0,0,0-.32-.185,1.021,1.021,0,0,1-.565-.914v-.466h-2v.466a1.021,1.021,0,0,1-.567.914,3.245,3.245,0,0,0-.32.185,1.019,1.019,0,0,1-1.077.034l-.4-.233-1,1.729.4.233a1.028,1.028,0,0,1,.506.951l0,.183,0,.187a1.023,1.023,0,0,1-.5.945l-.406.234,1,1.729.406-.234a1.025,1.025,0,0,1,1.077.035,3.487,3.487,0,0,0,.319.185,1.025,1.025,0,0,1,.566.914Zm1-1.838a2.625,2.625,0,1,1,2.626-2.623A2.626,2.626,0,0,1,317.363,107.393Zm0-4.5a1.875,1.875,0,1,0,1.876,1.876A1.875,1.875,0,0,0,317.363,102.894Z" fill="#fff"/>
      </g>
    </g>
    <path id="Path_7436" data-name="Path 7436" d="M283.961,305.628H217.706V249.581l33.123-21.034,33.133,21.034Z" fill="#e8505b"/>
    <path id="Path_7437" data-name="Path 7437" d="M284.072,305.628H217.816V249.581l33.123-21.034,33.133,21.034Z" opacity="0.2"/>
    <g id="Group_10166" data-name="Group 10166">
      <path id="Path_7438" data-name="Path 7438" d="M279.806,303.612H221.024V238.353H264.67l15.137,12.435Z" fill="#ebebeb"/>
      <path id="Path_7439" data-name="Path 7439" d="M264.654,238.371l15.167,12.4-15.137.037Z" fill="#dbdbdb"/>
      <g id="Group_10154" data-name="Group 10154">
        <rect id="Rectangle_3220" data-name="Rectangle 3220" width="32.682" height="1.676" transform="translate(259.441 250.978) rotate(180)" fill="#dbdbdb"/>
      </g>
      <g id="Group_10155" data-name="Group 10155">
        <rect id="Rectangle_3221" data-name="Rectangle 3221" width="32.682" height="1.676" transform="translate(259.441 255.208) rotate(180)" fill="#dbdbdb"/>
      </g>
      <g id="Group_10156" data-name="Group 10156">
        <rect id="Rectangle_3222" data-name="Rectangle 3222" width="32.682" height="1.676" transform="translate(259.441 259.438) rotate(180)" fill="#dbdbdb"/>
      </g>
      <g id="Group_10157" data-name="Group 10157">
        <rect id="Rectangle_3223" data-name="Rectangle 3223" width="47.885" height="1.676" transform="translate(274.644 263.667) rotate(180)" fill="#dbdbdb"/>
      </g>
      <g id="Group_10158" data-name="Group 10158">
        <rect id="Rectangle_3224" data-name="Rectangle 3224" width="47.885" height="1.676" transform="translate(274.644 267.897) rotate(180)" fill="#dbdbdb"/>
      </g>
      <g id="Group_10159" data-name="Group 10159">
        <rect id="Rectangle_3225" data-name="Rectangle 3225" width="47.885" height="1.676" transform="translate(274.644 272.127) rotate(180)" fill="#dbdbdb"/>
      </g>
      <g id="Group_10160" data-name="Group 10160">
        <rect id="Rectangle_3226" data-name="Rectangle 3226" width="47.885" height="1.676" transform="translate(274.644 276.356) rotate(180)" fill="#dbdbdb"/>
      </g>
      <g id="Group_10161" data-name="Group 10161">
        <rect id="Rectangle_3227" data-name="Rectangle 3227" width="47.885" height="1.676" transform="translate(274.644 280.586) rotate(180)" fill="#dbdbdb"/>
      </g>
      <g id="Group_10162" data-name="Group 10162">
        <rect id="Rectangle_3228" data-name="Rectangle 3228" width="47.885" height="1.676" transform="translate(274.644 284.816) rotate(180)" fill="#dbdbdb"/>
      </g>
      <g id="Group_10163" data-name="Group 10163">
        <rect id="Rectangle_3229" data-name="Rectangle 3229" width="47.885" height="1.676" transform="translate(274.644 289.045) rotate(180)" fill="#dbdbdb"/>
      </g>
      <g id="Group_10164" data-name="Group 10164">
        <rect id="Rectangle_3230" data-name="Rectangle 3230" width="47.885" height="1.676" transform="translate(274.644 293.275) rotate(180)" fill="#dbdbdb"/>
      </g>
      <g id="Group_10165" data-name="Group 10165">
        <rect id="Rectangle_3231" data-name="Rectangle 3231" width="47.885" height="1.676" transform="translate(274.644 297.505) rotate(180)" fill="#dbdbdb"/>
      </g>
    </g>
    <path id="Path_7440" data-name="Path 7440" d="M283.961,263.61v42.018H217.706V263.61c2.845,1.612,5.641,3.3,8.457,4.955,2.806,1.681,5.611,3.363,8.4,5.074q4.657,2.836,9.3,5.751c.03-.02.07-.039.1-.059-.03.02-.05.049-.08.069q3.479,2.164,6.955,4.348c2.309-1.452,4.627-2.915,6.945-4.348-.03-.02-.05-.049-.079-.069a.433.433,0,0,0,.1.049q4.641-2.895,9.3-5.751,4.179-2.551,8.388-5.064C278.32,266.913,281.115,265.222,283.961,263.61Z" fill="#e8505b"/>
    <g id="Group_10167" data-name="Group 10167" opacity="0.2">
      <path id="Path_7441" data-name="Path 7441" d="M283.961,263.61c-2.676,1.881-5.4,3.681-8.1,5.532q-4.074,2.717-8.179,5.413-4.283,2.8-8.587,5.562c-.089.059-.169.119-.258.179q-3.806,2.433-7.632,4.865l-.378.229-.368-.229q-3.821-2.433-7.621-4.875c-.09-.05-.18-.11-.269-.169q-4.314-2.762-8.6-5.572c-2.726-1.781-5.452-3.592-8.168-5.4-2.7-1.851-5.423-3.651-8.1-5.532,2.845,1.612,5.641,3.3,8.457,4.955,2.806,1.681,5.611,3.363,8.4,5.074q4.657,2.836,9.3,5.751c.01,0,.01,0,.02.01q3.479,2.164,6.955,4.348c2.309-1.452,4.627-2.915,6.945-4.348.01-.02.01-.02.02-.02q4.641-2.895,9.3-5.751,4.179-2.551,8.388-5.064C278.32,266.913,281.115,265.222,283.961,263.61Z"/>
      <path id="Path_7442" data-name="Path 7442" d="M243.963,279.331c-.03.02-.05.049-.08.069-.348.3-.7.6-1.044.886-1.662,1.4-3.363,2.746-5.1,4.049-2.109,1.612-4.268,3.154-6.437,4.687-2.179,1.5-4.368,2.995-6.607,4.427s-4.5,2.836-6.835,4.12c2.01-1.762,4.1-3.4,6.208-5.005s4.279-3.154,6.438-4.687c2.189-1.512,4.378-3,6.616-4.437,1.781-1.144,3.592-2.269,5.443-3.323.428-.249.856-.488,1.293-.727C243.893,279.37,243.933,279.351,243.963,279.331Z"/>
      <path id="Path_7443" data-name="Path 7443" d="M283.8,297.569c-2.338-1.284-4.607-2.687-6.836-4.12s-4.427-2.925-6.616-4.427c-2.169-1.533-4.328-3.075-6.438-4.687-1.721-1.3-3.422-2.636-5.074-4.039-.358-.3-.707-.6-1.055-.9-.03-.02-.05-.049-.079-.069a.433.433,0,0,0,.1.049c.438.249.866.488,1.293.737,1.851,1.054,3.652,2.179,5.443,3.323,2.239,1.433,4.428,2.925,6.607,4.437,2.169,1.533,4.328,3.075,6.437,4.687S281.792,295.807,283.8,297.569Z"/>
    </g>
    <g id="Group_10168" data-name="Group 10168">
      <rect id="Rectangle_3232" data-name="Rectangle 3232" width="18.256" height="18.256" transform="translate(184.613 320.758)" fill="#ebebeb"/>
      <rect id="Rectangle_3233" data-name="Rectangle 3233" width="18.256" height="18.256" transform="translate(211.295 320.758)" fill="#ebebeb"/>
      <rect id="Rectangle_3234" data-name="Rectangle 3234" width="18.256" height="18.256" transform="translate(237.977 320.758)" fill="#ebebeb"/>
      <rect id="Rectangle_3235" data-name="Rectangle 3235" width="18.256" height="18.256" transform="translate(264.659 320.758)" fill="#ebebeb"/>
      <rect id="Rectangle_3236" data-name="Rectangle 3236" width="18.256" height="18.256" transform="translate(291.341 320.758)" fill="#ebebeb"/>
    </g>
    <g id="Group_10169" data-name="Group 10169">
      <rect id="Rectangle_3237" data-name="Rectangle 3237" width="124.984" height="1.97" transform="translate(184.051 348.634)" fill="#ebebeb"/>
      <rect id="Rectangle_3238" data-name="Rectangle 3238" width="124.984" height="1.97" transform="translate(184.051 353.839)" fill="#ebebeb"/>
      <rect id="Rectangle_3239" data-name="Rectangle 3239" width="124.984" height="1.97" transform="translate(184.051 359.043)" fill="#ebebeb"/>
      <rect id="Rectangle_3240" data-name="Rectangle 3240" width="58.021" height="1.97" transform="translate(184.051 364.247)" fill="#ebebeb"/>
    </g>
    <g id="Group_10176" data-name="Group 10176">
      <g id="Group_10173" data-name="Group 10173">
        <g id="Group_10170" data-name="Group 10170">
          <path id="Path_7444" data-name="Path 7444" d="M243.893,126.986a23.2,23.2,0,0,0-7.821,43.752v-6.879a10.931,10.931,0,1,1,21.86-.219v6.615a23.2,23.2,0,0,0-14.039-43.269Zm5.143,23.813a8.191,8.191,0,1,1,5.9-5.9A8.2,8.2,0,0,1,249.036,150.8Z" fill="#fafafa"/>
        </g>
        <g id="Group_10171" data-name="Group 10171">
          <path id="Path_7445" data-name="Path 7445" d="M243.491,153.257a10.993,10.993,0,0,0-7.419,10.6v6.879a23.08,23.08,0,0,0,21.86-.483V163.64A10.965,10.965,0,0,0,243.491,153.257Z" fill="#e8505b"/>
        </g>
        <g id="Group_10172" data-name="Group 10172">
          <path id="Path_7446" data-name="Path 7446" d="M249.038,134.931a8.191,8.191,0,1,0,5.9,5.9A8.2,8.2,0,0,0,249.038,134.931Z" fill="#e8505b"/>
        </g>
      </g>
      <g id="Group_10175" data-name="Group 10175">
        <g id="Group_10174" data-name="Group 10174">
          <path id="Path_7447" data-name="Path 7447" d="M270.127,150.19c-.19.011-.1-1.994-1.047-5.386a22.285,22.285,0,0,0-8.485-11.941,22.967,22.967,0,0,0-9.523-3.986,23.439,23.439,0,0,0-11.791,1.006,22.15,22.15,0,0,0-10.379,7.555,20.907,20.907,0,0,0,0,25.5,22.143,22.143,0,0,0,10.38,7.557,23.446,23.446,0,0,0,11.793,1.006,22.979,22.979,0,0,0,9.523-3.987,22.287,22.287,0,0,0,8.483-11.94c.946-3.392.857-5.4,1.047-5.386a4.541,4.541,0,0,1,.1,1.436,16.965,16.965,0,0,1-.5,4.1,22.175,22.175,0,0,1-8.4,12.709,23.9,23.9,0,0,1-9.994,4.4,24.734,24.734,0,0,1-12.587-.921,23.6,23.6,0,0,1-11.191-8.028,22.34,22.34,0,0,1,0-27.408,23.584,23.584,0,0,1,11.189-8.025,24.719,24.719,0,0,1,12.586-.922,23.894,23.894,0,0,1,9.994,4.4,22.178,22.178,0,0,1,8.4,12.709,16.97,16.97,0,0,1,.5,4.105A4.545,4.545,0,0,1,270.127,150.19Z" fill="#fafafa"/>
        </g>
      </g>
    </g>
    <g id="Group_10183" data-name="Group 10183">
      <g id="Group_10177" data-name="Group 10177">
        <rect id="Rectangle_3241" data-name="Rectangle 3241" width="159.653" height="37.068" rx="3.846" transform="translate(168.531 184.849)" fill="#f5f5f5"/>
      </g>
      <g id="Group_10178" data-name="Group 10178">
        <rect id="Rectangle_3242" data-name="Rectangle 3242" width="12.72" height="8.359" transform="translate(175.387 202.271)" fill="#e8505b"/>
      </g>
      <g id="Group_10180" data-name="Group 10180">
        <g id="Group_10179" data-name="Group 10179">
          <path id="Path_7448" data-name="Path 7448" d="M294.072,206.45c0,.609-22.823,1.1-50.97,1.1s-50.974-.494-50.974-1.1,22.817-1.1,50.974-1.1S294.072,205.841,294.072,206.45Z" fill="#263238"/>
        </g>
      </g>
      <g id="Group_10182" data-name="Group 10182">
        <g id="Group_10181" data-name="Group 10181">
          <path id="Path_7449" data-name="Path 7449" d="M321.051,207.085c0,.333-1.651.6-3.687.6s-3.688-.27-3.688-.6,1.651-.6,3.688-.6S321.051,206.753,321.051,207.085Z" fill="#263238"/>
        </g>
      </g>
    </g>
  </g>
</svg>
