<svg xmlns="http://www.w3.org/2000/svg" width="21.655" height="18.047" viewBox="0 0 21.655 18.047"><defs><style>.a{fill:#429ae6;}</style></defs><g transform="translate(28 -1)"><g transform="translate(-28 1)"><path class="a" d="M186.2,35.977c.223.081.272.255.371.381a6.973,6.973,0,0,0,5.483,2.781,3.466,3.466,0,0,0,3.579-2.873,3.512,3.512,0,0,0-2.192-3.9,3.475,3.475,0,0,0-4.285,1.527c-.05.082-.107.16-.208.312a8.08,8.08,0,0,0-1.118-2.376c-.168-.232.037-.363.175-.5a6,6,0,0,1,8.839.508,5.681,5.681,0,0,1,.7,6.478,5.771,5.771,0,0,1-5.716,3.326A5.97,5.97,0,0,1,186.2,35.977Z" transform="translate(-176.599 -29.613)"/><path class="a" d="M176.353,38.2a6.261,6.261,0,0,1-3.647-3.538,3.928,3.928,0,0,0-1.567-2.014,3.5,3.5,0,0,0-5.347,2.927c-.03,1.838-.008,3.676-.008,5.514,0,.6-.033.623-.632.467a2.366,2.366,0,0,1-1.846-2.126,27.386,27.386,0,0,1,.067-4.8,6.005,6.005,0,0,1,11.852.018,6.915,6.915,0,0,1,.087.946A3.955,3.955,0,0,0,176.353,38.2Z" transform="translate(-163.233 -29.606)"/><path class="a" d="M186.214,49.909a6.69,6.69,0,0,0,2.245,2.787.524.524,0,0,1,.181.49c0,1.956-.009,3.913,0,5.868,0,.373-.115.465-.474.388a2.482,2.482,0,0,1-2.032-2.355c-.024-2.34-.007-4.681,0-7.022C186.133,50.041,186.157,50.016,186.214,49.909Z" transform="translate(-176.554 -41.42)"/></g></g></svg>