<svg xmlns="http://www.w3.org/2000/svg" width="384.325" height="336.2" viewBox="0 0 384.325 336.2"><defs><style>.a{fill:#ebebeb;}.b,.f{fill:#e0e0e0;}.c{fill:#f2f2f2;}.d{fill:#e8505b;}.e{fill:#263238;}.f{stroke:#b8b5b5;stroke-width:0.5px;}.g{font-size:22px;}.g,.h,.i,.j,.k{font-family:BasisGrotesquePro-Regular, Basis Grotesque Pro;}.h,.i,.j{fill:#838383;}.h,.i,.k{font-size:12px;}.h,.i,.j,.k{letter-spacing:0.012em;}.h{opacity:0.4;}.i{opacity:0.79;}.j{font-size:14px;}.j,.l{opacity:0.5;}.k,.m{fill:#fff;}.n{fill:#ffbe9d;}.o{fill:#f5f5f5;}.p{fill:#455a64;}.q{opacity:0.3;}.r{fill:#eb996e;}</style></defs><g transform="translate(-23.732 -68.747)"><g transform="translate(81.26 93.007)"><path class="a" d="M143.768,167.23c10.165-10.037,10.226-25.454,7.469-38.832-.46-2.233-.618-4.643-2.023-6.431s-4.128-2.708-5.978-1.419c-1.534,1.07-1.93,3.135-2.588,4.9a13.329,13.329,0,0,1-4.407,5.931c-1.3.987-3,1.743-4.541,1.206-2.12-.738-2.806-3.375-3.174-5.612q-1.028-6.251-2.056-12.5a21.157,21.157,0,0,0-1.808-6.52,7.033,7.033,0,0,0-5.156-3.942c-2.227-.232-4.646,1.443-4.721,3.706a20.867,20.867,0,0,0,.412,2.792,2.383,2.383,0,0,1-1,2.447,2.742,2.742,0,0,1-2.628-.606,30.153,30.153,0,0,1-6.708-7.139A41.788,41.788,0,0,0,98.47,97.75c-2.513-2.1-5.74-3.558-8.97-3.193s-6.3,2.923-6.574,6.2,2.111,6.169,4.546,8.377a50.6,50.6,0,0,0,12.074,8.122,4.16,4.16,0,0,1,2.055,1.57c.74,1.406-.418,3.126-1.806,3.868-1.57.839-3.406.975-5.113,1.477s-3.462,1.594-3.84,3.353c-.525,2.439,1.794,4.506,3.941,5.753a43.364,43.364,0,0,0,13.889,5.137,14.62,14.62,0,0,1,5.089,1.48c1.522.929,2.665,2.8,2.133,4.509s-2.5,2.568-4.276,2.542a30.245,30.245,0,0,1-5.222-1.034c-3.268-.635-7.2.254-8.71,3.244a7.171,7.171,0,0,0,.316,6.38,16.537,16.537,0,0,0,4.33,4.942,43.579,43.579,0,0,0,20.545,9.755c7.542,1.252,14.256.793,20.891-3.005" transform="translate(-82.906 -94.501)"/><g transform="translate(2.725 2.642)"><path class="b" d="M85.778,97.286a1.557,1.557,0,0,0,.252.176l.765.477c.674.417,1.666,1.033,2.923,1.861a85.071,85.071,0,0,1,10.107,7.751c2.015,1.787,4.144,3.835,6.389,6.076s4.62,4.661,7.026,7.294a102.658,102.658,0,0,1,7.144,8.605c1.153,1.56,2.225,3.217,3.321,4.9l3.316,5.134A208.228,208.228,0,0,1,138.657,159.7a101.2,101.2,0,0,1,6.855,17.694,74.234,74.234,0,0,1,2.366,12.582c.137,1.507.22,2.681.249,3.478.021.38.037.68.048.905a1.838,1.838,0,0,0,.03.309,1.635,1.635,0,0,0,.012-.31c0-.225,0-.526-.007-.907,0-.8-.059-1.976-.172-3.489a70.861,70.861,0,0,0-2.243-12.645,99.522,99.522,0,0,0-6.8-17.787,202.923,202.923,0,0,0-11.629-20.194l-3.32-5.136c-1.093-1.683-2.178-3.353-3.339-4.92a101.6,101.6,0,0,0-7.19-8.624c-2.421-2.632-4.813-5.042-7.065-7.279s-4.4-4.275-6.438-6.053A80.487,80.487,0,0,0,89.8,99.661c-1.271-.807-2.279-1.4-2.967-1.794l-.786-.443A1.724,1.724,0,0,0,85.778,97.286Z" transform="translate(-85.778 -97.285)"/></g><g transform="translate(36.355 9.507)"><path class="b" d="M122.4,129.655a4.585,4.585,0,0,0,.055-.991c.012-.638,0-1.559-.034-2.7-.065-2.278-.261-5.422-.49-8.886s-.38-6.6-.41-8.877c-.018-1.136-.024-2.056-.019-2.692a4.58,4.58,0,0,0-.041-.992,4.556,4.556,0,0,0-.121.985c-.055.635-.095,1.557-.114,2.7-.046,2.281.058,5.433.288,8.9.234,3.419.448,6.511.61,8.874.067,1.067.122,1.968.167,2.69A4.517,4.517,0,0,0,122.4,129.655Z" transform="translate(-121.221 -104.52)"/></g><g transform="translate(7.901 33.264)"><path class="b" d="M91.232,130.476a6.357,6.357,0,0,0,1.169-.059c.749-.06,1.83-.154,3.171-.226,2.679-.165,6.388-.265,10.484-.195s7.8.3,10.479.546c1.339.112,2.42.232,3.167.309a6.315,6.315,0,0,0,1.168.083,6.234,6.234,0,0,0-1.147-.247c-.742-.127-1.821-.292-3.161-.443-2.675-.318-6.391-.593-10.5-.671a102.756,102.756,0,0,0-10.512.32c-1.342.111-2.423.249-3.167.361A6.127,6.127,0,0,0,91.232,130.476Z" transform="translate(-91.232 -129.558)"/></g><g transform="translate(55.5 25.266)"><path class="b" d="M141.4,160.283a1.6,1.6,0,0,0,.137-.384c.085-.3.188-.675.314-1.123.268-.976.619-2.4,1.029-4.163.824-3.527,1.808-8.434,2.82-13.865s1.951-10.343,2.7-13.883l.9-4.189c.1-.456.174-.832.238-1.141a1.5,1.5,0,0,0,.056-.405,1.525,1.525,0,0,0-.138.384l-.313,1.123c-.269.976-.62,2.4-1.029,4.163-.824,3.528-1.808,8.435-2.821,13.868s-1.95,10.341-2.7,13.881c-.369,1.72-.673,3.137-.9,4.188-.1.456-.174.833-.238,1.142A1.518,1.518,0,0,0,141.4,160.283Z" transform="translate(-141.397 -121.129)"/></g><g transform="translate(15.236 58.632)"><path class="b" d="M98.963,156.3a1.577,1.577,0,0,0,.406.091l1.171.182,4.313.626c3.643.529,8.664,1.318,14.212,2.2s10.584,1.623,14.238,2.077c1.827.228,3.307.4,4.332.493l1.181.1a1.565,1.565,0,0,0,.416.008,1.544,1.544,0,0,0-.406-.092l-1.172-.182-4.313-.625c-3.642-.529-8.664-1.319-14.214-2.2s-10.582-1.623-14.235-2.077c-1.827-.228-3.308-.4-4.333-.492l-1.18-.1A1.51,1.51,0,0,0,98.963,156.3Z" transform="translate(-98.963 -156.293)"/></g></g><g transform="translate(337.747 132.585)"><path class="b" d="M413.375,136.469s-5.949-2.933-10.975,11.045-6.6,21.871-6.6,21.871-1.42,2.975-3.538,1.417-5.352-6.33-8.448-5c-3.21,1.375-3.835,5.232-2.507,10.614s3.806,17.28,4.026,18.356c.216,1.057-.2,2.707-1.808,1.877s-11.353-9.252-15.072-4.39,2.445,19.246,3.089,20.831.412,2.327-.316,2.832-3.735-2.634-6.6-4.915-6.595-4.424-8.505-1.44-1.211,14.276,11.758,31.116l6.52,7.409,9.751-1.791c20.632-5.1,28.21-13.505,28.573-17.03s-3.888-4.168-7.553-4.168-7.972.584-8.228-.264.025-1.573,1.516-2.413,15.27-8.259,15.386-14.379-12.749-5.594-14.528-5.949-1.075-1.9-.247-2.594,10.189-8.474,14.579-11.859,6.3-6.792,4.646-9.866c-1.6-2.965-7.1-1.245-9.727-1.344s-1.885-3.311-1.885-3.311,3.682-7.157,8.452-21.224-1.882-15.479-1.882-15.479" transform="translate(-355.326 -136.212)"/><g transform="translate(13.698 12.766)"><path class="a" d="M412.455,152.336s-.024.1-.085.3-.16.5-.28.869l-1.1,3.336c-.96,2.9-2.38,7.075-4.154,12.233-3.544,10.318-8.559,24.528-14.148,40.205s-10.638,29.881-14.234,40.18c-1.79,5.142-3.239,9.307-4.246,12.2-.5,1.43-.888,2.546-1.156,3.316l-.309.86c-.07.193-.115.29-.115.29s.024-.1.085-.3.159-.5.28-.869c.256-.775.626-1.9,1.1-3.335.96-2.895,2.38-7.074,4.154-12.232,3.544-10.318,8.559-24.53,14.151-40.212S403.034,179.3,406.63,169l4.246-12.2c.5-1.431.888-2.546,1.157-3.316l.308-.861C412.412,152.433,412.455,152.336,412.455,152.336Z" transform="translate(-372.627 -152.336)"/></g><g transform="translate(32.744 36.443)"><path class="a" d="M396.684,182.24a3.207,3.207,0,0,1,.331.633c.2.415.464,1.023.786,1.777.642,1.509,1.476,3.616,2.354,5.957l2.226,6,.686,1.814a3.242,3.242,0,0,1,.226.677,3.131,3.131,0,0,1-.337-.63c-.2-.416-.462-1.024-.777-1.781-.628-1.515-1.434-3.633-2.311-5.974l-2.268-5.983-.7-1.812A3.162,3.162,0,0,1,396.684,182.24Z" transform="translate(-396.681 -182.24)"/></g><g transform="translate(40.276 45.11)"><path class="a" d="M406.195,201.439c-.033-.078,4.234-1.988,9.532-4.266s9.62-4.063,9.653-3.985-4.234,1.987-9.532,4.266S406.229,201.517,406.195,201.439Z" transform="translate(-406.195 -193.186)"/></g><g transform="translate(30.607 74.035)"><path class="a" d="M393.982,232.737a3.393,3.393,0,0,1,.718-.124l1.966-.243c1.659-.207,3.949-.5,6.463-.922s4.781-.866,6.417-1.208l1.939-.4a3.349,3.349,0,0,1,.721-.114,3.329,3.329,0,0,1-.692.23c-.451.128-1.106.3-1.92.5-1.627.4-3.891.885-6.415,1.3s-4.823.683-6.49.835c-.835.073-1.51.124-1.978.146A3.292,3.292,0,0,1,393.982,232.737Z" transform="translate(-393.982 -229.718)"/></g><g transform="translate(20.426 63.249)"><path class="a" d="M381.126,216.1a2.9,2.9,0,0,1,.453.5l1.144,1.43c.955,1.215,1.882,3.393,3.682,4.788,1.424,1.88,2.7,3.594,3.611,4.842l1.066,1.489a2.888,2.888,0,0,1,.358.571,2.857,2.857,0,0,1-.453-.5l-1.144-1.431c-.956-1.215-2.258-2.907-3.683-4.789s-2.7-3.592-3.611-4.842l-1.067-1.489A2.8,2.8,0,0,1,381.126,216.1Z" transform="translate(-381.124 -216.095)"/></g><g transform="translate(9.232 83.08)"><path class="a" d="M366.988,241.142a4.65,4.65,0,0,1,.573.645l1.473,1.827c1.233,1.551,2.92,3.707,4.768,6.1s3.508,4.57,4.7,6.155l1.4,1.887a4.567,4.567,0,0,1,.478.717,4.734,4.734,0,0,1-.572-.645L378.327,256c-1.233-1.551-2.92-3.706-4.769-6.1s-3.508-4.569-4.7-6.154l-1.4-1.887A4.606,4.606,0,0,1,366.988,241.142Z" transform="translate(-366.986 -241.141)"/></g><g transform="translate(22.417 95.45)"><path class="a" d="M383.638,261.22a5.248,5.248,0,0,1,.906-.181l2.481-.4c2.094-.338,4.986-.816,8.162-1.433s6.04-1.243,8.108-1.714l2.451-.556a5.423,5.423,0,0,1,.907-.17,5.3,5.3,0,0,1-.878.286c-.57.165-1.4.39-2.429.651-2.058.526-4.917,1.191-8.1,1.8s-6.084,1.063-8.188,1.347c-1.052.139-1.906.242-2.5.3A5.44,5.44,0,0,1,383.638,261.22Z" transform="translate(-383.638 -256.764)"/></g></g><g transform="translate(142.995 68.419)"><g transform="translate(0.238 0.327)"><g transform="translate(0.222 0.169)"><rect class="c" width="225.6" height="248.529"/></g><path class="c" d="M139.937,65.468,365.569,65.3h.191v.169c.011,70.991.025,156.5.039,248.508v.225h-.23l-225.631-.022h-.207V314c.123-147.692.205-246.942.206-248.529,0,1.586.084,100.838.207,248.529l-.206-.182,225.631-.021-.23.2v-.022c.014-92,.027-177.517.039-248.508l.191.168Z" transform="translate(-139.731 -65.299)"/></g><g transform="translate(87.464 20.095)"><g transform="translate(72.397)"><g transform="translate(7.979)"><path class="d" d="M309.313,83.751a4.889,4.889,0,0,1,.35,3.813A8.639,8.639,0,0,1,307.64,90.9,15.241,15.241,0,0,1,300.82,94.7c-.621-2.752.9-5.652,1.756-7.075,1.362-2.249,5.187-5.486,6.737-3.869" transform="translate(-300.675 -83.315)"/></g><g transform="translate(7.658 13.774)"><path class="d" d="M300.337,100.258a4.171,4.171,0,0,1,3.43-2.405,5.537,5.537,0,0,1,4.052,1.382,2.334,2.334,0,0,1,.973,1.709,1.784,1.784,0,0,1-1.046,1.476,3.614,3.614,0,0,1-1.859.273c-2.168-.155-4.239-.7-5.55-2.436" transform="translate(-300.337 -97.831)"/></g><g transform="translate(2.181 15.779)"><path class="e" d="M294.565,103.592a8.293,8.293,0,0,1,1.209-1.166,7.767,7.767,0,0,1,1.532-1.01,17.082,17.082,0,0,1,2.037-.93,8.35,8.35,0,0,1,4.032-.463,6.031,6.031,0,0,1,1.2.316,1.316,1.316,0,0,1,.4.208c-.018.048-.611-.212-1.626-.325a8.956,8.956,0,0,0-3.91.532,20.052,20.052,0,0,0-2.014.895,8.553,8.553,0,0,0-1.526.934A12.046,12.046,0,0,1,294.565,103.592Z" transform="translate(-294.564 -99.945)"/></g><g transform="translate(1.241 3.158)"><path class="e" d="M306.254,86.644a4.875,4.875,0,0,1-.432.733c-.292.461-.725,1.122-1.267,1.935-1.084,1.624-2.606,3.852-4.347,6.271s-3.382,4.564-4.6,6.092c-.609.764-1.109,1.376-1.463,1.791a4.773,4.773,0,0,1-.571.629,4.936,4.936,0,0,1,.485-.7l1.391-1.846c1.176-1.557,2.787-3.719,4.527-6.134L304.39,89.2l1.342-1.883A4.915,4.915,0,0,1,306.254,86.644Z" transform="translate(-293.574 -86.644)"/></g><g transform="translate(0 5.151)"><path class="d" d="M296.763,98.682a9.757,9.757,0,0,0-1.3-8.821c-.464-.636-1.175-1.271-1.939-1.083s-1.1,1.087-1.2,1.869a8.339,8.339,0,0,0,4.3,8.194" transform="translate(-292.266 -88.744)"/></g><g transform="translate(2.531 8.487)"><path class="e" d="M294.971,92.26c.017-.009.106.122.252.369s.343.612.569,1.073a11.017,11.017,0,0,1,1.109,3.857,6.9,6.9,0,0,1-.208,2.221,6.753,6.753,0,0,1-1.438,2.657c-.192.214-.3.326-.319.314-.045-.036.377-.514.864-1.4a6.764,6.764,0,0,0,.817-3.774,12.4,12.4,0,0,0-1.01-3.8A14.13,14.13,0,0,1,294.971,92.26Z" transform="translate(-294.934 -92.259)"/></g></g></g><g transform="translate(29.615 76.128)"><g transform="translate(0.001 0)"><path class="f" d="M335.5,171.016a1.3,1.3,0,0,0,.913-.447c.6-.535.35-1.824.394-3.317-.009-3.061-.023-7.559-.04-13.348q0-2.173-.009-4.587,0-.6,0-1.221a5.365,5.365,0,0,0-.064-1.207,1.409,1.409,0,0,0-.664-.861,2.15,2.15,0,0,0-1.072-.134l-9.934.021-24.219.036-140.234.072a1.1,1.1,0,0,0-.928.544,2.1,2.1,0,0,0-.218,1.27v8.828q0,5.857,0,11.634c.009.461-.021,1.009.02,1.4a1.307,1.307,0,0,0,.61.934,1.035,1.035,0,0,0,.505.14h6.808l9.768,0,37.234.015,63.046.052,42.5.079,11.556.046,3,.025c.677.009,1.025.026,1.025.026s-.348.016-1.025.025l-3,.025-11.556.047-42.5.079-63.046.052-37.234.015-9.768,0h-6.809a1.415,1.415,0,0,1-.7-.192,1.8,1.8,0,0,1-.837-1.284c-.054-.566-.015-.985-.027-1.486q0-5.776,0-11.634v-8.828a7.3,7.3,0,0,1,.021-.775,1.918,1.918,0,0,1,.279-.786,1.514,1.514,0,0,1,1.274-.746L300.8,145.6l24.219.037,9.934.02a2.3,2.3,0,0,1,1.156.16,1.626,1.626,0,0,1,.765,1,5.44,5.44,0,0,1,.069,1.276q0,.618,0,1.221-.006,2.412-.01,4.587c-.017,5.789-.031,10.287-.04,13.348q-.006,1.142-.011,2.014a1.785,1.785,0,0,1-.44,1.339A1.138,1.138,0,0,1,335.5,171.016Z" transform="translate(-158.992 -145.531)"/></g></g><g transform="translate(29.615 134.175)"><g transform="translate(0.001 0)"><path class="f" d="M335.957,232.192a1.31,1.31,0,0,0,.915-.447c.6-.535.351-1.824.4-3.317-.009-3.061-.023-7.558-.04-13.347q0-2.175-.009-4.588,0-.6,0-1.22a5.356,5.356,0,0,0-.064-1.208,1.41,1.41,0,0,0-.666-.861,2.161,2.161,0,0,0-1.075-.134l-9.96.021-24.282.036-140.6.073a1.1,1.1,0,0,0-.931.543,2.1,2.1,0,0,0-.218,1.27v8.827q0,5.857,0,11.634c.009.461-.021,1.009.02,1.4a1.31,1.31,0,0,0,.611.935,1.038,1.038,0,0,0,.507.139h6.826l9.794,0,37.33.014,63.209.053,42.614.078,11.585.046,3.013.025c.679.009,1.027.026,1.027.026s-.348.017-1.027.025l-3.013.025-11.585.046-42.614.079-63.209.053-37.33.014-9.794,0h-6.826a1.411,1.411,0,0,1-.7-.192,1.8,1.8,0,0,1-.839-1.284c-.054-.566-.015-.985-.027-1.486q0-5.776,0-11.634v-8.827a7.3,7.3,0,0,1,.021-.776,1.911,1.911,0,0,1,.28-.785,1.518,1.518,0,0,1,1.278-.747l140.6.072,24.282.037,9.96.02a2.317,2.317,0,0,1,1.159.16,1.629,1.629,0,0,1,.767,1,5.429,5.429,0,0,1,.069,1.277q0,.618,0,1.22-.006,2.413-.01,4.588c-.017,5.789-.031,10.286-.04,13.347,0,.761-.007,1.434-.011,2.014a1.78,1.78,0,0,1-.441,1.339A1.143,1.143,0,0,1,335.957,232.192Z" transform="translate(-158.992 -206.707)"/></g></g><g transform="translate(25.709 189.147)"><g transform="translate(12.504 0.07)"><rect class="d" width="162.611" height="25.238" rx="11.068" transform="translate(-5.975)"/></g></g><text class="g" transform="translate(70.647 37.487)"><tspan x="0" y="0">VERIFY</tspan></text><text class="h" transform="translate(50.924 93.487)"><tspan x="0" y="0">example@nearpeer.org</tspan></text><text class="i" transform="translate(109.924 123.487)"><tspan x="0" y="0">OR </tspan></text><text class="j" transform="translate(50.924 154.487)"><tspan x="0" y="0">**********</tspan></text><text class="k" transform="translate(96.237 206.217)"><tspan x="0" y="0">Verify </tspan></text></g><g transform="translate(23.732 113.334)"><g transform="translate(3.106 279.344)"><g transform="translate(0.168)"><path class="d" d="M55.342,448.525,54.183,455.1l.978.216c4.359.922,22.229,4.384,25.3,3.946,3.432-.489-9.636-5.627-9.636-5.627l.411-2.777Z" transform="translate(-54.183 -448.525)"/><g class="l" transform="translate(0.051 1.896)"><path class="m" d="M59.982,455.967a5.6,5.6,0,0,0-1.509-3.711,5.438,5.438,0,0,0-3.546-1.734l-.691,4.453Z" transform="translate(-54.237 -450.523)"/></g></g><g transform="translate(0.168 6.222)"><g class="l"><path class="m" d="M77.179,456.716s4.534,2.1,3.821,2.792-18.9-2.128-26.817-4.073l.081-.352,21.189,3.468S76.246,456.611,77.179,456.716Z" transform="translate(-54.183 -455.082)"/></g></g><g transform="translate(0 6.171)"><path class="e" d="M54.006,455.031a1.488,1.488,0,0,0,.269.072l.779.169,2.876.573c2.432.467,5.8,1.067,9.535,1.65s7.127,1.033,9.585,1.327l2.915.328.793.076a.14.14,0,1,0,0-.039l-.789-.112-2.905-.39c-2.454-.33-5.841-.8-9.574-1.384s-7.1-1.16-9.539-1.592l-2.887-.511-.786-.134A1.463,1.463,0,0,0,54.006,455.031Z" transform="translate(-54.006 -455.029)"/></g><g transform="translate(21.382 7.675)"><path class="e" d="M76.553,458.875a6.646,6.646,0,0,1,.755-1.3,6.525,6.525,0,0,1,1.159-.955,2.606,2.606,0,0,0-1.915,2.253Z" transform="translate(-76.541 -456.614)"/></g><g transform="translate(17.059 5.624)"><path class="e" d="M71.99,455.651c.041.036.307-.2.6-.533s.491-.626.45-.662-.307.2-.6.533S71.949,455.616,71.99,455.651Z" transform="translate(-71.984 -454.452)"/></g><g transform="translate(15.877 5.193)"><path class="e" d="M70.742,454.747c.029.045.306-.084.62-.288s.542-.406.512-.451-.306.084-.62.288S70.712,454.7,70.742,454.747Z" transform="translate(-70.739 -453.998)"/></g><g transform="translate(15.297 4.281)"><path class="e" d="M70.128,453.067a3.676,3.676,0,0,0,1.661.276,3.684,3.684,0,0,0-1.661-.276Z" transform="translate(-70.128 -453.037)"/></g><g transform="translate(15.18 3.198)"><path class="e" d="M70.006,451.9a2.368,2.368,0,0,0,1.863.435,5.176,5.176,0,0,0-.933-.211A5.212,5.212,0,0,0,70.006,451.9Z" transform="translate(-70.005 -451.895)"/></g><g transform="translate(17.819 4.377)"><path class="e" d="M72.786,454.279a3.013,3.013,0,0,0,1.025.152,6.021,6.021,0,0,0,1.127-.071,3.1,3.1,0,0,0,.664-.16.568.568,0,0,0,.3-.279.41.41,0,0,0-.092-.434,1.9,1.9,0,0,0-2.407.19,1.851,1.851,0,0,0-.439.631c-.068.169-.081.269-.069.273a2.921,2.921,0,0,1,.6-.8,1.865,1.865,0,0,1,.962-.433,1.608,1.608,0,0,1,1.208.272c.143.145.05.327-.147.407a3.109,3.109,0,0,1-.613.157,7.266,7.266,0,0,1-1.1.111C73.182,454.306,72.791,454.246,72.786,454.279Z" transform="translate(-72.786 -453.138)"/></g><g transform="translate(16.981 3.472)"><path class="e" d="M73,454.322a1.018,1.018,0,0,0,.229-.693,1.688,1.688,0,0,0-.164-.791,1.038,1.038,0,0,0-.771-.654.411.411,0,0,0-.388.423,1.136,1.136,0,0,0,.1.485,3.182,3.182,0,0,0,.388.695c.272.362.507.522.522.5s-.176-.215-.408-.584a3.525,3.525,0,0,1-.333-.68c-.107-.238-.143-.641.121-.648.26.014.482.31.607.539a1.7,1.7,0,0,1,.186.71A3.677,3.677,0,0,1,73,454.322Z" transform="translate(-71.902 -452.184)"/></g><g transform="translate(1 1.841)"><path class="e" d="M55.06,450.489c0,.036.463.027,1.171.224a5.049,5.049,0,0,1,3.657,3.972c.138.721.09,1.183.126,1.185a.9.9,0,0,0,.05-.322,4.233,4.233,0,0,0-.04-.886,4.9,4.9,0,0,0-3.759-4.084,4.312,4.312,0,0,0-.881-.113A.934.934,0,0,0,55.06,450.489Z" transform="translate(-55.06 -450.465)"/></g><g transform="translate(8.209 6.089)"><path class="e" d="M62.658,454.951a9.109,9.109,0,0,0,2.291.591,9.147,9.147,0,0,0,2.359.175c0-.057-1.047-.155-2.328-.367S62.673,454.9,62.658,454.951Z" transform="translate(-62.658 -454.943)"/></g><g transform="translate(5.076 5.605)"><path class="e" d="M59.367,454.436c-.045.033.051.234.12.49s.095.475.15.48.121-.239.039-.533S59.408,454.4,59.367,454.436Z" transform="translate(-59.356 -454.432)"/></g><g transform="translate(4.126 3.958)"><path class="e" d="M58.366,452.7c-.044.031.033.213.173.406s.287.323.331.291-.034-.214-.173-.406S58.41,452.669,58.366,452.7Z" transform="translate(-58.354 -452.696)"/></g><g transform="translate(2.558 2.974)"><path class="e" d="M56.7,451.718c0,.055.214.086.436.2s.37.269.417.24-.051-.27-.327-.413S56.693,451.666,56.7,451.718Z" transform="translate(-56.702 -451.66)"/></g><g transform="translate(1.403 2.506)"><path class="e" d="M55.49,451.191c-.027.047.052.143.176.214s.247.092.274.046-.052-.142-.176-.215S55.517,451.144,55.49,451.191Z" transform="translate(-55.485 -451.166)"/></g></g><g transform="translate(88.275 283.065)"><path class="d" d="M143.765,454.346l.6,6.649,1-.047c4.448-.248,22.6-1.572,25.458-2.8,3.184-1.367-10.77-2.915-10.77-2.915l-.329-2.788Z" transform="translate(-143.765 -452.446)"/><g class="l" transform="translate(0.093 3.746)"><path class="m" d="M150.163,460.422a5.59,5.59,0,0,0-2.425-3.187,5.433,5.433,0,0,0-3.875-.748l.5,4.479Z" transform="translate(-143.863 -456.394)"/></g><g transform="translate(0.584 3.781)"><g class="l"><path class="m" d="M166.928,456.431s4.925.845,4.417,1.7-18.8,2.882-26.95,3.07l-.014-.36,21.36-2.185S166,456.574,166.928,456.431Z" transform="translate(-144.38 -456.431)"/></g></g><g transform="translate(0.331 5.208)"><path class="e" d="M144.114,460.932a1.561,1.561,0,0,0,.279,0l.8-.04,2.926-.2c2.47-.184,5.878-.484,9.635-.9s7.15-.864,9.6-1.221l2.9-.445.787-.134a1.555,1.555,0,0,0,.272-.06,1.514,1.514,0,0,0-.278.021l-.791.1-2.906.382c-2.455.323-5.848.75-9.6,1.164s-7.158.734-9.624.954l-2.921.26-.793.077A1.456,1.456,0,0,0,144.114,460.932Z" transform="translate(-144.114 -457.935)"/></g><g transform="translate(21.91 3.572)"><path class="e" d="M166.913,458.89a4.26,4.26,0,0,1,1.259-2.676,2.6,2.6,0,0,0-1.259,2.676Z" transform="translate(-166.856 -456.211)"/></g><g transform="translate(16.962 2.949)"><path class="e" d="M161.652,456.982c.048.024.244-.276.436-.671s.31-.732.262-.756-.244.276-.437.671S161.6,456.958,161.652,456.982Z" transform="translate(-161.641 -455.554)"/></g><g transform="translate(15.593 2.822)"><path class="e" d="M160.2,456.433c.041.036.275-.161.524-.439s.417-.534.377-.569-.274.16-.523.439S160.165,456.4,160.2,456.433Z" transform="translate(-160.199 -455.42)"/></g><g transform="translate(14.611 2.203)"><path class="e" d="M159.164,454.979a3.7,3.7,0,1,0,.828-.18A1.9,1.9,0,0,0,159.164,454.979Z" transform="translate(-159.164 -454.767)"/></g><g transform="translate(14.212 1.292)"><path class="e" d="M158.743,453.894a2.368,2.368,0,0,0,1.912-.067,5.238,5.238,0,0,0-.955.04A5.182,5.182,0,0,0,158.743,453.894Z" transform="translate(-158.743 -453.808)"/></g><g transform="translate(17.361 1.242)"><path class="e" d="M162.062,455.433a3.007,3.007,0,0,0,1.03-.122,6.078,6.078,0,0,0,1.069-.362,3.041,3.041,0,0,0,.6-.328.565.565,0,0,0,.219-.348.407.407,0,0,0-.2-.395,1.9,1.9,0,0,0-2.273.811,1.859,1.859,0,0,0-.26.725.584.584,0,0,0,0,.281,2.948,2.948,0,0,1,.371-.931,1.879,1.879,0,0,1,.817-.669,1.605,1.605,0,0,1,1.236-.052c.176.1.134.3-.035.431a3.048,3.048,0,0,1-.552.311,7.174,7.174,0,0,1-1.03.394C162.451,455.356,162.058,455.4,162.062,455.433Z" transform="translate(-162.062 -453.755)"/></g><g transform="translate(16.112 1.052)"><path class="e" d="M162.267,455.443a1.015,1.015,0,0,0,.04-.728,1.7,1.7,0,0,0-.364-.721,1.043,1.043,0,0,0-.916-.43.412.412,0,0,0-.265.511,1.147,1.147,0,0,0,.226.441,3.112,3.112,0,0,0,.556.568,1.506,1.506,0,0,0,.635.352c.015-.027-.225-.162-.546-.456a3.673,3.673,0,0,1-.5-.57c-.166-.2-.306-.582-.053-.658.255-.053.547.174.727.362a1.7,1.7,0,0,1,.365.638A3.762,3.762,0,0,1,162.267,455.443Z" transform="translate(-160.745 -453.555)"/></g><g transform="translate(0.172 3.553)"><path class="e" d="M143.946,456.422c.008.036.455-.095,1.188-.089a5.046,5.046,0,0,1,4.568,2.879c.321.66.4,1.12.432,1.11A.932.932,0,0,0,150.1,460a4.136,4.136,0,0,0-.27-.845,4.9,4.9,0,0,0-4.695-2.96,4.208,4.208,0,0,0-.879.12A.94.94,0,0,0,143.946,456.422Z" transform="translate(-143.946 -456.19)"/></g><g transform="translate(8.237 5.503)"><path class="e" d="M152.446,458.731a13.21,13.21,0,0,0,4.687-.474c-.012-.056-1.051.124-2.343.253S152.446,458.674,152.446,458.731Z" transform="translate(-152.446 -458.246)"/></g><g transform="translate(5.09 6.324)"><path class="e" d="M149.135,459.12c-.034.043.111.212.244.44s.215.435.27.425.054-.263-.1-.525S149.165,459.077,149.135,459.12Z" transform="translate(-149.13 -459.111)"/></g><g transform="translate(3.743 4.981)"><path class="e" d="M147.716,457.705c-.034.042.087.2.272.346s.361.237.4.2-.088-.2-.273-.347S147.75,457.664,147.716,457.705Z" transform="translate(-147.71 -457.695)"/></g><g transform="translate(1.979 4.38)"><path class="e" d="M145.852,457.187c.017.053.231.027.474.084s.429.163.467.122-.12-.248-.424-.313S145.83,457.14,145.852,457.187Z" transform="translate(-145.851 -457.062)"/></g><g transform="translate(0.739 4.273)"><path class="e" d="M144.545,457c-.014.052.087.124.226.16s.262.025.276-.028-.087-.124-.226-.161S144.558,456.946,144.545,457Z" transform="translate(-144.544 -456.949)"/></g></g><g transform="translate(62.947 2.051)"><path class="e" d="M147.069,187.049c-1.283-6.839-8.838-10.64-11.789-16.942-1.148-2.453-1.557-5.213-2.821-7.608a12.228,12.228,0,0,0-14.916-5.41l-.472.732c3.049,6.415,6.1,10.82,9.147,17.234a22.677,22.677,0,0,1,2.432,7.019,7.669,7.669,0,0,1-2.3,6.781c-1.531,1.27-3.621,1.651-5.272,2.761a8.592,8.592,0,0,0-3.369,7.988,14.457,14.457,0,0,0,3.974,8.028c1.967,2.156,5.084,4,7.677,2.664,1.309-.676,2.121-2,3.087-3.115,1.983-2.281,4.722-3.734,7.162-5.518C144.271,198.257,148.133,192.723,147.069,187.049Z" transform="translate(-117.072 -156.285)"/></g><g transform="translate(48.52 46.483)"><g transform="translate(30.466)"><g transform="translate(59.365 6.24)"><path class="n" d="M216.863,221.549c-1.712,1.562-11.057,9.408-11.057,9.408l-9.266-8.433c.241-.693,2.508-4.582,2.772-5.562a7.619,7.619,0,0,0,.232-2.583,11.676,11.676,0,0,0-.578-3.182c-.407-.91.5-1.84,1.289-1.392s1.967,2.927,1.931,6.134,12.554-4.155,14.346-2.354Z" transform="translate(-196.54 -209.689)"/></g><g transform="translate(75.816 17.17)"><path class="n" d="M213.878,221.208" transform="translate(-213.878 -221.208)"/></g><g transform="translate(0 5.502)"><path class="d" d="M133.975,208.911l30.755,36.8,28.235-25.534L205.28,232.2s-35.443,39-40.851,38.723S140.657,258.5,140.657,258.5Z" transform="translate(-133.975 -208.911)"/></g><g transform="translate(60.753)"><path class="e" d="M207.047,203.139a.506.506,0,0,0-.63.292l-8.354,21.076a.8.8,0,0,0,.4,1.024l9.928,4.732a.8.8,0,0,0,1.078-.406l9.395-21.848a.8.8,0,0,0-.475-1.072Z" transform="translate(-198.003 -203.112)"/><g transform="translate(1.088 1.548)"><path class="o" d="M206.835,204.743l-7.685,18.806,10.4,4.706,7.872-19.939Z" transform="translate(-199.15 -204.743)"/></g></g><g transform="translate(53.493 21.572)"><path class="e" d="M203.386,238.545A13.167,13.167,0,0,1,201.2,237a64.859,64.859,0,0,1-9.243-9,13.074,13.074,0,0,1-1.606-2.142,18.059,18.059,0,0,1,1.853,1.924c1.116,1.211,2.678,2.864,4.476,4.616s3.492,3.269,4.731,4.352A18.148,18.148,0,0,1,203.386,238.545Z" transform="translate(-190.351 -225.847)"/></g><g transform="translate(57.082 19.982)"><path class="e" d="M194.746,224.561c.058.05-.322.354-.281,1.008a1.272,1.272,0,0,0,.46.92,1.158,1.158,0,0,0,1.754-1.008,1.271,1.271,0,0,0-.564-.862c-.544-.364-1-.19-1.012-.265-.01-.023.079-.108.289-.157a1.339,1.339,0,0,1,.888.139,1.542,1.542,0,0,1,.823,1.085,1.554,1.554,0,0,1-2.446,1.4,1.543,1.543,0,0,1-.523-1.256,1.343,1.343,0,0,1,.329-.838C194.613,224.575,194.732,224.541,194.746,224.561Z" transform="translate(-194.134 -224.171)"/></g><g transform="translate(28.899 42.126)"><path class="e" d="M165.077,258.438a4.47,4.47,0,0,1-.454-1.6,14.571,14.571,0,0,1,.894-7.88,4.444,4.444,0,0,1,.8-1.453,32.064,32.064,0,0,0-1.329,5.384A32.235,32.235,0,0,0,165.077,258.438Z" transform="translate(-164.432 -247.509)"/></g><g transform="translate(30.648 41.871)"><path class="e" d="M169.551,258.144a4.859,4.859,0,0,1-.994-1.379,17.31,17.31,0,0,1-2.272-7.828,4.843,4.843,0,0,1,.1-1.7,45.982,45.982,0,0,0,1.013,5.617A46.2,46.2,0,0,0,169.551,258.144Z" transform="translate(-166.275 -247.24)"/></g><g transform="translate(64.622 5.053)"><path class="a" d="M207.166,208.438l-5.085,12.646L209.7,224.2l5.309-12.926Z" transform="translate(-202.081 -208.438)"/></g><g transform="translate(66.146 15.384)"><path class="d" d="M.731,0H5.453a.731.731,0,0,1,.731.731V.8a.731.731,0,0,1-.731.731H.732A.732.732,0,0,1,0,.8V.731A.731.731,0,0,1,.731,0Z" transform="translate(0.59 0) rotate(22.68)"/></g><g transform="translate(69.945 7.126)"><rect class="p" width="6.032" height="0.88" transform="translate(0.31 0) rotate(20.633)"/></g><g transform="translate(68.279 9.746)"><rect class="b" width="6.67" height="1.725" transform="translate(0.608 0) rotate(20.634)"/></g><g transform="translate(67.249 12.342)"><rect class="b" width="6.67" height="1.725" transform="translate(0.608 0) rotate(20.634)"/></g><g transform="translate(72.239 10.136)"><path class="n" d="M217.225,213.795c-1.437.235-3.192.379-4.628.614a2.61,2.61,0,0,0-1.161.388.89.89,0,0,0-.325,1.085c.23.41.8.446,1.265.431l3.171-.1a16.9,16.9,0,0,0-3.992.667c-.6.2-1.259.6-1.271,1.227a1.164,1.164,0,0,0,1.049,1.051,12.516,12.516,0,0,0,1.664.026s2.171.031,2.266.314c-1.355-.009-3.146.284-4.5.4-.37.033-.539.54-.628.9a.821.821,0,0,0,.392.947,1.234,1.234,0,0,0,.534.062l5.256-.162" transform="translate(-210.108 -213.795)"/></g></g><g transform="translate(0 3.222)"><path class="d" d="M121.452,206.593s6.4-.752,10.881,2.195c4.055,2.665,18.259,43.393,17.711,55.478s.987,33.391,3.473,42.174,4.368,84.942-15.23,121.183l-36.42-5.112,11.382-97.81-1.163-88.734Z" transform="translate(-101.867 -206.508)"/><g class="q" transform="translate(1.037)"><path d="M119.415,206.593s6.4-.752,10.881,2.195c4.054,2.665,18.259,43.393,17.711,55.478s.986,33.391,3.473,42.174,4.368,84.942-15.231,121.183L102.96,422.51l8.251-97.81-1.162-88.734Z" transform="translate(-102.96 -206.508)"/></g></g></g><g transform="translate(37.031 47.88)"><path class="p" d="M105.343,204.622s-20.03-2.162-14.673,26.472l5.146,30.123L128.523,281c4.419,1.192.662-20.592,7.315-30.625,2.494-3.761,2.71-6.577,2.494-8.313.63-6.565-4.63-10.663-5.379-17.3-.823-9.618-.786-14.946-4.97-16.021l-22.639-4.119" transform="translate(-89.759 -204.585)"/></g><g transform="translate(80.087 65.772)"><path class="e" d="M135.65,223.441a8.983,8.983,0,0,0-.006,4.221,17.1,17.1,0,0,0,1.753,4.273,36.606,36.606,0,0,1,2.552,5.167,16.452,16.452,0,0,1,.14,10.371,14.734,14.734,0,0,1-1.275,2.911,4.735,4.735,0,0,1-.658.96,27.038,27.038,0,0,0,1.618-3.966,16.826,16.826,0,0,0-.264-10.121,39.733,39.733,0,0,0-2.493-5.12,16.42,16.42,0,0,1-1.7-4.4,7.976,7.976,0,0,1-.051-3.186,4.706,4.706,0,0,1,.241-.834C135.589,223.528,135.635,223.435,135.65,223.441Z" transform="translate(-135.136 -223.441)"/></g><g transform="translate(47.952 5.392)"><path class="n" d="M123.89,204.393c-.471-4.927-.875-10.123-.875-10.123s6.243-1.678,6.743-10.088c.477-8.02-1.948-21.986-1.948-21.986v-.708c-9.5-2.826-20.747-2.714-26.54,5.238h0l4.474,39.959c.519,4.639,4.922,7.887,9.884,7.293h0C120.64,213.376,124.337,209.088,123.89,204.393Z" transform="translate(-101.269 -159.806)"/><g transform="translate(22.324 10.439)"><g transform="translate(2.091 1.232)"><path class="e" d="M129.116,172.968a1.067,1.067,0,0,1-.918,1.172,1.021,1.021,0,0,1-1.189-.849,1.068,1.068,0,0,1,.918-1.173A1.021,1.021,0,0,1,129.116,172.968Z" transform="translate(-127 -172.105)"/></g><path class="e" d="M129,171.733c-.118.151-.981-.364-2.124-.25-1.142.1-1.923.77-2.061.641-.067-.055.043-.319.381-.621a2.932,2.932,0,0,1,1.633-.685,2.813,2.813,0,0,1,1.707.372C128.915,171.426,129.058,171.665,129,171.733Z" transform="translate(-124.796 -170.807)"/></g><g transform="translate(10.442 12.027)"><g transform="translate(2.092 1.186)"><path class="e" d="M116.594,174.593a1.068,1.068,0,0,1-.919,1.173,1.021,1.021,0,0,1-1.189-.85,1.068,1.068,0,0,1,.918-1.173A1.023,1.023,0,0,1,116.594,174.593Z" transform="translate(-114.478 -173.731)"/></g><path class="e" d="M116.477,173.407c-.119.152-.982-.364-2.124-.25-1.143.1-1.923.77-2.062.642-.066-.056.042-.319.382-.621a2.929,2.929,0,0,1,1.633-.685,2.817,2.817,0,0,1,1.707.372C116.391,173.1,116.535,173.339,116.477,173.407Z" transform="translate(-112.273 -172.481)"/></g><g transform="translate(18.158 11.549)"><path class="e" d="M121.874,181.447a7.621,7.621,0,0,1,1.823-.518c.289-.059.56-.143.589-.347a1.494,1.494,0,0,0-.28-.846l-1.082-2.137a38.29,38.29,0,0,1-2.51-5.621,38.5,38.5,0,0,1,2.957,5.407q.547,1.127,1.047,2.153a1.7,1.7,0,0,1,.264,1.131.735.735,0,0,1-.437.473,2.019,2.019,0,0,1-.489.118A7.468,7.468,0,0,1,121.874,181.447Z" transform="translate(-120.405 -171.977)"/></g><g transform="translate(10.366 32.596)"><path class="r" d="M123.574,196.026a21.164,21.164,0,0,1-11.38-1.867s3.25,5.423,11.461,3.832Z" transform="translate(-112.194 -194.159)"/></g><g transform="translate(16.07 23.193)"><path class="d" d="M121.55,184.876a2.067,2.067,0,0,0-1.921-.583,1.886,1.886,0,0,0-1.23.824,1.2,1.2,0,0,0,.044,1.371,1.388,1.388,0,0,0,1.535.232,4.352,4.352,0,0,0,1.375-1.015,1.29,1.29,0,0,0,.293-.37.384.384,0,0,0-.044-.425" transform="translate(-118.205 -184.249)"/></g><g transform="translate(16.207 22.14)"><path class="e" d="M118.484,183.14c.185-.029.309,1.211,1.457,1.986s2.456.51,2.482.682c.025.076-.271.27-.827.34a3.1,3.1,0,0,1-2.065-.5,2.7,2.7,0,0,1-1.142-1.674C118.29,183.462,118.4,183.141,118.484,183.14Z" transform="translate(-118.35 -183.139)"/></g></g><g transform="translate(2.542 162.561)"><path class="e" d="M82.213,325.447l-12.7,52.336s-15.148,62.682-15.625,64.334l-.48,1.954,21.34,1.607L111.7,329.409Z" transform="translate(-53.411 -325.447)"/></g><g transform="translate(30.084 102.79)"><path class="e" d="M122.108,358.965c3.455,16.7,16.116,86.713,16.116,86.713l21.639-2.219-12.307-89.307a29.371,29.371,0,0,0-1.409-6.85l-20.23-60.649-38.069-24.2c-.377.02-6.163,15.628-5.329,26.465a27.7,27.7,0,0,0,4.857,13.5c2.421,3.533,5.79,8.457,6.542,9.595C95.124,313.83,122.108,358.965,122.108,358.965Z" transform="translate(-82.437 -262.454)"/></g><g transform="translate(0 46.289)"><path class="d" d="M77.219,280.43q-1.568,5.658-2.58,11.442c-2.435,14.019-8.618,48.144-12.628,57.166-5.084,11.44-13.347,54.657-10.8,62.6s57.835,15.889,57.835,15.889,3.178-51.8,6.355-64.826,9.851-41.628,10.8-58.47.636-46.076-4.766-64.19-17.828-37.134-17.828-37.134-10.618,2.926-14.235,7.137c0,0-4.419,5.418-4.508,10.572s-2.445,29.676-4.049,43.923A127.518,127.518,0,0,1,77.219,280.43Z" transform="translate(-50.732 -202.908)"/><g transform="translate(52.797 10.091)"><path class="e" d="M129.093,303.927a1,1,0,0,1-.031-.258c-.012-.2-.028-.447-.046-.759-.034-.7-.082-1.678-.142-2.92a92.388,92.388,0,0,0-1.029-10.677,36.458,36.458,0,0,0-1.937-7.115,27.847,27.847,0,0,0-4.262-7.273c-1.838-2.357-4.013-4.638-6.121-7.144A44.878,44.878,0,0,1,112.5,263.8a23.218,23.218,0,0,1-2.351-4.6,15.044,15.044,0,0,1-.552-10.054,20.018,20.018,0,0,1,2.333-4.241,7.96,7.96,0,0,0,.926-2.058,3.2,3.2,0,0,0,.084-1.059,2.285,2.285,0,0,0-.357-.96,3.2,3.2,0,0,0-1.667-1.194c-.667-.257-1.374-.441-2.042-.751a3.918,3.918,0,0,1-1.675-1.4,5.035,5.035,0,0,1-.719-1.975,13.269,13.269,0,0,1,.1-3.9q.265-1.839.509-3.527c.658-4.465,1.19-8.091,1.565-10.637.191-1.229.342-2.2.449-2.889l.128-.75a1.062,1.062,0,0,1,.06-.252,1.09,1.09,0,0,1-.012.259c-.022.2-.048.446-.083.756-.087.7-.208,1.667-.362,2.9-.339,2.551-.823,6.184-1.418,10.658q-.229,1.689-.479,3.531a12.968,12.968,0,0,0-.079,3.791,4.655,4.655,0,0,0,.669,1.818,3.514,3.514,0,0,0,1.514,1.247c.625.288,1.323.466,2.021.731a3.609,3.609,0,0,1,1.877,1.351,2.72,2.72,0,0,1,.427,1.141,3.619,3.619,0,0,1-.089,1.215,8.373,8.373,0,0,1-.969,2.182,19.717,19.717,0,0,0-2.284,4.162,14.633,14.633,0,0,0,.556,9.744,28.684,28.684,0,0,0,5.292,8.459c2.09,2.5,4.264,4.788,6.11,7.173a28.027,28.027,0,0,1,4.284,7.4,36.294,36.294,0,0,1,1.9,7.2,84.2,84.2,0,0,1,.885,10.726c.023,1.243.042,2.221.054,2.923v.761A1.1,1.1,0,0,1,129.093,303.927Z" transform="translate(-106.375 -213.543)"/></g><g transform="translate(67.87 107.063)"><path class="e" d="M122.854,316.233c-.019-.019.05-.145.264-.283a1.5,1.5,0,0,1,1.046-.184,1.469,1.469,0,0,1,1.2,1.059,1.59,1.59,0,0,1-2.624,1.626,1.449,1.449,0,0,1-.4-1.548,1.479,1.479,0,0,1,.657-.836c.224-.121.368-.12.375-.094a1.973,1.973,0,0,0-.714,1.017,1.118,1.118,0,0,0,.36,1.138,1.174,1.174,0,0,0,1.927-1.2,1.145,1.145,0,0,0-.851-.844A2.056,2.056,0,0,0,122.854,316.233Z" transform="translate(-122.261 -315.742)"/></g><g transform="translate(61.951 137.867)"><path class="e" d="M116.616,348.7c-.019-.019.05-.145.264-.283a1.5,1.5,0,0,1,1.046-.184,1.469,1.469,0,0,1,1.2,1.059,1.59,1.59,0,0,1-2.624,1.626,1.449,1.449,0,0,1-.4-1.549,1.479,1.479,0,0,1,.657-.836c.224-.121.368-.12.375-.094a1.979,1.979,0,0,0-.714,1.017,1.118,1.118,0,0,0,.36,1.138,1.174,1.174,0,0,0,1.927-1.2,1.145,1.145,0,0,0-.851-.844A2.056,2.056,0,0,0,116.616,348.7Z" transform="translate(-116.023 -348.206)"/></g><g transform="translate(29.203 99.819)"><path class="e" d="M114.663,308.108a2.032,2.032,0,0,1-.01.3c-.02.222-.046.511-.08.878-.086.8-.21,1.927-.366,3.366-.343,2.921-.857,7.146-1.641,12.348-.395,2.6-.857,5.445-1.49,8.479a27.844,27.844,0,0,1-1.292,4.649,4.325,4.325,0,0,1-.274.583,2.255,2.255,0,0,1-.446.511,4.439,4.439,0,0,1-1.1.713,13.516,13.516,0,0,1-2.471.85,58.6,58.6,0,0,1-10.865,1.231,111.188,111.188,0,0,1-11.733-.139c-.162-.013-.328-.033-.5-.056a.741.741,0,0,1-.538-.392,2.866,2.866,0,0,1-.28-1.015,13.268,13.268,0,0,1-.057-1.955c.045-1.287.167-2.55.311-3.8.292-2.491.676-4.913,1.076-7.265.808-4.7,1.694-9.124,2.567-13.18l.031-.146.149-.012a125.427,125.427,0,0,0,21.155-3.675c2.514-.662,4.471-1.254,5.8-1.663l1.544-.471c.344-.1.512-.153.506-.144a1.342,1.342,0,0,1-.139.057l-.391.146c-.345.126-.823.312-1.48.532-1.322.448-3.272,1.076-5.78,1.772a119.979,119.979,0,0,1-21.181,3.849l.18-.159c-.853,4.052-1.723,8.473-2.52,13.168-.394,2.348-.772,4.766-1.061,7.244-.141,1.238-.262,2.494-.306,3.757a12.938,12.938,0,0,0,.055,1.882,2.457,2.457,0,0,0,.22.84c.075.113.106.151.2.165.154.021.309.039.47.053a112.863,112.863,0,0,0,11.672.146,58.69,58.69,0,0,0,10.779-1.191,13.105,13.105,0,0,0,2.391-.811,2.766,2.766,0,0,0,1.636-1.6,27.846,27.846,0,0,0,1.287-4.56c.646-3.015,1.127-5.854,1.542-8.449.825-5.189,1.388-9.407,1.786-12.32.194-1.434.346-2.558.454-3.355.052-.363.094-.651.125-.872C114.636,308.223,114.66,308.115,114.663,308.108Z" transform="translate(-81.51 -308.107)"/><g transform="translate(2.855 6.518)"><path class="e" d="M114.243,314.98a5.924,5.924,0,0,1-1.067.549c-.7.332-1.729.763-3.022,1.248A56.881,56.881,0,0,1,88.969,320.3c-1.381-.04-2.5-.113-3.263-.2a5.851,5.851,0,0,1-1.187-.175,6.046,6.046,0,0,1,1.2-.007c.769.033,1.883.055,3.256.053a65.079,65.079,0,0,0,21.07-3.507c1.3-.443,2.346-.825,3.063-1.1A5.913,5.913,0,0,1,114.243,314.98Z" transform="translate(-84.519 -314.976)"/></g></g></g><g transform="translate(2.581 49.931)"><g transform="translate(9.042)"><path class="p" d="M62.981,284.233s.018-.145.077-.421c.065-.3.155-.7.27-1.227.258-1.1.631-2.676,1.107-4.7.984-4.076,2.477-9.959,4.414-17.2l3.208-11.837c1.167-4.251,2.386-8.8,3.845-13.546a109.951,109.951,0,0,1,5.511-14.563A67.928,67.928,0,0,1,85.38,213.5a26.286,26.286,0,0,1,2.47-3.444,10.664,10.664,0,0,1,3.377-2.707,5.776,5.776,0,0,1,4.317-.333A7.446,7.446,0,0,1,99,209.547c1.787,2.3,2.228,5.2,2.488,7.858.456,5.376.9,10.562,1.317,15.5.825,9.875,1.568,18.77,2.193,26.247.605,7.458,1.1,13.5,1.438,17.7.158,2.074.282,3.692.367,4.814.036.534.065.951.084,1.253.016.283.012.429.012.429s-.028-.143-.06-.425c-.031-.3-.075-.715-.13-1.249-.106-1.121-.259-2.736-.455-4.806-.377-4.2-.918-10.234-1.586-17.687-.653-7.475-1.43-16.367-2.292-26.24-.428-4.939-.878-10.121-1.344-15.495-.257-2.642-.708-5.451-2.4-7.616a7,7,0,0,0-3.237-2.372,5.31,5.31,0,0,0-3.977.312,10.225,10.225,0,0,0-3.225,2.592,25.76,25.76,0,0,0-2.429,3.386,67.829,67.829,0,0,0-3.945,7.179,110.719,110.719,0,0,0-5.514,14.495c-1.466,4.729-2.7,9.274-3.882,13.521s-2.265,8.2-3.262,11.82c-1.977,7.231-3.518,13.1-4.555,17.161-.513,2.015-.915,3.589-1.193,4.679l-.315,1.215C63.03,284.1,62.981,284.233,62.981,284.233Z" transform="translate(-62.981 -206.746)"/></g><g transform="translate(0 74.405)"><path class="e" d="M60.3,285.161c-.348,1.394-6.848,38.375-6.848,38.375L101.8,325.1l6.656-38.35Z" transform="translate(-53.452 -285.161)"/><g transform="translate(7.194 0.572)"><path class="p" d="M108.348,287.487a2.308,2.308,0,0,1-.436.33c-.293.2-.733.5-1.3.863-1.143.732-2.817,1.763-4.929,2.959s-4.659,2.571-7.56,3.951c-1.461.679-2.972,1.4-4.642,2a16.2,16.2,0,0,1-5.4.788,25.311,25.311,0,0,1-10.12-2.616,36.863,36.863,0,0,1-7.166-4.656c-1.891-1.531-3.317-2.887-4.3-3.828-.485-.474-.859-.846-1.105-1.105a2.439,2.439,0,0,1-.361-.411,2.442,2.442,0,0,1,.426.342l1.164,1.041c1.013.9,2.471,2.213,4.376,3.7a38.1,38.1,0,0,0,7.143,4.525,25.278,25.278,0,0,0,9.946,2.539,15.9,15.9,0,0,0,5.242-.754c1.615-.576,3.154-1.3,4.6-1.958,2.9-1.353,5.455-2.7,7.583-3.85s3.824-2.144,4.995-2.827l1.349-.787A2.4,2.4,0,0,1,108.348,287.487Z" transform="translate(-61.034 -285.764)"/></g><g transform="translate(45.295 3.945)"><path class="p" d="M107.445,289.319c.126.022-1.17,8.076-2.895,17.987s-3.226,17.931-3.353,17.909,1.17-8.074,2.895-17.988S107.318,289.3,107.445,289.319Z" transform="translate(-101.188 -289.319)"/></g><g transform="translate(28.376 11.501)"><path class="p" d="M83.788,297.518l-.387,3.6a3.117,3.117,0,0,0,.018,1.138.941.941,0,0,0,1.82.178,3.1,3.1,0,0,0,.257-1.293q.1-1.93.207-3.86l-1.588.011" transform="translate(-83.357 -297.282)"/></g></g></g><g transform="translate(19.165 50.961)"><path class="d" d="M93.116,208.043c3.925-1.315,7.208,3.778,7.66,7.893a90.146,90.146,0,0,1,.269,14.267c-.714,14.085-7.087,27.562-7.087,27.562l40.438,6.044-1.485,15.555-51.137-5.486a12.121,12.121,0,0,1-10.305-15.6c4.571-14.857,12.035-36.282,13.718-39.838C87.449,213.657,87.7,209.856,93.116,208.043Z" transform="translate(-70.93 -207.831)"/><g transform="translate(8.92 22.838)"><path class="e" d="M80.33,274.743a1.177,1.177,0,0,1,.264.022l.768.105,2.966.441c2.588.359,6.354.891,11.083,1.438,9.453,1.117,22.738,2.444,38,3.619l-.242.2c.47-4.95.966-10.17,1.475-15.533l0-.023.2.251-40.427-6.088-.221-.033.067-.21c2.632-8.136,4.645-14.865,5.841-19.6.6-2.366,1.024-4.227,1.288-5.5.126-.618.224-1.1.3-1.449.068-.327.118-.493.118-.493s-.011.173-.062.5-.12.823-.242,1.46c-.229,1.279-.617,3.15-1.19,5.527-1.137,4.757-3.1,11.511-5.691,19.662l-.154-.242,40.45,6,.216.031-.021.22,0,.023c-.514,5.363-1.014,10.582-1.489,15.532l-.021.222-.221-.017c-15.269-1.2-28.552-2.585-38-3.782-4.726-.587-8.488-1.164-11.071-1.572l-2.956-.517-.762-.144A1.333,1.333,0,0,1,80.33,274.743Z" transform="translate(-80.33 -231.9)"/></g><g transform="translate(53.982 54.788)"><path class="e" d="M127.857,281.669a70.285,70.285,0,0,1,.515-8.069,70.168,70.168,0,0,1,.978-8.027,70.321,70.321,0,0,1-.515,8.07A70.2,70.2,0,0,1,127.857,281.669Z" transform="translate(-127.822 -265.573)"/></g><g transform="translate(57.716 57.126)"><path class="e" d="M133.2,268.344c0-.028.105-.07.3-.037a1.128,1.128,0,0,1,.7.47,1.163,1.163,0,0,1,.065,1.275,1.375,1.375,0,0,1-1.421.662,1.419,1.419,0,0,1-1.072-1.142,1.293,1.293,0,0,1,.424-1.2c.577-.489,1.089-.321,1.058-.274.009.073-.434.065-.825.506a.987.987,0,0,0-.237.881,1.029,1.029,0,0,0,.744.769.983.983,0,0,0,.964-.429.837.837,0,0,0,.021-.878C133.644,268.437,133.189,268.413,133.2,268.344Z" transform="translate(-131.756 -268.037)"/></g><g transform="translate(62.132 47.185)"><g transform="translate(9.174)"><g transform="translate(0.875 4.254)"><path class="a" d="M147,262.043l1.848,19.16h9.337l2.237-19.16Z" transform="translate(-147.002 -262.043)"/></g><g transform="translate(0 1.777)"><path class="p" d="M146.955,259.433a3.994,3.994,0,0,0-.875,2.529h15.172a2.828,2.828,0,0,0-.876-2.529Z" transform="translate(-146.08 -259.433)"/></g><g transform="translate(2.092)"><path class="p" d="M148.8,257.581l-.513,1.9,11.452.086-.756-2Z" transform="translate(-148.285 -257.56)"/></g><g transform="translate(0.683 9.049)"><path class="p" d="M146.8,267.1c0,.178,1.111,9.644,1.111,9.644h11.416l1.086-9.644Z" transform="translate(-146.8 -267.097)"/></g></g><g transform="translate(0 7.3)"><path class="n" d="M146.979,265.311l-.294,3.2,11.054.26s0,3.728-1.118,4.846c0,0,1.118,2.236-.124,3.479s-1.988.87-1.988.87.5,2.485-.746,3.106-17.353-.341-17.353-.341l.99-10.371,3.6-.321C141.125,266.618,144.683,264.908,146.979,265.311Z" transform="translate(-136.411 -265.253)"/></g></g></g><g transform="translate(36.553 0)"><path class="e" d="M130.586,161.982a8.208,8.208,0,0,0-3.518-4.448,6.153,6.153,0,0,0-3.742-.769l.012-.026-.022-.269c-1.2-2.157-3.575-2.623-6.025-2.214s-4.861,2.2-7.041,3.362c-2.95,1.571-5.772,3.371-8.59,5.169-2.342,1.494-4.742,3.042-6.357,5.3a11.028,11.028,0,0,0-1.851,8.312c.577,3.132,2.514,6.311,1.366,9.282-.765,1.981-2.709,3.222-3.987,4.919a7.954,7.954,0,0,0-.169,9.265c1.3,1.746,3.3,2.8,5.118,4,2.892,1.906,5.477,4.3,8.587,5.827s7.047,2.024,9.912.077c2.95-2,3.892-6.039,3.367-9.567s-2.227-6.748-3.592-10.044a55.466,55.466,0,0,1-3.67-13.4c-.262-1.834-.409-3.809.465-5.442a11.536,11.536,0,0,1,3.584-3.4,28.606,28.606,0,0,0,7.67-8.76,11.138,11.138,0,0,0,3.061,4.287,27.574,27.574,0,0,0,6.021,4.257A13.971,13.971,0,0,0,130.586,161.982Z" transform="translate(-89.255 -154.123)"/></g></g><g transform="translate(348.107 245.065)"><g transform="translate(28.125 49.571)"><path class="d" d="M430.319,399.359c-.633-2.513,1.027-5.022,2.881-6.832s4.069-3.428,5.042-5.83c1.577-3.891-.485-8.952,2.186-12.191,1.571-1.905,4.373-2.53,5.77-4.567a10.478,10.478,0,0,0,1.268-3.646,37.119,37.119,0,0,1,9.328-17.221,32.206,32.206,0,0,1-3.716,16.627c-1.085,2.039-2.417,4.026-2.785,6.307-.6,3.7,1.448,7.535.517,11.169-1.066,4.157-5.758,6.917-6,11.2-.209,3.622,2.931,6.819,2.676,10.438a9.777,9.777,0,0,1-1.637,4.287c-2.828,4.642-6.961,7.825-13.2,7.686l-7.641.224Z" transform="translate(-425.007 -349.073)"/></g><g class="q" transform="translate(28.125 49.571)"><path d="M430.319,399.359c-.633-2.513,1.027-5.022,2.881-6.832s4.069-3.428,5.042-5.83c1.577-3.891-.485-8.952,2.186-12.191,1.571-1.905,4.373-2.53,5.77-4.567a10.478,10.478,0,0,0,1.268-3.646,37.119,37.119,0,0,1,9.328-17.221,32.206,32.206,0,0,1-3.716,16.627c-1.085,2.039-2.417,4.026-2.785,6.307-.6,3.7,1.448,7.535.517,11.169-1.066,4.157-5.758,6.917-6,11.2-.209,3.622,2.931,6.819,2.676,10.438a9.777,9.777,0,0,1-1.637,4.287c-2.828,4.642-6.961,7.825-13.2,7.686l-7.641.224Z" transform="translate(-425.007 -349.073)"/></g><g transform="translate(0 23.916)"><path class="e" d="M421.962,415.772a6.1,6.1,0,0,1-2.1-.058,12.693,12.693,0,0,1-2.478-.639,10.52,10.52,0,0,1-3.057-1.7,4.275,4.275,0,0,1-1.252-1.688,7.907,7.907,0,0,1-.347-2.285,22.036,22.036,0,0,0-.164-2.472,6.8,6.8,0,0,0-.919-2.462c-.892-1.587-2.379-3.094-2.85-5.245a17.325,17.325,0,0,1,.246-6.7c.368-2.29.725-4.786-.138-7.177-.806-2.394-2.469-4.56-3.292-7.26-.819-2.725-.414-5.649-.573-8.536a11.321,11.321,0,0,0-.972-4.247c-.61-1.356-1.46-2.636-2.122-4.063-1.34-2.886-1.561-6.15-1.914-9.349q-.258-2.417-.52-4.885a23.911,23.911,0,0,0-.822-4.89,42.984,42.984,0,0,0-1.8-4.738,15.649,15.649,0,0,1-.873-2.475,25.011,25.011,0,0,1-.231-2.629,30.967,30.967,0,0,1,.233-5.288c.217-1.762.546-3.508.745-5.274l.036-.3.042-.354.314.159a11.791,11.791,0,0,1,4.093,3.495,18.736,18.736,0,0,1,2.5,4.671,57.388,57.388,0,0,1,2.322,10.019,27.181,27.181,0,0,0,3.087,9.257c.829,1.364,1.835,2.613,2.714,3.945a10.793,10.793,0,0,1,1.871,4.366c.434,3.235-1.363,6.063-1.008,8.927a9.911,9.911,0,0,0,1.37,3.972c.687,1.224,1.5,2.361,2.263,3.5a22.362,22.362,0,0,1,2.031,3.536,11.177,11.177,0,0,1,.918,3.836c.172,2.577-.208,5.019-.033,7.328a16.867,16.867,0,0,0,1.85,6.289c.913,1.884,1.931,3.59,2.783,5.243a26.592,26.592,0,0,1,1.144,2.441,11.966,11.966,0,0,1,.657,2.419,15.234,15.234,0,0,1,.032,4.361,10.979,10.979,0,0,1-2.218,5.549,5.282,5.282,0,0,1-.621.666,3.09,3.09,0,0,1-.5.423c-.287.208-.439.3-.439.3a9.723,9.723,0,0,0,1.488-1.456,11.067,11.067,0,0,0,2.1-5.511,15.172,15.172,0,0,0-.073-4.3,11.757,11.757,0,0,0-.662-2.362c-.321-.79-.72-1.592-1.152-2.409-.859-1.638-1.887-3.337-2.821-5.234a17.147,17.147,0,0,1-1.915-6.4c-.188-2.358.181-4.808,0-7.325a10.8,10.8,0,0,0-.9-3.706,22.03,22.03,0,0,0-2.008-3.465c-.767-1.135-1.585-2.275-2.292-3.526a10.325,10.325,0,0,1-1.435-4.136c-.35-3.051,1.433-5.9.991-8.9a10.374,10.374,0,0,0-1.808-4.174c-.865-1.307-1.876-2.557-2.731-3.957a27.6,27.6,0,0,1-3.159-9.413,57.156,57.156,0,0,0-2.307-9.934,18.242,18.242,0,0,0-2.435-4.548,11.32,11.32,0,0,0-3.92-3.35l.356-.193-.036.307c-.2,1.787-.531,3.536-.747,5.277a30.434,30.434,0,0,0-.232,5.206,24.763,24.763,0,0,0,.22,2.55,15.391,15.391,0,0,0,.844,2.386,43.639,43.639,0,0,1,1.814,4.791,24.318,24.318,0,0,1,.832,4.972q.259,2.469.514,4.888c.346,3.213.567,6.423,1.858,9.209.637,1.387,1.486,2.671,2.114,4.071a11.751,11.751,0,0,1,1,4.406c.15,2.949-.25,5.829.532,8.445s2.431,4.781,3.259,7.252c.887,2.5.5,5.074.122,7.356a17.064,17.064,0,0,0-.285,6.568c.43,2.054,1.873,3.547,2.784,5.18a7.089,7.089,0,0,1,.933,2.56,22.087,22.087,0,0,1,.146,2.5,7.751,7.751,0,0,0,.313,2.222,4.088,4.088,0,0,0,1.177,1.614,10.472,10.472,0,0,0,2.982,1.705,13.13,13.13,0,0,0,2.443.678,9.755,9.755,0,0,0,1.553.158C421.78,415.764,421.962,415.772,421.962,415.772Z" transform="translate(-395.753 -321.062)"/><g transform="translate(2.578 4.57)"><path class="e" d="M398.473,325.878a.885.885,0,0,1,.073.232l.165.689c.146.6.321,1.512.6,2.648s.98,2.418,1.564,4c.607,1.569,1.222,3.387,1.786,5.429s1.075,4.306,1.6,6.733a28.346,28.346,0,0,0,2.4,7.474c.619,1.245,1.317,2.5,1.869,3.882a18.016,18.016,0,0,1,1.075,4.39,88.712,88.712,0,0,0,1.6,9.252c1.5,6.269,2.922,12.24,4.219,17.678,1.33,5.419,2.529,10.3,3.538,14.418.983,4.078,1.781,7.393,2.344,9.731q.39,1.682.613,2.652c.06.28.108.508.148.693a.861.861,0,0,1,.033.24.894.894,0,0,1-.083-.229l-.195-.68q-.258-.959-.7-2.629l-2.5-9.693c-1.04-4.11-2.273-8.984-3.641-14.392-1.31-5.439-2.75-11.412-4.26-17.683a87.4,87.4,0,0,1-1.591-9.29,17.627,17.627,0,0,0-1.034-4.283c-.532-1.343-1.219-2.6-1.839-3.854a28.493,28.493,0,0,1-2.4-7.59c-.509-2.433-.991-4.692-1.538-6.728s-1.126-3.852-1.706-5.423c-.553-1.577-1.216-2.876-1.492-4.048-.258-1.164-.4-2.064-.514-2.678-.047-.283-.085-.512-.117-.7A.953.953,0,0,1,398.473,325.878Z" transform="translate(-398.47 -325.878)"/></g></g><g transform="translate(19.664)"><path class="d" d="M421.674,414.5c-4.973-2.995-6.354-12.006-4.242-17.413s5.784-10.338,6.379-16.113c.456-4.44-.972-9.007.087-13.341,1.429-5.851,7.174-10.356,7.143-16.379-.018-3.379-1.922-6.569-1.75-9.944.211-4.139,3.407-7.406,5.4-11.043,3.044-5.565,3.28-12.165,4.346-18.419s3.49-12.944,9.055-15.99c.789,5.319,2.167,8.968,1.687,16.165-.173,2.585-3.2,7.518-3.645,13.182-.263,3.385-.452,6.777-.678,10.165A32.583,32.583,0,0,1,443.8,345.1c-.919,2.36-2.387,4.5-3.074,6.937-1.291,4.586.344,9.57-.7,14.218-.889,3.938-3.636,7.316-4.217,11.31-.815,5.612,2.787,11.47.9,16.817-.938,2.653-3.138,4.776-3.774,7.517-.493,2.127.019,4.386-.43,6.522-.722,3.443-7.313,6.084-10.823,5.851" transform="translate(-416.477 -295.857)"/><g transform="translate(5.195 5.268)"><path class="e" d="M446.964,301.409a1.372,1.372,0,0,1-.024.3c-.029.224-.068.511-.117.873-.119.767-.254,1.894-.522,3.349-.287,1.464-1.051,3.109-1.666,5.1-.648,1.98-1.293,4.264-1.868,6.823s-1.076,5.388-1.594,8.435a35.345,35.345,0,0,1-2.612,9.533c-.709,1.591-1.5,3.184-2.1,4.881a21.947,21.947,0,0,0-1.084,5.386,109.063,109.063,0,0,1-1.529,11.617c-1.573,7.866-3.071,15.357-4.436,22.177-1.436,6.793-2.728,12.912-3.817,18.063-1.1,5.113-1.991,9.262-2.615,12.168-.314,1.409-.56,2.515-.735,3.3l-.2.856a1.35,1.35,0,0,1-.085.288,1.33,1.33,0,0,1,.036-.3l.156-.866c.154-.792.37-1.905.645-3.322.587-2.914,1.427-7.074,2.461-12.2,1.059-5.158,2.317-11.285,3.713-18.084,1.352-6.818,2.836-14.308,4.4-22.172a110.22,110.22,0,0,0,1.534-11.578,22.351,22.351,0,0,1,1.12-5.494c.617-1.735,1.422-3.332,2.132-4.91a35.254,35.254,0,0,0,2.624-9.418c.534-3.041,1.049-5.881,1.657-8.443s1.271-4.853,1.947-6.832c.645-1.993,1.433-3.624,1.741-5.05.292-1.429.461-2.567.61-3.324.069-.358.123-.643.166-.864A1.349,1.349,0,0,1,446.964,301.409Z" transform="translate(-421.951 -301.409)"/></g></g></g></g></svg>