<svg xmlns="http://www.w3.org/2000/svg" width="166.751" height="60.25" viewBox="0 0 166.751 60.25">
  <g id="Group_102941" data-name="Group 102941" transform="translate(16516 -21325.207)">
    <path id="Path_20925" data-name="Path 20925" d="M0,0H166.751L136.615,30.636,166.751,60.25H0Z" transform="translate(-16516 21325.207)" fill="#e03249"/>
    <g id="lock" transform="translate(-16508.451 21341.207)">
      <g id="Group_10293" data-name="Group 10293" transform="translate(64)">
        <g id="Group_10292" data-name="Group 10292">
          <path id="Path_20926" data-name="Path 20926" d="M84.615,10.6H82.848V8.246a8.246,8.246,0,1,0-16.492,0V10.6H64.589a.589.589,0,0,0-.589.589V25.916a2.358,2.358,0,0,0,2.356,2.356H82.848A2.358,2.358,0,0,0,85.2,25.916V11.191A.589.589,0,0,0,84.615,10.6Zm-8.249,12.3a.589.589,0,0,1-.586.654H73.424a.589.589,0,0,1-.586-.654l.372-3.341a2.33,2.33,0,0,1-.964-1.895,2.356,2.356,0,0,1,4.712,0,2.33,2.33,0,0,1-.964,1.895Zm2.948-12.3H69.89V8.246a4.712,4.712,0,0,1,9.424,0Z" transform="translate(-64)" fill="#fff"/>
        </g>
      </g>
    </g>
  </g>
</svg>
