<svg xmlns="http://www.w3.org/2000/svg" xmlns:xlink="http://www.w3.org/1999/xlink" width="35.607" height="30.268" viewBox="0 0 35.607 30.268"><defs><style>.a{fill:#fff;stroke:#707070;}.b{fill:#d4165c;}.c{filter:url(#a);}</style><filter id="a" x="0" y="0" width="35.607" height="30.268" filterUnits="userSpaceOnUse"><feOffset dy="3" input="SourceAlpha"/><feGaussianBlur stdDeviation="3" result="b"/><feFlood flood-opacity="0.161"/><feComposite operator="in" in2="b"/><feComposite in="SourceGraphic"/></filter></defs><g transform="translate(-583.205 -330.37)"><g class="c" transform="matrix(1, 0, 0, 1, 583.21, 330.37)"><path class="a" d="M593.166,336.945H598.6l4.613.615,3.9-.308,2.205-.307v9.739l-3.588,1.435-7.127-1.435-4.406.307-1.486.462v-10.2" transform="translate(-583.21 -330.37)"/></g><path class="b" d="M9.749,7.416v2.66c1.019.23,1.926.609,2.875.871V8.283c-1.016-.227-1.93-.605-2.875-.867Zm8.722-4.8A11.405,11.405,0,0,1,13.9,3.858c-2.09,0-3.82-1.359-6.453-1.359a7.594,7.594,0,0,0-2.656.469A2.188,2.188,0,1,0,1.5,3.979V19.059A.935.935,0,0,0,2.437,20h.625A.935.935,0,0,0,4,19.059V15.372a10.89,10.89,0,0,1,4.468-.863c2.094,0,3.82,1.359,6.453,1.359a8.161,8.161,0,0,0,4.785-1.6,1.246,1.246,0,0,0,.539-1.031v-9.5A1.248,1.248,0,0,0,18.471,2.612Zm-11.6,10.1A12.305,12.305,0,0,0,4,13.361V10.607a11.174,11.174,0,0,1,2.875-.68Zm11.5-5.253a12.459,12.459,0,0,1-2.875.934v2.777a7.26,7.26,0,0,0,2.875-1.016v2.754A6.311,6.311,0,0,1,15.5,13.966v-2.8a6.607,6.607,0,0,1-2.875-.219v2.633a22.789,22.789,0,0,0-2.875-.832V10.076a8.682,8.682,0,0,0-2.875-.148V7.193A13.783,13.783,0,0,0,4,8.009V5.256A11.185,11.185,0,0,1,6.874,4.4v2.8a6.644,6.644,0,0,1,2.875.223V4.783a22.236,22.236,0,0,0,2.875.832V8.287a7.441,7.441,0,0,0,2.875.105V5.584a13.82,13.82,0,0,0,2.875-.879Z" transform="translate(590 333)"/></g></svg>