<svg xmlns="http://www.w3.org/2000/svg" width="105.893" height="233.992" viewBox="0 0 105.893 233.992"><defs><style>.a{fill:#ffdc01;}.b{fill:#ffec03;}.c{fill:#ff8b00;}.d{fill:#d67205;}.e{fill:#ffb600;}.f,.g{fill:#ffc536;}.g{opacity:0.51;}.g,.n{mix-blend-mode:screen;isolation:isolate;}.h{fill:#893003;}.i{fill:#7a2b02;}.j{fill:#ffb10f;}.k{fill:#eabe06;}.l{fill:#ffd110;}.m{fill:#ffd938;}.o{fill:#ffcf03;}.p{fill:#e8bc03;}.q{fill:#ffca5c;}</style></defs><g transform="translate(-175.947 -832.428)"><path class="a" d="M290.8,1052.742c-.024.666-.116,1.3-.194,1.958-2.211,16.957-11.293,34.18-27.227,41.441l-.291-.474c10.991-9.176,15.113-22.667,14.4-37.007a40.933,40.933,0,0,0-.6-5.3Z" transform="translate(-38.697 -97.836)"/><path class="b" d="M225.921,1032.272c1.272,13.437,9.208,46.4,24.039,57.339l-.283.478c-16.563-7.855-31.553-38.841-36.556-54.914Z" transform="translate(-16.508 -88.746)"/><path class="c" d="M275.529,930.9c-1.125,2.072-5.63,13.146-9.268,25.491a195.354,195.354,0,0,0-7.705,40.889q-.477,6.958-.3,13.974a101.75,101.75,0,0,0,4.58,27.842l-.508.227c-17.8-31.533-17.822-77.1-11.033-112.342l.377-1.906c.144-.67.254-1.241.46-2.06Z" transform="translate(-31.602 -40.226)"/><path class="d" d="M270.932,1125.013a14.1,14.1,0,1,1-14.1-14.1A14.1,14.1,0,0,1,270.932,1125.013Z" transform="translate(-29.66 -123.67)"/><path class="d" d="M276.119,930.9l-23.394-7.886a224.244,224.244,0,0,0-4.284,29.346l9.059-2.26,9.54,5.654C270.643,943.664,275.014,932.932,276.119,930.9Z" transform="translate(-32.193 -40.226)"/><path class="e" d="M260.932,921.015l-25.827-15.305-29.128,7.266,6.576-29.292-15.912-25.458,29.89-2.8,19.294-23,11.9,27.563,27.836,11.243-22.537,19.833Z" transform="translate(-9.19 0)"/><path class="f" d="M239.331,906.921l-25.864,6.452,5.839-26.009-14.129-22.606,26.541-2.484,17.132-20.423,10.564,24.474,24.717,9.983-20.012,17.61-1.856,26.592Z" transform="translate(-12.98 -4.185)"/><path class="g" d="M219.841,907.73a44.272,44.272,0,0,0,44.023-39.607l-4.449-1.8L248.85,841.852l-17.132,20.422-26.541,2.484,14.129,22.606L214.8,907.445A44.687,44.687,0,0,0,219.841,907.73Z" transform="translate(-12.98 -4.185)"/><rect class="h" width="86.933" height="43.625" transform="translate(185.427 1015.44)"/><path class="i" d="M193,1161.631s52.031,5.637,52.819,11.937l13.76,20.438,1.3,11.25h19.058v-43.625Z" transform="translate(-7.573 -146.191)"/><path class="j" d="M7.355,0H98.538a7.355,7.355,0,0,1,7.355,7.355v0a0,0,0,0,1,0,0H0a0,0,0,0,1,0,0v0A7.355,7.355,0,0,1,7.355,0Z" transform="translate(175.947 1059.065)"/><path class="k" d="M288.043,1069.713l.977.011,6.012,6.072c4.071-7.714,6.6-17.642,6.8-23.054l-13.9.616C288.13,1053.607,289.242,1061.38,288.043,1069.713Z" transform="translate(-49.726 -97.836)"/><path class="l" d="M279.748,1046.562l11.538,11.654,5.238-15.54,14.649-7.373-13.162-9.784-2.485-16.21-13.372,9.494-16.185-2.646,4.9,15.652-7.518,14.575Z" transform="translate(-38.813 -78.548)"/><path class="m" d="M284.543,1047.689l-13.035-.142,5.976-11.585-3.893-12.441,12.865,2.1,10.629-7.546,1.975,12.885,10.462,7.778-11.644,5.86-4.164,12.353Z" transform="translate(-42.436 -82.442)"/><rect class="j" width="47.068" height="20.438" transform="translate(204.938 1027.377)"/><g class="n" transform="translate(204.938 1027.377)"><path class="j" d="M245.123,1203.541,228.914,1183.1H228.1v2.547l14.189,17.891Z" transform="translate(-228.095 -1183.104)"/><path class="j" d="M237.8,1210.093l-9.7-12.236v1.789l8.285,10.447Z" transform="translate(-228.095 -1189.655)"/><path class="j" d="M256.67,1203.541,240.461,1183.1h-1.419l16.209,20.438Z" transform="translate(-232.956 -1183.104)"/><path class="j" d="M267.171,1203.541,250.962,1183.1h-2.128l16.209,20.438Z" transform="translate(-237.305 -1183.104)"/></g><rect class="j" width="76.44" height="10.973" transform="translate(190.391 1004.467)"/><path class="o" d="M10.972,0H56.006A10.972,10.972,0,0,1,66.979,10.972v0a0,0,0,0,1,0,0H0a0,0,0,0,1,0,0v0A10.972,10.972,0,0,1,10.972,0Z" transform="translate(195.405 993.494)"/><path class="p" d="M307.749,1122.155H299.8a9.632,9.632,0,0,1,9.632,9.632v1.341h7.953v-1.341A9.632,9.632,0,0,0,307.749,1122.155Z" transform="translate(-54.998 -128.661)"/><path class="o" d="M225.921,1032.272l-12.8,2.9a134.969,134.969,0,0,0,6.079,15.549l4.416-3.323,5.153.7A117.233,117.233,0,0,1,225.921,1032.272Z" transform="translate(-16.508 -88.746)"/><path class="j" d="M222.8,1023.091l-16.252-2.2-13.1,9.861-2.932-16.135-13.427-9.416,14.44-7.775,4.806-15.68,11.857,11.33,16.4-.275-7.112,14.778Z" transform="translate(-0.506 -66.309)"/><path class="q" d="M197.267,1017.091l-10.673-7.484,11.478-6.18,3.82-12.463,9.425,9.006,13.034-.219L218.7,1011.5l4.235,12.328-12.918-1.747-10.416,7.838Z" transform="translate(-4.728 -70.402)"/></g></svg>