<svg xmlns="http://www.w3.org/2000/svg" width="368.641" height="254.613" viewBox="0 0 368.641 254.613"><defs><style>.a{fill:#e0e0e0;}.b{fill:#ebebeb;}.c{fill:#f5f5f5;}.d{fill:#e8505b;}.e{fill:#263238;}.f{fill:#455a64;}.g{fill:#b78876;}.h{fill:#aa6550;}.i{fill:#fafafa;}.j{opacity:0.4;}</style></defs><g transform="translate(-4.698 -73.939)"><g transform="translate(-4502 -519)"><path class="a" d="M4645.462,673.05c0,.082-.325.139-.719.126s-.713-.089-.71-.171.324-.139.719-.126S4645.465,672.968,4645.462,673.05Z"/><path class="a" d="M4651.183,673.353a6.947,6.947,0,0,1-2.859-.176,6.989,6.989,0,0,1,2.859.176Z"/><path class="a" d="M4656.891,673.853a3.615,3.615,0,0,1-1.44.011,3.562,3.562,0,0,1-1.412-.286,6.955,6.955,0,0,1,2.852.275Z"/><path class="a" d="M4662.577,674.547a6.965,6.965,0,1,1-1.4-.333A3.553,3.553,0,0,1,4662.577,674.547Z"/><path class="a" d="M4668.237,675.437a6.982,6.982,0,1,1-1.389-.381A3.579,3.579,0,0,1,4668.237,675.437Z"/><path class="a" d="M4673.862,676.52a6.941,6.941,0,1,1-1.375-.429A3.581,3.581,0,0,1,4673.862,676.52Z"/><path class="a" d="M4679.447,677.794a6.952,6.952,0,0,1-2.787-.66,6.952,6.952,0,0,1,2.787.66Z"/><path class="a" d="M4684.986,679.256a6.939,6.939,0,1,1-1.342-.521A3.575,3.575,0,0,1,4684.986,679.256Z"/><path class="a" d="M4690.472,680.9a3.562,3.562,0,0,1-1.412-.28,3.614,3.614,0,0,1-1.324-.565,6.949,6.949,0,0,1,2.736.845Z"/><path class="a" d="M4695.9,682.728a6.951,6.951,0,1,1-1.3-.608A3.559,3.559,0,0,1,4695.9,682.728Z"/><path class="a" d="M4701.268,684.73a6.939,6.939,0,1,1-1.284-.651A3.589,3.589,0,0,1,4701.268,684.73Z"/><path class="a" d="M4706.568,686.9a6.947,6.947,0,1,1-1.263-.691A3.545,3.545,0,0,1,4706.568,686.9Z"/><path class="a" d="M4711.8,689.236a6.977,6.977,0,1,1-1.241-.729A3.56,3.56,0,0,1,4711.8,689.236Z"/><path class="a" d="M4716.953,691.731a6.96,6.96,0,1,1-1.218-.767A3.555,3.555,0,0,1,4716.953,691.731Z"/><path class="a" d="M4722.031,694.379a6.962,6.962,0,1,1-1.195-.8C4721.536,693.947,4722.071,694.307,4722.031,694.379Z"/><path class="a" d="M4727.031,697.174a3.583,3.583,0,0,1-1.319-.578c-.687-.391-1.211-.766-1.171-.837a3.564,3.564,0,0,1,1.318.578C4726.547,696.728,4727.072,697.1,4727.031,697.174Z"/><path class="a" d="M4731.948,700.11a3.56,3.56,0,0,1-1.3-.615c-.676-.41-1.189-.8-1.147-.87a3.567,3.567,0,0,1,1.3.615C4731.478,699.651,4731.992,700.04,4731.948,700.11Z"/><path class="a" d="M4736.783,703.182a3.6,3.6,0,0,1-1.284-.651c-.664-.429-1.167-.832-1.123-.9a3.575,3.575,0,0,1,1.284.651C4736.325,702.709,4736.828,703.113,4736.783,703.182Z"/><path class="a" d="M4741.533,706.383a3.588,3.588,0,0,1-1.266-.686c-.653-.446-1.144-.862-1.1-.931a3.578,3.578,0,0,1,1.266.685C4741.089,705.9,4741.58,706.315,4741.533,706.383Z"/><path class="a" d="M4746.2,709.707a3.573,3.573,0,0,1-1.248-.718c-.641-.463-1.121-.892-1.074-.959a3.561,3.561,0,0,1,1.249.718C4745.766,709.211,4746.247,709.641,4746.2,709.707Z"/><path class="a" d="M4750.777,713.149a3.549,3.549,0,0,1-1.23-.749c-.628-.479-1.1-.92-1.049-.986a3.55,3.55,0,0,1,1.23.749C4750.357,712.643,4750.827,713.084,4750.777,713.149Z"/><path class="a" d="M4755.269,716.705a3.6,3.6,0,0,1-1.211-.78c-.617-.494-1.075-.947-1.024-1.012a3.583,3.583,0,0,1,1.21.78C4754.862,716.188,4755.321,716.641,4755.269,716.705Z"/><path class="a" d="M4759.674,720.367a3.574,3.574,0,0,1-1.192-.808c-.6-.509-1.052-.973-1-1.036s.586.3,1.192.808S4759.728,720.3,4759.674,720.367Z"/><path class="a" d="M4763.993,724.132c-.055.061-.58-.313-1.173-.836s-1.03-1-.976-1.059.579.312,1.173.836S4764.047,724.07,4763.993,724.132Z"/><path class="a" d="M4768.224,727.993c-.056.061-.572-.325-1.153-.861s-1.007-1.021-.952-1.081.572.325,1.154.862S4768.28,727.933,4768.224,727.993Z"/><path class="a" d="M4772.368,731.946c-.058.059-.565-.338-1.134-.886s-.983-1.041-.926-1.1.564.338,1.133.887S4772.425,731.888,4772.368,731.946Z"/><path class="a" d="M4775.443,734.993c-.059.058-.332-.121-.611-.4s-.458-.553-.4-.611.332.121.611.4S4775.5,734.935,4775.443,734.993Z"/></g><g transform="translate(-4502 -519)"><path class="b" d="M4871.939,754.649s-4.668-2.467-8.981,8.541a136.967,136.967,0,0,0-5.744,17.252s-1.2,2.335-2.846,1.048-4.116-5.158-6.608-4.172c-2.585,1.021-3.17,4.076-2.234,8.388s2.638,13.834,2.789,14.7c.148.846-.217,2.15-1.481,1.453s-8.824-7.617-11.893-3.833,1.511,15.367,1.988,16.643.275,1.861-.316,2.246-2.912-2.18-5.143-4.06-5.146-3.668-6.734-1.337-1.285,11.331,8.653,25.021l5.02,6.043,7.8-1.205c16.53-3.6,22.749-10.109,23.117-12.905s-3-3.4-5.915-3.487-6.356.285-6.54-.4.055-1.251,1.26-1.885,12.336-6.227,12.566-11.093-10.017-4.738-11.424-5.06-.812-1.538-.138-2.07,8.3-6.512,11.867-9.106,5.167-5.262,3.919-7.745c-1.2-2.4-5.62-1.151-7.708-1.289s-1.426-2.677-1.426-2.677a136.82,136.82,0,0,0,7.2-16.7c4.113-11.084-1.147-12.358-1.147-12.358"/><path class="a" d="M4838.6,840.875c3.052-8.128,7.363-19.322,12.165-31.673s9.136-23.529,12.229-31.641c1.54-4.051,2.787-7.332,3.653-9.611l1-2.613.265-.677c.061-.152.1-.228.1-.228s-.021.081-.074.236-.139.392-.242.686l-.953,2.629c-.829,2.282-2.053,5.575-3.581,9.639-3.052,8.128-7.363,19.322-12.163,31.668s-9.138,23.534-12.231,31.647"/><path class="a" d="M4850.94,782.8a2.485,2.485,0,0,1,.249.511c.147.334.346.824.586,1.431.476,1.215,1.092,2.91,1.738,4.793l1.635,4.825.5,1.459a2.447,2.447,0,0,1,.164.544,2.634,2.634,0,0,1-.253-.51c-.146-.334-.345-.824-.578-1.434-.465-1.22-1.058-2.923-1.7-4.8-.643-1.854-1.224-3.53-1.669-4.812-.2-.578-.375-1.065-.512-1.457A2.479,2.479,0,0,1,4850.94,782.8Z"/><path class="a" d="M4856.549,796.432c-.025-.063,3.414-1.486,7.68-3.179s7.745-3.015,7.77-2.953-3.413,1.486-7.68,3.18S4856.574,796.495,4856.549,796.432Z"/><path class="a" d="M4848.321,815.063a2.614,2.614,0,0,1,.574-.083l1.57-.149c1.324-.127,3.153-.311,5.163-.587s3.823-.582,5.133-.817l1.552-.276a2.682,2.682,0,0,1,.575-.075,2.56,2.56,0,0,1-.555.168c-.362.091-.887.215-1.539.352-1.3.279-3.116.616-5.133.889s-3.852.435-5.183.518c-.665.039-1.2.065-1.577.071A2.618,2.618,0,0,1,4848.321,815.063Z"/><path class="a" d="M4840.534,803.85a2.352,2.352,0,0,1,.349.407l.878,1.164c.733.989,1.731,2.364,2.822,3.892s2.067,2.92,2.763,3.935l.815,1.208a2.284,2.284,0,0,1,.272.463,2.259,2.259,0,0,1-.349-.407l-.878-1.164c-.733-.989-1.731-2.364-2.822-3.893s-2.067-2.92-2.764-3.934l-.814-1.208A2.254,2.254,0,0,1,4840.534,803.85Z"/><path class="a" d="M4831.18,819.375a3.6,3.6,0,0,1,.442.525c.294.388.674.888,1.131,1.487.946,1.262,2.239,3.015,3.655,4.96s2.689,3.715,3.6,5l1.068,1.533a3.722,3.722,0,0,1,.365.581,3.635,3.635,0,0,1-.442-.525c-.294-.388-.674-.887-1.13-1.487-.946-1.262-2.24-3.015-3.657-4.961s-2.687-3.714-3.6-5l-1.068-1.533A3.722,3.722,0,0,1,4831.18,819.375Z"/><path class="a" d="M4841.289,833.058a4.329,4.329,0,0,1,.725-.123l1.983-.261c1.674-.221,3.985-.536,6.526-.955s4.833-.853,6.49-1.181l1.962-.387a4.1,4.1,0,0,1,.726-.115,4.382,4.382,0,0,1-.705.207c-.458.119-1.123.279-1.948.464-1.649.371-3.939.836-6.486,1.252s-4.864.709-6.545.887c-.84.086-1.521.15-1.993.183A4.147,4.147,0,0,1,4841.289,833.058Z"/></g><g transform="translate(-4502 -519)"><path class="c" d="M4744.986,814.924l-.873-3.481,1.226-1.232,3.66.88,4.4,6.4-1.1,1.33Z"/><path class="b" d="M4779.792,841.255,4743.445,808.5a.91.91,0,0,0-1.289.072h0a.842.842,0,0,0,.082,1.181l36.08,32.528"/></g><g transform="translate(-4502 -519)"><path class="a" d="M4550.63,655.019a1.482,1.482,0,0,1-.027-.233l-.049-.682-.033-.5c-.02-.184-.06-.383-.094-.6a10.367,10.367,0,0,0-.3-1.483,13.721,13.721,0,0,0-1.6-3.808,14.276,14.276,0,0,0-17.146-6.083,13.086,13.086,0,0,0-3.606,1.942,13.006,13.006,0,0,0-3.012,3.027,13.786,13.786,0,0,0-2.037,3.926,14.121,14.121,0,0,0,0,8.992,13.829,13.829,0,0,0,2.037,3.927,13.086,13.086,0,0,0,3.012,3.028,13.108,13.108,0,0,0,3.607,1.942,14.31,14.31,0,0,0,17.147-6.084,13.726,13.726,0,0,0,1.6-3.808,10.447,10.447,0,0,0,.3-1.482c.034-.217.074-.416.094-.6l.033-.5.049-.682a1.484,1.484,0,0,1,.027-.233,1.338,1.338,0,0,1,0,.233l-.019.686-.019.506c-.015.186-.051.387-.08.606a10.131,10.131,0,0,1-.279,1.5,13.625,13.625,0,0,1-1.569,3.864,14.488,14.488,0,0,1-9.753,6.869,14.55,14.55,0,0,1-7.631-.612,13.387,13.387,0,0,1-3.682-1.972,16.084,16.084,0,0,1-1.651-1.4,16.365,16.365,0,0,1-1.428-1.683,14.082,14.082,0,0,1-2.082-4.007,14.391,14.391,0,0,1,0-9.179,14.085,14.085,0,0,1,2.082-4.005,16.486,16.486,0,0,1,1.427-1.683,16.191,16.191,0,0,1,1.652-1.4,13.39,13.39,0,0,1,3.681-1.971,14.548,14.548,0,0,1,7.63-.612,14.488,14.488,0,0,1,9.754,6.868,13.631,13.631,0,0,1,1.569,3.865,10.133,10.133,0,0,1,.279,1.5c.029.219.065.42.08.606s.013.353.019.506l.019.686A1.337,1.337,0,0,1,4550.63,655.019Z"/><path class="a" d="M4546.394,655.019a15.941,15.941,0,0,0-.374-2.467,9.709,9.709,0,0,0-1.134-2.679,10.047,10.047,0,0,0-12.066-4.267,9.4,9.4,0,0,0-2.534,1.366,11.319,11.319,0,0,0-1.136.966,11.569,11.569,0,0,0-.98,1.162,9.972,9.972,0,0,0,0,11.837,9.185,9.185,0,0,0,2.116,2.129,9.45,9.45,0,0,0,2.535,1.367,10.092,10.092,0,0,0,5.267.445,10.123,10.123,0,0,0,6.8-4.714,9.733,9.733,0,0,0,1.133-2.679,15.922,15.922,0,0,0,.374-2.466.667.667,0,0,1,.007.165l-.01.484a4.594,4.594,0,0,1-.065.786,7.236,7.236,0,0,1-.193,1.06,9.614,9.614,0,0,1-1.1,2.736,10.25,10.25,0,0,1-6.9,4.871,10.308,10.308,0,0,1-5.406-.43,9.679,9.679,0,0,1-2.61-1.4,9.437,9.437,0,0,1-2.182-2.185,10.238,10.238,0,0,1,0-12.183,11.768,11.768,0,0,1,1.012-1.193,11.494,11.494,0,0,1,1.171-.991,9.627,9.627,0,0,1,2.609-1.395,10.287,10.287,0,0,1,5.406-.43,10.243,10.243,0,0,1,6.9,4.87,9.614,9.614,0,0,1,1.1,2.736,7.239,7.239,0,0,1,.193,1.06,4.6,4.6,0,0,1,.065.786l.01.484A.666.666,0,0,1,4546.394,655.019Z"/><path class="a" d="M4536.081,647.6c-.082,0-.149-2.778-.149-6.2s.067-6.2.149-6.2.149,2.777.149,6.2S4536.164,647.6,4536.081,647.6Z"/><path class="a" d="M4536.081,673.246c-.082,0-.149-2.778-.149-6.2s.067-6.205.149-6.205.149,2.778.149,6.205S4536.164,673.246,4536.081,673.246Z"/><path class="a" d="M4530.87,655.019c0,.082-2.779.149-6.205.149s-6.2-.067-6.2-.149,2.777-.149,6.2-.149S4530.87,654.937,4530.87,655.019Z"/><path class="a" d="M4553.7,655.019c0,.082-2.778.149-6.2.149s-6.205-.067-6.205-.149,2.778-.149,6.205-.149S4553.7,654.937,4553.7,655.019Z"/><path class="a" d="M4527.73,634.9a5.483,5.483,0,0,1-.913.058l-2.489.047c-2.1.027-5.006.044-8.213.044h-.169l.149-.149c0,3.17-.017,6.032-.044,8.1-.019.994-.035,1.818-.047,2.449a5.144,5.144,0,0,1-.058.9,5.4,5.4,0,0,1-.057-.9c-.012-.631-.028-1.455-.047-2.449-.027-2.069-.044-4.931-.045-8.1v-.149h.318c3.207,0,6.111.017,8.213.043l2.489.048A5.338,5.338,0,0,1,4527.73,634.9Z"/><path class="a" d="M4516.115,661.15a5.58,5.58,0,0,1,.058.913c.012.64.028,1.478.047,2.489.027,2.1.044,5.006.044,8.213v.168l-.149-.148c3.17,0,6.032.017,8.1.044l2.448.047a5.369,5.369,0,0,1,.9.057,5.145,5.145,0,0,1-.9.058l-2.448.047c-2.069.027-4.931.044-8.1.044h-.149v-.317c0-3.207.016-6.111.043-8.213.02-1.011.036-1.849.048-2.489A5.337,5.337,0,0,1,4516.115,661.15Z"/><path class="a" d="M4542.994,672.933a5.476,5.476,0,0,1,.913-.058l2.489-.047c2.1-.027,5.006-.043,8.213-.043h.169l-.149.148c0-3.17.017-6.031.044-8.1.019-.994.035-1.818.047-2.448a5.128,5.128,0,0,1,.058-.9,5.361,5.361,0,0,1,.057.9c.012.63.028,1.454.047,2.448.027,2.07.044,4.931.045,8.1v.149h-.318c-3.207,0-6.111-.016-8.213-.043l-2.489-.048A5.206,5.206,0,0,1,4542.994,672.933Z"/><path class="a" d="M4554.609,646.683a5.469,5.469,0,0,1-.058-.913c-.012-.64-.028-1.478-.047-2.489-.027-2.1-.044-5.005-.044-8.212V634.9l.149.149c-3.17,0-6.032-.018-8.1-.045l-2.448-.047a5.235,5.235,0,0,1-.9-.057,5.145,5.145,0,0,1,.9-.058l2.448-.047c2.069-.027,4.931-.044,8.1-.044h.149v.318c0,3.207-.016,6.11-.043,8.212-.02,1.011-.036,1.849-.048,2.489A5.212,5.212,0,0,1,4554.609,646.683Z"/></g><g transform="translate(-4502 -519)"><path class="a" d="M4824.647,704.2a.878.878,0,0,1-.025-.189c-.011-.14-.025-.323-.043-.554a5.851,5.851,0,0,0-.1-.894,8.714,8.714,0,0,0-.249-1.2,11.2,11.2,0,0,0-1.3-3.086,11.574,11.574,0,0,0-13.9-4.923,10.609,10.609,0,0,0-2.92,1.574,12.959,12.959,0,0,0-1.309,1.114,13.129,13.129,0,0,0-1.131,1.339,11.17,11.17,0,0,0-1.649,3.18,11.446,11.446,0,0,0,0,7.283,11.213,11.213,0,0,0,1.649,3.181,10.57,10.57,0,0,0,2.44,2.453,10.633,10.633,0,0,0,2.921,1.574,11.6,11.6,0,0,0,13.9-4.923,11.173,11.173,0,0,0,1.3-3.086,8.732,8.732,0,0,0,.249-1.2,5.876,5.876,0,0,0,.1-.9c.018-.23.032-.413.043-.554a.878.878,0,0,1,.025-.189.9.9,0,0,1,0,.19l-.013.557a5.474,5.474,0,0,1-.077.9,8.293,8.293,0,0,1-.225,1.218,11.048,11.048,0,0,1-1.271,3.143,11.774,11.774,0,0,1-7.927,5.592,11.827,11.827,0,0,1-6.209-.5,12.156,12.156,0,0,1-1.544-.675,12.287,12.287,0,0,1-1.453-.928,13.341,13.341,0,0,1-1.344-1.139,13.482,13.482,0,0,1-1.162-1.37,11.454,11.454,0,0,1-1.695-3.261,11.716,11.716,0,0,1,0-7.47,11.433,11.433,0,0,1,1.7-3.259,10.812,10.812,0,0,1,2.5-2.508,10.892,10.892,0,0,1,3-1.6,11.823,11.823,0,0,1,6.208-.495,11.774,11.774,0,0,1,7.928,5.591,11.037,11.037,0,0,1,1.271,3.143,8.294,8.294,0,0,1,.225,1.218,5.491,5.491,0,0,1,.077.9l.013.558A.9.9,0,0,1,4824.647,704.2Z"/><path class="a" d="M4821.208,704.2a14.363,14.363,0,0,0-.315-2,8.213,8.213,0,0,0-3.008-4.473,8.112,8.112,0,0,0-7.69-1.146,8.143,8.143,0,0,0-3.762,2.829,8.071,8.071,0,0,0,0,9.579,8.133,8.133,0,0,0,3.763,2.83,8.18,8.18,0,0,0,10.7-5.619,14.363,14.363,0,0,0,.315-2,.5.5,0,0,1,.008.134l0,.394a3.793,3.793,0,0,1-.051.638,5.715,5.715,0,0,1-.154.862,7.768,7.768,0,0,1-.893,2.227,8.324,8.324,0,0,1-5.609,3.97,8.384,8.384,0,0,1-4.4-.348,8.383,8.383,0,0,1-3.9-2.915,8.34,8.34,0,0,1,0-9.924,8.383,8.383,0,0,1,3.9-2.915,8.381,8.381,0,0,1,4.4-.347,8.324,8.324,0,0,1,5.61,3.969,7.8,7.8,0,0,1,.893,2.227,5.716,5.716,0,0,1,.154.862,3.8,3.8,0,0,1,.051.639l0,.393A.5.5,0,0,1,4821.208,704.2Z"/><path class="a" d="M4812.834,698.175a85.273,85.273,0,0,1,0-10.075,85.273,85.273,0,0,1,0,10.075Z"/><path class="a" d="M4812.834,719a85.273,85.273,0,0,1,0-10.075,85.273,85.273,0,0,1,0,10.075Z"/><path class="a" d="M4808.6,704.2a85.258,85.258,0,0,1-10.076,0,85.258,85.258,0,0,1,10.076,0Z"/><path class="a" d="M4827.141,704.2a85.241,85.241,0,0,1-10.075,0,85.241,85.241,0,0,1,10.075,0Z"/><path class="a" d="M4806.053,687.863a3.626,3.626,0,0,1-.741.058l-2.021.047c-1.706.027-4.064.044-6.668.044h-.137l.149-.149c0,2.574-.017,4.9-.044,6.577l-.047,1.988a3.418,3.418,0,0,1-.058.729,3.455,3.455,0,0,1-.057-.729c-.013-.528-.029-1.194-.047-1.988-.027-1.68-.044-4-.045-6.577v-.149h.286c2.6,0,4.962.017,6.668.044l2.021.047A3.543,3.543,0,0,1,4806.053,687.863Z"/><path class="a" d="M4796.623,709.176a3.625,3.625,0,0,1,.058.741c.012.537.028,1.215.047,2.021.027,1.707.044,4.064.044,6.668v.137l-.149-.149c2.574,0,4.9.018,6.577.045l1.988.047a3.573,3.573,0,0,1,.729.057,3.425,3.425,0,0,1-.729.058l-1.988.047c-1.68.027-4,.044-6.577.044h-.149v-.286c0-2.6.017-4.961.043-6.668.019-.806.035-1.484.048-2.021A3.538,3.538,0,0,1,4796.623,709.176Z"/><path class="a" d="M4818.447,718.743a3.635,3.635,0,0,1,.741-.058l2.021-.047c1.707-.027,4.064-.044,6.668-.044h.137l-.149.149c0-2.574.018-4.9.045-6.577l.047-1.988a3.551,3.551,0,0,1,.057-.728,3.4,3.4,0,0,1,.058.728c.012.528.028,1.194.047,1.988.027,1.68.044,4,.044,6.577v.149h-.286c-2.6,0-4.961-.016-6.668-.043l-2.021-.048A3.539,3.539,0,0,1,4818.447,718.743Z"/><path class="a" d="M4827.878,697.43a3.455,3.455,0,0,1-.058-.741c-.013-.537-.029-1.214-.048-2.021-.027-1.707-.043-4.064-.043-6.668v-.137l.149.149c-2.574,0-4.9-.018-6.578-.045l-1.988-.047a3.459,3.459,0,0,1-.728-.057,3.412,3.412,0,0,1,.728-.058l1.988-.047c1.68-.027,4-.044,6.578-.044h.149V688c0,2.6-.017,4.961-.044,6.668-.019.807-.035,1.484-.047,2.021A3.625,3.625,0,0,1,4827.878,697.43Z"/></g><g transform="translate(-4502 -519)"><path class="b" d="M4683.47,841.249c14.432-7.006,20.058-23.379,21.954-38.6.317-2.541,1.018-5.161.169-7.57s-3.413-4.37-5.845-3.665c-2.018.585-3.183,2.638-4.52,4.276a14.963,14.963,0,0,1-6.828,4.717c-1.742.579-3.814.773-5.263-.356-1.988-1.549-1.766-4.6-1.351-7.113q1.164-7.02,2.325-14.039a23.744,23.744,0,0,0,.429-7.585,7.89,7.89,0,0,0-4.061-6.051c-2.285-1.051-5.46-.143-6.357,2.237a23.522,23.522,0,0,0-.569,3.118,2.679,2.679,0,0,1-1.943,2.243c-1.05.135-1.942-.738-2.577-1.593-2.19-2.951-3.43-6.5-4.558-10.013s-2.2-7.1-4.108-10.238-4.82-5.854-8.387-6.631-7.756.835-9.228,4.224.019,7.322,1.812,10.548a56.8,56.8,0,0,0,9.909,12.994,4.671,4.671,0,0,1,1.62,2.412c.279,1.762-1.574,3.174-3.316,3.461-1.973.326-3.974-.192-5.971-.273s-4.257.445-5.293,2.18c-1.438,2.4.282,5.439,2.115,7.539a48.666,48.666,0,0,0,12.917,10.475,16.407,16.407,0,0,1,4.877,3.41c1.284,1.537,1.824,3.938.642,5.565s-3.586,1.828-5.465,1.16-3.446-1.995-5.18-2.985c-3.247-1.853-7.745-2.325-10.433.308a8.059,8.059,0,0,0-1.966,6.9,18.576,18.576,0,0,0,2.822,6.818,48.932,48.932,0,0,0,18.328,17.786c7.569,4.053,14.874,5.987,23.3,4.342"/><path class="a" d="M4681.424,842.056c.406-6.085.677-2.928-.351-10.919a228.2,228.2,0,0,0-5.081-25.67q-.85-3.373-1.678-6.661c-.555-2.184-1.106-4.351-1.776-6.437A113.817,113.817,0,0,0,4668,780.6c-1.624-3.672-3.3-7.1-4.887-10.29s-3.141-6.134-4.663-8.759a90.483,90.483,0,0,0-8.1-11.836c-1.062-1.317-1.919-2.312-2.509-2.979l-.675-.754a2,2,0,0,0-.242-.246,1.646,1.646,0,0,0,.206.278l.64.784c.566.687,1.4,1.7,2.438,3.033a95.565,95.565,0,0,1,7.951,11.89c1.5,2.627,3.023,5.574,4.6,8.766s3.232,6.624,4.841,10.292a115.1,115.1,0,0,1,4.491,11.729c.663,2.075,1.207,4.223,1.763,6.414s1.108,4.41,1.674,6.657a233.69,233.69,0,0,1,5.108,25.612c1.048,7.963.811,4.776.448,10.841"/><path class="a" d="M4672.409,792.33a5.256,5.256,0,0,0,.416-1.033c.243-.673.561-1.659.937-2.883.754-2.446,1.679-5.859,2.685-9.626s1.978-7.159,2.767-9.587c.391-1.215.717-2.2.951-2.87a.558.558,0,1,0-.169-.065c-.287.655-.663,1.622-1.094,2.827-.873,2.409-1.9,5.8-2.906,9.572-.983,3.72-1.872,7.085-2.552,9.656-.314,1.16-.58,2.137-.793,2.921A5.045,5.045,0,0,0,4672.409,792.33Z"/><path class="a" d="M4641.056,781.148a6.994,6.994,0,0,0,1.264.36c.818.206,2,.5,3.453.9,2.909.79,6.889,2.023,11.22,3.575s8.189,3.139,10.947,4.362c1.384.6,2.49,1.118,3.257,1.471a6.951,6.951,0,0,0,1.212.51,7.046,7.046,0,0,0-1.131-.676c-.744-.4-1.831-.968-3.2-1.611-2.731-1.3-6.583-2.937-10.926-4.5a115.626,115.626,0,0,0-11.294-3.453c-1.467-.366-2.667-.609-3.5-.759A7.027,7.027,0,0,0,4641.056,781.148Z"/><path class="a" d="M4680.77,830.479a1.665,1.665,0,0,0,.284-.359l.739-1.081c.637-.942,1.524-2.328,2.6-4.056,2.148-3.454,4.965-8.318,8-13.727s5.806-10.295,7.879-13.789c1.014-1.7,1.848-3.093,2.467-4.131.267-.451.486-.822.666-1.128a.231.231,0,1,0-.08-.051l-.738,1.08c-.637.942-1.524,2.328-2.6,4.056-2.148,3.453-4.965,8.318-8,13.729s-5.8,10.293-7.878,13.788c-1.015,1.7-1.848,3.093-2.468,4.13l-.665,1.128A1.705,1.705,0,0,0,4680.77,830.479Z"/><path class="a" d="M4640.032,809.806a1.771,1.771,0,0,0,.4.243l1.181.616,4.361,2.222c3.682,1.878,8.738,4.528,14.32,7.465s10.67,5.545,14.392,7.346c1.86.9,3.373,1.615,4.429,2.087l1.218.537a1.685,1.685,0,0,0,.439.157,1.771,1.771,0,0,0-.4-.244l-1.181-.616-4.36-2.222c-3.682-1.876-8.739-4.528-14.323-7.465s-10.667-5.544-14.389-7.345c-1.86-.9-3.373-1.615-4.429-2.088l-1.219-.536A1.676,1.676,0,0,0,4640.032,809.806Z"/></g><g transform="translate(-4502 -519)"><path class="c" d="M4779.45,633.97h90.885s-8.037-14.625-31.431-12.5c-22.343,2.033-23.478-7.2-34.839-8.331S4783.237,620.716,4779.45,633.97Z"/></g><g transform="translate(-4502 -519)"><path class="c" d="M4823.354,660.717h49.934s-4.416-8.036-17.269-6.866c-12.275,1.117-12.9-3.953-19.141-4.577S4825.435,653.435,4823.354,660.717Z"/></g><g transform="translate(-4502 -519)"><path class="b" d="M4671.463,653.3h69.069s-6.108-11.114-23.886-9.5c-16.98,1.546-17.843-5.467-26.476-6.331S4674.341,643.228,4671.463,653.3Z"/></g><g transform="translate(-4502 -519)"><path class="d" d="M4701.059,766.076s4.322.19,2.809,9.761a112.068,112.068,0,0,1-3.092,14.578s-.122,2.147,1.578,1.921,5.048-1.94,6.4-.21c1.4,1.794.551,4.2-1.9,6.856s-7.6,8.687-8.064,9.234-.738,1.609.445,1.641,9.4-1.727,10,2.22-7.439,10.239-8.3,10.943-.966,1.2-.708,1.719,2.963-.334,5.319-.738,5.16-.461,5.316,1.846-3.789,8.543-16.491,14.1l-6.054,2.191-5.013-4.085c-10.2-9.4-11.894-16.578-10.995-18.707s3.531-1.164,5.627-.013,4.376,2.836,4.789,2.431.479-.907-.11-1.856-6.14-9.516-4.285-13.052,9.046.8,10.175,1.159,1.211-.751.955-1.406-3.167-8.044-4.615-11.358-1.472-5.862.44-7.1c1.844-1.194,4.451,1.517,5.984,2.285s2.118-1.3,2.118-1.3a112.238,112.238,0,0,1,1.828-14.79c1.688-9.542,5.935-8.261,5.935-8.261"/><path class="e" d="M4699.718,774.649a.9.9,0,0,1-.019.176l-.078.513c-.076.465-.185,1.125-.324,1.968-.291,1.722-.708,4.189-1.222,7.232-1.009,6.123-2.4,14.558-3.936,23.875-1.52,9.33-2.935,17.77-4.01,23.869-.547,3.038-.99,5.5-1.3,7.219-.159.84-.284,1.5-.371,1.959-.043.214-.077.382-.1.509a1.017,1.017,0,0,1-.044.172.975.975,0,0,1,.018-.177c.02-.128.046-.3.078-.512.077-.465.186-1.125.325-1.968.291-1.722.707-4.189,1.221-7.232,1.031-6.106,2.418-14.549,3.937-23.879s2.934-17.765,4.009-23.865c.547-3.037.991-5.5,1.3-7.219.159-.84.283-1.5.371-1.96.043-.213.077-.381.1-.508A.9.9,0,0,1,4699.718,774.649Z"/><path class="e" d="M4704.169,794.711a13.278,13.278,0,0,1-1.295,1.15l-3.17,2.716c-1.236,1.063-2.364,2.019-3.2,2.685-.42.333-.765.595-1.009.769a1.693,1.693,0,0,1-.4.247,15.778,15.778,0,0,1,1.292-1.151l3.152-2.74c1.237-1.063,2.377-2,3.221-2.662.422-.329.767-.59,1.012-.763A1.749,1.749,0,0,1,4704.169,794.711Z"/><path class="e" d="M4694.552,802.023c-.054.043-1.975-2.327-4.289-5.293s-4.146-5.4-4.092-5.447,1.974,2.327,4.289,5.294S4694.607,801.981,4694.552,802.023Z"/><path class="e" d="M4692.646,818.606a1.717,1.717,0,0,1-.421-.224c-.262-.157-.634-.4-1.09-.7-.908-.607-2.144-1.477-3.454-2.509s-2.454-2.022-3.257-2.763c-.4-.369-.721-.676-.937-.893a1.792,1.792,0,0,1-.317-.356,14.023,14.023,0,0,1,1.371,1.117c.831.7,1.985,1.673,3.294,2.7s2.521,1.919,3.4,2.561A14.19,14.19,0,0,1,4692.646,818.606Z"/><path class="e" d="M4702.8,813.907a10.485,10.485,0,0,1-1.454.747c-.911.433-2.177,1.014-3.581,1.643s-2.683,1.184-3.613,1.575a10.362,10.362,0,0,1-1.525.586,10.621,10.621,0,0,1,1.453-.747c.912-.432,2.178-1.014,3.583-1.642s2.681-1.185,3.611-1.576A10.735,10.735,0,0,1,4702.8,813.907Z"/><path class="e" d="M4702.977,828.761a2.429,2.429,0,0,1-.5.269l-1.387.648c-1.176.537-2.807,1.263-4.615,2.051s-3.451,1.489-4.645,1.985l-1.419.575a2.411,2.411,0,0,1-.534.18,2.458,2.458,0,0,1,.5-.269l1.387-.648c1.175-.537,2.807-1.263,4.615-2.052s3.45-1.488,4.644-1.984l1.419-.575A2.42,2.42,0,0,1,4702.977,828.761Z"/><path class="e" d="M4690.157,834.244a2.742,2.742,0,0,1-.513-.317c-.321-.217-.778-.542-1.338-.95-1.118-.819-2.639-1.982-4.265-3.335s-3.053-2.631-4.062-3.58c-.506-.474-.907-.865-1.18-1.141a.3.3,0,1,1,.066-.071l1.233,1.081c1.037.915,2.478,2.172,4.1,3.519s3.124,2.532,4.213,3.386l1.289,1.013A2.864,2.864,0,0,1,4690.157,834.244Z"/></g><g transform="translate(-4502 -519)"><path class="d" d="M4525.553,827.3a9.074,9.074,0,0,1,5.628-.684,4.677,4.677,0,0,1,2.781,1.242,2,2,0,0,1,.029,2.776,2.67,2.67,0,0,1-1.754.445c-1.487-.018-3.138-.28-4.327.616-.678.51-1.13,1.359-1.941,1.611a1.919,1.919,0,0,1-2.109-.939,3.275,3.275,0,0,1-.239-2.418A3.693,3.693,0,0,1,4525.553,827.3Z"/><path class="d" d="M4521.63,819.724c1.047,1.495,3.082,1,4.025.088a7.6,7.6,0,0,0,1.705-3.5c.83-2.882,1.666-5.906,1.049-8.841a4.906,4.906,0,0,0-1.129-2.4,2.566,2.566,0,0,0-2.432-.81,3.756,3.756,0,0,0-2.124,2.232,21.074,21.074,0,0,0-2.083,9.044,7.309,7.309,0,0,0,.989,4.187"/><path class="d" d="M4518.755,821.87a5.443,5.443,0,0,0,.847-5.007,9.654,9.654,0,0,0-2.966-4.3,15.976,15.976,0,0,0-5.31-3.133,5.669,5.669,0,0,0-2.388-.406,2.505,2.505,0,0,0-2,1.213c-.559,1.066-.024,2.359.556,3.413a40.425,40.425,0,0,0,3.488,5.312,9.446,9.446,0,0,0,3.836,3.286c1.593.609,3.248.537,4.093-.568"/><path class="e" d="M4521.559,842.28a3.277,3.277,0,0,0,.095-.679c.048-.495.108-1.116.18-1.855a27.194,27.194,0,0,1,.417-2.719,21.014,21.014,0,0,1,.989-3.211,11.823,11.823,0,0,1,1.639-2.9,6.124,6.124,0,0,1,2.073-1.723,5.751,5.751,0,0,1,1.745-.543,3.319,3.319,0,0,0,.676-.1,3.108,3.108,0,0,0-.688-.011,5.267,5.267,0,0,0-1.82.474,6.109,6.109,0,0,0-2.186,1.737,11.543,11.543,0,0,0-1.7,2.963,19.692,19.692,0,0,0-.982,3.263,22.8,22.8,0,0,0-.361,2.754c-.059.788-.081,1.425-.092,1.866A3.2,3.2,0,0,0,4521.559,842.28Z"/><path class="e" d="M4521.687,840.853a1.3,1.3,0,0,0,.018-.315l0-.9c0-.782,0-1.914.04-3.312.069-2.8.31-5.806.775-10.049.44-3.99,1.031-8.633,1.655-11.651.134-.687.269-1.305.4-1.846s.225-1.009.324-1.388c.086-.356.155-.646.211-.876a1.4,1.4,0,0,0,.055-.311,1.278,1.278,0,0,0-.109.3l-.262.864c-.116.374-.235.839-.371,1.379s-.29,1.155-.437,1.84a102.539,102.539,0,0,0-1.74,10.812c-.466,4.251-.676,8.123-.694,10.926-.017,1.4.013,2.536.049,3.319l.055.9A1.256,1.256,0,0,0,4521.687,840.853Z"/><path class="e" d="M4521.706,833.387a6.052,6.052,0,0,0-.007-.942c-.035-.6-.118-1.48-.288-2.552a33.885,33.885,0,0,0-.83-3.717,30.444,30.444,0,0,0-1.555-4.4,23.426,23.426,0,0,0-4.565-7.109,11.661,11.661,0,0,0-1.074-1c-.165-.139-.31-.278-.459-.388l-.416-.287a6.2,6.2,0,0,0-.793-.508,28.255,28.255,0,0,1,2.6,2.319,24.682,24.682,0,0,1,4.451,7.082,34.893,34.893,0,0,1,1.563,4.359,37.406,37.406,0,0,1,.883,3.68c.2,1.061.307,1.927.375,2.527A5.943,5.943,0,0,0,4521.706,833.387Z"/></g><g transform="translate(-4502 -519)"><path class="f" d="M4760.872,789.028l1.51-4.406,2.2-.475,3.362,3.544.265,10.067-2.14.669Z"/><path class="e" d="M4780.15,842.28l-16.416-61.334a1.179,1.179,0,0,0-1.453-.833h0a1.09,1.09,0,0,0-.745,1.343l16.284,60.9"/></g><g transform="translate(-4502 -519)"><path class="e" d="M4801.505,800.068l-9.561,42.212h5.768l9.722-40.686Z"/><path class="e" d="M4824.893,802.551c0,.436,8.724,39.729,8.724,39.729h5.414l-9.776-42.212Z"/><path class="e" d="M4841.889,792.383c.151.436,23.314,49.9,23.314,49.9h6l-25.852-53.238Z"/><ellipse class="e" cx="38.609" cy="33.052" rx="38.609" ry="33.052" transform="matrix(0.53, -0.848, 0.848, 0.53, 4775.256, 789.147)"/><ellipse class="c" cx="37.514" cy="31.036" rx="37.514" ry="31.036" transform="matrix(0.516, -0.857, 0.857, 0.516, 4776.155, 788.913)"/><path class="e" d="M4816.583,808.97a27.156,27.156,0,0,1-11.953-2.7,27.575,27.575,0,0,1-13.985-16.476c-3.147-9.543-1.962-20.749,3.252-30.742,9.632-18.459,30.115-27.324,45.658-19.759a27.575,27.575,0,0,1,13.985,16.476c3.147,9.544,1.962,20.749-3.252,30.742l-.254-.132.254.132C4842.992,800.492,4829.468,808.97,4816.583,808.97Zm11.012-71.813c-12.676,0-26,8.366-33.191,22.157-5.143,9.857-6.315,20.9-3.216,30.3a27.013,27.013,0,0,0,13.692,16.141c15.27,7.428,35.412-1.321,44.9-19.509h0c5.143-9.857,6.315-20.9,3.217-30.3a27.009,27.009,0,0,0-13.692-16.142A26.608,26.608,0,0,0,4827.6,737.157Z"/><ellipse class="d" cx="12.277" cy="9.138" rx="12.277" ry="9.138" transform="translate(4808.088 778.444) rotate(-60.452)"/><path class="d" d="M4817.569,796.117a15.409,15.409,0,0,1-7.231-1.735,15.82,15.82,0,0,1-7.771-9.871c-1.864-6.323-.737-13.844,3.091-20.634,6.689-11.864,19.647-17.563,28.887-12.7a15.819,15.819,0,0,1,7.771,9.871c1.864,6.323.737,13.844-3.091,20.635C4834.157,790.668,4825.49,796.117,4817.569,796.117Zm9.629-42.137c-6.253,0-13.315,4.628-17.553,12.145-3.177,5.635-4.182,12.024-2.689,17.092a11.351,11.351,0,0,0,5.512,7.115c7.07,3.718,17.285-1.171,22.77-10.9,3.177-5.636,4.182-12.025,2.688-17.093a11.346,11.346,0,0,0-5.511-7.114A11.1,11.1,0,0,0,4827.2,753.98Z"/><path class="d" d="M4816.6,805.152a23.75,23.75,0,0,1-11.663-2.951,24.1,24.1,0,0,1-11.384-15.1c-2.358-8.807-.652-18.976,4.683-27.9,9.669-16.172,28.383-23.281,41.72-15.845a24.1,24.1,0,0,1,11.384,15.1c2.359,8.807.652,18.977-4.683,27.9C4839.587,798.174,4827.691,805.152,4816.6,805.152Zm11.616-60.2c-9.493,0-19.833,6.192-26.051,16.6-4.7,7.868-6.231,16.75-4.191,24.368a19.308,19.308,0,0,0,9.192,12.288c11.195,6.242,27.15-.124,35.563-14.2,4.7-7.867,6.231-16.749,4.19-24.368a18.872,18.872,0,0,0-18.7-14.686Z"/><path class="e" d="M4821.954,769.633a1.853,1.853,0,0,1,.448.965,3.531,3.531,0,0,1-.376,2.535,3.723,3.723,0,0,1-1.984,1.624,1.926,1.926,0,0,1-1.052.148c-.006-.05.4-.091.975-.344a3.912,3.912,0,0,0,1.8-1.577,3.658,3.658,0,0,0,.427-2.347C4822.1,770.014,4821.908,769.656,4821.954,769.633Z"/></g><g transform="translate(-4502 -519)"><path class="f" d="M4542.783,692.678l-.036-3.507,1.445-.891,3.278,1.669,2.721,7.079-1.351,1.013Z"/><path class="e" d="M4569.863,725.626l-27.082-39.4a.888.888,0,0,0-1.241-.226h0a.821.821,0,0,0-.191,1.141l26.879,39.127"/><path class="f" d="M4552.91,692.825l.951-3.12,1.532-.385,2.439,2.4.428,7.041-1.482.52Z"/><path class="e" d="M4567.689,729.638l-12.971-42.54a.826.826,0,0,0-1.037-.548h0a.765.765,0,0,0-.489.959l12.868,42.237"/><path class="f" d="M4551.136,706.193l21.738,37.081a7.183,7.183,0,0,0,10.191,2.337h0a7.183,7.183,0,0,0,2.119-9.738l-23.147-37.547Z"/><path class="e" d="M4551.136,706.193s4.486,3.74,8.655.822,2.246-8.689,2.246-8.689Z"/><path class="f" d="M4564.655,704.695l25.2-37.262,3.123-.038-27.767,40.123Z"/><path class="g" d="M4648.988,671.381h0a3.132,3.132,0,0,0-2.491,1.254,3.206,3.206,0,0,1-1.573,1.321c-1.127.214-3.14.539-3.14.539l-.315,6.679,7.353-.311,6.859-1.859s4.284-.044,5.012-.107c.774-.068.842-.93-.518-.935a15.749,15.749,0,0,1-2.967-.634s3.569-.358,4.017-.781.366-.79-.124-.846c-.959-.109-4.074.166-4.3,0S4648.988,671.381,4648.988,671.381Z"/><path class="d" d="M4614.578,826.28l-.248,10.2s10.287,3.678,10.424,5.568l-19.8.23-.267-15.911Z"/><path class="a" d="M4608.2,835.7a.81.81,0,0,0-.548.93.777.777,0,0,0,.916.551.853.853,0,0,0,.576-.987.807.807,0,0,0-1.017-.468"/><path class="a" d="M4604.957,842.28l-.027-1.606,19.031.381s.886.373.793.995Z"/><path class="e" d="M4614.65,836.378c0,.1-.485.146-.957.462s-.721.726-.81.689c-.089-.018.048-.6.626-.971S4614.67,836.289,4614.65,836.378Z"/><path class="e" d="M4616.737,837.212c.023.094-.394.263-.718.676s-.413.846-.509.843c-.091.016-.165-.549.248-1.055S4616.733,837.12,4616.737,837.212Z"/><path class="e" d="M4617.945,839.684c-.088.021-.228-.46.014-.992s.692-.749.734-.668-.235.366-.427.806S4618.041,839.673,4617.945,839.684Z"/><path class="e" d="M4614.448,834.046c-.039.089-.484-.039-1.03,0s-.97.221-1.021.139.354-.432,1-.474S4614.5,833.97,4614.448,834.046Z"/><path class="e" d="M4614.46,831.987a1.858,1.858,0,0,1-.991.007,4.454,4.454,0,0,1-1.041-.307,4.557,4.557,0,0,1-.573-.295,1.224,1.224,0,0,1-.3-.23.423.423,0,0,1-.051-.514.534.534,0,0,1,.422-.226,1.325,1.325,0,0,1,.372.047,3.534,3.534,0,0,1,.619.205,3.474,3.474,0,0,1,.921.589c.464.42.625.779.593.8s-.271-.267-.742-.613a3.97,3.97,0,0,0-.891-.488,3.7,3.7,0,0,0-.571-.169c-.21-.052-.389-.052-.441.042-.019.036-.022.05.023.111a1,1,0,0,0,.222.168,5.274,5.274,0,0,0,.527.293,5.5,5.5,0,0,0,.963.356A6.929,6.929,0,0,1,4614.46,831.987Z"/><path class="e" d="M4614.336,832.127a1.572,1.572,0,0,1-.272-.954,3.187,3.187,0,0,1,.122-1.087,3.241,3.241,0,0,1,.246-.6.817.817,0,0,1,.626-.508.464.464,0,0,1,.418.271,1.354,1.354,0,0,1,.106.363,2.189,2.189,0,0,1,.008.667,2.286,2.286,0,0,1-.411,1.03c-.381.517-.783.637-.792.6-.033-.048.3-.239.592-.735a2.293,2.293,0,0,0,.3-.936,2.064,2.064,0,0,0-.025-.572c-.033-.21-.114-.379-.193-.357-.1,0-.264.16-.343.329a3.347,3.347,0,0,0-.239.54,3.588,3.588,0,0,0-.181.992C4614.281,831.751,4614.389,832.112,4614.336,832.127Z"/><path class="d" d="M4562.542,823.829l-3.157,12.529-5.355,9.189a1.325,1.325,0,0,0,.557,1.853h0a1.317,1.317,0,0,0,1.212-.02c2.4-1.3,11.225-6.113,11.4-7.042.209-1.077,4.208-12.995,4.208-12.995Z"/><path class="a" d="M4554.587,847.4l12.849-7.9-.146.528a1.989,1.989,0,0,1-.8,1.119c-1.047.711-3.983,2.61-10.654,6.247a1.322,1.322,0,0,1-1.249.009Z"/><path class="a" d="M4565.991,834.774a.8.8,0,0,0-.49.949.769.769,0,0,0,.937.494.845.845,0,0,0,.514-1.008.8.8,0,0,0-1.032-.406"/><path class="e" d="M4558.938,842.746a2.854,2.854,0,0,0-2.182-1.941c0-.034.182-.087.484-.048a2.112,2.112,0,0,1,1.688,1.5C4559,842.555,4558.971,842.744,4558.938,842.746Z"/><path class="e" d="M4557.59,844.168c-.075.037-.362-.478-.955-.841a10.79,10.79,0,0,0-1.173-.492,1.463,1.463,0,0,1,1.323.252C4557.459,843.5,4557.664,844.152,4557.59,844.168Z"/><path class="e" d="M4561.18,841.065a6.805,6.805,0,0,0-3.115-2.338,3.618,3.618,0,0,1,3.115,2.338Z"/><path class="e" d="M4562.458,837.336c-.054.066-.663-.412-1.549-.692s-1.655-.26-1.661-.345a3.285,3.285,0,0,1,3.21,1.037Z"/><path class="e" d="M4563.477,833.682a4.205,4.205,0,0,0-3.358-.8c-.014-.031.166-.15.5-.237a2.884,2.884,0,0,1,2.522.6C4563.4,833.473,4563.5,833.66,4563.477,833.682Z"/><path class="e" d="M4562.1,832.229a1.105,1.105,0,0,1,.113-.475,3.4,3.4,0,0,1,.716-1.131,1.5,1.5,0,0,1,.813-.52.532.532,0,0,1,.547.274.862.862,0,0,1,.041.616,1.87,1.87,0,0,1-2.041,1.232,2.171,2.171,0,0,1-1.753-1.662.757.757,0,0,1,.133-.614.522.522,0,0,1,.6-.12,1.843,1.843,0,0,1,.7.653,3.808,3.808,0,0,1,.583,1.2,1.158,1.158,0,0,1,.072.484,6.01,6.01,0,0,0-.815-1.565,1.718,1.718,0,0,0-.626-.554.279.279,0,0,0-.327.063.516.516,0,0,0-.064.409,1.937,1.937,0,0,0,1.536,1.423,1.623,1.623,0,0,0,1.748-1.02.633.633,0,0,0-.01-.432.287.287,0,0,0-.3-.155,1.357,1.357,0,0,0-.7.428A5.025,5.025,0,0,0,4562.1,832.229Z"/><path class="e" d="M4574.155,649.621a23.309,23.309,0,0,1-1.349-3.568,6.368,6.368,0,0,1-.164-3.223,2.259,2.259,0,0,1,2.4-1.542,5.455,5.455,0,0,1,3.048-4.354,13.92,13.92,0,0,1,5.192-1.49,4.455,4.455,0,0,1,1.965.2,2.5,2.5,0,0,1,1.209,1.24,4.331,4.331,0,0,1,3.825-.712c1.446.355,3.107,1.09,3.771,2.423a4.213,4.213,0,0,1,.194,3.184c-.258.885-1.152,2.287-2.024,1.987"/><path class="g" d="M4575.579,674.123l12.964-.595c.074-1.375-.628-9.886-.628-9.886s4.9-.762,4.96-5.661-.788-16.15-.788-16.15h0a17.025,17.025,0,0,0-17.11,2.151l-.727.558Z"/><path class="h" d="M4587.915,663.642a11.839,11.839,0,0,1-6.38-1.886s1.586,3.516,6.475,3.075Z"/><path class="g" d="M4574.854,649.615c-.083-.036-3.366-.995-3.259,2.354s3.448,2.551,3.45,2.455S4574.854,649.615,4574.854,649.615Z"/><path class="h" d="M4573.982,653.188c-.015-.01-.058.043-.155.091a.581.581,0,0,1-.435.023,1.446,1.446,0,0,1-.71-1.274,1.921,1.921,0,0,1,.137-.841.676.676,0,0,1,.424-.462.3.3,0,0,1,.35.149c.048.092.028.16.046.165s.071-.058.039-.2a.372.372,0,0,0-.138-.205.439.439,0,0,0-.326-.075.821.821,0,0,0-.593.538,1.985,1.985,0,0,0-.172.941,1.515,1.515,0,0,0,.9,1.419.626.626,0,0,0,.531-.106C4573.978,653.269,4573.993,653.194,4573.982,653.188Z"/><path class="e" d="M4573.987,644.317a35.506,35.506,0,0,0,0,4.42c.038.211.587.777.636.987.288,1.241.8,1.773,1.541.493a11.206,11.206,0,0,0,.576-2.417q.446-2.262.892-4.524a7.813,7.813,0,0,0,3.724.883,3.806,3.806,0,0,0,3.184-1.878,3.951,3.951,0,0,0,6.131.8,1.65,1.65,0,0,0,2.182.466,1.961,1.961,0,0,0,.8-2.162c-.338-1.2-1.618-1.844-2.81-2.194-4.659-1.371-9.812-.3-14,2.161a7.15,7.15,0,0,0-1.691,1.274c-.478.523-1.142,1.138-1.162,1.846"/><path class="f" d="M4577.512,644.453a2.408,2.408,0,0,0-.757.14,2.59,2.59,0,0,0-.687.468c-.233.213-.464.493-.743.766a2.456,2.456,0,0,1-.937.622,1.7,1.7,0,0,1-.927.036c-.522-.132-.735-.412-.71-.43a5.418,5.418,0,0,0,.748.23,1.639,1.639,0,0,0,.8-.086,2.432,2.432,0,0,0,.824-.577c.266-.26.5-.537.768-.76a2.4,2.4,0,0,1,.791-.459C4577.206,644.235,4577.535,644.429,4577.512,644.453Z"/><path class="f" d="M4576.977,645.931a1.482,1.482,0,0,0-.525.249,2.706,2.706,0,0,0-.414.495,2.285,2.285,0,0,1-2.139.97c-.4-.051-.618-.2-.6-.225s.245.026.616.022a2.522,2.522,0,0,0,1.347-.4c.471-.283.7-.8,1.075-1.027S4577,645.9,4576.977,645.931Z"/><path class="f" d="M4589.654,636.084c0-.015.157-.045.431.03a1.874,1.874,0,0,1,.961.685,4.487,4.487,0,0,1,.368,3.769,5.309,5.309,0,0,1-2.324,3.009,4.735,4.735,0,0,1-1.06.485,1.032,1.032,0,0,1-.42.081,14.147,14.147,0,0,0,1.37-.736,5.434,5.434,0,0,0,2.159-2.923,4.508,4.508,0,0,0-.258-3.567,1.924,1.924,0,0,0-.833-.7C4589.805,636.118,4589.652,636.108,4589.654,636.084Z"/><path class="f" d="M4593.759,638.015a2.119,2.119,0,0,1-.018.945,5.84,5.84,0,0,1-2.387,3.792,2.145,2.145,0,0,1-.844.425,7.5,7.5,0,0,0,3.249-5.162Z"/><path class="d" d="M4619.964,671.537c-9.3-.636-15.59-2.037-21.1-2.919s-9.866-1.269-9.866-1.269l4.728,8.6,6.613,11.223c-.733-2.6,1.308-4.693,2.705-4.751,1.534-.063,41.824.072,41.824.072l-.83-9.485Z"/><path class="d" d="M4568.566,686.184l4.165,18.208-1.539,16.616,34.083-.173-4.695-36.668-11.586-17.028-24.339,1.657Z"/><path class="d" d="M4588.994,667.138l-.633-2.259-13.315.507v2.906Z"/><path class="d" d="M4572.207,679.64l4.468-.14,0-10.412-12.024-1.131s-16.248-1.318-19.575-1.211-8.167,1.552-8.183,7.164c-.024,7.95,25.306,11.676,32.333,13.868"/><path class="e" d="M4575.975,669.088a3.918,3.918,0,0,1,.086.612c.043.433.1,1.014.173,1.738.136,1.536.324,3.674.55,6.24l.012.136-.138,0-10.55-.172-13.56-.3-4.108-.124-1.117-.049a.2.2,0,1,1,0-.06l1.118-.007,4.11.029,13.562.21,10.549.222-.126.134c-.184-2.569-.336-4.71-.446-6.249-.043-.726-.078-1.308-.1-1.743A3.71,3.71,0,0,1,4575.975,669.088Z"/><path class="e" d="M4569.638,679.273a1.784,1.784,0,0,1,.165.842,5.294,5.294,0,0,1-1.434,3.809c-.373.383-.659.552-.68.524a7.1,7.1,0,0,0,1.949-5.175Z"/><path class="e" d="M4601.452,690.979a11.133,11.133,0,0,1-.31-1.728c-.16-1.07-.376-2.548-.644-4.176s-.545-3.1-.769-4.152a13.833,13.833,0,0,1-.337-1.721,8.122,8.122,0,0,1,.542,1.672c.278,1.05.589,2.519.858,4.152s.453,3.12.559,4.2A9.562,9.562,0,0,1,4601.452,690.979Z"/><path class="i" d="M4602.325,696.086a6.43,6.43,0,0,0-1.137-.651,6.013,6.013,0,0,0-3.5-.213,16.026,16.026,0,0,0-4.805,2.214,19.712,19.712,0,0,1-2.833,1.444,12.662,12.662,0,0,1-3.324.818,13.337,13.337,0,0,1-6.5-.882,16.253,16.253,0,0,1-2.548-1.343,21.977,21.977,0,0,0-2.157-1.222,5.911,5.911,0,0,0-3.453-.614,5.156,5.156,0,0,0-1.241.41,1.3,1.3,0,0,1,.287-.19,3.433,3.433,0,0,1,.933-.334,5.86,5.86,0,0,1,3.562.536,21.409,21.409,0,0,1,2.2,1.2,16.466,16.466,0,0,0,2.522,1.3,13.245,13.245,0,0,0,6.367.841,12.537,12.537,0,0,0,3.251-.794,19.925,19.925,0,0,0,2.8-1.41,15.75,15.75,0,0,1,4.9-2.182,5.955,5.955,0,0,1,3.589.312,3.853,3.853,0,0,1,.843.519A1.528,1.528,0,0,1,4602.325,696.086Z"/><path class="e" d="M4591.792,708.686a2.761,2.761,0,0,1-.7,0,12.184,12.184,0,0,1-1.879-.294,13.722,13.722,0,0,1-9.394-7.742,12.045,12.045,0,0,1-.647-1.788,2.714,2.714,0,0,1-.138-.684c.055-.017.281.954.976,2.383a14.319,14.319,0,0,0,9.254,7.626C4590.8,708.593,4591.8,708.629,4591.792,708.686Z"/><path class="i" d="M4603.971,712.3c-.017.031-.415-.238-1.219-.517a8.267,8.267,0,0,0-3.548-.334,16.094,16.094,0,0,0-5.1,1.519,58.405,58.405,0,0,1-6.039,2.665,13.428,13.428,0,0,1-6.578.409,22.73,22.73,0,0,1-5.144-1.635c-1.407-.62-2.5-1.214-3.248-1.631-.376-.206-.662-.377-.856-.493a1.461,1.461,0,0,1-.287-.191,1.5,1.5,0,0,1,.316.139l.881.443c.765.384,1.869.948,3.277,1.539a23.4,23.4,0,0,0,5.107,1.558,13.329,13.329,0,0,0,6.442-.422,62.189,62.189,0,0,0,6.017-2.632,15.872,15.872,0,0,1,5.188-1.478,8.031,8.031,0,0,1,3.606.435,5.2,5.2,0,0,1,.893.432A1.52,1.52,0,0,1,4603.971,712.3Z"/><path class="i" d="M4600.563,684.682a1.4,1.4,0,0,1-.276.2,7.2,7.2,0,0,1-.852.466,9.9,9.9,0,0,1-3.468.81,18.672,18.672,0,0,1-5.257-.515c-1.944-.433-4.022-1.106-6.252-1.565a18.48,18.48,0,0,0-3.285-.4,13.247,13.247,0,0,0-3.057.285,20.533,20.533,0,0,0-4.9,1.795c-1.338.667-2.382,1.286-3.111,1.7l-.839.477a1.58,1.58,0,0,1-.3.151,1.4,1.4,0,0,1,.271-.2l.811-.525c.711-.445,1.741-1.092,3.075-1.788a20.058,20.058,0,0,1,4.94-1.876,13.362,13.362,0,0,1,3.121-.308,18.476,18.476,0,0,1,3.337.4c2.254.464,4.33,1.146,6.254,1.589a19.083,19.083,0,0,0,5.185.572,10.379,10.379,0,0,0,3.433-.706C4600.158,684.912,4600.546,684.653,4600.563,684.682Z"/><path class="i" d="M4563.818,677.418a3.743,3.743,0,0,1,0,1.367,8.43,8.43,0,0,1-3.27,5.593,3.777,3.777,0,0,1-1.189.674c-.025-.045.424-.306,1.058-.839a9.456,9.456,0,0,0,3.193-5.461C4563.759,677.938,4563.767,677.418,4563.818,677.418Z"/><path class="i" d="M4557.277,667.4c.042.034-.335.48-.773,1.295a9.206,9.206,0,0,0-.688,7c.271.886.554,1.4.506,1.421-.018.011-.1-.109-.236-.337a5.791,5.791,0,0,1-.47-1.017,8.485,8.485,0,0,1,.7-7.167,5.954,5.954,0,0,1,.659-.907C4557.157,667.483,4557.261,667.381,4557.277,667.4Z"/><path class="i" d="M4543.024,680.218a2.075,2.075,0,0,1-.263-.5,4.974,4.974,0,0,1-.249-.613,8.334,8.334,0,0,1-.269-.834,12.443,12.443,0,0,1-.408-2.247,13.109,13.109,0,0,1,.7-5.521,12.465,12.465,0,0,1,.956-2.075,8.473,8.473,0,0,1,.467-.741,5.31,5.31,0,0,1,.393-.531c.229-.282.363-.431.379-.418.046.035-.456.661-1.055,1.792a14.068,14.068,0,0,0-.88,2.062,13.938,13.938,0,0,0-.687,5.411,14.023,14.023,0,0,0,.338,2.216C4542.746,679.465,4543.077,680.2,4543.024,680.218Z"/><path class="i" d="M4571.256,668.362a5.107,5.107,0,0,1,.176,1.294,30.01,30.01,0,0,1-.24,6.283,5.049,5.049,0,0,1-.274,1.276,6.561,6.561,0,0,1,.065-1.3c.066-.8.149-1.9.2-3.122s.046-2.326.041-3.128A6.439,6.439,0,0,1,4571.256,668.362Z"/><g class="j"><path d="M4548.745,677.133a46.045,46.045,0,0,0,23.007,2.417c1.588-.273,3.314-.546,4.223-1.876"/></g><path class="i" d="M4602.68,669.3a1.084,1.084,0,0,1-.12.268c-.086.172-.22.422-.413.732a13.19,13.19,0,0,1-1.918,2.428,10.975,10.975,0,0,1-3.846,2.5,9.768,9.768,0,0,1-2.667.581,12.119,12.119,0,0,1-2.921-.172,47.241,47.241,0,0,1-5.415-1.469,20.145,20.145,0,0,0-4.445-.885,9.559,9.559,0,0,0-3.031.253c-.7.19-1.062.365-1.075.336a1.107,1.107,0,0,1,.258-.14,6.207,6.207,0,0,1,.785-.308,9.05,9.05,0,0,1,3.074-.351,19.388,19.388,0,0,1,4.511.831,50.633,50.633,0,0,0,5.388,1.439,12.032,12.032,0,0,0,2.85.175,9.636,9.636,0,0,0,2.594-.548,11.024,11.024,0,0,0,3.794-2.394,14.6,14.6,0,0,0,1.966-2.339C4602.46,669.639,4602.655,669.285,4602.68,669.3Z"/><path class="i" d="M4588.882,665.708a2.007,2.007,0,0,1-.525.2c-.344.111-.844.263-1.473.414a11.763,11.763,0,0,1-2.258.334,13.164,13.164,0,0,1-2.783-.244c-.971-.17-1.886-.359-2.724-.447a9.356,9.356,0,0,0-2.226,0,7.588,7.588,0,0,0-1.964.6,1.523,1.523,0,0,1,.466-.32,5.07,5.07,0,0,1,1.465-.487,8.708,8.708,0,0,1,2.286-.068c.859.075,1.783.258,2.748.426a14.029,14.029,0,0,0,2.724.264,13.057,13.057,0,0,0,2.221-.266C4588.1,665.864,4588.87,665.662,4588.882,665.708Z"/><path class="i" d="M4611.877,670.757a1.747,1.747,0,0,1,.082.506,8.921,8.921,0,0,1,.02,1.4,11.918,11.918,0,0,1-.29,2.055,12.624,12.624,0,0,1-2.106,4.6,11.755,11.755,0,0,1-1.365,1.564,8.813,8.813,0,0,1-1.07.9,1.737,1.737,0,0,1-.436.269c-.033-.044.553-.475,1.357-1.315a13.78,13.78,0,0,0,1.291-1.575,13.6,13.6,0,0,0,2.062-4.509,13.64,13.64,0,0,0,.347-2.006C4611.879,671.486,4611.822,670.761,4611.877,670.757Z"/><path class="i" d="M4624.916,671.792c.047.013-.1.6-.256,1.571a17.894,17.894,0,0,0,.423,7.563c.257.944.474,1.514.429,1.533a5.773,5.773,0,0,1-.631-1.472,15.008,15.008,0,0,1-.428-7.662A5.825,5.825,0,0,1,4624.916,671.792Z"/><path class="i" d="M4637.88,682.459a7.226,7.226,0,0,1-.044-1.431c0-.989.007-2.154.012-3.442-.013-1.288-.025-2.453-.035-3.442a7.345,7.345,0,0,1,.035-1.43,6.445,6.445,0,0,1,.176,1.421c.064.881.117,2.1.122,3.45s-.041,2.569-.1,3.451A6.4,6.4,0,0,1,4637.88,682.459Z"/><path class="e" d="M4604.554,716.519l12.588,116.044-14.927,1.147-12.826-101.456-15.482,100.789-16.088-2.345,13.988-113.784Z"/><path class="f" d="M4578.894,722.575a1.174,1.174,0,0,1-.011.426,5.8,5.8,0,0,1-.238,1.135,7.9,7.9,0,0,1-.675,1.587,8.6,8.6,0,0,1-2.89,3.044,7.948,7.948,0,0,1-1.549.757,5.807,5.807,0,0,1-1.121.3,1.179,1.179,0,0,1-.425.033c-.01-.055.585-.157,1.469-.526a8.894,8.894,0,0,0,1.477-.792,9.116,9.116,0,0,0,2.8-2.951,8.964,8.964,0,0,0,.713-1.515C4578.767,723.167,4578.839,722.568,4578.894,722.575Z"/><path class="f" d="M4589.828,721.751a50.332,50.332,0,0,1,0,7.738,50.332,50.332,0,0,1,0-7.738Z"/><path class="f" d="M4604.472,728.019a3.2,3.2,0,0,1-1.384-.165,6.019,6.019,0,0,1-4.31-4.81,3.2,3.2,0,0,1-.012-1.394c.051,0,.032.533.219,1.353a6.333,6.333,0,0,0,4.166,4.65C4603.946,727.928,4604.477,727.968,4604.472,728.019Z"/><path class="f" d="M4574.358,829.337a2.763,2.763,0,0,1-.649-.009c-.417-.024-1.018-.077-1.76-.157-1.483-.159-3.526-.449-5.76-.9s-4.231-.966-5.661-1.391c-.715-.211-1.291-.394-1.684-.533a2.687,2.687,0,0,1-.6-.242,2.778,2.778,0,0,1,.636.131l1.707.441c1.441.371,3.438.856,5.664,1.3s4.255.767,5.727.979l1.746.25A2.693,2.693,0,0,1,4574.358,829.337Z"/><path class="f" d="M4616.839,828.051c0,.046-.853.059-2.225.125s-3.266.206-5.341.491-3.936.666-5.275.975-2.163.526-2.176.482a2.361,2.361,0,0,1,.559-.221c.365-.125.9-.285,1.566-.466a43.7,43.7,0,0,1,10.66-1.471c.69-.007,1.249,0,1.634.024A2.33,2.33,0,0,1,4616.839,828.051Z"/><path class="f" d="M4569.7,716.134s28.172-40.1,22.452-48.739h2.315s1.991,2.514,0,10.023c-1.848,6.966-23.275,43.59-23.275,43.59Z"/><path class="e" d="M4618.329,745.61s-.073-.117-.2-.353-.323-.6-.571-1.053l-2.172-4.063-7.957-15c-6.708-12.706-15.99-30.288-26.308-49.83l-.031-.06.024-.063.981-2.566,20.82-54.344c2.675-6.943,4.841-12.562,6.341-16.456.753-1.934,1.337-3.438,1.738-4.469.2-.5.352-.889.459-1.159s.166-.392.166-.392-.042.139-.137.4l-.432,1.17c-.388,1.035-.956,2.545-1.686,4.488-1.479,3.9-3.614,9.533-6.252,16.49-5.31,13.921-12.64,33.142-20.739,54.375l-.981,2.566-.007-.122,26.227,49.872,7.875,15.046c.919,1.771,1.634,3.146,2.123,4.089l.546,1.066C4618.274,745.483,4618.329,745.61,4618.329,745.61Z"/><path class="g" d="M4575.975,669.088h4.445l3.7,1.691a2.076,2.076,0,0,1,1.087,1.177l1.324,3.641a2.029,2.029,0,0,1-1.3,2.627l-3.486-2.032c-.356.417-4.884,1.095-4.884,1.095Z"/><path class="g" d="M4576.331,669.088s5.37-1.3,5.542-1.361a14.988,14.988,0,0,0,1.058-1.117c.477-.514.893-.02.664.642,0,.008.068.487.065.495a13.691,13.691,0,0,1-1.3,2.227Z"/><path class="h" d="M4575.975,669.088a11.946,11.946,0,0,1,1.712-.473l1.863-.473a18.331,18.331,0,0,0,2.223-.69,1.054,1.054,0,0,0,.233-.128c.07-.056.144-.141.215-.209l.424-.425.208-.207.107-.1a.507.507,0,0,1,.163-.1.526.526,0,0,1,.722.564c-.013.09-.021.179-.038.265q-.044.261-.108.5a5.4,5.4,0,0,1-.308.86,4.9,4.9,0,0,1-.7,1.115c-.2.236-.335.344-.348.332a10.838,10.838,0,0,0,.853-1.53,5.548,5.548,0,0,0,.262-.837c.036-.153.066-.314.089-.48.014-.082.02-.167.03-.253a.267.267,0,0,0-.032-.173.261.261,0,0,0-.314-.1c-.051.017-.1.072-.173.149l-.206.209q-.207.213-.422.43c-.075.073-.135.146-.225.219a1.22,1.22,0,0,1-.307.179,15.73,15.73,0,0,1-2.282.686c-.706.17-1.346.3-1.884.412A9.457,9.457,0,0,1,4575.975,669.088Z"/><path class="h" d="M4585.86,674.2a2.373,2.373,0,0,1-.433-.958,4.335,4.335,0,0,0-1.091-2.133,10.407,10.407,0,0,0-2.145-1.205,2.285,2.285,0,0,1-.861-.6,9.622,9.622,0,0,1,.95.413c.294.124.651.258,1.045.433a4.585,4.585,0,0,1,1.211.742,4.051,4.051,0,0,1,1.095,2.3A8.294,8.294,0,0,1,4585.86,674.2Z"/><path class="h" d="M4586.577,676.609a7.27,7.27,0,0,1-.263-.969,6.532,6.532,0,0,0-2.822-3.708,7.39,7.39,0,0,1-.864-.511,2.284,2.284,0,0,1,.968.328,5.72,5.72,0,0,1,2.922,3.84A2.284,2.284,0,0,1,4586.577,676.609Z"/><path class="h" d="M4585.743,678.15a7.342,7.342,0,0,0-1.272-2.457,11.828,11.828,0,0,0-2.231-1.678,1.9,1.9,0,0,1,.806.261,5.227,5.227,0,0,1,1.648,1.219,4.38,4.38,0,0,1,.97,1.81A1.757,1.757,0,0,1,4585.743,678.15Z"/><path class="f" d="M4611.048,592.939a1.065,1.065,0,0,0-1.059,1.2c.426,3.176,2.13,11.789,8.34,15.46,7.688,4.544,25.637,21.841,28.391,40.058,2.913,19.275,2.951,25.27,2.951,25.27s3.918,38.25-16.025,55.86c-13.546,11.962-17.223,13.63-16.213,23.056h.9s-.9-6.9,8.025-14.053,15.115-13.578,19.692-21.537a58.056,58.056,0,0,0,6.3-22.84c.488-7.618,2.7-16.04,5.058-19.013l2.014-2.2s-6.306-5.908-7.4-10.649c-.95-4.132-3.227-19-4.634-23.087-2.521-7.321-5.778-11.149-9.536-16.665-2.4-3.516-12.412-12.68-18.427-16.5s-8.373-11.647-8.373-14.359Z"/><path class="e" d="M4655.9,672.941a1.4,1.4,0,0,1-.151.189c-.1.125-.266.295-.456.541a15.392,15.392,0,0,0-1.508,2.253,19.055,19.055,0,0,0-1.611,3.971,28.638,28.638,0,0,0-.97,5.6c-.176,2.1-.19,4.417-.205,6.9-.01,1.244-.023,2.531-.08,3.857-.023.664-.087,1.335-.144,2.015s-.1,1.373-.21,2.065a52.523,52.523,0,0,1-16.331,31.811c-.5.493-1.047.919-1.558,1.372s-1.029.884-1.554,1.29c-1.044.82-2.077,1.588-3.068,2.337a46.4,46.4,0,0,0-5.266,4.45,18.554,18.554,0,0,0-3.345,4.561,13.345,13.345,0,0,0-1.338,4.053,10.465,10.465,0,0,0-.064,2.7c.025.31.082.541.1.7a1.484,1.484,0,0,1,.029.241,8.426,8.426,0,0,1-.189-.932,10.019,10.019,0,0,1,.01-2.727,13.213,13.213,0,0,1,1.3-4.11,18.591,18.591,0,0,1,3.343-4.634,46.01,46.01,0,0,1,5.268-4.5c.989-.755,2.018-1.526,3.054-2.346.522-.407,1.033-.841,1.543-1.29s1.05-.877,1.545-1.368a52.625,52.625,0,0,0,16.246-31.644c.114-.689.151-1.377.215-2.053s.124-1.344.149-2.005c.062-1.32.08-2.6.1-3.847.025-2.486.052-4.808.243-6.92a28.342,28.342,0,0,1,1.019-5.625,18.732,18.732,0,0,1,1.67-3.98,14.164,14.164,0,0,1,1.563-2.236c.2-.24.372-.405.48-.522A1.431,1.431,0,0,1,4655.9,672.941Z"/><path class="e" d="M4610.682,593.42a1.63,1.63,0,0,1,.027.244l.054.716a18.476,18.476,0,0,0,.489,2.711,20.25,20.25,0,0,0,1.551,4.065,16.285,16.285,0,0,0,3.409,4.606,68.667,68.667,0,0,0,5.37,4.5c2,1.542,4.176,3.133,6.392,4.913a62.117,62.117,0,0,1,6.486,6.123,58.425,58.425,0,0,1,5.841,7.585,60.822,60.822,0,0,1,4.579,8.412,63.686,63.686,0,0,1,3,8.4,62.284,62.284,0,0,1,1.584,7.916c.317,2.51.465,4.858.738,6.983a30.85,30.85,0,0,0,1.162,5.65,17.926,17.926,0,0,0,1.781,3.965,13.617,13.617,0,0,0,1.663,2.19c.211.235.388.4.5.513a1.478,1.478,0,0,1,.169.178,7.147,7.147,0,0,1-.714-.649,12.765,12.765,0,0,1-1.718-2.171,17.713,17.713,0,0,1-1.842-3.974,30.586,30.586,0,0,1-1.212-5.675c-.287-2.131-.448-4.481-.775-6.979a62.511,62.511,0,0,0-1.6-7.874,63.818,63.818,0,0,0-3-8.357,60.867,60.867,0,0,0-4.562-8.367,58.578,58.578,0,0,0-5.807-7.552,62.5,62.5,0,0,0-6.442-6.1c-2.2-1.781-4.379-3.379-6.371-4.931a67.857,67.857,0,0,1-5.365-4.545,16.37,16.37,0,0,1-3.411-4.684,19.865,19.865,0,0,1-1.515-4.111,16.876,16.876,0,0,1-.437-2.735c-.021-.316-.02-.558-.025-.719A1.235,1.235,0,0,1,4610.682,593.42Z"/></g></g></svg>