<svg xmlns="http://www.w3.org/2000/svg" width="302.922" height="343.311" viewBox="0 0 302.922 343.311">
  <g id="Group_10068" data-name="Group 10068" transform="translate(18499.433 7349)">
    <g id="Group_10062" data-name="Group 10062" transform="translate(-18300.201 -7311.775) rotate(3)">
      <g id="Group_9692" data-name="Group 9692">
        <g id="Group_9691" data-name="Group 9691">
          <path id="Path_7118" data-name="Path 7118" d="M94.836.419s-9.72-4.791-17.93,18.045S66.126,54.2,66.126,54.2s-2.319,4.861-5.78,2.315-8.744-10.342-13.8-8.176c-5.244,2.247-6.266,8.548-4.1,17.341s6.218,28.232,6.578,29.989c.353,1.727-.32,4.423-2.955,3.067S27.524,83.617,21.448,91.559,25.443,123,26.494,125.592s.673,3.8-.516,4.627-6.1-4.3-10.788-8.03-10.774-7.228-13.9-2.353S-.683,143.158,20.5,170.671l10.651,12.1,15.93-2.926c33.707-8.339,46.088-22.064,46.681-27.823s-6.351-6.809-12.339-6.809-13.025.955-13.442-.432.041-2.57,2.477-3.943S95.409,127.35,95.6,117.352s-20.829-9.139-23.735-9.718-1.755-3.106-.4-4.238c1.376-1.153,16.647-13.845,23.818-19.375s10.3-11.1,7.591-16.119c-2.608-4.844-11.6-2.033-15.891-2.2S83.9,60.3,83.9,60.3s6.015-11.692,13.809-34.675S94.632.335,94.632.335" fill="#e0e0e0"/>
        </g>
      </g>
      <g id="Group_9695" data-name="Group 9695" transform="translate(22.38 20.857)">
        <g id="Group_9694" data-name="Group 9694">
          <g id="Group_9693" data-name="Group 9693">
            <path id="Path_7119" data-name="Path 7119" d="M65.069,0s-.039.169-.138.49c-.11.339-.261.811-.457,1.42-.419,1.266-1.025,3.1-1.8,5.45-1.569,4.731-3.888,11.559-6.786,19.985C50.1,44.2,41.9,67.418,32.772,93.03s-17.38,48.818-23.254,65.643c-2.925,8.4-5.292,15.2-6.937,19.931-.815,2.336-1.45,4.159-1.889,5.417-.216.6-.384,1.07-.5,1.4-.115.316-.188.473-.188.473s.039-.168.14-.49c.109-.339.26-.811.457-1.42.418-1.266,1.023-3.1,1.8-5.448,1.569-4.729,3.888-11.558,6.786-19.984,5.79-16.856,13.983-40.075,23.118-65.7s17.376-48.808,23.25-65.633c2.923-8.4,5.292-15.206,6.937-19.932.815-2.337,1.45-4.159,1.89-5.417l.5-1.406C65,.158,65.069,0,65.069,0Z" fill="#ebebeb"/>
          </g>
        </g>
      </g>
      <g id="Group_9698" data-name="Group 9698" transform="translate(53.495 59.538)">
        <g id="Group_9697" data-name="Group 9697">
          <g id="Group_9696" data-name="Group 9696">
            <path id="Path_7120" data-name="Path 7120" d="M0,0A5.238,5.238,0,0,1,.546,1.034c.322.678.758,1.671,1.285,2.9C2.879,6.4,4.241,9.844,5.676,13.669l3.636,9.806,1.12,2.964a5.3,5.3,0,0,1,.37,1.106,5.117,5.117,0,0,1-.55-1.03c-.319-.679-.755-1.673-1.269-2.91-1.026-2.476-2.343-5.935-3.776-9.76C3.779,10.08,2.49,6.675,1.5,4.07,1.051,2.9.671,1.906.366,1.11A5.168,5.168,0,0,1,0,0Z" fill="#ebebeb"/>
          </g>
        </g>
      </g>
      <g id="Group_9701" data-name="Group 9701" transform="translate(65.801 73.698)">
        <g id="Group_9700" data-name="Group 9700">
          <g id="Group_9699" data-name="Group 9699">
            <path id="Path_7121" data-name="Path 7121" d="M0,13.484c-.054-.128,6.918-3.248,15.573-6.97S31.29-.124,31.344,0s-6.917,3.247-15.573,6.97S.056,13.611,0,13.484Z" fill="#ebebeb"/>
          </g>
        </g>
      </g>
      <g id="Group_9704" data-name="Group 9704" transform="translate(50.003 120.954)">
        <g id="Group_9703" data-name="Group 9703">
          <g id="Group_9702" data-name="Group 9702">
            <path id="Path_7122" data-name="Path 7122" d="M0,4.932a5.542,5.542,0,0,1,1.173-.2l3.212-.4c2.71-.338,6.451-.821,10.559-1.506S22.755,1.411,25.429.852L28.6.195A5.47,5.47,0,0,1,29.774.008a5.44,5.44,0,0,1-1.131.375c-.736.21-1.807.494-3.137.814-2.658.648-6.356,1.446-10.48,2.123S7.147,4.435,4.423,4.683c-1.363.119-2.467.2-3.231.239A5.379,5.379,0,0,1,0,4.932Z" fill="#ebebeb"/>
          </g>
        </g>
      </g>
      <g id="Group_9707" data-name="Group 9707" transform="translate(33.371 103.332)">
        <g id="Group_9706" data-name="Group 9706">
          <g id="Group_9705" data-name="Group 9705">
            <path id="Path_7123" data-name="Path 7123" d="M0,0a4.727,4.727,0,0,1,.74.816L2.612,3.153C4.172,5.139,5.686,8.7,8.627,10.975c2.327,3.072,4.412,5.871,5.9,7.911q1.03,1.438,1.742,2.433a4.716,4.716,0,0,1,.585.933,4.67,4.67,0,0,1-.74-.815L14.245,19.1c-1.561-1.986-3.689-4.75-6.016-7.823s-4.411-5.869-5.9-7.91Q1.3,1.929.586.934A4.574,4.574,0,0,1,0,0Z" fill="#ebebeb"/>
          </g>
        </g>
      </g>
      <g id="Group_9710" data-name="Group 9710" transform="translate(15.083 135.73)">
        <g id="Group_9709" data-name="Group 9709">
          <g id="Group_9708" data-name="Group 9708">
            <path id="Path_7124" data-name="Path 7124" d="M0,0A7.593,7.593,0,0,1,.939,1.054L3.344,4.038C5.359,6.572,8.115,10.094,11.134,14s5.732,7.466,7.675,10.056l2.281,3.083a7.469,7.469,0,0,1,.781,1.172,7.728,7.728,0,0,1-.935-1.053l-2.407-2.985c-2.014-2.534-4.771-6.055-7.791-9.965S5.007,6.844,3.064,4.255C2.144,3.011,1.378,1.976.783,1.173A7.524,7.524,0,0,1,0,0Z" fill="#ebebeb"/>
          </g>
        </g>
      </g>
      <g id="Group_9713" data-name="Group 9713" transform="translate(36.623 155.939)">
        <g id="Group_9712" data-name="Group 9712">
          <g id="Group_9711" data-name="Group 9711">
            <path id="Path_7125" data-name="Path 7125" d="M0,7.279a8.565,8.565,0,0,1,1.48-.3l4.053-.649C8.954,5.782,13.678,5,18.866,3.993s9.868-2.031,13.247-2.8l4-.908A8.859,8.859,0,0,1,37.6.006a8.655,8.655,0,0,1-1.434.467c-.931.269-2.287.638-3.969,1.063-3.362.859-8.033,1.946-13.234,2.948s-9.94,1.737-13.378,2.2c-1.719.226-3.114.4-4.078.491A8.9,8.9,0,0,1,0,7.279Z" fill="#ebebeb"/>
          </g>
        </g>
      </g>
    </g>
    <g id="Group_10063" data-name="Group 10063" transform="translate(-18468.424 -7349)">
      <g id="Group_9664" data-name="Group 9664">
        <g id="Group_9663" data-name="Group 9663">
          <g id="Group_9662" data-name="Group 9662">
            <g id="Group_9661" data-name="Group 9661">
              <path id="Path_7112" data-name="Path 7112" d="M141.79,164.866c9.835-9.711,9.893-24.627,7.227-37.57-.445-2.16-.6-4.492-1.957-6.222s-3.994-2.62-5.784-1.372c-1.484,1.036-1.867,3.033-2.5,4.74a12.9,12.9,0,0,1-4.264,5.739c-1.261.955-2.9,1.686-4.394,1.167-2.051-.714-2.715-3.265-3.071-5.43q-.994-6.048-1.989-12.1a20.47,20.47,0,0,0-1.749-6.308,6.8,6.8,0,0,0-4.989-3.813c-2.155-.224-4.495,1.4-4.567,3.586a20.19,20.19,0,0,0,.4,2.7,2.306,2.306,0,0,1-.965,2.368,2.653,2.653,0,0,1-2.543-.587,29.173,29.173,0,0,1-6.49-6.907,40.43,40.43,0,0,0-6.186-7.216c-2.431-2.034-5.553-3.443-8.678-3.089s-6.1,2.828-6.36,6,2.043,5.969,4.4,8.105a48.953,48.953,0,0,0,11.682,7.858,4.025,4.025,0,0,1,1.988,1.519c.716,1.361-.4,3.025-1.747,3.742-1.519.812-3.3.944-4.947,1.429s-3.35,1.542-3.715,3.244c-.508,2.36,1.736,4.36,3.813,5.566a41.954,41.954,0,0,0,13.438,4.97,14.145,14.145,0,0,1,4.923,1.432c1.472.9,2.579,2.708,2.064,4.362s-2.419,2.484-4.138,2.459a29.262,29.262,0,0,1-5.052-1c-3.162-.614-6.962.246-8.426,3.139a6.938,6.938,0,0,0,.306,6.173,16,16,0,0,0,4.189,4.781,42.163,42.163,0,0,0,19.877,9.438c7.3,1.212,13.792.767,20.212-2.907" transform="translate(-82.906 -94.501)" fill="#ebebeb"/>
            </g>
          </g>
        </g>
      </g>
      <g id="Group_9669" data-name="Group 9669" transform="translate(2.637 2.556)">
        <g id="Group_9668" data-name="Group 9668">
          <g id="Group_9667" data-name="Group 9667">
            <g id="Group_9666" data-name="Group 9666">
              <g id="Group_9665" data-name="Group 9665">
                <path id="Path_7113" data-name="Path 7113" d="M85.778,97.286a1.505,1.505,0,0,0,.244.17l.74.462c.652.4,1.612,1,2.828,1.8a82.307,82.307,0,0,1,9.779,7.5c1.95,1.729,4.009,3.711,6.181,5.879s4.47,4.509,6.8,7.057a99.32,99.32,0,0,1,6.912,8.325c1.115,1.509,2.153,3.112,3.213,4.745l3.208,4.967a201.46,201.46,0,0,1,11.257,19.482,97.917,97.917,0,0,1,6.633,17.119,71.821,71.821,0,0,1,2.29,12.173c.132,1.458.213,2.593.241,3.365.02.368.036.658.047.876a1.776,1.776,0,0,0,.029.3,1.582,1.582,0,0,0,.012-.3c0-.218,0-.509-.006-.878,0-.773-.057-1.911-.166-3.376a68.559,68.559,0,0,0-2.17-12.234,96.288,96.288,0,0,0-6.576-17.209,196.331,196.331,0,0,0-11.251-19.537L122.807,133c-1.058-1.629-2.107-3.244-3.23-4.76a98.3,98.3,0,0,0-6.957-8.344c-2.342-2.547-4.656-4.878-6.836-7.042s-4.261-4.136-6.229-5.856a77.87,77.87,0,0,0-9.882-7.416c-1.23-.781-2.205-1.356-2.871-1.736l-.76-.429A1.67,1.67,0,0,0,85.778,97.286Z" transform="translate(-85.778 -97.285)" fill="#e0e0e0"/>
              </g>
            </g>
          </g>
        </g>
      </g>
      <g id="Group_9674" data-name="Group 9674" transform="translate(35.174 9.198)">
        <g id="Group_9673" data-name="Group 9673">
          <g id="Group_9672" data-name="Group 9672">
            <g id="Group_9671" data-name="Group 9671">
              <g id="Group_9670" data-name="Group 9670">
                <path id="Path_7114" data-name="Path 7114" d="M122.366,128.838a4.436,4.436,0,0,0,.053-.958c.012-.617,0-1.508-.033-2.611-.062-2.2-.252-5.246-.474-8.6s-.368-6.388-.4-8.588c-.017-1.1-.023-1.989-.018-2.6a4.431,4.431,0,0,0-.039-.959,4.407,4.407,0,0,0-.117.953c-.053.614-.092,1.506-.11,2.61-.045,2.207.056,5.257.279,8.613.227,3.308.433,6.3.59,8.585.065,1.033.118,1.9.162,2.6A4.37,4.37,0,0,0,122.366,128.838Z" transform="translate(-121.221 -104.52)" fill="#e0e0e0"/>
              </g>
            </g>
          </g>
        </g>
      </g>
      <g id="Group_9679" data-name="Group 9679" transform="translate(7.644 32.183)">
        <g id="Group_9678" data-name="Group 9678">
          <g id="Group_9677" data-name="Group 9677">
            <g id="Group_9676" data-name="Group 9676">
              <g id="Group_9675" data-name="Group 9675">
                <path id="Path_7115" data-name="Path 7115" d="M91.232,130.447a6.152,6.152,0,0,0,1.131-.057c.724-.058,1.771-.149,3.068-.218,2.592-.16,6.18-.256,10.143-.188s7.55.294,10.139.528c1.3.108,2.341.224,3.064.3a6.109,6.109,0,0,0,1.13.081,6.032,6.032,0,0,0-1.11-.239c-.718-.123-1.762-.283-3.058-.429-2.588-.308-6.184-.574-10.16-.649a99.422,99.422,0,0,0-10.171.309c-1.3.107-2.345.241-3.064.349A5.928,5.928,0,0,0,91.232,130.447Z" transform="translate(-91.232 -129.558)" fill="#e0e0e0"/>
              </g>
            </g>
          </g>
        </g>
      </g>
      <g id="Group_9684" data-name="Group 9684" transform="translate(53.696 24.445)">
        <g id="Group_9683" data-name="Group 9683">
          <g id="Group_9682" data-name="Group 9682">
            <g id="Group_9681" data-name="Group 9681">
              <g id="Group_9680" data-name="Group 9680">
                <path id="Path_7116" data-name="Path 7116" d="M141.4,159.01a1.552,1.552,0,0,0,.132-.372c.083-.294.182-.653.3-1.087.259-.945.6-2.321,1-4.027.8-3.412,1.749-8.16,2.728-13.414s1.887-10.007,2.612-13.432l.869-4.053c.093-.442.168-.805.23-1.1a1.449,1.449,0,0,0,.054-.392,1.477,1.477,0,0,0-.133.372l-.3,1.086c-.26.945-.6,2.322-1,4.027-.8,3.413-1.749,8.161-2.729,13.417s-1.886,10-2.611,13.43c-.357,1.664-.651,3.035-.869,4.052-.093.442-.168.806-.23,1.105A1.469,1.469,0,0,0,141.4,159.01Z" transform="translate(-141.397 -121.129)" fill="#e0e0e0"/>
              </g>
            </g>
          </g>
        </g>
      </g>
      <g id="Group_9689" data-name="Group 9689" transform="translate(14.741 56.727)">
        <g id="Group_9688" data-name="Group 9688">
          <g id="Group_9687" data-name="Group 9687">
            <g id="Group_9686" data-name="Group 9686">
              <g id="Group_9685" data-name="Group 9685">
                <path id="Path_7117" data-name="Path 7117" d="M98.963,156.3a1.526,1.526,0,0,0,.393.088l1.133.176,4.173.606c3.524.512,8.382,1.275,13.75,2.126s10.24,1.571,13.775,2.01c1.768.22,3.2.385,4.191.477l1.143.1a1.514,1.514,0,0,0,.4.007,1.494,1.494,0,0,0-.393-.089l-1.134-.176-4.172-.6c-3.523-.512-8.382-1.276-13.752-2.127s-10.238-1.57-13.772-2.01c-1.768-.22-3.2-.384-4.193-.476l-1.142-.1A1.46,1.46,0,0,0,98.963,156.3Z" transform="translate(-98.963 -156.293)" fill="#e0e0e0"/>
              </g>
            </g>
          </g>
        </g>
      </g>
    </g>
    <g id="Group_10059" data-name="Group 10059" transform="translate(-18413.873 -7349)">
      <g id="Group_10020" data-name="Group 10020" transform="translate(0 0)">
        <g id="Group_10014" data-name="Group 10014">
          <path id="Path_7255" data-name="Path 7255" d="M-27.148,408.5l-110.706-.512a24.115,24.115,0,0,1-24-24.217l1.173-277.543a24.116,24.116,0,0,1,24.227-24.013l110.706.511a24.115,24.115,0,0,1,24,24.217L-2.92,384.49A24.116,24.116,0,0,1-27.148,408.5Z" transform="translate(161.857 -82.217)" fill="#455a64"/>
        </g>
        <g id="Group_10015" data-name="Group 10015" transform="translate(7.351 9.58)">
          <path id="Path_7256" data-name="Path 7256" d="M-26.628,91.37l-21.464-.1A5.332,5.332,0,0,0-53.327,96.7l-.017,3.894a5.331,5.331,0,0,1-5.235,5.424l-41.838-.194a5.335,5.335,0,0,1-5.188-5.472l.017-3.894a5.336,5.336,0,0,0-5.189-5.472l-7.549-.035-18.786-.086a16.889,16.889,0,0,0-16.967,16.817l-1.145,270.9a16.889,16.889,0,0,0,16.811,16.962l110.486.51a16.889,16.889,0,0,0,16.966-16.817l1.145-270.9A16.889,16.889,0,0,0-26.628,91.37Z" transform="translate(155.225 -90.86)" fill="#fff"/>
        </g>
        <g id="Group_10019" data-name="Group 10019" transform="translate(37.39 252.637)">
          <g id="Group_10018" data-name="Group 10018">
            <g id="Group_10017" data-name="Group 10017">
              <g id="Group_10016" data-name="Group 10016" transform="translate(0.18 -0.137)">
                <path id="Path_7257" data-name="Path 7257" d="M-44.435,336.145l-82.158-.378c-.85,0-1.535-.93-1.531-2.069l.091-21.493c0-1.138.7-2.058,1.548-2.055l82.158.38c.851,0,1.537.93,1.532,2.068l-.091,21.493C-42.889,335.229-43.583,336.149-44.435,336.145Z" transform="translate(128.123 -310.15)" fill="#e8505b"/>
              </g>
              <text id="SIGN_UP" data-name="SIGN UP" transform="matrix(1, 0.005, -0.004, 1, 25.188, 15.863)" fill="#e8e8e3" font-size="8" font-family="Montserrat-Regular, Montserrat"><tspan x="0" y="0">SIGN UP</tspan></text>
            </g>
          </g>
        </g>
      </g>
      <g id="Group_10056" data-name="Group 10056" transform="translate(25.958 42.213)">
        <g id="Group_10021" data-name="Group 10021" transform="translate(0.803 47.36)">
          <rect id="Rectangle_3196" data-name="Rectangle 3196" width="28.504" height="5.23" transform="translate(0.024 0) rotate(0.264)" fill="#e8505b"/>
          <rect id="Rectangle_3197" data-name="Rectangle 3197" width="28.504" height="5.23" transform="translate(0.024 0) rotate(0.264)" opacity="0.1"/>
        </g>
        <g id="Group_10023" data-name="Group 10023" transform="translate(0.414 60.154)">
          <g id="Group_10022" data-name="Group 10022">
            <path id="Path_7258" data-name="Path 7258" d="M-25.554,194.005a2.526,2.526,0,0,0,.651-.153,1.753,1.753,0,0,0,1.074-1.491c0-1.768-.009-4.338-.016-7.637,0-1.66,0-3.5,0-5.522q0-.756,0-1.546a2.128,2.128,0,0,0-.31-1.452,1.635,1.635,0,0,0-1.311-.675l-1.736,0-16.011-.031-92.705-.344a1.5,1.5,0,0,0-1.221.617,2.144,2.144,0,0,0-.288,1.449q-.007,1.687-.014,3.364-.015,3.352-.029,6.659-.008,1.654-.016,3.294a9.719,9.719,0,0,0,.047,1.558,1.5,1.5,0,0,0,.865,1,1.677,1.677,0,0,0,.686.117l.811,0,1.617.007,3.215.017,24.615.131,41.677.254,28.1.222,7.639.09,1.986.038c.448.012.677.033.677.033s-.229.019-.677.026l-1.986.02-7.64.019-28.1-.038-41.678-.131-24.614-.1-3.215-.013-1.618-.007-.81,0a2.244,2.244,0,0,1-.9-.162,2.07,2.07,0,0,1-1.2-1.38,3.231,3.231,0,0,1-.069-.887l0-.819q.007-1.641.014-3.294.012-3.307.027-6.659.007-1.678.013-3.364a7.772,7.772,0,0,1,.029-.886,2.021,2.021,0,0,1,.37-.9,2.078,2.078,0,0,1,1.69-.856l92.7.513,16.012.116,1.736.014a1.936,1.936,0,0,1,1.551.812,2.409,2.409,0,0,1,.356,1.627q-.007.79-.012,1.546c-.019,2.017-.034,3.862-.049,5.522-.041,3.3-.072,5.876-.094,7.645a1.81,1.81,0,0,1-1.169,1.537A1.335,1.335,0,0,1-25.554,194.005Z" transform="translate(138.064 -174.574)" fill="#e0e0e0"/>
          </g>
        </g>
        <g id="Group_10024" data-name="Group 10024" transform="translate(8.453 67.477)">
          <rect id="Rectangle_3198" data-name="Rectangle 3198" width="52.142" height="4.889" transform="translate(0.023 0) rotate(0.265)" fill="#e8505b"/>
          <rect id="Rectangle_3199" data-name="Rectangle 3199" width="52.142" height="4.889" transform="translate(0.023 0) rotate(0.265)" fill="#fff" opacity="0.2"/>
        </g>
        <g id="Group_10025" data-name="Group 10025" transform="translate(0.601 95.09)">
          <rect id="Rectangle_3200" data-name="Rectangle 3200" width="28.504" height="5.23" transform="translate(0.024 0) rotate(0.264)" fill="#e8505b"/>
          <rect id="Rectangle_3201" data-name="Rectangle 3201" width="28.504" height="5.23" transform="translate(0.024 0) rotate(0.264)" opacity="0.1"/>
        </g>
        <g id="Group_10027" data-name="Group 10027" transform="translate(0.211 107.887)">
          <g id="Group_10026" data-name="Group 10026">
            <path id="Path_7259" data-name="Path 7259" d="M-26.266,237.066a4.639,4.639,0,0,0,.656-.124,2.3,2.3,0,0,0,1.4-1.256,3,3,0,0,0,.192-1.405q0-.808-.007-1.761c0-1.276-.006-2.743-.009-4.394s0-3.493,0-5.5v-1.541a2.4,2.4,0,0,0-.324-1.463,2.178,2.178,0,0,0-1.2-.934,6.865,6.865,0,0,0-1.674-.1l-15.956-.031-92.383-.342A2.037,2.037,0,0,0-137.6,220c-.033,1.055-.018,2.22-.029,3.32q-.015,3.34-.029,6.636-.007,1.648-.016,3.283a6.986,6.986,0,0,0,.07,1.547,2.052,2.052,0,0,0,.809,1.136,2.2,2.2,0,0,0,1.379.355l1.613.008,3.2.017,24.53.13,41.532.254c11.808.093,21.368.17,28,.221,3.29.04,5.85.069,7.612.09l1.98.038c.447.012.675.033.675.033s-.228.019-.676.025l-1.98.02-7.612.02-28-.039-41.533-.13-24.528-.1-3.2-.013-1.612-.007a2.788,2.788,0,0,1-1.7-.452,2.625,2.625,0,0,1-1.039-1.458,7.115,7.115,0,0,1-.091-1.7q.007-1.634.013-3.282.013-3.3.027-6.637c.013-1.127-.009-2.2.032-3.384a2.614,2.614,0,0,1,2.6-2.292c36.067.2,68.721.379,92.383.511l15.955.116a6.922,6.922,0,0,1,1.765.121,2.473,2.473,0,0,1,1.369,1.075,2.711,2.711,0,0,1,.355,1.62q-.007.786-.012,1.541c-.017,2.01-.034,3.847-.049,5.5s-.032,3.118-.045,4.394q-.01.953-.02,1.761a3.109,3.109,0,0,1-.229,1.452A2.34,2.34,0,0,1-25.593,237,1.779,1.779,0,0,1-26.266,237.066Z" transform="translate(138.248 -217.639)" fill="#e0e0e0"/>
          </g>
        </g>
        <g id="Group_10028" data-name="Group 10028" transform="translate(0.391 144.871)">
          <rect id="Rectangle_3202" data-name="Rectangle 3202" width="28.504" height="5.23" transform="translate(0.024 0) rotate(0.263)" fill="#e8505b"/>
          <rect id="Rectangle_3203" data-name="Rectangle 3203" width="28.504" height="5.23" transform="translate(0.024 0) rotate(0.263)" opacity="0.1"/>
        </g>
        <g id="Group_10030" data-name="Group 10030" transform="translate(0 157.668)">
          <g id="Group_10029" data-name="Group 10029">
            <path id="Path_7260" data-name="Path 7260" d="M-26.457,281.979a4.671,4.671,0,0,0,.657-.123,2.3,2.3,0,0,0,1.4-1.257,3.014,3.014,0,0,0,.192-1.405q0-.808-.007-1.76c0-1.277,0-2.744-.008-4.394s0-3.494,0-5.5q0-.753,0-1.542a2.414,2.414,0,0,0-.324-1.462,2.181,2.181,0,0,0-1.2-.934,6.876,6.876,0,0,0-1.676-.1l-15.954-.031-92.384-.342a2.037,2.037,0,0,0-2.024,1.785c-.033,1.054-.018,2.219-.028,3.318q-.015,3.34-.03,6.636-.007,1.648-.014,3.283a6.98,6.98,0,0,0,.069,1.546,2.047,2.047,0,0,0,.809,1.137,2.191,2.191,0,0,0,1.379.355l1.613.008,3.2.017,24.529.13,41.533.254,28,.222,7.612.09c.855.016,1.513.028,1.98.038.446.012.674.032.674.032s-.228.019-.674.027c-.468,0-1.125.01-1.98.019l-7.613.02-28-.039-41.533-.13-24.529-.1-3.2-.013-1.612-.007a2.784,2.784,0,0,1-1.7-.452,2.629,2.629,0,0,1-1.039-1.457,7.117,7.117,0,0,1-.091-1.7q.007-1.634.013-3.282.013-3.3.027-6.637c.013-1.128-.009-2.2.032-3.384a2.615,2.615,0,0,1,2.6-2.292c36.066.2,68.72.379,92.383.511l15.954.116a6.879,6.879,0,0,1,1.766.121,2.488,2.488,0,0,1,1.368,1.075,2.713,2.713,0,0,1,.356,1.62q-.007.786-.013,1.541c-.018,2.01-.033,3.847-.048,5.5s-.032,3.118-.045,4.394q-.012.953-.022,1.76a3.1,3.1,0,0,1-.229,1.454,2.338,2.338,0,0,1-1.492,1.265A1.831,1.831,0,0,1-26.457,281.979Z" transform="translate(138.438 -262.552)" fill="#e0e0e0"/>
          </g>
        </g>
        <g id="Group_10031" data-name="Group 10031" transform="translate(8.251 115.208)">
          <rect id="Rectangle_3204" data-name="Rectangle 3204" width="52.143" height="4.889" transform="translate(0.023 0) rotate(0.265)" fill="#e8505b"/>
          <rect id="Rectangle_3205" data-name="Rectangle 3205" width="52.143" height="4.889" transform="translate(0.023 0) rotate(0.265)" fill="#fff" opacity="0.2"/>
        </g>
        <g id="Group_10052" data-name="Group 10052" transform="translate(8.451 165.605)">
          <g id="Group_10041" data-name="Group 10041">
            <g id="Group_10032" data-name="Group 10032">
              <path id="Path_7261" data-name="Path 7261" d="M-126.254,272.155a2.359,2.359,0,0,1-2.29,2.421,2.362,2.362,0,0,1-2.269-2.443,2.357,2.357,0,0,1,2.29-2.42A2.359,2.359,0,0,1-126.254,272.155Z" transform="translate(130.813 -269.713)" fill="#e8505b"/>
            </g>
            <g id="Group_10033" data-name="Group 10033" transform="translate(7.064 0.032)">
              <path id="Path_7262" data-name="Path 7262" d="M-119.881,272.184a2.358,2.358,0,0,1-2.29,2.421,2.36,2.36,0,0,1-2.269-2.442,2.358,2.358,0,0,1,2.29-2.421A2.359,2.359,0,0,1-119.881,272.184Z" transform="translate(124.44 -269.742)" fill="#e8505b"/>
            </g>
            <g id="Group_10034" data-name="Group 10034" transform="translate(14.127 0.064)">
              <path id="Path_7263" data-name="Path 7263" d="M-113.508,272.214a2.357,2.357,0,0,1-2.29,2.42,2.359,2.359,0,0,1-2.269-2.442,2.359,2.359,0,0,1,2.29-2.421A2.361,2.361,0,0,1-113.508,272.214Z" transform="translate(118.067 -269.771)" fill="#e8505b"/>
            </g>
            <g id="Group_10035" data-name="Group 10035" transform="translate(21.191 0.098)">
              <path id="Path_7264" data-name="Path 7264" d="M-107.136,272.243a2.355,2.355,0,0,1-2.289,2.42,2.358,2.358,0,0,1-2.269-2.442,2.357,2.357,0,0,1,2.29-2.42A2.36,2.36,0,0,1-107.136,272.243Z" transform="translate(111.694 -269.801)" fill="#e8505b"/>
            </g>
            <g id="Group_10036" data-name="Group 10036" transform="translate(28.254 0.13)">
              <path id="Path_7265" data-name="Path 7265" d="M-100.762,272.272a2.357,2.357,0,0,1-2.29,2.421,2.36,2.36,0,0,1-2.27-2.441,2.36,2.36,0,0,1,2.291-2.422A2.362,2.362,0,0,1-100.762,272.272Z" transform="translate(105.322 -269.83)" fill="#e8505b"/>
            </g>
            <g id="Group_10037" data-name="Group 10037" transform="translate(35.317 0.162)">
              <path id="Path_7266" data-name="Path 7266" d="M-94.389,272.3a2.357,2.357,0,0,1-2.291,2.421,2.359,2.359,0,0,1-2.269-2.441,2.359,2.359,0,0,1,2.29-2.422A2.363,2.363,0,0,1-94.389,272.3Z" transform="translate(98.949 -269.859)" fill="#e8505b"/>
            </g>
            <g id="Group_10038" data-name="Group 10038" transform="translate(42.381 0.196)">
              <path id="Path_7267" data-name="Path 7267" d="M-88.016,272.331a2.359,2.359,0,0,1-2.291,2.421,2.361,2.361,0,0,1-2.269-2.442,2.356,2.356,0,0,1,2.29-2.42A2.359,2.359,0,0,1-88.016,272.331Z" transform="translate(92.576 -269.89)" fill="#e8505b"/>
            </g>
            <g id="Group_10039" data-name="Group 10039" transform="translate(49.445 0.228)">
              <path id="Path_7268" data-name="Path 7268" d="M-81.644,272.36a2.359,2.359,0,0,1-2.29,2.422A2.361,2.361,0,0,1-86.2,272.34a2.358,2.358,0,0,1,2.29-2.421A2.358,2.358,0,0,1-81.644,272.36Z" transform="translate(86.203 -269.919)" fill="#e8505b"/>
            </g>
            <g id="Group_10040" data-name="Group 10040" transform="translate(56.508 0.26)">
              <path id="Path_7269" data-name="Path 7269" d="M-75.271,272.39a2.358,2.358,0,0,1-2.29,2.421,2.362,2.362,0,0,1-2.27-2.442,2.36,2.36,0,0,1,2.291-2.421A2.359,2.359,0,0,1-75.271,272.39Z" transform="translate(79.831 -269.948)" fill="#e8505b"/>
            </g>
          </g>
          <g id="Group_10051" data-name="Group 10051" opacity="0.2">
            <g id="Group_10042" data-name="Group 10042">
              <path id="Path_7270" data-name="Path 7270" d="M-126.254,272.155a2.359,2.359,0,0,1-2.29,2.421,2.362,2.362,0,0,1-2.269-2.443,2.357,2.357,0,0,1,2.29-2.42A2.359,2.359,0,0,1-126.254,272.155Z" transform="translate(130.813 -269.713)" fill="#fff"/>
            </g>
            <g id="Group_10043" data-name="Group 10043" transform="translate(7.064 0.032)">
              <path id="Path_7271" data-name="Path 7271" d="M-119.881,272.184a2.358,2.358,0,0,1-2.29,2.421,2.36,2.36,0,0,1-2.269-2.442,2.358,2.358,0,0,1,2.29-2.421A2.359,2.359,0,0,1-119.881,272.184Z" transform="translate(124.44 -269.742)" fill="#fff"/>
            </g>
            <g id="Group_10044" data-name="Group 10044" transform="translate(14.127 0.064)">
              <path id="Path_7272" data-name="Path 7272" d="M-113.508,272.214a2.357,2.357,0,0,1-2.29,2.42,2.359,2.359,0,0,1-2.269-2.442,2.359,2.359,0,0,1,2.29-2.421A2.361,2.361,0,0,1-113.508,272.214Z" transform="translate(118.067 -269.771)" fill="#fff"/>
            </g>
            <g id="Group_10045" data-name="Group 10045" transform="translate(21.191 0.098)">
              <path id="Path_7273" data-name="Path 7273" d="M-107.136,272.243a2.355,2.355,0,0,1-2.289,2.42,2.358,2.358,0,0,1-2.269-2.442,2.357,2.357,0,0,1,2.29-2.42A2.36,2.36,0,0,1-107.136,272.243Z" transform="translate(111.694 -269.801)" fill="#fff"/>
            </g>
            <g id="Group_10046" data-name="Group 10046" transform="translate(28.254 0.13)">
              <path id="Path_7274" data-name="Path 7274" d="M-100.762,272.272a2.357,2.357,0,0,1-2.29,2.421,2.36,2.36,0,0,1-2.27-2.441,2.36,2.36,0,0,1,2.291-2.422A2.362,2.362,0,0,1-100.762,272.272Z" transform="translate(105.322 -269.83)" fill="#fff"/>
            </g>
            <g id="Group_10047" data-name="Group 10047" transform="translate(35.317 0.162)">
              <path id="Path_7275" data-name="Path 7275" d="M-94.389,272.3a2.357,2.357,0,0,1-2.291,2.421,2.359,2.359,0,0,1-2.269-2.441,2.359,2.359,0,0,1,2.29-2.422A2.363,2.363,0,0,1-94.389,272.3Z" transform="translate(98.949 -269.859)" fill="#fff"/>
            </g>
            <g id="Group_10048" data-name="Group 10048" transform="translate(42.381 0.196)">
              <path id="Path_7276" data-name="Path 7276" d="M-88.016,272.331a2.359,2.359,0,0,1-2.291,2.421,2.361,2.361,0,0,1-2.269-2.442,2.356,2.356,0,0,1,2.29-2.42A2.359,2.359,0,0,1-88.016,272.331Z" transform="translate(92.576 -269.89)" fill="#fff"/>
            </g>
            <g id="Group_10049" data-name="Group 10049" transform="translate(49.445 0.228)">
              <path id="Path_7277" data-name="Path 7277" d="M-81.644,272.36a2.359,2.359,0,0,1-2.29,2.422A2.361,2.361,0,0,1-86.2,272.34a2.358,2.358,0,0,1,2.29-2.421A2.358,2.358,0,0,1-81.644,272.36Z" transform="translate(86.203 -269.919)" fill="#fff"/>
            </g>
            <g id="Group_10050" data-name="Group 10050" transform="translate(56.508 0.26)">
              <path id="Path_7278" data-name="Path 7278" d="M-75.271,272.39a2.358,2.358,0,0,1-2.29,2.421,2.362,2.362,0,0,1-2.27-2.442,2.36,2.36,0,0,1,2.291-2.421A2.359,2.359,0,0,1-75.271,272.39Z" transform="translate(79.831 -269.948)" fill="#fff"/>
            </g>
          </g>
        </g>
        <g id="Group_10055" data-name="Group 10055" transform="translate(30.988)">
          <g id="Group_10053" data-name="Group 10053" transform="translate(19.643)">
            <path id="Path_7279" data-name="Path 7279" d="M-83.9,128.6a4.3,4.3,0,0,0,2.561-3.977,4.175,4.175,0,0,0-4.015-4.317,4.169,4.169,0,0,0-4.048,4.281,4.292,4.292,0,0,0,2.568,4.013c-6.2.934-5.921,7.676-5.921,7.676l14.668.068S-77.753,129.525-83.9,128.6Z" transform="translate(92.758 -120.302)" fill="#e8505b"/>
            <path id="Path_7280" data-name="Path 7280" d="M-83.9,128.6a4.3,4.3,0,0,0,2.561-3.977,4.175,4.175,0,0,0-4.015-4.317,4.169,4.169,0,0,0-4.048,4.281,4.292,4.292,0,0,0,2.568,4.013c-6.2.934-5.921,7.676-5.921,7.676l14.668.068S-77.753,129.525-83.9,128.6Z" transform="translate(92.758 -120.302)" opacity="0.1"/>
          </g>
          <g id="Group_10054" data-name="Group 10054" transform="translate(0 20.21)">
            <rect id="Rectangle_3206" data-name="Rectangle 3206" width="52.307" height="6.254" transform="matrix(1, 0.005, -0.005, 1, 0.029, 0)" fill="#e8505b"/>
            <rect id="Rectangle_3207" data-name="Rectangle 3207" width="52.307" height="6.254" transform="matrix(1, 0.005, -0.005, 1, 0.029, 0)" fill="#fff" opacity="0.2"/>
          </g>
        </g>
      </g>
    </g>
    <g id="Group_10060" data-name="Group 10060" transform="translate(-18499.434 -7299.283)">
      <g id="Group_9816" data-name="Group 9816" transform="translate(3.006 270.266)">
        <g id="Group_9815" data-name="Group 9815">
          <g id="Group_9755" data-name="Group 9755" transform="translate(0.162)">
            <g id="Group_9751" data-name="Group 9751">
              <g id="Group_9750" data-name="Group 9750">
                <g id="Group_9749" data-name="Group 9749">
                  <path id="Path_7167" data-name="Path 7167" d="M55.3,448.525l-1.121,6.36.946.209c4.217.892,21.506,4.241,24.483,3.818,3.32-.473-9.322-5.444-9.322-5.444l.4-2.687Z" transform="translate(-54.183 -448.525)" fill="#e8505b"/>
                </g>
              </g>
            </g>
            <g id="Group_9754" data-name="Group 9754" transform="translate(0.05 1.834)" opacity="0.5">
              <g id="Group_9753" data-name="Group 9753">
                <g id="Group_9752" data-name="Group 9752">
                  <path id="Path_7168" data-name="Path 7168" d="M59.8,455.791a5.414,5.414,0,0,0-1.46-3.59,5.262,5.262,0,0,0-3.431-1.677l-.668,4.308Z" transform="translate(-54.237 -450.523)" fill="#fff"/>
                </g>
              </g>
            </g>
          </g>
          <g id="Group_9758" data-name="Group 9758" transform="translate(0.162 6.019)">
            <g id="Group_9757" data-name="Group 9757">
              <g id="Group_9756" data-name="Group 9756" opacity="0.5">
                <path id="Path_7169" data-name="Path 7169" d="M76.432,456.663s4.386,2.033,3.7,2.7S61.84,457.3,54.183,455.423l.078-.341,20.5,3.355S75.529,456.562,76.432,456.663Z" transform="translate(-54.183 -455.082)" fill="#fff"/>
              </g>
            </g>
          </g>
          <g id="Group_9762" data-name="Group 9762" transform="translate(0 5.971)">
            <g id="Group_9761" data-name="Group 9761">
              <g id="Group_9760" data-name="Group 9760">
                <g id="Group_9759" data-name="Group 9759">
                  <path id="Path_7170" data-name="Path 7170" d="M54.006,455.031a1.441,1.441,0,0,0,.261.07l.754.163,2.783.555c2.353.452,5.613,1.033,9.225,1.6s6.9,1,9.274,1.284l2.82.318.767.073a.135.135,0,1,0,0-.038l-.764-.108-2.811-.377c-2.374-.319-5.651-.777-9.263-1.339s-6.87-1.123-9.229-1.54l-2.794-.495-.76-.129A1.416,1.416,0,0,0,54.006,455.031Z" transform="translate(-54.006 -455.029)" fill="#263238"/>
                </g>
              </g>
            </g>
          </g>
          <g id="Group_9766" data-name="Group 9766" transform="translate(20.687 7.426)">
            <g id="Group_9765" data-name="Group 9765">
              <g id="Group_9764" data-name="Group 9764">
                <g id="Group_9763" data-name="Group 9763">
                  <path id="Path_7171" data-name="Path 7171" d="M76.553,458.8a6.43,6.43,0,0,1,.731-1.256,6.312,6.312,0,0,1,1.122-.924,2.521,2.521,0,0,0-1.853,2.18Z" transform="translate(-76.541 -456.614)" fill="#263238"/>
                </g>
              </g>
            </g>
          </g>
          <g id="Group_9770" data-name="Group 9770" transform="translate(16.505 5.441)">
            <g id="Group_9769" data-name="Group 9769">
              <g id="Group_9768" data-name="Group 9768">
                <g id="Group_9767" data-name="Group 9767">
                  <path id="Path_7172" data-name="Path 7172" d="M71.99,455.612c.039.035.3-.2.577-.516s.475-.606.435-.641-.3.2-.577.516S71.95,455.578,71.99,455.612Z" transform="translate(-71.984 -454.452)" fill="#263238"/>
                </g>
              </g>
            </g>
          </g>
          <g id="Group_9774" data-name="Group 9774" transform="translate(15.361 5.025)">
            <g id="Group_9773" data-name="Group 9773">
              <g id="Group_9772" data-name="Group 9772">
                <g id="Group_9771" data-name="Group 9771">
                  <path id="Path_7173" data-name="Path 7173" d="M70.742,454.722c.028.043.3-.082.6-.279s.524-.393.5-.436-.3.081-.6.278S70.713,454.678,70.742,454.722Z" transform="translate(-70.739 -453.998)" fill="#263238"/>
                </g>
              </g>
            </g>
          </g>
          <g id="Group_9778" data-name="Group 9778" transform="translate(14.8 4.142)">
            <g id="Group_9777" data-name="Group 9777">
              <g id="Group_9776" data-name="Group 9776">
                <g id="Group_9775" data-name="Group 9775">
                  <path id="Path_7174" data-name="Path 7174" d="M70.128,453.066a3.557,3.557,0,0,0,1.607.267,3.563,3.563,0,0,0-1.607-.267Z" transform="translate(-70.128 -453.037)" fill="#263238"/>
                </g>
              </g>
            </g>
          </g>
          <g id="Group_9782" data-name="Group 9782" transform="translate(14.687 3.094)">
            <g id="Group_9781" data-name="Group 9781">
              <g id="Group_9780" data-name="Group 9780">
                <g id="Group_9779" data-name="Group 9779">
                  <path id="Path_7175" data-name="Path 7175" d="M70.006,451.9a2.29,2.29,0,0,0,1.8.42,5.008,5.008,0,0,0-.9-.2A5.044,5.044,0,0,0,70.006,451.9Z" transform="translate(-70.005 -451.895)" fill="#263238"/>
                </g>
              </g>
            </g>
          </g>
          <g id="Group_9786" data-name="Group 9786" transform="translate(17.24 4.235)">
            <g id="Group_9785" data-name="Group 9785">
              <g id="Group_9784" data-name="Group 9784">
                <g id="Group_9783" data-name="Group 9783">
                  <path id="Path_7176" data-name="Path 7176" d="M72.786,454.241a2.915,2.915,0,0,0,.991.147,5.826,5.826,0,0,0,1.091-.069,3,3,0,0,0,.643-.155.549.549,0,0,0,.293-.27.4.4,0,0,0-.089-.42,1.838,1.838,0,0,0-2.329.184,1.79,1.79,0,0,0-.425.611c-.066.163-.078.261-.067.264a2.825,2.825,0,0,1,.582-.776,1.8,1.8,0,0,1,.931-.419,1.556,1.556,0,0,1,1.169.263c.139.14.049.317-.142.394a3.009,3.009,0,0,1-.593.151,7.031,7.031,0,0,1-1.061.107C73.169,454.268,72.791,454.21,72.786,454.241Z" transform="translate(-72.786 -453.138)" fill="#263238"/>
                </g>
              </g>
            </g>
          </g>
          <g id="Group_9790" data-name="Group 9790" transform="translate(16.429 3.359)">
            <g id="Group_9789" data-name="Group 9789">
              <g id="Group_9788" data-name="Group 9788">
                <g id="Group_9787" data-name="Group 9787">
                  <path id="Path_7177" data-name="Path 7177" d="M72.962,454.252a.985.985,0,0,0,.221-.67,1.633,1.633,0,0,0-.159-.766,1,1,0,0,0-.746-.632.4.4,0,0,0-.375.409,1.1,1.1,0,0,0,.1.469,3.079,3.079,0,0,0,.375.672c.263.351.49.5.5.488s-.17-.208-.395-.565a3.411,3.411,0,0,1-.322-.658c-.1-.23-.139-.621.117-.627.252.014.466.3.588.521a1.649,1.649,0,0,1,.18.687A3.556,3.556,0,0,1,72.962,454.252Z" transform="translate(-71.902 -452.184)" fill="#263238"/>
                </g>
              </g>
            </g>
          </g>
          <g id="Group_9794" data-name="Group 9794" transform="translate(0.968 1.781)">
            <g id="Group_9793" data-name="Group 9793">
              <g id="Group_9792" data-name="Group 9792">
                <g id="Group_9791" data-name="Group 9791">
                  <path id="Path_7178" data-name="Path 7178" d="M55.06,450.488c0,.035.448.027,1.133.217a4.885,4.885,0,0,1,3.538,3.843c.133.7.087,1.145.122,1.147a.872.872,0,0,0,.049-.311,4.1,4.1,0,0,0-.039-.857,4.742,4.742,0,0,0-3.637-3.951,4.172,4.172,0,0,0-.852-.109A.9.9,0,0,0,55.06,450.488Z" transform="translate(-55.06 -450.465)" fill="#263238"/>
                </g>
              </g>
            </g>
          </g>
          <g id="Group_9798" data-name="Group 9798" transform="translate(7.943 5.892)">
            <g id="Group_9797" data-name="Group 9797">
              <g id="Group_9796" data-name="Group 9796">
                <g id="Group_9795" data-name="Group 9795">
                  <path id="Path_7179" data-name="Path 7179" d="M62.658,454.95a8.813,8.813,0,0,0,2.216.572,8.851,8.851,0,0,0,2.282.169c0-.055-1.013-.15-2.252-.355S62.673,454.9,62.658,454.95Z" transform="translate(-62.658 -454.943)" fill="#263238"/>
                </g>
              </g>
            </g>
          </g>
          <g id="Group_9802" data-name="Group 9802" transform="translate(4.911 5.423)">
            <g id="Group_9801" data-name="Group 9801">
              <g id="Group_9800" data-name="Group 9800">
                <g id="Group_9799" data-name="Group 9799">
                  <path id="Path_7180" data-name="Path 7180" d="M59.367,454.436c-.043.032.05.227.117.474s.092.46.145.465.118-.231.038-.516S59.406,454.4,59.367,454.436Z" transform="translate(-59.356 -454.432)" fill="#263238"/>
                </g>
              </g>
            </g>
          </g>
          <g id="Group_9806" data-name="Group 9806" transform="translate(3.992 3.829)">
            <g id="Group_9805" data-name="Group 9805">
              <g id="Group_9804" data-name="Group 9804">
                <g id="Group_9803" data-name="Group 9803">
                  <path id="Path_7181" data-name="Path 7181" d="M58.366,452.7c-.042.03.032.207.167.393s.277.312.32.282-.033-.207-.167-.393S58.408,452.67,58.366,452.7Z" transform="translate(-58.354 -452.696)" fill="#263238"/>
                </g>
              </g>
            </g>
          </g>
          <g id="Group_9810" data-name="Group 9810" transform="translate(2.475 2.878)">
            <g id="Group_9809" data-name="Group 9809">
              <g id="Group_9808" data-name="Group 9808">
                <g id="Group_9807" data-name="Group 9807">
                  <path id="Path_7182" data-name="Path 7182" d="M56.7,451.716c0,.053.207.083.422.2s.358.261.4.232-.05-.262-.317-.4S56.694,451.665,56.7,451.716Z" transform="translate(-56.702 -451.66)" fill="#263238"/>
                </g>
              </g>
            </g>
          </g>
          <g id="Group_9814" data-name="Group 9814" transform="translate(1.357 2.424)">
            <g id="Group_9813" data-name="Group 9813">
              <g id="Group_9812" data-name="Group 9812">
                <g id="Group_9811" data-name="Group 9811">
                  <path id="Path_7183" data-name="Path 7183" d="M55.49,451.19c-.026.045.05.139.171.207s.239.089.265.044-.05-.138-.171-.208S55.516,451.145,55.49,451.19Z" transform="translate(-55.485 -451.166)" fill="#263238"/>
                </g>
              </g>
            </g>
          </g>
        </g>
      </g>
      <g id="Group_9884" data-name="Group 9884" transform="translate(85.406 273.865)">
        <g id="Group_9883" data-name="Group 9883">
          <g id="Group_9823" data-name="Group 9823">
            <g id="Group_9819" data-name="Group 9819">
              <g id="Group_9818" data-name="Group 9818">
                <g id="Group_9817" data-name="Group 9817">
                  <path id="Path_7184" data-name="Path 7184" d="M143.765,454.284l.578,6.432.969-.046c4.3-.24,21.867-1.521,24.63-2.707,3.081-1.323-10.42-2.82-10.42-2.82l-.319-2.7Z" transform="translate(-143.765 -452.446)" fill="#e8505b"/>
                </g>
              </g>
            </g>
            <g id="Group_9822" data-name="Group 9822" transform="translate(0.09 3.624)" opacity="0.5">
              <g id="Group_9821" data-name="Group 9821">
                <g id="Group_9820" data-name="Group 9820">
                  <path id="Path_7185" data-name="Path 7185" d="M149.959,460.291a5.408,5.408,0,0,0-2.346-3.084,5.257,5.257,0,0,0-3.749-.723l.48,4.333Z" transform="translate(-143.863 -456.394)" fill="#fff"/>
                </g>
              </g>
            </g>
          </g>
          <g id="Group_9826" data-name="Group 9826" transform="translate(0.565 3.658)">
            <g id="Group_9825" data-name="Group 9825">
              <g id="Group_9824" data-name="Group 9824" opacity="0.5">
                <path id="Path_7186" data-name="Path 7186" d="M166.195,456.431s4.764.817,4.273,1.641-18.191,2.788-26.074,2.971l-.014-.349,20.665-2.114S165.3,456.57,166.195,456.431Z" transform="translate(-144.38 -456.431)" fill="#fff"/>
              </g>
            </g>
          </g>
          <g id="Group_9830" data-name="Group 9830" transform="translate(0.32 5.039)">
            <g id="Group_9829" data-name="Group 9829">
              <g id="Group_9828" data-name="Group 9828">
                <g id="Group_9827" data-name="Group 9827">
                  <path id="Path_7187" data-name="Path 7187" d="M144.114,460.835a1.509,1.509,0,0,0,.27,0l.77-.039,2.831-.192c2.39-.178,5.687-.468,9.322-.868s6.917-.836,9.288-1.181l2.8-.431.761-.129a1.5,1.5,0,0,0,.263-.058,1.463,1.463,0,0,0-.269.02l-.766.095-2.812.37c-2.375.312-5.658.725-9.291,1.126s-6.926.711-9.311.923l-2.826.252-.767.074A1.408,1.408,0,0,0,144.114,460.835Z" transform="translate(-144.114 -457.935)" fill="#263238"/>
                </g>
              </g>
            </g>
          </g>
          <g id="Group_9834" data-name="Group 9834" transform="translate(21.198 3.456)">
            <g id="Group_9833" data-name="Group 9833">
              <g id="Group_9832" data-name="Group 9832">
                <g id="Group_9831" data-name="Group 9831">
                  <path id="Path_7188" data-name="Path 7188" d="M166.911,458.8a4.121,4.121,0,0,1,1.218-2.589,2.517,2.517,0,0,0-1.218,2.589Z" transform="translate(-166.856 -456.211)" fill="#263238"/>
                </g>
              </g>
            </g>
          </g>
          <g id="Group_9838" data-name="Group 9838" transform="translate(16.411 2.853)">
            <g id="Group_9837" data-name="Group 9837">
              <g id="Group_9836" data-name="Group 9836">
                <g id="Group_9835" data-name="Group 9835">
                  <path id="Path_7189" data-name="Path 7189" d="M161.652,456.936c.047.023.236-.267.422-.649s.3-.709.253-.732-.236.267-.423.649S161.605,456.913,161.652,456.936Z" transform="translate(-161.641 -455.554)" fill="#263238"/>
                </g>
              </g>
            </g>
          </g>
          <g id="Group_9842" data-name="Group 9842" transform="translate(15.087 2.731)">
            <g id="Group_9841" data-name="Group 9841">
              <g id="Group_9840" data-name="Group 9840">
                <g id="Group_9839" data-name="Group 9839">
                  <path id="Path_7190" data-name="Path 7190" d="M160.2,456.4c.039.035.266-.156.507-.425s.4-.517.364-.551-.265.155-.506.425S160.166,456.366,160.2,456.4Z" transform="translate(-160.199 -455.421)" fill="#263238"/>
                </g>
              </g>
            </g>
          </g>
          <g id="Group_9846" data-name="Group 9846" transform="translate(14.136 2.131)">
            <g id="Group_9845" data-name="Group 9845">
              <g id="Group_9844" data-name="Group 9844">
                <g id="Group_9843" data-name="Group 9843">
                  <path id="Path_7191" data-name="Path 7191" d="M159.164,454.972a3.576,3.576,0,1,0,.8-.174A1.839,1.839,0,0,0,159.164,454.972Z" transform="translate(-159.164 -454.767)" fill="#263238"/>
                </g>
              </g>
            </g>
          </g>
          <g id="Group_9850" data-name="Group 9850" transform="translate(13.75 1.25)">
            <g id="Group_9849" data-name="Group 9849">
              <g id="Group_9848" data-name="Group 9848">
                <g id="Group_9847" data-name="Group 9847">
                  <path id="Path_7192" data-name="Path 7192" d="M158.743,453.892a2.292,2.292,0,0,0,1.85-.065,5.067,5.067,0,0,0-.924.039A5.016,5.016,0,0,0,158.743,453.892Z" transform="translate(-158.743 -453.808)" fill="#263238"/>
                </g>
              </g>
            </g>
          </g>
          <g id="Group_9854" data-name="Group 9854" transform="translate(16.797 1.202)">
            <g id="Group_9853" data-name="Group 9853">
              <g id="Group_9852" data-name="Group 9852">
                <g id="Group_9851" data-name="Group 9851">
                  <path id="Path_7193" data-name="Path 7193" d="M162.062,455.378a2.909,2.909,0,0,0,1-.118,5.88,5.88,0,0,0,1.035-.351,2.942,2.942,0,0,0,.579-.318.546.546,0,0,0,.212-.337.393.393,0,0,0-.2-.382,1.839,1.839,0,0,0-2.2.785,1.8,1.8,0,0,0-.252.7.565.565,0,0,0,0,.272,2.852,2.852,0,0,1,.359-.9,1.818,1.818,0,0,1,.79-.647,1.553,1.553,0,0,1,1.2-.051c.171.1.129.293-.034.417a2.95,2.95,0,0,1-.534.3,6.941,6.941,0,0,1-1,.381C162.438,455.3,162.058,455.347,162.062,455.378Z" transform="translate(-162.062 -453.755)" fill="#263238"/>
                </g>
              </g>
            </g>
          </g>
          <g id="Group_9858" data-name="Group 9858" transform="translate(15.588 1.018)">
            <g id="Group_9857" data-name="Group 9857">
              <g id="Group_9856" data-name="Group 9856">
                <g id="Group_9855" data-name="Group 9855">
                  <path id="Path_7194" data-name="Path 7194" d="M162.217,455.382a.982.982,0,0,0,.039-.7,1.641,1.641,0,0,0-.353-.7,1.009,1.009,0,0,0-.886-.416.4.4,0,0,0-.256.494,1.11,1.11,0,0,0,.218.427,3.011,3.011,0,0,0,.538.55,1.458,1.458,0,0,0,.614.341c.015-.027-.218-.157-.528-.442a3.556,3.556,0,0,1-.483-.552c-.161-.2-.3-.563-.051-.636.247-.051.529.168.7.35a1.641,1.641,0,0,1,.353.617A3.638,3.638,0,0,1,162.217,455.382Z" transform="translate(-160.745 -453.554)" fill="#263238"/>
                </g>
              </g>
            </g>
          </g>
          <g id="Group_9862" data-name="Group 9862" transform="translate(0.166 3.437)">
            <g id="Group_9861" data-name="Group 9861">
              <g id="Group_9860" data-name="Group 9860">
                <g id="Group_9859" data-name="Group 9859">
                  <path id="Path_7195" data-name="Path 7195" d="M143.946,456.415c.007.035.44-.092,1.149-.086a4.882,4.882,0,0,1,4.419,2.785c.31.639.383,1.083.418,1.074a.9.9,0,0,0-.035-.312,4,4,0,0,0-.262-.817,4.738,4.738,0,0,0-4.542-2.864,4.073,4.073,0,0,0-.85.117A.91.91,0,0,0,143.946,456.415Z" transform="translate(-143.946 -456.19)" fill="#263238"/>
                </g>
              </g>
            </g>
          </g>
          <g id="Group_9866" data-name="Group 9866" transform="translate(7.969 5.324)">
            <g id="Group_9865" data-name="Group 9865">
              <g id="Group_9864" data-name="Group 9864">
                <g id="Group_9863" data-name="Group 9863">
                  <path id="Path_7196" data-name="Path 7196" d="M152.446,458.715a12.78,12.78,0,0,0,4.535-.459c-.012-.054-1.017.12-2.267.245S152.446,458.66,152.446,458.715Z" transform="translate(-152.446 -458.246)" fill="#263238"/>
                </g>
              </g>
            </g>
          </g>
          <g id="Group_9870" data-name="Group 9870" transform="translate(4.925 6.119)">
            <g id="Group_9869" data-name="Group 9869">
              <g id="Group_9868" data-name="Group 9868">
                <g id="Group_9867" data-name="Group 9867">
                  <path id="Path_7197" data-name="Path 7197" d="M149.135,459.119c-.033.041.107.2.236.426s.208.42.262.411.052-.254-.1-.508S149.164,459.078,149.135,459.119Z" transform="translate(-149.13 -459.111)" fill="#263238"/>
                </g>
              </g>
            </g>
          </g>
          <g id="Group_9874" data-name="Group 9874" transform="translate(3.622 4.819)">
            <g id="Group_9873" data-name="Group 9873">
              <g id="Group_9872" data-name="Group 9872">
                <g id="Group_9871" data-name="Group 9871">
                  <path id="Path_7198" data-name="Path 7198" d="M147.715,457.705c-.033.04.084.191.264.335s.35.23.383.189-.085-.191-.264-.336S147.749,457.665,147.715,457.705Z" transform="translate(-147.71 -457.695)" fill="#263238"/>
                </g>
              </g>
            </g>
          </g>
          <g id="Group_9878" data-name="Group 9878" transform="translate(1.915 4.237)">
            <g id="Group_9877" data-name="Group 9877">
              <g id="Group_9876" data-name="Group 9876">
                <g id="Group_9875" data-name="Group 9875">
                  <path id="Path_7199" data-name="Path 7199" d="M145.852,457.183c.017.051.223.027.459.082s.415.158.452.118-.117-.24-.41-.3S145.831,457.137,145.852,457.183Z" transform="translate(-145.851 -457.062)" fill="#263238"/>
                </g>
              </g>
            </g>
          </g>
          <g id="Group_9882" data-name="Group 9882" transform="translate(0.715 4.134)">
            <g id="Group_9881" data-name="Group 9881">
              <g id="Group_9880" data-name="Group 9880">
                <g id="Group_9879" data-name="Group 9879">
                  <path id="Path_7200" data-name="Path 7200" d="M144.545,457c-.014.051.084.12.218.155s.253.024.267-.027-.084-.12-.219-.156S144.558,456.946,144.545,457Z" transform="translate(-144.544 -456.949)" fill="#263238"/>
                </g>
              </g>
            </g>
          </g>
        </g>
      </g>
      <g id="Group_9885" data-name="Group 9885" transform="translate(60.901 1.984)">
        <path id="Path_7201" data-name="Path 7201" d="M146.094,186.049c-1.241-6.617-8.55-10.294-11.405-16.391-1.111-2.373-1.506-5.044-2.729-7.361a11.83,11.83,0,0,0-14.431-5.235l-.456.709c2.95,6.207,5.9,10.468,8.85,16.674a21.939,21.939,0,0,1,2.353,6.791,7.42,7.42,0,0,1-2.223,6.56c-1.482,1.228-3.5,1.6-5.1,2.671a8.313,8.313,0,0,0-3.26,7.729,13.988,13.988,0,0,0,3.845,7.767c1.9,2.086,4.919,3.872,7.428,2.578,1.266-.654,2.052-1.939,2.986-3.014,1.919-2.207,4.569-3.612,6.929-5.338C143.387,196.893,147.123,191.539,146.094,186.049Z" transform="translate(-117.072 -156.285)" fill="#263238"/>
      </g>
      <g id="Group_9912" data-name="Group 9912" transform="translate(46.943 44.973)">
        <g id="Group_9908" data-name="Group 9908" transform="translate(29.476)">
          <g id="Group_9901" data-name="Group 9901">
            <g id="Group_9886" data-name="Group 9886" transform="translate(57.436 6.037)">
              <path id="Path_7202" data-name="Path 7202" d="M216.2,221.163c-1.656,1.511-10.7,9.1-10.7,9.1l-8.964-8.159c.233-.67,2.426-4.433,2.682-5.381a7.371,7.371,0,0,0,.224-2.5,11.3,11.3,0,0,0-.559-3.078c-.394-.88.487-1.78,1.248-1.347s1.9,2.832,1.868,5.935,12.146-4.02,13.88-2.278Z" transform="translate(-196.54 -209.689)" fill="#ffbe9d"/>
            </g>
            <g id="Group_9887" data-name="Group 9887" transform="translate(73.352 16.612)">
              <path id="Path_7203" data-name="Path 7203" d="M213.878,221.208" transform="translate(-213.878 -221.208)" fill="#ffbe9d"/>
            </g>
            <g id="Group_9888" data-name="Group 9888" transform="translate(0 5.323)">
              <path id="Path_7204" data-name="Path 7204" d="M133.975,208.911l29.756,35.608,27.317-24.7,11.915,11.625S168.671,269.17,163.44,268.9s-23-12.018-23-12.018Z" transform="translate(-133.975 -208.911)" fill="#e8505b"/>
            </g>
            <g id="Group_9892" data-name="Group 9892" transform="translate(58.779)">
              <g id="Group_9891" data-name="Group 9891">
                <g id="Group_9889" data-name="Group 9889">
                  <path id="Path_7205" data-name="Path 7205" d="M206.753,203.138a.489.489,0,0,0-.61.283l-8.082,20.391a.774.774,0,0,0,.383.991l9.605,4.578a.772.772,0,0,0,1.043-.393l9.089-21.138a.773.773,0,0,0-.46-1.037Z" transform="translate(-198.003 -203.112)" fill="#263238"/>
                </g>
                <g id="Group_9890" data-name="Group 9890" transform="translate(1.053 1.497)">
                  <path id="Path_7206" data-name="Path 7206" d="M206.585,204.743l-7.435,18.194,10.059,4.553,7.617-19.291Z" transform="translate(-199.15 -204.743)" fill="#f5f5f5"/>
                </g>
              </g>
            </g>
            <g id="Group_9894" data-name="Group 9894" transform="translate(51.754 20.871)">
              <g id="Group_9893" data-name="Group 9893">
                <path id="Path_7207" data-name="Path 7207" d="M202.963,238.132a12.739,12.739,0,0,1-2.112-1.5,62.752,62.752,0,0,1-8.942-8.712,12.649,12.649,0,0,1-1.554-2.072,17.475,17.475,0,0,1,1.793,1.862c1.08,1.171,2.591,2.771,4.33,4.466s3.378,3.163,4.577,4.211A17.557,17.557,0,0,1,202.963,238.132Z" transform="translate(-190.351 -225.847)" fill="#263238"/>
              </g>
            </g>
            <g id="Group_9896" data-name="Group 9896" transform="translate(55.227 19.333)">
              <g id="Group_9895" data-name="Group 9895">
                <path id="Path_7208" data-name="Path 7208" d="M194.726,224.548c.056.049-.311.342-.272.975a1.231,1.231,0,0,0,.445.89,1.12,1.12,0,0,0,1.7-.975,1.229,1.229,0,0,0-.545-.834c-.526-.353-.965-.184-.979-.256-.01-.022.076-.1.28-.152a1.3,1.3,0,0,1,.859.134,1.492,1.492,0,0,1,.8,1.049,1.5,1.5,0,0,1-2.367,1.359,1.493,1.493,0,0,1-.506-1.215,1.3,1.3,0,0,1,.319-.811C194.6,224.562,194.712,224.529,194.726,224.548Z" transform="translate(-194.134 -224.171)" fill="#263238"/>
              </g>
            </g>
            <g id="Group_9898" data-name="Group 9898" transform="translate(27.96 40.757)">
              <g id="Group_9897" data-name="Group 9897">
                <path id="Path_7209" data-name="Path 7209" d="M165.056,258.083a4.324,4.324,0,0,1-.439-1.543,14.1,14.1,0,0,1,.865-7.624,4.3,4.3,0,0,1,.773-1.405,31.022,31.022,0,0,0-1.286,5.209A31.185,31.185,0,0,0,165.056,258.083Z" transform="translate(-164.432 -247.509)" fill="#263238"/>
              </g>
            </g>
            <g id="Group_9900" data-name="Group 9900" transform="translate(29.652 40.51)">
              <g id="Group_9899" data-name="Group 9899">
                <path id="Path_7210" data-name="Path 7210" d="M169.445,257.79a4.7,4.7,0,0,1-.962-1.334,16.748,16.748,0,0,1-2.2-7.574,4.686,4.686,0,0,1,.1-1.642,44.487,44.487,0,0,0,.98,5.435A44.7,44.7,0,0,0,169.445,257.79Z" transform="translate(-166.275 -247.24)" fill="#263238"/>
              </g>
            </g>
          </g>
          <g id="Group_9902" data-name="Group 9902" transform="translate(62.522 4.889)">
            <path id="Path_7211" data-name="Path 7211" d="M207,208.438l-4.92,12.235,7.369,3.015,5.136-12.506Z" transform="translate(-202.081 -208.438)" fill="#ebebeb"/>
          </g>
          <g id="Group_9903" data-name="Group 9903" transform="translate(63.996 14.884)">
            <path id="Rectangle_3192" data-name="Rectangle 3192" d="M.731,0H5.252a.731.731,0,0,1,.731.731V.75a.731.731,0,0,1-.731.731H.732A.732.732,0,0,1,0,.75V.731A.731.731,0,0,1,.731,0Z" transform="translate(0.571 0) rotate(22.68)" fill="#e8505b"/>
          </g>
          <g id="Group_9904" data-name="Group 9904" transform="translate(67.672 6.894)">
            <rect id="Rectangle_3193" data-name="Rectangle 3193" width="5.836" height="0.852" transform="translate(0.3 0) rotate(20.633)" fill="#455a64"/>
          </g>
          <g id="Group_9905" data-name="Group 9905" transform="translate(66.06 9.429)">
            <rect id="Rectangle_3194" data-name="Rectangle 3194" width="6.454" height="1.669" transform="translate(0.588 0) rotate(20.634)" fill="#e0e0e0"/>
          </g>
          <g id="Group_9906" data-name="Group 9906" transform="translate(65.064 11.941)">
            <rect id="Rectangle_3195" data-name="Rectangle 3195" width="6.454" height="1.669" transform="translate(0.588 0) rotate(20.634)" fill="#e0e0e0"/>
          </g>
          <g id="Group_9907" data-name="Group 9907" transform="translate(69.891 9.807)">
            <path id="Path_7212" data-name="Path 7212" d="M216.994,213.795c-1.39.228-3.088.366-4.478.594a2.525,2.525,0,0,0-1.124.375.861.861,0,0,0-.315,1.049c.222.4.769.431,1.224.417l3.068-.1a16.349,16.349,0,0,0-3.862.645c-.577.195-1.218.578-1.23,1.187a1.126,1.126,0,0,0,1.015,1.017,12.109,12.109,0,0,0,1.61.025s2.1.03,2.192.3c-1.311-.009-3.044.275-4.354.391-.358.032-.521.522-.608.871a.794.794,0,0,0,.379.916,1.194,1.194,0,0,0,.517.06l5.085-.157" transform="translate(-210.108 -213.795)" fill="#ffbe9d"/>
          </g>
        </g>
        <g id="Group_9911" data-name="Group 9911" transform="translate(0 3.117)">
          <g id="Group_9909" data-name="Group 9909">
            <path id="Path_7213" data-name="Path 7213" d="M120.816,206.591s6.188-.727,10.527,2.123c3.924,2.579,17.665,41.983,17.136,53.675s.955,32.306,3.36,40.8,4.226,82.182-14.735,117.245l-35.236-4.946,11.013-94.631-1.125-85.85Z" transform="translate(-101.867 -206.508)" fill="#e8505b"/>
          </g>
          <g id="Group_9910" data-name="Group 9910" transform="translate(1.003)" opacity="0.3">
            <path id="Path_7214" data-name="Path 7214" d="M118.88,206.591s6.187-.727,10.527,2.123c3.923,2.579,17.665,41.983,17.136,53.675s.954,32.306,3.36,40.8,4.226,82.182-14.736,117.245L102.96,415.49l7.983-94.631-1.125-85.85Z" transform="translate(-102.96 -206.508)"/>
          </g>
        </g>
      </g>
      <g id="Group_9913" data-name="Group 9913" transform="translate(35.828 46.324)">
        <path id="Path_7215" data-name="Path 7215" d="M104.837,204.621s-19.379-2.092-14.2,25.612l4.978,29.144,31.644,19.144c4.275,1.153.641-19.923,7.077-29.63,2.413-3.639,2.622-6.364,2.413-8.043.61-6.352-4.48-10.317-5.2-16.742-.8-9.305-.76-14.461-4.809-15.5l-21.9-3.985" transform="translate(-89.759 -204.585)" fill="#455a64"/>
      </g>
      <g id="Group_9915" data-name="Group 9915" transform="translate(77.484 63.634)">
        <g id="Group_9914" data-name="Group 9914">
          <path id="Path_7216" data-name="Path 7216" d="M135.634,223.441a8.691,8.691,0,0,0-.005,4.084,16.543,16.543,0,0,0,1.7,4.134,35.415,35.415,0,0,1,2.469,5,15.917,15.917,0,0,1,.136,10.034,14.256,14.256,0,0,1-1.234,2.816,4.581,4.581,0,0,1-.636.929,26.158,26.158,0,0,0,1.565-3.837,16.279,16.279,0,0,0-.255-9.792,38.441,38.441,0,0,0-2.412-4.954,15.886,15.886,0,0,1-1.641-4.26,7.717,7.717,0,0,1-.05-3.083,4.551,4.551,0,0,1,.233-.807C135.574,223.525,135.619,223.435,135.634,223.441Z" transform="translate(-135.136 -223.441)" fill="#263238"/>
        </g>
      </g>
      <g id="Group_9951" data-name="Group 9951" transform="translate(46.394 5.216)">
        <g id="Group_9950" data-name="Group 9950">
          <g id="Group_9949" data-name="Group 9949">
            <g id="Group_9918" data-name="Group 9918">
              <g id="Group_9917" data-name="Group 9917">
                <g id="Group_9916" data-name="Group 9916">
                  <path id="Path_7217" data-name="Path 7217" d="M123.154,202.944c-.455-4.767-.846-9.794-.846-9.794s6.04-1.624,6.523-9.76c.462-7.759-1.885-21.271-1.885-21.271v-.685c-9.192-2.734-20.072-2.626-25.678,5.068h0l4.328,38.66c.5,4.488,4.762,7.631,9.563,7.056h0C120.01,211.635,123.587,207.486,123.154,202.944Z" transform="translate(-101.269 -159.806)" fill="#ffbe9d"/>
                </g>
              </g>
            </g>
            <g id="Group_9926" data-name="Group 9926" transform="translate(21.598 10.099)">
              <g id="Group_9921" data-name="Group 9921" transform="translate(2.023 1.192)">
                <g id="Group_9920" data-name="Group 9920">
                  <g id="Group_9919" data-name="Group 9919">
                    <path id="Path_7218" data-name="Path 7218" d="M129.047,172.94a1.032,1.032,0,0,1-.889,1.134.988.988,0,0,1-1.15-.822,1.033,1.033,0,0,1,.888-1.135A.988.988,0,0,1,129.047,172.94Z" transform="translate(-127 -172.105)" fill="#263238"/>
                  </g>
                </g>
              </g>
              <g id="Group_9925" data-name="Group 9925">
                <g id="Group_9924" data-name="Group 9924">
                  <g id="Group_9923" data-name="Group 9923">
                    <g id="Group_9922" data-name="Group 9922">
                      <path id="Path_7219" data-name="Path 7219" d="M128.863,171.7c-.114.146-.949-.353-2.055-.241s-1.861.745-1.994.621c-.065-.053.041-.308.369-.6a2.836,2.836,0,0,1,1.58-.663,2.722,2.722,0,0,1,1.652.36C128.781,171.406,128.92,171.637,128.863,171.7Z" transform="translate(-124.796 -170.807)" fill="#263238"/>
                    </g>
                  </g>
                </g>
              </g>
            </g>
            <g id="Group_9934" data-name="Group 9934" transform="translate(10.102 11.636)">
              <g id="Group_9929" data-name="Group 9929" transform="translate(2.024 1.147)">
                <g id="Group_9928" data-name="Group 9928">
                  <g id="Group_9927" data-name="Group 9927">
                    <path id="Path_7220" data-name="Path 7220" d="M116.525,174.565a1.033,1.033,0,0,1-.889,1.135.988.988,0,0,1-1.15-.823,1.033,1.033,0,0,1,.888-1.135A.989.989,0,0,1,116.525,174.565Z" transform="translate(-114.478 -173.731)" fill="#263238"/>
                  </g>
                </g>
              </g>
              <g id="Group_9933" data-name="Group 9933">
                <g id="Group_9932" data-name="Group 9932">
                  <g id="Group_9931" data-name="Group 9931">
                    <g id="Group_9930" data-name="Group 9930">
                      <path id="Path_7221" data-name="Path 7221" d="M116.341,173.377c-.115.147-.95-.353-2.055-.241s-1.861.745-1.995.621c-.064-.054.04-.308.37-.6a2.833,2.833,0,0,1,1.58-.663,2.725,2.725,0,0,1,1.652.36C116.257,173.08,116.4,173.311,116.341,173.377Z" transform="translate(-112.273 -172.481)" fill="#263238"/>
                    </g>
                  </g>
                </g>
              </g>
            </g>
            <g id="Group_9938" data-name="Group 9938" transform="translate(17.567 11.173)">
              <g id="Group_9937" data-name="Group 9937">
                <g id="Group_9936" data-name="Group 9936">
                  <g id="Group_9935" data-name="Group 9935">
                    <path id="Path_7222" data-name="Path 7222" d="M121.826,181.14a7.374,7.374,0,0,1,1.764-.5c.28-.057.542-.139.57-.336a1.445,1.445,0,0,0-.271-.819l-1.047-2.067a37.046,37.046,0,0,1-2.428-5.438,37.25,37.25,0,0,1,2.861,5.231q.529,1.091,1.013,2.083a1.645,1.645,0,0,1,.255,1.094.711.711,0,0,1-.423.458,1.953,1.953,0,0,1-.473.114A7.225,7.225,0,0,1,121.826,181.14Z" transform="translate(-120.405 -171.977)" fill="#263238"/>
                  </g>
                </g>
              </g>
            </g>
            <g id="Group_9941" data-name="Group 9941" transform="translate(10.029 31.537)">
              <g id="Group_9940" data-name="Group 9940">
                <g id="Group_9939" data-name="Group 9939">
                  <path id="Path_7223" data-name="Path 7223" d="M123.2,195.966a20.476,20.476,0,0,1-11.01-1.807s3.144,5.246,11.089,3.708Z" transform="translate(-112.194 -194.159)" fill="#eb996e"/>
                </g>
              </g>
            </g>
            <g id="Group_9944" data-name="Group 9944" transform="translate(15.547 22.44)">
              <g id="Group_9943" data-name="Group 9943">
                <g id="Group_9942" data-name="Group 9942">
                  <path id="Path_7224" data-name="Path 7224" d="M121.441,184.856a2,2,0,0,0-1.859-.564,1.825,1.825,0,0,0-1.19.8,1.157,1.157,0,0,0,.042,1.327,1.343,1.343,0,0,0,1.485.224,4.211,4.211,0,0,0,1.33-.982,1.248,1.248,0,0,0,.284-.358.371.371,0,0,0-.042-.411" transform="translate(-118.205 -184.249)" fill="#e8505b"/>
                </g>
              </g>
            </g>
            <g id="Group_9948" data-name="Group 9948" transform="translate(15.68 21.421)">
              <g id="Group_9947" data-name="Group 9947">
                <g id="Group_9946" data-name="Group 9946">
                  <g id="Group_9945" data-name="Group 9945">
                    <path id="Path_7225" data-name="Path 7225" d="M118.479,183.14c.179-.028.3,1.171,1.41,1.921s2.376.493,2.4.66c.024.073-.263.262-.8.329a3,3,0,0,1-2-.483,2.61,2.61,0,0,1-1.105-1.619C118.292,183.451,118.4,183.141,118.479,183.14Z" transform="translate(-118.35 -183.139)" fill="#263238"/>
                  </g>
                </g>
              </g>
            </g>
          </g>
        </g>
      </g>
      <g id="Group_9952" data-name="Group 9952" transform="translate(2.459 157.278)">
        <path id="Path_7226" data-name="Path 7226" d="M81.277,325.447,68.992,376.082s-14.656,60.645-15.117,62.243l-.465,1.89,20.646,1.555,35.748-112.49Z" transform="translate(-53.411 -325.447)" fill="#263238"/>
      </g>
      <g id="Group_9953" data-name="Group 9953" transform="translate(29.106 99.449)">
        <path id="Path_7227" data-name="Path 7227" d="M120.818,355.828c3.343,16.152,15.593,83.895,15.593,83.895l20.935-2.147-11.907-86.4a28.416,28.416,0,0,0-1.363-6.627L124.5,285.866,87.672,262.454c-.364.019-5.963,15.12-5.156,25.605a26.8,26.8,0,0,0,4.7,13.058c2.342,3.418,5.6,8.182,6.33,9.283C94.712,312.16,120.818,355.828,120.818,355.828Z" transform="translate(-82.437 -262.454)" fill="#263238"/>
      </g>
      <g id="Group_9966" data-name="Group 9966" transform="translate(0 44.785)">
        <g id="Group_9954" data-name="Group 9954">
          <path id="Path_7228" data-name="Path 7228" d="M76.358,277.911q-1.517,5.474-2.5,11.07c-2.356,13.564-8.338,46.579-12.218,55.308-4.919,11.068-12.913,52.88-10.453,60.567s55.955,15.372,55.955,15.372,3.074-50.114,6.149-62.719,9.531-40.275,10.453-56.57.615-44.579-4.611-62.1-17.249-35.928-17.249-35.928-10.273,2.831-13.772,6.905c0,0-4.275,5.242-4.361,10.229s-2.366,28.712-3.917,42.5A123.376,123.376,0,0,1,76.358,277.911Z" transform="translate(-50.732 -202.908)" fill="#e8505b"/>
        </g>
        <g id="Group_9956" data-name="Group 9956" transform="translate(51.081 9.763)">
          <g id="Group_9955" data-name="Group 9955">
            <path id="Path_7229" data-name="Path 7229" d="M128.355,300.99a.973.973,0,0,1-.03-.25c-.012-.191-.027-.432-.044-.734-.033-.678-.079-1.623-.138-2.825a89.384,89.384,0,0,0-1-10.33,35.273,35.273,0,0,0-1.874-6.884,26.942,26.942,0,0,0-4.124-7.037c-1.778-2.28-3.882-4.487-5.922-6.912a43.42,43.42,0,0,1-2.928-3.856,22.465,22.465,0,0,1-2.275-4.454,14.555,14.555,0,0,1-.534-9.727,19.367,19.367,0,0,1,2.257-4.1,7.7,7.7,0,0,0,.9-1.991,3.092,3.092,0,0,0,.082-1.025,2.211,2.211,0,0,0-.345-.929,3.093,3.093,0,0,0-1.613-1.155c-.645-.249-1.329-.427-1.976-.726a3.791,3.791,0,0,1-1.62-1.353,4.872,4.872,0,0,1-.7-1.911,12.838,12.838,0,0,1,.1-3.776q.256-1.779.492-3.412c.636-4.32,1.151-7.828,1.514-10.291.185-1.189.33-2.124.434-2.8l.124-.725a1.027,1.027,0,0,1,.058-.244,1.055,1.055,0,0,1-.012.251c-.021.19-.047.431-.08.732-.084.674-.2,1.613-.351,2.806-.328,2.469-.8,5.983-1.372,10.311q-.222,1.634-.464,3.416a12.547,12.547,0,0,0-.076,3.667,4.5,4.5,0,0,0,.647,1.759,3.4,3.4,0,0,0,1.465,1.206c.6.278,1.28.451,1.955.707a3.491,3.491,0,0,1,1.816,1.307,2.632,2.632,0,0,1,.413,1.1,3.5,3.5,0,0,1-.086,1.175,8.1,8.1,0,0,1-.937,2.111,19.076,19.076,0,0,0-2.21,4.026,14.158,14.158,0,0,0,.538,9.427,27.751,27.751,0,0,0,5.12,8.184c2.022,2.414,4.126,4.632,5.911,6.94a27.116,27.116,0,0,1,4.145,7.156,35.114,35.114,0,0,1,1.84,6.967,81.462,81.462,0,0,1,.856,10.377c.022,1.2.04,2.149.052,2.828v.736A1.067,1.067,0,0,1,128.355,300.99Z" transform="translate(-106.375 -213.543)" fill="#263238"/>
          </g>
        </g>
        <g id="Group_9958" data-name="Group 9958" transform="translate(65.664 103.584)">
          <g id="Group_9957" data-name="Group 9957">
            <path id="Path_7230" data-name="Path 7230" d="M122.835,316.217c-.018-.018.049-.14.255-.274a1.452,1.452,0,0,1,1.012-.178,1.421,1.421,0,0,1,1.157,1.024,1.539,1.539,0,0,1-2.538,1.574,1.4,1.4,0,0,1-.383-1.5,1.431,1.431,0,0,1,.635-.809c.217-.118.356-.116.363-.091a1.909,1.909,0,0,0-.69.984,1.082,1.082,0,0,0,.348,1.1,1.136,1.136,0,0,0,1.864-1.157,1.107,1.107,0,0,0-.823-.817A1.989,1.989,0,0,0,122.835,316.217Z" transform="translate(-122.261 -315.742)" fill="#263238"/>
          </g>
        </g>
        <g id="Group_9960" data-name="Group 9960" transform="translate(59.938 133.386)">
          <g id="Group_9959" data-name="Group 9959">
            <path id="Path_7231" data-name="Path 7231" d="M116.6,348.681c-.018-.018.049-.14.255-.274a1.452,1.452,0,0,1,1.012-.178,1.422,1.422,0,0,1,1.157,1.025,1.539,1.539,0,0,1-2.538,1.573,1.4,1.4,0,0,1-.383-1.5,1.431,1.431,0,0,1,.635-.809c.217-.117.356-.116.363-.091a1.915,1.915,0,0,0-.69.984,1.081,1.081,0,0,0,.348,1.1,1.136,1.136,0,0,0,1.864-1.157,1.107,1.107,0,0,0-.823-.817A1.989,1.989,0,0,0,116.6,348.681Z" transform="translate(-116.023 -348.206)" fill="#263238"/>
          </g>
        </g>
        <g id="Group_9965" data-name="Group 9965" transform="translate(28.254 96.574)">
          <g id="Group_9962" data-name="Group 9962">
            <g id="Group_9961" data-name="Group 9961">
              <path id="Path_7232" data-name="Path 7232" d="M113.585,308.108a1.969,1.969,0,0,1-.01.291c-.019.215-.045.495-.077.849-.084.773-.2,1.864-.354,3.257-.332,2.826-.829,6.914-1.587,11.947-.382,2.515-.829,5.268-1.441,8.2a26.939,26.939,0,0,1-1.25,4.5,4.184,4.184,0,0,1-.265.564,2.181,2.181,0,0,1-.431.495,4.294,4.294,0,0,1-1.069.689,13.077,13.077,0,0,1-2.391.823A56.7,56.7,0,0,1,94.2,340.915a107.568,107.568,0,0,1-11.351-.135c-.157-.013-.318-.032-.479-.054a.717.717,0,0,1-.521-.379,2.773,2.773,0,0,1-.271-.982,12.836,12.836,0,0,1-.055-1.891c.043-1.245.162-2.467.3-3.672.283-2.41.654-4.754,1.041-7.029.782-4.551,1.639-8.828,2.483-12.751l.03-.141.144-.012a121.353,121.353,0,0,0,20.467-3.555c2.432-.641,4.326-1.213,5.616-1.608l1.494-.456c.332-.1.5-.148.489-.14a1.3,1.3,0,0,1-.135.055l-.378.141c-.334.122-.8.3-1.432.515-1.279.433-3.165,1.041-5.593,1.715a116.081,116.081,0,0,1-20.493,3.724l.174-.154c-.825,3.92-1.667,8.2-2.438,12.74-.381,2.272-.747,4.611-1.026,7.008-.137,1.2-.253,2.413-.3,3.634a12.517,12.517,0,0,0,.053,1.821,2.377,2.377,0,0,0,.213.812c.073.109.1.146.2.16.149.02.3.038.454.051a109.2,109.2,0,0,0,11.293.141,56.786,56.786,0,0,0,10.429-1.152,12.68,12.68,0,0,0,2.313-.785,2.676,2.676,0,0,0,1.583-1.548,26.94,26.94,0,0,0,1.245-4.412c.625-2.917,1.091-5.664,1.492-8.174.8-5.021,1.343-9.1,1.728-11.92.187-1.387.335-2.475.439-3.246.05-.352.091-.63.121-.844C113.56,308.219,113.583,308.114,113.585,308.108Z" transform="translate(-81.51 -308.107)" fill="#263238"/>
            </g>
          </g>
          <g id="Group_9964" data-name="Group 9964" transform="translate(2.763 6.306)">
            <g id="Group_9963" data-name="Group 9963">
              <path id="Path_7233" data-name="Path 7233" d="M113.277,314.98a5.729,5.729,0,0,1-1.033.532c-.674.321-1.673.738-2.924,1.207a55.031,55.031,0,0,1-20.5,3.411c-1.336-.038-2.415-.109-3.157-.195a5.66,5.66,0,0,1-1.148-.169,5.852,5.852,0,0,1,1.159-.006c.744.032,1.821.053,3.15.051a62.963,62.963,0,0,0,20.385-3.393c1.258-.429,2.269-.8,2.963-1.069A5.72,5.72,0,0,1,113.277,314.98Z" transform="translate(-84.519 -314.976)" fill="#263238"/>
            </g>
          </g>
        </g>
      </g>
      <g id="Group_9976" data-name="Group 9976" transform="translate(2.497 48.308)">
        <g id="Group_9968" data-name="Group 9968" transform="translate(8.748)">
          <g id="Group_9967" data-name="Group 9967">
            <path id="Path_7234" data-name="Path 7234" d="M62.981,281.715s.017-.14.074-.408c.063-.286.15-.68.262-1.187.25-1.06.61-2.589,1.071-4.548.952-3.944,2.4-9.635,4.271-16.644l3.1-11.452c1.129-4.113,2.309-8.516,3.72-13.106a106.377,106.377,0,0,1,5.332-14.09,65.72,65.72,0,0,1,3.837-7,25.431,25.431,0,0,1,2.39-3.332,10.317,10.317,0,0,1,3.267-2.619,5.588,5.588,0,0,1,4.177-.322,7.2,7.2,0,0,1,3.346,2.446c1.729,2.226,2.155,5.03,2.407,7.6.442,5.2.868,10.218,1.274,15,.8,9.554,1.517,18.16,2.122,25.394.586,7.216,1.06,13.061,1.391,17.124.153,2.007.273,3.572.355,4.658.035.517.062.92.082,1.212.016.274.012.415.012.415s-.028-.139-.058-.411c-.03-.291-.073-.692-.126-1.208-.1-1.084-.251-2.647-.44-4.65-.364-4.061-.888-9.9-1.534-17.112-.632-7.232-1.383-15.835-2.218-25.387-.414-4.778-.849-9.792-1.3-14.991-.249-2.556-.685-5.274-2.32-7.369a6.77,6.77,0,0,0-3.131-2.3,5.137,5.137,0,0,0-3.847.3,9.893,9.893,0,0,0-3.12,2.508,24.922,24.922,0,0,0-2.35,3.276,65.624,65.624,0,0,0-3.817,6.946,107.121,107.121,0,0,0-5.335,14.024c-1.418,4.575-2.611,8.973-3.756,13.082s-2.191,7.938-3.156,11.436c-1.913,7-3.4,12.673-4.407,16.6-.5,1.95-.885,3.472-1.154,4.527l-.3,1.176C63.029,281.582,62.981,281.715,62.981,281.715Z" transform="translate(-62.981 -206.746)" fill="#455a64"/>
          </g>
        </g>
        <g id="Group_9975" data-name="Group 9975" transform="translate(0 71.987)">
          <g id="Group_9969" data-name="Group 9969">
            <path id="Path_7235" data-name="Path 7235" d="M60.077,285.161c-.337,1.349-6.625,37.128-6.625,37.128L100.23,323.8l6.44-37.1Z" transform="translate(-53.452 -285.161)" fill="#263238"/>
          </g>
          <g id="Group_9971" data-name="Group 9971" transform="translate(6.961 0.554)">
            <g id="Group_9970" data-name="Group 9970">
              <path id="Path_7236" data-name="Path 7236" d="M106.81,287.431a2.235,2.235,0,0,1-.421.319c-.284.2-.709.48-1.261.834-1.106.708-2.726,1.706-4.769,2.863s-4.507,2.488-7.315,3.823c-1.414.657-2.875,1.354-4.491,1.938a15.672,15.672,0,0,1-5.22.762,24.488,24.488,0,0,1-9.791-2.531,35.664,35.664,0,0,1-6.933-4.5c-1.83-1.482-3.209-2.794-4.156-3.7-.469-.459-.831-.819-1.069-1.07a2.361,2.361,0,0,1-.349-.4,2.361,2.361,0,0,1,.412.331l1.126,1.007c.98.869,2.391,2.141,4.234,3.582a36.865,36.865,0,0,0,6.911,4.378,24.456,24.456,0,0,0,9.623,2.457,15.384,15.384,0,0,0,5.072-.73c1.562-.557,3.051-1.254,4.453-1.895,2.806-1.309,5.278-2.608,7.337-3.725s3.7-2.074,4.832-2.735l1.305-.761A2.325,2.325,0,0,1,106.81,287.431Z" transform="translate(-61.034 -285.764)" fill="#455a64"/>
            </g>
          </g>
          <g id="Group_9973" data-name="Group 9973" transform="translate(43.822 3.817)">
            <g id="Group_9972" data-name="Group 9972">
              <path id="Path_7237" data-name="Path 7237" d="M107.241,289.319c.122.021-1.132,7.813-2.8,17.4s-3.121,17.349-3.244,17.327,1.132-7.811,2.8-17.4S107.118,289.3,107.241,289.319Z" transform="translate(-101.188 -289.319)" fill="#455a64"/>
            </g>
          </g>
          <g id="Group_9974" data-name="Group 9974" transform="translate(27.453 11.127)">
            <path id="Path_7238" data-name="Path 7238" d="M83.774,297.511l-.375,3.484a3.015,3.015,0,0,0,.017,1.1.91.91,0,0,0,1.761.173,3,3,0,0,0,.249-1.251q.1-1.867.2-3.734l-1.537.011" transform="translate(-83.357 -297.282)" fill="#455a64"/>
          </g>
        </g>
      </g>
      <g id="Group_9996" data-name="Group 9996" transform="translate(18.542 49.305)">
        <g id="Group_9982" data-name="Group 9982">
          <g id="Group_9977" data-name="Group 9977">
            <path id="Path_7239" data-name="Path 7239" d="M92.4,208.036c3.8-1.272,6.974,3.656,7.411,7.636a87.216,87.216,0,0,1,.261,13.8c-.691,13.627-6.857,26.667-6.857,26.667l39.124,5.848L130.9,277.038,81.423,271.73a11.727,11.727,0,0,1-9.971-15.1c4.422-14.374,11.644-35.1,13.272-38.543C86.912,213.468,87.158,209.79,92.4,208.036Z" transform="translate(-70.93 -207.831)" fill="#e8505b"/>
          </g>
          <g id="Group_9979" data-name="Group 9979" transform="translate(8.63 22.095)">
            <g id="Group_9978" data-name="Group 9978">
              <path id="Path_7240" data-name="Path 7240" d="M80.33,273.35a1.139,1.139,0,0,1,.255.021l.743.1,2.87.427c2.5.347,6.148.862,10.722,1.392,9.146,1.08,22,2.365,36.765,3.5l-.234.2c.454-4.789.935-9.839,1.428-15.028l0-.022.189.243-39.113-5.89-.214-.032.065-.2c2.547-7.872,4.494-14.382,5.651-18.963.584-2.29.991-4.09,1.246-5.318.122-.6.217-1.063.285-1.4.066-.317.114-.477.114-.477s-.011.167-.06.487-.117.8-.234,1.413c-.221,1.237-.6,3.048-1.151,5.347-1.1,4.6-3,11.136-5.506,19.023L94,257.936l39.135,5.8.209.03-.02.213,0,.022c-.5,5.189-.981,10.238-1.44,15.027l-.02.215-.214-.016c-14.773-1.161-27.624-2.5-36.767-3.659-4.573-.568-8.213-1.126-10.711-1.521l-2.86-.5-.737-.14A1.288,1.288,0,0,1,80.33,273.35Z" transform="translate(-80.33 -231.9)" fill="#263238"/>
            </g>
          </g>
          <g id="Group_9981" data-name="Group 9981" transform="translate(52.228 53.008)">
            <g id="Group_9980" data-name="Group 9980">
              <path id="Path_7241" data-name="Path 7241" d="M127.856,281.146a68,68,0,0,1,.5-7.807,67.884,67.884,0,0,1,.946-7.766,68.037,68.037,0,0,1-.5,7.808A67.916,67.916,0,0,1,127.856,281.146Z" transform="translate(-127.822 -265.573)" fill="#263238"/>
            </g>
          </g>
        </g>
        <g id="Group_9984" data-name="Group 9984" transform="translate(55.84 55.27)">
          <g id="Group_9983" data-name="Group 9983">
            <path id="Path_7242" data-name="Path 7242" d="M133.158,268.334c0-.027.1-.068.295-.036a1.091,1.091,0,0,1,.674.454,1.126,1.126,0,0,1,.063,1.234,1.33,1.33,0,0,1-1.375.641,1.373,1.373,0,0,1-1.037-1.1,1.251,1.251,0,0,1,.41-1.158c.558-.473,1.054-.31,1.024-.265.009.071-.42.062-.8.489a.955.955,0,0,0-.23.853,1,1,0,0,0,.72.744.951.951,0,0,0,.933-.415.81.81,0,0,0,.02-.849C133.583,268.424,133.142,268.4,133.158,268.334Z" transform="translate(-131.756 -268.037)" fill="#263238"/>
          </g>
        </g>
        <g id="Group_9995" data-name="Group 9995" transform="translate(60.113 45.652)">
          <g id="Group_9993" data-name="Group 9993" transform="translate(8.876)">
            <g id="Group_9986" data-name="Group 9986" transform="translate(0.847 4.115)">
              <g id="Group_9985" data-name="Group 9985">
                <path id="Path_7243" data-name="Path 7243" d="M147,262.043l1.788,18.537h9.034l2.164-18.537Z" transform="translate(-147.002 -262.043)" fill="#ebebeb"/>
              </g>
            </g>
            <g id="Group_9988" data-name="Group 9988" transform="translate(0 1.72)">
              <g id="Group_9987" data-name="Group 9987">
                <path id="Path_7244" data-name="Path 7244" d="M146.926,259.433a3.864,3.864,0,0,0-.846,2.446h14.679a2.736,2.736,0,0,0-.847-2.446Z" transform="translate(-146.08 -259.433)" fill="#455a64"/>
              </g>
            </g>
            <g id="Group_9990" data-name="Group 9990" transform="translate(2.024)">
              <g id="Group_9989" data-name="Group 9989">
                <path id="Path_7245" data-name="Path 7245" d="M148.782,257.581l-.5,1.834,11.08.083-.731-1.939Z" transform="translate(-148.285 -257.56)" fill="#455a64"/>
              </g>
            </g>
            <g id="Group_9992" data-name="Group 9992" transform="translate(0.661 8.755)">
              <g id="Group_9991" data-name="Group 9991">
                <path id="Path_7246" data-name="Path 7246" d="M146.8,267.1c0,.173,1.075,9.331,1.075,9.331H158.92l1.051-9.331Z" transform="translate(-146.8 -267.097)" fill="#455a64"/>
              </g>
            </g>
          </g>
          <g id="Group_9994" data-name="Group 9994" transform="translate(0 7.062)">
            <path id="Path_7247" data-name="Path 7247" d="M146.636,265.309l-.285,3.1,10.695.252s0,3.607-1.081,4.688c0,0,1.081,2.164-.12,3.366s-1.923.842-1.923.842.48,2.4-.722,3-16.789-.329-16.789-.329l.957-10.034,3.484-.31C140.972,266.574,144.414,264.919,146.636,265.309Z" transform="translate(-136.411 -265.253)" fill="#ffbe9d"/>
          </g>
        </g>
      </g>
      <g id="Group_9997" data-name="Group 9997" transform="translate(35.365 0)">
        <path id="Path_7248" data-name="Path 7248" d="M129.243,161.727a7.941,7.941,0,0,0-3.4-4.3,5.953,5.953,0,0,0-3.621-.744l.012-.025-.021-.26c-1.164-2.087-3.459-2.537-5.829-2.142s-4.7,2.129-6.812,3.253c-2.854,1.52-5.584,3.262-8.311,5-2.266,1.445-4.588,2.943-6.151,5.129a10.67,10.67,0,0,0-1.791,8.042c.558,3.03,2.432,6.106,1.322,8.98-.74,1.917-2.621,3.118-3.858,4.759a7.7,7.7,0,0,0-.163,8.964c1.26,1.689,3.193,2.709,4.952,3.869,2.8,1.844,5.3,4.163,8.308,5.638s6.818,1.958,9.59.074c2.854-1.94,3.766-5.843,3.257-9.256s-2.155-6.529-3.476-9.717a53.664,53.664,0,0,1-3.551-12.96,8.58,8.58,0,0,1,.45-5.265,11.161,11.161,0,0,1,3.467-3.294,27.677,27.677,0,0,0,7.42-8.475A10.776,10.776,0,0,0,124,163.143a26.678,26.678,0,0,0,5.826,4.118A13.517,13.517,0,0,0,129.243,161.727Z" transform="translate(-89.255 -154.123)" fill="#263238"/>
      </g>
    </g>
    <g id="Group_10061" data-name="Group 10061" transform="translate(-18282.588 -7120.517)">
      <g id="Group_9999" data-name="Group 9999" transform="translate(26.856 48.853)">
        <path id="Path_7249" data-name="Path 7249" d="M430.146,397.725c-.612-2.431.993-4.859,2.787-6.61s3.936-3.317,4.878-5.64c1.526-3.765-.469-8.662,2.115-11.795,1.52-1.843,4.231-2.447,5.582-4.418a10.138,10.138,0,0,0,1.227-3.528,35.913,35.913,0,0,1,9.025-16.661,31.159,31.159,0,0,1-3.595,16.086c-1.05,1.973-2.338,3.9-2.694,6.1-.58,3.583,1.4,7.29.5,10.806-1.031,4.022-5.571,6.692-5.808,10.837-.2,3.5,2.836,6.6,2.589,10.1a9.459,9.459,0,0,1-1.584,4.148c-2.736,4.491-6.735,7.571-12.769,7.436l-7.393.217Z" transform="translate(-425.007 -349.073)" fill="#e8505b"/>
      </g>
      <g id="Group_10001" data-name="Group 10001" transform="translate(26.856 48.853)" opacity="0.3">
        <g id="Group_10000" data-name="Group 10000">
          <path id="Path_7250" data-name="Path 7250" d="M430.146,397.725c-.612-2.431.993-4.859,2.787-6.61s3.936-3.317,4.878-5.64c1.526-3.765-.469-8.662,2.115-11.795,1.52-1.843,4.231-2.447,5.582-4.418a10.138,10.138,0,0,0,1.227-3.528,35.913,35.913,0,0,1,9.025-16.661,31.159,31.159,0,0,1-3.595,16.086c-1.05,1.973-2.338,3.9-2.694,6.1-.58,3.583,1.4,7.29.5,10.806-1.031,4.022-5.571,6.692-5.808,10.837-.2,3.5,2.836,6.6,2.589,10.1a9.459,9.459,0,0,1-1.584,4.148c-2.736,4.491-6.735,7.571-12.769,7.436l-7.393.217Z" transform="translate(-425.007 -349.073)"/>
        </g>
      </g>
      <g id="Group_10011" data-name="Group 10011">
        <g id="Group_10006" data-name="Group 10006" transform="translate(0 23.139)">
          <g id="Group_10003" data-name="Group 10003">
            <g id="Group_10002" data-name="Group 10002">
              <path id="Path_7251" data-name="Path 7251" d="M421.11,412.694a5.9,5.9,0,0,1-2.035-.056,12.277,12.277,0,0,1-2.4-.618,10.178,10.178,0,0,1-2.958-1.641,4.136,4.136,0,0,1-1.211-1.633,7.65,7.65,0,0,1-.336-2.211,21.319,21.319,0,0,0-.159-2.391,6.583,6.583,0,0,0-.89-2.382c-.863-1.536-2.3-2.994-2.758-5.075a16.762,16.762,0,0,1,.238-6.478c.356-2.215.7-4.63-.133-6.944-.779-2.316-2.389-4.412-3.185-7.024-.792-2.637-.4-5.466-.554-8.258a10.953,10.953,0,0,0-.94-4.109c-.59-1.312-1.413-2.55-2.053-3.931-1.3-2.793-1.51-5.95-1.852-9.045q-.249-2.338-.5-4.726a23.134,23.134,0,0,0-.8-4.731,41.593,41.593,0,0,0-1.741-4.584,15.138,15.138,0,0,1-.845-2.394,24.2,24.2,0,0,1-.224-2.544,29.963,29.963,0,0,1,.226-5.116c.21-1.7.528-3.394.721-5.1l.035-.295.04-.342.3.154a11.407,11.407,0,0,1,3.96,3.381,18.127,18.127,0,0,1,2.42,4.519,55.522,55.522,0,0,1,2.246,9.693,26.3,26.3,0,0,0,2.986,8.956c.8,1.32,1.775,2.528,2.626,3.817a10.442,10.442,0,0,1,1.81,4.224c.42,3.13-1.318,5.866-.975,8.637a9.589,9.589,0,0,0,1.326,3.843c.665,1.184,1.448,2.284,2.189,3.389a21.635,21.635,0,0,1,1.965,3.421,10.815,10.815,0,0,1,.888,3.712c.166,2.493-.2,4.856-.032,7.09a16.318,16.318,0,0,0,1.79,6.085c.883,1.823,1.868,3.473,2.693,5.073a25.726,25.726,0,0,1,1.107,2.362,11.577,11.577,0,0,1,.635,2.34,14.738,14.738,0,0,1,.031,4.219,10.622,10.622,0,0,1-2.146,5.369,5.111,5.111,0,0,1-.6.644,2.989,2.989,0,0,1-.487.409c-.277.2-.425.294-.425.294a9.408,9.408,0,0,0,1.439-1.408,10.707,10.707,0,0,0,2.036-5.332,14.678,14.678,0,0,0-.071-4.159,11.376,11.376,0,0,0-.641-2.285c-.31-.765-.7-1.54-1.114-2.331-.831-1.585-1.826-3.229-2.729-5.064a16.59,16.59,0,0,1-1.853-6.193c-.182-2.281.175-4.652,0-7.087a10.449,10.449,0,0,0-.871-3.586,21.312,21.312,0,0,0-1.942-3.353c-.742-1.1-1.533-2.2-2.217-3.411a9.99,9.99,0,0,1-1.388-4c-.339-2.951,1.386-5.706.958-8.615a10.036,10.036,0,0,0-1.749-4.038c-.837-1.265-1.815-2.474-2.642-3.828a26.7,26.7,0,0,1-3.056-9.107,55.3,55.3,0,0,0-2.232-9.611,17.649,17.649,0,0,0-2.356-4.4,10.952,10.952,0,0,0-3.792-3.242l.344-.187-.035.3c-.2,1.729-.514,3.421-.722,5.106a29.443,29.443,0,0,0-.224,5.037,23.959,23.959,0,0,0,.213,2.467,14.889,14.889,0,0,0,.816,2.309,42.228,42.228,0,0,1,1.755,4.635,23.528,23.528,0,0,1,.805,4.81q.251,2.389.5,4.73c.335,3.108.549,6.214,1.8,8.909.616,1.342,1.438,2.584,2.045,3.938a11.369,11.369,0,0,1,.967,4.262c.145,2.853-.242,5.639.515,8.17s2.352,4.626,3.153,7.016c.858,2.415.483,4.91.118,7.117a16.51,16.51,0,0,0-.275,6.355c.416,1.987,1.812,3.432,2.693,5.011a6.859,6.859,0,0,1,.9,2.477,21.376,21.376,0,0,1,.141,2.421,7.5,7.5,0,0,0,.3,2.15,3.956,3.956,0,0,0,1.138,1.562,10.131,10.131,0,0,0,2.885,1.65,12.7,12.7,0,0,0,2.364.656,9.438,9.438,0,0,0,1.5.153C420.934,412.687,421.11,412.694,421.11,412.694Z" transform="translate(-395.753 -321.062)" fill="#263238"/>
            </g>
          </g>
          <g id="Group_10005" data-name="Group 10005" transform="translate(2.494 4.421)">
            <g id="Group_10004" data-name="Group 10004">
              <path id="Path_7252" data-name="Path 7252" d="M398.473,325.878a.858.858,0,0,1,.071.224l.16.666c.141.583.31,1.463.583,2.562s.948,2.339,1.513,3.869c.588,1.518,1.182,3.277,1.728,5.253s1.04,4.166,1.549,6.514A27.425,27.425,0,0,0,406.4,352.2c.6,1.2,1.274,2.424,1.809,3.756a17.43,17.43,0,0,1,1.04,4.248,85.838,85.838,0,0,0,1.543,8.952c1.448,6.065,2.827,11.842,4.081,17.1,1.287,5.243,2.447,9.967,3.423,13.949.951,3.946,1.723,7.152,2.268,9.414q.377,1.628.593,2.566c.058.271.1.491.143.67a.833.833,0,0,1,.032.232.865.865,0,0,1-.08-.221l-.188-.658q-.249-.928-.68-2.544l-2.415-9.378c-1.006-3.976-2.2-8.692-3.522-13.924-1.268-5.262-2.66-11.041-4.122-17.108a84.563,84.563,0,0,1-1.539-8.988,17.055,17.055,0,0,0-1-4.144c-.515-1.3-1.18-2.512-1.779-3.729a27.566,27.566,0,0,1-2.318-7.343c-.493-2.354-.958-4.54-1.488-6.51s-1.09-3.727-1.651-5.246c-.535-1.526-1.177-2.783-1.443-3.916-.25-1.126-.385-2-.5-2.591-.046-.273-.083-.5-.113-.676A.922.922,0,0,1,398.473,325.878Z" transform="translate(-398.47 -325.878)" fill="#263238"/>
            </g>
          </g>
        </g>
        <g id="Group_10010" data-name="Group 10010" transform="translate(19.024)">
          <g id="Group_10007" data-name="Group 10007">
            <path id="Path_7253" data-name="Path 7253" d="M421.5,410.642c-4.811-2.9-6.148-11.616-4.1-16.847s5.6-10,6.172-15.589c.442-4.3-.94-8.714.085-12.907,1.383-5.66,6.941-10.019,6.911-15.847-.017-3.269-1.86-6.355-1.693-9.621.2-4,3.3-7.165,5.222-10.684,2.945-5.384,3.173-11.77,4.2-17.821s3.376-12.524,8.761-15.47c.764,5.146,2.1,8.676,1.632,15.639-.167,2.5-3.1,7.274-3.527,12.754-.254,3.275-.437,6.556-.656,9.835a31.525,31.525,0,0,1-1.6,9.417c-.89,2.283-2.31,4.353-2.974,6.712-1.249,4.437.332,9.259-.682,13.756-.86,3.81-3.518,7.078-4.08,10.943-.789,5.43,2.7,11.1.867,16.27-.908,2.567-3.036,4.62-3.651,7.273-.477,2.058.018,4.243-.416,6.311-.7,3.331-7.075,5.886-10.471,5.66" transform="translate(-416.477 -295.857)" fill="#e8505b"/>
          </g>
          <g id="Group_10009" data-name="Group 10009" transform="translate(5.026 5.097)">
            <g id="Group_10008" data-name="Group 10008">
              <path id="Path_7254" data-name="Path 7254" d="M446.151,301.409a1.328,1.328,0,0,1-.023.29c-.028.217-.066.495-.113.845-.115.742-.246,1.832-.5,3.241-.277,1.417-1.017,3.008-1.612,4.93-.627,1.916-1.251,4.126-1.808,6.6s-1.041,5.212-1.542,8.161a34.2,34.2,0,0,1-2.527,9.223c-.686,1.54-1.454,3.08-2.033,4.722a21.234,21.234,0,0,0-1.048,5.211,105.519,105.519,0,0,1-1.479,11.239c-1.522,7.61-2.972,14.858-4.292,21.456-1.389,6.572-2.639,12.492-3.693,17.476-1.063,4.947-1.926,8.961-2.53,11.773-.3,1.363-.542,2.434-.711,3.2l-.2.828a1.3,1.3,0,0,1-.083.279,1.286,1.286,0,0,1,.035-.289l.151-.838.624-3.214c.568-2.819,1.381-6.844,2.381-11.8,1.024-4.99,2.242-10.918,3.592-17.5,1.308-6.6,2.744-13.843,4.252-21.451a106.639,106.639,0,0,0,1.484-11.2,21.624,21.624,0,0,1,1.083-5.315c.6-1.678,1.376-3.224,2.063-4.751a34.108,34.108,0,0,0,2.538-9.112c.517-2.942,1.014-5.69,1.6-8.168s1.23-4.695,1.884-6.61c.624-1.928,1.386-3.506,1.685-4.886.283-1.383.446-2.483.59-3.216.067-.346.119-.622.161-.836A1.3,1.3,0,0,1,446.151,301.409Z" transform="translate(-421.951 -301.409)" fill="#263238"/>
            </g>
          </g>
        </g>
      </g>
    </g>
  </g>
</svg>
