<svg xmlns="http://www.w3.org/2000/svg" width="125.389" height="32.358" viewBox="0 0 125.389 32.358"><defs><style>.a{fill:#4d76da;}</style></defs><g transform="translate(0 0)"><path class="a" d="M186.2,41.019c.4.145.486.458.663.683a12.463,12.463,0,0,0,9.809,4.987,6.2,6.2,0,0,0,6.4-5.151,6.3,6.3,0,0,0-3.922-7,6.208,6.208,0,0,0-7.664,2.738c-.09.147-.191.287-.372.56a14.5,14.5,0,0,0-2-4.26c-.3-.417.066-.651.313-.9a10.71,10.71,0,0,1,15.812.91A10.205,10.205,0,0,1,206.5,45.2a10.32,10.32,0,0,1-10.224,5.963A10.692,10.692,0,0,1,186.2,41.019Z" transform="translate(-169.024 -29.609)"/><path class="a" d="M186.7,45.018a11.212,11.212,0,0,1-6.524-6.343,7.041,7.041,0,0,0-2.8-3.611,6.267,6.267,0,0,0-9.566,5.249c-.054,3.3-.013,6.592-.015,9.887,0,1.076-.059,1.118-1.131.838a4.239,4.239,0,0,1-3.3-3.812,49.214,49.214,0,0,1,.12-8.613,10.739,10.739,0,0,1,21.2.033,12.42,12.42,0,0,1,.155,1.7A7.1,7.1,0,0,0,186.7,45.018Z" transform="translate(-163.233 -29.606)"/><path class="a" d="M186.284,49.909a11.99,11.99,0,0,0,4.015,5,.941.941,0,0,1,.323.879c-.005,3.508-.016,7.015.007,10.522,0,.669-.206.833-.847.7a4.447,4.447,0,0,1-3.635-4.222c-.043-4.2-.012-8.394-.008-12.59C186.139,50.145,186.183,50.1,186.284,49.909Z" transform="translate(-169.004 -34.689)"/><path class="a" d="M279.5,49.172c0,1.526-.031,2.75.01,3.972.026.771-.053,1.22-1.041,1.234-1.043.013-1-.527-.993-1.245.016-3.968,0-7.936.019-11.9,0-.4-.256-.993.387-1.113.47-.088,1.243-.269,1.4.168.369,1,.7.542,1.238.21a4.457,4.457,0,0,1,6.664,2.412c1.183,3.4-.393,6.88-3.412,7.553A4.694,4.694,0,0,1,279.5,49.172Zm-.017-3.932c.022,2.143,1.185,3.481,3.014,3.471,1.775-.01,3.005-1.454,3.007-3.528,0-2.041-1.261-3.57-2.978-3.6C280.731,41.545,279.458,43.076,279.48,45.24Z" transform="translate(-192.027 -32.154)"/><path class="a" d="M312.9,50.618a5.25,5.25,0,0,1-5.154-5.813,5.044,5.044,0,0,1,5.845-5,4.821,4.821,0,0,1,4,5.044c-.036.834-.467.865-1.084.86-1.79-.016-3.582.046-5.37-.022-1.361-.052-1.395.564-.912,1.526a2.989,2.989,0,0,0,5.028.428c.665-.965,1.328-.847,1.9-.343.63.552-.143,1.088-.459,1.517A4.646,4.646,0,0,1,312.9,50.618Zm-.236-6.506a4.226,4.226,0,0,0,.994-.013c.576-.145,1.522.471,1.676-.446a1.833,1.833,0,0,0-1.358-1.886,2.863,2.863,0,0,0-2.855.209c-.595.423-1.239,1.017-1.046,1.76.2.776,1.046.249,1.594.364A4.943,4.943,0,0,0,312.662,44.112Z" transform="translate(-199.663 -32.145)"/><path class="a" d="M244.112,45.693c-.839,0-1.678-.016-2.517,0-1.327.031-1.54.446-.855,1.627a2.975,2.975,0,0,0,4.937.328c.648-.941,1.283-.9,1.9-.377.677.572-.113,1.1-.43,1.509a4.965,4.965,0,0,1-6.643.971,5.712,5.712,0,0,1-1.728-7.2,4.826,4.826,0,0,1,9.239,2.086c.025.814-.239,1.107-1.047,1.062C246.016,45.652,245.063,45.693,244.112,45.693Zm-.976-1.593a2.983,2.983,0,0,0,.827-.013c.612-.184,1.665.555,1.792-.487a1.927,1.927,0,0,0-1.7-1.977,2.761,2.761,0,0,0-2.8.573c-.441.436-.962.966-.764,1.567.219.666.966.25,1.475.325A7.893,7.893,0,0,0,243.136,44.1Z" transform="translate(-182.126 -32.133)"/><path class="a" d="M298.693,45.694c-.838,0-1.68.054-2.513-.011-1.563-.123-1.387.67-.871,1.609a2.969,2.969,0,0,0,4.923.377c.643-.92,1.26-.938,1.9-.411.773.64-.111,1.169-.441,1.591a4.974,4.974,0,0,1-6.786.768,5.831,5.831,0,0,1-1.288-7.557,4.91,4.91,0,0,1,5.519-2.189,4.8,4.8,0,0,1,3.445,4.467c.073.948-.061,1.5-1.207,1.374A24.55,24.55,0,0,0,298.693,45.694Zm-.954-1.594a3.076,3.076,0,0,0,.832-.012c.618-.181,1.71.542,1.8-.475a2.009,2.009,0,0,0-1.721-1.993,2.876,2.876,0,0,0-2.686.473c-.522.45-1.074,1.052-.889,1.693s.978.236,1.5.3A9.046,9.046,0,0,0,297.739,44.1Z" transform="translate(-195.891 -32.134)"/><path class="a" d="M261.972,46.422c0,.953.016,1.906-.008,2.858-.009.34.292.879-.316.949-.514.059-1.361.34-1.507-.2-.285-1.067-.587-.526-1.048-.217a3.867,3.867,0,0,1-3.972.439,2.893,2.893,0,0,1-1.844-2.921,2.678,2.678,0,0,1,2.01-2.6c1.054-.337,2.186-.422,3.274-.658.565-.122,1.35-.07,1.3-.969a1.527,1.527,0,0,0-1.13-1.514c-1.191-.3-2.472-.371-3.024,1-.479,1.186-1.319.8-1.862.475-.723-.437-.091-1.109.2-1.585.91-1.478,3.021-2.119,5.1-1.615a3.521,3.521,0,0,1,2.775,3.541c.062,1,.011,2.017.011,3.026Zm-5.258,2.448a2.788,2.788,0,0,0,3.179-2.614c.036-.647-.2-.777-.756-.717-2.694.292-3.832.547-3.8,1.855A1.4,1.4,0,0,0,256.714,48.87Z" transform="translate(-185.933 -32.129)"/><path class="a" d="M224.335,45.05c0-1.286-.014-2.574.008-3.859.007-.407-.215-1,.434-1.1.466-.073,1.209-.3,1.387.175.4,1.061.744.336,1.147.1,2.7-1.593,5.455-.31,5.751,2.81.194,2.052.049,4.135.111,6.2.023.793-.354.885-1.014.918-.819.04-1.055-.255-1.029-1.049.051-1.621.046-3.245,0-4.866-.052-1.945-.815-2.842-2.321-2.849-1.473-.007-2.332.921-2.427,2.811-.081,1.618-.058,3.244-.021,4.864.017.748-.132,1.111-1,1.1-.8-.015-1.078-.253-1.048-1.06C224.374,47.848,224.335,46.448,224.335,45.05Z" transform="translate(-178.632 -32.128)"/><path class="a" d="M269.653,41.29a4.149,4.149,0,0,1,2.078-1.309c.552-.075,1.416-.6,1.532.575.078.8.144,1.451-1.1,1.512-1.817.089-2.482.946-2.554,2.839-.055,1.449-.06,2.9-.015,4.351.025.783-.2,1.071-1.026,1.076s-1.033-.265-1.02-1.053c.043-2.565-.012-5.133.04-7.7.01-.5-.466-1.3.524-1.492C268.982,39.927,269.651,40.108,269.653,41.29Z" transform="translate(-189.516 -32.158)"/><path class="a" d="M323.242,45.2c0-1.34-.016-2.679.01-4.019.008-.4-.229-1.027.459-1.043.523-.011,1.327-.438,1.5.508.128.684.319.552.687.191a3.233,3.233,0,0,1,1.919-.923c.571-.068,1.176-.134,1.126.747-.035.614.254,1.276-.859,1.412-2.315.282-2.769.907-2.8,3.288-.02,1.34-.053,2.681.011,4.018.044.913-.438.941-1.128.965-.74.026-.962-.237-.938-.958C323.276,47.993,323.243,46.6,323.242,45.2Z" transform="translate(-203.567 -32.178)"/></g></svg>