<svg xmlns="http://www.w3.org/2000/svg" xmlns:xlink="http://www.w3.org/1999/xlink" width="454" height="178" viewBox="0 0 454 178"><defs><linearGradient id="a" x1="0.137" y1="1" x2="1.084" y2="-0.194" gradientUnits="objectBoundingBox"><stop offset="0" stop-color="#4d76da"/><stop offset="1" stop-color="#273b6d"/></linearGradient></defs><g transform="translate(13 76)"><ellipse cx="227" cy="89" rx="227" ry="89" transform="translate(-13 -76)" fill="url(#a)"/><g transform="translate(9.963 -423.691)" opacity="0.31" style="mix-blend-mode:overlay;isolation:isolate"><circle cx="3.45" cy="3.45" r="3.45" transform="translate(0 375.558)" fill="#fff"/><circle cx="3.45" cy="3.45" r="3.45" transform="translate(23.472 375.558)" fill="#fff"/><circle cx="3.45" cy="3.45" r="3.45" transform="translate(46.945 375.558)" fill="#fff"/><circle cx="3.45" cy="3.45" r="3.45" transform="translate(70.417 375.558)" fill="#fff"/><circle cx="3.45" cy="3.45" r="3.45" transform="translate(0 399.03)" fill="#fff"/><circle cx="3.45" cy="3.45" r="3.45" transform="translate(23.472 399.03)" fill="#fff"/><circle cx="3.45" cy="3.45" r="3.45" transform="translate(46.945 399.03)" fill="#fff"/><circle cx="3.45" cy="3.45" r="3.45" transform="translate(70.417 399.03)" fill="#fff"/><circle cx="3.45" cy="3.45" r="3.45" transform="translate(0 422.502)" fill="#fff"/><circle cx="3.45" cy="3.45" r="3.45" transform="translate(23.472 422.502)" fill="#fff"/><circle cx="3.45" cy="3.45" r="3.45" transform="translate(46.945 422.502)" fill="#fff"/><circle cx="3.45" cy="3.45" r="3.45" transform="translate(70.417 422.502)" fill="#fff"/><circle cx="3.45" cy="3.45" r="3.45" transform="translate(0 445.975)" fill="#fff"/><circle cx="3.45" cy="3.45" r="3.45" transform="translate(23.472 445.975)" fill="#fff"/><circle cx="3.45" cy="3.45" r="3.45" transform="translate(46.945 445.975)" fill="#fff"/><circle cx="3.45" cy="3.45" r="3.45" transform="translate(70.417 445.975)" fill="#fff"/><circle cx="3.45" cy="3.45" r="3.45" transform="translate(0 469.447)" fill="#fff"/><circle cx="3.45" cy="3.45" r="3.45" transform="translate(23.472 469.447)" fill="#fff"/><circle cx="3.45" cy="3.45" r="3.45" transform="translate(46.945 469.447)" fill="#fff"/><circle cx="3.45" cy="3.45" r="3.45" transform="translate(70.417 469.447)" fill="#fff"/><circle cx="3.45" cy="3.45" r="3.45" transform="translate(0 492.919)" fill="#fff"/><circle cx="3.45" cy="3.45" r="3.45" transform="translate(23.472 492.919)" fill="#fff"/><circle cx="3.45" cy="3.45" r="3.45" transform="translate(46.945 492.919)" fill="#fff"/><circle cx="3.45" cy="3.45" r="3.45" transform="translate(70.417 492.919)" fill="#fff"/></g></g></svg>