<svg xmlns="http://www.w3.org/2000/svg" width="324.334" height="343.31" viewBox="0 0 324.334 343.31">
  <g id="Group_10276" data-name="Group 10276" transform="translate(15694.5 -22960.689)">
    <g id="Group_10062" data-name="Group 10062" transform="translate(-15473.858 22997.914) rotate(3)">
      <g id="Group_9692" data-name="Group 9692">
        <g id="Group_9691" data-name="Group 9691">
          <path id="Path_7118" data-name="Path 7118" d="M94.836.419s-9.72-4.791-17.93,18.045S66.126,54.2,66.126,54.2s-2.319,4.861-5.78,2.315-8.744-10.342-13.8-8.176c-5.244,2.247-6.266,8.548-4.1,17.341s6.218,28.232,6.578,29.989c.353,1.727-.32,4.423-2.955,3.067S27.524,83.617,21.448,91.559,25.443,123,26.494,125.592s.673,3.8-.516,4.627-6.1-4.3-10.788-8.03-10.774-7.228-13.9-2.353S-.683,143.158,20.5,170.671l10.651,12.1,15.93-2.926c33.707-8.339,46.088-22.064,46.681-27.823s-6.351-6.809-12.339-6.809-13.025.955-13.442-.432.041-2.57,2.477-3.943S95.409,127.35,95.6,117.352s-20.829-9.139-23.735-9.718-1.755-3.106-.4-4.238c1.376-1.153,16.647-13.845,23.818-19.375s10.3-11.1,7.591-16.119c-2.608-4.844-11.6-2.033-15.891-2.2S83.9,60.3,83.9,60.3s6.015-11.692,13.809-34.675S94.632.335,94.632.335" fill="#e0e0e0"/>
        </g>
      </g>
      <g id="Group_9695" data-name="Group 9695" transform="translate(22.38 20.857)">
        <g id="Group_9694" data-name="Group 9694">
          <g id="Group_9693" data-name="Group 9693">
            <path id="Path_7119" data-name="Path 7119" d="M65.069,0s-.039.169-.138.49c-.11.339-.261.811-.457,1.42-.419,1.266-1.025,3.1-1.8,5.45-1.569,4.731-3.888,11.559-6.786,19.985C50.1,44.2,41.9,67.418,32.772,93.03s-17.38,48.818-23.254,65.643c-2.925,8.4-5.292,15.2-6.937,19.931-.815,2.336-1.45,4.159-1.889,5.417-.216.6-.384,1.07-.5,1.4-.115.316-.188.473-.188.473s.039-.168.14-.49c.109-.339.26-.811.457-1.42.418-1.266,1.023-3.1,1.8-5.448,1.569-4.729,3.888-11.558,6.786-19.984,5.79-16.856,13.983-40.075,23.118-65.7s17.376-48.808,23.25-65.633c2.923-8.4,5.292-15.206,6.937-19.932.815-2.337,1.45-4.159,1.89-5.417l.5-1.406C65,.158,65.069,0,65.069,0Z" fill="#ebebeb"/>
          </g>
        </g>
      </g>
      <g id="Group_9698" data-name="Group 9698" transform="translate(53.495 59.538)">
        <g id="Group_9697" data-name="Group 9697">
          <g id="Group_9696" data-name="Group 9696">
            <path id="Path_7120" data-name="Path 7120" d="M0,0A5.238,5.238,0,0,1,.546,1.034c.322.678.758,1.671,1.285,2.9C2.879,6.4,4.241,9.844,5.676,13.669l3.636,9.806,1.12,2.964a5.3,5.3,0,0,1,.37,1.106,5.117,5.117,0,0,1-.55-1.03c-.319-.679-.755-1.673-1.269-2.91-1.026-2.476-2.343-5.935-3.776-9.76C3.779,10.08,2.49,6.675,1.5,4.07,1.051,2.9.671,1.906.366,1.11A5.168,5.168,0,0,1,0,0Z" fill="#ebebeb"/>
          </g>
        </g>
      </g>
      <g id="Group_9701" data-name="Group 9701" transform="translate(65.801 73.698)">
        <g id="Group_9700" data-name="Group 9700">
          <g id="Group_9699" data-name="Group 9699">
            <path id="Path_7121" data-name="Path 7121" d="M0,13.484c-.054-.128,6.918-3.248,15.573-6.97S31.29-.124,31.344,0s-6.917,3.247-15.573,6.97S.056,13.611,0,13.484Z" fill="#ebebeb"/>
          </g>
        </g>
      </g>
      <g id="Group_9704" data-name="Group 9704" transform="translate(50.003 120.954)">
        <g id="Group_9703" data-name="Group 9703">
          <g id="Group_9702" data-name="Group 9702">
            <path id="Path_7122" data-name="Path 7122" d="M0,4.932a5.542,5.542,0,0,1,1.173-.2l3.212-.4c2.71-.338,6.451-.821,10.559-1.506S22.755,1.411,25.429.852L28.6.195A5.47,5.47,0,0,1,29.774.008a5.44,5.44,0,0,1-1.131.375c-.736.21-1.807.494-3.137.814-2.658.648-6.356,1.446-10.48,2.123S7.147,4.435,4.423,4.683c-1.363.119-2.467.2-3.231.239A5.379,5.379,0,0,1,0,4.932Z" fill="#ebebeb"/>
          </g>
        </g>
      </g>
      <g id="Group_9707" data-name="Group 9707" transform="translate(33.371 103.332)">
        <g id="Group_9706" data-name="Group 9706">
          <g id="Group_9705" data-name="Group 9705">
            <path id="Path_7123" data-name="Path 7123" d="M0,0a4.727,4.727,0,0,1,.74.816L2.612,3.153C4.172,5.139,5.686,8.7,8.627,10.975c2.327,3.072,4.412,5.871,5.9,7.911q1.03,1.438,1.742,2.433a4.716,4.716,0,0,1,.585.933,4.67,4.67,0,0,1-.74-.815L14.245,19.1c-1.561-1.986-3.689-4.75-6.016-7.823s-4.411-5.869-5.9-7.91Q1.3,1.929.586.934A4.574,4.574,0,0,1,0,0Z" fill="#ebebeb"/>
          </g>
        </g>
      </g>
      <g id="Group_9710" data-name="Group 9710" transform="translate(15.083 135.73)">
        <g id="Group_9709" data-name="Group 9709">
          <g id="Group_9708" data-name="Group 9708">
            <path id="Path_7124" data-name="Path 7124" d="M0,0A7.593,7.593,0,0,1,.939,1.054L3.344,4.038C5.359,6.572,8.115,10.094,11.134,14s5.732,7.466,7.675,10.056l2.281,3.083a7.469,7.469,0,0,1,.781,1.172,7.728,7.728,0,0,1-.935-1.053l-2.407-2.985c-2.014-2.534-4.771-6.055-7.791-9.965S5.007,6.844,3.064,4.255C2.144,3.011,1.378,1.976.783,1.173A7.524,7.524,0,0,1,0,0Z" fill="#ebebeb"/>
          </g>
        </g>
      </g>
      <g id="Group_9713" data-name="Group 9713" transform="translate(36.623 155.939)">
        <g id="Group_9712" data-name="Group 9712">
          <g id="Group_9711" data-name="Group 9711">
            <path id="Path_7125" data-name="Path 7125" d="M0,7.279a8.565,8.565,0,0,1,1.48-.3l4.053-.649C8.954,5.782,13.678,5,18.866,3.993s9.868-2.031,13.247-2.8l4-.908A8.859,8.859,0,0,1,37.6.006a8.655,8.655,0,0,1-1.434.467c-.931.269-2.287.638-3.969,1.063-3.362.859-8.033,1.946-13.234,2.948s-9.94,1.737-13.378,2.2c-1.719.226-3.114.4-4.078.491A8.9,8.9,0,0,1,0,7.279Z" fill="#ebebeb"/>
          </g>
        </g>
      </g>
    </g>
    <g id="Group_10063" data-name="Group 10063" transform="translate(-15642.081 22960.689)">
      <g id="Group_9664" data-name="Group 9664">
        <g id="Group_9663" data-name="Group 9663">
          <g id="Group_9662" data-name="Group 9662">
            <g id="Group_9661" data-name="Group 9661">
              <path id="Path_7112" data-name="Path 7112" d="M141.79,164.866c9.835-9.711,9.893-24.627,7.227-37.57-.445-2.16-.6-4.492-1.957-6.222s-3.994-2.62-5.784-1.372c-1.484,1.036-1.867,3.033-2.5,4.74a12.9,12.9,0,0,1-4.264,5.739c-1.261.955-2.9,1.686-4.394,1.167-2.051-.714-2.715-3.265-3.071-5.43q-.994-6.048-1.989-12.1a20.47,20.47,0,0,0-1.749-6.308,6.8,6.8,0,0,0-4.989-3.813c-2.155-.224-4.495,1.4-4.567,3.586a20.19,20.19,0,0,0,.4,2.7,2.306,2.306,0,0,1-.965,2.368,2.653,2.653,0,0,1-2.543-.587,29.173,29.173,0,0,1-6.49-6.907,40.43,40.43,0,0,0-6.186-7.216c-2.431-2.034-5.553-3.443-8.678-3.089s-6.1,2.828-6.36,6,2.043,5.969,4.4,8.105a48.953,48.953,0,0,0,11.682,7.858,4.025,4.025,0,0,1,1.988,1.519c.716,1.361-.4,3.025-1.747,3.742-1.519.812-3.3.944-4.947,1.429s-3.35,1.542-3.715,3.244c-.508,2.36,1.736,4.36,3.813,5.566a41.954,41.954,0,0,0,13.438,4.97,14.145,14.145,0,0,1,4.923,1.432c1.472.9,2.579,2.708,2.064,4.362s-2.419,2.484-4.138,2.459a29.262,29.262,0,0,1-5.052-1c-3.162-.614-6.962.246-8.426,3.139a6.938,6.938,0,0,0,.306,6.173,16,16,0,0,0,4.189,4.781,42.163,42.163,0,0,0,19.877,9.438c7.3,1.212,13.792.767,20.212-2.907" transform="translate(-82.906 -94.501)" fill="#ebebeb"/>
            </g>
          </g>
        </g>
      </g>
      <g id="Group_9669" data-name="Group 9669" transform="translate(2.637 2.556)">
        <g id="Group_9668" data-name="Group 9668">
          <g id="Group_9667" data-name="Group 9667">
            <g id="Group_9666" data-name="Group 9666">
              <g id="Group_9665" data-name="Group 9665">
                <path id="Path_7113" data-name="Path 7113" d="M85.778,97.286a1.505,1.505,0,0,0,.244.17l.74.462c.652.4,1.612,1,2.828,1.8a82.307,82.307,0,0,1,9.779,7.5c1.95,1.729,4.009,3.711,6.181,5.879s4.47,4.509,6.8,7.057a99.32,99.32,0,0,1,6.912,8.325c1.115,1.509,2.153,3.112,3.213,4.745l3.208,4.967a201.46,201.46,0,0,1,11.257,19.482,97.917,97.917,0,0,1,6.633,17.119,71.821,71.821,0,0,1,2.29,12.173c.132,1.458.213,2.593.241,3.365.02.368.036.658.047.876a1.776,1.776,0,0,0,.029.3,1.582,1.582,0,0,0,.012-.3c0-.218,0-.509-.006-.878,0-.773-.057-1.911-.166-3.376a68.559,68.559,0,0,0-2.17-12.234,96.288,96.288,0,0,0-6.576-17.209,196.331,196.331,0,0,0-11.251-19.537L122.807,133c-1.058-1.629-2.107-3.244-3.23-4.76a98.3,98.3,0,0,0-6.957-8.344c-2.342-2.547-4.656-4.878-6.836-7.042s-4.261-4.136-6.229-5.856a77.87,77.87,0,0,0-9.882-7.416c-1.23-.781-2.205-1.356-2.871-1.736l-.76-.429A1.67,1.67,0,0,0,85.778,97.286Z" transform="translate(-85.778 -97.285)" fill="#e0e0e0"/>
              </g>
            </g>
          </g>
        </g>
      </g>
      <g id="Group_9674" data-name="Group 9674" transform="translate(35.174 9.198)">
        <g id="Group_9673" data-name="Group 9673">
          <g id="Group_9672" data-name="Group 9672">
            <g id="Group_9671" data-name="Group 9671">
              <g id="Group_9670" data-name="Group 9670">
                <path id="Path_7114" data-name="Path 7114" d="M122.366,128.838a4.436,4.436,0,0,0,.053-.958c.012-.617,0-1.508-.033-2.611-.062-2.2-.252-5.246-.474-8.6s-.368-6.388-.4-8.588c-.017-1.1-.023-1.989-.018-2.6a4.431,4.431,0,0,0-.039-.959,4.407,4.407,0,0,0-.117.953c-.053.614-.092,1.506-.11,2.61-.045,2.207.056,5.257.279,8.613.227,3.308.433,6.3.59,8.585.065,1.033.118,1.9.162,2.6A4.37,4.37,0,0,0,122.366,128.838Z" transform="translate(-121.221 -104.52)" fill="#e0e0e0"/>
              </g>
            </g>
          </g>
        </g>
      </g>
      <g id="Group_9679" data-name="Group 9679" transform="translate(7.644 32.183)">
        <g id="Group_9678" data-name="Group 9678">
          <g id="Group_9677" data-name="Group 9677">
            <g id="Group_9676" data-name="Group 9676">
              <g id="Group_9675" data-name="Group 9675">
                <path id="Path_7115" data-name="Path 7115" d="M91.232,130.447a6.152,6.152,0,0,0,1.131-.057c.724-.058,1.771-.149,3.068-.218,2.592-.16,6.18-.256,10.143-.188s7.55.294,10.139.528c1.3.108,2.341.224,3.064.3a6.109,6.109,0,0,0,1.13.081,6.032,6.032,0,0,0-1.11-.239c-.718-.123-1.762-.283-3.058-.429-2.588-.308-6.184-.574-10.16-.649a99.422,99.422,0,0,0-10.171.309c-1.3.107-2.345.241-3.064.349A5.928,5.928,0,0,0,91.232,130.447Z" transform="translate(-91.232 -129.558)" fill="#e0e0e0"/>
              </g>
            </g>
          </g>
        </g>
      </g>
      <g id="Group_9684" data-name="Group 9684" transform="translate(53.696 24.445)">
        <g id="Group_9683" data-name="Group 9683">
          <g id="Group_9682" data-name="Group 9682">
            <g id="Group_9681" data-name="Group 9681">
              <g id="Group_9680" data-name="Group 9680">
                <path id="Path_7116" data-name="Path 7116" d="M141.4,159.01a1.552,1.552,0,0,0,.132-.372c.083-.294.182-.653.3-1.087.259-.945.6-2.321,1-4.027.8-3.412,1.749-8.16,2.728-13.414s1.887-10.007,2.612-13.432l.869-4.053c.093-.442.168-.805.23-1.1a1.449,1.449,0,0,0,.054-.392,1.477,1.477,0,0,0-.133.372l-.3,1.086c-.26.945-.6,2.322-1,4.027-.8,3.413-1.749,8.161-2.729,13.417s-1.886,10-2.611,13.43c-.357,1.664-.651,3.035-.869,4.052-.093.442-.168.806-.23,1.105A1.469,1.469,0,0,0,141.4,159.01Z" transform="translate(-141.397 -121.129)" fill="#e0e0e0"/>
              </g>
            </g>
          </g>
        </g>
      </g>
      <g id="Group_9689" data-name="Group 9689" transform="translate(14.741 56.727)">
        <g id="Group_9688" data-name="Group 9688">
          <g id="Group_9687" data-name="Group 9687">
            <g id="Group_9686" data-name="Group 9686">
              <g id="Group_9685" data-name="Group 9685">
                <path id="Path_7117" data-name="Path 7117" d="M98.963,156.3a1.526,1.526,0,0,0,.393.088l1.133.176,4.173.606c3.524.512,8.382,1.275,13.75,2.126s10.24,1.571,13.775,2.01c1.768.22,3.2.385,4.191.477l1.143.1a1.514,1.514,0,0,0,.4.007,1.494,1.494,0,0,0-.393-.089l-1.134-.176-4.172-.6c-3.523-.512-8.382-1.276-13.752-2.127s-10.238-1.57-13.772-2.01c-1.768-.22-3.2-.384-4.193-.476l-1.142-.1A1.46,1.46,0,0,0,98.963,156.3Z" transform="translate(-98.963 -156.293)" fill="#e0e0e0"/>
              </g>
            </g>
          </g>
        </g>
      </g>
    </g>
    <g id="Group_10059" data-name="Group 10059" transform="translate(-15587.53 22960.689)">
      <g id="Group_10020" data-name="Group 10020" transform="translate(0 0)">
        <g id="Group_10014" data-name="Group 10014">
          <path id="Path_7255" data-name="Path 7255" d="M-27.148,408.5l-110.706-.512a24.115,24.115,0,0,1-24-24.217l1.173-277.543a24.116,24.116,0,0,1,24.227-24.013l110.706.511a24.115,24.115,0,0,1,24,24.217L-2.92,384.49A24.116,24.116,0,0,1-27.148,408.5Z" transform="translate(161.857 -82.217)" fill="#455a64"/>
        </g>
        <g id="Group_10015" data-name="Group 10015" transform="translate(7.351 9.58)">
          <path id="Path_7256" data-name="Path 7256" d="M-26.628,91.37l-21.464-.1A5.332,5.332,0,0,0-53.327,96.7l-.017,3.894a5.331,5.331,0,0,1-5.235,5.424l-41.838-.194a5.335,5.335,0,0,1-5.188-5.472l.017-3.894a5.336,5.336,0,0,0-5.189-5.472l-7.549-.035-18.786-.086a16.889,16.889,0,0,0-16.967,16.817l-1.145,270.9a16.889,16.889,0,0,0,16.811,16.962l110.486.51a16.889,16.889,0,0,0,16.966-16.817l1.145-270.9A16.889,16.889,0,0,0-26.628,91.37Z" transform="translate(155.225 -90.86)" fill="#fff"/>
        </g>
        <g id="Group_10019" data-name="Group 10019" transform="translate(37.39 252.637)">
          <g id="Group_10018" data-name="Group 10018">
            <g id="Group_10017" data-name="Group 10017">
              <g id="Group_10016" data-name="Group 10016" transform="translate(0.18 -0.137)">
                <path id="Path_7257" data-name="Path 7257" d="M-44.435,336.145l-82.158-.378c-.85,0-1.535-.93-1.531-2.069l.091-21.493c0-1.138.7-2.058,1.548-2.055l82.158.38c.851,0,1.537.93,1.532,2.068l-.091,21.493C-42.889,335.229-43.583,336.149-44.435,336.145Z" transform="translate(128.123 -310.15)" fill="#e8505b"/>
              </g>
              <text id="Login" transform="matrix(1, 0.005, -0.004, 1, 31.188, 15.863)" fill="#e8e8e3" font-size="8" font-family="Montserrat-Regular, Montserrat"><tspan x="0" y="0">Login</tspan></text>
            </g>
          </g>
        </g>
      </g>
      <g id="Group_10056" data-name="Group 10056" transform="translate(25.958 42.213)">
        <g id="Group_10021" data-name="Group 10021" transform="translate(0.803 47.36)">
          <rect id="Rectangle_3196" data-name="Rectangle 3196" width="28.504" height="5.23" transform="translate(0.024 0) rotate(0.264)" fill="#a8a8a8"/>
          <rect id="Rectangle_3197" data-name="Rectangle 3197" width="28.504" height="5.23" transform="translate(0.024 0) rotate(0.264)" opacity="0.1"/>
        </g>
        <g id="Group_10023" data-name="Group 10023" transform="translate(0.414 60.154)">
          <g id="Group_10022" data-name="Group 10022">
            <path id="Path_7258" data-name="Path 7258" d="M-25.554,194.005a2.526,2.526,0,0,0,.651-.153,1.753,1.753,0,0,0,1.074-1.491c0-1.768-.009-4.338-.016-7.637,0-1.66,0-3.5,0-5.522q0-.756,0-1.546a2.128,2.128,0,0,0-.31-1.452,1.635,1.635,0,0,0-1.311-.675l-1.736,0-16.011-.031-92.705-.344a1.5,1.5,0,0,0-1.221.617,2.144,2.144,0,0,0-.288,1.449q-.007,1.687-.014,3.364-.015,3.352-.029,6.659-.008,1.654-.016,3.294a9.719,9.719,0,0,0,.047,1.558,1.5,1.5,0,0,0,.865,1,1.677,1.677,0,0,0,.686.117l.811,0,1.617.007,3.215.017,24.615.131,41.677.254,28.1.222,7.639.09,1.986.038c.448.012.677.033.677.033s-.229.019-.677.026l-1.986.02-7.64.019-28.1-.038-41.678-.131-24.614-.1-3.215-.013-1.618-.007-.81,0a2.244,2.244,0,0,1-.9-.162,2.07,2.07,0,0,1-1.2-1.38,3.231,3.231,0,0,1-.069-.887l0-.819q.007-1.641.014-3.294.012-3.307.027-6.659.007-1.678.013-3.364a7.772,7.772,0,0,1,.029-.886,2.021,2.021,0,0,1,.37-.9,2.078,2.078,0,0,1,1.69-.856l92.7.513,16.012.116,1.736.014a1.936,1.936,0,0,1,1.551.812,2.409,2.409,0,0,1,.356,1.627q-.007.79-.012,1.546c-.019,2.017-.034,3.862-.049,5.522-.041,3.3-.072,5.876-.094,7.645a1.81,1.81,0,0,1-1.169,1.537A1.335,1.335,0,0,1-25.554,194.005Z" transform="translate(138.064 -174.574)" fill="#e0e0e0"/>
          </g>
        </g>
        <g id="Group_10024" data-name="Group 10024" transform="translate(8.453 67.477)">
          <rect id="Rectangle_3198" data-name="Rectangle 3198" width="52.142" height="4.889" transform="translate(0.023 0) rotate(0.265)" fill="#a8a8a8"/>
          <rect id="Rectangle_3199" data-name="Rectangle 3199" width="52.142" height="4.889" transform="translate(0.023 0) rotate(0.265)" fill="#fff" opacity="0.2"/>
        </g>
        <g id="Group_10025" data-name="Group 10025" transform="translate(0.601 95.09)">
          <rect id="Rectangle_3200" data-name="Rectangle 3200" width="28.504" height="5.23" transform="translate(0.024 0) rotate(0.264)" fill="#979797"/>
          <rect id="Rectangle_3201" data-name="Rectangle 3201" width="28.504" height="5.23" transform="translate(0.024 0) rotate(0.264)" opacity="0.1"/>
        </g>
        <g id="Group_10027" data-name="Group 10027" transform="translate(0.211 107.887)">
          <g id="Group_10026" data-name="Group 10026">
            <path id="Path_7259" data-name="Path 7259" d="M-26.266,237.066a4.639,4.639,0,0,0,.656-.124,2.3,2.3,0,0,0,1.4-1.256,3,3,0,0,0,.192-1.405q0-.808-.007-1.761c0-1.276-.006-2.743-.009-4.394s0-3.493,0-5.5v-1.541a2.4,2.4,0,0,0-.324-1.463,2.178,2.178,0,0,0-1.2-.934,6.865,6.865,0,0,0-1.674-.1l-15.956-.031-92.383-.342A2.037,2.037,0,0,0-137.6,220c-.033,1.055-.018,2.22-.029,3.32q-.015,3.34-.029,6.636-.007,1.648-.016,3.283a6.986,6.986,0,0,0,.07,1.547,2.052,2.052,0,0,0,.809,1.136,2.2,2.2,0,0,0,1.379.355l1.613.008,3.2.017,24.53.13,41.532.254c11.808.093,21.368.17,28,.221,3.29.04,5.85.069,7.612.09l1.98.038c.447.012.675.033.675.033s-.228.019-.676.025l-1.98.02-7.612.02-28-.039-41.533-.13-24.528-.1-3.2-.013-1.612-.007a2.788,2.788,0,0,1-1.7-.452,2.625,2.625,0,0,1-1.039-1.458,7.115,7.115,0,0,1-.091-1.7q.007-1.634.013-3.282.013-3.3.027-6.637c.013-1.127-.009-2.2.032-3.384a2.614,2.614,0,0,1,2.6-2.292c36.067.2,68.721.379,92.383.511l15.955.116a6.922,6.922,0,0,1,1.765.121,2.473,2.473,0,0,1,1.369,1.075,2.711,2.711,0,0,1,.355,1.62q-.007.786-.012,1.541c-.017,2.01-.034,3.847-.049,5.5s-.032,3.118-.045,4.394q-.01.953-.02,1.761a3.109,3.109,0,0,1-.229,1.452A2.34,2.34,0,0,1-25.593,237,1.779,1.779,0,0,1-26.266,237.066Z" transform="translate(138.248 -217.639)" fill="#e0e0e0"/>
          </g>
        </g>
        <g id="Group_10028" data-name="Group 10028" transform="translate(0.391 144.871)">
          <rect id="Rectangle_3202" data-name="Rectangle 3202" width="28.504" height="5.23" transform="translate(0.024 0) rotate(0.263)" fill="#979797"/>
          <rect id="Rectangle_3203" data-name="Rectangle 3203" width="28.504" height="5.23" transform="translate(0.024 0) rotate(0.263)" opacity="0.1"/>
        </g>
        <g id="Group_10030" data-name="Group 10030" transform="translate(0 157.668)">
          <g id="Group_10029" data-name="Group 10029">
            <path id="Path_7260" data-name="Path 7260" d="M-26.457,281.979a4.671,4.671,0,0,0,.657-.123,2.3,2.3,0,0,0,1.4-1.257,3.014,3.014,0,0,0,.192-1.405q0-.808-.007-1.76c0-1.277,0-2.744-.008-4.394s0-3.494,0-5.5q0-.753,0-1.542a2.414,2.414,0,0,0-.324-1.462,2.181,2.181,0,0,0-1.2-.934,6.876,6.876,0,0,0-1.676-.1l-15.954-.031-92.384-.342a2.037,2.037,0,0,0-2.024,1.785c-.033,1.054-.018,2.219-.028,3.318q-.015,3.34-.03,6.636-.007,1.648-.014,3.283a6.98,6.98,0,0,0,.069,1.546,2.047,2.047,0,0,0,.809,1.137,2.191,2.191,0,0,0,1.379.355l1.613.008,3.2.017,24.529.13,41.533.254,28,.222,7.612.09c.855.016,1.513.028,1.98.038.446.012.674.032.674.032s-.228.019-.674.027c-.468,0-1.125.01-1.98.019l-7.613.02-28-.039-41.533-.13-24.529-.1-3.2-.013-1.612-.007a2.784,2.784,0,0,1-1.7-.452,2.629,2.629,0,0,1-1.039-1.457,7.117,7.117,0,0,1-.091-1.7q.007-1.634.013-3.282.013-3.3.027-6.637c.013-1.128-.009-2.2.032-3.384a2.615,2.615,0,0,1,2.6-2.292c36.066.2,68.72.379,92.383.511l15.954.116a6.879,6.879,0,0,1,1.766.121,2.488,2.488,0,0,1,1.368,1.075,2.713,2.713,0,0,1,.356,1.62q-.007.786-.013,1.541c-.018,2.01-.033,3.847-.048,5.5s-.032,3.118-.045,4.394q-.012.953-.022,1.76a3.1,3.1,0,0,1-.229,1.454,2.338,2.338,0,0,1-1.492,1.265A1.831,1.831,0,0,1-26.457,281.979Z" transform="translate(138.438 -262.552)" fill="#e0e0e0"/>
          </g>
        </g>
        <g id="Group_10031" data-name="Group 10031" transform="translate(8.251 115.208)">
          <rect id="Rectangle_3204" data-name="Rectangle 3204" width="52.143" height="4.889" transform="translate(0.023 0) rotate(0.265)" fill="#979797"/>
          <rect id="Rectangle_3205" data-name="Rectangle 3205" width="52.143" height="4.889" transform="translate(0.023 0) rotate(0.265)" fill="#fff" opacity="0"/>
        </g>
        <g id="Group_10052" data-name="Group 10052" transform="translate(8.451 165.605)">
          <g id="Group_10041" data-name="Group 10041">
            <g id="Group_10032" data-name="Group 10032">
              <path id="Path_7261" data-name="Path 7261" d="M-126.254,272.155a2.359,2.359,0,0,1-2.29,2.421,2.362,2.362,0,0,1-2.269-2.443,2.357,2.357,0,0,1,2.29-2.42A2.359,2.359,0,0,1-126.254,272.155Z" transform="translate(130.813 -269.713)" fill="#e8505b"/>
            </g>
            <g id="Group_10033" data-name="Group 10033" transform="translate(7.064 0.032)">
              <path id="Path_7262" data-name="Path 7262" d="M-119.881,272.184a2.358,2.358,0,0,1-2.29,2.421,2.36,2.36,0,0,1-2.269-2.442,2.358,2.358,0,0,1,2.29-2.421A2.359,2.359,0,0,1-119.881,272.184Z" transform="translate(124.44 -269.742)" fill="#e8505b"/>
            </g>
            <g id="Group_10034" data-name="Group 10034" transform="translate(14.127 0.064)">
              <path id="Path_7263" data-name="Path 7263" d="M-113.508,272.214a2.357,2.357,0,0,1-2.29,2.42,2.359,2.359,0,0,1-2.269-2.442,2.359,2.359,0,0,1,2.29-2.421A2.361,2.361,0,0,1-113.508,272.214Z" transform="translate(118.067 -269.771)" fill="#e8505b"/>
            </g>
            <g id="Group_10035" data-name="Group 10035" transform="translate(21.191 0.098)">
              <path id="Path_7264" data-name="Path 7264" d="M-107.136,272.243a2.355,2.355,0,0,1-2.289,2.42,2.358,2.358,0,0,1-2.269-2.442,2.357,2.357,0,0,1,2.29-2.42A2.36,2.36,0,0,1-107.136,272.243Z" transform="translate(111.694 -269.801)" fill="#e8505b"/>
            </g>
            <g id="Group_10036" data-name="Group 10036" transform="translate(28.254 0.13)">
              <path id="Path_7265" data-name="Path 7265" d="M-100.762,272.272a2.357,2.357,0,0,1-2.29,2.421,2.36,2.36,0,0,1-2.27-2.441,2.36,2.36,0,0,1,2.291-2.422A2.362,2.362,0,0,1-100.762,272.272Z" transform="translate(105.322 -269.83)" fill="#e8505b"/>
            </g>
            <g id="Group_10037" data-name="Group 10037" transform="translate(35.317 0.162)">
              <path id="Path_7266" data-name="Path 7266" d="M-94.389,272.3a2.357,2.357,0,0,1-2.291,2.421,2.359,2.359,0,0,1-2.269-2.441,2.359,2.359,0,0,1,2.29-2.422A2.363,2.363,0,0,1-94.389,272.3Z" transform="translate(98.949 -269.859)" fill="#e8505b"/>
            </g>
            <g id="Group_10038" data-name="Group 10038" transform="translate(42.381 0.196)">
              <path id="Path_7267" data-name="Path 7267" d="M-88.016,272.331a2.359,2.359,0,0,1-2.291,2.421,2.361,2.361,0,0,1-2.269-2.442,2.356,2.356,0,0,1,2.29-2.42A2.359,2.359,0,0,1-88.016,272.331Z" transform="translate(92.576 -269.89)" fill="#e8505b"/>
            </g>
            <g id="Group_10039" data-name="Group 10039" transform="translate(49.445 0.228)">
              <path id="Path_7268" data-name="Path 7268" d="M-81.644,272.36a2.359,2.359,0,0,1-2.29,2.422A2.361,2.361,0,0,1-86.2,272.34a2.358,2.358,0,0,1,2.29-2.421A2.358,2.358,0,0,1-81.644,272.36Z" transform="translate(86.203 -269.919)" fill="#e8505b"/>
            </g>
            <g id="Group_10040" data-name="Group 10040" transform="translate(56.508 0.26)">
              <path id="Path_7269" data-name="Path 7269" d="M-75.271,272.39a2.358,2.358,0,0,1-2.29,2.421,2.362,2.362,0,0,1-2.27-2.442,2.36,2.36,0,0,1,2.291-2.421A2.359,2.359,0,0,1-75.271,272.39Z" transform="translate(79.831 -269.948)" fill="#e8505b"/>
            </g>
          </g>
          <g id="Group_10051" data-name="Group 10051" opacity="0.2">
            <g id="Group_10042" data-name="Group 10042">
              <path id="Path_7270" data-name="Path 7270" d="M-126.254,272.155a2.359,2.359,0,0,1-2.29,2.421,2.362,2.362,0,0,1-2.269-2.443,2.357,2.357,0,0,1,2.29-2.42A2.359,2.359,0,0,1-126.254,272.155Z" transform="translate(130.813 -269.713)" fill="#fff"/>
            </g>
            <g id="Group_10043" data-name="Group 10043" transform="translate(7.064 0.032)">
              <path id="Path_7271" data-name="Path 7271" d="M-119.881,272.184a2.358,2.358,0,0,1-2.29,2.421,2.36,2.36,0,0,1-2.269-2.442,2.358,2.358,0,0,1,2.29-2.421A2.359,2.359,0,0,1-119.881,272.184Z" transform="translate(124.44 -269.742)" fill="#fff"/>
            </g>
            <g id="Group_10044" data-name="Group 10044" transform="translate(14.127 0.064)">
              <path id="Path_7272" data-name="Path 7272" d="M-113.508,272.214a2.357,2.357,0,0,1-2.29,2.42,2.359,2.359,0,0,1-2.269-2.442,2.359,2.359,0,0,1,2.29-2.421A2.361,2.361,0,0,1-113.508,272.214Z" transform="translate(118.067 -269.771)" fill="#fff"/>
            </g>
            <g id="Group_10045" data-name="Group 10045" transform="translate(21.191 0.098)">
              <path id="Path_7273" data-name="Path 7273" d="M-107.136,272.243a2.355,2.355,0,0,1-2.289,2.42,2.358,2.358,0,0,1-2.269-2.442,2.357,2.357,0,0,1,2.29-2.42A2.36,2.36,0,0,1-107.136,272.243Z" transform="translate(111.694 -269.801)" fill="#fff"/>
            </g>
            <g id="Group_10046" data-name="Group 10046" transform="translate(28.254 0.13)">
              <path id="Path_7274" data-name="Path 7274" d="M-100.762,272.272a2.357,2.357,0,0,1-2.29,2.421,2.36,2.36,0,0,1-2.27-2.441,2.36,2.36,0,0,1,2.291-2.422A2.362,2.362,0,0,1-100.762,272.272Z" transform="translate(105.322 -269.83)" fill="#fff"/>
            </g>
            <g id="Group_10047" data-name="Group 10047" transform="translate(35.317 0.162)">
              <path id="Path_7275" data-name="Path 7275" d="M-94.389,272.3a2.357,2.357,0,0,1-2.291,2.421,2.359,2.359,0,0,1-2.269-2.441,2.359,2.359,0,0,1,2.29-2.422A2.363,2.363,0,0,1-94.389,272.3Z" transform="translate(98.949 -269.859)" fill="#fff"/>
            </g>
            <g id="Group_10048" data-name="Group 10048" transform="translate(42.381 0.196)">
              <path id="Path_7276" data-name="Path 7276" d="M-88.016,272.331a2.359,2.359,0,0,1-2.291,2.421,2.361,2.361,0,0,1-2.269-2.442,2.356,2.356,0,0,1,2.29-2.42A2.359,2.359,0,0,1-88.016,272.331Z" transform="translate(92.576 -269.89)" fill="#fff"/>
            </g>
            <g id="Group_10049" data-name="Group 10049" transform="translate(49.445 0.228)">
              <path id="Path_7277" data-name="Path 7277" d="M-81.644,272.36a2.359,2.359,0,0,1-2.29,2.422A2.361,2.361,0,0,1-86.2,272.34a2.358,2.358,0,0,1,2.29-2.421A2.358,2.358,0,0,1-81.644,272.36Z" transform="translate(86.203 -269.919)" fill="#fff"/>
            </g>
            <g id="Group_10050" data-name="Group 10050" transform="translate(56.508 0.26)">
              <path id="Path_7278" data-name="Path 7278" d="M-75.271,272.39a2.358,2.358,0,0,1-2.29,2.421,2.362,2.362,0,0,1-2.27-2.442,2.36,2.36,0,0,1,2.291-2.421A2.359,2.359,0,0,1-75.271,272.39Z" transform="translate(79.831 -269.948)" fill="#fff"/>
            </g>
          </g>
        </g>
        <g id="Group_10055" data-name="Group 10055" transform="translate(30.988)">
          <g id="Group_10053" data-name="Group 10053" transform="translate(19.643)">
            <path id="Path_7279" data-name="Path 7279" d="M-83.9,128.6a4.3,4.3,0,0,0,2.561-3.977,4.175,4.175,0,0,0-4.015-4.317,4.169,4.169,0,0,0-4.048,4.281,4.292,4.292,0,0,0,2.568,4.013c-6.2.934-5.921,7.676-5.921,7.676l14.668.068S-77.753,129.525-83.9,128.6Z" transform="translate(92.758 -120.302)" fill="#e8505b"/>
          </g>
          <g id="Group_10054" data-name="Group 10054" transform="translate(0 20.21)">
            <rect id="Rectangle_3206" data-name="Rectangle 3206" width="52.307" height="6.254" transform="matrix(1, 0.005, -0.005, 1, 0.029, 0)" fill="#929292"/>
            <rect id="Rectangle_3207" data-name="Rectangle 3207" width="52.307" height="6.254" transform="matrix(1, 0.005, -0.005, 1, 0.029, 0)" fill="#fff" opacity="0.2"/>
          </g>
        </g>
      </g>
    </g>
    <g id="Group_10061" data-name="Group 10061" transform="translate(-15456.245 23189.172)">
      <g id="Group_9999" data-name="Group 9999" transform="translate(26.856 48.853)">
        <path id="Path_7249" data-name="Path 7249" d="M430.146,397.725c-.612-2.431.993-4.859,2.787-6.61s3.936-3.317,4.878-5.64c1.526-3.765-.469-8.662,2.115-11.795,1.52-1.843,4.231-2.447,5.582-4.418a10.138,10.138,0,0,0,1.227-3.528,35.913,35.913,0,0,1,9.025-16.661,31.159,31.159,0,0,1-3.595,16.086c-1.05,1.973-2.338,3.9-2.694,6.1-.58,3.583,1.4,7.29.5,10.806-1.031,4.022-5.571,6.692-5.808,10.837-.2,3.5,2.836,6.6,2.589,10.1a9.459,9.459,0,0,1-1.584,4.148c-2.736,4.491-6.735,7.571-12.769,7.436l-7.393.217Z" transform="translate(-425.007 -349.073)" fill="#455a64"/>
      </g>
      <g id="Group_10011" data-name="Group 10011">
        <g id="Group_10006" data-name="Group 10006" transform="translate(0 23.139)">
          <g id="Group_10003" data-name="Group 10003">
            <g id="Group_10002" data-name="Group 10002">
              <path id="Path_7251" data-name="Path 7251" d="M421.11,412.694a5.9,5.9,0,0,1-2.035-.056,12.277,12.277,0,0,1-2.4-.618,10.178,10.178,0,0,1-2.958-1.641,4.136,4.136,0,0,1-1.211-1.633,7.65,7.65,0,0,1-.336-2.211,21.319,21.319,0,0,0-.159-2.391,6.583,6.583,0,0,0-.89-2.382c-.863-1.536-2.3-2.994-2.758-5.075a16.762,16.762,0,0,1,.238-6.478c.356-2.215.7-4.63-.133-6.944-.779-2.316-2.389-4.412-3.185-7.024-.792-2.637-.4-5.466-.554-8.258a10.953,10.953,0,0,0-.94-4.109c-.59-1.312-1.413-2.55-2.053-3.931-1.3-2.793-1.51-5.95-1.852-9.045q-.249-2.338-.5-4.726a23.134,23.134,0,0,0-.8-4.731,41.593,41.593,0,0,0-1.741-4.584,15.138,15.138,0,0,1-.845-2.394,24.2,24.2,0,0,1-.224-2.544,29.963,29.963,0,0,1,.226-5.116c.21-1.7.528-3.394.721-5.1l.035-.295.04-.342.3.154a11.407,11.407,0,0,1,3.96,3.381,18.127,18.127,0,0,1,2.42,4.519,55.522,55.522,0,0,1,2.246,9.693,26.3,26.3,0,0,0,2.986,8.956c.8,1.32,1.775,2.528,2.626,3.817a10.442,10.442,0,0,1,1.81,4.224c.42,3.13-1.318,5.866-.975,8.637a9.589,9.589,0,0,0,1.326,3.843c.665,1.184,1.448,2.284,2.189,3.389a21.635,21.635,0,0,1,1.965,3.421,10.815,10.815,0,0,1,.888,3.712c.166,2.493-.2,4.856-.032,7.09a16.318,16.318,0,0,0,1.79,6.085c.883,1.823,1.868,3.473,2.693,5.073a25.726,25.726,0,0,1,1.107,2.362,11.577,11.577,0,0,1,.635,2.34,14.738,14.738,0,0,1,.031,4.219,10.622,10.622,0,0,1-2.146,5.369,5.111,5.111,0,0,1-.6.644,2.989,2.989,0,0,1-.487.409c-.277.2-.425.294-.425.294a9.408,9.408,0,0,0,1.439-1.408,10.707,10.707,0,0,0,2.036-5.332,14.678,14.678,0,0,0-.071-4.159,11.376,11.376,0,0,0-.641-2.285c-.31-.765-.7-1.54-1.114-2.331-.831-1.585-1.826-3.229-2.729-5.064a16.59,16.59,0,0,1-1.853-6.193c-.182-2.281.175-4.652,0-7.087a10.449,10.449,0,0,0-.871-3.586,21.312,21.312,0,0,0-1.942-3.353c-.742-1.1-1.533-2.2-2.217-3.411a9.99,9.99,0,0,1-1.388-4c-.339-2.951,1.386-5.706.958-8.615a10.036,10.036,0,0,0-1.749-4.038c-.837-1.265-1.815-2.474-2.642-3.828a26.7,26.7,0,0,1-3.056-9.107,55.3,55.3,0,0,0-2.232-9.611,17.649,17.649,0,0,0-2.356-4.4,10.952,10.952,0,0,0-3.792-3.242l.344-.187-.035.3c-.2,1.729-.514,3.421-.722,5.106a29.443,29.443,0,0,0-.224,5.037,23.959,23.959,0,0,0,.213,2.467,14.889,14.889,0,0,0,.816,2.309,42.228,42.228,0,0,1,1.755,4.635,23.528,23.528,0,0,1,.805,4.81q.251,2.389.5,4.73c.335,3.108.549,6.214,1.8,8.909.616,1.342,1.438,2.584,2.045,3.938a11.369,11.369,0,0,1,.967,4.262c.145,2.853-.242,5.639.515,8.17s2.352,4.626,3.153,7.016c.858,2.415.483,4.91.118,7.117a16.51,16.51,0,0,0-.275,6.355c.416,1.987,1.812,3.432,2.693,5.011a6.859,6.859,0,0,1,.9,2.477,21.376,21.376,0,0,1,.141,2.421,7.5,7.5,0,0,0,.3,2.15,3.956,3.956,0,0,0,1.138,1.562,10.131,10.131,0,0,0,2.885,1.65,12.7,12.7,0,0,0,2.364.656,9.438,9.438,0,0,0,1.5.153C420.934,412.687,421.11,412.694,421.11,412.694Z" transform="translate(-395.753 -321.062)" fill="#263238"/>
            </g>
          </g>
          <g id="Group_10005" data-name="Group 10005" transform="translate(2.494 4.421)">
            <g id="Group_10004" data-name="Group 10004">
              <path id="Path_7252" data-name="Path 7252" d="M398.473,325.878a.858.858,0,0,1,.071.224l.16.666c.141.583.31,1.463.583,2.562s.948,2.339,1.513,3.869c.588,1.518,1.182,3.277,1.728,5.253s1.04,4.166,1.549,6.514A27.425,27.425,0,0,0,406.4,352.2c.6,1.2,1.274,2.424,1.809,3.756a17.43,17.43,0,0,1,1.04,4.248,85.838,85.838,0,0,0,1.543,8.952c1.448,6.065,2.827,11.842,4.081,17.1,1.287,5.243,2.447,9.967,3.423,13.949.951,3.946,1.723,7.152,2.268,9.414q.377,1.628.593,2.566c.058.271.1.491.143.67a.833.833,0,0,1,.032.232.865.865,0,0,1-.08-.221l-.188-.658q-.249-.928-.68-2.544l-2.415-9.378c-1.006-3.976-2.2-8.692-3.522-13.924-1.268-5.262-2.66-11.041-4.122-17.108a84.563,84.563,0,0,1-1.539-8.988,17.055,17.055,0,0,0-1-4.144c-.515-1.3-1.18-2.512-1.779-3.729a27.566,27.566,0,0,1-2.318-7.343c-.493-2.354-.958-4.54-1.488-6.51s-1.09-3.727-1.651-5.246c-.535-1.526-1.177-2.783-1.443-3.916-.25-1.126-.385-2-.5-2.591-.046-.273-.083-.5-.113-.676A.922.922,0,0,1,398.473,325.878Z" transform="translate(-398.47 -325.878)" fill="#263238"/>
            </g>
          </g>
        </g>
        <g id="Group_10010" data-name="Group 10010" transform="translate(19.024)">
          <g id="Group_10007" data-name="Group 10007">
            <path id="Path_7253" data-name="Path 7253" d="M421.5,410.642c-4.811-2.9-6.148-11.616-4.1-16.847s5.6-10,6.172-15.589c.442-4.3-.94-8.714.085-12.907,1.383-5.66,6.941-10.019,6.911-15.847-.017-3.269-1.86-6.355-1.693-9.621.2-4,3.3-7.165,5.222-10.684,2.945-5.384,3.173-11.77,4.2-17.821s3.376-12.524,8.761-15.47c.764,5.146,2.1,8.676,1.632,15.639-.167,2.5-3.1,7.274-3.527,12.754-.254,3.275-.437,6.556-.656,9.835a31.525,31.525,0,0,1-1.6,9.417c-.89,2.283-2.31,4.353-2.974,6.712-1.249,4.437.332,9.259-.682,13.756-.86,3.81-3.518,7.078-4.08,10.943-.789,5.43,2.7,11.1.867,16.27-.908,2.567-3.036,4.62-3.651,7.273-.477,2.058.018,4.243-.416,6.311-.7,3.331-7.075,5.886-10.471,5.66" transform="translate(-416.477 -295.857)" fill="#455a64"/>
          </g>
          <g id="Group_10009" data-name="Group 10009" transform="translate(5.026 5.097)">
            <g id="Group_10008" data-name="Group 10008">
              <path id="Path_7254" data-name="Path 7254" d="M446.151,301.409a1.328,1.328,0,0,1-.023.29c-.028.217-.066.495-.113.845-.115.742-.246,1.832-.5,3.241-.277,1.417-1.017,3.008-1.612,4.93-.627,1.916-1.251,4.126-1.808,6.6s-1.041,5.212-1.542,8.161a34.2,34.2,0,0,1-2.527,9.223c-.686,1.54-1.454,3.08-2.033,4.722a21.234,21.234,0,0,0-1.048,5.211,105.519,105.519,0,0,1-1.479,11.239c-1.522,7.61-2.972,14.858-4.292,21.456-1.389,6.572-2.639,12.492-3.693,17.476-1.063,4.947-1.926,8.961-2.53,11.773-.3,1.363-.542,2.434-.711,3.2l-.2.828a1.3,1.3,0,0,1-.083.279,1.286,1.286,0,0,1,.035-.289l.151-.838.624-3.214c.568-2.819,1.381-6.844,2.381-11.8,1.024-4.99,2.242-10.918,3.592-17.5,1.308-6.6,2.744-13.843,4.252-21.451a106.639,106.639,0,0,0,1.484-11.2,21.624,21.624,0,0,1,1.083-5.315c.6-1.678,1.376-3.224,2.063-4.751a34.108,34.108,0,0,0,2.538-9.112c.517-2.942,1.014-5.69,1.6-8.168s1.23-4.695,1.884-6.61c.624-1.928,1.386-3.506,1.685-4.886.283-1.383.446-2.483.59-3.216.067-.346.119-.622.161-.836A1.3,1.3,0,0,1,446.151,301.409Z" transform="translate(-421.951 -301.409)" fill="#fff"/>
            </g>
          </g>
        </g>
      </g>
    </g>
    <g id="Group_10275" data-name="Group 10275" transform="translate(-15694.5 23009.078)">
      <g id="Group_9816" data-name="Group 9816" transform="translate(3.106 279.344)">
        <g id="Group_9815" data-name="Group 9815">
          <g id="Group_9755" data-name="Group 9755" transform="translate(0.168)">
            <g id="Group_9751" data-name="Group 9751">
              <g id="Group_9750" data-name="Group 9750">
                <g id="Group_9749" data-name="Group 9749">
                  <path id="Path_7167" data-name="Path 7167" d="M55.342,448.525,54.183,455.1l.978.216c4.359.922,22.229,4.384,25.3,3.946,3.432-.489-9.636-5.627-9.636-5.627l.411-2.777Z" transform="translate(-54.183 -448.525)" fill="#e8505b"/>
                </g>
              </g>
            </g>
            <g id="Group_9754" data-name="Group 9754" transform="translate(0.051 1.896)" opacity="0.5">
              <g id="Group_9753" data-name="Group 9753">
                <g id="Group_9752" data-name="Group 9752">
                  <path id="Path_7168" data-name="Path 7168" d="M59.982,455.967a5.6,5.6,0,0,0-1.509-3.711,5.438,5.438,0,0,0-3.546-1.734l-.691,4.453Z" transform="translate(-54.237 -450.523)" fill="#fff"/>
                </g>
              </g>
            </g>
          </g>
          <g id="Group_9758" data-name="Group 9758" transform="translate(0.168 6.222)">
            <g id="Group_9757" data-name="Group 9757">
              <g id="Group_9756" data-name="Group 9756" opacity="0.5">
                <path id="Path_7169" data-name="Path 7169" d="M77.179,456.716s4.534,2.1,3.821,2.792-18.9-2.128-26.817-4.073l.081-.352,21.189,3.468S76.246,456.611,77.179,456.716Z" transform="translate(-54.183 -455.082)" fill="#fff"/>
              </g>
            </g>
          </g>
          <g id="Group_9762" data-name="Group 9762" transform="translate(0 6.171)">
            <g id="Group_9761" data-name="Group 9761">
              <g id="Group_9760" data-name="Group 9760">
                <g id="Group_9759" data-name="Group 9759">
                  <path id="Path_7170" data-name="Path 7170" d="M54.006,455.031a1.488,1.488,0,0,0,.269.072l.779.169,2.876.573c2.432.467,5.8,1.067,9.535,1.65s7.127,1.033,9.585,1.327l2.915.328.793.076a.14.14,0,1,0,0-.039l-.789-.112-2.905-.39c-2.454-.33-5.841-.8-9.574-1.384s-7.1-1.16-9.539-1.592l-2.887-.511-.786-.134A1.463,1.463,0,0,0,54.006,455.031Z" transform="translate(-54.006 -455.029)" fill="#263238"/>
                </g>
              </g>
            </g>
          </g>
          <g id="Group_9766" data-name="Group 9766" transform="translate(21.382 7.675)">
            <g id="Group_9765" data-name="Group 9765">
              <g id="Group_9764" data-name="Group 9764">
                <g id="Group_9763" data-name="Group 9763">
                  <path id="Path_7171" data-name="Path 7171" d="M76.553,458.875a6.646,6.646,0,0,1,.755-1.3,6.525,6.525,0,0,1,1.159-.955,2.606,2.606,0,0,0-1.915,2.253Z" transform="translate(-76.541 -456.614)" fill="#263238"/>
                </g>
              </g>
            </g>
          </g>
          <g id="Group_9770" data-name="Group 9770" transform="translate(17.059 5.624)">
            <g id="Group_9769" data-name="Group 9769">
              <g id="Group_9768" data-name="Group 9768">
                <g id="Group_9767" data-name="Group 9767">
                  <path id="Path_7172" data-name="Path 7172" d="M71.99,455.651c.041.036.307-.2.6-.533s.491-.626.45-.662-.307.2-.6.533S71.949,455.616,71.99,455.651Z" transform="translate(-71.984 -454.452)" fill="#263238"/>
                </g>
              </g>
            </g>
          </g>
          <g id="Group_9774" data-name="Group 9774" transform="translate(15.877 5.193)">
            <g id="Group_9773" data-name="Group 9773">
              <g id="Group_9772" data-name="Group 9772">
                <g id="Group_9771" data-name="Group 9771">
                  <path id="Path_7173" data-name="Path 7173" d="M70.742,454.747c.029.045.306-.084.62-.288s.542-.406.512-.451-.306.084-.62.288S70.712,454.7,70.742,454.747Z" transform="translate(-70.739 -453.998)" fill="#263238"/>
                </g>
              </g>
            </g>
          </g>
          <g id="Group_9778" data-name="Group 9778" transform="translate(15.297 4.281)">
            <g id="Group_9777" data-name="Group 9777">
              <g id="Group_9776" data-name="Group 9776">
                <g id="Group_9775" data-name="Group 9775">
                  <path id="Path_7174" data-name="Path 7174" d="M70.128,453.067a3.676,3.676,0,0,0,1.661.276,3.684,3.684,0,0,0-1.661-.276Z" transform="translate(-70.128 -453.037)" fill="#263238"/>
                </g>
              </g>
            </g>
          </g>
          <g id="Group_9782" data-name="Group 9782" transform="translate(15.18 3.198)">
            <g id="Group_9781" data-name="Group 9781">
              <g id="Group_9780" data-name="Group 9780">
                <g id="Group_9779" data-name="Group 9779">
                  <path id="Path_7175" data-name="Path 7175" d="M70.006,451.9a2.368,2.368,0,0,0,1.863.435,5.176,5.176,0,0,0-.933-.211A5.212,5.212,0,0,0,70.006,451.9Z" transform="translate(-70.005 -451.895)" fill="#263238"/>
                </g>
              </g>
            </g>
          </g>
          <g id="Group_9786" data-name="Group 9786" transform="translate(17.819 4.377)">
            <g id="Group_9785" data-name="Group 9785">
              <g id="Group_9784" data-name="Group 9784">
                <g id="Group_9783" data-name="Group 9783">
                  <path id="Path_7176" data-name="Path 7176" d="M72.786,454.279a3.013,3.013,0,0,0,1.025.152,6.021,6.021,0,0,0,1.127-.071,3.1,3.1,0,0,0,.664-.16.568.568,0,0,0,.3-.279.41.41,0,0,0-.092-.434,1.9,1.9,0,0,0-2.407.19,1.851,1.851,0,0,0-.439.631c-.068.169-.081.269-.069.273a2.921,2.921,0,0,1,.6-.8,1.865,1.865,0,0,1,.962-.433,1.608,1.608,0,0,1,1.208.272c.143.145.05.327-.147.407a3.109,3.109,0,0,1-.613.157,7.266,7.266,0,0,1-1.1.111C73.182,454.306,72.791,454.246,72.786,454.279Z" transform="translate(-72.786 -453.138)" fill="#263238"/>
                </g>
              </g>
            </g>
          </g>
          <g id="Group_9790" data-name="Group 9790" transform="translate(16.981 3.472)">
            <g id="Group_9789" data-name="Group 9789">
              <g id="Group_9788" data-name="Group 9788">
                <g id="Group_9787" data-name="Group 9787">
                  <path id="Path_7177" data-name="Path 7177" d="M73,454.322a1.018,1.018,0,0,0,.229-.693,1.688,1.688,0,0,0-.164-.791,1.038,1.038,0,0,0-.771-.654.411.411,0,0,0-.388.423,1.136,1.136,0,0,0,.1.485,3.182,3.182,0,0,0,.388.695c.272.362.507.522.522.5s-.176-.215-.408-.584a3.525,3.525,0,0,1-.333-.68c-.107-.238-.143-.641.121-.648.26.014.482.31.607.539a1.7,1.7,0,0,1,.186.71A3.677,3.677,0,0,1,73,454.322Z" transform="translate(-71.902 -452.184)" fill="#263238"/>
                </g>
              </g>
            </g>
          </g>
          <g id="Group_9794" data-name="Group 9794" transform="translate(1 1.841)">
            <g id="Group_9793" data-name="Group 9793">
              <g id="Group_9792" data-name="Group 9792">
                <g id="Group_9791" data-name="Group 9791">
                  <path id="Path_7178" data-name="Path 7178" d="M55.06,450.489c0,.036.463.027,1.171.224a5.049,5.049,0,0,1,3.657,3.972c.138.721.09,1.183.126,1.185a.9.9,0,0,0,.05-.322,4.233,4.233,0,0,0-.04-.886,4.9,4.9,0,0,0-3.759-4.084,4.312,4.312,0,0,0-.881-.113A.934.934,0,0,0,55.06,450.489Z" transform="translate(-55.06 -450.465)" fill="#263238"/>
                </g>
              </g>
            </g>
          </g>
          <g id="Group_9798" data-name="Group 9798" transform="translate(8.209 6.089)">
            <g id="Group_9797" data-name="Group 9797">
              <g id="Group_9796" data-name="Group 9796">
                <g id="Group_9795" data-name="Group 9795">
                  <path id="Path_7179" data-name="Path 7179" d="M62.658,454.951a9.109,9.109,0,0,0,2.291.591,9.147,9.147,0,0,0,2.359.175c0-.057-1.047-.155-2.328-.367S62.673,454.9,62.658,454.951Z" transform="translate(-62.658 -454.943)" fill="#263238"/>
                </g>
              </g>
            </g>
          </g>
          <g id="Group_9802" data-name="Group 9802" transform="translate(5.076 5.605)">
            <g id="Group_9801" data-name="Group 9801">
              <g id="Group_9800" data-name="Group 9800">
                <g id="Group_9799" data-name="Group 9799">
                  <path id="Path_7180" data-name="Path 7180" d="M59.367,454.436c-.045.033.051.234.12.49s.095.475.15.48.121-.239.039-.533S59.408,454.4,59.367,454.436Z" transform="translate(-59.356 -454.432)" fill="#263238"/>
                </g>
              </g>
            </g>
          </g>
          <g id="Group_9806" data-name="Group 9806" transform="translate(4.126 3.958)">
            <g id="Group_9805" data-name="Group 9805">
              <g id="Group_9804" data-name="Group 9804">
                <g id="Group_9803" data-name="Group 9803">
                  <path id="Path_7181" data-name="Path 7181" d="M58.366,452.7c-.044.031.033.213.173.406s.287.323.331.291-.034-.214-.173-.406S58.41,452.669,58.366,452.7Z" transform="translate(-58.354 -452.696)" fill="#263238"/>
                </g>
              </g>
            </g>
          </g>
          <g id="Group_9810" data-name="Group 9810" transform="translate(2.558 2.974)">
            <g id="Group_9809" data-name="Group 9809">
              <g id="Group_9808" data-name="Group 9808">
                <g id="Group_9807" data-name="Group 9807">
                  <path id="Path_7182" data-name="Path 7182" d="M56.7,451.718c0,.055.214.086.436.2s.37.269.417.24-.051-.27-.327-.413S56.693,451.666,56.7,451.718Z" transform="translate(-56.702 -451.66)" fill="#263238"/>
                </g>
              </g>
            </g>
          </g>
          <g id="Group_9814" data-name="Group 9814" transform="translate(1.403 2.506)">
            <g id="Group_9813" data-name="Group 9813">
              <g id="Group_9812" data-name="Group 9812">
                <g id="Group_9811" data-name="Group 9811">
                  <path id="Path_7183" data-name="Path 7183" d="M55.49,451.191c-.027.047.052.143.176.214s.247.092.274.046-.052-.142-.176-.215S55.517,451.144,55.49,451.191Z" transform="translate(-55.485 -451.166)" fill="#263238"/>
                </g>
              </g>
            </g>
          </g>
        </g>
      </g>
      <g id="Group_9884" data-name="Group 9884" transform="translate(88.275 283.065)">
        <g id="Group_9883" data-name="Group 9883">
          <g id="Group_9823" data-name="Group 9823">
            <g id="Group_9819" data-name="Group 9819">
              <g id="Group_9818" data-name="Group 9818">
                <g id="Group_9817" data-name="Group 9817">
                  <path id="Path_7184" data-name="Path 7184" d="M143.765,454.346l.6,6.649,1-.047c4.448-.248,22.6-1.572,25.458-2.8,3.184-1.367-10.77-2.915-10.77-2.915l-.329-2.788Z" transform="translate(-143.765 -452.446)" fill="#e8505b"/>
                </g>
              </g>
            </g>
            <g id="Group_9822" data-name="Group 9822" transform="translate(0.093 3.746)" opacity="0.5">
              <g id="Group_9821" data-name="Group 9821">
                <g id="Group_9820" data-name="Group 9820">
                  <path id="Path_7185" data-name="Path 7185" d="M150.163,460.422a5.59,5.59,0,0,0-2.425-3.187,5.433,5.433,0,0,0-3.875-.748l.5,4.479Z" transform="translate(-143.863 -456.394)" fill="#fff"/>
                </g>
              </g>
            </g>
          </g>
          <g id="Group_9826" data-name="Group 9826" transform="translate(0.584 3.781)">
            <g id="Group_9825" data-name="Group 9825">
              <g id="Group_9824" data-name="Group 9824" opacity="0.5">
                <path id="Path_7186" data-name="Path 7186" d="M166.928,456.431s4.925.845,4.417,1.7-18.8,2.882-26.95,3.07l-.014-.36,21.36-2.185S166,456.574,166.928,456.431Z" transform="translate(-144.38 -456.431)" fill="#fff"/>
              </g>
            </g>
          </g>
          <g id="Group_9830" data-name="Group 9830" transform="translate(0.331 5.208)">
            <g id="Group_9829" data-name="Group 9829">
              <g id="Group_9828" data-name="Group 9828">
                <g id="Group_9827" data-name="Group 9827">
                  <path id="Path_7187" data-name="Path 7187" d="M144.114,460.932a1.561,1.561,0,0,0,.279,0l.8-.04,2.926-.2c2.47-.184,5.878-.484,9.635-.9s7.15-.864,9.6-1.221l2.9-.445.787-.134a1.555,1.555,0,0,0,.272-.06,1.514,1.514,0,0,0-.278.021l-.791.1-2.906.382c-2.455.323-5.848.75-9.6,1.164s-7.158.734-9.624.954l-2.921.26-.793.077A1.456,1.456,0,0,0,144.114,460.932Z" transform="translate(-144.114 -457.935)" fill="#263238"/>
                </g>
              </g>
            </g>
          </g>
          <g id="Group_9834" data-name="Group 9834" transform="translate(21.91 3.572)">
            <g id="Group_9833" data-name="Group 9833">
              <g id="Group_9832" data-name="Group 9832">
                <g id="Group_9831" data-name="Group 9831">
                  <path id="Path_7188" data-name="Path 7188" d="M166.913,458.89a4.26,4.26,0,0,1,1.259-2.676,2.6,2.6,0,0,0-1.259,2.676Z" transform="translate(-166.856 -456.211)" fill="#263238"/>
                </g>
              </g>
            </g>
          </g>
          <g id="Group_9838" data-name="Group 9838" transform="translate(16.962 2.949)">
            <g id="Group_9837" data-name="Group 9837">
              <g id="Group_9836" data-name="Group 9836">
                <g id="Group_9835" data-name="Group 9835">
                  <path id="Path_7189" data-name="Path 7189" d="M161.652,456.982c.048.024.244-.276.436-.671s.31-.732.262-.756-.244.276-.437.671S161.6,456.958,161.652,456.982Z" transform="translate(-161.641 -455.554)" fill="#263238"/>
                </g>
              </g>
            </g>
          </g>
          <g id="Group_9842" data-name="Group 9842" transform="translate(15.593 2.822)">
            <g id="Group_9841" data-name="Group 9841">
              <g id="Group_9840" data-name="Group 9840">
                <g id="Group_9839" data-name="Group 9839">
                  <path id="Path_7190" data-name="Path 7190" d="M160.2,456.433c.041.036.275-.161.524-.439s.417-.534.377-.569-.274.16-.523.439S160.165,456.4,160.2,456.433Z" transform="translate(-160.199 -455.42)" fill="#263238"/>
                </g>
              </g>
            </g>
          </g>
          <g id="Group_9846" data-name="Group 9846" transform="translate(14.611 2.203)">
            <g id="Group_9845" data-name="Group 9845">
              <g id="Group_9844" data-name="Group 9844">
                <g id="Group_9843" data-name="Group 9843">
                  <path id="Path_7191" data-name="Path 7191" d="M159.164,454.979a3.7,3.7,0,1,0,.828-.18A1.9,1.9,0,0,0,159.164,454.979Z" transform="translate(-159.164 -454.767)" fill="#263238"/>
                </g>
              </g>
            </g>
          </g>
          <g id="Group_9850" data-name="Group 9850" transform="translate(14.212 1.292)">
            <g id="Group_9849" data-name="Group 9849">
              <g id="Group_9848" data-name="Group 9848">
                <g id="Group_9847" data-name="Group 9847">
                  <path id="Path_7192" data-name="Path 7192" d="M158.743,453.894a2.368,2.368,0,0,0,1.912-.067,5.238,5.238,0,0,0-.955.04A5.182,5.182,0,0,0,158.743,453.894Z" transform="translate(-158.743 -453.808)" fill="#263238"/>
                </g>
              </g>
            </g>
          </g>
          <g id="Group_9854" data-name="Group 9854" transform="translate(17.361 1.242)">
            <g id="Group_9853" data-name="Group 9853">
              <g id="Group_9852" data-name="Group 9852">
                <g id="Group_9851" data-name="Group 9851">
                  <path id="Path_7193" data-name="Path 7193" d="M162.062,455.433a3.007,3.007,0,0,0,1.03-.122,6.078,6.078,0,0,0,1.069-.362,3.041,3.041,0,0,0,.6-.328.565.565,0,0,0,.219-.348.407.407,0,0,0-.2-.395,1.9,1.9,0,0,0-2.273.811,1.859,1.859,0,0,0-.26.725.584.584,0,0,0,0,.281,2.948,2.948,0,0,1,.371-.931,1.879,1.879,0,0,1,.817-.669,1.605,1.605,0,0,1,1.236-.052c.176.1.134.3-.035.431a3.048,3.048,0,0,1-.552.311,7.174,7.174,0,0,1-1.03.394C162.451,455.356,162.058,455.4,162.062,455.433Z" transform="translate(-162.062 -453.755)" fill="#263238"/>
                </g>
              </g>
            </g>
          </g>
          <g id="Group_9858" data-name="Group 9858" transform="translate(16.112 1.052)">
            <g id="Group_9857" data-name="Group 9857">
              <g id="Group_9856" data-name="Group 9856">
                <g id="Group_9855" data-name="Group 9855">
                  <path id="Path_7194" data-name="Path 7194" d="M162.267,455.443a1.015,1.015,0,0,0,.04-.728,1.7,1.7,0,0,0-.364-.721,1.043,1.043,0,0,0-.916-.43.412.412,0,0,0-.265.511,1.147,1.147,0,0,0,.226.441,3.112,3.112,0,0,0,.556.568,1.506,1.506,0,0,0,.635.352c.015-.027-.225-.162-.546-.456a3.673,3.673,0,0,1-.5-.57c-.166-.2-.306-.582-.053-.658.255-.053.547.174.727.362a1.7,1.7,0,0,1,.365.638A3.762,3.762,0,0,1,162.267,455.443Z" transform="translate(-160.745 -453.555)" fill="#263238"/>
                </g>
              </g>
            </g>
          </g>
          <g id="Group_9862" data-name="Group 9862" transform="translate(0.172 3.553)">
            <g id="Group_9861" data-name="Group 9861">
              <g id="Group_9860" data-name="Group 9860">
                <g id="Group_9859" data-name="Group 9859">
                  <path id="Path_7195" data-name="Path 7195" d="M143.946,456.422c.008.036.455-.095,1.188-.089a5.046,5.046,0,0,1,4.568,2.879c.321.66.4,1.12.432,1.11A.932.932,0,0,0,150.1,460a4.136,4.136,0,0,0-.27-.845,4.9,4.9,0,0,0-4.695-2.96,4.208,4.208,0,0,0-.879.12A.94.94,0,0,0,143.946,456.422Z" transform="translate(-143.946 -456.19)" fill="#263238"/>
                </g>
              </g>
            </g>
          </g>
          <g id="Group_9866" data-name="Group 9866" transform="translate(8.237 5.503)">
            <g id="Group_9865" data-name="Group 9865">
              <g id="Group_9864" data-name="Group 9864">
                <g id="Group_9863" data-name="Group 9863">
                  <path id="Path_7196" data-name="Path 7196" d="M152.446,458.731a13.21,13.21,0,0,0,4.687-.474c-.012-.056-1.051.124-2.343.253S152.446,458.674,152.446,458.731Z" transform="translate(-152.446 -458.246)" fill="#263238"/>
                </g>
              </g>
            </g>
          </g>
          <g id="Group_9870" data-name="Group 9870" transform="translate(5.09 6.324)">
            <g id="Group_9869" data-name="Group 9869">
              <g id="Group_9868" data-name="Group 9868">
                <g id="Group_9867" data-name="Group 9867">
                  <path id="Path_7197" data-name="Path 7197" d="M149.135,459.12c-.034.043.111.212.244.44s.215.435.27.425.054-.263-.1-.525S149.165,459.077,149.135,459.12Z" transform="translate(-149.13 -459.111)" fill="#263238"/>
                </g>
              </g>
            </g>
          </g>
          <g id="Group_9874" data-name="Group 9874" transform="translate(3.743 4.981)">
            <g id="Group_9873" data-name="Group 9873">
              <g id="Group_9872" data-name="Group 9872">
                <g id="Group_9871" data-name="Group 9871">
                  <path id="Path_7198" data-name="Path 7198" d="M147.716,457.705c-.034.042.087.2.272.346s.361.237.4.2-.088-.2-.273-.347S147.75,457.664,147.716,457.705Z" transform="translate(-147.71 -457.695)" fill="#263238"/>
                </g>
              </g>
            </g>
          </g>
          <g id="Group_9878" data-name="Group 9878" transform="translate(1.979 4.38)">
            <g id="Group_9877" data-name="Group 9877">
              <g id="Group_9876" data-name="Group 9876">
                <g id="Group_9875" data-name="Group 9875">
                  <path id="Path_7199" data-name="Path 7199" d="M145.852,457.187c.017.053.231.027.474.084s.429.163.467.122-.12-.248-.424-.313S145.83,457.14,145.852,457.187Z" transform="translate(-145.851 -457.062)" fill="#263238"/>
                </g>
              </g>
            </g>
          </g>
          <g id="Group_9882" data-name="Group 9882" transform="translate(0.739 4.273)">
            <g id="Group_9881" data-name="Group 9881">
              <g id="Group_9880" data-name="Group 9880">
                <g id="Group_9879" data-name="Group 9879">
                  <path id="Path_7200" data-name="Path 7200" d="M144.545,457c-.014.052.087.124.226.16s.262.025.276-.028-.087-.124-.226-.161S144.558,456.946,144.545,457Z" transform="translate(-144.544 -456.949)" fill="#263238"/>
                </g>
              </g>
            </g>
          </g>
        </g>
      </g>
      <g id="Group_9885" data-name="Group 9885" transform="translate(62.947 2.051)">
        <path id="Path_7201" data-name="Path 7201" d="M147.069,187.049c-1.283-6.839-8.838-10.64-11.789-16.942-1.148-2.453-1.557-5.213-2.821-7.608a12.228,12.228,0,0,0-14.916-5.41l-.472.732c3.049,6.415,6.1,10.82,9.147,17.234a22.677,22.677,0,0,1,2.432,7.019,7.669,7.669,0,0,1-2.3,6.781c-1.531,1.27-3.621,1.651-5.272,2.761a8.592,8.592,0,0,0-3.369,7.988,14.457,14.457,0,0,0,3.974,8.028c1.967,2.156,5.084,4,7.677,2.664,1.309-.676,2.121-2,3.087-3.115,1.983-2.281,4.722-3.734,7.162-5.518C144.271,198.257,148.133,192.723,147.069,187.049Z" transform="translate(-117.072 -156.285)" fill="#263238"/>
      </g>
      <g id="Group_9912" data-name="Group 9912" transform="translate(48.52 46.483)">
        <g id="Group_9908" data-name="Group 9908" transform="translate(30.466)">
          <g id="Group_9901" data-name="Group 9901">
            <g id="Group_9886" data-name="Group 9886" transform="translate(59.365 6.24)">
              <path id="Path_7202" data-name="Path 7202" d="M216.863,221.549c-1.712,1.562-11.057,9.408-11.057,9.408l-9.266-8.433c.241-.693,2.508-4.582,2.772-5.562a7.619,7.619,0,0,0,.232-2.583,11.676,11.676,0,0,0-.578-3.182c-.407-.91.5-1.84,1.289-1.392s1.967,2.927,1.931,6.134,12.554-4.155,14.346-2.354Z" transform="translate(-196.54 -209.689)" fill="#ffbe9d"/>
            </g>
            <g id="Group_9887" data-name="Group 9887" transform="translate(75.816 17.17)">
              <path id="Path_7203" data-name="Path 7203" d="M213.878,221.208" transform="translate(-213.878 -221.208)" fill="#ffbe9d"/>
            </g>
            <g id="Group_9888" data-name="Group 9888" transform="translate(0 5.502)">
              <path id="Path_7204" data-name="Path 7204" d="M133.975,208.911l30.755,36.8,28.235-25.534L205.28,232.2s-35.443,39-40.851,38.723S140.657,258.5,140.657,258.5Z" transform="translate(-133.975 -208.911)" fill="#e8505b"/>
            </g>
            <g id="Group_9892" data-name="Group 9892" transform="translate(60.753)">
              <g id="Group_9891" data-name="Group 9891">
                <g id="Group_9889" data-name="Group 9889">
                  <path id="Path_7205" data-name="Path 7205" d="M207.047,203.139a.506.506,0,0,0-.63.292l-8.354,21.076a.8.8,0,0,0,.4,1.024l9.928,4.732a.8.8,0,0,0,1.078-.406l9.395-21.848a.8.8,0,0,0-.475-1.072Z" transform="translate(-198.003 -203.112)" fill="#263238"/>
                </g>
                <g id="Group_9890" data-name="Group 9890" transform="translate(1.088 1.548)">
                  <path id="Path_7206" data-name="Path 7206" d="M206.835,204.743l-7.685,18.806,10.4,4.706,7.872-19.939Z" transform="translate(-199.15 -204.743)" fill="#f5f5f5"/>
                </g>
              </g>
            </g>
            <g id="Group_9894" data-name="Group 9894" transform="translate(53.493 21.572)">
              <g id="Group_9893" data-name="Group 9893">
                <path id="Path_7207" data-name="Path 7207" d="M203.386,238.545A13.167,13.167,0,0,1,201.2,237a64.859,64.859,0,0,1-9.243-9,13.074,13.074,0,0,1-1.606-2.142,18.059,18.059,0,0,1,1.853,1.924c1.116,1.211,2.678,2.864,4.476,4.616s3.492,3.269,4.731,4.352A18.148,18.148,0,0,1,203.386,238.545Z" transform="translate(-190.351 -225.847)" fill="#263238"/>
              </g>
            </g>
            <g id="Group_9896" data-name="Group 9896" transform="translate(57.082 19.982)">
              <g id="Group_9895" data-name="Group 9895">
                <path id="Path_7208" data-name="Path 7208" d="M194.746,224.561c.058.05-.322.354-.281,1.008a1.272,1.272,0,0,0,.46.92,1.158,1.158,0,0,0,1.754-1.008,1.271,1.271,0,0,0-.564-.862c-.544-.364-1-.19-1.012-.265-.01-.023.079-.108.289-.157a1.339,1.339,0,0,1,.888.139,1.542,1.542,0,0,1,.823,1.085,1.554,1.554,0,0,1-2.446,1.4,1.543,1.543,0,0,1-.523-1.256,1.343,1.343,0,0,1,.329-.838C194.613,224.575,194.732,224.541,194.746,224.561Z" transform="translate(-194.134 -224.171)" fill="#263238"/>
              </g>
            </g>
            <g id="Group_9898" data-name="Group 9898" transform="translate(28.899 42.126)">
              <g id="Group_9897" data-name="Group 9897">
                <path id="Path_7209" data-name="Path 7209" d="M165.077,258.438a4.47,4.47,0,0,1-.454-1.6,14.571,14.571,0,0,1,.894-7.88,4.444,4.444,0,0,1,.8-1.453,32.064,32.064,0,0,0-1.329,5.384A32.235,32.235,0,0,0,165.077,258.438Z" transform="translate(-164.432 -247.509)" fill="#263238"/>
              </g>
            </g>
            <g id="Group_9900" data-name="Group 9900" transform="translate(30.648 41.871)">
              <g id="Group_9899" data-name="Group 9899">
                <path id="Path_7210" data-name="Path 7210" d="M169.551,258.144a4.859,4.859,0,0,1-.994-1.379,17.31,17.31,0,0,1-2.272-7.828,4.843,4.843,0,0,1,.1-1.7,45.982,45.982,0,0,0,1.013,5.617A46.2,46.2,0,0,0,169.551,258.144Z" transform="translate(-166.275 -247.24)" fill="#263238"/>
              </g>
            </g>
          </g>
          <g id="Group_9902" data-name="Group 9902" transform="translate(64.622 5.053)">
            <path id="Path_7211" data-name="Path 7211" d="M207.166,208.438l-5.085,12.646L209.7,224.2l5.309-12.926Z" transform="translate(-202.081 -208.438)" fill="#ebebeb"/>
          </g>
          <g id="Group_9903" data-name="Group 9903" transform="translate(66.146 15.384)">
            <path id="Rectangle_3192" data-name="Rectangle 3192" d="M.731,0H5.453a.731.731,0,0,1,.731.731V.8a.731.731,0,0,1-.731.731H.732A.732.732,0,0,1,0,.8V.731A.731.731,0,0,1,.731,0Z" transform="translate(0.59 0) rotate(22.68)" fill="#e8505b"/>
          </g>
          <g id="Group_9904" data-name="Group 9904" transform="translate(69.945 7.126)">
            <rect id="Rectangle_3193" data-name="Rectangle 3193" width="6.032" height="0.88" transform="translate(0.31 0) rotate(20.633)" fill="#455a64"/>
          </g>
          <g id="Group_9905" data-name="Group 9905" transform="translate(68.279 9.746)">
            <rect id="Rectangle_3194" data-name="Rectangle 3194" width="6.67" height="1.725" transform="translate(0.608 0) rotate(20.634)" fill="#e0e0e0"/>
          </g>
          <g id="Group_9906" data-name="Group 9906" transform="translate(67.249 12.342)">
            <rect id="Rectangle_3195" data-name="Rectangle 3195" width="6.67" height="1.725" transform="translate(0.608 0) rotate(20.634)" fill="#e0e0e0"/>
          </g>
          <g id="Group_9907" data-name="Group 9907" transform="translate(72.239 10.136)">
            <path id="Path_7212" data-name="Path 7212" d="M217.225,213.795c-1.437.235-3.192.379-4.628.614a2.61,2.61,0,0,0-1.161.388.89.89,0,0,0-.325,1.085c.23.41.8.446,1.265.431l3.171-.1a16.9,16.9,0,0,0-3.992.667c-.6.2-1.259.6-1.271,1.227a1.164,1.164,0,0,0,1.049,1.051,12.516,12.516,0,0,0,1.664.026s2.171.031,2.266.314c-1.355-.009-3.146.284-4.5.4-.37.033-.539.54-.628.9a.821.821,0,0,0,.392.947,1.234,1.234,0,0,0,.534.062l5.256-.162" transform="translate(-210.108 -213.795)" fill="#ffbe9d"/>
          </g>
        </g>
        <g id="Group_9911" data-name="Group 9911" transform="translate(0 3.222)">
          <g id="Group_9909" data-name="Group 9909">
            <path id="Path_7213" data-name="Path 7213" d="M121.452,206.593s6.4-.752,10.881,2.195c4.055,2.665,18.259,43.393,17.711,55.478s.987,33.391,3.473,42.174,4.368,84.942-15.23,121.183l-36.42-5.112,11.382-97.81-1.163-88.734Z" transform="translate(-101.867 -206.508)" fill="#e8505b"/>
          </g>
          <g id="Group_9910" data-name="Group 9910" transform="translate(1.037)" opacity="0.3">
            <path id="Path_7214" data-name="Path 7214" d="M119.415,206.593s6.4-.752,10.881,2.195c4.054,2.665,18.259,43.393,17.711,55.478s.986,33.391,3.473,42.174,4.368,84.942-15.231,121.183L102.96,422.51l8.251-97.81-1.162-88.734Z" transform="translate(-102.96 -206.508)"/>
          </g>
        </g>
      </g>
      <g id="Group_9913" data-name="Group 9913" transform="translate(37.031 47.88)">
        <path id="Path_7215" data-name="Path 7215" d="M105.343,204.622s-20.03-2.162-14.673,26.472l5.146,30.123L128.523,281c4.419,1.192.662-20.592,7.315-30.625,2.494-3.761,2.71-6.577,2.494-8.313.63-6.565-4.63-10.663-5.379-17.3-.823-9.618-.786-14.946-4.97-16.021l-22.639-4.119" transform="translate(-89.759 -204.585)" fill="#455a64"/>
      </g>
      <g id="Group_9915" data-name="Group 9915" transform="translate(80.087 65.772)">
        <g id="Group_9914" data-name="Group 9914">
          <path id="Path_7216" data-name="Path 7216" d="M135.65,223.441a8.983,8.983,0,0,0-.006,4.221,17.1,17.1,0,0,0,1.753,4.273,36.606,36.606,0,0,1,2.552,5.167,16.452,16.452,0,0,1,.14,10.371,14.734,14.734,0,0,1-1.275,2.911,4.735,4.735,0,0,1-.658.96,27.038,27.038,0,0,0,1.618-3.966,16.826,16.826,0,0,0-.264-10.121,39.733,39.733,0,0,0-2.493-5.12,16.42,16.42,0,0,1-1.7-4.4,7.976,7.976,0,0,1-.051-3.186,4.706,4.706,0,0,1,.241-.834C135.589,223.528,135.635,223.435,135.65,223.441Z" transform="translate(-135.136 -223.441)" fill="#263238"/>
        </g>
      </g>
      <g id="Group_9951" data-name="Group 9951" transform="translate(47.952 5.392)">
        <g id="Group_9950" data-name="Group 9950">
          <g id="Group_9949" data-name="Group 9949">
            <g id="Group_9918" data-name="Group 9918">
              <g id="Group_9917" data-name="Group 9917">
                <g id="Group_9916" data-name="Group 9916">
                  <path id="Path_7217" data-name="Path 7217" d="M123.89,204.393c-.471-4.927-.875-10.123-.875-10.123s6.243-1.678,6.743-10.088c.477-8.02-1.948-21.986-1.948-21.986v-.708c-9.5-2.826-20.747-2.714-26.54,5.238h0l4.474,39.959c.519,4.639,4.922,7.887,9.884,7.293h0C120.64,213.376,124.337,209.088,123.89,204.393Z" transform="translate(-101.269 -159.806)" fill="#ffbe9d"/>
                </g>
              </g>
            </g>
            <g id="Group_9926" data-name="Group 9926" transform="translate(22.324 10.439)">
              <g id="Group_9921" data-name="Group 9921" transform="translate(2.091 1.232)">
                <g id="Group_9920" data-name="Group 9920">
                  <g id="Group_9919" data-name="Group 9919">
                    <path id="Path_7218" data-name="Path 7218" d="M129.116,172.968a1.067,1.067,0,0,1-.918,1.172,1.021,1.021,0,0,1-1.189-.849,1.068,1.068,0,0,1,.918-1.173A1.021,1.021,0,0,1,129.116,172.968Z" transform="translate(-127 -172.105)" fill="#263238"/>
                  </g>
                </g>
              </g>
              <g id="Group_9925" data-name="Group 9925">
                <g id="Group_9924" data-name="Group 9924">
                  <g id="Group_9923" data-name="Group 9923">
                    <g id="Group_9922" data-name="Group 9922">
                      <path id="Path_7219" data-name="Path 7219" d="M129,171.733c-.118.151-.981-.364-2.124-.25-1.142.1-1.923.77-2.061.641-.067-.055.043-.319.381-.621a2.932,2.932,0,0,1,1.633-.685,2.813,2.813,0,0,1,1.707.372C128.915,171.426,129.058,171.665,129,171.733Z" transform="translate(-124.796 -170.807)" fill="#263238"/>
                    </g>
                  </g>
                </g>
              </g>
            </g>
            <g id="Group_9934" data-name="Group 9934" transform="translate(10.442 12.027)">
              <g id="Group_9929" data-name="Group 9929" transform="translate(2.092 1.186)">
                <g id="Group_9928" data-name="Group 9928">
                  <g id="Group_9927" data-name="Group 9927">
                    <path id="Path_7220" data-name="Path 7220" d="M116.594,174.593a1.068,1.068,0,0,1-.919,1.173,1.021,1.021,0,0,1-1.189-.85,1.068,1.068,0,0,1,.918-1.173A1.023,1.023,0,0,1,116.594,174.593Z" transform="translate(-114.478 -173.731)" fill="#263238"/>
                  </g>
                </g>
              </g>
              <g id="Group_9933" data-name="Group 9933">
                <g id="Group_9932" data-name="Group 9932">
                  <g id="Group_9931" data-name="Group 9931">
                    <g id="Group_9930" data-name="Group 9930">
                      <path id="Path_7221" data-name="Path 7221" d="M116.477,173.407c-.119.152-.982-.364-2.124-.25-1.143.1-1.923.77-2.062.642-.066-.056.042-.319.382-.621a2.929,2.929,0,0,1,1.633-.685,2.817,2.817,0,0,1,1.707.372C116.391,173.1,116.535,173.339,116.477,173.407Z" transform="translate(-112.273 -172.481)" fill="#263238"/>
                    </g>
                  </g>
                </g>
              </g>
            </g>
            <g id="Group_9938" data-name="Group 9938" transform="translate(18.158 11.549)">
              <g id="Group_9937" data-name="Group 9937">
                <g id="Group_9936" data-name="Group 9936">
                  <g id="Group_9935" data-name="Group 9935">
                    <path id="Path_7222" data-name="Path 7222" d="M121.874,181.447a7.621,7.621,0,0,1,1.823-.518c.289-.059.56-.143.589-.347a1.494,1.494,0,0,0-.28-.846l-1.082-2.137a38.29,38.29,0,0,1-2.51-5.621,38.5,38.5,0,0,1,2.957,5.407q.547,1.127,1.047,2.153a1.7,1.7,0,0,1,.264,1.131.735.735,0,0,1-.437.473,2.019,2.019,0,0,1-.489.118A7.468,7.468,0,0,1,121.874,181.447Z" transform="translate(-120.405 -171.977)" fill="#263238"/>
                  </g>
                </g>
              </g>
            </g>
            <g id="Group_9941" data-name="Group 9941" transform="translate(10.366 32.596)">
              <g id="Group_9940" data-name="Group 9940">
                <g id="Group_9939" data-name="Group 9939">
                  <path id="Path_7223" data-name="Path 7223" d="M123.574,196.026a21.164,21.164,0,0,1-11.38-1.867s3.25,5.423,11.461,3.832Z" transform="translate(-112.194 -194.159)" fill="#eb996e"/>
                </g>
              </g>
            </g>
            <g id="Group_9944" data-name="Group 9944" transform="translate(16.07 23.193)">
              <g id="Group_9943" data-name="Group 9943">
                <g id="Group_9942" data-name="Group 9942">
                  <path id="Path_7224" data-name="Path 7224" d="M121.55,184.876a2.067,2.067,0,0,0-1.921-.583,1.886,1.886,0,0,0-1.23.824,1.2,1.2,0,0,0,.044,1.371,1.388,1.388,0,0,0,1.535.232,4.352,4.352,0,0,0,1.375-1.015,1.29,1.29,0,0,0,.293-.37.384.384,0,0,0-.044-.425" transform="translate(-118.205 -184.249)" fill="#e8505b"/>
                </g>
              </g>
            </g>
            <g id="Group_9948" data-name="Group 9948" transform="translate(16.207 22.14)">
              <g id="Group_9947" data-name="Group 9947">
                <g id="Group_9946" data-name="Group 9946">
                  <g id="Group_9945" data-name="Group 9945">
                    <path id="Path_7225" data-name="Path 7225" d="M118.484,183.14c.185-.029.309,1.211,1.457,1.986s2.456.51,2.482.682c.025.076-.271.27-.827.34a3.1,3.1,0,0,1-2.065-.5,2.7,2.7,0,0,1-1.142-1.674C118.29,183.462,118.4,183.141,118.484,183.14Z" transform="translate(-118.35 -183.139)" fill="#263238"/>
                  </g>
                </g>
              </g>
            </g>
          </g>
        </g>
      </g>
      <g id="Group_9952" data-name="Group 9952" transform="translate(2.542 162.561)">
        <path id="Path_7226" data-name="Path 7226" d="M82.213,325.447l-12.7,52.336s-15.148,62.682-15.625,64.334l-.48,1.954,21.34,1.607L111.7,329.409Z" transform="translate(-53.411 -325.447)" fill="#263238"/>
      </g>
      <g id="Group_9953" data-name="Group 9953" transform="translate(30.084 102.79)">
        <path id="Path_7227" data-name="Path 7227" d="M122.108,358.965c3.455,16.7,16.116,86.713,16.116,86.713l21.639-2.219-12.307-89.307a29.371,29.371,0,0,0-1.409-6.85l-20.23-60.649-38.069-24.2c-.377.02-6.163,15.628-5.329,26.465a27.7,27.7,0,0,0,4.857,13.5c2.421,3.533,5.79,8.457,6.542,9.595C95.124,313.83,122.108,358.965,122.108,358.965Z" transform="translate(-82.437 -262.454)" fill="#263238"/>
      </g>
      <g id="Group_9966" data-name="Group 9966" transform="translate(0 46.289)">
        <g id="Group_9954" data-name="Group 9954">
          <path id="Path_7228" data-name="Path 7228" d="M77.219,280.43q-1.568,5.658-2.58,11.442c-2.435,14.019-8.618,48.144-12.628,57.166-5.084,11.44-13.347,54.657-10.8,62.6s57.835,15.889,57.835,15.889,3.178-51.8,6.355-64.826,9.851-41.628,10.8-58.47.636-46.076-4.766-64.19-17.828-37.134-17.828-37.134-10.618,2.926-14.235,7.137c0,0-4.419,5.418-4.508,10.572s-2.445,29.676-4.049,43.923A127.518,127.518,0,0,1,77.219,280.43Z" transform="translate(-50.732 -202.908)" fill="#e8505b"/>
        </g>
        <g id="Group_9956" data-name="Group 9956" transform="translate(52.797 10.091)">
          <g id="Group_9955" data-name="Group 9955">
            <path id="Path_7229" data-name="Path 7229" d="M129.093,303.927a1,1,0,0,1-.031-.258c-.012-.2-.028-.447-.046-.759-.034-.7-.082-1.678-.142-2.92a92.388,92.388,0,0,0-1.029-10.677,36.458,36.458,0,0,0-1.937-7.115,27.847,27.847,0,0,0-4.262-7.273c-1.838-2.357-4.013-4.638-6.121-7.144A44.878,44.878,0,0,1,112.5,263.8a23.218,23.218,0,0,1-2.351-4.6,15.044,15.044,0,0,1-.552-10.054,20.018,20.018,0,0,1,2.333-4.241,7.96,7.96,0,0,0,.926-2.058,3.2,3.2,0,0,0,.084-1.059,2.285,2.285,0,0,0-.357-.96,3.2,3.2,0,0,0-1.667-1.194c-.667-.257-1.374-.441-2.042-.751a3.918,3.918,0,0,1-1.675-1.4,5.035,5.035,0,0,1-.719-1.975,13.269,13.269,0,0,1,.1-3.9q.265-1.839.509-3.527c.658-4.465,1.19-8.091,1.565-10.637.191-1.229.342-2.2.449-2.889l.128-.75a1.062,1.062,0,0,1,.06-.252,1.09,1.09,0,0,1-.012.259c-.022.2-.048.446-.083.756-.087.7-.208,1.667-.362,2.9-.339,2.551-.823,6.184-1.418,10.658q-.229,1.689-.479,3.531a12.968,12.968,0,0,0-.079,3.791,4.655,4.655,0,0,0,.669,1.818,3.514,3.514,0,0,0,1.514,1.247c.625.288,1.323.466,2.021.731a3.609,3.609,0,0,1,1.877,1.351,2.72,2.72,0,0,1,.427,1.141,3.619,3.619,0,0,1-.089,1.215,8.373,8.373,0,0,1-.969,2.182,19.717,19.717,0,0,0-2.284,4.162,14.633,14.633,0,0,0,.556,9.744,28.684,28.684,0,0,0,5.292,8.459c2.09,2.5,4.264,4.788,6.11,7.173a28.027,28.027,0,0,1,4.284,7.4,36.294,36.294,0,0,1,1.9,7.2,84.2,84.2,0,0,1,.885,10.726c.023,1.243.042,2.221.054,2.923v.761A1.1,1.1,0,0,1,129.093,303.927Z" transform="translate(-106.375 -213.543)" fill="#263238"/>
          </g>
        </g>
        <g id="Group_9958" data-name="Group 9958" transform="translate(67.87 107.063)">
          <g id="Group_9957" data-name="Group 9957">
            <path id="Path_7230" data-name="Path 7230" d="M122.854,316.233c-.019-.019.05-.145.264-.283a1.5,1.5,0,0,1,1.046-.184,1.469,1.469,0,0,1,1.2,1.059,1.59,1.59,0,0,1-2.624,1.626,1.449,1.449,0,0,1-.4-1.548,1.479,1.479,0,0,1,.657-.836c.224-.121.368-.12.375-.094a1.973,1.973,0,0,0-.714,1.017,1.118,1.118,0,0,0,.36,1.138,1.174,1.174,0,0,0,1.927-1.2,1.145,1.145,0,0,0-.851-.844A2.056,2.056,0,0,0,122.854,316.233Z" transform="translate(-122.261 -315.742)" fill="#263238"/>
          </g>
        </g>
        <g id="Group_9960" data-name="Group 9960" transform="translate(61.951 137.867)">
          <g id="Group_9959" data-name="Group 9959">
            <path id="Path_7231" data-name="Path 7231" d="M116.616,348.7c-.019-.019.05-.145.264-.283a1.5,1.5,0,0,1,1.046-.184,1.469,1.469,0,0,1,1.2,1.059,1.59,1.59,0,0,1-2.624,1.626,1.449,1.449,0,0,1-.4-1.549,1.479,1.479,0,0,1,.657-.836c.224-.121.368-.12.375-.094a1.979,1.979,0,0,0-.714,1.017,1.118,1.118,0,0,0,.36,1.138,1.174,1.174,0,0,0,1.927-1.2,1.145,1.145,0,0,0-.851-.844A2.056,2.056,0,0,0,116.616,348.7Z" transform="translate(-116.023 -348.206)" fill="#263238"/>
          </g>
        </g>
        <g id="Group_9965" data-name="Group 9965" transform="translate(29.203 99.819)">
          <g id="Group_9962" data-name="Group 9962">
            <g id="Group_9961" data-name="Group 9961">
              <path id="Path_7232" data-name="Path 7232" d="M114.663,308.108a2.032,2.032,0,0,1-.01.3c-.02.222-.046.511-.08.878-.086.8-.21,1.927-.366,3.366-.343,2.921-.857,7.146-1.641,12.348-.395,2.6-.857,5.445-1.49,8.479a27.844,27.844,0,0,1-1.292,4.649,4.325,4.325,0,0,1-.274.583,2.255,2.255,0,0,1-.446.511,4.439,4.439,0,0,1-1.1.713,13.516,13.516,0,0,1-2.471.85,58.6,58.6,0,0,1-10.865,1.231,111.188,111.188,0,0,1-11.733-.139c-.162-.013-.328-.033-.5-.056a.741.741,0,0,1-.538-.392,2.866,2.866,0,0,1-.28-1.015,13.268,13.268,0,0,1-.057-1.955c.045-1.287.167-2.55.311-3.8.292-2.491.676-4.913,1.076-7.265.808-4.7,1.694-9.124,2.567-13.18l.031-.146.149-.012a125.427,125.427,0,0,0,21.155-3.675c2.514-.662,4.471-1.254,5.8-1.663l1.544-.471c.344-.1.512-.153.506-.144a1.342,1.342,0,0,1-.139.057l-.391.146c-.345.126-.823.312-1.48.532-1.322.448-3.272,1.076-5.78,1.772a119.979,119.979,0,0,1-21.181,3.849l.18-.159c-.853,4.052-1.723,8.473-2.52,13.168-.394,2.348-.772,4.766-1.061,7.244-.141,1.238-.262,2.494-.306,3.757a12.938,12.938,0,0,0,.055,1.882,2.457,2.457,0,0,0,.22.84c.075.113.106.151.2.165.154.021.309.039.47.053a112.863,112.863,0,0,0,11.672.146,58.69,58.69,0,0,0,10.779-1.191,13.105,13.105,0,0,0,2.391-.811,2.766,2.766,0,0,0,1.636-1.6,27.846,27.846,0,0,0,1.287-4.56c.646-3.015,1.127-5.854,1.542-8.449.825-5.189,1.388-9.407,1.786-12.32.194-1.434.346-2.558.454-3.355.052-.363.094-.651.125-.872C114.636,308.223,114.66,308.115,114.663,308.108Z" transform="translate(-81.51 -308.107)" fill="#263238"/>
            </g>
          </g>
          <g id="Group_9964" data-name="Group 9964" transform="translate(2.855 6.518)">
            <g id="Group_9963" data-name="Group 9963">
              <path id="Path_7233" data-name="Path 7233" d="M114.243,314.98a5.924,5.924,0,0,1-1.067.549c-.7.332-1.729.763-3.022,1.248A56.881,56.881,0,0,1,88.969,320.3c-1.381-.04-2.5-.113-3.263-.2a5.851,5.851,0,0,1-1.187-.175,6.046,6.046,0,0,1,1.2-.007c.769.033,1.883.055,3.256.053a65.079,65.079,0,0,0,21.07-3.507c1.3-.443,2.346-.825,3.063-1.1A5.913,5.913,0,0,1,114.243,314.98Z" transform="translate(-84.519 -314.976)" fill="#263238"/>
            </g>
          </g>
        </g>
      </g>
      <g id="Group_9976" data-name="Group 9976" transform="translate(2.581 49.931)">
        <g id="Group_9968" data-name="Group 9968" transform="translate(9.042)">
          <g id="Group_9967" data-name="Group 9967">
            <path id="Path_7234" data-name="Path 7234" d="M62.981,284.233s.018-.145.077-.421c.065-.3.155-.7.27-1.227.258-1.1.631-2.676,1.107-4.7.984-4.076,2.477-9.959,4.414-17.2l3.208-11.837c1.167-4.251,2.386-8.8,3.845-13.546a109.951,109.951,0,0,1,5.511-14.563A67.928,67.928,0,0,1,85.38,213.5a26.286,26.286,0,0,1,2.47-3.444,10.664,10.664,0,0,1,3.377-2.707,5.776,5.776,0,0,1,4.317-.333A7.446,7.446,0,0,1,99,209.547c1.787,2.3,2.228,5.2,2.488,7.858.456,5.376.9,10.562,1.317,15.5.825,9.875,1.568,18.77,2.193,26.247.605,7.458,1.1,13.5,1.438,17.7.158,2.074.282,3.692.367,4.814.036.534.065.951.084,1.253.016.283.012.429.012.429s-.028-.143-.06-.425c-.031-.3-.075-.715-.13-1.249-.106-1.121-.259-2.736-.455-4.806-.377-4.2-.918-10.234-1.586-17.687-.653-7.475-1.43-16.367-2.292-26.24-.428-4.939-.878-10.121-1.344-15.495-.257-2.642-.708-5.451-2.4-7.616a7,7,0,0,0-3.237-2.372,5.31,5.31,0,0,0-3.977.312,10.225,10.225,0,0,0-3.225,2.592,25.76,25.76,0,0,0-2.429,3.386,67.829,67.829,0,0,0-3.945,7.179,110.719,110.719,0,0,0-5.514,14.495c-1.466,4.729-2.7,9.274-3.882,13.521s-2.265,8.2-3.262,11.82c-1.977,7.231-3.518,13.1-4.555,17.161-.513,2.015-.915,3.589-1.193,4.679l-.315,1.215C63.03,284.1,62.981,284.233,62.981,284.233Z" transform="translate(-62.981 -206.746)" fill="#455a64"/>
          </g>
        </g>
        <g id="Group_9975" data-name="Group 9975" transform="translate(0 74.405)">
          <g id="Group_9969" data-name="Group 9969">
            <path id="Path_7235" data-name="Path 7235" d="M60.3,285.161c-.348,1.394-6.848,38.375-6.848,38.375L101.8,325.1l6.656-38.35Z" transform="translate(-53.452 -285.161)" fill="#263238"/>
          </g>
          <g id="Group_9971" data-name="Group 9971" transform="translate(7.194 0.572)">
            <g id="Group_9970" data-name="Group 9970">
              <path id="Path_7236" data-name="Path 7236" d="M108.348,287.487a2.308,2.308,0,0,1-.436.33c-.293.2-.733.5-1.3.863-1.143.732-2.817,1.763-4.929,2.959s-4.659,2.571-7.56,3.951c-1.461.679-2.972,1.4-4.642,2a16.2,16.2,0,0,1-5.4.788,25.311,25.311,0,0,1-10.12-2.616,36.863,36.863,0,0,1-7.166-4.656c-1.891-1.531-3.317-2.887-4.3-3.828-.485-.474-.859-.846-1.105-1.105a2.439,2.439,0,0,1-.361-.411,2.442,2.442,0,0,1,.426.342l1.164,1.041c1.013.9,2.471,2.213,4.376,3.7a38.1,38.1,0,0,0,7.143,4.525,25.278,25.278,0,0,0,9.946,2.539,15.9,15.9,0,0,0,5.242-.754c1.615-.576,3.154-1.3,4.6-1.958,2.9-1.353,5.455-2.7,7.583-3.85s3.824-2.144,4.995-2.827l1.349-.787A2.4,2.4,0,0,1,108.348,287.487Z" transform="translate(-61.034 -285.764)" fill="#455a64"/>
            </g>
          </g>
          <g id="Group_9973" data-name="Group 9973" transform="translate(45.295 3.945)">
            <g id="Group_9972" data-name="Group 9972">
              <path id="Path_7237" data-name="Path 7237" d="M107.445,289.319c.126.022-1.17,8.076-2.895,17.987s-3.226,17.931-3.353,17.909,1.17-8.074,2.895-17.988S107.318,289.3,107.445,289.319Z" transform="translate(-101.188 -289.319)" fill="#455a64"/>
            </g>
          </g>
          <g id="Group_9974" data-name="Group 9974" transform="translate(28.376 11.501)">
            <path id="Path_7238" data-name="Path 7238" d="M83.788,297.518l-.387,3.6a3.117,3.117,0,0,0,.018,1.138.941.941,0,0,0,1.82.178,3.1,3.1,0,0,0,.257-1.293q.1-1.93.207-3.86l-1.588.011" transform="translate(-83.357 -297.282)" fill="#455a64"/>
          </g>
        </g>
      </g>
      <g id="Group_9996" data-name="Group 9996" transform="translate(19.165 50.961)">
        <g id="Group_9982" data-name="Group 9982">
          <g id="Group_9977" data-name="Group 9977">
            <path id="Path_7239" data-name="Path 7239" d="M93.116,208.043c3.925-1.315,7.208,3.778,7.66,7.893a90.146,90.146,0,0,1,.269,14.267c-.714,14.085-7.087,27.562-7.087,27.562l40.438,6.044-1.485,15.555-51.137-5.486a12.121,12.121,0,0,1-10.305-15.6c4.571-14.857,12.035-36.282,13.718-39.838C87.449,213.657,87.7,209.856,93.116,208.043Z" transform="translate(-70.93 -207.831)" fill="#e8505b"/>
          </g>
          <g id="Group_9979" data-name="Group 9979" transform="translate(8.92 22.838)">
            <g id="Group_9978" data-name="Group 9978">
              <path id="Path_7240" data-name="Path 7240" d="M80.33,274.743a1.177,1.177,0,0,1,.264.022l.768.105,2.966.441c2.588.359,6.354.891,11.083,1.438,9.453,1.117,22.738,2.444,38,3.619l-.242.2c.47-4.95.966-10.17,1.475-15.533l0-.023.2.251-40.427-6.088-.221-.033.067-.21c2.632-8.136,4.645-14.865,5.841-19.6.6-2.366,1.024-4.227,1.288-5.5.126-.618.224-1.1.3-1.449.068-.327.118-.493.118-.493s-.011.173-.062.5-.12.823-.242,1.46c-.229,1.279-.617,3.15-1.19,5.527-1.137,4.757-3.1,11.511-5.691,19.662l-.154-.242,40.45,6,.216.031-.021.22,0,.023c-.514,5.363-1.014,10.582-1.489,15.532l-.021.222-.221-.017c-15.269-1.2-28.552-2.585-38-3.782-4.726-.587-8.488-1.164-11.071-1.572l-2.956-.517-.762-.144A1.333,1.333,0,0,1,80.33,274.743Z" transform="translate(-80.33 -231.9)" fill="#263238"/>
            </g>
          </g>
          <g id="Group_9981" data-name="Group 9981" transform="translate(53.982 54.788)">
            <g id="Group_9980" data-name="Group 9980">
              <path id="Path_7241" data-name="Path 7241" d="M127.857,281.669a70.285,70.285,0,0,1,.515-8.069,70.168,70.168,0,0,1,.978-8.027,70.321,70.321,0,0,1-.515,8.07A70.2,70.2,0,0,1,127.857,281.669Z" transform="translate(-127.822 -265.573)" fill="#263238"/>
            </g>
          </g>
        </g>
        <g id="Group_9984" data-name="Group 9984" transform="translate(57.716 57.126)">
          <g id="Group_9983" data-name="Group 9983">
            <path id="Path_7242" data-name="Path 7242" d="M133.2,268.344c0-.028.105-.07.3-.037a1.128,1.128,0,0,1,.7.47,1.163,1.163,0,0,1,.065,1.275,1.375,1.375,0,0,1-1.421.662,1.419,1.419,0,0,1-1.072-1.142,1.293,1.293,0,0,1,.424-1.2c.577-.489,1.089-.321,1.058-.274.009.073-.434.065-.825.506a.987.987,0,0,0-.237.881,1.029,1.029,0,0,0,.744.769.983.983,0,0,0,.964-.429.837.837,0,0,0,.021-.878C133.644,268.437,133.189,268.413,133.2,268.344Z" transform="translate(-131.756 -268.037)" fill="#263238"/>
          </g>
        </g>
        <g id="Group_9995" data-name="Group 9995" transform="translate(62.132 47.185)">
          <g id="Group_9993" data-name="Group 9993" transform="translate(9.174)">
            <g id="Group_9986" data-name="Group 9986" transform="translate(0.875 4.254)">
              <g id="Group_9985" data-name="Group 9985">
                <path id="Path_7243" data-name="Path 7243" d="M147,262.043l1.848,19.16h9.337l2.237-19.16Z" transform="translate(-147.002 -262.043)" fill="#ebebeb"/>
              </g>
            </g>
            <g id="Group_9988" data-name="Group 9988" transform="translate(0 1.777)">
              <g id="Group_9987" data-name="Group 9987">
                <path id="Path_7244" data-name="Path 7244" d="M146.955,259.433a3.994,3.994,0,0,0-.875,2.529h15.172a2.828,2.828,0,0,0-.876-2.529Z" transform="translate(-146.08 -259.433)" fill="#455a64"/>
              </g>
            </g>
            <g id="Group_9990" data-name="Group 9990" transform="translate(2.092)">
              <g id="Group_9989" data-name="Group 9989">
                <path id="Path_7245" data-name="Path 7245" d="M148.8,257.581l-.513,1.9,11.452.086-.756-2Z" transform="translate(-148.285 -257.56)" fill="#455a64"/>
              </g>
            </g>
            <g id="Group_9992" data-name="Group 9992" transform="translate(0.683 9.049)">
              <g id="Group_9991" data-name="Group 9991">
                <path id="Path_7246" data-name="Path 7246" d="M146.8,267.1c0,.178,1.111,9.644,1.111,9.644h11.416l1.086-9.644Z" transform="translate(-146.8 -267.097)" fill="#455a64"/>
              </g>
            </g>
          </g>
          <g id="Group_9994" data-name="Group 9994" transform="translate(0 7.3)">
            <path id="Path_7247" data-name="Path 7247" d="M146.979,265.311l-.294,3.2,11.054.26s0,3.728-1.118,4.846c0,0,1.118,2.236-.124,3.479s-1.988.87-1.988.87.5,2.485-.746,3.106-17.353-.341-17.353-.341l.99-10.371,3.6-.321C141.125,266.618,144.683,264.908,146.979,265.311Z" transform="translate(-136.411 -265.253)" fill="#ffbe9d"/>
          </g>
        </g>
      </g>
      <g id="Group_9997" data-name="Group 9997" transform="translate(36.553 0)">
        <path id="Path_7248" data-name="Path 7248" d="M130.586,161.982a8.208,8.208,0,0,0-3.518-4.448,6.153,6.153,0,0,0-3.742-.769l.012-.026-.022-.269c-1.2-2.157-3.575-2.623-6.025-2.214s-4.861,2.2-7.041,3.362c-2.95,1.571-5.772,3.371-8.59,5.169-2.342,1.494-4.742,3.042-6.357,5.3a11.028,11.028,0,0,0-1.851,8.312c.577,3.132,2.514,6.311,1.366,9.282-.765,1.981-2.709,3.222-3.987,4.919a7.954,7.954,0,0,0-.169,9.265c1.3,1.746,3.3,2.8,5.118,4,2.892,1.906,5.477,4.3,8.587,5.827s7.047,2.024,9.912.077c2.95-2,3.892-6.039,3.367-9.567s-2.227-6.748-3.592-10.044a55.466,55.466,0,0,1-3.67-13.4c-.262-1.834-.409-3.809.465-5.442a11.536,11.536,0,0,1,3.584-3.4,28.606,28.606,0,0,0,7.67-8.76,11.138,11.138,0,0,0,3.061,4.287,27.574,27.574,0,0,0,6.021,4.257A13.971,13.971,0,0,0,130.586,161.982Z" transform="translate(-89.255 -154.123)" fill="#263238"/>
      </g>
    </g>
  </g>
</svg>
