<svg xmlns="http://www.w3.org/2000/svg" xmlns:xlink="http://www.w3.org/1999/xlink" width="329.46" height="320.534" viewBox="0 0 329.46 320.534"><defs><linearGradient id="a" x1="1.091" y1="1.163" x2="0.386" y2="0.408" gradientUnits="objectBoundingBox"><stop offset="0" stop-color="#dae3fe"/><stop offset="1" stop-color="#e9effd"/></linearGradient><linearGradient id="b" x1="0.411" y1="0.931" x2="0.635" y2="-0.163" gradientUnits="objectBoundingBox"><stop offset="0" stop-color="#09005d"/><stop offset="1" stop-color="#1a0f91"/></linearGradient><linearGradient id="c" x1="-0.023" y1="1.16" x2="1.009" y2="-0.098" gradientUnits="objectBoundingBox"><stop offset="0" stop-color="#fe7062"/><stop offset="1" stop-color="#ff928e"/></linearGradient><linearGradient id="d" x1="0.88" y1="-1.569" x2="-0.012" y2="3.287" xlink:href="#b"/><linearGradient id="e" x1="0" y1="0.5" x2="1" y2="0.5" xlink:href="#b"/><linearGradient id="f" x1="1.023" y1="1.153" x2="0.02" y2="-0.096" xlink:href="#c"/><linearGradient id="g" x1="0.96" y1="1.152" x2="0.009" y2="-0.087" xlink:href="#b"/><linearGradient id="h" x1="1.999" y1="1.672" x2="0.502" y2="0.511" xlink:href="#c"/><linearGradient id="i" y1="0.5" x2="1" y2="0.5" gradientUnits="objectBoundingBox"><stop offset="0" stop-color="#4042e2"/><stop offset="1" stop-color="#4f52ff"/></linearGradient><linearGradient id="j" x1="0.266" y1="0.718" x2="1.251" y2="-0.751" xlink:href="#b"/><linearGradient id="k" x1="0.443" y1="0.025" x2="0.574" y2="1.574" xlink:href="#c"/><linearGradient id="l" x1="0.422" y1="-0.02" x2="0.7" y2="1.608" xlink:href="#c"/><linearGradient id="m" x1="1.04" y1="0.162" x2="0.005" y2="0.923" xlink:href="#b"/><linearGradient id="n" x1="87.933" y1="-1.548" x2="85.095" y2="4.841" xlink:href="#b"/><linearGradient id="o" x1="0.202" y1="1.102" x2="0.744" y2="0.055" xlink:href="#b"/><linearGradient id="p" x1="218.282" y1="-3.459" x2="211.262" y2="4.105" xlink:href="#b"/><linearGradient id="q" x1="0.167" y1="1.086" x2="0.529" y2="0.055" xlink:href="#b"/><linearGradient id="r" x1="-14.308" y1="4.396" x2="-12.97" y2="3.063" xlink:href="#i"/><linearGradient id="s" x1="-34.868" y1="11.323" x2="-31.505" y2="7.928" xlink:href="#i"/><linearGradient id="t" x1="30.285" y1="43.503" x2="30.49" y2="44.686" xlink:href="#b"/><linearGradient id="u" x1="49.018" y1="-0.062" x2="49.532" y2="2.428" xlink:href="#b"/></defs><g transform="translate(-416.017 -455)"><path d="M699.8,730.669a123.34,123.34,0,0,1-21.662,17.584c-56.1,37.46-120.232,26.663-140.06,22.973-31.989-5.954-58.993-10.154-82.194-31.115-52.719-47.63-50.155-146.989-9.871-208.537,4.776-7.3,45-66.921,109.269-75.322,1.572-.205,2.745-.322,3.772-.431,9.942-1.053,71.553-6.608,121.79,35.48a149.862,149.862,0,0,1,29.5,33.466C749.578,585.369,749.7,679.23,699.8,730.669Z" fill="url(#a)"/><g transform="translate(419.004 473.702)"><g transform="translate(0 0)" opacity="0.64"><path d="M444.737,1099.249a.9.9,0,0,1-.745-.783q-.087-.728-.152-1.46a.9.9,0,0,1,1.8-.16q.063.706.146,1.407a.9.9,0,0,1-1.045,1Z" transform="translate(-443.639 -1041.344)" fill="#91b3fa"/><path d="M442.862,670.059a.9.9,0,0,1-.75-.895c.007-1,.043-2,.109-3a.9.9,0,1,1,1.8.119c-.063.956-.1,1.928-.1,2.888a.9.9,0,0,1-1.052.883Zm.649-7.694a.9.9,0,0,1-.74-1.033l.053-.322c.147-.869.319-1.751.512-2.62a.9.9,0,0,1,1.76.391c-.187.84-.353,1.691-.495,2.53l-.051.31a.9.9,0,0,1-1.034.746Zm1.812-7.5a.877.877,0,0,1-.128-.031.9.9,0,0,1-.58-1.135c.306-.948.645-1.9,1-2.823a.9.9,0,0,1,1.68.654c-.347.892-.673,1.808-.969,2.723A.9.9,0,0,1,445.323,654.86Zm2.931-7.14a.9.9,0,0,1-.655-1.3c.447-.886.927-1.772,1.427-2.634a.9.9,0,1,1,1.559.9c-.482.832-.946,1.687-1.376,2.542A.9.9,0,0,1,448.254,647.72Zm4-6.6a.9.9,0,0,1-.582-1.414c.58-.809,1.192-1.612,1.819-2.386a.9.9,0,0,1,1.4,1.135c-.605.747-1.2,1.521-1.755,2.3A.9.9,0,0,1,452.251,641.116Zm4.973-5.911a.9.9,0,0,1-.492-1.521c.7-.711,1.426-1.409,2.163-2.076a.9.9,0,1,1,1.209,1.337c-.711.643-1.413,1.317-2.087,2A.9.9,0,0,1,457.224,635.206Zm5.82-5.076a.9.9,0,0,1-.389-1.611c.8-.6,1.624-1.174,2.454-1.72a.9.9,0,1,1,.991,1.506c-.8.527-1.6,1.085-2.368,1.659A.9.9,0,0,1,463.044,630.13ZM469.57,626a.9.9,0,0,1-.273-1.685c.879-.466,1.783-.912,2.686-1.325a.9.9,0,1,1,.75,1.639c-.871.4-1.743.829-2.592,1.279A.9.9,0,0,1,469.57,626Zm7.077-3.083a.9.9,0,0,1-.146-1.741c.938-.326,1.9-.628,2.855-.9a.9.9,0,1,1,.491,1.734c-.923.261-1.85.553-2.755.867A.9.9,0,0,1,476.647,622.92Zm46.758,7.447a.9.9,0,0,1-.395-.171c-.763-.58-1.555-1.145-2.353-1.68a.9.9,0,0,1,1-1.5c.827.555,1.648,1.141,2.439,1.742a.9.9,0,0,1-.7,1.607Zm-39.3-9.408a.9.9,0,0,1-.011-1.776c.978-.178,1.973-.328,2.958-.448a.9.9,0,1,1,.217,1.79c-.95.115-1.909.261-2.852.432A.9.9,0,0,1,484.11,620.958Zm32.8,5.228a.9.9,0,0,1-.278-.1c-.845-.456-1.714-.892-2.584-1.3a.9.9,0,0,1,.761-1.635c.9.42,1.8.872,2.679,1.344a.9.9,0,0,1-.578,1.682Zm-25.131-6.016a.9.9,0,0,1,.129-1.79c1-.025,2-.02,3,.014a.9.9,0,0,1-.062,1.8c-.957-.033-1.929-.038-2.89-.014A.914.914,0,0,1,491.783,620.17Zm18.073,2.887a.908.908,0,0,1-.152-.039c-.9-.32-1.831-.618-2.753-.885a.9.9,0,1,1,.5-1.731c.956.276,1.916.585,2.853.917a.9.9,0,0,1-.45,1.739Zm-10.364-2.481a.9.9,0,0,1,.267-1.782c.982.128,1.974.287,2.958.474a.9.9,0,0,1-.336,1.771c-.95-.181-1.908-.334-2.855-.458Z" transform="translate(-442.112 -618.365)" fill="#91b3fa"/><path d="M1179.726,737.408a.9.9,0,0,1-.48-.245q-.5-.494-1.025-.975a.9.9,0,1,1,1.224-1.324q.54.5,1.063,1.012a.9.9,0,0,1-.781,1.533Z" transform="translate(-1093.697 -721.316)" fill="#91b3fa"/></g><g transform="translate(13.487 48.51)" opacity="0.64"><path d="M1319.6,1045.352a.9.9,0,0,1-.75-.885q0-.709-.026-1.415a.9.9,0,0,1,1.8-.06q.024.732.027,1.468a.9.9,0,0,1-1.053.892Z" transform="translate(-1231.948 -1042.12)" fill="#91b3fa"/><path d="M622.805,1142.448l-.017,0c-.858-.161-1.722-.346-2.57-.551l-.312-.076a.9.9,0,1,1,.433-1.75l.3.073c.819.2,1.653.376,2.481.532a.9.9,0,0,1-.316,1.775Zm4.659.652a.9.9,0,0,1,.234-1.786c.941.087,1.9.148,2.838.18a.9.9,0,0,1-.062,1.8c-.977-.034-1.967-.1-2.942-.187Zm-12-2.608a.924.924,0,0,1-.147-.038c-.927-.323-1.855-.676-2.757-1.05a.9.9,0,1,1,.69-1.665c.87.361,1.765.7,2.659,1.013a.9.9,0,0,1-.446,1.74Zm19.6,2.731a.9.9,0,0,1,.1-1.789c.943-.057,1.9-.142,2.832-.253a.9.9,0,0,1,.213,1.79c-.971.115-1.959.2-2.937.262A.906.906,0,0,1,635.06,1143.223Zm-26.566-5.768a.9.9,0,0,1-.272-.092c-.866-.459-1.729-.948-2.566-1.457a.9.9,0,0,1,.936-1.541c.807.49,1.639.962,2.474,1.4a.9.9,0,0,1-.572,1.686Zm34.093,4.734a.9.9,0,0,1-.04-1.77c.921-.2,1.849-.427,2.758-.679a.9.9,0,1,1,.482,1.737c-.943.261-1.9.5-2.86.7A.9.9,0,0,1,642.588,1142.189Zm-40.517-8.794a.9.9,0,0,1-.388-.166c-.786-.585-1.564-1.2-2.314-1.829a.9.9,0,1,1,1.159-1.381c.723.606,1.474,1.2,2.232,1.765a.9.9,0,0,1-.689,1.612Zm47.8,6.633a.9.9,0,0,1-.172-1.731c.883-.337,1.767-.7,2.627-1.089a.9.9,0,1,1,.738,1.645c-.891.4-1.807.78-2.722,1.129A.9.9,0,0,1,649.868,1140.028Zm6.873-3.234a.9.9,0,0,1-.295-1.673c.822-.466,1.642-.961,2.435-1.472a.9.9,0,1,1,.976,1.515c-.822.53-1.67,1.043-2.522,1.525A.9.9,0,0,1,656.741,1136.795Zm6.311-4.23a.9.9,0,0,1-.406-1.6c.742-.583,1.478-1.2,2.187-1.821a.9.9,0,1,1,1.193,1.351c-.734.649-1.5,1.284-2.267,1.888A.9.9,0,0,1,663.052,1132.565Zm5.6-5.131a.9.9,0,0,1-.507-1.506c.646-.688,1.281-1.405,1.888-2.132a.9.9,0,0,1,1.384,1.156c-.629.753-1.287,1.5-1.957,2.21A.9.9,0,0,1,668.656,1127.434Zm4.766-5.921a.9.9,0,0,1-.593-1.4c.535-.779,1.054-1.585,1.543-2.395a.9.9,0,0,1,1.543.932c-.507.84-1.045,1.675-1.6,2.483A.9.9,0,0,1,673.421,1121.513Zm3.811-6.577a.9.9,0,0,1-.662-1.28c.409-.851.8-1.725,1.159-2.6a.9.9,0,1,1,1.667.687c-.373.9-.777,1.81-1.2,2.692A.9.9,0,0,1,677.232,1114.936Zm2.767-7.074a.9.9,0,0,1-.713-1.153c.276-.9.531-1.826.755-2.743a.9.9,0,0,1,1.751.429c-.233.95-.5,1.906-.783,2.841A.9.9,0,0,1,680,1107.861Zm1.676-7.411a.9.9,0,0,1-.741-1.022c.139-.933.253-1.884.338-2.825a.9.9,0,1,1,1.8.162c-.088.975-.206,1.961-.35,2.928a.9.9,0,0,1-1.025.759Z" transform="translate(-594.569 -1089.64)" fill="#91b3fa"/><path d="M561.673,1358.674a.9.9,0,0,1-.491-.256q-.515-.523-1.015-1.06a.9.9,0,1,1,1.32-1.228q.481.518.979,1.022a.9.9,0,0,1-.793,1.521Z" transform="translate(-559.925 -1319.928)" fill="#91b3fa"/></g><g transform="translate(12.78 12.297)"><path d="M560.777,787.115a.6.6,0,0,0,.635.294l7.206-1.35a31.931,31.931,0,0,0,8.166,6.354l.468,7.311a.6.6,0,0,0,.441.542l8.479,2.33a.6.6,0,0,0,.657-.24l4.138-6.046a31.935,31.935,0,0,0,10.266-1.289l5.5,4.842a.6.6,0,0,0,.7.071l7.643-4.348a.6.6,0,0,0,.294-.634l-1.35-7.206a31.935,31.935,0,0,0,6.353-8.166l7.311-.468a.6.6,0,0,0,.542-.441l2.33-8.479a.6.6,0,0,0-.241-.657l-6.046-4.138a31.93,31.93,0,0,0-1.288-10.266l4.842-5.5a.6.6,0,0,0,.071-.7l-4.348-7.643a.6.6,0,0,0-.635-.294l-7.205,1.35a31.929,31.929,0,0,0-8.166-6.353l-.468-7.311a.6.6,0,0,0-.441-.542l-8.479-2.33a.6.6,0,0,0-.656.241l-4.138,6.046a31.93,31.93,0,0,0-10.266,1.289l-5.5-4.842a.6.6,0,0,0-.7-.071l-7.643,4.348a.6.6,0,0,0-.294.634l1.35,7.206a31.931,31.931,0,0,0-6.353,8.166l-7.311.468a.6.6,0,0,0-.542.441l-2.33,8.479a.6.6,0,0,0,.24.657l6.046,4.138a31.938,31.938,0,0,0,1.289,10.266l-4.842,5.5a.6.6,0,0,0-.071.7Z" transform="translate(-553.747 -725.787)" fill="#91b3fa"/><g transform="translate(29.886 29.886)"><path d="M821.907,1003.794a8.54,8.54,0,1,1,1.26.118A8.684,8.684,0,0,1,821.907,1003.794Zm2.622-15.4a7.087,7.087,0,1,0,5.9,7.136A7.107,7.107,0,0,0,824.529,988.4Z" transform="translate(-814.816 -986.856)" fill="#bdd0fb"/></g><g transform="translate(16.988 16.722)"><path d="M720.153,914.731a21.811,21.811,0,0,1-5.231-1.579l-.024-.011-.131-.059-.018-.008h0l-.016-.008-.063-.029-.01,0-.025-.011-.008,0-.189-.089-.066-.032q-.2-.1-.406-.2l-.231-.119a.36.36,0,0,1,.334-.639,21.017,21.017,0,0,0,4.135,1.622,20.857,20.857,0,0,0,25.638-14.585,20.845,20.845,0,0,0-14.585-25.639,20.863,20.863,0,0,0-25.626,25.7.361.361,0,0,1-.695.194,21.58,21.58,0,1,1,42.076-2.2,21.59,21.59,0,0,1-24.858,17.709Z" transform="translate(-702.148 -871.861)" fill="#bdd0fb"/></g></g></g><g transform="translate(513.13 475.309)"><g transform="translate(0 0)" opacity="0.64"><path d="M1265.917,920.706a.541.541,0,0,1-.446-.469q-.052-.436-.091-.876a.54.54,0,0,1,1.077-.1q.037.423.088.843a.541.541,0,0,1-.627.6Z" transform="translate(-1265.259 -885.991)" fill="#91b3fa"/><path d="M1264.794,663.4a.54.54,0,0,1-.45-.536c0-.6.026-1.2.065-1.8a.54.54,0,1,1,1.078.071c-.038.573-.059,1.156-.063,1.732a.54.54,0,0,1-.544.537A.551.551,0,0,1,1264.794,663.4Zm.389-4.613a.541.541,0,0,1-.444-.619l.032-.193c.088-.521.191-1.049.307-1.571a.54.54,0,0,1,1.055.234c-.112.5-.212,1.014-.3,1.517l-.031.186a.54.54,0,0,1-.62.447Zm1.086-4.5a.532.532,0,0,1-.077-.019.54.54,0,0,1-.348-.68c.184-.569.387-1.138.6-1.692a.54.54,0,1,1,1.007.392c-.208.535-.4,1.084-.581,1.632A.54.54,0,0,1,1266.269,654.284Zm1.757-4.281a.541.541,0,0,1-.393-.776c.268-.531.556-1.063.856-1.579a.54.54,0,1,1,.935.542c-.289.5-.567,1.011-.825,1.524A.541.541,0,0,1,1268.026,650Zm2.4-3.959a.541.541,0,0,1-.349-.848c.348-.485.715-.966,1.091-1.43a.54.54,0,0,1,.84.68c-.363.448-.717.912-1.052,1.38A.54.54,0,0,1,1270.423,646.044Zm2.981-3.544a.541.541,0,0,1-.3-.912c.419-.426.855-.845,1.3-1.245a.54.54,0,1,1,.725.8c-.426.385-.847.789-1.251,1.2A.54.54,0,0,1,1273.4,642.5Zm3.489-3.043a.54.54,0,0,1-.233-.966c.479-.357.974-.7,1.471-1.031a.54.54,0,1,1,.594.9c-.48.316-.958.651-1.419.995A.539.539,0,0,1,1276.893,639.457Zm3.913-2.474a.541.541,0,0,1-.163-1.011c.527-.279,1.069-.547,1.61-.794a.54.54,0,1,1,.45.983c-.522.239-1.045.5-1.554.767A.54.54,0,0,1,1280.806,636.983Zm4.243-1.848a.54.54,0,0,1-.088-1.044c.563-.2,1.139-.376,1.712-.539a.54.54,0,0,1,.294,1.04c-.553.156-1.109.331-1.652.519A.535.535,0,0,1,1285.049,635.135Zm28.033,4.465a.54.54,0,0,1-.237-.1c-.458-.348-.932-.687-1.41-1.007a.54.54,0,1,1,.6-.9c.5.332.988.684,1.462,1.044a.54.54,0,0,1-.417.963Zm-23.559-5.641a.541.541,0,0,1-.007-1.065c.586-.107,1.183-.2,1.774-.268a.54.54,0,1,1,.13,1.073c-.569.069-1.145.156-1.71.259A.541.541,0,0,1,1289.522,633.959Zm19.667,3.134a.536.536,0,0,1-.167-.057c-.506-.273-1.028-.535-1.549-.777a.541.541,0,0,1,.456-.98c.54.252,1.081.523,1.606.806a.54.54,0,0,1-.346,1.009Zm-15.067-3.607a.54.54,0,0,1,.077-1.073c.6-.015,1.2-.012,1.8.009a.54.54,0,0,1-.037,1.08c-.574-.02-1.157-.023-1.733-.008A.556.556,0,0,1,1294.123,633.486Zm10.835,1.731a.55.55,0,0,1-.091-.024c-.542-.192-1.1-.37-1.651-.53a.54.54,0,1,1,.3-1.038c.573.166,1.149.351,1.71.549a.54.54,0,0,1-.27,1.043Zm-6.213-1.487a.54.54,0,0,1,.16-1.069c.589.077,1.184.172,1.774.284a.54.54,0,0,1-.2,1.062c-.57-.108-1.144-.2-1.712-.274Z" transform="translate(-1264.344 -632.404)" fill="#91b3fa"/><path d="M1706.561,703.773a.537.537,0,0,1-.288-.147q-.3-.3-.615-.585a.54.54,0,0,1,.733-.794q.324.3.638.607a.54.54,0,0,1-.469.919Z" transform="translate(-1654.985 -694.125)" fill="#91b3fa"/></g><g transform="translate(8.086 29.083)" opacity="0.64"><path d="M1790.421,888.393a.541.541,0,0,1-.45-.531q0-.425-.016-.848a.54.54,0,0,1,1.08-.036q.015.439.016.88a.54.54,0,0,1-.538.543A.555.555,0,0,1,1790.421,888.393Z" transform="translate(-1737.871 -886.456)" fill="#91b3fa"/><path d="M1372.674,946.6l-.01,0c-.514-.1-1.033-.208-1.541-.33l-.187-.046a.54.54,0,1,1,.26-1.049l.18.044c.491.118.991.225,1.487.319a.54.54,0,0,1-.189,1.064Zm2.793.391a.54.54,0,0,1,.141-1.071c.564.052,1.137.088,1.7.108a.54.54,0,0,1-.037,1.08c-.586-.02-1.179-.058-1.764-.112Zm-7.2-1.563a.572.572,0,0,1-.089-.023c-.556-.194-1.112-.406-1.653-.63a.54.54,0,1,1,.414-1c.522.216,1.058.421,1.594.608a.54.54,0,0,1-.267,1.043Zm11.75,1.637a.54.54,0,0,1,.058-1.072c.565-.034,1.137-.085,1.7-.152a.54.54,0,0,1,.128,1.073c-.582.069-1.175.122-1.761.157A.539.539,0,0,1,1380.021,947.069Zm-15.927-3.458a.542.542,0,0,1-.163-.055c-.519-.275-1.036-.569-1.538-.873a.54.54,0,1,1,.561-.924c.484.294.983.577,1.483.842a.54.54,0,0,1-.343,1.01Zm20.44,2.839a.541.541,0,0,1-.024-1.061c.552-.119,1.109-.256,1.654-.407a.54.54,0,1,1,.289,1.042c-.565.157-1.142.3-1.714.422A.539.539,0,0,1,1384.534,946.45Zm-24.291-5.272a.539.539,0,0,1-.232-.1c-.471-.351-.938-.72-1.387-1.1a.54.54,0,1,1,.695-.828c.433.364.884.719,1.338,1.058a.541.541,0,0,1-.413.966Zm28.655,3.977a.54.54,0,0,1-.1-1.038c.53-.2,1.059-.422,1.575-.653a.54.54,0,1,1,.443.986c-.534.24-1.083.468-1.632.677A.538.538,0,0,1,1388.9,945.154Zm4.121-1.939a.54.54,0,0,1-.177-1c.493-.279.984-.576,1.46-.882a.54.54,0,0,1,.585.908c-.493.318-1,.625-1.512.914A.538.538,0,0,1,1393.019,943.216Zm3.783-2.536a.54.54,0,0,1-.244-.958c.445-.349.886-.717,1.311-1.092a.54.54,0,1,1,.715.81c-.44.389-.9.77-1.359,1.132A.539.539,0,0,1,1396.8,940.68Zm3.36-3.076a.541.541,0,0,1-.3-.9c.387-.413.768-.843,1.132-1.278a.54.54,0,0,1,.83.693c-.377.451-.772.9-1.173,1.325A.54.54,0,0,1,1400.162,937.6Zm2.857-3.55a.541.541,0,0,1-.355-.839c.32-.467.632-.95.925-1.436a.54.54,0,1,1,.925.559c-.3.5-.626,1-.959,1.489A.541.541,0,0,1,1403.019,934.054Zm2.285-3.943a.547.547,0,0,1-.145-.046.541.541,0,0,1-.253-.721c.245-.51.479-1.034.695-1.557a.54.54,0,1,1,1,.412c-.223.542-.466,1.085-.72,1.614A.54.54,0,0,1,1405.3,930.11Zm1.659-4.241a.556.556,0,0,1-.069-.016.54.54,0,0,1-.358-.675c.166-.541.318-1.094.453-1.645a.54.54,0,0,1,1.05.258c-.14.569-.3,1.143-.469,1.7A.541.541,0,0,1,1406.963,925.869Zm1-4.443a.54.54,0,0,1-.444-.613c.084-.56.152-1.129.2-1.693a.54.54,0,1,1,1.076.1c-.053.585-.123,1.176-.21,1.756a.541.541,0,0,1-.614.455Z" transform="translate(-1355.745 -914.945)" fill="#91b3fa"/><path d="M1336.023,1076.237a.536.536,0,0,1-.294-.153q-.309-.314-.609-.635a.54.54,0,0,1,.791-.736q.289.31.587.613a.54.54,0,0,1-.475.912Z" transform="translate(-1334.976 -1053.009)" fill="#91b3fa"/></g><g transform="translate(7.662 7.373)"><path d="M1335.486,733.574a.361.361,0,0,0,.38.176l4.32-.809a19.147,19.147,0,0,0,4.9,3.809l.281,4.383a.361.361,0,0,0,.265.325l5.083,1.4a.361.361,0,0,0,.394-.144l2.481-3.624a19.15,19.15,0,0,0,6.155-.772l3.3,2.9a.361.361,0,0,0,.417.043l4.582-2.607a.361.361,0,0,0,.176-.38l-.809-4.32a19.142,19.142,0,0,0,3.809-4.9l4.383-.28a.361.361,0,0,0,.325-.265l1.4-5.083a.361.361,0,0,0-.144-.394l-3.625-2.481a19.141,19.141,0,0,0-.772-6.154l2.9-3.3a.361.361,0,0,0,.043-.417l-2.607-4.582a.361.361,0,0,0-.38-.176l-4.32.809a19.148,19.148,0,0,0-4.9-3.809l-.28-4.383a.361.361,0,0,0-.265-.325l-5.083-1.4a.361.361,0,0,0-.393.144l-2.481,3.624a19.143,19.143,0,0,0-6.155.773l-3.3-2.9a.361.361,0,0,0-.417-.043l-4.582,2.607a.361.361,0,0,0-.177.38l.809,4.32a19.146,19.146,0,0,0-3.809,4.9l-4.383.28a.361.361,0,0,0-.325.265l-1.4,5.083a.361.361,0,0,0,.144.394l3.625,2.481a19.148,19.148,0,0,0,.772,6.154l-2.9,3.3a.361.361,0,0,0-.043.417Z" transform="translate(-1331.271 -696.806)" fill="#91b3fa"/><g transform="translate(17.918 17.918)"><path d="M1492.04,863.479a5.12,5.12,0,1,1,.755.071A5.207,5.207,0,0,1,1492.04,863.479Zm1.572-9.231a4.249,4.249,0,1,0,3.538,4.278A4.262,4.262,0,0,0,1493.612,854.248Z" transform="translate(-1487.789 -853.324)" fill="#bdd0fb"/></g><g transform="translate(10.185 10.025)"><path d="M1431.036,810.082a13.082,13.082,0,0,1-3.136-.947l-.015-.007-.078-.035-.011,0h0l-.01,0-.038-.017-.006,0-.015-.007-.005,0-.113-.053-.04-.019q-.122-.059-.243-.12l-.138-.071a.216.216,0,0,1-.113-.227.212.212,0,0,1,.021-.064.216.216,0,0,1,.292-.092,12.6,12.6,0,0,0,2.479.972,12.5,12.5,0,0,0,15.371-8.744,12.687,12.687,0,0,0,.275-1.243,12.5,12.5,0,1,0-24.383,1.277.216.216,0,0,1-.416.116,12.938,12.938,0,1,1,10.323,9.3Z" transform="translate(-1420.242 -784.381)" fill="#bdd0fb"/></g></g></g><g transform="translate(418.153 530.779)"><path d="M835.151,1299.145a5.363,5.363,0,0,1-5.338,5.356H541.144a5.363,5.363,0,0,1-5.338-5.356l-2.4-166.59c0-2.946,3.456-8.7,9.789-8.264l282.119-7.331a13.481,13.481,0,0,1,13.8,13.817Z" transform="translate(-522.102 -1116.956)" fill="url(#b)"/><path d="M887,1343.147a5.076,5.076,0,0,1-5.05,5.072H605.229a5.076,5.076,0,0,1-5.05-5.072l-2.267-151.232c.267-9.1,8.212-12.372,13.029-12.179l270.385-7.285a9.474,9.474,0,0,1,9.7,9.716Z" transform="translate(-579.225 -1166.097)" fill="url(#c)"/><g transform="translate(22.437 14.591)" opacity="0.58"><path d="M639.506,1932.235a.367.367,0,0,1-.38-.346l-.179-12.265a.382.382,0,0,1,.761-.01l.179,12.265a.366.366,0,0,1-.375.356Z" transform="translate(-638 -1842.013)" fill="#fff"/><path d="M631.74,1304.584a.367.367,0,0,1-.38-.346l-.687-46.973a9.786,9.786,0,0,1,3.132-7.67c3.424-3.016,8.507-2.857,8.719-2.85l86.346-2.327a.36.36,0,0,1,.391.34.364.364,0,0,1-.369.361l-86.369,2.327c-.233-.008-5-.157-8.192,2.656a9.134,9.134,0,0,0-2.9,7.159l.687,46.967a.365.365,0,0,1-.375.355Z" transform="translate(-630.673 -1244.418)" fill="#fff"/></g><rect width="327.324" height="14.637" rx="7.319" transform="translate(0 186.736)" fill="url(#d)"/></g><g transform="translate(465.201 629.302)"><path d="M845.667,1988.145v94.588a14.349,14.349,0,0,0,13.979,14.345c34.548.891,155.382,3.051,188.27,2.566a10.557,10.557,0,0,0,10.394-10.257c.634-21.974,1.664-74.815-2.147-99.347a10.865,10.865,0,0,0-10.389-9.2c-28.947-.926-157.038-3.867-189.911-3.128A10.43,10.43,0,0,0,845.667,1988.145Z" transform="translate(-845.667 -1977.598)" fill="url(#e)"/><path d="M897.513,2016.112v89.866a8.314,8.314,0,0,0,8.189,8.313l183.393,2.266a8.091,8.091,0,0,0,8.212-8.06l.307-89.062a5.918,5.918,0,0,0-5.773-5.938L904.08,2009.7A6.411,6.411,0,0,0,897.513,2016.112Z" transform="translate(-891.578 -2006.025)" fill="url(#f)"/></g><g transform="translate(634.522 655.312)"><path d="M2324.893,2210.841c-.113,18.246-.422,81.181.511,103.467a4.193,4.193,0,0,0,3.766,4.28c9.992.233,46.614.652,62.936-.395,3.4-.218,6.056-3.482,6.067-7.466.052-19.15-.007-73.009-2.157-97.65-.258-2.952-2.276-5.276-4.8-5.533-10.894-1.11-47.706-3.669-61.8-2.386C2326.87,2205.389,2324.912,2207.857,2324.893,2210.841Z" transform="translate(-2324.753 -2204.806)" fill="url(#g)"/><path d="M2359.572,2266.958c-.316,14.73-1.277,63.733-.467,81.836.118,2.646,1.934,4.76,4.2,4.881,9.316.5,41.088,1.426,54.719-.058,2.454-.267,4.348-2.621,4.438-5.5.466-15.031,1.768-60.665.983-78.565-.125-2.856-2.052-5.161-4.489-5.379-10.084-.906-43.861-2.916-55.45-2A4.646,4.646,0,0,0,2359.572,2266.958Z" transform="translate(-2354.892 -2255.394)" fill="url(#h)"/><path d="M2541.243,2224.4h0a.994.994,0,0,0,.866,1.038c2.361.109,9.011.418,11.984.575a1,1,0,0,0,.915-1.264l-.021-.114a.966.966,0,0,0-.813-.837,98.332,98.332,0,0,0-12.086-.463A.99.99,0,0,0,2541.243,2224.4Z" transform="translate(-2516.459 -2221.166)" fill="#fff" opacity="0.5"/></g><g transform="translate(533.335 528.813)"><g transform="translate(0 0)"><path d="M1602.81,1145.239a15.405,15.405,0,0,0-8.773-12.909l-65.377-31.05a15.424,15.424,0,0,0-13.233,0l-65.377,31.05a15.4,15.4,0,0,0-8.773,12.909c-6.132,94.791,54.646,129.329,74.57,138.053a15.441,15.441,0,0,0,12.392,0C1548.164,1274.568,1608.942,1240.03,1602.81,1145.239Z" transform="translate(-1440.845 -1099.789)" fill="url(#i)"/><path d="M1969.758,1155.577a.988.988,0,0,1-.424-1.879l15.448-7.336a.987.987,0,0,1,.847,1.783l-15.448,7.336A.979.979,0,0,1,1969.758,1155.577Z" transform="translate(-1908.335 -1140.945)" fill="#91b3fa"/><path d="M1479.877,1285.347a.987.987,0,0,1-.986-.954c-.207-6.166-.1-12.6.323-19.11a11.064,11.064,0,0,1,6.3-9.265l43.98-20.888a.987.987,0,0,1,.847,1.783l-43.98,20.888a9.089,9.089,0,0,0-5.178,7.609c-.417,6.451-.525,12.815-.32,18.916a.988.988,0,0,1-.954,1.02Z" transform="translate(-1474.445 -1219.552)" fill="#91b3fa"/><path d="M1710.739,1276.344a3.85,3.85,0,0,0-2.192-3.281l-61.116-29.026a3.843,3.843,0,0,0-3.3,0l-61.116,29.026a3.85,3.85,0,0,0-2.192,3.281c-1.807,35.36,6.36,64.863,24.293,87.73a108.422,108.422,0,0,0,39.037,31.135,3.854,3.854,0,0,0,3.253,0,108.417,108.417,0,0,0,39.037-31.135C1704.378,1341.207,1712.546,1311.7,1710.739,1276.344Z" transform="translate(-1564.583 -1227.194)" fill="url(#j)"/><g transform="translate(51.662 42.475)"><path d="M1945.182,1515.493h-6.091v-24.274a18.9,18.9,0,0,1,16.6-18.741l12.454-1.513a18.879,18.879,0,0,1,21.156,18.741V1510.9h-6.091v-21.191a12.788,12.788,0,0,0-14.331-12.694l-12.454,1.513a12.8,12.8,0,0,0-11.245,12.694Z" transform="translate(-1933.716 -1470.827)" fill="url(#k)"/><path d="M1895.711,1790.467l53.395-2.958a3.783,3.783,0,0,1,3.993,3.778v42.3a3.784,3.784,0,0,1-3.784,3.784H1897.2a3.783,3.783,0,0,1-3.782-3.66l-1.283-39.341A3.784,3.784,0,0,1,1895.711,1790.467Z" transform="translate(-1892.137 -1751.251)" fill="url(#l)"/><path d="M2098.405,1904.734l-3.232-9.291a3.113,3.113,0,0,1,.707-3.208,8.8,8.8,0,1,0-11.8.656,3.137,3.137,0,0,1,1.019,3.465l-2.914,8.377a3.135,3.135,0,0,0,2.961,4.165h10.3A3.135,3.135,0,0,0,2098.405,1904.734Z" transform="translate(-2059.219 -1830.732)" fill="url(#m)"/></g></g></g><g transform="translate(478.395 613.409)"><path d="M1247.51,3167.322s-.593,3.178-.9,6.326a2.171,2.171,0,0,0,2.054,2.372c4.195.215,13.167.64,16.389.527a.706.706,0,0,0,.631-.962,1.581,1.581,0,0,0-.8-.86l-14.761-6.956Z" transform="translate(-1213.897 -3015.233)" fill="url(#n)"/><path d="M1250.67,3146.674l.415,3.812s2.586,1.234,4.372-.111l-1.035-4.253Z" transform="translate(-1217.5 -2996.46)" fill="#fff"/><path d="M1168.119,2524.871c-.2.992-1.521,49.608,3.469,71.448a.739.739,0,0,1-.442.856,12.875,12.875,0,0,1-4.241.82,1.273,1.273,0,0,1-1.255-.926c-1.437-5.07-8.315-30.468-9.013-54.674-.78-27.048.009-.921.009-.921l.768-16.707Z" transform="translate(-1133.927 -2446.236)" fill="url(#o)"/><path d="M1091.125,3180.408a22.9,22.9,0,0,0-1.818,5.86,1.325,1.325,0,0,0,1.15,1.6c1.384.149,3.516.345,5.224.349a1.32,1.32,0,0,0,1.321-1.46,11.137,11.137,0,0,0-2.542-6.134Z" transform="translate(-1074.583 -3026.821)" fill="url(#p)"/><path d="M1098.956,3136.1l1,5.768a3.724,3.724,0,0,0,3.106.243l-.445-6.2Z" transform="translate(-1083.154 -2987.42)" fill="#fff"/><path d="M1065.316,2517.729c-4.5,25.614.317,63.416,1.991,70.821a1.152,1.152,0,0,0,.922.884,7.74,7.74,0,0,0,3.326-.1,1.056,1.056,0,0,0,.768-.965c.291-5.972.22-42.649,4.319-57.1a3.292,3.292,0,0,1,1.287-1.8l7.74-5.392.674-8.829Z" transform="translate(-1051.709 -2437.797)" fill="url(#q)"/><g transform="translate(12.203 12.191)"><path d="M1096.47,2099.476c-12.737-.332-26.827,3.089-26.827,3.089-4.009,22.121-1.119,47.707-1.119,47.707,9.838,2.681,21-1.381,21-1.381,1.727-9.246,9.624-35.236,9.624-35.236a41.967,41.967,0,0,0,15.621-4.794,27.316,27.316,0,0,1-5.291-11.344A42.737,42.737,0,0,1,1096.47,2099.476Z" transform="translate(-1067.516 -2080.087)" fill="url(#r)"/><path d="M1458.889,1946.239a2.438,2.438,0,0,0-2.828-.823c-1.95,7.9-11.841,14.228-21.969,17.27a27.314,27.314,0,0,0,5.291,11.344C1456.232,1964.766,1458.889,1946.239,1458.889,1946.239Z" transform="translate(-1392.128 -1945.255)" fill="#fff"/></g><g transform="translate(76.166 0)"><path d="M1628.749,1852.319c.127.417-1.4,1.037-2.272-.674-.023-.816-.486-4.317.008-4.977a65.1,65.1,0,0,1,7.707-7.906,1.2,1.2,0,0,1,.134,1.666l-2.467,2.521a11.817,11.817,0,0,1,1.4,2.833,3.422,3.422,0,0,1-.365,2.515c-.436.768-1.031,1.767-1.591,2.547A3.38,3.38,0,0,1,1628.749,1852.319Z" transform="translate(-1626.258 -1838.763)" fill="#fff"/><path d="M1642.822,1889.668l-2.244,1.866-.717,1.872,1.963,2.22a25.633,25.633,0,0,1,1.206-4.523C1643.535,1890.3,1643.282,1889.908,1642.822,1889.668Z" transform="translate(-1638.305 -1883.84)" fill="#fff"/></g><path d="M982.326,2153.993l-4.768-12.382s-11.976,7.971-14.031,18.2a28.159,28.159,0,0,1,10.318,2.871C974.771,2157.854,982.326,2153.993,982.326,2153.993Z" transform="translate(-963.228 -2106.942)" fill="url(#s)"/><path d="M990.3,2306.509s-13.432,7.423-17.878.933a5.067,5.067,0,0,1-.891-3.946,28.155,28.155,0,0,0-10.318-2.871,14.15,14.15,0,0,0,1.445,9.713c7.758,14.519,29.378-.518,29.378-.518Z" transform="translate(-960.918 -2247.752)" fill="#fff"/><path d="M1176.168,2023.207,1172,2034.89a.422.422,0,0,0,.188.51,9.529,9.529,0,0,0,9.889-.571,1.989,1.989,0,0,0,.93-1.412l1.409-10.133Z" transform="translate(-1147.816 -2002.093)" fill="#fff"/><g transform="translate(20.7 4.248)"><path d="M1205.931,1929.12s4.371,8.421,3.768,11.8-6.117,3.083-10.908.289l-3.28-9.079Z" transform="translate(-1189.356 -1923.025)" fill="#fff"/><path d="M1151.43,1889.618a.345.345,0,0,0,.156-.5,9.012,9.012,0,0,1-1.213-2.641s-.8-.52,2.048-1.172,7.083-1.666,8-4.072c.889-2.346-1.332-8.288-5.011-3.605a.345.345,0,0,1-.547,0,3.56,3.56,0,0,0-4.323-1.45,3.266,3.266,0,0,0-2.266,3.134.343.343,0,0,1-.41.348,3.983,3.983,0,0,0-4.671,2.124c-.969,2.077-.363,3.264.193,3.847a.344.344,0,0,1-.153.57,2.072,2.072,0,0,0-1.484,2.351c.1,2.191,2.55,2.021,3.248,1.928a.346.346,0,0,1,.306.112c.591.667,3.258,3.5,6.169,3.868a.348.348,0,0,0,.37-.457l-1.227-3.679a.347.347,0,0,1,.192-.428Z" transform="translate(-1141.74 -1875.875)" fill="url(#t)"/><path d="M1204.387,1992s-3.148-2.2-3.4-.375,2.828,2.679,4.363,2.011Z" transform="translate(-1194.194 -1977.728)" fill="#fff"/></g><g transform="translate(26.611 42.813)"><path d="M1193.408,2240.427l7.317-25.552a.745.745,0,0,1,.63-.537c1.326-.155,5.167-.589,9.6-.964a108.952,108.952,0,0,1,15.254-.506.748.748,0,0,1,.611,1.076c-2.108,4.265-10.78,21.615-15.123,27.3a.749.749,0,0,1-.6.3l-16.976-.158A.748.748,0,0,1,1193.408,2240.427Z" transform="translate(-1193.379 -2212.752)" fill="url(#u)"/><path d="M1203.617,2333.186s-1.019-4.191-.608-5.677,1.208-3.4,3.863-2.974a38.86,38.86,0,0,1,5.787,1.543,1.52,1.52,0,0,1-2.176,1.312l1.251.968s-.179,1.551-1.883.722l1.164,1.284a1.357,1.357,0,0,1-1.986.457C1207.775,2330,1207.173,2333.691,1203.617,2333.186Z" transform="translate(-1201.82 -2311.684)" fill="#fff"/><path d="M1342.672,2268.207a2.148,2.148,0,1,0,2.148-2.148A2.148,2.148,0,0,0,1342.672,2268.207Z" transform="translate(-1325.581 -2259.957)" fill="#91b3fa"/><path d="M1260.544,2235.126l1.49-5.053a1.733,1.733,0,0,1,1.3-1.216c4.669-.974,17.449-1.181,17.577-1.183l-.008-.571c-.527.008-12.963.21-17.686,1.2a2.3,2.3,0,0,0-1.733,1.613l-1.49,5.053Z" transform="translate(-1252.37 -2225.46)" fill="url(#i)"/></g></g></g></svg>