<svg xmlns="http://www.w3.org/2000/svg" width="136" height="123.523" viewBox="0 0 136 123.523">
  <g id="Group_10174" data-name="Group 10174" transform="translate(-698.5 -251.477)">
    <g id="Character" transform="translate(720 251.477)">
      <g id="Group_6424" data-name="Group 6424">
        <g id="Group_6299" data-name="Group 6299" transform="translate(0 34.631)">
          <g id="Group_6277" data-name="Group 6277" transform="translate(4.087)">
            <g id="Group_6271" data-name="Group 6271">
              <g id="Group_6270" data-name="Group 6270">
                <path id="Path_4993" data-name="Path 4993" d="M328.838,343l-12.1-13.544-.122,16.463,3.641,10.559-36.182,6.276-1.534-28.549-2.6-21.925a5.954,5.954,0,0,1,3.73-6.242l9.957-3.921,14.025,2.573,5.642,2.144a15.469,15.469,0,0,1,6.148,4.276l16.983,19.421" transform="translate(-279.897 -302.12)" fill="#e8505b"/>
              </g>
            </g>
            <g id="Group_6273" data-name="Group 6273" transform="translate(35.997 15.66)">
              <g id="Group_6272" data-name="Group 6272">
                <path id="Path_4994" data-name="Path 4994" d="M343.987,338.443a19.138,19.138,0,0,0,2.043-.144,8.292,8.292,0,0,0,6.8-6.272A19.157,19.157,0,0,0,353.14,330a1.779,1.779,0,0,1,.051.556,7.152,7.152,0,0,1-.158,1.515,8.106,8.106,0,0,1-6.973,6.43,7.156,7.156,0,0,1-1.523.035A1.768,1.768,0,0,1,343.987,338.443Z" transform="translate(-343.987 -330.002)" fill="#fff"/>
              </g>
            </g>
            <g id="Group_6276" data-name="Group 6276" transform="translate(36.765 17.629)">
              <g id="Group_6275" data-name="Group 6275">
                <g id="Group_6274" data-name="Group 6274">
                  <path id="Path_4995" data-name="Path 4995" d="M345.645,358.98c.084,0,.106-5.7.049-12.737s-.173-12.736-.257-12.736-.107,5.7-.049,12.738S345.56,358.98,345.645,358.98Z" transform="translate(-345.355 -333.507)" fill="#263238"/>
                </g>
              </g>
            </g>
          </g>
          <g id="Group_6278" data-name="Group 6278" transform="translate(0 3.921)">
            <path id="Path_4996" data-name="Path 4996" d="M312.436,352.467l-21.863-8.8a5,5,0,0,1-3.115-4.254l-1.6-20.961s.189-8.915-5.379-9.349l-3.168,1.247c-4.094,2.174-5.108,8.135-4.551,12.737.792,6.539,1.122,15.793,2.008,21.469.725,4.642,3.384,8.726,7.928,9.922l26.928,5.829Z" transform="translate(-272.619 -309.102)" fill="#e8505b"/>
          </g>
          <g id="Group_6280" data-name="Group 6280" transform="translate(13.546 16.468)">
            <g id="Group_6279" data-name="Group 6279">
              <path id="Path_4997" data-name="Path 4997" d="M296.744,331.44a3.026,3.026,0,0,1,.069.48l.14,1.381c.112,1.229.269,2.958.463,5.084.185,2.156.4,4.709.648,7.541q.09,1.065.184,2.18a16.346,16.346,0,0,0,.279,2.243,3.723,3.723,0,0,0,1.087,1.965,7.386,7.386,0,0,0,2.017,1.255c6.029,2.609,11.585,4.763,15.618,6.273l4.788,1.764,1.3.48a2.983,2.983,0,0,1,.448.185,3.029,3.029,0,0,1-.467-.13l-1.32-.429c-1.144-.379-2.794-.947-4.822-1.677-4.057-1.463-9.622-3.584-15.668-6.2a7.628,7.628,0,0,1-2.1-1.31,4.014,4.014,0,0,1-1.165-2.111,16.448,16.448,0,0,1-.279-2.283q-.088-1.116-.174-2.182c-.22-2.835-.418-5.391-.586-7.549l-.37-5.091q-.054-.872-.085-1.386A2.92,2.92,0,0,1,296.744,331.44Z" transform="translate(-296.738 -331.44)" fill="#263238"/>
            </g>
          </g>
          <g id="Group_6282" data-name="Group 6282" transform="translate(1.01 27.863)">
            <g id="Group_6281" data-name="Group 6281">
              <path id="Path_4998" data-name="Path 4998" d="M274.434,351.728a1.071,1.071,0,0,1,.043.281l.072.809c.065.747.153,1.752.259,2.975.12,1.255.272,2.748.49,4.4a42.065,42.065,0,0,0,.987,5.31,7.933,7.933,0,0,0,1.067,2.531,14.481,14.481,0,0,0,1.633,2.007,13.975,13.975,0,0,0,3.5,2.625,13.142,13.142,0,0,0,3.839,1.257,1.043,1.043,0,0,1-.284-.007,6.069,6.069,0,0,1-.809-.1,10.7,10.7,0,0,1-2.841-.962,13.706,13.706,0,0,1-3.6-2.62,14.461,14.461,0,0,1-1.679-2.035A8.127,8.127,0,0,1,276,365.578a39.5,39.5,0,0,1-.972-5.353c-.2-1.658-.335-3.156-.429-4.415s-.14-2.28-.167-2.985c-.007-.325-.012-.593-.017-.813A1.019,1.019,0,0,1,274.434,351.728Z" transform="translate(-274.418 -351.728)" fill="#263238"/>
            </g>
          </g>
          <g id="Group_6284" data-name="Group 6284" transform="translate(10.369 37.354)">
            <g id="Group_6283" data-name="Group 6283">
              <path id="Path_4999" data-name="Path 4999" d="M291.087,373.8a3.2,3.2,0,0,1,.4-1.165,7.52,7.52,0,0,1,4.435-3.788,3.224,3.224,0,0,1,1.213-.211c.009.049-.45.14-1.145.406a8.506,8.506,0,0,0-4.321,3.691C291.3,373.381,291.134,373.82,291.087,373.8Z" transform="translate(-291.082 -368.628)" fill="#263238"/>
            </g>
          </g>
          <g id="Group_6286" data-name="Group 6286" transform="translate(14.675 4.932)">
            <g id="Group_6285" data-name="Group 6285">
              <path id="Path_5000" data-name="Path 5000" d="M298.747,332.558a.56.56,0,0,1,.139.061l.391.206a13.555,13.555,0,0,0,1.56.661,12.345,12.345,0,0,0,6.127.523,12.1,12.1,0,0,0,7.617-4.733,10.048,10.048,0,0,0,1.994-4.953,6.751,6.751,0,0,0-.291-2.8,5.688,5.688,0,0,0-1.577-2.408,4.762,4.762,0,0,0-2.566-1.247,3.056,3.056,0,0,0-2.572.723,1.653,1.653,0,0,0-.5,1.164,2.034,2.034,0,0,0,.422,1.2,3.284,3.284,0,0,0,2.224,1.16,9,9,0,0,0,4.779-.684,8.869,8.869,0,0,0,5.034-5.628,9.506,9.506,0,0,0,.416-2.63,9.936,9.936,0,0,0-.122-1.686l-.08-.434a.617.617,0,0,1-.019-.151,7.056,7.056,0,0,1,.335,2.271,9.361,9.361,0,0,1-.373,2.677,9.164,9.164,0,0,1-1.643,3.179,9.347,9.347,0,0,1-8.366,3.353,3.548,3.548,0,0,1-2.408-1.26,2.309,2.309,0,0,1-.481-1.369,1.939,1.939,0,0,1,.582-1.365,3.336,3.336,0,0,1,2.814-.809,5.052,5.052,0,0,1,2.724,1.319,5.974,5.974,0,0,1,1.656,2.533,7.022,7.022,0,0,1,.3,2.922,10.287,10.287,0,0,1-2.063,5.086,12.077,12.077,0,0,1-14,4.156A8.892,8.892,0,0,1,298.747,332.558Z" transform="translate(-298.747 -310.901)" fill="#fff"/>
            </g>
          </g>
          <g id="Group_6288" data-name="Group 6288" transform="translate(0.353 17.753)">
            <g id="Group_6287" data-name="Group 6287">
              <path id="Path_5001" data-name="Path 5001" d="M273.248,336.974a1.964,1.964,0,0,1,.359-.448,8.076,8.076,0,0,1,1.181-1.027,9.9,9.9,0,0,1,4.836-1.714,9.341,9.341,0,0,1,2.85.12,8.765,8.765,0,0,1,2.2.772,9.878,9.878,0,0,1,1.336.813,2.02,2.02,0,0,1,.439.37c-.03.046-.684-.448-1.864-1a9.183,9.183,0,0,0-4.927-.787,10.4,10.4,0,0,0-4.75,1.593C273.824,336.39,273.289,337.015,273.248,336.974Z" transform="translate(-273.247 -333.728)" fill="#fff"/>
            </g>
          </g>
          <g id="Group_6290" data-name="Group 6290" transform="translate(3.85 1.63)">
            <g id="Group_6289" data-name="Group 6289">
              <path id="Path_5002" data-name="Path 5002" d="M279.474,309.4a8.933,8.933,0,0,0,1.77,1.286,6.328,6.328,0,0,0,2.252.66,5.64,5.64,0,0,0,5.091-2.107,6.351,6.351,0,0,0,1.127-2.059,8.913,8.913,0,0,0,.343-2.161,1.892,1.892,0,0,1,.073.6,5.414,5.414,0,0,1-.218,1.625,6.24,6.24,0,0,1-1.115,2.168,5.755,5.755,0,0,1-5.331,2.206,6.216,6.216,0,0,1-2.32-.746,5.384,5.384,0,0,1-1.3-1A1.9,1.9,0,0,1,279.474,309.4Z" transform="translate(-279.473 -305.023)" fill="#fff"/>
            </g>
          </g>
          <g id="Group_6292" data-name="Group 6292" transform="translate(22.899 32.154)">
            <g id="Group_6291" data-name="Group 6291">
              <path id="Path_5003" data-name="Path 5003" d="M313.394,367.692a2.177,2.177,0,0,1,.046-.414,4.563,4.563,0,0,1,.388-1.131,6.238,6.238,0,0,1,3.273-2.841,9.573,9.573,0,0,1,6.428-.23,6.136,6.136,0,0,1,3.35,1.9,2.03,2.03,0,0,1,.246,2.056,3.264,3.264,0,0,1-1.558,1.47,4.947,4.947,0,0,1-2.07.512,3.013,3.013,0,0,1-1.988-.616,2.542,2.542,0,0,1-.89-1.8,4.524,4.524,0,0,1,.3-1.894,8.5,8.5,0,0,1,4.506-4.561,8.84,8.84,0,0,1,4.3-.739,6.081,6.081,0,0,1,1.572.331c-.009.038-.557-.147-1.58-.217a9,9,0,0,0-4.207.814,8.792,8.792,0,0,0-2.454,1.665,7.874,7.874,0,0,0-1.884,2.8,4.266,4.266,0,0,0-.272,1.779,2.26,2.26,0,0,0,.793,1.6,2.736,2.736,0,0,0,1.8.546,4.679,4.679,0,0,0,1.944-.483,2.989,2.989,0,0,0,1.423-1.328,1.74,1.74,0,0,0-.213-1.769,4.055,4.055,0,0,0-1.463-1.161,10.493,10.493,0,0,0-1.728-.644,9.448,9.448,0,0,0-6.275.162,6.233,6.233,0,0,0-3.251,2.7A6.377,6.377,0,0,0,313.394,367.692Z" transform="translate(-313.391 -359.368)" fill="#fff"/>
            </g>
          </g>
          <g id="Group_6294" data-name="Group 6294" transform="translate(8.346 38.231)">
            <g id="Group_6293" data-name="Group 6293">
              <path id="Path_5004" data-name="Path 5004" d="M287.479,380.329c-.009-.056.833-.126,2.1-.577a10.455,10.455,0,0,0,6.707-7.419c.321-1.3.307-2.147.363-2.143a2.047,2.047,0,0,1,.031.59,8.8,8.8,0,0,1-.192,1.6,10.085,10.085,0,0,1-6.842,7.569,8.882,8.882,0,0,1-1.573.352A2.048,2.048,0,0,1,287.479,380.329Z" transform="translate(-287.479 -370.189)" fill="#fff"/>
            </g>
          </g>
          <g id="Group_6296" data-name="Group 6296" transform="translate(1.261 30.648)">
            <g id="Group_6295" data-name="Group 6295">
              <path id="Path_5005" data-name="Path 5005" d="M274.864,358.116a1.026,1.026,0,0,1,.264-.106c.176-.058.438-.139.781-.225a9.416,9.416,0,0,1,2.978-.3,6.219,6.219,0,0,1,2.025.5,4.666,4.666,0,0,1,1.889,1.482,3.885,3.885,0,0,1,.734,2.549,3.106,3.106,0,0,1-.434,1.368,2.173,2.173,0,0,1-1.146.958,1.512,1.512,0,0,1-1.477-.292,1.972,1.972,0,0,1-.509-1.363,5.829,5.829,0,0,1,.515-2.6,5.684,5.684,0,0,1,3.189-3.026,5.785,5.785,0,0,1,2.973-.295,4.912,4.912,0,0,1,.791.2,1.033,1.033,0,0,1,.261.115c-.008.029-.375-.117-1.067-.2a5.922,5.922,0,0,0-2.883.375,5.521,5.521,0,0,0-3.017,2.943,5.6,5.6,0,0,0-.475,2.476,1.7,1.7,0,0,0,.423,1.165,1.224,1.224,0,0,0,1.189.225,1.887,1.887,0,0,0,.986-.832,2.841,2.841,0,0,0,.4-1.238,3.632,3.632,0,0,0-.668-2.368,4.459,4.459,0,0,0-1.77-1.419,6.12,6.12,0,0,0-1.943-.516,10.091,10.091,0,0,0-2.935.208C275.246,358.037,274.87,358.139,274.864,358.116Z" transform="translate(-274.864 -356.688)" fill="#fff"/>
            </g>
          </g>
          <g id="Group_6298" data-name="Group 6298" transform="translate(14.264 22.699)" opacity="0.3">
            <g id="Group_6297" data-name="Group 6297">
              <path id="Path_5006" data-name="Path 5006" d="M317.286,364.623c-2.338-1.32-4.625-2.335-7.07-3.446a16.015,16.015,0,0,1-6.438-4.693c-3.017-4.066-2.674-9.936-5.762-13.949l.6,8.1c.185,2.474-.194,4.919,1.4,6.6,1.342,1.416,3.959,2.5,5.811,3.113,3.723,1.228,7.732,3.053,11.455,4.28" transform="translate(-298.016 -342.535)"/>
            </g>
          </g>
        </g>
        <g id="Group_6326" data-name="Group 6326" transform="translate(67.308 109.249)">
          <g id="Group_6301" data-name="Group 6301" transform="translate(0 0.977)">
            <g id="Group_6300" data-name="Group 6300">
              <path id="Path_5007" data-name="Path 5007" d="M396.673,436.713s18.293,5.063,19.027,5.322c1.1.388.917,4.425-.8,4.362-.811-.03-14.051.493-15.723.388s-6.72-2.093-6.72-2.093Z" transform="translate(-392.458 -436.713)" fill="#e8505b"/>
            </g>
          </g>
          <g id="Group_6304" data-name="Group 6304" transform="translate(11.799 4.303)">
            <g id="Group_6303" data-name="Group 6303">
              <g id="Group_6302" data-name="Group 6302">
                <path id="Path_5008" data-name="Path 5008" d="M413.5,446.289a8.025,8.025,0,0,1,2.1-3.648,4.064,4.064,0,0,0-2.1,3.648Z" transform="translate(-413.465 -442.635)" fill="#263238"/>
              </g>
            </g>
          </g>
          <g id="Group_6307" data-name="Group 6307" transform="translate(9.899 3.597)">
            <g id="Group_6306" data-name="Group 6306">
              <g id="Group_6305" data-name="Group 6305">
                <path id="Path_5009" data-name="Path 5009" d="M410.112,444.873c.089.016.275-.849.762-1.8s1.062-1.624,1-1.687a4.586,4.586,0,0,0-1.758,3.492Z" transform="translate(-410.083 -441.377)" fill="#263238"/>
              </g>
            </g>
          </g>
          <g id="Group_6310" data-name="Group 6310" transform="translate(8.018 2.964)">
            <g id="Group_6309" data-name="Group 6309">
              <g id="Group_6308" data-name="Group 6308">
                <path id="Path_5010" data-name="Path 5010" d="M406.855,443.9a6.423,6.423,0,0,1,1.424-3.643,3.435,3.435,0,0,0-1.424,3.643Z" transform="translate(-406.734 -440.251)" fill="#263238"/>
              </g>
            </g>
          </g>
          <g id="Group_6313" data-name="Group 6313" transform="translate(7.013)">
            <g id="Group_6312" data-name="Group 6312">
              <g id="Group_6311" data-name="Group 6311">
                <path id="Path_5011" data-name="Path 5011" d="M406.395,439.224a3.229,3.229,0,0,0,.2-1.361,6.41,6.41,0,0,0-.185-1.492,6.226,6.226,0,0,0-.272-.849,1.019,1.019,0,0,0-.293-.448.487.487,0,0,0-.628.031.806.806,0,0,0-.244.517,3.538,3.538,0,0,0-.024.483,4.037,4.037,0,0,0,.113.9,5.43,5.43,0,0,0,.563,1.4,3.683,3.683,0,0,0,.822,1.1c.042-.029-.265-.455-.63-1.2a6.007,6.007,0,0,1-.48-1.36,3.99,3.99,0,0,1-.088-.836c.008-.281,0-.632.168-.768a.177.177,0,0,1,.242-.02.767.767,0,0,1,.2.32,6.776,6.776,0,0,1,.277.807,7.378,7.378,0,0,1,.242,1.428C406.429,438.7,406.346,439.216,406.395,439.224Z" transform="translate(-404.944 -434.973)" fill="#263238"/>
              </g>
            </g>
          </g>
          <g id="Group_6316" data-name="Group 6316" transform="translate(4.781 3.874)">
            <g id="Group_6315" data-name="Group 6315">
              <g id="Group_6314" data-name="Group 6314">
                <path id="Path_5012" data-name="Path 5012" d="M404.63,442.061a2.554,2.554,0,0,0-1.18-.19,5.285,5.285,0,0,0-1.3.159,2.867,2.867,0,0,0-.748.275.773.773,0,0,0-.413.836.915.915,0,0,0,.659.653,1.674,1.674,0,0,0,.821,0,3.158,3.158,0,0,0,1.188-.584,3.229,3.229,0,0,0,.85-.837,8.05,8.05,0,0,0-.975.66,3.247,3.247,0,0,1-1.122.486,1.45,1.45,0,0,1-.678-.01.621.621,0,0,1-.445-.435.472.472,0,0,1,.272-.51,2.769,2.769,0,0,1,.664-.259,6.138,6.138,0,0,1,1.232-.215C404.173,442.037,404.622,442.11,404.63,442.061Z" transform="translate(-400.97 -441.871)" fill="#263238"/>
              </g>
            </g>
          </g>
          <g id="Group_6319" data-name="Group 6319" transform="translate(14.504 5.063)">
            <g id="Group_6318" data-name="Group 6318">
              <g id="Group_6317" data-name="Group 6317">
                <path id="Path_5013" data-name="Path 5013" d="M418.424,447.078A4.937,4.937,0,0,1,419.68,444a2.624,2.624,0,0,0-1.256,3.082Z" transform="translate(-418.282 -443.988)" fill="#263238"/>
              </g>
            </g>
          </g>
          <g id="Group_6322" data-name="Group 6322" transform="translate(1.882 8.993)">
            <g id="Group_6321" data-name="Group 6321">
              <g id="Group_6320" data-name="Group 6320">
                <path id="Path_5014" data-name="Path 5014" d="M395.809,450.989a3.776,3.776,0,0,0,.708.333,15.745,15.745,0,0,0,2.035.631,29.032,29.032,0,0,0,6.984.662c2.741-.03,5.212-.154,7-.226l2.12-.112a3.768,3.768,0,0,0,.776-.083,3.879,3.879,0,0,0-.78-.036l-2.122.015-7,.136a32.715,32.715,0,0,1-6.935-.567C396.851,451.382,395.83,450.932,395.809,450.989Z" transform="translate(-395.809 -450.984)" fill="#263238"/>
              </g>
            </g>
          </g>
          <g id="Group_6325" data-name="Group 6325" transform="translate(1.341 7.859)">
            <g id="Group_6324" data-name="Group 6324">
              <g id="Group_6323" data-name="Group 6323">
                <path id="Path_5015" data-name="Path 5015" d="M394.846,450.521c.025.042.525-.25,1.37-.621a6.37,6.37,0,0,1,3.461-.576,5.483,5.483,0,0,1,2.992,1.78,10.786,10.786,0,0,0,1.054,1.077,5.641,5.641,0,0,0-.9-1.224,7.224,7.224,0,0,0-1.213-1.134,4.34,4.34,0,0,0-1.89-.8,6.051,6.051,0,0,0-3.6.681A4.867,4.867,0,0,0,394.846,450.521Z" transform="translate(-394.845 -448.966)" fill="#263238"/>
              </g>
            </g>
          </g>
        </g>
        <g id="Group_6356" data-name="Group 6356" transform="translate(33.828 105.176)">
          <g id="Group_6328" data-name="Group 6328">
            <g id="Group_6327" data-name="Group 6327">
              <path id="Path_5016" data-name="Path 5016" d="M351.126,427.721s-17.31,11.334-17.931,11.8c-.932.7.137,4.058,1.752,3.478.764-.275,15.289-4.315,16.851-4.923s5.767-4.035,5.767-4.035Z" transform="translate(-332.849 -427.721)" fill="#e8505b"/>
            </g>
          </g>
          <g id="Group_6331" data-name="Group 6331" transform="translate(10.028 6.112)">
            <g id="Group_6330" data-name="Group 6330">
              <g id="Group_6329" data-name="Group 6329">
                <path id="Path_5017" data-name="Path 5017" d="M353.813,441.456a4.066,4.066,0,0,0-3.108-2.838,8.024,8.024,0,0,1,3.108,2.838Z" transform="translate(-350.704 -438.603)" fill="#263238"/>
              </g>
            </g>
          </g>
          <g id="Group_6334" data-name="Group 6334" transform="translate(11.954 4.759)">
            <g id="Group_6333" data-name="Group 6333">
              <g id="Group_6332" data-name="Group 6332">
                <path id="Path_5018" data-name="Path 5018" d="M356.87,439a4.59,4.59,0,0,0-2.735-2.793c-.044.08.714.535,1.461,1.3S356.79,439.039,356.87,439Z" transform="translate(-354.133 -436.195)" fill="#263238"/>
              </g>
            </g>
          </g>
          <g id="Group_6337" data-name="Group 6337" transform="translate(13.786 3.511)">
            <g id="Group_6336" data-name="Group 6336">
              <g id="Group_6335" data-name="Group 6335">
                <path id="Path_5019" data-name="Path 5019" d="M359.858,437.023a3.434,3.434,0,0,0-2.463-3.039,6.42,6.42,0,0,1,2.463,3.039Z" transform="translate(-357.393 -433.972)" fill="#263238"/>
              </g>
            </g>
          </g>
          <g id="Group_6340" data-name="Group 6340" transform="translate(14.332 0.078)">
            <g id="Group_6339" data-name="Group 6339">
              <g id="Group_6338" data-name="Group 6338">
                <path id="Path_5020" data-name="Path 5020" d="M359.258,432.191c.045-.022-.192-.49-.392-1.3a7.334,7.334,0,0,1-.2-1.434,6.628,6.628,0,0,1,.019-.853.762.762,0,0,1,.094-.365.178.178,0,0,1,.237-.054c.2.079.3.415.393.68a4.022,4.022,0,0,1,.17.823,5.987,5.987,0,0,1-.044,1.441c-.121.822-.284,1.321-.235,1.336a3.705,3.705,0,0,0,.448-1.3,5.436,5.436,0,0,0,.112-1.5,4.033,4.033,0,0,0-.165-.887,3.539,3.539,0,0,0-.169-.453.809.809,0,0,0-.39-.419.488.488,0,0,0-.608.161,1.02,1.02,0,0,0-.143.516,6.307,6.307,0,0,0,0,.892,6.421,6.421,0,0,0,.276,1.477A3.243,3.243,0,0,0,359.258,432.191Z" transform="translate(-358.366 -427.86)" fill="#263238"/>
              </g>
            </g>
          </g>
          <g id="Group_6343" data-name="Group 6343" transform="translate(15.188 3.431)">
            <g id="Group_6342" data-name="Group 6342">
              <g id="Group_6341" data-name="Group 6341">
                <path id="Path_5021" data-name="Path 5021" d="M359.892,434.624c.022.044.427-.162,1.125-.331a6.126,6.126,0,0,1,1.24-.169,2.771,2.771,0,0,1,.711.045.471.471,0,0,1,.414.4.621.621,0,0,1-.293.549,1.439,1.439,0,0,1-.643.215,3.243,3.243,0,0,1-1.217-.122,8.12,8.12,0,0,0-1.129-.333,3.2,3.2,0,0,0,1.064.54,3.164,3.164,0,0,0,1.31.2,1.684,1.684,0,0,0,.783-.247.914.914,0,0,0,.429-.822.771.771,0,0,0-.648-.671,2.852,2.852,0,0,0-.8-.035,5.309,5.309,0,0,0-1.285.243A2.563,2.563,0,0,0,359.892,434.624Z" transform="translate(-359.891 -433.83)" fill="#263238"/>
              </g>
            </g>
          </g>
          <g id="Group_6346" data-name="Group 6346" transform="translate(2.466 10.372)">
            <g id="Group_6345" data-name="Group 6345">
              <g id="Group_6344" data-name="Group 6344">
                <path id="Path_5022" data-name="Path 5022" d="M339.078,450.464c.02.027.292-.175.424-.671a2.557,2.557,0,0,0-.324-1.879,6.8,6.8,0,0,0-.58-.864,3.16,3.16,0,0,0-.587-.631,1.022,1.022,0,0,0-.553-.231c-.144-.006-.219.029-.216.047a1.621,1.621,0,0,1,.63.349,3.906,3.906,0,0,1,.5.631,9.866,9.866,0,0,1,.54.845,2.68,2.68,0,0,1,.381,1.688C339.227,450.2,339.037,450.434,339.078,450.464Z" transform="translate(-337.24 -446.188)" fill="#263238"/>
              </g>
            </g>
          </g>
          <g id="Group_6349" data-name="Group 6349" transform="translate(8.385 7.433)">
            <g id="Group_6348" data-name="Group 6348">
              <g id="Group_6347" data-name="Group 6347">
                <path id="Path_5023" data-name="Path 5023" d="M349.911,443.527a2.623,2.623,0,0,0-2.133-2.554,4.935,4.935,0,0,1,2.133,2.554Z" transform="translate(-347.777 -440.955)" fill="#263238"/>
              </g>
            </g>
          </g>
          <g id="Group_6352" data-name="Group 6352" transform="translate(1.072 6.932)">
            <g id="Group_6351" data-name="Group 6351">
              <g id="Group_6350" data-name="Group 6350">
                <path id="Path_5024" data-name="Path 5024" d="M356.622,440.064a6.062,6.062,0,0,0-.761.522,21.732,21.732,0,0,1-2.134,1.308,28.027,28.027,0,0,1-3.39,1.509c-1.31.489-2.781.95-4.335,1.4-3.114.9-5.933,1.716-7.968,2.329l-2.406.738a5.419,5.419,0,0,0-.871.311,5.325,5.325,0,0,0,.9-.2l2.432-.645c2.05-.559,4.876-1.345,7.994-2.243,1.557-.452,3.034-.923,4.35-1.431a25.471,25.471,0,0,0,3.394-1.583,17.041,17.041,0,0,0,2.1-1.4A4.826,4.826,0,0,0,356.622,440.064Z" transform="translate(-334.757 -440.063)" fill="#263238"/>
              </g>
            </g>
          </g>
          <g id="Group_6355" data-name="Group 6355" transform="translate(15.619 6.678)">
            <g id="Group_6354" data-name="Group 6354">
              <g id="Group_6353" data-name="Group 6353">
                <path id="Path_5025" data-name="Path 5025" d="M368.617,440.1a4.859,4.859,0,0,0-1.467-.39,6.051,6.051,0,0,0-3.638.444,4.345,4.345,0,0,0-1.557,1.337,7.249,7.249,0,0,0-.811,1.449,5.643,5.643,0,0,0-.481,1.438,10.774,10.774,0,0,0,.677-1.346,5.481,5.481,0,0,1,2.31-2.6,6.374,6.374,0,0,1,3.473-.5C368.04,440.02,368.606,440.147,368.617,440.1Z" transform="translate(-360.658 -439.612)" fill="#263238"/>
              </g>
            </g>
          </g>
        </g>
        <g id="Group_6371" data-name="Group 6371" transform="translate(38.829 76.606)">
          <g id="Group_6358" data-name="Group 6358">
            <g id="Group_6357" data-name="Group 6357">
              <path id="Path_5026" data-name="Path 5026" d="M391,377.783a8.291,8.291,0,0,1,5.214,7.677c.042,11.154-22.536,23.448-22.536,23.448L343.635,389l-1.883-.762S382.311,373,391,377.783Z" transform="translate(-341.752 -376.854)" fill="#263238"/>
            </g>
          </g>
          <g id="Group_6361" data-name="Group 6361" transform="translate(17.102 6.562)">
            <g id="Group_6360" data-name="Group 6360">
              <g id="Group_6359" data-name="Group 6359">
                <path id="Path_5027" data-name="Path 5027" d="M372.2,404.177a5.545,5.545,0,0,0,.782-.531c.493-.357,1.2-.886,2.055-1.552,1.72-1.329,4.061-3.214,6.579-5.375s4.735-4.192,6.309-5.691c.787-.75,1.418-1.364,1.844-1.8a5.6,5.6,0,0,0,.643-.693,5.625,5.625,0,0,0-.725.607l-1.91,1.724c-1.611,1.457-3.847,3.458-6.361,5.618s-4.83,4.066-6.514,5.438l-1.993,1.627A5.584,5.584,0,0,0,372.2,404.177Z" transform="translate(-372.202 -388.538)" fill="#455a64"/>
              </g>
            </g>
          </g>
          <g id="Group_6364" data-name="Group 6364" transform="translate(35.297 5.022)">
            <g id="Group_6363" data-name="Group 6363">
              <g id="Group_6362" data-name="Group 6362">
                <path id="Path_5028" data-name="Path 5028" d="M410.068,385.871a7.447,7.447,0,0,0-5.469,1.614c.049.08,1.145-.618,2.661-1.058S410.069,385.965,410.068,385.871Z" transform="translate(-404.597 -385.795)" fill="#455a64"/>
              </g>
            </g>
          </g>
          <g id="Group_6367" data-name="Group 6367" transform="translate(35.449 3.331)">
            <g id="Group_6366" data-name="Group 6366">
              <g id="Group_6365" data-name="Group 6365">
                <path id="Path_5029" data-name="Path 5029" d="M407.6,382.794a4.564,4.564,0,0,0-2.716,3.363c.088.03.416-.905,1.173-1.831S407.647,382.873,407.6,382.794Z" transform="translate(-404.868 -382.786)" fill="#455a64"/>
              </g>
            </g>
          </g>
          <g id="Group_6370" data-name="Group 6370" transform="translate(49.223 38.624)">
            <g id="Group_6369" data-name="Group 6369">
              <g id="Group_6368" data-name="Group 6368">
                <path id="Path_5030" data-name="Path 5030" d="M431.071,445.655c.016-.035-.358-.107-.775.235a2.811,2.811,0,0,0-.868,1.744,3.423,3.423,0,0,0,.274,1.923c.212.457.447.671.472.649.042-.029-.123-.282-.272-.73a3.9,3.9,0,0,1-.171-1.8,3.014,3.014,0,0,1,.71-1.627C430.76,445.716,431.077,445.7,431.071,445.655Z" transform="translate(-429.392 -445.623)" fill="#263238"/>
              </g>
            </g>
          </g>
        </g>
        <g id="Group_6374" data-name="Group 6374" transform="translate(23.537 59.313)">
          <g id="Group_6372" data-name="Group 6372">
            <path id="Path_5031" data-name="Path 5031" d="M372.157,346.065l-10.7,27.127-46.077.751-.853-2.493,16.148-.586,7.761-24.064Z" transform="translate(-314.526 -346.065)" fill="#455a64"/>
          </g>
          <g id="Group_6373" data-name="Group 6373" transform="translate(35.264 11.516)">
            <path id="Path_5032" data-name="Path 5032" d="M378.16,366.8a2.047,2.047,0,0,1,2.216.236A1.792,1.792,0,0,1,380.81,369a1.941,1.941,0,0,1-1.665,1.163,1.75,1.75,0,0,1-1.76-1.162,1.965,1.965,0,0,1,.775-2.2" transform="translate(-377.312 -366.569)" fill="#ebebeb"/>
          </g>
        </g>
        <g id="Group_6380" data-name="Group 6380" transform="translate(7.567 79.136)">
          <g id="Group_6376" data-name="Group 6376">
            <g id="Group_6375" data-name="Group 6375">
              <path id="Path_5033" data-name="Path 5033" d="M352.127,412.237s-42.451-27.845-44.189-28.424S302,380.481,297.8,381.64s-7.967,4.925-9.85,10.429c-1.076,3.145-1.584,8.511-1.822,12.534a18.593,18.593,0,0,0,4.351,13.258,11.871,11.871,0,0,0,5.293,3.758c.442.138.9.256,1.372.358a19.966,19.966,0,0,0,20.783-8.726l.991-1.508s27.77,10.2,28.2,10.057Z" transform="translate(-286.092 -381.358)" fill="#263238"/>
            </g>
          </g>
          <g id="Group_6379" data-name="Group 6379" transform="translate(13.517 1.854)">
            <g id="Group_6378" data-name="Group 6378">
              <g id="Group_6377" data-name="Group 6377">
                <path id="Path_5034" data-name="Path 5034" d="M310.158,406.02s.077.039.233.1l.695.276,2.691,1.036,10,3.768c4.248,1.585,9.338,3.47,15.047,5.547s12.038,4.354,18.8,6.643l.123.042.06-.116,3.317-6.333,1.691-3.23.065-.125-.118-.075L330.378,393l-9.727-6.136-2.642-1.648-.69-.422c-.156-.094-.24-.135-.24-.135s.073.058.224.16l.674.447,2.612,1.7,9.676,6.215,32.328,20.635-.052-.2-1.691,3.23-3.314,6.335.183-.074c-6.754-2.282-13.085-4.55-18.8-6.608l-15.069-5.484-10.033-3.681-2.71-.986-.7-.249C310.242,406.041,310.158,406.02,310.158,406.02Z" transform="translate(-310.158 -384.66)" fill="#455a64"/>
              </g>
            </g>
          </g>
        </g>
        <g id="Group_6423" data-name="Group 6423" transform="translate(15.939)">
          <g id="Group_6381" data-name="Group 6381" transform="translate(1.823)">
            <path id="Path_5035" data-name="Path 5035" d="M311.971,243.93c.723-1.957,2.324-2.807,4.351-3.3a6.507,6.507,0,0,1,5.822,1.5c1.029.942,1.783,2.245,3.054,2.821,2.093.949,4.774-.438,6.758.722a2.964,2.964,0,0,1-1.911,5.494,2.629,2.629,0,0,1,.679,3.877,3.95,3.95,0,0,1-4.126,1.089,8.323,8.323,0,0,1-3.681-2.53c-1.025-1.106-1.922-2.333-3.032-3.354a6.471,6.471,0,0,0-4-1.9,5.925,5.925,0,0,0-4.993,3.033,15.173,15.173,0,0,0-1.769,5.818,25.06,25.06,0,0,1-1.3,5.967c-.092.222-.222.467-.457.516-.339.071-.587-.3-.723-.623a29.97,29.97,0,0,1-2.394-11.4c-.024-2.27.23-4.4,1.64-6.175s4.662-2.889,6.086-1.554" transform="translate(-304.243 -240.46)" fill="#263238"/>
          </g>
          <g id="Group_6403" data-name="Group 6403" transform="translate(1.578 2.674)">
            <g id="Group_6402" data-name="Group 6402">
              <g id="Group_6401" data-name="Group 6401">
                <g id="Group_6400" data-name="Group 6400">
                  <g id="Group_6399" data-name="Group 6399">
                    <g id="Group_6398" data-name="Group 6398">
                      <g id="Group_6389" data-name="Group 6389">
                        <g id="Group_6388" data-name="Group 6388">
                          <g id="Group_6387" data-name="Group 6387">
                            <g id="Group_6386" data-name="Group 6386">
                              <g id="Group_6385" data-name="Group 6385">
                                <g id="Group_6384" data-name="Group 6384">
                                  <g id="Group_6383" data-name="Group 6383">
                                    <g id="Group_6382" data-name="Group 6382">
                                      <path id="Path_5036" data-name="Path 5036" d="M306.993,255.078l-3.12,22.678a6.81,6.81,0,0,0,6.152,7.712h0a6.813,6.813,0,0,0,7.341-5.866c.233-1.707.431-3.13.467-3.3,0,0,5.848.251,7.051-5.405.581-2.734,1.32-8.461,1.929-13.651a10.771,10.771,0,0,0-8.592-11.812l-.547-.11C311.7,244.486,307.662,249.088,306.993,255.078Z" transform="translate(-303.808 -245.222)" fill="#ffbe9d"/>
                                    </g>
                                  </g>
                                </g>
                              </g>
                            </g>
                          </g>
                        </g>
                      </g>
                      <g id="Group_6397" data-name="Group 6397" transform="translate(7.077 27.417)">
                        <g id="Group_6396" data-name="Group 6396">
                          <g id="Group_6395" data-name="Group 6395">
                            <g id="Group_6394" data-name="Group 6394">
                              <g id="Group_6393" data-name="Group 6393">
                                <g id="Group_6392" data-name="Group 6392">
                                  <g id="Group_6391" data-name="Group 6391">
                                    <g id="Group_6390" data-name="Group 6390">
                                      <path id="Path_5037" data-name="Path 5037" d="M323.382,297.615a13.448,13.448,0,0,1-6.973-3.578s.932,4.43,6.693,5.05Z" transform="translate(-316.409 -294.037)" fill="#eb996e"/>
                                    </g>
                                  </g>
                                </g>
                              </g>
                            </g>
                          </g>
                        </g>
                      </g>
                    </g>
                  </g>
                </g>
              </g>
            </g>
          </g>
          <g id="Group_6421" data-name="Group 6421" transform="translate(0 16.321)">
            <g id="Group_6411" data-name="Group 6411">
              <g id="Group_6410" data-name="Group 6410">
                <g id="Group_6409" data-name="Group 6409">
                  <g id="Group_6408" data-name="Group 6408">
                    <g id="Group_6407" data-name="Group 6407">
                      <g id="Group_6406" data-name="Group 6406">
                        <g id="Group_6405" data-name="Group 6405">
                          <g id="Group_6404" data-name="Group 6404">
                            <path id="Path_5038" data-name="Path 5038" d="M305.385,270.019c-.088-.061-3.666-1.93-4.316,1.971s3.4,3.75,3.426,3.64S305.385,270.019,305.385,270.019Z" transform="translate(-300.998 -269.519)" fill="#ffbe9d"/>
                          </g>
                        </g>
                      </g>
                    </g>
                  </g>
                </g>
              </g>
            </g>
            <g id="Group_6420" data-name="Group 6420" transform="translate(1.02 1.215)">
              <g id="Group_6419" data-name="Group 6419">
                <g id="Group_6418" data-name="Group 6418">
                  <g id="Group_6417" data-name="Group 6417">
                    <g id="Group_6416" data-name="Group 6416">
                      <g id="Group_6415" data-name="Group 6415">
                        <g id="Group_6414" data-name="Group 6414">
                          <g id="Group_6413" data-name="Group 6413">
                            <g id="Group_6412" data-name="Group 6412">
                              <path id="Path_5039" data-name="Path 5039" d="M304.345,274.9c-.015-.015-.076.037-.2.07a.689.689,0,0,1-.51-.074,1.706,1.706,0,0,1-.526-1.638,2.278,2.278,0,0,1,.353-.942.8.8,0,0,1,.6-.436.351.351,0,0,1,.37.253c.034.118,0,.192.016.2s.095-.051.09-.217a.435.435,0,0,0-.112-.27.519.519,0,0,0-.359-.162.969.969,0,0,0-.811.486,2.338,2.338,0,0,0-.417,1.049,1.789,1.789,0,0,0,.71,1.85.737.737,0,0,0,.639,0C304.323,274.994,304.358,274.911,304.345,274.9Z" transform="translate(-302.814 -271.683)" fill="#eb996e"/>
                            </g>
                          </g>
                        </g>
                      </g>
                    </g>
                  </g>
                </g>
              </g>
            </g>
          </g>
          <g id="Group_6422" data-name="Group 6422" transform="translate(3.936 1.879)">
            <path id="Path_5040" data-name="Path 5040" d="M330.089,255.683a8.353,8.353,0,0,1-6.948-3.092c-1.146-1.446-1.874-3.34-3.5-4.217a4.7,4.7,0,0,0-3.619-.222,9.075,9.075,0,0,0-3.16,1.921c.52,3.1-.859,6.17-2.2,9.013a1.571,1.571,0,0,1-.63.8c-.529.261-1.161-.152-1.477-.65a4.884,4.884,0,0,1-.547-2.737,16.259,16.259,0,0,1,1.294-6.281,11.073,11.073,0,0,1,4.078-4.884,10.492,10.492,0,0,1,7.76-1.285,12.884,12.884,0,0,1,6.8,4.083,7.548,7.548,0,0,1,1.833,3.218" transform="translate(-308.006 -243.806)" fill="#263238"/>
          </g>
        </g>
      </g>
    </g>
    <line id="Line_759" data-name="Line 759" x2="136" transform="translate(698.5 374.5)" fill="none" stroke="#707070" stroke-width="1" opacity="0.5"/>
  </g>
</svg>
