<svg xmlns="http://www.w3.org/2000/svg" width="93" height="24" viewBox="0 0 93 24"><defs><style>.a{fill:#E03249;}</style></defs><g transform="translate(10 -3)"><g transform="translate(-10 3)"><path class="a" d="M186.2,38.074c.3.108.361.34.492.507a9.244,9.244,0,0,0,7.275,3.7,4.6,4.6,0,0,0,4.748-3.82,4.672,4.672,0,0,0-2.909-5.192,4.6,4.6,0,0,0-5.685,2.031c-.067.109-.141.213-.276.415a10.756,10.756,0,0,0-1.483-3.16c-.223-.309.049-.483.232-.668a7.944,7.944,0,0,1,11.728.675,7.569,7.569,0,0,1,.934,8.615,7.654,7.654,0,0,1-7.583,4.422A7.93,7.93,0,0,1,186.2,38.074Z" transform="translate(-173.461 -29.612)"/><path class="a" d="M180.64,41.037a8.316,8.316,0,0,1-4.839-4.7,5.222,5.222,0,0,0-2.078-2.678,4.648,4.648,0,0,0-7.095,3.893c-.04,2.444-.01,4.889-.011,7.333,0,.8-.044.829-.839.622a3.144,3.144,0,0,1-2.449-2.827,36.5,36.5,0,0,1,.089-6.388,7.965,7.965,0,0,1,15.725.024,9.216,9.216,0,0,1,.115,1.258A5.266,5.266,0,0,0,180.64,41.037Z" transform="translate(-163.233 -29.606)"/><path class="a" d="M186.243,49.909a8.893,8.893,0,0,0,2.978,3.706.7.7,0,0,1,.24.652c0,2.6-.012,5.2.006,7.8,0,.5-.153.618-.628.516a3.3,3.3,0,0,1-2.7-3.131c-.032-3.113-.009-6.226-.006-9.338C186.135,50.084,186.168,50.051,186.243,49.909Z" transform="translate(-173.427 -38.62)"/><path class="a" d="M278.967,46.747c0,1.131-.023,2.039.008,2.946.019.572-.039.905-.772.915-.773.01-.739-.391-.737-.924.012-2.943,0-5.886.014-8.829,0-.293-.19-.736.287-.826.348-.066.922-.2,1.041.125.274.744.517.4.918.156a3.306,3.306,0,0,1,4.943,1.789c.878,2.522-.291,5.1-2.531,5.6A3.482,3.482,0,0,1,278.967,46.747Zm-.013-2.916c.017,1.59.879,2.582,2.236,2.574a2.344,2.344,0,0,0,2.23-2.617,2.429,2.429,0,0,0-2.209-2.673C279.881,41.09,278.938,42.226,278.954,43.831Z" transform="translate(-214.09 -34.125)"/><path class="a" d="M311.564,47.811a3.894,3.894,0,0,1-3.822-4.311,3.741,3.741,0,0,1,4.335-3.707,3.576,3.576,0,0,1,2.968,3.741c-.027.618-.346.642-.8.638-1.327-.012-2.657.034-3.983-.017-1.01-.039-1.035.419-.676,1.131a2.217,2.217,0,0,0,3.729.317c.493-.716.985-.628,1.412-.255.468.41-.106.807-.341,1.125A3.446,3.446,0,0,1,311.564,47.811Zm-.175-4.826a3.134,3.134,0,0,0,.737-.01c.427-.107,1.129.349,1.243-.331a1.359,1.359,0,0,0-1.007-1.4,2.124,2.124,0,0,0-2.117.155c-.441.314-.919.755-.775,1.306.15.575.776.185,1.182.27A3.667,3.667,0,0,0,311.388,42.985Z" transform="translate(-227.577 -34.109)"/><path class="a" d="M242.578,44.146c-.622,0-1.245-.012-1.867,0-.985.023-1.142.331-.634,1.207a2.206,2.206,0,0,0,3.662.243c.48-.7.952-.664,1.406-.28.5.424-.084.813-.319,1.119a3.683,3.683,0,0,1-4.927.72,4.236,4.236,0,0,1-1.282-5.338,3.579,3.579,0,0,1,6.852,1.547c.018.6-.177.821-.777.787C243.99,44.115,243.283,44.146,242.578,44.146Zm-.724-1.182a2.212,2.212,0,0,0,.614-.009c.454-.137,1.235.412,1.329-.361a1.429,1.429,0,0,0-1.258-1.466,2.048,2.048,0,0,0-2.074.425c-.327.324-.713.716-.566,1.162.163.494.717.185,1.094.241A5.854,5.854,0,0,0,241.854,42.964Z" transform="translate(-196.603 -34.089)"/><path class="a" d="M297.163,44.146c-.622,0-1.246.04-1.864-.008-1.159-.091-1.029.5-.646,1.194a2.2,2.2,0,0,0,3.652.28c.477-.682.935-.7,1.407-.3.574.475-.083.867-.327,1.18a3.689,3.689,0,0,1-5.033.57,4.325,4.325,0,0,1-.955-5.605,3.642,3.642,0,0,1,4.093-1.624,3.56,3.56,0,0,1,2.555,3.313c.054.7-.046,1.111-.9,1.019A18.209,18.209,0,0,0,297.163,44.146Zm-.707-1.182a2.282,2.282,0,0,0,.617-.009c.459-.135,1.269.4,1.334-.352a1.49,1.49,0,0,0-1.276-1.478,2.133,2.133,0,0,0-1.992.351c-.387.334-.8.781-.66,1.255s.726.175,1.112.226A6.709,6.709,0,0,0,296.455,42.964Z" transform="translate(-220.915 -34.089)"/><path class="a" d="M259.725,44.682c0,.707.012,1.414-.006,2.12-.007.252.217.652-.235.7-.381.044-1.01.252-1.118-.151-.211-.791-.435-.39-.777-.161a2.868,2.868,0,0,1-2.946.325,2.146,2.146,0,0,1-1.368-2.166,1.986,1.986,0,0,1,1.491-1.93c.782-.25,1.621-.313,2.428-.488.419-.091,1-.052.967-.718a1.132,1.132,0,0,0-.838-1.123c-.884-.221-1.833-.275-2.243.739-.355.88-.978.6-1.381.353-.536-.324-.068-.823.149-1.175a3.455,3.455,0,0,1,3.784-1.2,2.612,2.612,0,0,1,2.058,2.627c.046.745.008,1.5.008,2.244Zm-3.9,1.815a2.068,2.068,0,0,0,2.357-1.939c.027-.48-.152-.576-.561-.532-2,.216-2.842.406-2.816,1.376A1.04,1.04,0,0,0,255.825,46.5Z" transform="translate(-203.327 -34.081)"/><path class="a" d="M224.329,43.663c0-.954-.011-1.909.006-2.862,0-.3-.159-.739.322-.813.346-.054.9-.224,1.029.13.3.787.552.249.851.073,2-1.182,4.046-.23,4.265,2.084.144,1.522.037,3.067.082,4.6.017.588-.262.657-.752.681-.607.03-.782-.189-.763-.778.038-1.2.034-2.407,0-3.609-.039-1.442-.6-2.108-1.721-2.113-1.092-.005-1.73.683-1.8,2.085-.06,1.2-.043,2.406-.016,3.608.013.555-.1.824-.738.812-.593-.011-.8-.188-.777-.786C224.358,45.739,224.329,44.7,224.329,43.663Z" transform="translate(-190.431 -34.08)"/><path class="a" d="M269.092,40.905a3.077,3.077,0,0,1,1.542-.971c.409-.056,1.051-.441,1.136.426.058.595.106,1.076-.815,1.121-1.348.066-1.841.7-1.894,2.106-.041,1.075-.044,2.152-.011,3.227.018.58-.15.795-.761.8s-.766-.2-.757-.781c.032-1.9-.009-3.807.03-5.71.007-.374-.346-.967.389-1.106C268.595,39.895,269.091,40.029,269.092,40.905Z" transform="translate(-209.655 -34.133)"/><path class="a" d="M323.236,43.826c0-.994-.012-1.987.007-2.981.006-.293-.17-.762.34-.773.388-.008.985-.325,1.116.376.095.508.237.409.509.142a2.4,2.4,0,0,1,1.423-.684c.424-.051.872-.1.835.554-.026.455.188.946-.637,1.047-1.717.209-2.053.673-2.08,2.439-.015.994-.039,1.989.008,2.98.033.677-.325.7-.837.716-.549.019-.713-.176-.7-.711C323.261,45.9,323.237,44.861,323.236,43.826Z" transform="translate(-234.474 -34.167)"/></g></g></svg>