<svg xmlns="http://www.w3.org/2000/svg" xmlns:xlink="http://www.w3.org/1999/xlink" width="800.676" height="429.405" viewBox="0 0 800.676 429.405"><defs><style>.a{fill:#f97046;}.b{fill:#ff9750;}.c{fill:#ffaf66;}.ak,.d{fill:#ffd961;}.e{fill:#ff9c39;}.f{fill:#ffbf4d;}.g{fill:#c9755b;}.h{fill:#dbac6e;}.i{fill:#e69917;}.j{fill:#1b1c20;}.k{fill:#c3c5c8;}.l{fill:#98989c;}.m{fill:#edeeef;}.n{fill:#feb329;}.o{fill:#fac657;}.p{fill:#fff;}.q{fill:#c16546;}.r{fill:#c9ac8f;}.s{fill:#d17343;}.t{fill:#e94f0a;}.u{fill:#d8bc98;}.v{fill:#e2c59a;}.w{fill:#e8cca7;}.x{fill:#39373a;}.y{fill:#fcb681;}.z{fill:#683b22;}.aa{fill:#f7a872;}.ab{fill:#d8dadc;}.ac{fill:#c4001d;}.ad{fill:#4a7edc;}.ae{fill:#ff7d5e;}.af{fill:#5169d5;}.ag{fill:#586838;}.ah{fill:#8cc8dd;}.ai{fill:#f7af2c;}.aj{fill:#ffaf45;}.ak{stroke:rgba(0,0,0,0);stroke-miterlimit:10;}.al,.am,.an{fill:#5b382e;font-family:BungeeInline-Regular, Bungee Inline;}.al{font-size:25px;}.am{font-size:37.797px;}.an{font-size:89.797px;}.ao{fill:#faab49;}.ap{fill:#db4137;}.aq{filter:url(#c);}.ar{filter:url(#a);}</style><filter id="a" x="262.706" y="254.826" width="38.058" height="43.304" filterUnits="userSpaceOnUse"><feOffset dy="3" input="SourceAlpha"/><feGaussianBlur stdDeviation="3" result="b"/><feFlood flood-opacity="0.231"/><feComposite operator="in" in2="b"/><feComposite in="SourceGraphic"/></filter><filter id="c" x="338.957" y="297.173" width="433.182" height="75.349" filterUnits="userSpaceOnUse"><feOffset dy="3" input="SourceAlpha"/><feGaussianBlur stdDeviation="3" result="d"/><feFlood flood-opacity="0.161"/><feComposite operator="in" in2="d"/><feComposite in="SourceGraphic"/></filter></defs><g transform="translate(-0.936 -230.958)"><path class="a" d="M552.817,458.275c0-1.193-2.241-123.586-2.241-123.586l21.849-5.646,33.536,5.354,12.964,59.2,7.283-1.086,2.241-22.757,30.814,1.153,5.042,14.91,6.162.151L687.275,451.7Z"/><path class="a" d="M212.19,459.946l2.8-46.64,34.735-.42L253.648,420l22.97,2.474,7.843-13.4,42.018-10.889L336,400.226l6.163,23.5,19.048.692,10.645-31.929,15.126-8.844,3.361,9.074,5.042-.2,2.241-13.66,8.964-.358,8.964-19.745L469.9,343.484l8.964,3.531-.56-39.235,47.06-8.668,24.651,7.253L560.9,477.6Z"/><path class="a" d="M328.278,444.082l39.623,6.832,103.385-33.247L495.134,304.68l-16.829,3.1.56,39.235-8.964-3.531-54.343,15.272L406.594,378.5l-8.964.359-2.241,13.66-5.042.2-3.361-9.074-15.126,8.844L361.214,424.42l-19.048-.692L336,400.226l-8.547-1.833Z"/><path class="b" d="M327.85,398.478l5.012,29.082h2.851L336,400.226l8.26,23.216,16.951.978.469,44.313-135.557-3.484-8.235-51.309,31.835-1.054,6.488,23.225,23.675-2.138,4.83-25.734Z"/><path class="c" d="M249.727,412.886l-31.836,1.054,2.476,15.425a195.579,195.579,0,0,0,35.84,6.719Z"/><path class="c" d="M361.214,424.42l-16.95-.978L336,400.226l-.292,27.333h-2.85l-5.012-29.081-43.13,9.761-4.83,25.734L256.347,436.1a316.947,316.947,0,0,0,32.308,1.607c29.514,0,55.762-3.823,72.6-9.76Z"/><path class="b" d="M525.365,299.112l-1.121,71.228-3.922-.638-3.411-69.033-33.71,6.069,6.028,66.991-16.247,4.825L469.9,343.484l-54.343,15.272-.735,46.475L394.189,417.45l-7.2-33.8-15.126,8.844-7.325,84.794,302.572-33.523-10.181-72.945-27.308-1.022,1.634,41.4-18.908-3.121-10.277-74.235-27.4-4.09-1.12,46.175-10.084-19.082-12.626.1-5.85-53.47Z"/><path class="c" d="M498.554,387.965a544.6,544.6,0,0,0,52.087-32.8l-5.656-51.691-19.62-4.362-1.12,71.228-3.922-.639-3.411-69.032-33.71,6.069,6.028,66.991-16.247,4.825-3.082-35.07L418,357.321l-3.176,47.91L394.189,417.45l-7.2-33.8-15.127,8.844-3.833,44.376C401.559,432.569,449.256,415.348,498.554,387.965Z"/><path class="c" d="M574.666,329.749l-.172,7.1q3.67-3.042,7.121-6.059Z"/><path class="d" d="M549.5,451.313c-146.326,20.9-548.564.951-548.564.951v72.212l800.676,2.851V417.107S695.826,430.41,549.5,451.313Z"/><path class="d" d="M273.45,473.686c-9.853,0-10.642,13.833-10.642,20.988l20.495,1.67C283.3,490.142,283.3,473.686,273.45,473.686Z"/><path class="e" d="M219.719,490.708c13.726,2.561,35.976,4.226,61.067,4.224,31.114,0,57.77-2.567,69.173-6.224C317.752,490.08,276.1,491.19,219.719,490.708Z"/><path class="f" d="M471.2,481.248l-238.152,14.02s201.907,8.468,213.168,6.9C457.122,500.655,471.2,481.248,471.2,481.248Z"/><path class="d" d="M600.175,483.25l170.335,6.134S624.1,499.749,616.136,498.769C608.419,497.82,600.175,483.25,600.175,483.25Z"/><path class="f" d="M.936,481.4l18.6,52.576L801.612,622.53V485.836C693.615,489.637,509.6,507.057.936,481.4Z"/><path class="g" d="M278.833,497.327l.94-12.028,18.445-2.391,23.3.8,2.776,12.6Z"/><path class="d" d="M21.172,482.407c77.568,18.552,238.479,31.3,424.443,31.3,24.969,0,276.341-7.285,356-27.872C695.06,489.586,514.5,506.591,21.172,482.407Z"/><path class="e" d="M801.612,506.423V622.53H.936V481.4S111.543,535.879,464.9,535.879C729.179,535.879,801.612,506.423,801.612,506.423Z"/><path class="h" d="M400.638,460.159"/><path class="h" d="M405.133,470.772"/><path class="b" d="M428.816,434.347,418,357.321l-2.441,1.435L411.4,438.617Z"/><path class="c" d="M397.732,378.5l5.693,35.353,5.067-3.416-.967-33.987Z"/><path class="b" d="M394.231,418.207l-3.074-15.286,6.234,2.306,3.324,8.358Z"/><path class="a" d="M284.72,408.239l-5.63,42.674-2.277-17.079-.195-11.362Z"/><path class="e" d="M426.82,494.942c28.221,4.08,74.062,6.456,125.826,5.929,64.19-.652,119.28-5.581,142.944-12.052C629.092,491.828,543.121,494.59,426.82,494.942Z"/><g transform="translate(0 68)"><rect class="i" width="4.538" height="5.052" transform="translate(78.491 522.363)"/><path class="j" d="M132.133,483.873l14.878,2.713a1.958,1.958,0,0,0,2.278-1.575l.036-.2a1.959,1.959,0,0,0-1.576-2.278l-14.878-2.714Z"/><rect class="k" width="2.679" height="8.884" transform="translate(92.939 545.76) rotate(-2.633)"/><rect class="k" width="8.884" height="2.679" transform="translate(99.197 556.601) rotate(-20.633)"/><rect class="k" width="2.679" height="8.884" transform="translate(97.041 564.445) rotate(-38.633)"/><rect class="k" width="8.884" height="2.679" transform="translate(86.121 570.565) rotate(-56.634)"/><rect class="k" width="2.679" height="8.884" transform="translate(81.102 557.235) rotate(-74.633)"/><circle class="k" cx="7.729" cy="7.729" r="7.729" transform="translate(85.345 554.54) rotate(-16.223)"/><path class="j" d="M69.919,559.724a24.863,24.863,0,1,0,24.863-24.863A24.864,24.864,0,0,0,69.919,559.724Zm12.254,0a12.609,12.609,0,1,1,12.609,12.609A12.609,12.609,0,0,1,82.173,559.724Z"/><path class="l" d="M79.9,559.724a14.885,14.885,0,1,0,14.885-14.886A14.885,14.885,0,0,0,79.9,559.724Zm2.42,0a12.465,12.465,0,1,1,12.465,12.465A12.465,12.465,0,0,1,82.317,559.724Z"/><path class="m" d="M93.831,560.163l.43.253a1.562,1.562,0,0,0,2.139-.554l9.837-16.724-3.124-1.838-9.837,16.724A1.562,1.562,0,0,0,93.831,560.163Z"/><rect class="n" width="67.437" height="5.383" transform="translate(98.268 547.86) rotate(-59.535)"/><path class="o" d="M105.551,519.194c18.446,0,22.345,22.654,22.345,36.62l-.219.22h-6.919a4.675,4.675,0,0,1-4.622-3.779c-1.727-9.451-9.715-15.137-19.6-15.137H71.222v-2.734C74.176,529.191,84.594,519.194,105.551,519.194Z"/><path class="p" d="M118.287,550.247c.423,2.312,2.493,3.161,4.844,3.161h4.726q.03,1.2.039,2.406l-.219.22h-6.919a4.675,4.675,0,0,1-4.622-3.779c-1.727-9.451-9.715-15.137-19.6-15.137H71.222v-2.734H97.75C108.106,534.384,116.477,540.343,118.287,550.247Z"/><rect class="i" width="10.881" height="14.582" transform="translate(102.685 488.863)"/><path class="j" d="M101.913,504.247h-.88a2.125,2.125,0,0,1-2.125-2.125V490.185a2.124,2.124,0,0,1,2.125-2.125h.88a.772.772,0,0,1,.772.772v14.643A.772.772,0,0,1,101.913,504.247Z"/><path class="j" d="M249.513,513.9h49.3V502.578h-49.3a4.449,4.449,0,0,0-4.449,4.449v2.424A4.449,4.449,0,0,0,249.513,513.9Z"/><path class="j" d="M297.481,456.076,286.07,508.168l11.059,2.423L308.541,458.5a4.45,4.45,0,0,0-3.394-5.3l-2.368-.519A4.449,4.449,0,0,0,297.481,456.076Z"/><path class="j" d="M145.69,564.645h29.826a46.983,46.983,0,0,0,12.911-1.808l10.646-3.042V549.711H132.684v1.929A13.006,13.006,0,0,0,145.69,564.645Z"/><path class="j" d="M266.375,559.611H140.621a2.4,2.4,0,0,1-2.4-2.4v-.954H266.375Z"/><path d="M280.259,564.439a.928.928,0,1,0,0-1.856H264.268c-.194-.01-23.951-1.188-36.454-4.919a.928.928,0,1,0-.531,1.779c12.721,3.8,35.958,4.948,36.941,4.995Z"/><path d="M280.259,566.581a.928.928,0,1,0,0-1.857H264.268a263.26,263.26,0,0,1-27.918-2.98.928.928,0,0,0-.325,1.828,264.551,264.551,0,0,0,28.2,3.007Z"/><rect width="4.796" height="1.586" transform="translate(239.005 564.541) rotate(-82.942)"/><path d="M260.152,563.581h15.991c1.027-.049,24.264-1.2,36.985-5a.928.928,0,1,0-.53-1.779c-12.507,3.732-36.261,4.909-36.5,4.92H260.152a.928.928,0,1,0,0,1.857Z"/><rect width="3.08" height="3.701" transform="translate(309.409 556.319)"/><path class="i" d="M132.652,529.646H138.3a17.22,17.22,0,0,1,10.006,3.016l17.986,13.05v7.911H132.652Z"/><rect class="i" width="31.054" height="34.4" transform="translate(166.072 516.149)"/><rect class="j" width="31.054" height="2.493" transform="translate(166.072 524.57)"/><rect class="i" width="46.186" height="8.219" transform="translate(197.158 542.417)"/><path class="j" d="M191.071,509.063l3.963-28.912a3.589,3.589,0,0,1,3.555-3.1h2.1a3.864,3.864,0,0,1,3.828,4.388l-5.365,39.131H161.193a2.014,2.014,0,0,1-2.014-2.014v-4.94A1.618,1.618,0,0,1,160.8,512h26.91A3.4,3.4,0,0,0,191.071,509.063Z"/><path class="q" d="M138.964,486.4c-3.861-.449-5.753.246-5.094-4.554.288-2.091,1.087-2.781,2.314-3.14a20.762,20.762,0,0,1,7.356-.987c6.681.755,15.447.161,27.02.916a4.358,4.358,0,0,0,2.955-2.351,71.635,71.635,0,0,1,10.5-21.608l9.577,4c-4.486,13.3-12.357,19.408-17.462,27.461-.329.518-3.814,2.016-13.175.45-14.35-2.4-14.729-4.293-19.391-4.9-2.747.763-3.158-.112-3.686.182-.829.462-.892,1.868-.893,1.973-.011,1.232,1.5,1.269,1.513,1.277S141.063,486.647,138.964,486.4Z"/><path class="r" d="M173.481,475.244s8.8,4.854,10.821,6.241a110.605,110.605,0,0,0,9.077-19.157c1.038-3.9.516-7.8-2.8-9.275a6.666,6.666,0,0,0-7.535,1.82C182.3,456.087,175.49,467.009,173.481,475.244Z"/><path class="s" d="M194.817,436.585c.218-1.89-.856-3.9-2.634-3.622a2.422,2.422,0,0,0-1.13.519,6.708,6.708,0,0,0-3.673-4c-2.958-1.128-8.63.589-8.63.589s-1.393,3.521-1.266,4.374,1.347.845.842,2.141a19.993,19.993,0,0,1-2.246,3.512c-.687.905-.556,1.574-.186,1.883a2.063,2.063,0,0,0,1.379.282c.925.935-.265,1.373.491,2.253a1.291,1.291,0,0,1,.147,1.529c-.265.562-.837,3.359,3.529,3.3a10.423,10.423,0,0,0,2.959-.49l1.308,6.073,10.359-1.544-2.891-13.428A4.812,4.812,0,0,0,194.817,436.585Z"/><path class="j" d="M177.731,442.254a10.121,10.121,0,0,1,1.468-.019,3.21,3.21,0,0,1,2.4.858c1.6,2.021,2.936,3.623,1.3,4.175-.521.176-.61-.381-.858-1.163-.807-2.544-1.36-1.784-2.713-1.962a11.73,11.73,0,0,0-1.615-.133s-.933.208-.857-1.165C176.887,442.242,177.731,442.254,177.731,442.254Z"/><path class="t" d="M179.326,444.143a11.73,11.73,0,0,0-1.615-.133s-.155,0-.218,0a1.575,1.575,0,0,0,.249.616c.225.321.467.328,1.238.234a2.9,2.9,0,0,0,1.413-.7A4.787,4.787,0,0,1,179.326,444.143Z"/><path class="j" d="M177.072,434.047a1.152,1.152,0,0,0,.192,1c.239.284,1.776-.392,2.36-.637a7.445,7.445,0,0,1,3.832-.044c.693.137.328-.391-.756-.586a13.672,13.672,0,0,0-3.432-.231A7.69,7.69,0,0,0,177.072,434.047Z"/><path class="j" d="M184.681,428.853a16.79,16.79,0,0,0,.68,1.98c.272.536,1.729,1.324,2.161,3.329a14.564,14.564,0,0,1-.733,5.129c-.505,1.881-.041,3.635.472,3.484,1.319-.388,2.376-.922,2.529-1.618a17.275,17.275,0,0,0-.043-3.292c.079-2.478,1.01-3.608,1.456-3.932.873-.635,2.214-1.032,2.968.251,1.336,2.274-1.42,5.825-1.367,7.1a48.451,48.451,0,0,0,.5,5.766.663.663,0,0,0,.692.389c1.116-.145,3.716-.657,3.207-2.228-1.78-5.489,1.473-11.205-2.336-15.024C193.065,428.372,185.359,427.6,184.681,428.853Z"/><path class="j" d="M182.2,422.307a6.062,6.062,0,0,0-4.293,5.247c-.181,1.987.348,2.537.742,2.7,1.378.583,3.846.735,6.708.576,1.06,1.325,6.544,1.179,7.2,1.263,1.458.187,2.327,1.625,2.63,4.627.135,1.343-1.281,7.637-.933,8.227.3.515.64,2.472,2.311,1.737,1.325-.583.265-2.968,2.005-9.808,2.091-8.223-.823-13.281-6.351-14.731S183.4,421.848,182.2,422.307Z"/><path class="s" d="M166.643,514l-1.6-16.217s9.324-.807,9.5-1.793c3.985-17.933-.045-18.815,4.249-32.413,2.165-6.854,3.468-7.072,9.721-13.445,3.331-3.4,11.842,1.3,11.377,10.991-.628,13.075-5.542,34.2-6.23,40.691-1.09,10.281-6.7,10.113-11.909,11.292C176.853,514.214,167.234,514.128,166.643,514Z"/><path class="s" d="M135.817,553.024c-4.859-.18-6.627-1.554-6.478-2.969.18-1.71,4.319-.99,10.707-3.329,1.557-.571,4.138-1.08,6.3-1.62-2.085-12.785-7.4-18.545-10.5-33.164-.516-2.431-.427-7.521,1.769-8.872a24.983,24.983,0,0,1,6.366-3.138c4.742-1.546,11.028-2.421,34.789-3.228l-.048,16.872c-8.011.324-23.137.7-30.915-.637,4.652,7.642.665,11.3,5.946,29.365,1.3,4.457,1.592,5.142,1.142,8.291-.5,3.533-3.149,2.429-8.457,1.979C140.108,552.038,140.675,553.2,135.817,553.024Z"/><path class="u" d="M186.456,513.6c6.582-.7,7.2-8.2,7.2-8.2l-14.888-8.7c-24.03.628-30.021,1.16-34.7,2.69-2.359.771-3.906,1.8-6.785,3.577-2.2,1.351-1.956,6.54-1.44,8.971,2.962,13.963,7.045,21.143,9.3,32.783,2.769-.554,8.86.664,11.408,2.658-2.1-8.307-4.538-25.168-7.2-33.807C158.02,514.7,177.861,514.521,186.456,513.6Z"/><path class="v" d="M195.713,450.074a9.73,9.73,0,0,0-4.545.718,34.335,34.335,0,0,1-6.22,1.914,24.448,24.448,0,0,0-7.62,11.128c-2.6,7.888-1.231,11.962-5.825,27.132-.262.865-.717,4.842-1.7,6.1,4.421-.26,12.821,2.6,19.187,6.724a19.359,19.359,0,0,1,4.842,4.573,21.74,21.74,0,0,0,1.044-6.5c-.365-10.205,4.638-27.711,5.266-40.785C200.389,455.871,198.452,451.916,195.713,450.074Z"/><path class="s" d="M142.521,487.3c-3.88-.448-5.742.247-5.294-4.553.2-2.091.965-2.781,2.176-3.14a20.427,20.427,0,0,1,7.313-.987c6.714.755,15.454.161,27.06.916a4.1,4.1,0,0,0,2.851-2.351,68.018,68.018,0,0,1,9.554-21.608l9.753,4c-6.078,20.787-11.028,20.859-15.475,27.386-.34.5-4.506,2.091-13.936.525-14.455-2.4-14.918-4.293-19.606-4.9-2.714.763-3.162-.112-3.678.182-.809.462-.809,1.868-.806,1.973.043,1.232,1.559,1.269,1.568,1.277S144.631,487.546,142.521,487.3Z"/><path class="w" d="M176.548,476.143s9.015,4.854,11.1,6.241a105.234,105.234,0,0,0,8.235-19.157c.867-3.9.173-7.8-3.207-9.275a6.469,6.469,0,0,0-7.455,1.82C184.522,456.986,178.2,467.908,176.548,476.143Z"/><path class="x" d="M144.123,545.027a4.7,4.7,0,0,0,4.143,2.909,38.869,38.869,0,0,0,7.315,0,26.519,26.519,0,0,1-.44,4.054,11.988,11.988,0,0,0-.088,1.587s-2.733.264-6.17.264c-2.558,0-4.583-.44-7.844-.088s-10.4-.793-11.37-.969-.956-1.136-.875-1.626c.434-.4.081-1.636.522-1.988s4.231-.97,7.316-1.939A71.517,71.517,0,0,1,144.123,545.027Z"/><path class="u" d="M196.519,451.066a16.694,16.694,0,0,0-.87-3.5,26.7,26.7,0,0,0-5.134.628,29.858,29.858,0,0,0-5.22,1.793,26.814,26.814,0,0,0-.522,4.394,13.452,13.452,0,0,1,5.829-3.138C193.268,450.543,195.475,450.528,196.519,451.066Z"/><path class="p" d="M276.455,438.76a3.545,3.545,0,0,0,1.193-.2,1.635,1.635,0,0,0,.9-.775c-1.283-.1-3.659-.055-3.659-.055l-.144.906A14.166,14.166,0,0,0,276.455,438.76Z"/><g class="ar" transform="matrix(1, 0, 0, 1, 0.94, 162.96)"><path class="y" d="M291.816,430.749a2.694,2.694,0,0,0-2.919-3.178,2.378,2.378,0,0,0-1.107.508,6.577,6.577,0,0,0-3.6-3.919c-2.9-1.105-8.455.577-8.455.577s-1.364,3.449-1.24,4.285.995,1.28.548,2.124c-.637,1.2-1.923,3.414-1.923,3.414-.673.886-.545,1.542-.182,1.845a2.7,2.7,0,0,0,1.535.273c.325.264.133,1.455.133,1.455a13.9,13.9,0,0,0,3.652-.078c-.436,1.569-3.276,1.7-3.276,1.7s-.2,3.263,2.914,3.325c.976.02,2.16.015,3.275.1l1.379,5.91,10.148-1.513-2-10.376C290.973,435.14,291.639,432.283,291.816,430.749Z" transform="translate(-0.94 -162.96)"/></g><path class="z" d="M274.434,428.249a.8.8,0,0,0-.006.765c.142.267,1.005.052,1.521.047a5.635,5.635,0,0,1,1.922.132c.549.165.572-.345-.286-.626a5.983,5.983,0,0,0-1.736-.4A3.165,3.165,0,0,0,274.434,428.249Z"/><path d="M288.875,417.89c-5.4-1.417-8.922-.49-10.1-.04a5.992,5.992,0,0,0-3.862,4.422c-.14,1.95.32,2.623.686,2.826,1.425.788,3.809.542,6.612.387a20.486,20.486,0,0,1,1.962,2.957,27.979,27.979,0,0,1,.3,3.6c.074.844,1.4.744,1.427.334.166-2.422.5-3.252.94-3.57a1.645,1.645,0,0,1,2.565,1.262c.122,2.443,0,4.479.936,6.841.048.12.53.489.611-.407a12.475,12.475,0,0,1,.57-1.751c.367-.937,1.3-1.669,1.995-3.217C296.7,424.4,294.291,419.311,288.875,417.89Z"/><path class="aa" d="M263.528,507.451l-1.6-16.217s9.325-.807,9.5-1.793c3.985-17.933-.044-18.815,4.25-32.414,2.164-6.853,3.051-7.508,9.72-13.444,3.276-2.915,11.555,2.1,11.09,11.784-.628,13.075-5.254,33.411-5.942,39.9-1.091,10.281-6.388,11.008-11.6,12.187C274.051,508.562,264.119,507.582,263.528,507.451Z"/><path class="aa" d="M221.328,546.485c-4.765-.176-6.692-1.516-6.754-2.9-.076-1.668,4.067-.966,9.955-3.247a40.2,40.2,0,0,1,4.4-1.206,2.243,2.243,0,0,0,1.732-1.9c1.605-11.689.516-22.455,1.676-31.547.3-2.336-.414-6.607,1.529-7.925,2.549-1.729,16.151-5.422,39.208-6.21l2.554,16.739c-7.653.926-22.9,1.6-30.711-.78,1.337,11.311-3.724,14.6-5.159,28.1a51.749,51.749,0,0,0-.179,8.511c.026,3.447-2.715,2.37-7.959,1.931C225.369,545.523,226.094,546.66,221.328,546.485Z"/><path class="ab" d="M230.968,536.424c.624.444-.451,3.009,2.662,3.679,5.075,1.092,6.173-1.658,6.143.283.072,1.173.718,2.1.673,4.586-.006.351.116,1.548.116,1.548s-2.632.258-5.985.258c-2.494,0-4.526-.43-7.662-.086s-10.31-.514-11.278-.685a1.988,1.988,0,0,1-1.409-1.82c.086-.89-.1-1.658,1.04-2.264.46-.246,3.575-.788,6.52-1.593C227.942,538.648,230.344,535.979,230.968,536.424Z"/><path class="y" d="M214.128,546.478c-4.859-.18-6.627-1.555-6.478-2.97.18-1.709,4.319-.989,10.707-3.329a46.343,46.343,0,0,1,4.7-1.236,2.812,2.812,0,0,0,2.07-1.951c3.448-11.984,3.992-23.022,6.584-32.343.666-2.395.6-6.774,2.79-8.125,2.88-1.772,17.4-5.559,41.155-6.366L275.6,507.88c-7.989.949-23.723,1.637-31.365-.8-.374,11.6-5.986,14.4-9.539,28.243a55.2,55.2,0,0,0-1.5,8.725c-.5,3.534-3.149,2.43-8.457,1.98C218.419,545.492,218.987,546.658,214.128,546.478Z"/><path class="ac" d="M283.341,507.057a10.673,10.673,0,0,0,7.2-8.2l-14.889-8.7c-24.029.628-28.234,2.333-34.219,3.455a19.044,19.044,0,0,0-7.265,2.812c-2.2,1.351-8.06,30.826-8.621,35.5,1.683,2.708,9.954,4.757,14.42,5.123,1.683-3.513,5.61-26.855,7.879-28.392C258.9,510.2,274.782,509.76,283.341,507.057Z"/><path class="ad" d="M292.706,444.459c-.774-.7-3.806-.849-4.952-.542-3.172.851-4.106,1.793-5.921,2.242a29.813,29.813,0,0,0-7.927,12.38c-2.6,7.889-.923,10.711-5.517,25.88-.262.865-.718,4.842-1.7,6.1,4.421-.261,12.822,2.6,19.188,6.724a19.325,19.325,0,0,1,4.841,4.573,21.715,21.715,0,0,0,1.044-6.5c-.364-10.2,4.638-27.71,5.266-40.784C297.275,449.324,293.479,445.155,292.706,444.459Z"/><path class="m" d="M225.352,536.163c.58.456-.864,3.085,2.238,3.772,5.058,1.119,6.55-1.7,6.26.29-.083,1.2.456,2.156.078,4.7-.053.359-.088,1.586-.088,1.586s-2.732.265-6.169.265c-2.558,0-4.584-.441-7.845-.088s-10.5-.527-11.47-.7a1.742,1.742,0,0,1-1.2-1.865c.207-.912.124-1.7,1.368-2.322.5-.252,3.771-.807,6.9-1.633C221.953,538.443,224.772,535.707,225.352,536.163Z"/><path class="ae" d="M278.26,438.055c-.436,1.569-3.276,1.7-3.276,1.7a4.1,4.1,0,0,0,.033.636c2.7-.4,3.194-1.952,3.395-2.5-2.572.291-3.1-.365-3.766-.092-.017.194-.038.334-.038.334A13.9,13.9,0,0,0,278.26,438.055Z"/><path class="m" d="M199.073,443.505h2.305a3.765,3.765,0,0,0,3.52-2.4l7.6-19.234-2.122-.838-7.6,19.234a1.494,1.494,0,0,1-1.4.952h-2.305Z"/><rect class="m" width="3.83" height="126.117" transform="translate(195.243 419.471)"/><rect class="m" width="2.458" height="19.554" transform="translate(258.01 484.776)"/><rect class="m" width="29.448" height="1.871" transform="translate(249.106 489.095)"/><path class="m" d="M249.6,496.977h18.378V494.5H249.6a.412.412,0,0,1-.412-.412v-4.007a5.545,5.545,0,0,1,1.421-4.226,4.187,4.187,0,0,1,2.833-1.019l.095,0h40.705v-2.475H253.573a6.7,6.7,0,0,0-4.643,1.674,7.868,7.868,0,0,0-2.215,6.043v4.007A2.891,2.891,0,0,0,249.6,496.977Z"/><path class="y" d="M246.242,493.961c-2.829,0-3.076-3.436-3.676-8.22-.262-2.083.34-2.924,1.445-3.536a20.421,20.421,0,0,1,6.926-2.546c6.718-.715,15.123-3.186,26.617-4.96a4.1,4.1,0,0,0,2.275-2.912,68.029,68.029,0,0,1,4.653-23.164l10.388,1.8c-1.438,21.609-6.255,22.75-9.184,30.086-.224.559-3.947,3.015-13.492,3.526-14.632.784-15.518-.773-20.226-.35-2.439,1.639-3.2,1.708-3.543,1.777a9.385,9.385,0,0,0-1.079,2.431,12.274,12.274,0,0,0-.069,3.795S247.277,493.961,246.242,493.961Z"/><path class="af" d="M279.526,470.785s9.851,2.788,12.183,3.692a105.371,105.371,0,0,0,3.895-20.485c0-4-1.519-7.654-5.138-8.361a6.47,6.47,0,0,0-6.885,3.39C283.167,450.356,279.352,462.388,279.526,470.785Z"/><path class="n" d="M287.645,486.618a27.519,27.519,0,0,0-15.914,5.069l-13.782,9.771a26.09,26.09,0,0,0-10.321,15.368l-3.874,16.649A15.565,15.565,0,0,1,228.6,545.51h-16.89a8.329,8.329,0,0,1-8.329-8.329V510.5a1.946,1.946,0,0,0-1.946-1.946h-8.546a1.946,1.946,0,0,0-1.946,1.946v26.681a8.329,8.329,0,0,1-8.329,8.329H158.665A15.563,15.563,0,0,1,143.3,532.443l-5.924-36.458a26.335,26.335,0,0,1-.02-8.326l.164-1.041H104.747c-.043.13-.1.3-.139.442a23.977,23.977,0,0,0,.474,15.364l16.07,42.988a16.692,16.692,0,0,0,15.636,10.848H312.937a7.292,7.292,0,0,0,5.62-2.647l2.32-2.808a19.1,19.1,0,0,0,4.374-12.163V486.618Z"/><path class="n" d="M105.141,485.5q.169-.447.356-.889C105.372,484.9,105.255,485.2,105.141,485.5Z"/><path class="ag" d="M137.523,486.618l9.651-61.228h-7.743l-1.524,2.642h.228a1.992,1.992,0,0,1,1.912,2.549L125.964,478.9a5.044,5.044,0,0,1-4.843,3.633H106.5a24.062,24.062,0,0,0-1.751,4.088Z"/><circle class="j" cx="24.863" cy="24.863" r="24.863" transform="translate(245.99 573.578) rotate(-67.805)"/><circle class="l" cx="15.057" cy="15.057" r="15.057" transform="translate(261.12 547.51) rotate(-9.255)"/><circle class="k" cx="12.045" cy="12.045" r="12.045" transform="translate(262.793 566.768) rotate(-68.593)"/><path class="m" d="M270.1,559.95a8.3,8.3,0,1,0,8.3-8.3A8.3,8.3,0,0,0,270.1,559.95Z"/><path class="o" d="M278.4,523.752c18.218,0,33,13.206,33.113,32.288l-.218.22h-8.439a4.673,4.673,0,0,1-4.622-3.775c-1.726-9.453-9.95-15.141-19.834-15.141s-18.108,5.688-19.835,15.141a4.671,4.671,0,0,1-4.621,3.775h-8.659C245.288,537.06,260.114,523.752,278.4,523.752Z"/><path class="m" d="M163.063,556.26H238.45v-.539a3.547,3.547,0,0,0-3.547-3.547h-71.84c-11.482,0-17.063-6.111-19.263-17.454-.939-4.839-6.659-44.1-6.722-44.475h-.366a1.929,1.929,0,0,0-1.923,2.082c.645,8.122,4.172,39.162,5,43.454C142.5,549.753,148.9,556.26,163.063,556.26Z"/><path class="m" d="M323.5,544.893h2.546a3.151,3.151,0,0,0,3.151-3.151v-7.39a3.15,3.15,0,0,0-3.151-3.15H323.5Z"/><path class="ah" d="M122.268,482.53H106.5l-.009-.016,31.418-54.482h1.376a1.991,1.991,0,0,1,1.911,2.549L127.112,478.9A5.045,5.045,0,0,1,122.268,482.53Z"/><path class="j" d="M105.257,485.177H137.75l-.391,2.482c-.021.134-.036.267-.055.4H104.315A23.958,23.958,0,0,1,105.257,485.177Z"/><path class="ag" d="M294.141,495.474h.207a2.169,2.169,0,0,0,2.169-2.168v-9.7h-4.545v9.7A2.169,2.169,0,0,0,294.141,495.474Z"/><rect class="n" width="7.355" height="1.868" transform="translate(290.567 490.03)"/><path class="ag" d="M318.753,495.474h.208a2.168,2.168,0,0,0,2.168-2.168v-9.7h-4.544v9.7A2.168,2.168,0,0,0,318.753,495.474Z"/><rect class="n" width="7.355" height="1.868" transform="translate(315.179 490.03)"/><path class="m" d="M131.023,512.8,106,513.575a2.365,2.365,0,0,1-2.438-2.363v-.294A2.365,2.365,0,0,1,106,508.555l25.023.779a1.714,1.714,0,0,1,1.661,1.714v.034A1.715,1.715,0,0,1,131.023,512.8Z"/><rect class="j" width="13.732" height="6.571" rx="1.175" transform="translate(118.4 499.608)"/><rect class="ai" width="11.907" height="4.478" rx="0.548" transform="translate(119.313 500.654)"/><path class="n" d="M76.9,524.346l5.5-.627a4.073,4.073,0,0,0,3.612-4.047v-.956a4.073,4.073,0,0,0-3.612-4.047l-5.5-.627Z"/><path class="j" d="M76.459,524.812h-.611a1.475,1.475,0,0,1-1.475-1.476v-8.285a1.475,1.475,0,0,1,1.475-1.475h.611a.536.536,0,0,1,.536.536v10.163A.536.536,0,0,1,76.459,524.812Z"/><path class="ag" d="M197.158,422.009h71.223a13.375,13.375,0,0,1,13.291,11.871l5.973,52.738h37.606V429.2a22.056,22.056,0,0,0-22.869-22.041L195.92,411.092a7.67,7.67,0,0,0-1.341.167l-60.713,12.1a1.469,1.469,0,0,0-1.182,1.44v.594h14.49Z"/><rect class="aj" width="3.953" height="3.953" transform="translate(289.675 509.386)"/><rect class="aj" width="3.953" height="3.953" transform="translate(293.628 513.339)"/><rect class="aj" width="3.953" height="3.953" transform="translate(297.581 509.386)"/><rect class="aj" width="3.953" height="3.953" transform="translate(301.534 513.339)"/><rect class="aj" width="3.953" height="3.953" transform="translate(305.487 509.386)"/><rect class="aj" width="3.953" height="3.953" transform="translate(309.439 513.339)"/><rect class="aj" width="3.953" height="3.953" transform="translate(313.392 509.386)"/><rect class="aj" width="3.953" height="3.953" transform="translate(317.345 513.339)"/><rect class="aj" width="3.953" height="3.953" transform="translate(321.298 509.386)"/><rect width="3.953" height="3.953" transform="translate(289.675 513.339)"/><rect width="3.953" height="3.953" transform="translate(293.628 509.386)"/><rect width="3.953" height="3.953" transform="translate(297.581 513.339)"/><rect width="3.953" height="3.953" transform="translate(301.534 509.386)"/><rect width="3.953" height="3.953" transform="translate(305.487 513.339)"/><rect width="3.953" height="3.953" transform="translate(309.439 509.386)"/><rect width="3.953" height="3.953" transform="translate(313.392 513.339)"/><rect width="3.953" height="3.953" transform="translate(317.345 509.386)"/><rect width="3.953" height="3.953" transform="translate(321.298 513.339)"/><rect class="aj" width="3.953" height="3.953" transform="translate(258.074 509.386)"/><rect class="aj" width="3.953" height="3.953" transform="translate(262.027 513.339)"/><rect class="aj" width="3.953" height="3.953" transform="translate(265.98 509.386)"/><rect class="aj" width="3.953" height="3.953" transform="translate(269.933 513.339)"/><rect class="aj" width="3.953" height="3.953" transform="translate(273.886 509.386)"/><rect class="aj" width="3.953" height="3.953" transform="translate(277.839 513.339)"/><rect class="aj" width="3.953" height="3.953" transform="translate(281.791 509.386)"/><rect class="aj" width="3.953" height="3.953" transform="translate(285.744 513.339)"/><rect width="3.953" height="3.953" transform="translate(258.074 513.339)"/><rect width="3.953" height="3.953" transform="translate(262.027 509.386)"/><rect width="3.953" height="3.953" transform="translate(265.98 513.339)"/><rect width="3.953" height="3.953" transform="translate(269.933 509.386)"/><rect width="3.953" height="3.953" transform="translate(273.886 513.339)"/><rect width="3.953" height="3.953" transform="translate(277.839 509.386)"/><rect width="3.953" height="3.953" transform="translate(281.791 513.339)"/><rect width="3.953" height="3.953" transform="translate(285.744 509.386)"/></g><g class="aq" transform="matrix(1, 0, 0, 1, 0.94, 230.96)"><path class="ak" d="M22647.271,4855.674a12,12,0,0,1-12-12v-25.586l-5.424-18.488,18.18,6.032h383.754a12,12,0,0,1,12,12v26.042a12,12,0,0,1-12,12Z" transform="translate(-22281.14 -4495.65)"/></g><text class="al" transform="translate(391.575 577.017)"><tspan x="0" y="0">bhai ghar wapis lejao</tspan></text><text class="am" transform="translate(153.17 298.383)"><tspan x="-68.317" y="0">error</tspan></text><text class="an" transform="translate(148.17 377.958)"><tspan x="-96.307" y="0">404</tspan></text><g transform="matrix(0.964, 0.187, -0.267, 0.643, 237.457, 534.809)"><g transform="translate(0 0)"><path class="ao" d="M6.076-.027l.061-.06c-.015.071-.028.14-.036.21A.169.169,0,0,0,6.058.15C5.433.692,4.874,1.325,4.292,1.909Q2.338,3.87.386,5.833l-.48.483C1.939,4.182,3.963,2.035,6.076-.027Z" transform="translate(21.5 5.819)"/><path class="ao" d="M14.642-.207a.8.8,0,0,0,.308.275c-.122.156-.326.356-.438.477-.422.46-.856.911-1.291,1.361-1.314,1.361-2.649,2.7-3.984,4.047C6.516,8.687,3.775,11.4,1.054,14.135c-.339.339-.684.676-1.011,1.026a1.115,1.115,0,0,1-.263-.424A.182.182,0,0,0-.168,14.7c.959-1.044,2.012-2.02,3.021-3.019Q5.137,9.413,7.429,7.154c2.421-2.389,4.637-4.985,7.14-7.3C14.593-.163,14.617-.186,14.642-.207Z" transform="translate(13.246 7.561)"/><path class="ao" d="M14.525-.206c.01.028.022.055.033.084A9.315,9.315,0,0,0,13.343,1.06c-.783.8-1.556,1.607-2.33,2.412C9.928,4.6,8.851,5.739,7.733,6.84,5.082,9.453,2.4,12.048-.2,14.706l-.022.023a1.9,1.9,0,0,1,.01-.225.159.159,0,0,0,.083-.047C4.263,9.922,8.83,5.532,13.277,1.048,13.688.632,14.09.191,14.525-.206Z" transform="translate(13.18 7.204)"/><path class="ao" d="M14.321.092,14.313.1c-1.143.993-2.158,2.158-3.216,3.229-1.042,1.055-2.06,2.138-3.131,3.166-2.442,2.343-4.808,4.765-7.2,7.152-.327.327-.656.653-.981.981.047-.161.1-.321.16-.48a.21.21,0,0,0,.053-.031c.669-.567,1.264-1.237,1.88-1.852Q3.857,10.284,5.833,8.3,9.736,4.373,13.64.453c.215-.215.424-.443.646-.655A2.3,2.3,0,0,0,14.321.092Z" transform="translate(13.298 6.567)"/><path class="ao" d="M12,5.4a1.3,1.3,0,0,0,.183.408c-2.038-.756-4-1.78-5.956-2.685C4.883,2.5,3.539,1.87,2.207,1.221A16.45,16.45,0,0,1,.063.111.187.187,0,0,0,.024.083.121.121,0,0,0,0,0C.488.271,1.073.466,1.552.683c1.36.619,2.726,1.226,4.091,1.833Q7.724,3.442,9.8,4.373a14.264,14.264,0,0,1,2.139,1A.162.162,0,0,0,12,5.4Z" transform="translate(0.687 16.917)"/><path class="ao" d="M12.262,5.61a2.429,2.429,0,0,0-.057.49,16.691,16.691,0,0,0-1.81-.826C9.03,4.657,7.66,4.05,6.291,3.441,4.907,2.825,3.523,2.209,2.145,1.584A11.558,11.558,0,0,1,.074.607.155.155,0,0,0,.024.58,1.9,1.9,0,0,1,.013,0,59.927,59.927,0,0,0,5.736,2.728C7.909,3.683,10.128,4.577,12.262,5.61Z" transform="translate(0.441 15.83)"/><path class="ao" d="M12.33,5.735q-.038.124-.08.248c-.766-.274-1.5-.677-2.231-1.015C8.738,4.375,7.457,3.781,6.173,3.194c-.841-.385-1.7-.734-2.529-1.147A23.809,23.809,0,0,0,.009.314L0,.31C.038.2.083.1.126,0c1.991,1.037,4.1,1.9,6.148,2.835,1.324.609,2.648,1.22,3.963,1.847A12.305,12.305,0,0,1,12.33,5.735Z" transform="translate(0.746 14.475)"/><path class="ao" d="M12.379,5.677c-.041.125-.083.252-.118.378-2.106-1.014-4.294-1.9-6.436-2.84A58,58,0,0,1-.006.425C.028.281.069.138.116,0L.146.01a24.068,24.068,0,0,1,3.66,1.756c.826.414,1.7.761,2.537,1.145C7.629,3.5,8.91,4.094,10.192,4.687,10.911,5.019,11.628,5.407,12.379,5.677Z" transform="translate(0.519 15.075)"/><path d="M28.563,7.42a.119.119,0,0,1,.034.145A4.612,4.612,0,0,1,27.592,8.74c-2.609,2.766-5.329,5.439-8.023,8.131-2.053,2.051-4.214,4.042-6.164,6.181a.16.16,0,0,1-.05.038.138.138,0,0,1-.181.073c-2.2-.774-4.318-1.881-6.424-2.856-1.347-.623-2.691-1.252-4.023-1.9a15.723,15.723,0,0,1-2.2-1.148c-1.125-.449-.911-2.5.018-3.11C2.632,11.766,4.935,9.531,7.152,7.26c2.435-2.5,4.825-5.082,7.432-7.417A.143.143,0,0,1,14.743-.2c2.532.777,4.976,1.846,7.413,2.839,1.972.8,3.933,1.631,5.9,2.442a.118.118,0,0,1,.082.111.115.115,0,0,1-.034.109,2.038,2.038,0,0,0-.145,1.433c.06.189.2.65.482.638A.141.141,0,0,1,28.563,7.42Zm-.368.21a.8.8,0,0,1-.308-.275c-.024.021-.049.044-.072.065-2.5,2.31-4.719,4.906-7.14,7.3q-2.291,2.26-4.576,4.526c-1.009,1-2.062,1.975-3.021,3.019a.183.183,0,0,1-.051.038,1.116,1.116,0,0,0,.263.424c.326-.35.672-.687,1.011-1.026,2.721-2.734,5.462-5.449,8.183-8.182,1.335-1.343,2.67-2.686,3.984-4.047.435-.449.868-.9,1.291-1.36C27.869,7.985,28.074,7.785,28.2,7.63Zm-.457-.547c-.011-.029-.023-.057-.033-.084-.435.4-.837.838-1.248,1.253-4.447,4.485-9.014,8.874-13.4,13.408a.159.159,0,0,1-.083.047,1.9,1.9,0,0,0-.01.225l.022-.023c2.6-2.657,5.278-5.252,7.93-7.865,1.118-1.1,2.195-2.237,3.28-3.368.774-.806,1.547-1.614,2.33-2.412A9.318,9.318,0,0,1,27.739,7.082Zm-.1-1.35-.061.06c-2.113,2.061-4.137,4.209-6.17,6.343l.48-.483q1.952-1.963,3.906-3.924c.582-.584,1.141-1.217,1.766-1.759a.17.17,0,0,1,.042-.027C27.609,5.872,27.622,5.8,27.637,5.732Zm-.025.933.008-.006a2.314,2.314,0,0,1-.035-.294c-.221.211-.431.44-.646.655q-3.914,3.913-7.807,7.843-1.978,1.985-3.959,3.968c-.616.616-1.211,1.285-1.879,1.852a.213.213,0,0,1-.053.031c-.057.158-.113.319-.16.48.325-.328.653-.654.981-.981,2.395-2.388,4.76-4.809,7.2-7.152,1.072-1.028,2.09-2.111,3.131-3.166C25.453,8.823,26.469,7.658,27.611,6.665Zm-1.981.651A26.694,26.694,0,0,1,27.675,5.26c-1.851-.765-3.7-1.543-5.552-2.3C19.693,1.972,17.259.9,14.737.123,12.121,2.472,9.721,5.07,7.276,7.577,5.157,9.75,2.958,11.89.951,14.161,3.006,15.237,5.2,16.125,7.309,17.1c1.347.621,2.695,1.241,4.031,1.881a12.376,12.376,0,0,1,1.924.979c.144-.111.276-.24.408-.363,2.7-2.523,5.2-5.261,7.755-7.918C22.825,10.22,24.221,8.762,25.63,7.316ZM13,20.458q.042-.124.08-.248a12.3,12.3,0,0,0-2.094-1.055c-1.315-.627-2.639-1.238-3.963-1.847-2.043-.939-4.157-1.8-6.148-2.835-.043.1-.088.2-.131.312l.014,0A23.8,23.8,0,0,1,4.39,16.523c.825.412,1.689.761,2.529,1.147,1.284.586,2.565,1.181,3.847,1.774C11.5,19.781,12.231,20.184,13,20.458Zm-.216.673c.035-.126.076-.253.118-.378-.75-.27-1.467-.658-2.186-.99-1.282-.592-2.563-1.188-3.849-1.776-.842-.384-1.711-.732-2.537-1.145a24.076,24.076,0,0,0-3.66-1.756l-.03-.012c-.047.14-.088.282-.122.427a58,58,0,0,0,5.831,2.79C8.487,19.231,10.674,20.116,12.78,21.131Zm.094,1.594a1.3,1.3,0,0,1-.183-.408.163.163,0,0,1-.063-.026,14.262,14.262,0,0,0-2.139-1q-2.076-.934-4.159-1.856C4.965,18.826,3.6,18.219,2.239,17.6c-.48-.217-1.064-.413-1.552-.683A.12.12,0,0,1,.711,17a.188.188,0,0,1,.039.027,16.46,16.46,0,0,0,2.144,1.111c1.332.649,2.676,1.279,4.023,1.9C8.874,20.945,10.835,21.969,12.874,22.725Zm-.228-.8a2.42,2.42,0,0,1,.057-.49c-2.133-1.032-4.353-1.926-6.526-2.882A59.919,59.919,0,0,1,.455,15.83a1.906,1.906,0,0,0,.01.58.154.154,0,0,1,.05.027,11.559,11.559,0,0,0,2.071.977c1.379.625,2.763,1.24,4.146,1.857,1.369.609,2.739,1.216,4.1,1.833A16.7,16.7,0,0,1,12.646,21.93ZM.115,16.157A4.159,4.159,0,0,1,.462,14.64,2.061,2.061,0,0,0,.115,16.157Z"/><path class="ap" d="M26.518,4.945A26.706,26.706,0,0,0,24.473,7c-1.409,1.446-2.805,2.9-4.2,4.36-2.554,2.658-5.052,5.4-7.755,7.918-.132.123-.264.252-.408.363a12.376,12.376,0,0,0-1.924-.979C8.847,18.023,7.5,17.4,6.152,16.782c-2.113-.972-4.3-1.859-6.358-2.936C1.8,11.575,4,9.435,6.119,7.262c2.445-2.507,4.845-5.1,7.461-7.454C16.1.59,18.536,1.657,20.966,2.647,22.822,3.4,24.668,4.18,26.518,4.945Z" transform="translate(1.157 0.315)"/><path class="ao" d="M.356-.005A4.161,4.161,0,0,0,.008,1.512,2.061,2.061,0,0,1,.356-.005Z" transform="translate(0.106 14.645)"/></g></g><g transform="matrix(0.964, 0.187, -0.267, 0.643, 239.055, 530.655)"><g transform="translate(0 0)"><path class="ao" d="M6.076-.027l.061-.06c-.015.071-.028.14-.036.21A.169.169,0,0,0,6.058.15C5.433.692,4.874,1.325,4.292,1.909Q2.338,3.87.386,5.833l-.48.483C1.939,4.182,3.963,2.035,6.076-.027Z" transform="translate(21.5 5.819)"/><path class="ao" d="M14.642-.207a.8.8,0,0,0,.308.275c-.122.156-.326.356-.438.477-.422.46-.856.911-1.291,1.361-1.314,1.361-2.649,2.7-3.984,4.047C6.516,8.687,3.775,11.4,1.054,14.135c-.339.339-.684.676-1.011,1.026a1.115,1.115,0,0,1-.263-.424A.182.182,0,0,0-.168,14.7c.959-1.044,2.012-2.02,3.021-3.019Q5.137,9.413,7.429,7.154c2.421-2.389,4.637-4.985,7.14-7.3C14.593-.163,14.617-.186,14.642-.207Z" transform="translate(13.246 7.561)"/><path class="ao" d="M14.525-.206c.01.028.022.055.033.084A9.315,9.315,0,0,0,13.343,1.06c-.783.8-1.556,1.607-2.33,2.412C9.928,4.6,8.851,5.739,7.733,6.84,5.082,9.453,2.4,12.048-.2,14.706l-.022.023a1.9,1.9,0,0,1,.01-.225.159.159,0,0,0,.083-.047C4.263,9.922,8.83,5.532,13.277,1.048,13.688.632,14.09.191,14.525-.206Z" transform="translate(13.18 7.204)"/><path class="ao" d="M14.321.092,14.313.1c-1.143.993-2.158,2.158-3.216,3.229-1.042,1.055-2.06,2.138-3.131,3.166-2.442,2.343-4.808,4.765-7.2,7.152-.327.327-.656.653-.981.981.047-.161.1-.321.16-.48a.21.21,0,0,0,.053-.031c.669-.567,1.264-1.237,1.88-1.852Q3.857,10.284,5.833,8.3,9.736,4.373,13.64.453c.215-.215.424-.443.646-.655A2.3,2.3,0,0,0,14.321.092Z" transform="translate(13.298 6.567)"/><path class="ao" d="M12,5.4a1.3,1.3,0,0,0,.183.408c-2.038-.756-4-1.78-5.956-2.685C4.883,2.5,3.539,1.87,2.207,1.221A16.45,16.45,0,0,1,.063.111.187.187,0,0,0,.024.083.121.121,0,0,0,0,0C.488.271,1.073.466,1.552.683c1.36.619,2.726,1.226,4.091,1.833Q7.724,3.442,9.8,4.373a14.264,14.264,0,0,1,2.139,1A.162.162,0,0,0,12,5.4Z" transform="translate(0.687 16.917)"/><path class="ao" d="M12.262,5.61a2.429,2.429,0,0,0-.057.49,16.691,16.691,0,0,0-1.81-.826C9.03,4.657,7.66,4.05,6.291,3.441,4.907,2.825,3.523,2.209,2.145,1.584A11.558,11.558,0,0,1,.074.607.155.155,0,0,0,.024.58,1.9,1.9,0,0,1,.013,0,59.927,59.927,0,0,0,5.736,2.728C7.909,3.683,10.128,4.577,12.262,5.61Z" transform="translate(0.441 15.83)"/><path class="ao" d="M12.33,5.735q-.038.124-.08.248c-.766-.274-1.5-.677-2.231-1.015C8.738,4.375,7.457,3.781,6.173,3.194c-.841-.385-1.7-.734-2.529-1.147A23.809,23.809,0,0,0,.009.314L0,.31C.038.2.083.1.126,0c1.991,1.037,4.1,1.9,6.148,2.835,1.324.609,2.648,1.22,3.963,1.847A12.305,12.305,0,0,1,12.33,5.735Z" transform="translate(0.746 14.475)"/><path class="ao" d="M12.379,5.677c-.041.125-.083.252-.118.378-2.106-1.014-4.294-1.9-6.436-2.84A58,58,0,0,1-.006.425C.028.281.069.138.116,0L.146.01a24.068,24.068,0,0,1,3.66,1.756c.826.414,1.7.761,2.537,1.145C7.629,3.5,8.91,4.094,10.192,4.687,10.911,5.019,11.628,5.407,12.379,5.677Z" transform="translate(0.519 15.075)"/><path d="M28.563,7.42a.119.119,0,0,1,.034.145A4.612,4.612,0,0,1,27.592,8.74c-2.609,2.766-5.329,5.439-8.023,8.131-2.053,2.051-4.214,4.042-6.164,6.181a.16.16,0,0,1-.05.038.138.138,0,0,1-.181.073c-2.2-.774-4.318-1.881-6.424-2.856-1.347-.623-2.691-1.252-4.023-1.9a15.723,15.723,0,0,1-2.2-1.148c-1.125-.449-.911-2.5.018-3.11C2.632,11.766,4.935,9.531,7.152,7.26c2.435-2.5,4.825-5.082,7.432-7.417A.143.143,0,0,1,14.743-.2c2.532.777,4.976,1.846,7.413,2.839,1.972.8,3.933,1.631,5.9,2.442a.118.118,0,0,1,.082.111.115.115,0,0,1-.034.109,2.038,2.038,0,0,0-.145,1.433c.06.189.2.65.482.638A.141.141,0,0,1,28.563,7.42Zm-.368.21a.8.8,0,0,1-.308-.275c-.024.021-.049.044-.072.065-2.5,2.31-4.719,4.906-7.14,7.3q-2.291,2.26-4.576,4.526c-1.009,1-2.062,1.975-3.021,3.019a.183.183,0,0,1-.051.038,1.116,1.116,0,0,0,.263.424c.326-.35.672-.687,1.011-1.026,2.721-2.734,5.462-5.449,8.183-8.182,1.335-1.343,2.67-2.686,3.984-4.047.435-.449.868-.9,1.291-1.36C27.869,7.985,28.074,7.785,28.2,7.63Zm-.457-.547c-.011-.029-.023-.057-.033-.084-.435.4-.837.838-1.248,1.253-4.447,4.485-9.014,8.874-13.4,13.408a.159.159,0,0,1-.083.047,1.9,1.9,0,0,0-.01.225l.022-.023c2.6-2.657,5.278-5.252,7.93-7.865,1.118-1.1,2.195-2.237,3.28-3.368.774-.806,1.547-1.614,2.33-2.412A9.318,9.318,0,0,1,27.739,7.082Zm-.1-1.35-.061.06c-2.113,2.061-4.137,4.209-6.17,6.343l.48-.483q1.952-1.963,3.906-3.924c.582-.584,1.141-1.217,1.766-1.759a.17.17,0,0,1,.042-.027C27.609,5.872,27.622,5.8,27.637,5.732Zm-.025.933.008-.006a2.314,2.314,0,0,1-.035-.294c-.221.211-.431.44-.646.655q-3.914,3.913-7.807,7.843-1.978,1.985-3.959,3.968c-.616.616-1.211,1.285-1.879,1.852a.213.213,0,0,1-.053.031c-.057.158-.113.319-.16.48.325-.328.653-.654.981-.981,2.395-2.388,4.76-4.809,7.2-7.152,1.072-1.028,2.09-2.111,3.131-3.166C25.453,8.823,26.469,7.658,27.611,6.665Zm-1.981.651A26.694,26.694,0,0,1,27.675,5.26c-1.851-.765-3.7-1.543-5.552-2.3C19.693,1.972,17.259.9,14.737.123,12.121,2.472,9.721,5.07,7.276,7.577,5.157,9.75,2.958,11.89.951,14.161,3.006,15.237,5.2,16.125,7.309,17.1c1.347.621,2.695,1.241,4.031,1.881a12.376,12.376,0,0,1,1.924.979c.144-.111.276-.24.408-.363,2.7-2.523,5.2-5.261,7.755-7.918C22.825,10.22,24.221,8.762,25.63,7.316ZM13,20.458q.042-.124.08-.248a12.3,12.3,0,0,0-2.094-1.055c-1.315-.627-2.639-1.238-3.963-1.847-2.043-.939-4.157-1.8-6.148-2.835-.043.1-.088.2-.131.312l.014,0A23.8,23.8,0,0,1,4.39,16.523c.825.412,1.689.761,2.529,1.147,1.284.586,2.565,1.181,3.847,1.774C11.5,19.781,12.231,20.184,13,20.458Zm-.216.673c.035-.126.076-.253.118-.378-.75-.27-1.467-.658-2.186-.99-1.282-.592-2.563-1.188-3.849-1.776-.842-.384-1.711-.732-2.537-1.145a24.076,24.076,0,0,0-3.66-1.756l-.03-.012c-.047.14-.088.282-.122.427a58,58,0,0,0,5.831,2.79C8.487,19.231,10.674,20.116,12.78,21.131Zm.094,1.594a1.3,1.3,0,0,1-.183-.408.163.163,0,0,1-.063-.026,14.262,14.262,0,0,0-2.139-1q-2.076-.934-4.159-1.856C4.965,18.826,3.6,18.219,2.239,17.6c-.48-.217-1.064-.413-1.552-.683A.12.12,0,0,1,.711,17a.188.188,0,0,1,.039.027,16.46,16.46,0,0,0,2.144,1.111c1.332.649,2.676,1.279,4.023,1.9C8.874,20.945,10.835,21.969,12.874,22.725Zm-.228-.8a2.42,2.42,0,0,1,.057-.49c-2.133-1.032-4.353-1.926-6.526-2.882A59.919,59.919,0,0,1,.455,15.83a1.906,1.906,0,0,0,.01.58.154.154,0,0,1,.05.027,11.559,11.559,0,0,0,2.071.977c1.379.625,2.763,1.24,4.146,1.857,1.369.609,2.739,1.216,4.1,1.833A16.7,16.7,0,0,1,12.646,21.93ZM.115,16.157A4.159,4.159,0,0,1,.462,14.64,2.061,2.061,0,0,0,.115,16.157Z"/><path class="ap" d="M26.518,4.945A26.706,26.706,0,0,0,24.473,7c-1.409,1.446-2.805,2.9-4.2,4.36-2.554,2.658-5.052,5.4-7.755,7.918-.132.123-.264.252-.408.363a12.376,12.376,0,0,0-1.924-.979C8.847,18.023,7.5,17.4,6.152,16.782c-2.113-.972-4.3-1.859-6.358-2.936C1.8,11.575,4,9.435,6.119,7.262c2.445-2.507,4.845-5.1,7.461-7.454C16.1.59,18.536,1.657,20.966,2.647,22.822,3.4,24.668,4.18,26.518,4.945Z" transform="translate(1.157 0.315)"/><path class="ao" d="M.356-.005A4.161,4.161,0,0,0,.008,1.512,2.061,2.061,0,0,1,.356-.005Z" transform="translate(0.106 14.645)"/></g></g></g></svg>