<svg xmlns="http://www.w3.org/2000/svg" width="26.928" height="23.252" viewBox="0 0 26.928 23.252"><defs><style>.a{fill-rule:evenodd;}</style></defs><path class="a" d="M15.016,6.311l-1.4-1.385a7.127,7.127,0,0,0-10.008,0,6.958,6.958,0,0,0,0,9.909l11.373,11.26,0,0,.034.034,11.373-11.26a6.958,6.958,0,0,0,0-9.909,7.127,7.127,0,0,0-10.008,0Zm-.032,16.179L21.336,16.2,23.2,14.416l0,0,1.367-1.353a4.427,4.427,0,0,0,0-6.306,4.535,4.535,0,0,0-6.369,0L15.017,9.913,15.008,9.9h0L11.8,6.728a4.535,4.535,0,0,0-6.369,0,4.428,4.428,0,0,0,0,6.306L8.7,16.268l0,0Z" transform="translate(-1.536 -2.874)"/></svg>