<svg xmlns="http://www.w3.org/2000/svg" width="38.016" height="38.016" viewBox="0 0 38.016 38.016"><path d="M752.812,124.579A19.008,19.008,0,1,1,733.8,105.571,19.008,19.008,0,0,1,752.812,124.579Z" transform="translate(-714.796 -105.571)" fill="#ffeda7"/><g transform="translate(8.975 11.591)"><path d="M731.245,132.58h0a1.385,1.385,0,0,1-1.381-1.381v-4.787a1.385,1.385,0,0,1,1.381-1.381h0a1.385,1.385,0,0,1,1.381,1.381V131.2A1.385,1.385,0,0,1,731.245,132.58Z" transform="translate(-729.864 -125.032)" fill="#b4af9e"/><path d="M760.3,132.58h0a1.385,1.385,0,0,1-1.381-1.381v-4.787a1.385,1.385,0,0,1,1.381-1.381h0a1.385,1.385,0,0,1,1.381,1.381V131.2A1.385,1.385,0,0,1,760.3,132.58Z" transform="translate(-741.615 -125.032)" fill="#b4af9e"/></g><path d="M734.617,146.986a.951.951,0,0,1-.269-.038.965.965,0,0,1-.661-1.192,8.1,8.1,0,0,1,7.772-5.741,7.981,7.981,0,0,1,7.713,5.71.967.967,0,1,1-1.864.514,6.068,6.068,0,0,0-5.849-4.291,6.193,6.193,0,0,0-5.914,4.342A.969.969,0,0,1,734.617,146.986Z" transform="translate(-722.422 -119.501)" fill="#b4af9e"/></svg>