<svg xmlns="http://www.w3.org/2000/svg" width="38.016" height="38.016" viewBox="0 0 38.016 38.016"><path d="M948.446,213.494a19.008,19.008,0,1,1-19.009-19.008A19.009,19.009,0,0,1,948.446,213.494Z" transform="translate(-910.43 -194.486)" fill="#ffeda7"/><path d="M962.272,234.559a2.655,2.655,0,0,1-5.31,0c0-1.466,2.655-6.473,2.655-6.473S962.272,233.093,962.272,234.559Z" transform="translate(-929.248 -208.074)" fill="#addce6"/><g transform="translate(6.799 13.326)"><path d="M954.475,221.74a3.32,3.32,0,0,1-2.437-.957,4.4,4.4,0,0,1-1.095-2.951.967.967,0,0,1,1.933.038,2.487,2.487,0,0,0,.547,1.565,1.672,1.672,0,0,0,2.111-.008,2.62,2.62,0,0,0,.563-1.588.966.966,0,1,1,1.933-.023,4.466,4.466,0,0,1-1.121,2.97A3.333,3.333,0,0,1,954.475,221.74Z" transform="translate(-933.613 -216.862)" fill="#b4af9e"/><path d="M925.379,221.74a3.321,3.321,0,0,1-2.438-.957,4.4,4.4,0,0,1-1.095-2.951.966.966,0,0,1,1.933.038,2.488,2.488,0,0,0,.548,1.565,1.671,1.671,0,0,0,2.111-.008A2.62,2.62,0,0,0,927,217.84a.966.966,0,1,1,1.933-.023,4.465,4.465,0,0,1-1.121,2.97A3.332,3.332,0,0,1,925.379,221.74Z" transform="translate(-921.846 -216.862)" fill="#b4af9e"/></g><path d="M930.252,234.715a.968.968,0,0,1-.929-1.23,8.1,8.1,0,0,1,7.771-5.741,7.981,7.981,0,0,1,7.713,5.71.967.967,0,0,1-1.864.514,6.067,6.067,0,0,0-5.849-4.291,6.19,6.19,0,0,0-5.914,4.342A.971.971,0,0,1,930.252,234.715Z" transform="translate(-918.055 -207.936)" fill="#b4af9e"/><path d="M948.446,213.494a19.008,19.008,0,1,1-19.009-19.008A19.009,19.009,0,0,1,948.446,213.494Z" transform="translate(-910.43 -194.486)" fill="#ffd21f"/><path d="M962.272,234.559a2.655,2.655,0,0,1-5.31,0c0-1.466,2.655-6.473,2.655-6.473S962.272,233.093,962.272,234.559Z" transform="translate(-929.248 -208.074)" fill="#2fa7bf"/><g transform="translate(6.799 13.327)"><path d="M954.475,221.74a3.32,3.32,0,0,1-2.437-.957,4.4,4.4,0,0,1-1.095-2.951.967.967,0,0,1,1.933.038,2.487,2.487,0,0,0,.547,1.565,1.672,1.672,0,0,0,2.111-.008,2.62,2.62,0,0,0,.563-1.588.966.966,0,1,1,1.933-.023,4.466,4.466,0,0,1-1.121,2.97A3.333,3.333,0,0,1,954.475,221.74Z" transform="translate(-933.613 -216.862)" fill="#403408"/><path d="M925.379,221.74a3.321,3.321,0,0,1-2.438-.957,4.4,4.4,0,0,1-1.095-2.951.966.966,0,0,1,1.933.038,2.488,2.488,0,0,0,.548,1.565,1.671,1.671,0,0,0,2.111-.008A2.62,2.62,0,0,0,927,217.84a.966.966,0,1,1,1.933-.023,4.465,4.465,0,0,1-1.121,2.97A3.332,3.332,0,0,1,925.379,221.74Z" transform="translate(-921.846 -216.862)" fill="#403408"/></g><path d="M930.252,234.715a.968.968,0,0,1-.929-1.23,8.1,8.1,0,0,1,7.771-5.741,7.981,7.981,0,0,1,7.713,5.71.967.967,0,0,1-1.864.514,6.067,6.067,0,0,0-5.849-4.291,6.19,6.19,0,0,0-5.914,4.342A.971.971,0,0,1,930.252,234.715Z" transform="translate(-918.055 -207.936)" fill="#403408"/></svg>