<svg xmlns="http://www.w3.org/2000/svg" width="24" height="21.818" viewBox="0 0 24 21.818"><defs><style>.a{fill:#ffac4c;}</style></defs><path class="a" d="M1.5,23.318H5.864V10.227H1.5Zm24-12a2.188,2.188,0,0,0-2.182-2.182H16.435l1.036-4.985L17.5,3.8a1.642,1.642,0,0,0-.48-1.156L15.867,1.5,8.689,8.689a2.133,2.133,0,0,0-.644,1.538V21.136a2.188,2.188,0,0,0,2.182,2.182h9.818a2.167,2.167,0,0,0,2.007-1.331L25.347,14.3a2.155,2.155,0,0,0,.153-.8V11.416l-.011-.011Z" transform="translate(-1.5 -1.5)"/></svg>