<svg xmlns="http://www.w3.org/2000/svg" width="18.703" height="24.977" viewBox="0 0 18.703 24.977"><defs><style>.a{fill:#ffac4c;}</style></defs><path class="a" d="M16.649,6.867a2.323,2.323,0,1,0-2.323-2.323A2.33,2.33,0,0,0,16.649,6.867ZM12.467,23.015,13.629,17.9l2.44,2.323V27.2h2.323V18.484l-2.44-2.323.7-3.485a8.507,8.507,0,0,0,6.389,2.9V13.256a5.715,5.715,0,0,1-5-2.788L16.881,8.609a2.4,2.4,0,0,0-1.975-1.162c-.349,0-.581.116-.929.116L7.936,10.12v5.46H10.26V11.63l2.091-.813-1.859,9.41L4.8,19.065l-.465,2.323,8.132,1.626Z" transform="translate(-4.335 -2.22)"/></svg>