<svg xmlns="http://www.w3.org/2000/svg" width="38.016" height="38.016" viewBox="0 0 38.016 38.016"><path d="M165.132,35.664a19.008,19.008,0,1,1-19.008-19.008A19.008,19.008,0,0,1,165.132,35.664Z" transform="translate(-127.116 -16.656)" fill="#ffeda7"/><g transform="translate(8.975 13.035)"><path d="M143.565,44.619h0a1.385,1.385,0,0,1-1.381-1.381V39.924a1.386,1.386,0,0,1,1.381-1.381h0a1.385,1.385,0,0,1,1.381,1.381v3.314A1.385,1.385,0,0,1,143.565,44.619Z" transform="translate(-142.184 -38.543)" fill="#b4af9e"/><path d="M172.622,44.619h0a1.385,1.385,0,0,1-1.381-1.381V39.924a1.385,1.385,0,0,1,1.381-1.381h0A1.385,1.385,0,0,1,174,39.924v3.314A1.385,1.385,0,0,1,172.622,44.619Z" transform="translate(-153.935 -38.543)" fill="#b4af9e"/></g><path d="M153.719,57.39c-5.952,0-7.592-3.408-7.659-3.553a.967.967,0,1,1,1.756-.809c.043.087,1.263,2.429,5.9,2.429s5.924-2.376,5.976-2.477a.96.96,0,0,1,1.285-.45.973.973,0,0,1,.453,1.295C161.364,53.972,159.662,57.39,153.719,57.39Z" transform="translate(-134.74 -31.126)" fill="#b4af9e"/><g transform="translate(3.717 18.392)"><circle cx="2.766" cy="2.766" r="2.766" transform="translate(0 0)" fill="#ffc49d"/><circle cx="2.766" cy="2.766" r="2.766" transform="translate(26.617 0)" fill="#ffc49d"/></g></svg>