<svg xmlns="http://www.w3.org/2000/svg" width="22.578" height="24" viewBox="0 0 22.578 24"><path d="M8.64,18.9H1.476A1.478,1.478,0,0,1,0,17.427V1.477A1.478,1.478,0,0,1,1.476,0h9.156a2.944,2.944,0,0,1,1.678.78,16.679,16.679,0,0,1,1.841,1.609,16.742,16.742,0,0,1,1.609,1.84,2.945,2.945,0,0,1,.779,1.678v2.12H15.358V5.907H11.224a.591.591,0,0,1-.591-.59V1.182H1.476a.3.3,0,0,0-.3.3V17.427a.3.3,0,0,0,.3.3H8.645A3.544,3.544,0,0,0,8.64,18.9ZM11.815,1.884V4.726h2.842a16.3,16.3,0,0,0-1.34-1.5A16.287,16.287,0,0,0,11.815,1.884ZM12.4,13.7H4.135a.591.591,0,1,1,0-1.182H12.4a.591.591,0,0,1,0,1.182Zm0-2.363H4.135a.591.591,0,1,1,0-1.181H12.4a.591.591,0,1,1,0,1.181Zm0-2.363H4.135a.591.591,0,1,1,0-1.181H12.4a.591.591,0,1,1,0,1.181Z" fill="#fff"/><path d="M10.556,0h2.814a.842.842,0,0,1,.844.844V6.753H17.3a.7.7,0,0,1,.5,1.2l-5.35,5.353a.681.681,0,0,1-.96,0L6.128,7.952a.7.7,0,0,1,.5-1.2H9.712V.844A.842.842,0,0,1,10.556,0Z" transform="translate(4.576 10.497)" fill="#fff"/></svg>