<svg xmlns="http://www.w3.org/2000/svg" width="30" height="30" viewBox="0 0 30 30"><path d="M18,20.25a7.952,7.952,0,0,0-7.186,4.5H25.186A7.952,7.952,0,0,0,18,20.25Z" transform="translate(-3.375 -3.375)"/><path d="M18.375,3.375a15,15,0,1,0,15,15A15,15,0,0,0,18.375,3.375Zm0,27a12,12,0,1,1,12-12A12.036,12.036,0,0,1,18.375,30.375Z" transform="translate(-3.375 -3.375)"/><path d="M23.119,16.538a2.194,2.194,0,1,0-2.194-2.194A2.154,2.154,0,0,0,23.119,16.538Z" transform="translate(-3.375 -3.375)"/><path d="M12.881,16.538a2.194,2.194,0,1,0-2.194-2.194A2.154,2.154,0,0,0,12.881,16.538Z" transform="translate(-3.375 -3.375)"/></svg>