<svg xmlns="http://www.w3.org/2000/svg" width="38.016" height="38.017" viewBox="0 0 38.016 38.017"><path d="M752.8,36.256A19.008,19.008,0,1,1,734.4,16.665,19.008,19.008,0,0,1,752.8,36.256Z" transform="translate(-714.796 -16.655)" fill="#ffeda7"/><path d="M740.2,55.883c-7.114,0-9.131-2.84-9.338-3.164a.966.966,0,1,1,1.63-1.039c.005.006,1.659,2.27,7.708,2.27,6.1,0,7.777-2.282,7.793-2.3a.967.967,0,1,1,1.613,1.066C749.394,53.035,747.308,55.883,740.2,55.883Z" transform="translate(-721.234 -30.631)" fill="#b4af9e"/><g transform="translate(6.449 10.765)"><g transform="translate(17.858)"><path d="M756.829,34.877a4.3,4.3,0,0,0,4.879.08,2.078,2.078,0,0,1,.9,2.952,15.832,15.832,0,0,1-2.883,3.275.8.8,0,0,1-1.116-.018,15.811,15.811,0,0,1-2.774-3.367A2.08,2.08,0,0,1,756.829,34.877Z" transform="translate(-755.61 -34.731)" fill="#e67d64"/></g><path d="M726.845,34.877a4.3,4.3,0,0,0,4.879.08,2.078,2.078,0,0,1,.9,2.952,15.833,15.833,0,0,1-2.883,3.275.8.8,0,0,1-1.116-.018A15.807,15.807,0,0,1,725.85,37.8,2.079,2.079,0,0,1,726.845,34.877Z" transform="translate(-725.626 -34.731)" fill="#e67d64"/></g></svg>