<svg xmlns="http://www.w3.org/2000/svg" xmlns:xlink="http://www.w3.org/1999/xlink" width="31.952" height="34.264" viewBox="0 0 31.952 34.264"><defs><style>.a{fill:#fff;stroke:#707070;opacity:0;}.b,.d,.f{fill:none;}.b{stroke:#eaac00;}.b,.d{stroke-width:3px;}.c{fill:#ff3d00;}.d{stroke:#dc3500;}.e,.g{stroke:none;}.g{fill:#dc3500;}.h{filter:url(#a);}</style><filter id="a" x="0.689" y="0" width="31.264" height="34.264" filterUnits="userSpaceOnUse"><feOffset dy="3" input="SourceAlpha"/><feGaussianBlur stdDeviation="3" result="b"/><feFlood flood-opacity="0.161"/><feComposite operator="in" in2="b"/><feComposite in="SourceGraphic"/></filter></defs><g transform="translate(0 4.311)"><g class="a"><rect class="e" width="24" height="24"/><rect class="f" x="0.5" y="0.5" width="23" height="23"/></g><g transform="translate(-912 -498)"><line class="b" y2="22.584" transform="translate(920.5 498.5)"/><g class="h" transform="matrix(1, 0, 0, 1, 912, 493.69)"><g class="c" transform="translate(22.95 6) rotate(90)"><path class="e" d="M 15.37053298950195 12.76356410980225 L 0.8930357694625854 12.76356410980225 L 8.131784439086914 0.9566073417663574 L 15.37053298950195 12.76356410980225 Z"/><path class="g" d="M 8.131784439086914 1.913226127624512 L 1.786077499389648 12.26356410980225 L 14.47749137878418 12.26356410980225 L 8.131784439086914 1.913226127624512 M 8.131784439086914 4.76837158203125e-06 L 16.26356506347656 13.26356410980225 L 3.814697265625e-06 13.26356410980225 L 8.131784439086914 4.76837158203125e-06 Z"/></g></g><path class="d" d="M0,0V16.264" transform="translate(920.5 499.689)"/></g></g></svg>