<svg xmlns="http://www.w3.org/2000/svg" width="24" height="24" viewBox="0 0 24 24"><path d="M0,0H24V24H0Z" fill="#fff" opacity="0"/><path d="M17.25,13.768a2.947,2.947,0,1,0-3-2.946A2.982,2.982,0,0,0,17.25,13.768Zm-8,0a2.947,2.947,0,1,0-3-2.946A2.982,2.982,0,0,0,9.25,13.768Zm0,2.161c-2.35,0-7,1.129-7,3.438v2.652H16.393V19.366C16.393,17.058,11.6,15.929,9.25,15.929Zm8,.54a5.337,5.337,0,0,0-.857.049,2.928,2.928,0,0,1,1.571,2.848v2.652H24.25V19.366C24.25,17.058,19.6,16.469,17.25,16.469Z" transform="translate(-1.25 -3.852)"/></svg>