<svg xmlns="http://www.w3.org/2000/svg" width="36.87" height="40.967" viewBox="0 0 36.87 40.967"><path d="M37.273,5.6H28.711a6.121,6.121,0,0,0-11.553,0H8.6a4.109,4.109,0,0,0-4.1,4.1V38.37a4.109,4.109,0,0,0,4.1,4.1H37.273a4.109,4.109,0,0,0,4.1-4.1V9.693A4.109,4.109,0,0,0,37.273,5.6Zm-14.338,0a2.048,2.048,0,1,1-2.048,2.048A2.054,2.054,0,0,1,22.935,5.6Zm4.1,28.677H12.693v-4.1H27.032Zm6.145-8.193H12.693v-4.1H33.177Zm0-8.193H12.693v-4.1H33.177Z" transform="translate(-4.5 -1.5)" fill="#e03249"/></svg>