<svg xmlns="http://www.w3.org/2000/svg" width="24" height="24" viewBox="0 0 24 24"><g transform="translate(-359 -501)"><g transform="translate(359 501)" fill="#fff" stroke="#707070" stroke-width="1" opacity="0"><rect width="24" height="24" stroke="none"/><rect x="0.5" y="0.5" width="23" height="23" fill="none"/></g><g transform="translate(-81 148.85)"><path d="M2.063,3.375A2.063,2.063,0,1,0,4.125,5.438,2.062,2.062,0,0,0,2.063,3.375Zm0,6.875a2.063,2.063,0,1,0,2.063,2.063A2.063,2.063,0,0,0,2.063,10.25Zm0,6.875a2.063,2.063,0,1,0,2.063,2.063,2.063,2.063,0,0,0-2.062-2.062Zm19.25.688H7.563a.687.687,0,0,0-.687.688v1.375a.687.687,0,0,0,.688.688h13.75A.688.688,0,0,0,22,19.875V18.5A.688.688,0,0,0,21.313,17.813Zm0-13.75H7.563a.687.687,0,0,0-.687.688V6.125a.688.688,0,0,0,.688.688h13.75A.688.688,0,0,0,22,6.125V4.75A.688.688,0,0,0,21.313,4.063Zm0,6.875H7.563a.687.687,0,0,0-.687.688V13a.687.687,0,0,0,.688.688h13.75A.688.688,0,0,0,22,13V11.625A.688.688,0,0,0,21.313,10.938Z" transform="translate(441 351.775)" fill="#e03249"/></g></g></svg>