<svg xmlns="http://www.w3.org/2000/svg" width="38.016" height="38.016" viewBox="0 0 38.016 38.016"><path d="M850.629,213.494a19.008,19.008,0,1,1-19.009-19.008A19.009,19.009,0,0,1,850.629,213.494Z" transform="translate(-812.613 -194.486)" fill="#ffeda7"/><g transform="translate(8.975 14.104)"><path d="M829.062,224.243h0a1.385,1.385,0,0,1-1.381-1.381v-3.314a1.385,1.385,0,0,1,1.381-1.381h0a1.385,1.385,0,0,1,1.381,1.381v3.314A1.385,1.385,0,0,1,829.062,224.243Z" transform="translate(-827.681 -218.167)" fill="#b4af9e"/><path d="M858.119,224.243h0a1.385,1.385,0,0,1-1.381-1.381v-3.314a1.385,1.385,0,0,1,1.381-1.381h0a1.385,1.385,0,0,1,1.381,1.381v3.314A1.385,1.385,0,0,1,858.119,224.243Z" transform="translate(-839.432 -218.167)" fill="#b4af9e"/></g><path d="M847.459,235.785H825.69a.828.828,0,0,1,0-1.657h21.769a.828.828,0,0,1,0,1.657Z" transform="translate(-817.566 -210.518)" fill="#b4af9e"/></svg>