<svg xmlns="http://www.w3.org/2000/svg" xmlns:xlink="http://www.w3.org/1999/xlink" width="48" height="48" viewBox="0 0 48 48"><defs><style>.a{fill:#fe6277;opacity:0;}.b{fill:#fff;}.c{fill:#8c8c8c;}.d{filter:url(#a);}</style><filter id="a" x="0" y="0" width="48" height="48" filterUnits="userSpaceOnUse"><feOffset dy="3" input="SourceAlpha"/><feGaussianBlur stdDeviation="3" result="b"/><feFlood flood-opacity="0.161"/><feComposite operator="in" in2="b"/><feComposite in="SourceGraphic"/></filter></defs><g transform="translate(9 6)"><rect class="a" width="24" height="24" transform="translate(4 3)"/><g class="d" transform="matrix(1, 0, 0, 1, -9, -6)"><circle class="b" cx="15" cy="15" r="15" transform="translate(9 6)"/></g><path class="c" d="M7.714,0A5.158,5.158,0,0,0,2.571,5.143V7.714H0V18H15.429V7.714H12.857V5.143A5.158,5.158,0,0,0,7.714,0Zm0,2.571a2.546,2.546,0,0,1,2.571,2.571V7.714H5.143V5.143A2.546,2.546,0,0,1,7.714,2.571Z" transform="translate(7 5)"/></g></svg>