<svg xmlns="http://www.w3.org/2000/svg" width="17.163" height="15.748" viewBox="0 0 17.163 15.748"><defs><style>.a{fill:#fff;}</style></defs><path class="a" d="M11.8,2.953A3.094,3.094,0,0,0,8.581,0,3.094,3.094,0,0,0,5.363,2.953,3.094,3.094,0,0,0,8.581,5.905,3.094,3.094,0,0,0,11.8,2.953ZM7.83,7.416C5.841,6.3,2.62,5.992,1,5.907A.9.9,0,0,0,0,6.74v6.853a.884.884,0,0,0,.888.832A19.433,19.433,0,0,1,7.359,15.7a.468.468,0,0,0,.687-.365V7.768a.4.4,0,0,0-.215-.352Zm8.334-1.509c-1.621.084-4.842.392-6.831,1.509a.41.41,0,0,0-.215.358v7.56a.469.469,0,0,0,.689.366,19.441,19.441,0,0,1,6.469-1.273.884.884,0,0,0,.888-.832V6.74A.9.9,0,0,0,16.164,5.907Z"/></svg>