<svg xmlns="http://www.w3.org/2000/svg" width="16" height="16" viewBox="0 0 16 16">
  <path id="Icon_awesome-external-link-square-alt" data-name="Icon awesome-external-link-square-alt" d="M16,3.964V16.536a1.714,1.714,0,0,1-1.714,1.714H1.714A1.714,1.714,0,0,1,0,16.536V3.964A1.714,1.714,0,0,1,1.714,2.25H14.286A1.714,1.714,0,0,1,16,3.964Zm-3.143.571h-4A.858.858,0,0,0,8.252,6L9.394,7.141,2.411,14.124a.429.429,0,0,0,0,.606l1.108,1.108a.429.429,0,0,0,.606,0l6.983-6.983L12.251,10a.858.858,0,0,0,1.463-.606v-4A.857.857,0,0,0,12.857,4.536Z" transform="translate(0 -2.25)" fill="#fff"/>
</svg>
