<svg xmlns="http://www.w3.org/2000/svg" width="32" height="32" viewBox="0 0 32 32"><g transform="translate(4 3)" fill="#fff" stroke="#707070" stroke-width="1" opacity="0"><rect width="24" height="24" stroke="none"/><rect x="0.5" y="0.5" width="23" height="23" fill="none"/></g><path d="M9,15a3,3,0,1,0,3,3A3.009,3.009,0,0,0,9,15Zm18,0a3,3,0,1,0,3,3A3.009,3.009,0,0,0,27,15Zm-9,0a3,3,0,1,0,3,3A3.009,3.009,0,0,0,18,15Z" transform="translate(-2 -3)"/><circle cx="16" cy="16" r="16" fill="#a6a6a6" opacity="0.14"/></svg>