<svg xmlns="http://www.w3.org/2000/svg" width="37.596" height="42.967" viewBox="0 0 37.596 42.967"><path d="M0,38.939a4.029,4.029,0,0,0,4.028,4.028h29.54A4.029,4.029,0,0,0,37.6,38.939V16.113H0ZM26.854,22.49a1.01,1.01,0,0,1,1.007-1.007h3.357a1.01,1.01,0,0,1,1.007,1.007v3.357a1.01,1.01,0,0,1-1.007,1.007H27.861a1.01,1.01,0,0,1-1.007-1.007Zm0,10.742a1.01,1.01,0,0,1,1.007-1.007h3.357a1.01,1.01,0,0,1,1.007,1.007v3.357A1.01,1.01,0,0,1,31.218,37.6H27.861a1.01,1.01,0,0,1-1.007-1.007ZM16.113,22.49a1.01,1.01,0,0,1,1.007-1.007h3.357a1.01,1.01,0,0,1,1.007,1.007v3.357a1.01,1.01,0,0,1-1.007,1.007H17.12a1.01,1.01,0,0,1-1.007-1.007Zm0,10.742a1.01,1.01,0,0,1,1.007-1.007h3.357a1.01,1.01,0,0,1,1.007,1.007v3.357A1.01,1.01,0,0,1,20.476,37.6H17.12a1.01,1.01,0,0,1-1.007-1.007ZM5.371,22.49a1.01,1.01,0,0,1,1.007-1.007H9.735a1.01,1.01,0,0,1,1.007,1.007v3.357a1.01,1.01,0,0,1-1.007,1.007H6.378a1.01,1.01,0,0,1-1.007-1.007Zm0,10.742a1.01,1.01,0,0,1,1.007-1.007H9.735a1.01,1.01,0,0,1,1.007,1.007v3.357A1.01,1.01,0,0,1,9.735,37.6H6.378a1.01,1.01,0,0,1-1.007-1.007Zm28.2-27.861H29.54V1.343A1.347,1.347,0,0,0,28.2,0H25.512a1.347,1.347,0,0,0-1.343,1.343V5.371H13.427V1.343A1.347,1.347,0,0,0,12.084,0H9.4A1.347,1.347,0,0,0,8.056,1.343V5.371H4.028A4.029,4.029,0,0,0,0,9.4v4.028H37.6V9.4A4.029,4.029,0,0,0,33.568,5.371Z" fill="#e03249"/></svg>