<svg xmlns="http://www.w3.org/2000/svg" width="19.995" height="20" viewBox="0 0 19.995 20"><defs><style>.a{fill:#1492e6;}</style></defs><path class="a" d="M13.938,23.938A10,10,0,0,1,7,6.738.8.8,0,1,1,8.113,7.892a8.392,8.392,0,1,0,6.625-2.31v3.13a.8.8,0,0,1-1.61,0V4.743a.8.8,0,0,1,.8-.805,10,10,0,0,1,0,20Z" transform="translate(-3.938 -3.938)"/><path class="a" d="M12.046,11.345l4.975,3.575a1.505,1.505,0,1,1-1.75,2.45,1.454,1.454,0,0,1-.35-.35l-3.575-4.975a.5.5,0,0,1,.7-.7Z" transform="translate(-6.051 -6.05)"/></svg>