<svg id="Group_1004" data-name="Group 1004" xmlns="http://www.w3.org/2000/svg" width="20" height="20" viewBox="0 0 20 20">
  <circle id="Ellipse_426" data-name="Ellipse 426" cx="10" cy="10" r="10" fill="#e03249"/>
  <path id="Path_1410" data-name="Path 1410" d="M16.552,11.665a.991.991,0,1,1,.986.962A.963.963,0,0,1,16.552,11.665Zm.067,1.716h1.837V20.31H16.619Z" transform="translate(-7.542 -5.694)" fill="#fff"/>
  <path id="Path_1411" data-name="Path 1411" d="M13.375,4.721a8.65,8.65,0,1,1-6.12,2.534,8.6,8.6,0,0,1,6.12-2.534m0-1.346a10,10,0,1,0,10,10,10,10,0,0,0-10-10Z" transform="translate(-3.375 -3.375)" fill="#e03249"/>
</svg>
