<svg width="167" height="62" viewBox="0 0 167 62" fill="none" xmlns="http://www.w3.org/2000/svg">
<path opacity="0.9" d="M166.282 1.12943H0.251709V61.0553H166.282L137.028 31.9815L166.282 1.12943Z" fill="#E03249" stroke="#E03249" stroke-width="0.5"/>
<path d="M73.6276 49.9103C72.8196 49.9103 72.3327 49.0017 72.7945 48.3387L72.8565 48.2498C73.6276 47.1082 74.1096 45.6553 74.3988 43.8911C69.579 41.5041 66.8799 37.0416 66.8799 31.2299C66.8799 22.3048 73.1456 16.7007 83.2673 16.7007C93.3889 16.7007 99.6546 22.3048 99.6546 31.2299C99.6546 40.3625 93.4853 45.7591 83.2673 45.7591H82.5925C81.0501 47.7309 78.351 49.9103 73.6276 49.9103ZM83.2673 18.7763C74.206 18.7763 68.8078 23.4464 68.8078 31.2299C68.8078 37.8718 72.5673 40.9852 75.7483 42.3343L76.0283 42.4635C76.2639 42.5722 76.4029 42.8199 76.373 43.0775L76.3267 43.4759C76.1841 44.7041 75.9888 45.8188 75.6627 46.8199C75.5162 47.2695 75.8788 47.7475 76.3378 47.6339C78.8693 47.0072 80.4042 45.4837 81.3393 44.2024L81.4495 44.0443C81.5616 43.8833 81.7455 43.7873 81.9418 43.7873H83.2673C96.2807 43.7873 97.7267 35.0697 97.7267 31.3337C97.7267 23.4464 92.3285 18.7763 83.2673 18.7763Z" fill="white"/>
<path d="M73.6276 49.9103C72.8196 49.9103 72.3327 49.0017 72.7945 48.3387L72.8565 48.2498C73.6276 47.1082 74.1096 45.6553 74.3988 43.8911C69.579 41.5041 66.8799 37.0416 66.8799 31.2299C66.8799 22.3048 73.1456 16.7007 83.2673 16.7007C93.3889 16.7007 99.6546 22.3048 99.6546 31.2299C99.6546 40.3625 93.4853 45.7591 83.2673 45.7591H82.5925C81.0501 47.7309 78.351 49.9103 73.6276 49.9103ZM83.2673 18.7763C74.206 18.7763 68.8078 23.4464 68.8078 31.2299C68.8078 37.8718 72.5673 40.9852 75.7483 42.3343L76.0283 42.4635C76.2639 42.5722 76.4029 42.8199 76.373 43.0775L76.3267 43.4759C76.1841 44.7041 75.9888 45.8188 75.6627 46.8199C75.5162 47.2695 75.8788 47.7475 76.3378 47.6339C78.8693 47.0072 80.4042 45.4837 81.3393 44.2024L81.4495 44.0443C81.5616 43.8833 81.7455 43.7873 81.9418 43.7873H83.2673C96.2807 43.7873 97.7267 35.0697 97.7267 31.3337C97.7267 23.4464 92.3285 18.7763 83.2673 18.7763Z" stroke="white"/>
<g clip-path="url(#clip0_13290_16259)">
<path d="M80.1684 29.9271L78.6214 31.0618L75.9258 30.9451V32.0679V34.1769V37.4088L76.2869 37.7429L78.3176 37.6794L80.2319 38.2611L83.0028 38.8851L84.6739 39.2235L86.8526 39.0543L87.7515 37.5208L88.3861 36.4737L89.1159 35.1305L89.5389 33.9143L89.412 32.5817L89.9091 31.3654L89.2322 29.7261L87.7092 29.1973L86.3661 29.0915L85.3825 29.4828V29.0915L85.6998 27.6003V25.8235L85.0863 24.8188L83.722 24.4168L83.0874 24.8188L82.6961 25.8975L82.4317 27.2618L82.0192 28.1925L80.1684 29.9271Z" fill="white"/>
<path d="M88.3584 35.1056L88.6096 35.5379C88.6029 35.5418 88.5973 35.5473 88.5934 35.554C88.5894 35.5607 88.5872 35.5682 88.587 35.576L88.587 35.5766C88.5712 36.0998 88.4868 36.5727 88.2735 36.8846C88.0882 37.1581 87.8518 37.365 87.5565 37.4931L87.3576 37.0345L87.5575 37.4927C87.5501 37.4959 87.5437 37.501 87.539 37.5076C87.5343 37.5141 87.5315 37.5217 87.5308 37.5297L87.5307 37.5303C87.4863 38.0159 87.3682 38.4679 87.0965 38.7442C86.8914 38.9529 86.6032 39.1006 86.3204 39.1923C86.0309 39.2862 85.6996 39.3369 85.3774 39.3148C84.6543 39.2664 84.2448 39.1788 83.2361 38.8609L83.236 38.8608C82.5566 38.6466 81.2125 38.3025 79.1788 37.8248C79.1663 37.853 79.1525 37.8806 79.1376 37.9075C81.1549 38.3817 82.5227 38.7297 83.2113 38.9472C84.2515 39.2757 84.6618 39.3574 85.3719 39.4051L85.3722 39.4051C86.0557 39.4514 86.7833 39.1883 87.1561 38.8088L87.1569 38.808C87.3556 38.6066 87.5071 38.2903 87.5837 37.8052L87.6189 37.5823L87.8094 37.4612C88.0214 37.3264 88.2029 37.1486 88.3419 36.9393L88.3451 36.9345L88.3451 36.9345C88.5041 36.7012 88.6168 36.354 88.6585 35.847L88.6777 35.6126L88.8706 35.478C89.3622 35.1348 89.6206 34.7243 89.6836 34.2543C89.741 33.8261 89.6535 33.367 89.3962 32.8711L89.2344 32.5594L89.4728 32.3014C89.7416 32.0105 89.9095 31.6322 89.9577 31.1575C90.0101 30.6285 89.8569 30.1804 89.5498 29.8453C89.2388 29.5059 88.7349 29.2456 88.0286 29.1734C87.3828 29.1078 86.7313 29.1219 86.0889 29.2156L85.259 29.3365L85.5472 28.5489C85.7373 28.0298 85.8458 27.5824 85.8822 27.1984L85.8823 27.1979C85.968 26.3029 85.7392 25.6216 85.2475 25.0777L85.2473 25.0775C85.0324 24.8396 84.7495 24.6488 84.4622 24.5325C84.1681 24.4134 83.9152 24.3902 83.7522 24.4255C83.3612 24.5104 83.0398 24.7476 82.7558 25.4278L82.7555 25.4286C82.6193 25.7531 82.5581 26.0019 82.4493 26.6236C82.3671 27.0974 82.3188 27.3287 82.2254 27.6082L82.225 27.6092C81.9466 28.4358 81.246 29.2981 80.3308 29.8902L80.3303 29.8905C79.915 30.1585 79.4786 30.3911 79.0256 30.5862C79.0454 30.6099 79.0642 30.6344 79.0818 30.6598C79.531 30.4645 79.9641 30.2328 80.3765 29.9665C81.3368 29.3457 82.0312 28.4565 82.306 27.6384L82.3063 27.6376C82.3983 27.365 82.4435 27.1592 82.5346 26.6395C82.6315 26.0816 82.6949 25.7982 82.8336 25.4653L82.8339 25.4646C82.9393 25.2128 83.0534 24.9965 83.2053 24.8327C83.3767 24.6477 83.5695 24.5572 83.7706 24.5142C83.9213 24.4819 84.0684 24.5048 84.1682 24.5281C84.2814 24.5544 84.3988 24.597 84.5122 24.6499C84.7363 24.7545 84.9854 24.9187 85.1853 25.1399L85.1855 25.1401C85.6811 25.689 85.876 26.3548 85.797 27.1888L85.7969 27.1894C85.7369 27.8131 85.4876 28.5717 85.0768 29.4408L85.0763 29.442C85.0727 29.4495 85.0713 29.458 85.0724 29.4663C85.0734 29.4746 85.0768 29.4825 85.0821 29.4889C85.0875 29.4954 85.0946 29.5002 85.1025 29.5027C85.1102 29.5052 85.1184 29.5055 85.1262 29.5037C86.0675 29.2487 87.0474 29.1672 88.018 29.2632L88.0197 29.2634C88.6003 29.3229 89.0944 29.5083 89.4353 29.85C89.7886 30.2042 89.9188 30.6679 89.8711 31.1478C89.8145 31.7196 89.5739 32.1725 89.1204 32.4914L88.8328 32.0824M88.3584 35.1056C88.824 34.836 89.0544 34.532 89.1024 34.1752C89.1552 33.7808 89.0272 33.3368 88.692 32.8312C88.6133 32.7126 88.584 32.568 88.6103 32.4282C88.6366 32.2884 88.7164 32.1643 88.8328 32.0824M88.3584 35.1056C88.2781 35.1522 88.2111 35.2186 88.1636 35.2984C88.1162 35.3782 88.0899 35.4688 88.0872 35.5616C88.072 36.0664 87.9888 36.4152 87.8608 36.6024C87.7224 36.8072 87.5568 36.948 87.3576 37.0344C87.268 37.0734 87.1906 37.1359 87.1335 37.2151C87.0763 37.2943 87.0416 37.3875 87.0328 37.4848L85.2992 27.1416C85.2472 27.6824 85.0248 28.3808 84.6248 29.2272C84.5803 29.3208 84.5634 29.4251 84.5762 29.5279C84.589 29.6308 84.6308 29.7278 84.6969 29.8076C84.763 29.8875 84.8504 29.9468 84.9491 29.9786C85.0477 30.0104 85.1533 30.0134 85.2536 29.9872C86.1374 29.7474 87.0575 29.6707 87.9688 29.7608C88.992 29.8656 89.444 30.3896 89.3736 31.0984C89.3296 31.5432 89.1536 31.8568 88.8328 32.0824M88.3584 35.1056L88.6089 35.5383C89.1541 35.2226 89.5222 34.805 89.5979 34.2418L89.598 34.2415C89.6725 33.6845 89.4824 33.1186 89.1087 32.5549L89.1087 32.5548C89.102 32.5447 89.0995 32.5325 89.1017 32.5206C89.104 32.5087 89.1107 32.4982 89.1206 32.4912L88.8328 32.0824M75.8552 37.232V37.6625C75.8042 37.5986 75.7709 37.5067 75.7696 37.3716L75.772 31.5154L75.772 31.4935L75.7701 31.4718C75.7542 31.2892 75.8068 31.1565 75.904 31.0615L75.9044 31.061C76.0034 30.9639 76.1355 30.9122 76.295 30.9159L76.295 30.916H76.3064H77.2393C77.229 30.9457 77.2202 30.9759 77.2127 31.0064H76.3552V31.5064H75.8552V37.232ZM76.3077 37.8226C76.1389 37.8273 76.0203 37.7912 75.9317 37.732H76.3552H77.2363C77.2438 37.7545 77.2522 37.7768 77.2613 37.7989C77.2645 37.8068 77.2679 37.8146 77.2713 37.8224H76.3216H76.3208V38.2937L76.3077 37.8226ZM78.1824 36.732V32.0055C78.2113 32.0043 78.2401 32.0019 78.2688 31.9983V36.732H78.1824Z" fill="white" stroke="#E04357"/>
</g>
<defs>
<clipPath id="clip0_13290_16259">
<rect width="16" height="16" fill="white" transform="translate(75.2671 23.9104)"/>
</clipPath>
</defs>
</svg>
