<svg width="94" height="82" viewBox="0 0 94 82" fill="none" xmlns="http://www.w3.org/2000/svg">
<path opacity="0.9" d="M93.1465 1.12943H1.17578V81.0814H93.0023L76.8364 41.983L93.1465 1.12943Z" fill="#E03249" stroke="#E03249" stroke-width="0.5"/>
<path d="M32.7642 57.7102C31.9562 57.7102 31.4693 56.8016 31.9311 56.1386L31.993 56.0497C32.7642 54.9082 33.2462 53.4552 33.5354 51.691C28.7156 49.304 26.0165 44.8415 26.0165 39.0298C26.0165 30.1047 32.2822 24.5006 42.4038 24.5006C52.5255 24.5006 58.7912 30.1047 58.7912 39.0298C58.7912 48.1625 52.6219 53.559 42.4038 53.559H41.7291C40.1867 55.5308 37.4876 57.7102 32.7642 57.7102ZM42.4038 26.5762C33.3426 26.5762 27.9444 31.2463 27.9444 39.0298C27.9444 45.6717 31.7039 48.7851 34.8849 50.1343L35.1649 50.2635C35.4005 50.3721 35.5395 50.6198 35.5096 50.8775L35.4633 51.2759C35.3207 52.5041 35.1254 53.6187 34.7993 54.6198C34.6528 55.0694 35.0154 55.5475 35.4744 55.4338C38.0059 54.8071 39.5408 53.2837 40.4759 52.0023L40.586 51.8442C40.6982 51.6832 40.8821 51.5872 41.0784 51.5872H42.4038C55.4173 51.5872 56.8633 42.8697 56.8633 39.1336C56.8633 31.2463 51.4651 26.5762 42.4038 26.5762Z" fill="white"/>
<path d="M32.7642 57.7102C31.9562 57.7102 31.4693 56.8016 31.9311 56.1386L31.993 56.0497C32.7642 54.9082 33.2462 53.4552 33.5354 51.691C28.7156 49.304 26.0165 44.8415 26.0165 39.0298C26.0165 30.1047 32.2822 24.5006 42.4038 24.5006C52.5255 24.5006 58.7912 30.1047 58.7912 39.0298C58.7912 48.1625 52.6219 53.559 42.4038 53.559H41.7291C40.1867 55.5308 37.4876 57.7102 32.7642 57.7102ZM42.4038 26.5762C33.3426 26.5762 27.9444 31.2463 27.9444 39.0298C27.9444 45.6717 31.7039 48.7851 34.8849 50.1343L35.1649 50.2635C35.4005 50.3721 35.5395 50.6198 35.5096 50.8775L35.4633 51.2759C35.3207 52.5041 35.1254 53.6187 34.7993 54.6198C34.6528 55.0694 35.0154 55.5475 35.4744 55.4338C38.0059 54.8071 39.5408 53.2837 40.4759 52.0023L40.586 51.8442C40.6982 51.6832 40.8821 51.5872 41.0784 51.5872H42.4038C55.4173 51.5872 56.8633 42.8697 56.8633 39.1336C56.8633 31.2463 51.4651 26.5762 42.4038 26.5762Z" stroke="white"/>
<g clip-path="url(#clip0_13290_16260)">
<path d="M39.3051 37.727L37.7582 38.8617L35.0625 38.745V39.8678V41.9769V45.2087L35.4237 45.5428L37.4543 45.4793L39.3686 46.061L42.1395 46.685L43.8106 47.0235L45.9893 46.8542L46.8883 45.3207L47.5228 44.2737L48.2526 42.9305L48.6756 41.7142L48.5487 40.3816L49.0458 39.1653L48.3689 37.526L46.846 36.9972L45.5028 36.8915L44.5192 37.2828V36.8915L44.8365 35.4002V33.6234L44.2231 32.6187L42.8587 32.2167L42.2242 32.6187L41.8328 33.6974L41.5684 35.0617L41.156 35.9925L39.3051 37.727Z" fill="white"/>
<path d="M47.4951 42.9055L47.7464 43.3378C47.7396 43.3417 47.734 43.3472 47.7301 43.3539C47.7261 43.3606 47.7239 43.3681 47.7237 43.3759L47.7237 43.3766C47.7079 43.8997 47.6235 44.3726 47.4102 44.6845C47.2249 44.958 46.9885 45.165 46.6933 45.293L46.4943 44.8344L46.6942 45.2926C46.6868 45.2958 46.6805 45.301 46.6758 45.3075C46.6711 45.314 46.6682 45.3217 46.6675 45.3297L46.6674 45.3302C46.623 45.8159 46.5049 46.2678 46.2332 46.5441C46.0281 46.7529 45.7399 46.9006 45.4571 46.9922C45.1676 47.0861 44.8363 47.1368 44.5141 47.1148C43.791 47.0664 43.3815 46.9788 42.3728 46.6608L42.3727 46.6608C41.6933 46.4465 40.3492 46.1024 38.3155 45.6247C38.303 45.6529 38.2892 45.6805 38.2743 45.7074C40.2916 46.1817 41.6595 46.5296 42.3481 46.7471C43.3883 47.0756 43.7985 47.1573 44.5086 47.205L44.5089 47.2051C45.1924 47.2513 45.92 46.9882 46.2928 46.6087L46.2936 46.6079C46.4923 46.4065 46.6438 46.0902 46.7204 45.6051L46.7556 45.3822L46.9461 45.2611C47.1582 45.1263 47.3396 44.9485 47.4786 44.7392L47.4818 44.7344L47.4819 44.7344C47.6408 44.5011 47.7535 44.1539 47.7952 43.6469L47.8145 43.4125L48.0073 43.2779C48.4989 42.9348 48.7573 42.5242 48.8203 42.0542C48.8778 41.626 48.7902 41.1669 48.5329 40.671L48.3711 40.3593L48.6095 40.1013C48.8783 39.8105 49.0463 39.4322 49.0944 38.9574C49.1468 38.4285 48.9937 37.9803 48.6866 37.6452C48.3755 37.3058 47.8716 37.0455 47.1653 36.9733C46.5195 36.9077 45.868 36.9219 45.2256 37.0155L44.3957 37.1364L44.684 36.3488C44.874 35.8297 44.9825 35.3823 45.0189 34.9983L45.019 34.9978C45.1047 34.1028 44.876 33.4215 44.3842 32.8776L44.384 32.8775C44.1691 32.6395 43.8862 32.4487 43.5989 32.3324C43.3049 32.2134 43.052 32.1901 42.8889 32.2254C42.498 32.3103 42.1765 32.5475 41.8925 33.2278L41.8922 33.2285C41.7561 33.553 41.6948 33.8018 41.586 34.4235C41.5039 34.8973 41.4556 35.1286 41.3621 35.4081L41.3618 35.4091C41.0834 36.2358 40.3827 37.098 39.4675 37.6901L39.467 37.6905C39.0517 37.9584 38.6153 38.191 38.1623 38.3861C38.1821 38.4098 38.2009 38.4344 38.2185 38.4597C38.6678 38.2645 39.1008 38.0327 39.5133 37.7664C40.4735 37.1457 41.1679 36.2564 41.4427 35.4383L41.443 35.4376C41.535 35.1649 41.5803 34.9591 41.6714 34.4394C41.7683 33.8815 41.8316 33.5981 41.9704 33.2652L41.9706 33.2645C42.076 33.0128 42.1901 32.7964 42.342 32.6326C42.5134 32.4477 42.7062 32.3572 42.9074 32.3142C43.058 32.2818 43.2052 32.3048 43.305 32.328C43.4181 32.3543 43.5355 32.3969 43.6489 32.4498C43.873 32.5545 44.1221 32.7187 44.322 32.9398L44.3222 32.94C44.8179 33.4889 45.0127 34.1547 44.9337 34.9887L44.9336 34.9894C44.8736 35.613 44.6243 36.3717 44.2136 37.2408L44.213 37.2419C44.2094 37.2495 44.2081 37.2579 44.2091 37.2662C44.2101 37.2745 44.2135 37.2824 44.2189 37.2888C44.2242 37.2953 44.2313 37.3001 44.2392 37.3027C44.2469 37.3051 44.2551 37.3055 44.2629 37.3036C45.2043 37.0486 46.1842 36.9671 47.1547 37.0631L47.1564 37.0633C47.7371 37.1228 48.2312 37.3082 48.572 37.6499C48.9253 38.0042 49.0555 38.4679 49.0079 38.9477C48.9512 39.5196 48.7106 39.9724 48.2571 40.2913L47.9695 39.8823M47.4951 42.9055C47.9607 42.6359 48.1911 42.3319 48.2391 41.9751C48.2919 41.5807 48.1639 41.1367 47.8287 40.6311C47.7501 40.5125 47.7208 40.368 47.7471 40.2281C47.7733 40.0883 47.8532 39.9642 47.9695 39.8823M47.4951 42.9055C47.4148 42.9522 47.3478 43.0185 47.3003 43.0983C47.2529 43.1781 47.2266 43.2687 47.2239 43.3615C47.2087 43.8663 47.1255 44.2151 46.9975 44.4023C46.8591 44.6071 46.6935 44.7479 46.4943 44.8343C46.4047 44.8734 46.3274 44.9358 46.2702 45.015C46.2131 45.0943 46.1783 45.1874 46.1695 45.2847L44.4359 34.9415C44.3839 35.4823 44.1615 36.1807 43.7615 37.0271C43.717 37.1207 43.7001 37.225 43.7129 37.3279C43.7257 37.4307 43.7676 37.5277 43.8336 37.6076C43.8997 37.6874 43.9872 37.7467 44.0858 37.7785C44.1844 37.8103 44.29 37.8133 44.3903 37.7871C45.2741 37.5473 46.1942 37.4706 47.1055 37.5607C48.1287 37.6655 48.5807 38.1895 48.5103 38.8983C48.4663 39.3431 48.2903 39.6567 47.9695 39.8823M47.4951 42.9055L47.7456 43.3382C48.2908 43.0225 48.6589 42.6049 48.7346 42.0418L48.7347 42.0415C48.8092 41.4844 48.6192 40.9185 48.2454 40.3548L48.2454 40.3547C48.2387 40.3447 48.2362 40.3324 48.2384 40.3205C48.2407 40.3086 48.2475 40.2981 48.2573 40.2912L47.9695 39.8823M34.9919 45.0319V45.4624C34.9409 45.3986 34.9076 45.3066 34.9063 45.1715L34.9087 39.3153L34.9087 39.2935L34.9068 39.2717C34.8909 39.0891 34.9435 38.9565 35.0407 38.8614L35.0411 38.8609C35.1402 38.7639 35.2722 38.7122 35.4317 38.7158L35.4317 38.7159H35.4431H36.376C36.3658 38.7457 36.3569 38.7758 36.3494 38.8063H35.4919V39.3063H34.9919V45.0319ZM35.4444 45.6225C35.2757 45.6272 35.157 45.5911 35.0684 45.5319H35.4919H36.373C36.3806 45.5545 36.3889 45.5768 36.398 45.5988C36.4012 45.6067 36.4046 45.6145 36.408 45.6223H35.4583H35.4575V46.0936L35.4444 45.6225ZM37.3191 44.5319V39.8054C37.348 39.8042 37.3768 39.8018 37.4055 39.7982V44.5319H37.3191Z" fill="white" stroke="#E04357"/>
</g>
<defs>
<clipPath id="clip0_13290_16260">
<rect width="16" height="16" fill="white" transform="translate(34.4038 31.7103)"/>
</clipPath>
</defs>
</svg>
