<svg width="16" height="16" viewBox="0 0 16 16" fill="none" xmlns="http://www.w3.org/2000/svg">
<path d="M7.99997 15.4999C12.1421 15.4999 15.4999 12.1421 15.4999 7.99997C15.4999 3.85785 12.1421 0.5 7.99997 0.5C3.85785 0.5 0.5 3.85785 0.5 7.99997C0.5 12.1421 3.85785 15.4999 7.99997 15.4999Z" fill="#FF4F6B"/>
<path d="M7.99918 0.5C7.67326 0.5 7.3522 0.520981 7.03711 0.561511C10.72 1.03517 13.5751 4.1904 13.5751 7.99997C13.5751 11.8095 10.7199 14.9648 7.03711 15.4384C7.3522 15.479 7.67326 15.4999 7.99918 15.4999C12.1347 15.4999 15.4992 12.1355 15.4992 7.99997C15.4992 3.86448 12.1347 0.5 7.99918 0.5Z" fill="#FB2B3A"/>
<path d="M13.5005 8.89032C13.9932 5.85091 11.9287 2.98756 8.88923 2.49484C5.84978 2.00212 2.98641 4.06663 2.49369 7.10604C2.00098 10.1454 4.06552 13.0088 7.10496 13.5015C10.1444 13.9942 13.0078 11.9297 13.5005 8.89032Z" fill="white"/>
<path d="M6.44727 10.2034V5.79864C6.44727 5.35249 6.95485 5.09624 7.3139 5.36109L10.2989 7.56346C10.5934 7.7808 10.5934 8.22122 10.2989 8.43856L7.3139 10.6409C6.95485 10.9059 6.44727 10.6496 6.44727 10.2034Z" fill="#FF4F6B"/>
<path d="M10.2989 7.56346L7.3139 5.36109C6.95492 5.09624 6.44727 5.35249 6.44727 5.79864V6.14137C7.69921 7.06509 7.69921 8.937 6.44727 9.86072V10.2034C6.44727 10.6496 6.95485 10.9058 7.3139 10.641L10.2989 8.43862C10.5934 8.22122 10.5934 7.7808 10.2989 7.56346Z" fill="#FB2B3A"/>
</svg>
