<svg xmlns="http://www.w3.org/2000/svg" xmlns:xlink="http://www.w3.org/1999/xlink" width="340.143" height="282.086" viewBox="0 0 340.143 282.086">
  <defs>
    <linearGradient id="linear-gradient" x1="6.341" y1="1" x2="6.341" gradientUnits="objectBoundingBox">
      <stop offset="0" stop-color="gray" stop-opacity="0.251"/>
      <stop offset="0.54" stop-color="gray" stop-opacity="0.122"/>
      <stop offset="1" stop-color="gray" stop-opacity="0.102"/>
    </linearGradient>
  </defs>
  <g id="Group_14360" data-name="Group 14360" transform="translate(-649.8 -210.471)">
    <g id="undraw_events_2p66" transform="translate(649.8 210.471)">
      <path id="Path_7818" data-name="Path 7818" d="M434.852,205.457c-13.064,21.134-10.616,49.926-4.878,72.627,1.92,7.6,4.132,15.625,2.49,24.132-2.008,10.4-9.327,18.57-16.735,23.248-13.5,8.507-28.926,8.27-40.155-.623-9.7-7.682-16.083-21.081-25.984-28.351-16.555-12.17-39.288-4.794-59.028,6.58-13.959,8.027-29.324,18.242-42.226,12.459-9.077-4.061-14.738-15.519-17.379-27.989-1.275-6.02-2.046-12.6-4.97-17.182a19.284,19.284,0,0,0-6.611-6.048c-22.631-13.646-53.251-2.237-75.075-17.689-14.741-10.433-23.121-31.983-25.875-55.026s-.49-47.7,2.346-71.976c2.018-17.26,4.748-35.724,13.808-49.76C144.163,55.011,159.27,48.371,172.4,49.78s24.533,9.729,34.361,19.9c12.282,12.709,23.36,28.94,39.257,33.04,10.828,2.793,22.652-.44,34.167-2.268,19.225-3.057,38.182-2.18,57.006-1.032,18.02,1.1,36.15,2.466,52.941,8.806,11.881,4.491,21,13.839,32.089,19.919,7.228,3.963,15.382,4.466,22.117,9.75A33.257,33.257,0,0,1,456.49,171.6C453.323,186.053,441.784,194.242,434.852,205.457Z" transform="translate(-117.177 -49.595)" fill="#ebebeb" opacity="0.68"/>
      <path id="Path_7820" data-name="Path 7820" d="M914.6,238.74l-15.389-3.47S902.841,251.5,914.6,238.74Z" transform="translate(-623.75 -169.869)" fill="#6c63ff"/>
      <path id="Path_7822" data-name="Path 7822" d="M934.225,205.2,920.16,202.73S928.994,216.168,934.225,205.2Z" transform="translate(-637.321 -148.79)" fill="#6c63ff"/>
      <path id="Path_7880" data-name="Path 7880" d="M0,0H196.308V227.928H0Z" transform="translate(70.35 14.408)" fill="#f7f7fd"/>
      <rect id="Rectangle_3741" data-name="Rectangle 3741" width="49.626" height="3.952" transform="translate(82.206 40.1)" fill="#e8505b"/>
      <rect id="Rectangle_3742" data-name="Rectangle 3742" width="84.758" height="3.952" transform="translate(82.206 49.762)" fill="#e8505b"/>
      <rect id="Rectangle_3743" data-name="Rectangle 3743" width="35.22" height="30.391" transform="translate(222.036 36.324)" fill="#fff"/>
      <path id="Path_7828" data-name="Path 7828" d="M782.223,152.572v30.039H747.352V152.572h34.871m.352-.352H747v30.743h35.576Z" transform="translate(-525.154 -116.072)" fill="#e2e2ec"/>
      <rect id="Rectangle_3744" data-name="Rectangle 3744" width="35.22" height="30.391" transform="translate(186.464 36.324)" fill="#fff"/>
      <path id="Path_7829" data-name="Path 7829" d="M681.224,152.572v30.039H646.352V152.572h34.871m.352-.352H646v30.743h35.576Z" transform="translate(-459.73 -116.072)" fill="#e2e2ec"/>
      <rect id="Rectangle_3745" data-name="Rectangle 3745" width="35.22" height="30.391" transform="translate(222.036 67.067)" fill="#fff"/>
      <path id="Path_7830" data-name="Path 7830" d="M782.223,239.852v30.039H747.352V239.852h34.871m.352-.352H747v30.743h35.576Z" transform="translate(-525.154 -172.609)" fill="#e2e2ec"/>
      <rect id="Rectangle_3746" data-name="Rectangle 3746" width="35.22" height="30.391" transform="translate(186.464 67.067)" fill="#fff"/>
      <path id="Path_7831" data-name="Path 7831" d="M681.224,239.852v30.039H646.352V239.852h34.871m.352-.352H646v30.743h35.576Z" transform="translate(-459.73 -172.609)" fill="#e2e2ec"/>
      <rect id="Rectangle_3747" data-name="Rectangle 3747" width="35.22" height="30.391" transform="translate(150.892 67.067)" fill="#fff"/>
      <path id="Path_7832" data-name="Path 7832" d="M580.274,239.852v30.039H545.4V239.852h34.872m.352-.352H545.05v30.743h35.576Z" transform="translate(-394.338 -172.609)" fill="#e2e2ec"/>
      <rect id="Rectangle_3748" data-name="Rectangle 3748" width="35.22" height="30.391" transform="translate(115.32 67.067)" fill="#fff"/>
      <path id="Path_7833" data-name="Path 7833" d="M479.283,239.852v30.039H444.412V239.852h34.871m.352-.352H444.06v30.743h35.576Z" transform="translate(-328.92 -172.609)" fill="#e2e2ec"/>
      <rect id="Rectangle_3749" data-name="Rectangle 3749" width="35.22" height="30.391" transform="translate(79.747 67.067)" fill="#fff"/>
      <path id="Path_7834" data-name="Path 7834" d="M378.293,239.852v30.039H343.422V239.852h34.871m.352-.352H343.07v30.743h35.576Z" transform="translate(-263.502 -172.609)" fill="#e2e2ec"/>
      <rect id="Rectangle_3750" data-name="Rectangle 3750" width="35.22" height="30.391" transform="translate(222.036 97.807)" fill="#fff"/>
      <path id="Path_7835" data-name="Path 7835" d="M782.223,327.132v30.039H747.352V327.132h34.871m.352-.352H747v30.743h35.576Z" transform="translate(-525.154 -229.146)" fill="#e2e2ec"/>
      <rect id="Rectangle_3751" data-name="Rectangle 3751" width="35.22" height="30.391" transform="translate(186.464 97.807)" fill="#fff"/>
      <path id="Path_7836" data-name="Path 7836" d="M681.224,327.132v30.039H646.352V327.132h34.871m.352-.352H646v30.743h35.576Z" transform="translate(-459.73 -229.146)" fill="#e2e2ec"/>
      <rect id="Rectangle_3752" data-name="Rectangle 3752" width="35.22" height="30.391" transform="translate(150.892 97.807)" fill="#fff"/>
      <path id="Path_7837" data-name="Path 7837" d="M580.274,327.132v30.039H545.4V327.132h34.872m.352-.352H545.05v30.743h35.576Z" transform="translate(-394.338 -229.146)" fill="#e2e2ec"/>
      <rect id="Rectangle_3753" data-name="Rectangle 3753" width="35.22" height="30.391" transform="translate(115.32 97.807)" fill="#fff"/>
      <path id="Path_7838" data-name="Path 7838" d="M479.283,327.132v30.039H444.412V327.132h34.871m.352-.352H444.06v30.743h35.576Z" transform="translate(-328.92 -229.146)" fill="#e2e2ec"/>
      <rect id="Rectangle_3754" data-name="Rectangle 3754" width="35.22" height="30.391" transform="translate(79.747 97.807)" fill="#fff"/>
      <path id="Path_7839" data-name="Path 7839" d="M378.293,327.132v30.039H343.422V327.132h34.871m.352-.352H343.07v30.743h35.576Z" transform="translate(-263.502 -229.146)" fill="#e2e2ec"/>
      <rect id="Rectangle_3755" data-name="Rectangle 3755" width="35.22" height="30.391" transform="translate(222.036 128.55)" fill="#fff"/>
      <path id="Path_7840" data-name="Path 7840" d="M782.223,414.4v30.039H747.352V414.4h34.871m.352-.352H747v30.743h35.576Z" transform="translate(-525.154 -285.676)" fill="#e2e2ec"/>
      <rect id="Rectangle_3756" data-name="Rectangle 3756" width="35.22" height="30.391" transform="translate(186.464 128.55)" fill="#fff"/>
      <path id="Path_7841" data-name="Path 7841" d="M681.224,414.4v30.039H646.352V414.4h34.871m.352-.352H646v30.743h35.576Z" transform="translate(-459.73 -285.676)" fill="#e2e2ec"/>
      <rect id="Rectangle_3757" data-name="Rectangle 3757" width="35.22" height="30.391" transform="translate(150.892 128.55)" fill="#fff"/>
      <path id="Path_7842" data-name="Path 7842" d="M580.274,414.4v30.039H545.4V414.4h34.872m.352-.352H545.05v30.743h35.576Z" transform="translate(-394.338 -285.676)" fill="#e2e2ec"/>
      <rect id="Rectangle_3758" data-name="Rectangle 3758" width="35.22" height="30.391" transform="translate(115.32 128.55)" fill="#fff"/>
      <path id="Path_7843" data-name="Path 7843" d="M479.283,414.4v30.039H444.412V414.4h34.871m.352-.352H444.06v30.743h35.576Z" transform="translate(-328.92 -285.676)" fill="#e2e2ec"/>
      <rect id="Rectangle_3759" data-name="Rectangle 3759" width="35.22" height="30.391" transform="translate(79.747 128.55)" fill="#fff"/>
      <path id="Path_7844" data-name="Path 7844" d="M378.293,414.4v30.039H343.422V414.4h34.871m.352-.352H343.07v30.743h35.576Z" transform="translate(-263.502 -285.676)" fill="#e2e2ec"/>
      <rect id="Rectangle_3760" data-name="Rectangle 3760" width="35.22" height="30.391" transform="translate(222.036 159.29)" fill="#fff"/>
      <path id="Path_7845" data-name="Path 7845" d="M782.223,501.682v30.035H747.352V501.682h34.871m.352-.352H747v30.74h35.576Z" transform="translate(-525.154 -342.213)" fill="#e2e2ec"/>
      <rect id="Rectangle_3761" data-name="Rectangle 3761" width="35.22" height="30.391" transform="translate(186.464 159.29)" fill="#fff"/>
      <path id="Path_7846" data-name="Path 7846" d="M681.224,501.682v30.035H646.352V501.682h34.871m.352-.352H646v30.74h35.576Z" transform="translate(-459.73 -342.213)" fill="#e2e2ec"/>
      <rect id="Rectangle_3762" data-name="Rectangle 3762" width="35.22" height="30.391" transform="translate(150.892 159.29)" fill="#fff"/>
      <path id="Path_7847" data-name="Path 7847" d="M580.274,501.682v30.035H545.4V501.682h34.872m.352-.352H545.05v30.74h35.576Z" transform="translate(-394.338 -342.213)" fill="#e2e2ec"/>
      <rect id="Rectangle_3763" data-name="Rectangle 3763" width="35.22" height="30.391" transform="translate(115.32 159.29)" fill="#fff"/>
      <path id="Path_7848" data-name="Path 7848" d="M479.283,501.682v30.035H444.412V501.682h34.871m.352-.352H444.06v30.74h35.576Z" transform="translate(-328.92 -342.213)" fill="#e2e2ec"/>
      <rect id="Rectangle_3764" data-name="Rectangle 3764" width="35.22" height="30.391" transform="translate(79.747 159.29)" fill="#fff"/>
      <path id="Path_7849" data-name="Path 7849" d="M378.293,501.682v30.035H343.422V501.682h34.871m.352-.352H343.07v30.74h35.576Z" transform="translate(-263.502 -342.213)" fill="#e2e2ec"/>
      <rect id="Rectangle_3765" data-name="Rectangle 3765" width="35.22" height="30.391" transform="translate(222.036 190.033)" fill="#fff"/>
      <path id="Path_7850" data-name="Path 7850" d="M782.223,588.952v30.039H747.352V588.952h34.871m.352-.352H747v30.743h35.576Z" transform="translate(-525.154 -398.743)" fill="#e2e2ec"/>
      <rect id="Rectangle_3766" data-name="Rectangle 3766" width="35.22" height="30.391" transform="translate(186.464 190.033)" fill="#fff"/>
      <path id="Path_7851" data-name="Path 7851" d="M681.224,588.952v30.039H646.352V588.952h34.871m.352-.352H646v30.743h35.576Z" transform="translate(-459.73 -398.743)" fill="#e2e2ec"/>
      <rect id="Rectangle_3767" data-name="Rectangle 3767" width="35.22" height="30.391" transform="translate(150.892 190.033)" fill="#fff"/>
      <path id="Path_7852" data-name="Path 7852" d="M580.274,588.952v30.039H545.4V588.952h34.872m.352-.352H545.05v30.743h35.576Z" transform="translate(-394.338 -398.743)" fill="#e2e2ec"/>
      <rect id="Rectangle_3768" data-name="Rectangle 3768" width="35.22" height="30.391" transform="translate(115.32 190.033)" fill="#fff"/>
      <path id="Path_7853" data-name="Path 7853" d="M479.283,588.952v30.039H444.412V588.952h34.871m.352-.352H444.06v30.743h35.576Z" transform="translate(-328.92 -398.743)" fill="#e2e2ec"/>
      <rect id="Rectangle_3769" data-name="Rectangle 3769" width="35.22" height="30.391" transform="translate(79.747 190.033)" fill="#fff"/>
      <path id="Path_7854" data-name="Path 7854" d="M378.293,588.952v30.039H343.422V588.952h34.871m.352-.352H343.07v30.743h35.576Z" transform="translate(-263.502 -398.743)" fill="#e2e2ec"/>
      <circle id="Ellipse_1423" data-name="Ellipse 1423" cx="2.008" cy="2.008" r="2.008" transform="translate(82.386 69.681)" fill="#e8505b"/>
      <circle id="Ellipse_1424" data-name="Ellipse 1424" cx="2.008" cy="2.008" r="2.008" transform="translate(87.401 69.681)" fill="#e8505b"/>
      <circle id="Ellipse_1425" data-name="Ellipse 1425" cx="2.008" cy="2.008" r="2.008" transform="translate(153.284 99.445)" fill="#e8505b"/>
      <circle id="Ellipse_1426" data-name="Ellipse 1426" cx="2.008" cy="2.008" r="2.008" transform="translate(158.303 99.445)" fill="#e8505b"/>
      <circle id="Ellipse_1427" data-name="Ellipse 1427" cx="2.008" cy="2.008" r="2.008" transform="translate(260.634 156.965)" fill="#6c63ff"/>
      <circle id="Ellipse_1428" data-name="Ellipse 1428" cx="2.008" cy="2.008" r="2.008" transform="translate(261.638 154.626)" fill="#6c63ff"/>
      <circle id="Ellipse_1429" data-name="Ellipse 1429" cx="2.008" cy="2.008" r="2.008" transform="translate(262.642 152.618)" fill="#6c63ff"/>
      <circle id="Ellipse_1430" data-name="Ellipse 1430" cx="2.008" cy="2.008" r="2.008" transform="translate(225.185 69.681)" fill="#e8505b"/>
      <circle id="Ellipse_1431" data-name="Ellipse 1431" cx="2.008" cy="2.008" r="2.008" transform="translate(230.201 69.681)" fill="#e8505b"/>
      <circle id="Ellipse_1432" data-name="Ellipse 1432" cx="2.008" cy="2.008" r="2.008" transform="translate(235.22 69.681)" fill="#e8505b"/>
      <circle id="Ellipse_1433" data-name="Ellipse 1433" cx="2.008" cy="2.008" r="2.008" transform="translate(240.236 69.681)" fill="#e8505b"/>
      <circle id="Ellipse_1434" data-name="Ellipse 1434" cx="2.008" cy="2.008" r="2.008" transform="translate(225.185 131.882)" fill="#e8505b"/>
      <circle id="Ellipse_1435" data-name="Ellipse 1435" cx="2.008" cy="2.008" r="2.008" transform="translate(230.201 131.882)" fill="#e8505b"/>
      <circle id="Ellipse_1436" data-name="Ellipse 1436" cx="2.008" cy="2.008" r="2.008" transform="translate(235.22 131.882)" fill="#e8505b"/>
      <circle id="Ellipse_1437" data-name="Ellipse 1437" cx="2.008" cy="2.008" r="2.008" transform="translate(240.236 131.882)" fill="#e8505b"/>
      <circle id="Ellipse_1438" data-name="Ellipse 1438" cx="2.008" cy="2.008" r="2.008" transform="translate(117.835 99.445)" fill="#e8505b"/>
      <circle id="Ellipse_1439" data-name="Ellipse 1439" cx="2.008" cy="2.008" r="2.008" transform="translate(82.386 129.878)" fill="#e8505b"/>
      <path id="Path_7856" data-name="Path 7856" d="M855.706,307.784c2.2,1.3,5.636,2.145,9.986-.648l-.042,6.185c.31,4.227,5.555,19.693,5.555,19.693l3.7,12.716a99.5,99.5,0,0,1,4.065,27.661,26.474,26.474,0,0,0,1.18,8.707c1.969,5.322-.775,12.18-1.965,14.734a61.853,61.853,0,0,1-6.1,1.719,4.172,4.172,0,0,0-.546.166l-.025-.035s-5.551,2.2-8.017,1.9c-1.839-.225-2.99,2.068-1.55,3.755a11.272,11.272,0,0,1-3.695.486c-2.466-.3-3.7,3.938.926,5.15s30.852,0,30.852,0A3.72,3.72,0,0,0,892,405.864c2.015-.078,3.272-.138,3.272-.138s4.628-2.113,0-7.879l-.247.187-.99-2.913v-3.934s5.861-28.179,4.012-31.511-2.776-20.3-2.776-20.3l.627-18.482c1.673-3.452,2.529-8.862,2.962-13.093a27.782,27.782,0,0,0,1.183-6.21c.074-.993.134-2.036.173-3.117a20.9,20.9,0,0,0-1.148-6.971,69.179,69.179,0,0,1,6.988-8.774,9,9,0,0,0,2.776-7.879l-1.543-10.3-3.7-17.573c.465-4.875-.553-7.682-1.677-9.267.268-1.574.518-3.149.7-4.731a60.534,60.534,0,0,0-1.081-20.6,13.95,13.95,0,0,0-2.917-6.559c-1.87-2.022-4.907-3.255-5.6-5.9a17.125,17.125,0,0,0-.43-1.994c-.676-1.733-2.818-2.364-4.692-2.589-3.339-.405-8.168-.7-11.377.6a13.8,13.8,0,0,0-6.552,6.143,4.619,4.619,0,0,0-.2,5.072,11.624,11.624,0,0,0-.719,4.047,11.821,11.821,0,0,0,7.545,10.965c.074.232.141.461.2.687a11.779,11.779,0,0,1,.3,1.652c-.06,1.057-.127,2.145-.176,3.219q-.053.222-.113.437a79.361,79.361,0,0,0-7.749,3.952c1.853,2.726-.31,14.241-.31,14.241-4.628,2.726-9.257,9.7-4.318,16.967a18.14,18.14,0,0,1,2.159,15.146l-.771,11.846h0v.021l-.155,2.371h.06l-.06.9.134.025v.965a14.388,14.388,0,0,0-7.221,5.372,18.952,18.952,0,0,1-3.23,3.963,2.381,2.381,0,0,0,.37,3.864Zm37.252-31.476a11.273,11.273,0,0,1,1.1-5.96q1.088.021,2.18.025c.074.511.162,1,.268,1.441.627,2.67-1.878,3.949-3.547,4.491Z" transform="translate(-594.797 -143.775)" fill="url(#linear-gradient)"/>
      <path id="Path_7857" data-name="Path 7857" d="M920.047,754.91l1.187,3.561-3.875,3.874-12.765,2.969-9.2-.891.6-3.265h0a3.938,3.938,0,0,1,2.924-2.878c3.783-.888,11-2.917,12.511-5.731Z" transform="translate(-621.276 -504.944)" fill="#db8b8b"/>
      <path id="Path_7858" data-name="Path 7858" d="M920.047,754.91l1.187,3.561-3.875,3.874-12.765,2.969-9.2-.891.6-3.265h0a3.938,3.938,0,0,1,2.924-2.878c3.783-.888,11-2.917,12.511-5.731Z" transform="translate(-621.276 -504.944)" fill="#ffbe9d" opacity="0.1"/>
      <path id="Path_7859" data-name="Path 7859" d="M885.777,772.775l1.782-2.374-1.782-2.751s-5.344,2.156-7.718,1.86-3.561,3.875.891,5.048,29.686,0,29.686,0,4.452-2.078,0-7.717l-3.875,2.969s-6.53,3.561-9.8,2.969Z" transform="translate(-608.679 -514.201)" fill="#e03249"/>
      <path id="Path_7860" data-name="Path 7860" d="M881.1,776.144l9.2.891,12.765-2.969,3.875-3.875-.313-.944-.444-1.325-.444-1.289-8.609-2.374a5.333,5.333,0,0,1-1.761,1.761c-2.8,1.913-7.82,3.293-10.768,3.984a3.1,3.1,0,0,0-.352.109,3.924,3.924,0,0,0-2.557,2.769Z" transform="translate(-612.019 -512.53)" fill="#ffbe9d"/>
      <path id="Path_7861" data-name="Path 7861" d="M881.1,785.317l9.2.891,12.765-2.969,3.875-3.875-.313-.944-3.544,2.726s-6.531,3.561-9.8,2.969h-9.222l1.782-2.374-1.6-2.466a3.924,3.924,0,0,0-2.557,2.768Z" transform="translate(-612.019 -521.702)" opacity="0.1"/>
      <path id="Path_7862" data-name="Path 7862" d="M871.447,784.575l1.782-2.374-1.782-2.751s-5.343,2.156-7.717,1.86-3.561,3.875.891,5.047,29.686,0,29.686,0,4.453-2.078,0-7.717l-3.874,2.969s-6.531,3.561-9.8,2.969Z" transform="translate(-599.397 -521.844)" fill="#e03249"/>
      <path id="Path_7863" data-name="Path 7863" d="M910.6,277.731s14.251,1.483,12.173-4.452a10.683,10.683,0,0,1-.44-5.241A14.529,14.529,0,0,1,924.852,262l-13.36,2.078a16.735,16.735,0,0,1,1.81,4.29C914.894,274.663,910.6,277.731,910.6,277.731Z" transform="translate(-631.128 -187.183)" fill="#db8b8b"/>
      <path id="Path_7864" data-name="Path 7864" d="M948.015,498.82s-.3,12.765-3.265,19l-.6,18.108s.891,16.626,2.673,19.891-3.875,30.873-3.875,30.873v4.752s-9.51,3.561-12.173-.6l2.674-35.329-1.187-48.982Z" transform="translate(-644.2 -340.587)" fill="#474463"/>
      <path id="Path_7865" data-name="Path 7865" d="M948.015,498.82s-.3,12.765-3.265,19l-.6,18.108s.891,16.626,2.673,19.891-3.875,30.873-3.875,30.873v4.752s-9.51,3.561-12.173-.6l2.674-35.329-1.187-48.982Z" transform="translate(-644.2 -340.587)" fill="#263238"/>
      <path id="Path_7866" data-name="Path 7866" d="M972.007,382.51l1.782,4.752,1.483,10.1a8.929,8.929,0,0,1-2.674,7.718c-3.561,3.561-8.313,10.983-8.313,10.983L958.65,399.15s5.636-.891,4.752-4.752-.6-11.011-.6-11.011Z" transform="translate(-662.253 -265.246)" fill="#fc6681"/>
      <path id="Path_7867" data-name="Path 7867" d="M972.007,382.51l1.782,4.752,1.483,10.1a8.929,8.929,0,0,1-2.674,7.718c-3.561,3.561-8.313,10.983-8.313,10.983L958.65,399.15s5.636-.891,4.752-4.752-.6-11.011-.6-11.011Z" transform="translate(-662.253 -265.246)" fill="#e03249"/>
      <path id="Path_7868" data-name="Path 7868" d="M921.66,766.025c3.808,5.988,9.736,2.6,10.786,1.92l-.43-1.31-8.609-2.374A5.334,5.334,0,0,1,921.66,766.025Z" transform="translate(-638.292 -512.53)" opacity="0.1"/>
      <path id="Path_7869" data-name="Path 7869" d="M887.85,471.066c.3,4.156,5.344,19.3,5.344,19.3l3.561,12.459a99.137,99.137,0,0,1,3.913,27.1,26.32,26.32,0,0,0,1.138,8.531c2.374,6.53-2.374,15.439-2.374,15.439,4.156,7.421,11.272,2.374,11.272,2.374v-4.748s5.636-25.829,4.156-30.873-2.078-18.7-2.078-18.7V477.283a27.96,27.96,0,0,0,8.147-17.725c.07-.972.127-1.994.166-3.054.24-6.693-4.34-14.551-6.129-17.348-.43-.676-.7-1.057-.7-1.057l-26.213,10.4-.06.025v3.258Z" transform="translate(-616.391 -301.255)" fill="#263238"/>
      <path id="Path_7870" data-name="Path 7870" d="M913.13,264.075a16.719,16.719,0,0,1,1.811,4.29,11.624,11.624,0,0,0,9.031-.331A14.532,14.532,0,0,1,926.49,262Z" transform="translate(-632.767 -187.183)" opacity="0.1"/>
      <circle id="Ellipse_1440" data-name="Ellipse 1440" cx="11.578" cy="11.578" r="11.578" transform="translate(274.724 58.184)" fill="#ffbe9d"/>
      <path id="Path_7871" data-name="Path 7871" d="M887.85,451.8l.127.025c12.448,2.561,28.077-10.416,28.077-10.416a15.387,15.387,0,0,1-1.081-2.208c-.43-.676-.7-1.057-.7-1.057l-26.213,10.4-.067,1.039Z" transform="translate(-616.391 -301.281)" opacity="0.1"/>
      <path id="Path_7872" data-name="Path 7872" d="M885.182,293.043s16.625-10.1,21.969-5.939l7.422,9.51s4.752,1.483,3.874,10.983l3.547,17.214-10.687,2.673s-6.234,5.939-1.187,14.547c0,0-15.734,13.061-28.2,10.391l.891-13.952a18.069,18.069,0,0,0-2.078-14.843c-4.752-7.126-.3-13.952,4.156-16.626C884.886,307,886.96,295.716,885.182,293.043Z" transform="translate(-610.458 -202.795)" fill="#e03249"/>
      <path id="Path_7873" data-name="Path 7873" d="M870.528,477.75s-6.235,1.187-9.2,5.939a18.5,18.5,0,0,1-3.107,3.875,2.356,2.356,0,0,0,.352,3.755c2.356,1.409,6.2,2.286,11.053-1.7C877.95,482.8,870.528,477.75,870.528,477.75Z" transform="translate(-596.696 -326.939)" fill="#db8b8b"/>
      <path id="Path_7874" data-name="Path 7874" d="M902.187,321.42s5.939-.6,7.422,14.843,3.875,19,3.875,19,1.483,8.017-2.078,12.765-10.391,14.843-10.391,14.843-7.422,2.078-8.9-5.343l9.2-17.217s1.483-5.939-2.078-10.1S892.984,318.451,902.187,321.42Z" transform="translate(-619.151 -225.529)" opacity="0.1"/>
      <path id="Path_7875" data-name="Path 7875" d="M900.467,318.89s5.939-.6,7.422,14.843,3.875,19,3.875,19,1.483,8.017-2.078,12.765-10.391,14.843-10.391,14.843-7.422,2.078-8.9-5.344l9.2-17.217s1.483-5.939-2.078-10.1S891.274,315.921,900.467,318.89Z" transform="translate(-618.037 -223.89)" fill="#e03249"/>
      <path id="Path_7876" data-name="Path 7876" d="M905.017,350.9s-.592,9.193,2.071,14.251,2.673,11.578,0,15.146" transform="translate(-627.475 -244.77)" opacity="0.1"/>
      <path id="Path_7877" data-name="Path 7877" d="M900.91,309.6s2.374-2.374,9.2-2.673,9.8-2.374,9.8-2.374" transform="translate(-624.851 -214.746)" opacity="0.1"/>
      <path id="Path_7878" data-name="Path 7878" d="M915.2,204.552c1.8.222,3.875.842,4.516,2.536a17.352,17.352,0,0,1,.412,1.955c.673,2.592,3.593,3.8,5.393,5.784a14.006,14.006,0,0,1,2.818,6.425,60.374,60.374,0,0,1,1.057,20.169c-.578,4.931-1.761,9.771-2.092,14.716s.275,10.148,2.976,14.3c1.162,1.786,2.7,3.357,3.522,5.322-1.7,1.381-4.051,1.578-6.245,1.652q-3.829.13-7.661,0a8.171,8.171,0,0,1-3.892-.81,6.009,6.009,0,0,1-2.043-2.194,15.6,15.6,0,0,1-1.761-8.334c.067-2.874.518-5.734.571-8.612a7.534,7.534,0,0,0-1-4.516,14.715,14.715,0,0,0-2.487-2.3c-3.17-2.818-4.269-7.334-4.375-11.578s.6-8.5.236-12.726c-.141-1.655-.761-3.646-2.388-3.966a8.406,8.406,0,0,1-1.55-.2c-1.307-.5-1.18-2.346-1.553-3.695-.419-1.515-1.712-2.684-2.075-4.227-.856-3.593,3.716-7.88,6.714-9.13C907.337,203.854,911.983,204.157,915.2,204.552Z" transform="translate(-622.624 -149.749)" opacity="0.1"/>
      <path id="Path_7879" data-name="Path 7879" d="M916.036,202.867c1.8.222,3.875.842,4.516,2.536a17.353,17.353,0,0,1,.412,1.955c.673,2.592,3.593,3.8,5.393,5.784a14,14,0,0,1,2.818,6.425,60.367,60.367,0,0,1,1.057,20.169c-.578,4.931-1.761,9.771-2.092,14.716s.275,10.148,2.977,14.3c1.162,1.786,2.7,3.357,3.522,5.322-1.7,1.381-4.051,1.578-6.245,1.652q-3.829.13-7.661,0a8.17,8.17,0,0,1-3.892-.81,6.009,6.009,0,0,1-2.043-2.194,15.6,15.6,0,0,1-1.761-8.334c.067-2.874.518-5.734.571-8.612a7.534,7.534,0,0,0-1-4.516,14.707,14.707,0,0,0-2.487-2.3c-3.17-2.818-4.269-7.334-4.375-11.578s.6-8.5.236-12.726c-.141-1.655-.761-3.646-2.388-3.966a8.408,8.408,0,0,1-1.55-.2c-1.307-.5-1.18-2.346-1.553-3.695-.419-1.515-1.712-2.684-2.075-4.227-.856-3.593,3.716-7.879,6.714-9.13C908.177,202.166,912.823,202.469,916.036,202.867Z" transform="translate(-623.168 -148.656)" fill="#263238"/>
    </g>
    <g id="Plant" transform="translate(682.056 352.409)">
      <g id="Group_10911" data-name="Group 10911" transform="translate(28.06 38.423)">
        <g id="Group_10910" data-name="Group 10910">
          <g id="Group_10909" data-name="Group 10909">
            <path id="Path_7236" data-name="Path 7236" d="M600.184,338.209c2.392,8.1.576,18.5-2.323,26.432a40.051,40.051,0,0,1-15.453,19.534c-.795.525-1.813,1.03-2.65.578a2.706,2.706,0,0,1-1.075-1.99,41.252,41.252,0,0,1,21.5-44.553" transform="translate(-577.926 -338.209)" fill="#e8505b"/>
          </g>
        </g>
      </g>
      <g id="Group_10914" data-name="Group 10914" transform="translate(28.06 38.423)" opacity="0.2">
        <g id="Group_10913" data-name="Group 10913">
          <g id="Group_10912" data-name="Group 10912">
            <path id="Path_7237" data-name="Path 7237" d="M600.184,338.209c2.392,8.1.576,18.5-2.323,26.432a40.051,40.051,0,0,1-15.453,19.534c-.795.525-1.813,1.03-2.65.578a2.706,2.706,0,0,1-1.075-1.99,41.252,41.252,0,0,1,21.5-44.553" transform="translate(-577.926 -338.209)" fill="#e8505b"/>
          </g>
        </g>
      </g>
      <g id="Group_10935" data-name="Group 10935">
        <g id="Group_10927" data-name="Group 10927">
          <g id="Group_10926" data-name="Group 10926">
            <g id="Group_10917" data-name="Group 10917">
              <g id="Group_10916" data-name="Group 10916">
                <g id="Group_10915" data-name="Group 10915">
                  <path id="Path_7238" data-name="Path 7238" d="M553.954,285.759c5.044-.137,8.369,5.466,8.875,10.487s-.613,10.234.861,15.06c1.872,6.13,7.6,10.526,9.337,16.7,2.047,7.275-1.944,14.825-2.135,22.381-.093,3.676.719,7.391.04,11a13.529,13.529,0,0,1-26.54.264c-1.181-5.66,1.314-11.673-.182-17.258-1.105-4.129-4.31-7.633-4.571-11.9-.311-5.076,3.618-9.464,4.346-14.5s-1.813-9.949-2.192-15.022c-.679-9.1,3.088-16.244,12.161-17.218" transform="translate(-539.621 -285.757)" fill="#e8505b"/>
                </g>
              </g>
            </g>
            <g id="Group_10921" data-name="Group 10921" transform="translate(25.378 55.299)">
              <g id="Group_10920" data-name="Group 10920">
                <g id="Group_10919" data-name="Group 10919">
                  <g id="Group_10918" data-name="Group 10918">
                    <path id="Path_7239" data-name="Path 7239" d="M574.271,409.567a2.183,2.183,0,0,0,.148-.5c.089-.385.2-.87.334-1.463.273-1.273.694-3.11,1.245-5.372a174.448,174.448,0,0,1,12.184-34.2c1-2.1,1.838-3.79,2.432-4.95.27-.545.49-.99.667-1.344a2.231,2.231,0,0,0,.2-.484,2.127,2.127,0,0,0-.289.438c-.2.344-.443.775-.746,1.3-.645,1.135-1.527,2.8-2.571,4.889a152.462,152.462,0,0,0-12.209,34.272c-.511,2.277-.882,4.128-1.1,5.414-.1.6-.181,1.09-.246,1.481A2.2,2.2,0,0,0,574.271,409.567Z" transform="translate(-574.265 -361.247)" fill="#263238"/>
                  </g>
                </g>
              </g>
            </g>
            <g id="Group_10925" data-name="Group 10925" transform="translate(14.538 24.818)">
              <g id="Group_10924" data-name="Group 10924">
                <g id="Group_10923" data-name="Group 10923">
                  <g id="Group_10922" data-name="Group 10922">
                    <path id="Path_7240" data-name="Path 7240" d="M559.473,319.636a4.954,4.954,0,0,0,.067.808q.106.852.284,2.3c.27,2.042.649,4.92,1.115,8.459.95,7.14,2.25,17.006,3.621,27.91s2.549,20.789,3.4,27.943c.423,3.543.768,6.426,1.012,8.471q.186,1.449.294,2.3a5.112,5.112,0,0,0,.135.8,5.266,5.266,0,0,0-.039-.809q-.076-.855-.205-2.31c-.208-2.05-.5-4.939-.861-8.489-.761-7.165-1.888-17.055-3.258-27.965s-2.725-20.767-3.761-27.9c-.529-3.529-.96-6.4-1.265-8.438q-.234-1.443-.372-2.29A5.139,5.139,0,0,0,559.473,319.636Z" transform="translate(-559.468 -319.636)" fill="#263238"/>
                  </g>
                </g>
              </g>
            </g>
          </g>
        </g>
        <g id="Group_10934" data-name="Group 10934" transform="translate(4.696 93.724)">
          <g id="Group_10928" data-name="Group 10928">
            <rect id="Rectangle_3689" data-name="Rectangle 3689" width="38.28" height="4.47" fill="#263238"/>
          </g>
          <g id="Group_10929" data-name="Group 10929" transform="translate(3.549 4.47)">
            <path id="Path_7241" data-name="Path 7241" d="M550.877,419.8l4.5,27.117h23.744l3.112-27.117Z" transform="translate(-550.877 -419.804)" fill="#263238"/>
          </g>
          <g id="Group_10931" data-name="Group 10931" transform="translate(3.431 4.209)">
            <g id="Group_10930" data-name="Group 10930">
              <path id="Path_7242" data-name="Path 7242" d="M582.306,419.526c0,.1-7.07.278-15.792.387s-15.8.111-15.8.006,7.068-.278,15.793-.387S582.306,419.42,582.306,419.526Z" transform="translate(-550.716 -419.448)" fill="#455a64"/>
            </g>
          </g>
          <g id="Group_10933" data-name="Group 10933" transform="translate(6.104 9.705)">
            <g id="Group_10932" data-name="Group 10932">
              <path id="Path_7243" data-name="Path 7243" d="M581.979,435.1a.867.867,0,0,1-.216.026l-.634.029a15.627,15.627,0,0,1-2.445-.094,7.481,7.481,0,0,1-3.619-1.357,5.091,5.091,0,0,1-1.577-1.865,3.663,3.663,0,0,1-.225-2.725,2.472,2.472,0,0,1,2.386-1.724,2.146,2.146,0,0,1,1.478.747,3.407,3.407,0,0,1,.739,1.535,5.244,5.244,0,0,1-3.636,5.7,5.843,5.843,0,0,1-6.794-3.112,5.177,5.177,0,0,1-.552-2.052,3.36,3.36,0,0,1,.556-2.108,2.656,2.656,0,0,1,1.9-1.144,2.267,2.267,0,0,1,2.01,1,3.537,3.537,0,0,1,.657,2.141,4.842,4.842,0,0,1-.549,2.124,6.632,6.632,0,0,1-3.052,2.894,12.351,12.351,0,0,1-3.906,1.1,8.565,8.565,0,0,1-3.881-.338,5.6,5.6,0,0,1-2.916-2.288,4.017,4.017,0,0,1-.376-3.457,3.141,3.141,0,0,1,2.406-2.147,3.075,3.075,0,0,1,2.8,1.044,2.634,2.634,0,0,1,.249,2.692,4.194,4.194,0,0,1-1.608,1.837,9.485,9.485,0,0,1-1.9.924c-.607.227-1.169.41-1.68.558a20.986,20.986,0,0,1-2.383.546c-.276.046-.487.075-.629.091a.906.906,0,0,1-.217.015.979.979,0,0,1,.21-.053l.621-.128c.544-.117,1.347-.3,2.355-.612.5-.157,1.059-.349,1.657-.585a9.442,9.442,0,0,0,1.85-.931,3.979,3.979,0,0,0,1.5-1.754,2.382,2.382,0,0,0-.235-2.43,2.8,2.8,0,0,0-2.544-.922,2.841,2.841,0,0,0-2.153,1.962,3.688,3.688,0,0,0,.365,3.176,5.263,5.263,0,0,0,2.746,2.131,8.23,8.23,0,0,0,3.72.308,12.015,12.015,0,0,0,3.783-1.075,6.264,6.264,0,0,0,2.88-2.73,3.714,3.714,0,0,0-.077-3.869,1.886,1.886,0,0,0-1.672-.842,2.28,2.28,0,0,0-1.625.983,2.988,2.988,0,0,0-.489,1.872,4.815,4.815,0,0,0,.51,1.9,5.491,5.491,0,0,0,6.351,2.944,4.923,4.923,0,0,0,3.435-5.3,3.114,3.114,0,0,0-.658-1.4,1.851,1.851,0,0,0-1.265-.655,2.194,2.194,0,0,0-2.115,1.519,3.414,3.414,0,0,0,.19,2.533,4.885,4.885,0,0,0,1.485,1.8,7.407,7.407,0,0,0,3.51,1.379,18.029,18.029,0,0,0,2.424.165l.634.009A.967.967,0,0,1,581.979,435.1Z" transform="translate(-554.365 -426.951)" fill="#455a64"/>
            </g>
          </g>
        </g>
      </g>
    </g>
    <g id="Group_13879" data-name="Group 13879" transform="translate(738.829 286.738)">
      <rect id="Rectangle_3969" data-name="Rectangle 3969" width="14.363" height="14.363" rx="1" fill="#e03249"/>
      <path id="Path_8479" data-name="Path 8479" d="M-21.55-.193a.186.186,0,0,0-.258-.049l-1.949,1.363V-.271a.547.547,0,0,0-.549-.549h-4.876a.55.55,0,0,0-.549.549V4.6a.547.547,0,0,0,.549.549h4.876a.545.545,0,0,0,.549-.549V3.212l1.949,1.363a.178.178,0,0,0,.1.037.19.19,0,0,0,.187-.19V-.088A.175.175,0,0,0-21.55-.193Zm-7.665.119a.252.252,0,0,1-.254-.254.251.251,0,0,1,.254-.25.25.25,0,0,1,.25.25A.251.251,0,0,1-29.215-.073Zm3.58,2.367-1.624,1.034-.026.015a.145.145,0,0,1-.056.007A.147.147,0,0,1-27.49,3.2V1.133l0-.03a.152.152,0,0,1,.146-.119.16.16,0,0,1,.082.022l1.624,1.038.026.019a.163.163,0,0,1,.022.026A.151.151,0,0,1-25.634,2.294Z" transform="translate(32.805 5.015)" fill="#fff"/>
    </g>
    <g id="Group_13880" data-name="Group 13880" transform="translate(775.616 317.866)">
      <rect id="Rectangle_3969-2" data-name="Rectangle 3969" width="14.363" height="14.363" rx="1" transform="translate(0 0)" fill="#e03249"/>
      <path id="Path_8479-2" data-name="Path 8479" d="M-21.55-.193a.186.186,0,0,0-.258-.049l-1.949,1.363V-.271a.547.547,0,0,0-.549-.549h-4.876a.55.55,0,0,0-.549.549V4.6a.547.547,0,0,0,.549.549h4.876a.545.545,0,0,0,.549-.549V3.212l1.949,1.363a.178.178,0,0,0,.1.037.19.19,0,0,0,.187-.19V-.088A.175.175,0,0,0-21.55-.193Zm-7.665.119a.252.252,0,0,1-.254-.254.251.251,0,0,1,.254-.25.25.25,0,0,1,.25.25A.251.251,0,0,1-29.215-.073Zm3.58,2.367-1.624,1.034-.026.015a.145.145,0,0,1-.056.007A.147.147,0,0,1-27.49,3.2V1.133l0-.03a.152.152,0,0,1,.146-.119.16.16,0,0,1,.082.022l1.624,1.038.026.019a.163.163,0,0,1,.022.026A.151.151,0,0,1-25.634,2.294Z" transform="translate(32.805 5.015)" fill="#fff"/>
    </g>
    <g id="Group_13881" data-name="Group 13881" transform="translate(738.829 348.994)">
      <rect id="Rectangle_3969-3" data-name="Rectangle 3969" width="14.363" height="14.363" rx="1" fill="#e03249"/>
      <path id="Path_8479-3" data-name="Path 8479" d="M-21.55-.193a.186.186,0,0,0-.258-.049l-1.949,1.363V-.271a.547.547,0,0,0-.549-.549h-4.876a.55.55,0,0,0-.549.549V4.6a.547.547,0,0,0,.549.549h4.876a.545.545,0,0,0,.549-.549V3.212l1.949,1.363a.178.178,0,0,0,.1.037.19.19,0,0,0,.187-.19V-.088A.175.175,0,0,0-21.55-.193Zm-7.665.119a.252.252,0,0,1-.254-.254.251.251,0,0,1,.254-.25.25.25,0,0,1,.25.25A.251.251,0,0,1-29.215-.073Zm3.58,2.367-1.624,1.034-.026.015a.145.145,0,0,1-.056.007A.147.147,0,0,1-27.49,3.2V1.133l0-.03a.152.152,0,0,1,.146-.119.16.16,0,0,1,.082.022l1.624,1.038.026.019a.163.163,0,0,1,.022.026A.151.151,0,0,1-25.634,2.294Z" transform="translate(32.805 5.015)" fill="#fff"/>
    </g>
    <g id="Group_13882" data-name="Group 13882" transform="translate(809.574 317.866)">
      <rect id="Rectangle_3969-4" data-name="Rectangle 3969" width="14.363" height="14.363" rx="1" transform="translate(0 0)" fill="#e03249"/>
      <path id="Path_8479-4" data-name="Path 8479" d="M-21.55-.193a.186.186,0,0,0-.258-.049l-1.949,1.363V-.271a.547.547,0,0,0-.549-.549h-4.876a.55.55,0,0,0-.549.549V4.6a.547.547,0,0,0,.549.549h4.876a.545.545,0,0,0,.549-.549V3.212l1.949,1.363a.178.178,0,0,0,.1.037.19.19,0,0,0,.187-.19V-.088A.175.175,0,0,0-21.55-.193Zm-7.665.119a.252.252,0,0,1-.254-.254.251.251,0,0,1,.254-.25.25.25,0,0,1,.25.25A.251.251,0,0,1-29.215-.073Zm3.58,2.367-1.624,1.034-.026.015a.145.145,0,0,1-.056.007A.147.147,0,0,1-27.49,3.2V1.133l0-.03a.152.152,0,0,1,.146-.119.16.16,0,0,1,.082.022l1.624,1.038.026.019a.163.163,0,0,1,.022.026A.151.151,0,0,1-25.634,2.294Z" transform="translate(32.805 5.015)" fill="#fff"/>
    </g>
    <g id="Group_13883" data-name="Group 13883" transform="translate(881.734 286.738)">
      <rect id="Rectangle_3969-5" data-name="Rectangle 3969" width="14.363" height="14.363" rx="1" fill="#e03249"/>
      <path id="Path_8479-5" data-name="Path 8479" d="M-21.55-.193a.186.186,0,0,0-.258-.049l-1.949,1.363V-.271a.547.547,0,0,0-.549-.549h-4.876a.55.55,0,0,0-.549.549V4.6a.547.547,0,0,0,.549.549h4.876a.545.545,0,0,0,.549-.549V3.212l1.949,1.363a.178.178,0,0,0,.1.037.19.19,0,0,0,.187-.19V-.088A.175.175,0,0,0-21.55-.193Zm-7.665.119a.252.252,0,0,1-.254-.254.251.251,0,0,1,.254-.25.25.25,0,0,1,.25.25A.251.251,0,0,1-29.215-.073Zm3.58,2.367-1.624,1.034-.026.015a.145.145,0,0,1-.056.007A.147.147,0,0,1-27.49,3.2V1.133l0-.03a.152.152,0,0,1,.146-.119.16.16,0,0,1,.082.022l1.624,1.038.026.019a.163.163,0,0,1,.022.026A.151.151,0,0,1-25.634,2.294Z" transform="translate(32.805 5.015)" fill="#fff"/>
    </g>
    <g id="Group_13884" data-name="Group 13884" transform="translate(881.734 348.994)">
      <rect id="Rectangle_3969-6" data-name="Rectangle 3969" width="14.363" height="14.363" rx="1" fill="#e03249"/>
      <path id="Path_8479-6" data-name="Path 8479" d="M-21.55-.193a.186.186,0,0,0-.258-.049l-1.949,1.363V-.271a.547.547,0,0,0-.549-.549h-4.876a.55.55,0,0,0-.549.549V4.6a.547.547,0,0,0,.549.549h4.876a.545.545,0,0,0,.549-.549V3.212l1.949,1.363a.178.178,0,0,0,.1.037.19.19,0,0,0,.187-.19V-.088A.175.175,0,0,0-21.55-.193Zm-7.665.119a.252.252,0,0,1-.254-.254.251.251,0,0,1,.254-.25.25.25,0,0,1,.25.25A.251.251,0,0,1-29.215-.073Zm3.58,2.367-1.624,1.034-.026.015a.145.145,0,0,1-.056.007A.147.147,0,0,1-27.49,3.2V1.133l0-.03a.152.152,0,0,1,.146-.119.16.16,0,0,1,.082.022l1.624,1.038.026.019a.163.163,0,0,1,.022.026A.151.151,0,0,1-25.634,2.294Z" transform="translate(32.805 5.015)" fill="#fff"/>
    </g>
  </g>
</svg>
