<svg xmlns="http://www.w3.org/2000/svg" width="22" height="16" viewBox="0 0 22 16">
  <path id="Path_6051" data-name="Path 6051" d="M-7.82.86A.5.5,0,0,0-8.51.73l-5.22,3.65V.65A1.466,1.466,0,0,0-15.2-.82H-28.26A1.472,1.472,0,0,0-29.73.65V13.71a1.466,1.466,0,0,0,1.47,1.47H-15.2a1.46,1.46,0,0,0,1.47-1.47V9.98l5.22,3.65a.478.478,0,0,0,.28.1.51.51,0,0,0,.5-.51V1.14A.468.468,0,0,0-7.82.86Zm-20.53.32A.674.674,0,0,1-29.03.5a.672.672,0,0,1,.68-.67.67.67,0,0,1,.67.67A.672.672,0,0,1-28.35,1.18Zm9.59,6.34-4.35,2.77-.07.04a.389.389,0,0,1-.15.02.4.4,0,0,1-.4-.4V4.41l.01-.08a.406.406,0,0,1,.39-.32.428.428,0,0,1,.22.06l4.35,2.78.07.05a.435.435,0,0,1,.06.07A.405.405,0,0,1-18.76,7.52Z" transform="translate(29.73 0.82)" fill="#a0aec7"/>
</svg>
