<svg xmlns="http://www.w3.org/2000/svg" width="35" height="30" viewBox="0 0 35 30">
  <g id="Group_14522" data-name="Group 14522" transform="translate(-1214.342 -233.836)">
    <g id="Group_14520" data-name="Group 14520" transform="translate(-8 133)">
      <rect id="Rectangle_4093" data-name="Rectangle 4093" width="35" height="30" rx="5" transform="translate(1222.342 100.836)" fill="#e03249" opacity="0.16"/>
    </g>
    <g id="Group_14521" data-name="Group 14521" transform="translate(1215.959 233.452)">
      <rect id="Rectangle_4094" data-name="Rectangle 4094" width="17.813" height="17.813" rx="2" transform="translate(7.384 6.384)" fill="#e03249"/>
      <path id="Path_8599" data-name="Path 8599" d="M-21.491-.188a.188.188,0,0,0-.259-.049l-1.963,1.373v-1.4a.551.551,0,0,0-.553-.553h-4.911a.554.554,0,0,0-.553.553V4.644a.551.551,0,0,0,.553.553h4.911a.549.549,0,0,0,.553-.553v-1.4l1.963,1.373a.18.18,0,0,0,.105.038.192.192,0,0,0,.188-.192V-.083A.176.176,0,0,0-21.491-.188Zm-7.721.12a.254.254,0,0,1-.256-.256.253.253,0,0,1,.256-.252.252.252,0,0,1,.252.252A.253.253,0,0,1-29.211-.068ZM-25.6,2.316-27.24,3.358l-.026.015a.146.146,0,0,1-.056.008.148.148,0,0,1-.15-.15V1.147l0-.03A.153.153,0,0,1-27.323,1a.161.161,0,0,1,.083.023L-25.6,2.064l.026.019a.164.164,0,0,1,.023.026A.152.152,0,0,1-25.6,2.316Z" transform="translate(42.114 13.203)" fill="#fff"/>
    </g>
  </g>
</svg>
