<svg width="24" height="24" viewBox="0 0 24 24" fill="none" xmlns="http://www.w3.org/2000/svg">
<path d="M13.6636 11.9971C13.6636 12.8597 12.9134 13.5655 11.9964 13.5655C11.0794 13.5655 10.3291 12.8597 10.3291 11.9971C10.3291 11.1344 11.0794 10.4287 11.9964 10.4287C12.9134 10.4287 13.6636 11.1344 13.6636 11.9971ZM9.63716 8.11525C9.14531 7.65257 8.35336 7.65257 7.86985 8.11525C5.59402 10.2561 5.59402 13.738 7.86985 15.8789C8.1116 16.1063 8.43672 16.2239 8.7535 16.2239C9.07029 16.2239 9.39541 16.1063 9.63716 15.8789C10.129 15.4162 10.129 14.6712 9.63716 14.2164C8.33669 12.993 8.33669 11.0011 9.63716 9.77776C10.129 9.31508 10.129 8.57009 9.63716 8.11525ZM16.1229 8.11525C15.631 7.65257 14.8391 7.65257 14.3555 8.11525C13.872 8.57793 13.8637 9.32292 14.3555 9.77776C14.9891 10.3738 15.3309 11.158 15.3309 11.9971C15.3309 12.8362 14.9808 13.6204 14.3555 14.2164C13.8637 14.679 13.8637 15.424 14.3555 15.8789C14.5973 16.1063 14.9224 16.2239 15.2392 16.2239C15.556 16.2239 15.8811 16.1063 16.1229 15.8789C17.2233 14.8437 17.8318 13.4635 17.8318 11.9971C17.8318 10.5306 17.2233 9.1504 16.1229 8.11525ZM6.69442 7.00952C7.18627 6.54684 7.18627 5.80185 6.69442 5.34701C6.20257 4.88433 5.41062 4.88433 4.92711 5.34701C1.02569 9.00924 1.02569 14.9849 4.91877 18.6549C5.16053 18.8824 5.48565 19 5.80243 19C6.11921 19 6.44433 18.8824 6.68608 18.6549C7.17793 18.1923 7.17793 17.4473 6.68608 16.9924C3.76002 14.2399 3.76002 9.76208 6.68608 7.00952H6.69442ZM19.0739 5.34701C18.5821 4.88433 17.7901 4.88433 17.3066 5.34701C16.8148 5.80969 16.8148 6.55468 17.3066 7.00952C20.2327 9.76208 20.2327 14.2399 17.3066 16.9924C16.8148 17.4551 16.8148 18.2001 17.3066 18.6549C17.5484 18.8824 17.8735 19 18.1903 19C18.5071 19 18.8322 18.8824 19.0739 18.6549C22.9754 14.9849 22.9754 9.01708 19.0739 5.34701Z" fill="#E03249"/>
</svg>
