<svg xmlns="http://www.w3.org/2000/svg" xmlns:xlink="http://www.w3.org/1999/xlink" width="37.18" height="35.054" viewBox="0 0 37.18 35.054">
  <defs>
    <filter id="Path_20946" x="7.18" y="5.054" width="30" height="30" filterUnits="userSpaceOnUse">
      <feOffset input="SourceAlpha"/>
      <feGaussianBlur stdDeviation="3" result="blur"/>
      <feFlood flood-opacity="0.161"/>
      <feComposite operator="in" in2="blur"/>
      <feComposite in="SourceGraphic"/>
    </filter>
    <filter id="Icon_open-lock-locked" x="10.729" y="11.194" width="22.902" height="23.719" filterUnits="userSpaceOnUse">
      <feOffset dy="3" input="SourceAlpha"/>
      <feGaussianBlur stdDeviation="3" result="blur-2"/>
      <feFlood flood-opacity="0.161"/>
      <feComposite operator="in" in2="blur-2"/>
      <feComposite in="SourceGraphic"/>
    </filter>
  </defs>
  <g id="Group_10408" data-name="Group 10408" transform="translate(-550.82 -537.209)">
    <g id="Icon_Custom_Quiz_Unattempted" data-name="Icon / Custom / Quiz Unattempted" transform="translate(550.82 537.209)">
      <path id="Path_2319" data-name="Path 2319" d="M10,0A10,10,0,1,1,0,10,10,10,0,0,1,10,0Z" transform="translate(2 2)" fill="#e65073" stroke="#e1214e" stroke-width="2" opacity="0"/>
      <path id="Path_2320" data-name="Path 2320" d="M0,0H24V24H0Z" fill="#fff" opacity="0"/>
      <rect id="Rectangle_2088" data-name="Rectangle 2088" width="20" height="20" rx="2" transform="translate(2 2)" fill="#e03249"/>
      <text id="Q" transform="translate(7 16.23)" fill="#fff" font-size="13" font-family="SegoeUI-Bold, Segoe UI" font-weight="700"><tspan x="0" y="0">Q</tspan></text>
    </g>
    <g transform="matrix(1, 0, 0, 1, 550.82, 537.21)" filter="url(#Path_20946)">
      <path id="Path_20946-2" data-name="Path 20946" d="M6,0A6,6,0,1,1,0,6,6,6,0,0,1,6,0Z" transform="translate(16.18 14.05)" fill="#fff"/>
    </g>
    <g transform="matrix(1, 0, 0, 1, 550.82, 537.21)" filter="url(#Icon_open-lock-locked)">
      <path id="Icon_open-lock-locked-2" data-name="Icon open-lock-locked" d="M2.451,0A1.639,1.639,0,0,0,.817,1.634v.817H0V5.719H4.9V2.451H4.085V1.634A1.639,1.639,0,0,0,2.451,0Zm0,.817a.809.809,0,0,1,.817.817v.817H1.634V1.634A.809.809,0,0,1,2.451.817Z" transform="translate(19.73 17.19)" fill="#e03249"/>
    </g>
  </g>
</svg>
