<svg xmlns="http://www.w3.org/2000/svg" xmlns:xlink="http://www.w3.org/1999/xlink" width="308" height="234" viewBox="0 0 308 234"><defs><clipPath id="a"><circle cx="110.765" cy="110.765" r="110.765" fill="#e6e7e2"/></clipPath></defs><g transform="translate(-953 -1005)"><path d="M10,0H298a10,10,0,0,1,10,10V232a0,0,0,0,1,0,0H0a0,0,0,0,1,0,0V10A10,10,0,0,1,10,0Z" transform="translate(953 1005)" fill="#f5f6fa"/><rect width="308" height="18" transform="translate(953 1221)" fill="#fff"/><g transform="translate(14796.074 772.354)"><g transform="translate(-14088.926 211.837)"><g transform="translate(-16.69 -16.69)"><circle cx="110.765" cy="110.765" r="110.765" transform="translate(305.926 48.163)" fill="#f5f6fa"/><g transform="translate(305.926 48.163)" clip-path="url(#a)"><path d="M448.1,208.242h-.022a62.214,62.214,0,0,0-7.571-4.9.694.694,0,0,0-.225-.112,40.622,40.622,0,0,1-21.025-35.6l-18.981-.089a40.622,40.622,0,0,1-21.205,35.693.069.069,0,0,0-.045.022,66.274,66.274,0,0,0-7.66,4.9,64.078,64.078,0,0,0-25.9,51.531H473.886A64.055,64.055,0,0,0,448.1,208.242Z" transform="translate(-298.911 -26.983)" fill="#ecc19c"/><path d="M473.886,254.889H345.464a64.078,64.078,0,0,1,25.9-51.53,66.109,66.109,0,0,1,7.66-4.9.069.069,0,0,1,.045-.022,39.94,39.94,0,0,0,5.863-3.931,34.635,34.635,0,0,0,49.553.022,37.439,37.439,0,0,0,5.8,3.909.693.693,0,0,1,.225.112,62.355,62.355,0,0,1,7.571,4.9h.022A64.059,64.059,0,0,1,473.886,254.889Z" transform="translate(-298.911 -22.199)" fill="#168ef7"/><path d="M358.143,86.254V136.69c0,34.116,29.95,61.773,49.283,61.773s49.284-27.658,49.284-61.773V86.254Z" transform="translate(-296.661 -41.405)" fill="#ecc19c"/><path d="M450.7,81.691a57.882,57.882,0,0,0-45.287-22.047c-32.4,0-58.647,27.046-58.647,60.4a61,61,0,0,0,19.162,44.662,68.03,68.03,0,0,1-4.731-25.172,65.2,65.2,0,0,1,11.724-37.967c7.766,3.451,20.352,4.7,34.158,2.8,13.687-1.874,25.351-6.4,31.927-11.782,11.992,10.592,19.788,27.672,19.788,46.953a67.118,67.118,0,0,1-5.654,27.315c11.575-4.791,20.084-21.869,20.084-42.193C473.224,102.907,463.464,84.966,450.7,81.691Z" transform="translate(-298.68 -46.126)" fill="#494846"/><path d="M410.226,59.828v219H345.462v-.012a63.936,63.936,0,0,1,16.427-42.89,64.8,64.8,0,0,1,9.478-8.643,66.773,66.773,0,0,1,5.678-3.764c.653-.387,1.32-.763,1.985-1.127a.043.043,0,0,1,.036-.024c.52-.291,1.029-.582,1.538-.9a37.021,37.021,0,0,0,4.333-3.039l.025.025A40.688,40.688,0,0,0,397.9,200.385c-12.917-5.7-26.863-19.623-33.52-37.43A61.023,61.023,0,0,1,347,120.041c0-33.35,26.245-60.394,58.651-60.394Q407.955,59.647,410.226,59.828Z" transform="translate(-298.911 -46.125)" fill="#ecc19c" opacity="0.5" style="mix-blend-mode:multiply;isolation:isolate"/></g></g></g></g></g></svg>