<svg xmlns="http://www.w3.org/2000/svg" xmlns:xlink="http://www.w3.org/1999/xlink" width="32" height="32" viewBox="0 0 32 32"><defs><clipPath id="a"><ellipse cx="15.447" cy="15.447" rx="15.447" ry="15.447" fill="#e6e7e2"/></clipPath></defs><g transform="translate(-305.926 -48.163)"><g transform="translate(305.926 48.163)"><ellipse cx="16" cy="16" rx="16" ry="16" transform="translate(0 0)" fill="#e6e7e2"/><g transform="translate(0.553 0.553)" clip-path="url(#a)"><path d="M359.778,173.215h0a8.682,8.682,0,0,0-1.056-.683.1.1,0,0,0-.031-.016,5.665,5.665,0,0,1-2.932-4.965l-2.647-.012a5.665,5.665,0,0,1-2.957,4.978.01.01,0,0,0-.006,0,9.245,9.245,0,0,0-1.068.683,8.936,8.936,0,0,0-3.612,7.187h17.91A8.933,8.933,0,0,0,359.778,173.215Z" transform="translate(-338.973 -147.937)" fill="#ecc19c"/><path d="M363.374,202.93h-17.91a8.936,8.936,0,0,1,3.612-7.186,9.218,9.218,0,0,1,1.068-.683.01.01,0,0,1,.006,0,5.569,5.569,0,0,0,.818-.548,4.83,4.83,0,0,0,6.911,0,5.222,5.222,0,0,0,.808.545.1.1,0,0,1,.031.016,8.7,8.7,0,0,1,1.056.683h0A8.934,8.934,0,0,1,363.374,202.93Z" transform="translate(-338.972 -170.479)" fill="#168ef7"/><path d="M358.143,86.254v7.034c0,4.758,4.177,8.615,6.873,8.615s6.873-3.857,6.873-8.615V86.254Z" transform="translate(-349.569 -79.999)" fill="#ecc19c"/><path d="M361.261,62.719a8.072,8.072,0,0,0-6.316-3.075,8.3,8.3,0,0,0-8.179,8.424,8.507,8.507,0,0,0,2.672,6.229,9.487,9.487,0,0,1-.66-3.51,9.093,9.093,0,0,1,1.635-5.295,11.03,11.03,0,0,0,9.216-1.253,8.725,8.725,0,0,1,2.76,6.548,9.361,9.361,0,0,1-.789,3.809c1.614-.668,2.8-3.05,2.8-5.884C364.4,65.677,363.041,63.175,361.261,62.719Z" transform="translate(-340.06 -57.759)" fill="#494846"/><path d="M354.494,59.672V90.214h-9.032v0a8.917,8.917,0,0,1,2.291-5.981,9.036,9.036,0,0,1,1.322-1.205,9.3,9.3,0,0,1,.792-.525c.091-.054.184-.106.277-.157a.006.006,0,0,1,.005,0c.073-.041.144-.081.214-.125a5.158,5.158,0,0,0,.6-.424l0,0a5.674,5.674,0,0,0,1.8-2.521,9.5,9.5,0,0,1-4.675-5.22,8.51,8.51,0,0,1-2.424-5.985,8.3,8.3,0,0,1,8.179-8.423Q354.177,59.647,354.494,59.672Z" transform="translate(-338.97 -57.761)" fill="#ecc19c" opacity="0.5" style="mix-blend-mode:multiply;isolation:isolate"/></g></g></g></svg>