<svg xmlns="http://www.w3.org/2000/svg" xmlns:xlink="http://www.w3.org/1999/xlink" width="210" height="165" viewBox="0 0 210 165"><defs><style>.a,.f{fill:#fff;}.a{stroke:#707070;}.b{clip-path:url(#a);}.c{fill:#f5f5f5;}.d,.i{fill:#ebebeb;}.e{fill:#e0e0e0;}.g{fill:url(#b);}.h{fill:#263238;}.i{opacity:0.36;}.j{fill:#e8505b;}.k{opacity:0.8;}.l{opacity:0.4;}.m{opacity:0.5;}.n{fill:#fafafa;}.o{opacity:0.3;}.p{fill:none;stroke:#4e585d;stroke-miterlimit:10;stroke-width:0.05px;}.q{fill:#b78876;}.r{fill:#aa6550;}</style><clipPath id="a"><rect class="a" width="210" height="165" rx="4" transform="translate(380 2639)"/></clipPath><linearGradient id="b" x1="1.13" y1="1.295" x2="0.236" y2="0.19" gradientUnits="objectBoundingBox"><stop offset="0" stop-color="#d6d9e4"/><stop offset="1" stop-color="#e9effd"/></linearGradient></defs><g class="b" transform="translate(-380 -2639)"><g transform="translate(262.301 2629.388)"><g transform="translate(5.703 0)"><g transform="translate(0 0)"><g transform="translate(0.016)"><path class="c" d="M571.616,43.115,597.566,33.8l25.7,9.193c3.28,1.549,6.158,2.477,6.158,5.533V63.738a57.506,57.506,0,0,1-8.465,30.282A52.686,52.686,0,0,1,597.313,114.9c-10.5-3.412-18.344-12.508-23.137-20.287a57.5,57.5,0,0,1-8.465-30.282V50.649C565.711,46.291,568.02,44.163,571.616,43.115Z" transform="translate(-565.711 -33.796)"/></g><g transform="translate(31.618)"><path class="d" d="M565.711,106.07a41.9,41.9,0,0,0,18.705-16.655,45.5,45.5,0,0,0,6.7-23.959V54.784c0-2.418-1.458-4.682-4.355-6.034l-20.8-7.778,0-7.176,25.7,9.193c2.7,1.178,6.158,2.477,6.158,5.533V63.738a57.506,57.506,0,0,1-8.465,30.282A52.686,52.686,0,0,1,565.711,114.9Z" transform="translate(-565.711 -33.796)"/></g><path class="e" d="M667.026,114.9a31.309,31.309,0,0,1-5.1-2.186,45.76,45.76,0,0,1-10.788-8.486,58.14,58.14,0,0,1-7.5-10.082,55.357,55.357,0,0,1-8.213-30.574l-.016-12.562c.016-6.256,3.224-6.717,5.922-7.9L667.279,33.8l0,7.176-21.043,7.9c-2.9,1.352-4.355,3.617-4.355,6.034V65.583a45.5,45.5,0,0,0,6.7,23.958,40.961,40.961,0,0,0,18.453,16.529Z" transform="translate(-635.408 -33.796)"/><g transform="translate(21.561 22.185)"><path class="e" d="M617.38,91.128l-.029-2.054a6.737,6.737,0,0,1,13.474-.011l.03,2.092a3.768,3.768,0,0,1,3.214,3.724v12.113a3.77,3.77,0,0,1-3.77,3.77H617.724a3.77,3.77,0,0,1-3.77-3.77V94.88A3.769,3.769,0,0,1,617.38,91.128Zm4.912,12.85h3.289l-.514-2.375a2,2,0,1,0-2.173-.037C622.662,102.486,622.292,103.978,622.292,103.978Zm-3.46-12.868H629.4l-.029-2.036a5.285,5.285,0,0,0-10.571-.011Z" transform="translate(-613.954 -82.337)"/></g><g transform="translate(50.936 17.129)"><g transform="translate(0)"><path class="f" d="M590.113,84.973a8.2,8.2,0,0,0,.389-2.107,36.134,36.134,0,0,0,.211-5.166c-.029-1.011-.1-1.972-.187-2.843a6.084,6.084,0,0,0-.58-2.3,2.635,2.635,0,0,0-1.136-1.142c-.352-.164-.572-.156-.575-.131a2.938,2.938,0,0,1,1.425,1.418,6.325,6.325,0,0,1,.45,2.19c.068.865.122,1.817.15,2.818.059,2,0,3.814-.077,5.126A12.9,12.9,0,0,0,590.113,84.973Z" transform="translate(-588.233 -71.274)"/></g></g><g transform="translate(52.234 34.65)"><g transform="translate(0)"><path class="f" d="M590.055,112.411c.125,0,.24-.622.255-1.4s-.074-1.4-.2-1.405-.239.623-.254,1.4S589.93,112.408,590.055,112.411Z" transform="translate(-589.854 -109.609)"/></g></g></g></g><g transform="translate(110.437 14.495)"><g transform="translate(0 0)"><path class="g" d="M153.984,62.055H330.209a5.5,5.5,0,0,1,5.5,5.5V192.027a5.5,5.5,0,0,1-5.5,5.5H262.574s-4.3,13.3,9.035,20.188H208.367s15.058-5.163,11.186-20.188h-65.57a5.5,5.5,0,0,1-5.5-5.5V67.556A5.5,5.5,0,0,1,153.984,62.055Z" transform="translate(-148.483 -62.055)"/><g transform="translate(90.502 121.332)"><g transform="translate(0)"><path class="h" d="M371.185,361.868a3.4,3.4,0,0,0,4.782,4.781,1.212,1.212,0,0,0,.294-.3,3.4,3.4,0,0,0-4.781-4.78A1.209,1.209,0,0,0,371.185,361.868Z" transform="translate(-370.427 -360.817)"/></g></g><g transform="translate(3.034 2.28)"><path class="f" d="M9.7,0H171.461a9.7,9.7,0,0,1,9.7,9.7V110.422a0,0,0,0,1,0,0H0a0,0,0,0,1,0,0V9.7A9.7,9.7,0,0,1,9.7,0Z"/></g><g transform="translate(3.034 2.28)"><path class="i" d="M7.516,0H172a9.154,9.154,0,0,1,9.154,9.154v.022a0,0,0,0,1,0,0H0a0,0,0,0,1,0,0V7.516A7.516,7.516,0,0,1,7.516,0Z"/></g><g transform="translate(169.75 5.788)"><g transform="translate(7.401)"><ellipse class="e" cx="1.273" cy="1.273" rx="1.273" ry="1.273" transform="translate(0)"/></g><g transform="translate(3.608)"><ellipse class="e" cx="1.273" cy="1.273" rx="1.273" ry="1.273"/></g><g transform="translate(0)"><ellipse class="e" cx="1.273" cy="1.273" rx="1.273" ry="1.273"/></g></g><g transform="translate(37.007 135.385)"><path class="h" d="M242.561,395.527c0,.059,25.077.106,56,.106s56.009-.047,56.009-.106-25.072-.106-56.009-.106S242.561,395.468,242.561,395.527Z" transform="translate(-242.561 -395.421)"/></g><g transform="translate(42.122 16.82)"><g transform="translate(0)"><g transform="translate(17.225)"><path class="j" d="M302.665,113.645l27.622-10.174,27.354,10.037c3.492,1.692,6.555,2.705,6.555,6.041v16.613a64,64,0,0,1-9.011,33.064,56.6,56.6,0,0,1-25.167,22.8c-11.181-3.725-19.527-13.656-24.629-22.15a64,64,0,0,1-9.01-33.064V121.872C296.379,117.113,298.837,114.79,302.665,113.645Z" transform="translate(-296.379 -103.471)"/><g class="k"><path class="f" d="M302.665,113.645l27.622-10.174,27.354,10.037c3.492,1.692,6.555,2.705,6.555,6.041v16.613a64,64,0,0,1-9.011,33.064,56.6,56.6,0,0,1-25.167,22.8c-11.181-3.725-19.527-13.656-24.629-22.15a64,64,0,0,1-9.01-33.064V121.872C296.379,117.113,298.837,114.79,302.665,113.645Z" transform="translate(-296.379 -103.471)"/></g></g><g transform="translate(28.402 7.737)"><g transform="translate(5.864)"><path class="j" d="M338.34,167.017h5.075V139.391a11.792,11.792,0,0,1,23.585,0v27.626h5.076V139.391a16.868,16.868,0,1,0-33.736,0Z" transform="translate(-338.34 -122.523)"/></g><g class="l" transform="translate(5.864)"><path d="M338.34,167.017h5.075V139.391a11.792,11.792,0,0,1,23.585,0v27.626h5.076V139.391a16.868,16.868,0,1,0-33.736,0Z" transform="translate(-338.34 -122.523)"/></g><g transform="translate(0 32.205)"><rect class="j" width="45.464" height="29.168" rx="5.811"/></g><g class="m" transform="translate(18.932 39.189)"><path d="M370.517,222.82a3.8,3.8,0,1,1,4.836,3.639v5.682H373.28v-5.682A3.788,3.788,0,0,1,370.517,222.82Z" transform="translate(-370.517 -219.02)"/></g><g transform="translate(42.851 36.879)"><g transform="translate(0)"><path class="n" d="M329.594,235.06c.1,0,.189-4.864.189-10.863s-.084-10.865-.189-10.865S329.4,218.2,329.4,224.2,329.489,235.06,329.594,235.06Z" transform="translate(-329.405 -213.332)"/></g></g><g transform="translate(23.406 38.123)"><g transform="translate(0)"><path class="n" d="M368.706,226.133c.013.019.178-.06.446-.253a4.648,4.648,0,0,0,.98-1,5.325,5.325,0,0,0-1.892-7.991,4.63,4.63,0,0,0-1.323-.453,1.172,1.172,0,0,0-.511-.026,11.885,11.885,0,0,1,1.706.714,5.267,5.267,0,0,1,1.8,7.6A11.852,11.852,0,0,1,368.706,226.133Z" transform="translate(-366.404 -216.396)"/></g></g></g><g transform="translate(15.13 16.71)"><path class="j" d="M287.8,210.018s-.109-.152-.329-.441l-.185-.243c-.062-.094-.119-.2-.186-.321a4.978,4.978,0,0,1-.418-.835c-.065-.165-.143-.336-.208-.522l-.166-.6a4.259,4.259,0,0,1-.139-.67,7.132,7.132,0,0,1-.1-.739,13.957,13.957,0,0,1,.163-3.562,32.027,32.027,0,0,1,3.271-9.213,71.971,71.971,0,0,1,7.026-10.926A111.836,111.836,0,0,1,307,170.175a128.194,128.194,0,0,1,13.754-11.74c2.568-1.887,5.276-3.717,8.131-5.441a78.512,78.512,0,0,1,9.031-4.735,42.2,42.2,0,0,1,10.049-3.15,17.775,17.775,0,0,1,5.358-.132,10.045,10.045,0,0,1,2.589.749,6.452,6.452,0,0,1,3.508,3.927,10.037,10.037,0,0,1,.452,2.658,17.709,17.709,0,0,1-.738,5.31,42.178,42.178,0,0,1-4.272,9.628,78.55,78.55,0,0,1-5.733,8.435c-2.038,2.641-4.165,5.123-6.332,7.46a128.14,128.14,0,0,1-13.23,12.33,111.843,111.843,0,0,1-12.884,9.069,71.936,71.936,0,0,1-11.654,5.736,32.033,32.033,0,0,1-9.525,2.2,13.966,13.966,0,0,1-3.557-.243,7.115,7.115,0,0,1-.722-.186,4.21,4.21,0,0,1-.651-.214L290,211.6c-.178-.087-.339-.184-.495-.267a5,5,0,0,1-.782-.51c-.108-.081-.211-.149-.3-.222l-.22-.211c-.262-.251-.4-.377-.4-.377s.128.135.387.392l.218.216c.085.074.188.144.3.227a4.942,4.942,0,0,0,.78.521c.156.085.318.184.5.273l.581.24a4.249,4.249,0,0,0,.653.22,7.093,7.093,0,0,0,.725.192,13.954,13.954,0,0,0,3.574.264,31.944,31.944,0,0,0,9.562-2.173,71.725,71.725,0,0,0,11.69-5.719,111.481,111.481,0,0,0,12.918-9.061,127.94,127.94,0,0,0,13.263-12.334c2.172-2.339,4.305-4.824,6.349-7.47a78.533,78.533,0,0,0,5.752-8.454,42.325,42.325,0,0,0,4.3-9.676,17.914,17.914,0,0,0,.747-5.375,10.24,10.24,0,0,0-.462-2.717A6.664,6.664,0,0,0,356,145.535a10.271,10.271,0,0,0-2.647-.767,17.965,17.965,0,0,0-5.423.133,42.357,42.357,0,0,0-10.1,3.168,78.593,78.593,0,0,0-9.052,4.752c-2.86,1.73-5.571,3.565-8.142,5.457a127.888,127.888,0,0,0-13.762,11.772,111.448,111.448,0,0,0-10.472,11.8,71.693,71.693,0,0,0-7.013,10.963,31.964,31.964,0,0,0-3.247,9.254A13.951,13.951,0,0,0,286,205.65a7.035,7.035,0,0,0,.108.742,4.26,4.26,0,0,0,.145.674l.172.6c.068.187.148.359.215.523a4.912,4.912,0,0,0,.429.835c.07.116.128.226.192.319l.19.241C287.68,209.876,287.8,210.018,287.8,210.018Z" transform="translate(-285.944 -144.617)"/></g><g transform="translate(3.985 33.445)"><path class="j" d="M263.518,203.11s.02-.186.049-.548c.007-.091.015-.192.024-.3s.048-.232.074-.363a4.958,4.958,0,0,1,.244-.9c.061-.166.117-.346.192-.528l.277-.56a4.2,4.2,0,0,1,.343-.593,7.122,7.122,0,0,1,.415-.62,13.946,13.946,0,0,1,2.493-2.55,32.032,32.032,0,0,1,8.574-4.7,71.951,71.951,0,0,1,12.516-3.476,111.786,111.786,0,0,1,15.652-1.808,128.12,128.12,0,0,1,18.079.394c3.172.3,6.411.738,9.69,1.352a78.513,78.513,0,0,1,9.891,2.478,42.2,42.2,0,0,1,9.6,4.338,17.768,17.768,0,0,1,4.086,3.469,10.03,10.03,0,0,1,1.433,2.282,6.451,6.451,0,0,1,0,5.265,10.037,10.037,0,0,1-1.432,2.284,17.721,17.721,0,0,1-4.086,3.471,42.184,42.184,0,0,1-9.6,4.341,78.476,78.476,0,0,1-9.893,2.479c-3.279.614-6.519,1.051-9.691,1.352a128.16,128.16,0,0,1-18.081.394,111.8,111.8,0,0,1-15.652-1.808,71.943,71.943,0,0,1-12.516-3.477,32.031,32.031,0,0,1-8.573-4.7,13.972,13.972,0,0,1-2.493-2.55,7.211,7.211,0,0,1-.415-.619,4.284,4.284,0,0,1-.343-.593l-.277-.56c-.075-.183-.131-.362-.192-.528a4.965,4.965,0,0,1-.244-.9c-.026-.132-.058-.252-.074-.363s-.017-.214-.024-.3c-.028-.362-.049-.548-.049-.548s.006.186.027.55q.009.137.019.307c.014.112.045.233.069.365a4.926,4.926,0,0,0,.235.908c.06.167.115.349.188.533l.274.565a4.256,4.256,0,0,0,.34.6,7.16,7.16,0,0,0,.413.626,13.956,13.956,0,0,0,2.492,2.576,31.957,31.957,0,0,0,8.582,4.744,71.695,71.695,0,0,0,12.531,3.514,111.5,111.5,0,0,0,15.672,1.837,127.938,127.938,0,0,0,18.108-.376c3.178-.3,6.424-.734,9.71-1.348a78.52,78.52,0,0,0,9.921-2.481,42.326,42.326,0,0,0,9.647-4.361,17.934,17.934,0,0,0,4.135-3.513,10.26,10.26,0,0,0,1.463-2.336,6.662,6.662,0,0,0,0-5.432,10.254,10.254,0,0,0-1.464-2.334,17.967,17.967,0,0,0-4.135-3.51,42.362,42.362,0,0,0-9.645-4.358,78.562,78.562,0,0,0-9.919-2.48c-3.285-.613-6.531-1.048-9.708-1.347a127.908,127.908,0,0,0-18.106-.376,111.5,111.5,0,0,0-15.671,1.836,71.744,71.744,0,0,0-12.531,3.513,31.944,31.944,0,0,0-8.583,4.744,13.944,13.944,0,0,0-2.492,2.576,7.08,7.08,0,0,0-.414.626,4.293,4.293,0,0,0-.341.6l-.274.566c-.073.184-.128.366-.188.533a4.94,4.94,0,0,0-.236.908c-.025.133-.055.254-.069.366s-.013.215-.019.306C263.524,202.924,263.518,203.11,263.518,203.11Z" transform="translate(-263.518 -185.825)"/></g><g transform="translate(18.129 10.168)"><path class="j" d="M306.64,130.008s.16-.1.463-.3l.255-.168c.1-.056.212-.1.333-.164a4.945,4.945,0,0,1,.862-.359c.169-.054.345-.119.535-.172l.612-.124a4.244,4.244,0,0,1,.679-.093,7.086,7.086,0,0,1,.744-.051,13.95,13.95,0,0,1,3.543.408,32.029,32.029,0,0,1,8.966,3.9,71.942,71.942,0,0,1,10.416,7.762,111.828,111.828,0,0,1,11.018,11.262,128.1,128.1,0,0,1,10.765,14.53c1.705,2.691,3.345,5.519,4.868,8.486a78.46,78.46,0,0,1,4.1,9.336,42.2,42.2,0,0,1,2.45,10.241,17.765,17.765,0,0,1-.238,5.355,10.048,10.048,0,0,1-.926,2.531,6.451,6.451,0,0,1-4.159,3.229,10.06,10.06,0,0,1-2.682.268,17.724,17.724,0,0,1-5.247-1.1,42.157,42.157,0,0,1-9.311-4.925,78.514,78.514,0,0,1-8.02-6.3c-2.494-2.215-4.825-4.508-7.006-6.831a128.181,128.181,0,0,1-11.39-14.048,111.852,111.852,0,0,1-8.161-13.479,71.973,71.973,0,0,1-4.92-12.022,32.025,32.025,0,0,1-1.54-9.654,13.97,13.97,0,0,1,.488-3.532,7.177,7.177,0,0,1,.235-.707,4.255,4.255,0,0,1,.259-.634l.273-.562c.1-.171.206-.325.3-.475a4.988,4.988,0,0,1,.562-.745c.088-.1.163-.2.242-.281l.226-.205c.269-.244.4-.374.4-.374s-.143.118-.418.359l-.231.2c-.08.08-.157.178-.247.279a4.941,4.941,0,0,0-.574.742c-.1.15-.205.3-.306.476l-.279.563a4.262,4.262,0,0,0-.265.636,7.226,7.226,0,0,0-.242.71,13.952,13.952,0,0,0-.51,3.547,31.95,31.95,0,0,0,1.509,9.689,71.7,71.7,0,0,0,4.9,12.056,111.5,111.5,0,0,0,8.15,13.511,127.879,127.879,0,0,0,11.391,14.081c2.183,2.328,4.516,4.627,7.014,6.849a78.614,78.614,0,0,0,8.039,6.321,42.359,42.359,0,0,0,9.357,4.953,17.926,17.926,0,0,0,5.31,1.115,10.243,10.243,0,0,0,2.743-.275,6.661,6.661,0,0,0,4.29-3.331,10.242,10.242,0,0,0,.948-2.587,17.952,17.952,0,0,0,.241-5.419A42.353,42.353,0,0,0,365,184.193a78.5,78.5,0,0,0-4.117-9.358c-1.528-2.972-3.173-5.8-4.883-8.5A127.857,127.857,0,0,0,345.2,151.8a111.414,111.414,0,0,0-11.053-11.26,71.677,71.677,0,0,0-10.454-7.751,31.959,31.959,0,0,0-9.008-3.877,13.947,13.947,0,0,0-3.563-.391,7.143,7.143,0,0,0-.748.056,4.245,4.245,0,0,0-.682.1l-.615.13c-.191.055-.368.123-.537.178a4.92,4.92,0,0,0-.862.37c-.12.062-.234.112-.332.169l-.253.173C306.791,129.9,306.64,130.008,306.64,130.008Z" transform="translate(-303.56 -128.509)"/></g><g transform="translate(98.282 69.677)"><ellipse class="j" cx="1.751" cy="1.751" rx="1.751" ry="1.751" transform="translate(0)"/></g><g transform="translate(0 14.179)"><path class="j" d="M497.16,140.135a1.751,1.751,0,1,0,1.751-1.751A1.751,1.751,0,0,0,497.16,140.135Z" transform="translate(-497.16 -138.384)"/></g><g transform="translate(87.737 75.502)"><path class="j" d="M287.551,289.829a.445.445,0,1,0,.445-.445A.445.445,0,0,0,287.551,289.829Z" transform="translate(-287.551 -289.384)"/></g><g transform="translate(78.24 26.435)"><path class="j" d="M310.939,169.009a.445.445,0,1,0,.445-.445A.445.445,0,0,0,310.939,169.009Z" transform="translate(-310.939 -168.564)"/></g><g transform="translate(8.796 50.285)"><path class="j" d="M481.932,227.736a.445.445,0,1,0,.445-.445A.445.445,0,0,0,481.932,227.736Z" transform="translate(-481.932 -227.291)"/></g><g transform="translate(2.612 29.539)"><path class="j" d="M497.16,176.652a.445.445,0,1,0,.445-.445A.445.445,0,0,0,497.16,176.652Z" transform="translate(-497.16 -176.207)"/></g></g></g></g></g><g transform="translate(6.245 83.922)"><g transform="translate(0)"><g transform="translate(0)"><g transform="translate(1.891 53.876)"><path class="j" d="M686.625,337.856a17.038,17.038,0,0,0-7.293-2.51,4.857,4.857,0,0,0-3.449.634.709.709,0,0,0-.356.63.769.769,0,0,0,.337.431,10.427,10.427,0,0,0,10.761.815" transform="translate(-675.521 -335.292)"/></g><g transform="translate(5.057 44.8)"><path class="j" d="M683.681,326.869a35.609,35.609,0,0,1-4.71-4.145,11.916,11.916,0,0,1-2.953-5.462,2.2,2.2,0,0,1,.234-1.828c3.755,2.932,6.7,6.725,7.43,11.434" transform="translate(-675.93 -315.435)"/></g><g transform="translate(12.717 45.124)"><path class="j" d="M667.61,327.432a17.04,17.04,0,0,1,.087-6.184,8.363,8.363,0,0,1,3.294-5.1,7.3,7.3,0,0,1-.087,4.849,23.563,23.563,0,0,1-3.266,6.877" transform="translate(-667.371 -316.144)"/></g><g transform="translate(7.443 63.007)"><path class="j" d="M676.746,355.272a10.778,10.778,0,0,0-5.849,2.96,11.068,11.068,0,0,0-3.346,5.743c2.192-.135,4.051-1.681,5.4-3.414s2.283-3.635,3.764-5.256" transform="translate(-667.552 -355.272)"/></g><g transform="translate(16.431 50.417)"><g transform="translate(0)"><path class="j" d="M661.663,341.37a14.425,14.425,0,0,1,1.666-13.645,17.369,17.369,0,0,1-1.666,13.645" transform="translate(-660.658 -327.725)"/></g></g><g transform="translate(12.175 69.833)"><path class="j" d="M665.191,370.227a10.43,10.43,0,0,0-9.974,5.741c-.124.247-.233.561-.067.782a.741.741,0,0,0,.661.195,8.679,8.679,0,0,0,5.146-2.657,49.3,49.3,0,0,1,4.278-4.067" transform="translate(-655.066 -370.207)"/></g><g transform="translate(21.31 55.718)"><g transform="translate(0)"><path class="j" d="M649.526,353.143a18.571,18.571,0,0,1-.185-10.376,5.06,5.06,0,0,1,2.214-3.368.434.434,0,0,1,.339-.059.445.445,0,0,1,.214.248,6.255,6.255,0,0,1,.522,2.977,18.673,18.673,0,0,1-.467,3.013c-.389,1.842-.6,3.821-1.606,5.41a11.077,11.077,0,0,0-.642,1.188c-.191.4-.192.546-.368.867" transform="translate(-648.691 -339.323)"/></g></g><g transform="translate(34.661 60.025)"><g transform="translate(0)"><path class="j" d="M619.98,360.178a13.379,13.379,0,0,1,2.345-11c.168-.219.392-.453.666-.428.421.039.53.6.511,1.022a19.875,19.875,0,0,1-3.522,10.406" transform="translate(-619.622 -348.747)"/></g></g><g transform="translate(36.179 68.446)"><g transform="translate(0)"><path class="j" d="M596.066,370.975A16,16,0,0,0,609.2,368.3a10.631,10.631,0,0,0-7.108-.872,10.142,10.142,0,0,0-6.023,3.543" transform="translate(-596.066 -367.172)"/></g></g><g transform="translate(37.158 62.943)"><g transform="translate(0)"><path class="j" d="M596.579,362.022a15.174,15.174,0,0,1,11.917-6.891,7.342,7.342,0,0,1-3.9,4.309,21.643,21.643,0,0,1-5.72,1.673,4.031,4.031,0,0,0-2.3.909" transform="translate(-596.579 -355.131)"/></g></g><g transform="translate(33.552 44.229)"><g transform="translate(0)"><path class="j" d="M625.073,328.069a34.593,34.593,0,0,0,1.524-6.979,11.619,11.619,0,0,0-1.39-6.9,15.2,15.2,0,0,0-.2,14.122" transform="translate(-623.361 -314.186)"/></g></g><g transform="translate(43.028 44.823)"><g transform="translate(0)"><path class="j" d="M579.693,324.85a18.7,18.7,0,0,1,13.765-9.364c-2.148,5.347-8,9.48-13.765,9.364" transform="translate(-579.693 -315.486)"/></g></g><g transform="translate(41.331 54.344)"><g transform="translate(0)"><path class="j" d="M579.2,337.121c4.022.612,7.448,3.181,11.206,4.738a5.016,5.016,0,0,0,2.533.485,1.983,1.983,0,0,0,1.242-3.508,5.425,5.425,0,0,0-1.841-1.116,20.449,20.449,0,0,0-12.8-.713" transform="translate(-579.197 -336.317)"/></g></g><g transform="translate(39.004 57.775)"><g transform="translate(0)"><path class="j" d="M593.667,344.017a4.747,4.747,0,0,1,1.942,1.346,20.965,20.965,0,0,0,8.5,4.365c.324.08.75.113.911-.181.141-.256-.037-.566-.22-.795a11.693,11.693,0,0,0-5.131-3.483c-1.961-.73-3.66-1.611-6-1.421" transform="translate(-593.667 -343.823)"/></g></g><g transform="translate(36.378 40.498)"><path class="j" d="M595.9,306.457a16.08,16.08,0,0,0,12.33,4.195.844.844,0,0,0,.561-.2c.31-.338-.062-.859-.424-1.141a14.2,14.2,0,0,0-12.467-2.853" transform="translate(-595.903 -306.022)"/></g><g transform="translate(39.491 36.445)"><g transform="translate(0)"><path class="j" d="M583.886,300.5a17.187,17.187,0,0,1,15.386-2.539,12.213,12.213,0,0,1-7.332,3.219,23.207,23.207,0,0,1-8.054-.68" transform="translate(-583.886 -297.155)"/></g></g><g transform="translate(36.175 21.084)"><g transform="translate(0)"><path class="j" d="M622.334,274.425c-.356-3.618-.125-6.474-.376-10.109-.02-.29-.083-.64-.354-.745-.378-.146-.694.32-.818.705a11.588,11.588,0,0,0,1.542,10.069" transform="translate(-620.256 -263.544)"/></g></g><g transform="translate(37.993 20.99)"><g transform="translate(0)"><path class="j" d="M603.43,274.715a21.278,21.278,0,0,0,5.994-5.825c1.184-1.62,2.182-3.56,1.913-5.549a5.735,5.735,0,0,0-4.323,2.147,12.062,12.062,0,0,0-2.2,4.435c-.48,1.592-.816,3.228-1.379,4.792" transform="translate(-603.43 -263.34)"/></g></g><g transform="translate(43.805 21.666)"><g transform="translate(0)"><path class="j" d="M575.746,273.882a48.325,48.325,0,0,0,14.75-8.7,7.53,7.53,0,0,0-5.541.426,17.471,17.471,0,0,0-9.286,8.232" transform="translate(-575.669 -264.819)"/></g></g><g transform="translate(39.649 30.078)"><path class="j" d="M581.335,287.49a30.014,30.014,0,0,0,8.19.04,34.761,34.761,0,0,0,7.646-2.541.9.9,0,0,0,.519-.394.6.6,0,0,0-.186-.655,1.577,1.577,0,0,0-.652-.305,14.159,14.159,0,0,0-8.263.494,38.308,38.308,0,0,0-7.255,3.361" transform="translate(-581.335 -283.224)"/></g><g transform="translate(22.737 29.066)"><g transform="translate(0)"><path class="j" d="M650.378,293a14.488,14.488,0,0,1-.133-11.991,9.16,9.16,0,0,1,1.061,5.962c-.207,2.048-.83,4.157-.871,6.215" transform="translate(-649.013 -281.009)"/></g></g><g transform="translate(4.253 37.311)"><path class="j" d="M679.428,299.052A16.724,16.724,0,0,0,667,304.346a11.612,11.612,0,0,0,6.8-1.261,34.616,34.616,0,0,0,5.831-3.9" transform="translate(-667.001 -299.049)"/></g><g transform="translate(0 35.427)"><path class="j" d="M690.066,295.145c-2.269-.184-4.452-.465-6.634.2a7.955,7.955,0,0,0-5.057,4.287,11.987,11.987,0,0,0,6.219-1.174,35.777,35.777,0,0,0,5.471-3.317" transform="translate(-678.376 -294.926)"/></g><g transform="translate(5.776 32.238)"><path class="j" d="M674.956,291.433a20.923,20.923,0,0,0-6.514-3.253c-2.377-.554-5.131-.145-6.788,1.647a12.682,12.682,0,0,0,6.489,1.261,22.428,22.428,0,0,1,7.069.717" transform="translate(-661.654 -287.95)"/></g><g transform="translate(15.129 21.562)"><path class="j" d="M665.853,278.858c-3.49-3.427-4.813-9.582-3.409-14.268a21.744,21.744,0,0,1,3.409,14.268" transform="translate(-661.893 -264.59)"/></g><g transform="translate(28.686 14.86)"><path class="j" d="M622.651,261.188c.658-1.53,1.121-3.136,1.711-4.693a13.494,13.494,0,0,1,2.44-4.327,6.426,6.426,0,0,1,4.322-2.24,17.405,17.405,0,0,1-8.388,11.284" transform="translate(-622.651 -249.928)"/></g><g transform="translate(17.923 21.993)"><g transform="translate(0)"><path class="j" d="M654.017,271.684c-1.089-1.5-2.347-3.534-3.824-4.653a6.4,6.4,0,0,0-5.2-1.367,12.117,12.117,0,0,0,9.027,6.019" transform="translate(-644.99 -265.535)"/></g></g><g transform="translate(25.45 15.001)"><g transform="translate(0)"><path class="j" d="M643.885,261.479a25.887,25.887,0,0,1-1.721-5.575,8.7,8.7,0,0,1,.872-5.669c1.916,3.621,2.532,7.508.947,11.285" transform="translate(-642.038 -250.235)"/></g></g><g transform="translate(28.703 7.327)"><path class="j" d="M618.5,241.118c1.085-3.59,4.372-6.232,7.921-7.445a2.953,2.953,0,0,1,1.388-.208,1.2,1.2,0,0,1,1.024.854c.129.611-.375,1.158-.85,1.564a26.964,26.964,0,0,1-9.483,5.235" transform="translate(-618.499 -233.444)"/></g><g transform="translate(28.686)"><g transform="translate(0)"><path class="j" d="M629.26,229.479a25.713,25.713,0,0,1,1.035-6.855,8.666,8.666,0,0,1,4.314-5.21c.359,2.338-.672,4.663-1.916,6.675s-2.743,3.91-3.49,6.154" transform="translate(-629.204 -217.414)"/></g></g><g transform="translate(21.955 1.075)"><g transform="translate(0)"><path class="j" d="M647.921,232.349c-.9-2.616-.99-5.939-2.556-8.218-1.1-1.593-2.848-2.678-3.792-4.366a6.643,6.643,0,0,0,.221,4.956,14.342,14.342,0,0,0,2.9,4.149c1.159,1.238,2.152,2.17,3.229,3.479" transform="translate(-641.19 -219.765)"/></g></g><g transform="translate(28.568 12.747)"><g transform="translate(0)"><path class="j" d="M641.029,323.256c-.069,0-.13-17.452-.135-38.975s.047-38.978.117-38.978.13,17.448.135,38.978S641.1,323.256,641.029,323.256Z" transform="translate(-640.894 -245.304)"/></g></g><g transform="translate(28.681 38.42)"><path class="j" d="M623.057,301.479a3.689,3.689,0,0,1-.656.246l-1.806.609c-1.522.519-3.614,1.27-5.884,2.2-2.248.964-4.368,1.747-5.575,2.793a4.1,4.1,0,0,0-1.12,1.482c-.173.41-.2.66-.227.656s-.006-.064.007-.183a2.806,2.806,0,0,1,.128-.509,3.939,3.939,0,0,1,1.093-1.58,9.813,9.813,0,0,1,2.419-1.5c.968-.452,2.04-.923,3.179-1.39,2.277-.933,4.384-1.66,5.924-2.136.77-.24,1.4-.417,1.833-.534A3.717,3.717,0,0,1,623.057,301.479Z" transform="translate(-607.784 -301.476)"/></g><g transform="translate(29.882 26.144)"><path class="j" d="M615.917,274.616a1.057,1.057,0,0,1-.184.2l-.56.526-2.091,1.9-6.958,6.2c-2.716,2.418-5.063,4.728-6.69,6.467-.814.869-1.456,1.588-1.894,2.091l-.505.578a1.143,1.143,0,0,1-.189.191,1.078,1.078,0,0,1,.149-.224c.106-.14.26-.35.47-.609.415-.522,1.038-1.262,1.838-2.148a88.06,88.06,0,0,1,6.654-6.535c2.725-2.412,5.206-4.579,7.008-6.141l2.144-1.839.591-.491A1.118,1.118,0,0,1,615.917,274.616Z" transform="translate(-596.846 -274.616)"/></g><g transform="translate(36.222 31.378)"><g transform="translate(0)"><path class="j" d="M620.347,292.11c-.071-.032.5-1.342,1.061-3s.839-3.055.912-3.043a10.236,10.236,0,0,1-.673,3.124,20.385,20.385,0,0,1-.845,2.1A3.277,3.277,0,0,1,620.347,292.11Z" transform="translate(-620.341 -286.068)"/></g></g><g transform="translate(18.604 35.239)"><path class="j" d="M651.23,307.26a3.115,3.115,0,0,1-.419-.486l-1.072-1.375c-.9-1.164-2.146-2.771-3.541-4.53s-2.679-3.336-3.609-4.478l-1.1-1.356a3.112,3.112,0,0,1-.378-.518,3.136,3.136,0,0,1,.452.454c.28.3.675.749,1.158,1.305.965,1.113,2.271,2.675,3.67,4.436s2.622,3.387,3.486,4.58c.433.6.777,1.083,1.009,1.424A3.106,3.106,0,0,1,651.23,307.26Z" transform="translate(-641.115 -294.517)"/></g><g transform="translate(23.64 38.414)"><g transform="translate(0)"><path class="j" d="M650.159,306.739a6.142,6.142,0,0,1-1.4-2.623,7.481,7.481,0,0,1-.317-2.644l.111.009c-.05.2-.086.309-.106.305s-.021-.116,0-.324l.112.009a12.036,12.036,0,0,0,.447,2.572A19.5,19.5,0,0,0,650.159,306.739Z" transform="translate(-648.424 -301.463)"/></g></g><g transform="translate(13.505 37.187)"><g transform="translate(0)"><path class="j" d="M665.429,299.851a4.487,4.487,0,0,0-.978-.569,6.542,6.542,0,0,0-2.715-.216,16.8,16.8,0,0,0-2.735.441,8.187,8.187,0,0,1-1.125.27,3.912,3.912,0,0,1,1.077-.441,12.461,12.461,0,0,1,2.763-.521,5.916,5.916,0,0,1,2.8.3A1.729,1.729,0,0,1,665.429,299.851Z" transform="translate(-657.876 -298.779)"/></g></g><g transform="translate(9.421 35.339)"><path class="j" d="M670.731,296.34c-.019.039-.57-.228-1.5-.546a15.086,15.086,0,0,0-7.551-.575c-.966.173-1.55.354-1.563.312a1.428,1.428,0,0,1,.4-.17,9.355,9.355,0,0,1,1.132-.318,13.324,13.324,0,0,1,7.647.583,9.351,9.351,0,0,1,1.07.485A1.435,1.435,0,0,1,670.731,296.34Z" transform="translate(-660.117 -294.736)"/></g><g transform="translate(26.737 23.724)"><g transform="translate(0)"><path class="j" d="M643.122,276.975a61.824,61.824,0,0,1-1.941-7.654,61.908,61.908,0,0,1,1.941,7.654Z" transform="translate(-641.173 -269.321)"/></g></g><g transform="translate(25.76 27.262)"><g transform="translate(0)"><path class="j" d="M644.012,281.178a18.3,18.3,0,0,0-1.211-2.272,9.989,9.989,0,0,0-1.783-1.84,1.654,1.654,0,0,1,.688.355,5.539,5.539,0,0,1,1.3,1.34A5.04,5.04,0,0,1,644.012,281.178Z" transform="translate(-641.017 -277.062)"/></g></g><g transform="translate(12.716 55.924)"><path class="j" d="M657.133,365.246c-.027,0-.079-.42-.275-1.16a16.479,16.479,0,0,0-1.166-3.022,41.8,41.8,0,0,0-6.187-8.717c-1.381-1.579-2.722-3.067-3.859-4.493a31.531,31.531,0,0,1-2.76-3.98,19.069,19.069,0,0,1-1.393-2.953c-.128-.364-.222-.648-.274-.845a1.419,1.419,0,0,1-.072-.3c.022-.007.15.4.437,1.111a21.637,21.637,0,0,0,1.455,2.9,33.352,33.352,0,0,0,2.787,3.925c1.142,1.411,2.484,2.892,3.868,4.473a39.622,39.622,0,0,1,6.158,8.805,15.085,15.085,0,0,1,1.1,3.076,8.5,8.5,0,0,1,.154.875A1.417,1.417,0,0,1,657.133,365.246Z" transform="translate(-641.145 -339.774)"/></g><g transform="translate(28.702 65.829)"><path class="j" d="M624.782,361.447a6.409,6.409,0,0,1-.722.405,15.83,15.83,0,0,0-1.873,1.238,21.535,21.535,0,0,0-2.46,2.244c-.863.912-1.753,1.972-2.661,3.107-1.815,2.277-3.513,4.293-4.529,5.9-.516.8-.891,1.47-1.137,1.942a6.307,6.307,0,0,1-.4.727.7.7,0,0,1,.067-.2c.053-.13.127-.325.242-.566a18.5,18.5,0,0,1,1.075-1.995,64.978,64.978,0,0,1,4.484-5.964c.91-1.137,1.81-2.2,2.69-3.11a20.01,20.01,0,0,1,2.521-2.226,13.127,13.127,0,0,1,1.935-1.182c.239-.12.434-.194.564-.25A.687.687,0,0,1,624.782,361.447Z" transform="translate(-611 -361.446)"/></g><g transform="translate(33.23 70.862)"><path class="j" d="M619.934,372.475a10.432,10.432,0,0,1-1.527.222,20.125,20.125,0,0,0-3.62.713,10.876,10.876,0,0,0-3.242,1.7c-.747.577-1.1,1.055-1.134,1.027a1.175,1.175,0,0,1,.226-.351,5.736,5.736,0,0,1,.8-.814,9.818,9.818,0,0,1,3.277-1.8,16.383,16.383,0,0,1,3.68-.65A8.457,8.457,0,0,1,619.934,372.475Z" transform="translate(-610.409 -372.457)"/></g><g transform="translate(33.67 68.817)"><g transform="translate(0)"><path class="j" d="M626.182,373.155c-.079-.045.608-1.1,1.142-2.51.5-1.426.618-2.677.708-2.662a2.426,2.426,0,0,1-.026.819,8.762,8.762,0,0,1-.445,1.929,9.36,9.36,0,0,1-.885,1.77A2.474,2.474,0,0,1,626.182,373.155Z" transform="translate(-626.176 -367.983)"/></g></g><g transform="translate(28.708 52.272)"><path class="j" d="M619.474,331.785a1.152,1.152,0,0,1-.245.13l-.717.326c-.314.135-.7.306-1.126.532s-.935.452-1.458.767l-.833.473c-.288.166-.574.363-.878.553-.614.372-1.229.831-1.886,1.3a32.361,32.361,0,0,0-7.262,7.514c-.446.672-.883,1.3-1.234,1.929-.18.31-.367.6-.523.9l-.445.849c-.3.534-.509,1.045-.716,1.484s-.369.824-.494,1.143l-.3.728a1.169,1.169,0,0,1-.121.249,1.112,1.112,0,0,1,.073-.266l.258-.746c.11-.325.255-.719.456-1.164s.4-.965.686-1.507l.433-.861c.152-.3.337-.6.514-.91.346-.635.78-1.274,1.223-1.955a31.161,31.161,0,0,1,7.314-7.569c.665-.466,1.289-.922,1.912-1.289.309-.188.6-.382.892-.545l.846-.463c.532-.306,1.044-.526,1.483-.737s.826-.374,1.148-.5l.737-.283A1.123,1.123,0,0,1,619.474,331.785Z" transform="translate(-601.234 -331.784)"/></g><g transform="translate(36.038 57.759)"><path class="j" d="M610.833,345.611a1.753,1.753,0,0,1,.6-.893,3.786,3.786,0,0,1,2.416-.927,6.606,6.606,0,0,1,2.543.5,3.636,3.636,0,0,1,.962.467,5.861,5.861,0,0,1-1.02-.3,7.669,7.669,0,0,0-2.476-.413,3.932,3.932,0,0,0-2.308.81A7.087,7.087,0,0,0,610.833,345.611Z" transform="translate(-610.83 -343.789)"/></g><g transform="translate(34.405 56.7)"><g transform="translate(0)"><path class="j" d="M626.554,346.035a6.451,6.451,0,0,0,.532-4.563,1.474,1.474,0,0,1,.283.65,4.618,4.618,0,0,1-.39,3.345C626.767,345.853,626.579,346.053,626.554,346.035Z" transform="translate(-626.549 -341.472)"/></g></g></g><g transform="translate(16.65 83.897)"><path class="h" d="M614.857,400.977a57.759,57.759,0,0,0,5.477,20.31h13.443a58.4,58.4,0,0,0,5.151-20.31Z" transform="translate(-614.857 -400.977)"/></g><g transform="translate(18.773 94.563)"><path class="n" d="M639.394,424.44c0,.069-4.426.126-9.885.126s-9.885-.057-9.885-.126,4.425-.126,9.885-.126S639.394,424.37,639.394,424.44Z" transform="translate(-619.624 -424.314)"/></g><g transform="translate(19.709 96.979)"><path class="n" d="M638.815,429.726c0,.069-4.149.126-9.267.126s-9.267-.057-9.267-.126,4.148-.126,9.267-.126S638.815,429.657,638.815,429.726Z" transform="translate(-620.281 -429.6)"/></g><g transform="translate(22.218 88.276)"><g transform="translate(0)"><path class="n" d="M654.916,410.558a38.094,38.094,0,0,1,0,6.193,38.058,38.058,0,0,1,0-6.193Z" transform="translate(-654.79 -410.558)"/></g></g><g transform="translate(29.421 88.276)"><g transform="translate(0)"><path class="n" d="M639.157,410.558a40.815,40.815,0,0,1,0,6.413,40.815,40.815,0,0,1,0-6.413Z" transform="translate(-639.031 -410.558)"/></g></g><g transform="translate(36.182 88.221)"><g transform="translate(0)"><path class="n" d="M624.363,410.439a42.472,42.472,0,0,1,0,6.541,42.431,42.431,0,0,1,0-6.541Z" transform="translate(-624.237 -410.439)"/></g></g><g transform="translate(17.107 88.149)"><path class="n" d="M638.979,410.408c0,.069-5.191.126-11.593.126s-11.594-.057-11.594-.126,5.19-.126,11.594-.126S638.979,410.339,638.979,410.408Z" transform="translate(-615.791 -410.282)"/></g></g></g><g transform="translate(260.327 17.495)"><g transform="translate(0)"><g transform="translate(35.083 152.728)"><g transform="translate(0)"><path class="j" d="M102.221,412.8l2.171,11.112,4.251,8.294a1.16,1.16,0,0,1-.575,1.6h0a1.154,1.154,0,0,1-1.059-.074c-2.043-1.249-9.534-5.879-9.647-6.7-.132-.952-3.069-11.569-3.069-11.569Z" transform="translate(-94.295 -412.803)"/></g><g transform="translate(2.905 13.479)"><path class="h" d="M106.7,449.817l-10.87-7.522.1.469a1.745,1.745,0,0,0,.647,1.017c.883.671,3.362,2.471,9.028,5.969a1.16,1.16,0,0,0,1.093.067Z" transform="translate(-95.832 -442.295)"/></g><g transform="translate(3.494 10.158)"><path class="d" d="M116.327,435.08a.7.7,0,0,1,.384.854.675.675,0,0,1-.843.388.74.74,0,0,1-.4-.907.7.7,0,0,1,.922-.306" transform="translate(-115.418 -435.029)"/></g><g transform="translate(10.162 15.059)"><g transform="translate(0)"><path class="h" d="M99.328,447.415a2.5,2.5,0,0,1,2-1.6c0-.029-.155-.085-.422-.064a1.849,1.849,0,0,0-1.548,1.234C99.28,447.245,99.3,447.412,99.328,447.415Z" transform="translate(-99.303 -445.751)"/></g></g><g transform="translate(11.289 16.892)"><path class="h" d="M97.045,450.9c.063.037.339-.4.875-.69a9.452,9.452,0,0,1,1.05-.376,1.286,1.286,0,0,0-1.17.159C97.191,450.327,96.981,450.884,97.045,450.9Z" transform="translate(-97.034 -449.762)"/></g><g transform="translate(8.298 13.224)"><path class="h" d="M101.6,443.658a11.633,11.633,0,0,1,1.279-1.156,11.506,11.506,0,0,1,1.557-.742,3.173,3.173,0,0,0-2.836,1.9Z" transform="translate(-101.595 -441.736)"/></g><g transform="translate(7.36 10.939)"><g transform="translate(0)"><path class="h" d="M103.612,437.622c.044.06.6-.329,1.388-.532s1.461-.15,1.469-.224a2.879,2.879,0,0,0-2.857.756Z" transform="translate(-103.609 -436.738)"/></g></g><g transform="translate(6.64 7.699)"><path class="h" d="M104.924,430.527a3.686,3.686,0,0,1,2.977-.546c.013-.027-.138-.139-.426-.231a2.528,2.528,0,0,0-2.235.41C105,430.347,104.9,430.506,104.924,430.527Z" transform="translate(-104.921 -429.648)"/></g><g transform="translate(6.004 5.279)"><g transform="translate(0)"><path class="h" d="M107.349,426.446a.978.978,0,0,0-.077-.422A2.974,2.974,0,0,0,106.7,425a1.321,1.321,0,0,0-.687-.494.467.467,0,0,0-.491.214.76.76,0,0,0-.065.538,1.64,1.64,0,0,0,1.729,1.174,1.9,1.9,0,0,0,1.612-1.372.66.66,0,0,0-.087-.543.458.458,0,0,0-.519-.134,1.624,1.624,0,0,0-.646.538,3.331,3.331,0,0,0-.566,1.025,1.007,1.007,0,0,0-.086.42,5.285,5.285,0,0,1,.787-1.33,1.51,1.51,0,0,1,.574-.456.244.244,0,0,1,.284.071.453.453,0,0,1,.036.36,1.7,1.7,0,0,1-1.411,1.173,1.424,1.424,0,0,1-1.482-.976.55.55,0,0,1,.03-.377.253.253,0,0,1,.269-.122,1.193,1.193,0,0,1,.59.408A4.389,4.389,0,0,1,107.349,426.446Z" transform="translate(-105.435 -424.354)"/></g></g></g><g transform="translate(0 153.593)"><path class="j" d="M178.13,414.694l-1.851,11.17-4.011,8.412a1.159,1.159,0,0,0,.62,1.578h0a1.153,1.153,0,0,0,1.057-.1c2.006-1.307,9.361-6.151,9.45-6.976.1-.955,2.735-11.652,2.735-11.652Z" transform="translate(-172.155 -414.694)"/><g transform="translate(0.734 13.329)"><path class="h" d="M177.827,451.689l10.649-7.831-.089.471a1.747,1.747,0,0,1-.617,1.036c-.863.7-3.29,2.567-8.853,6.226a1.158,1.158,0,0,1-1.09.1Z" transform="translate(-177.827 -443.858)"/></g><g transform="translate(9.389 10.047)"><g transform="translate(0)"><path class="d" d="M179.688,436.733a.7.7,0,0,0-.359.865.675.675,0,0,0,.854.364.74.74,0,0,0,.376-.918.7.7,0,0,0-.931-.28" transform="translate(-179.287 -436.675)"/></g></g><g transform="translate(2.15 15.165)"><path class="h" d="M195.548,449.491a2.5,2.5,0,0,0-2.046-1.538c0-.029.153-.089.42-.076a1.85,1.85,0,0,1,1.583,1.189C195.591,449.319,195.578,449.487,195.548,449.491Z" transform="translate(-193.502 -447.875)"/></g><g transform="translate(1.167 17.028)"><path class="h" d="M197.834,453.043c-.062.038-.351-.391-.894-.665a9.534,9.534,0,0,0-1.06-.346,1.287,1.287,0,0,1,1.174.125C197.672,452.473,197.9,453.024,197.834,453.043Z" transform="translate(-195.879 -451.951)"/></g><g transform="translate(3.144 13.307)"><path class="h" d="M192.409,445.653a5.961,5.961,0,0,0-2.889-1.816,3.172,3.172,0,0,1,2.889,1.816Z" transform="translate(-189.52 -443.809)"/></g><g transform="translate(4.001 10.98)"><path class="h" d="M190.554,439.54c-.042.061-.608-.312-1.4-.492s-1.464-.108-1.475-.182a2.88,2.88,0,0,1,2.878.674Z" transform="translate(-187.675 -438.717)"/></g><g transform="translate(4.513 7.711)"><g transform="translate(0)"><path class="h" d="M189.3,432.391a3.686,3.686,0,0,0-2.992-.46c-.014-.027.134-.144.419-.243a2.527,2.527,0,0,1,2.247.345C189.213,432.214,189.319,432.37,189.3,432.391Z" transform="translate(-186.305 -431.565)"/></g></g><g transform="translate(4.683 5.306)"><path class="h" d="M186.589,428.365a.979.979,0,0,1,.064-.424,2.978,2.978,0,0,1,.543-1.039,1.318,1.318,0,0,1,.673-.513.466.466,0,0,1,.5.2.757.757,0,0,1,.081.535,1.64,1.64,0,0,1-1.694,1.223,1.9,1.9,0,0,1-1.65-1.325.662.662,0,0,1,.071-.545.457.457,0,0,1,.516-.148,1.616,1.616,0,0,1,.66.52,3.319,3.319,0,0,1,.6,1.008,1.007,1.007,0,0,1,.1.417,5.259,5.259,0,0,0-.825-1.308,1.516,1.516,0,0,0-.587-.439.244.244,0,0,0-.282.08.454.454,0,0,0-.026.361,1.7,1.7,0,0,0,1.444,1.132,1.424,1.424,0,0,0,1.453-1.018.551.551,0,0,0-.041-.376.253.253,0,0,0-.273-.114,1.194,1.194,0,0,0-.578.425A4.395,4.395,0,0,0,186.589,428.365Z" transform="translate(-185.075 -426.303)"/></g></g><g transform="translate(1.902 68.703)"><path class="h" d="M139.967,240.232c1.032-1.572,5.314,83.812,5.027,84.3l-11.279.162-6.14-45.623-3.339-34.884-5.384,32.778-6.6,48.038-12.327.177,7.618-87.077,15.963-9.147Z" transform="translate(-99.921 -228.958)"/></g><g transform="translate(0.908 21.707)"><g transform="translate(5.429)"><path class="j" d="M128.713,127.042s3.458.6,4.776,1.753a15.874,15.874,0,0,1,2.658,3.8l6.572,4.461-5.785,23.055,4.849,31.861-.968,2.747-36.251-.606-.691-2.5,3.748-29-1.646-19.434-1.513-7.8,6.565-2.942s-3.007-.933-3.144-1.452,6.774-4.067,6.774-4.067S125.561,125.07,128.713,127.042Z" transform="translate(-103.872 -126.133)"/></g><g class="o" transform="translate(9.182 49.407)"><path d="M142.54,235.7c-4.088,5.3-9.676,9.206-15.172,13.027a10.3,10.3,0,0,1-3.749,1.9,5.252,5.252,0,0,1-5.273-2.214c-.8-1.212-1.065-2.74-2.009-3.84-.638-.744-1.531-1.226-2.215-1.927a9.533,9.533,0,0,1-1.421-2.1l-2.248-4.059c2.732-.012,5.257,1.334,7.722,2.512s5.205,2.243,7.869,1.633c3.687-.843,6.036-4.6,9.579-5.919a8.01,8.01,0,0,1,6.863.653" transform="translate(-110.454 -234.233)"/></g><g transform="translate(25.582 10.831)"><path class="j" d="M114.564,149.925a10.549,10.549,0,0,1,1.65,5.344c.3,3.62,2.632,22.614,1.847,25.343s-10.935,14.123-14.317,13.842L102.482,194l-1.208.936-5.4-4.05L107.779,175.9l-.639-21.572S110.8,149.071,114.564,149.925Z" transform="translate(-95.87 -149.831)"/></g><g transform="translate(22.462 2.663)"><g transform="translate(0)"><path class="h" d="M128.986,131.959c-.006.01.109.075.3.249a5.23,5.23,0,0,1,.727.856c.29.4.585.933.946,1.559l1.321,2.093.076-.094a3.345,3.345,0,0,0-2.228-.008,7.9,7.9,0,0,0-2.241,1.227,21.216,21.216,0,0,0-4.042,4.347,89.91,89.91,0,0,0-7.427,12.531l-.013.025v.03c.054,1.884.111,3.856.168,5.865.291,10.2.553,19.425.745,26.119.1,3.333.187,6.034.246,7.915.034.925.06,1.647.079,2.151.011.237.02.422.027.559a1.1,1.1,0,0,0,.017.19,1.144,1.144,0,0,0,.007-.191c0-.137,0-.323,0-.56-.008-.5-.02-1.228-.034-2.153-.041-1.882-.1-4.583-.17-7.916-.161-6.685-.367-15.918-.675-26.121-.059-2.01-.117-3.981-.171-5.867l-.012.055A91.518,91.518,0,0,1,124,142.3a21.222,21.222,0,0,1,3.982-4.331,7.781,7.781,0,0,1,2.187-1.22,3.219,3.219,0,0,1,2.137-.014l.182.069-.106-.163-1.344-2.075c-.367-.614-.675-1.149-.975-1.546a4.824,4.824,0,0,0-.759-.843A1.571,1.571,0,0,0,128.986,131.959Z" transform="translate(-116.402 -131.959)"/></g></g><g transform="translate(10.686 5.414)"><path class="h" d="M154.469,137.981c-.011.038.694.245,1.792.684a17.01,17.01,0,0,1,4.011,2.231,26.356,26.356,0,0,1,3.343,3.171l.949,1.036a2.2,2.2,0,0,0,.369.362,2.119,2.119,0,0,0-.3-.422c-.2-.261-.507-.634-.893-1.087a22.221,22.221,0,0,0-3.325-3.249,15.31,15.31,0,0,0-4.1-2.2c-.56-.2-1.022-.339-1.344-.423A2.064,2.064,0,0,0,154.469,137.981Z" transform="translate(-154.469 -137.978)"/></g><g transform="translate(17.506 9.081)"><path class="h" d="M156.5,162.434a3.7,3.7,0,0,0-.045-.678c-.051-.434-.143-1.06-.288-1.828-.285-1.537-.793-3.637-1.465-5.924a53.358,53.358,0,0,0-2.032-5.756c-.31-.718-.592-1.286-.8-1.669a3.726,3.726,0,0,0-.36-.577,3.779,3.779,0,0,0,.277.619c.184.394.441.969.729,1.692.585,1.442,1.277,3.482,1.959,5.759s1.2,4.367,1.528,5.89c.166.761.283,1.38.362,1.809A3.735,3.735,0,0,0,156.5,162.434Z" transform="translate(-151.504 -146.001)"/></g><g transform="translate(17.452 4.634)"><path class="h" d="M157.9,144.4a43.011,43.011,0,0,0-1.852-4.116,43.051,43.051,0,0,0-2.066-4.014,42.743,42.743,0,0,0,1.852,4.117A42.827,42.827,0,0,0,157.9,144.4Z" transform="translate(-153.975 -136.272)"/></g><g transform="translate(15.27 20.122)"><g transform="translate(3.883)"><path class="f" d="M157.542,171.354l-.106-.227a.77.77,0,0,1-.431.143c-.18,0-.253-.056-.254-.137,0-.245.76-.088.753-.574,0-.223-.186-.405-.558-.4a.877.877,0,0,0-.453.122l.1.229a.743.743,0,0,1,.362-.108c.18,0,.25.064.251.146,0,.241-.76.086-.753.567,0,.219.187.4.561.4A.935.935,0,0,0,157.542,171.354Z" transform="translate(-156.45 -170.16)"/></g><g transform="translate(2.662 0.033)"><path class="f" d="M159.284,171.312l0,.244,1.014-.015-.019-1.309-.989.014,0,.243.689-.01,0,.284-.608.009,0,.236.608-.009,0,.3Z" transform="translate(-159.284 -170.232)"/></g><g transform="translate(1.245 0.038)"><path class="f" d="M163.12,170.909a.721.721,0,0,0-1.256-.427l.2.177a.421.421,0,0,1,.327-.158.419.419,0,0,1,.012.838.417.417,0,0,1-.331-.151l-.192.182a.72.72,0,0,0,1.243-.461Z" transform="translate(-161.864 -170.242)"/></g><g transform="translate(0 0.07)"><path class="f" d="M165.077,171.245c.021-.065.038-.128.054-.192.018-.043.03-.086.045-.13l0,.125c0,.249.112.35.3.348s.291-.107.287-.356l-.011-.722.3,0,.01.733a.542.542,0,0,1-.584.607.562.562,0,0,1-.485-.207A1.371,1.371,0,0,0,165.077,171.245Z" transform="translate(-164.995 -170.314)"/></g></g><g transform="translate(10.425 20.526)"><g transform="translate(4.559)"><path class="f" d="M167.591,171.042l.006.446c0,.016-.009.032-.013.048a.957.957,0,0,0-.037.106c-.013.055-.026.11-.039.165a1.241,1.241,0,0,0-.027.428.592.592,0,0,1-.18-.454l-.011-.733Z" transform="translate(-167.292 -171.042)"/></g><g transform="translate(3.118 0.009)"><path class="f" d="M168.9,172.382l.247-.368h.015l.264,0,.005.365.3,0-.019-1.309-.567.008c-.35.005-.566.19-.562.483a.426.426,0,0,0,.275.409l-.287.426Zm.269-1.067.247,0,.006.456-.247,0c-.185,0-.28-.082-.282-.224S168.985,171.318,169.171,171.316Z" transform="translate(-168.576 -171.061)"/></g><g transform="translate(2.58 0.028)"><path class="f" d="M171.89,171.1l-.3,0,.019,1.309.3,0Z" transform="translate(-171.587 -171.104)"/></g><g transform="translate(1.277 0.035)"><path class="f" d="M173.365,171.372l.419-.006,0-.247-1.141.016,0,.247.419-.006.016,1.063.3,0Z" transform="translate(-172.64 -171.119)"/></g><g transform="translate(0 0.051)"><path class="f" d="M175.573,172.011l.006.464.3,0-.006-.468.495-.849-.322,0-.341.587-.358-.577-.3,0Z" transform="translate(-175.052 -171.154)"/></g></g><g transform="translate(14.213 15.232)"><path class="h" d="M166.4,169.077a1.2,1.2,0,0,0,.181-.343c.1-.226.235-.562.38-.983a17.447,17.447,0,0,0,.872-6.867c-.035-.444-.078-.8-.122-1.047a1.236,1.236,0,0,0-.089-.378,14.02,14.02,0,0,0,.043,1.433,21.606,21.606,0,0,1-.865,6.807C166.559,168.547,166.37,169.063,166.4,169.077Z" transform="translate(-166.401 -159.459)"/></g><g class="o" transform="translate(12.446 6.276)"><path d="M160.275,154.8c.195,1.627.716,2.431.74,4.069.005.351.562,5.891.235,6.019-.385.15-1.852-3.886-2.171-5.9-.251-1.576-.7-3.65-.96-5.225-.769-4.593-2.474-7.066-4.863-11.063-.452-.757-2.141-2.818-2.141-2.818.163-.1.833.214,1.3.426a25.812,25.812,0,0,1,3.759,2.534,45.8,45.8,0,0,1,1.939,4.164,58.845,58.845,0,0,1,2.2,8.057" transform="translate(-151.115 -139.864)"/></g><g class="o" transform="translate(23.112 7.265)"><g transform="translate(0)"><path d="M130.835,142.028s1.473.8,1.463,1.452a1.89,1.89,0,0,1-1.073,1.514,13.19,13.19,0,0,1-1.82.676,10.678,10.678,0,0,0-3.7,2.639,31.15,31.15,0,0,0-4.607,5.905c-1.073,1.783-2.057,3.769-3.853,4.82,1.216-2.175,2.478-4.28,3.694-6.455a41.617,41.617,0,0,1,4.2-6.15c1.581-1.92,4.159-4.246,5.7-4.4" transform="translate(-117.248 -142.028)"/></g></g><g transform="translate(36.151 21.603)"><g transform="translate(0)"><path class="h" d="M114.711,191.167c.006,0,.012-.04.019-.119a1.9,1.9,0,0,0,0-.351,2.776,2.776,0,0,0-.437-1.249,2.744,2.744,0,0,0-1.643-1.192,2.934,2.934,0,0,0-2.532.563l.177.087a23,23,0,0,0-.272-4.6c-.232-1.5-.507-2.921-.664-4.222a34.4,34.4,0,0,1-.269-3.471c-.03-.991-.026-1.8-.013-2.351,0-.255,0-.466,0-.64a.815.815,0,0,0-.015-.224.787.787,0,0,0-.033.222c-.013.174-.03.385-.049.639-.041.555-.07,1.361-.063,2.357a31,31,0,0,0,.22,3.494c.146,1.311.416,2.736.646,4.231a23.948,23.948,0,0,1,.292,4.555l-.01.243.187-.156a2.762,2.762,0,0,1,2.351-.553,2.638,2.638,0,0,1,1.577,1.089,2.889,2.889,0,0,1,.477,1.185C114.7,191,114.694,191.166,114.711,191.167Z" transform="translate(-108.917 -173.399)"/></g></g><g transform="translate(25.413 37.106)"><g transform="translate(0)"><path class="h" d="M126.869,220.718a.875.875,0,0,0-.146.127l-.4.39c-.356.335-.878.826-1.582,1.4a23.431,23.431,0,0,1-2.661,1.88,11.032,11.032,0,0,1-1.771.89,2.3,2.3,0,0,1-1.019.152,1.5,1.5,0,0,1-.941-.414l-.071-.075-.076.059-1.211.933h.134l-5.4-4.056.021.17.1-.12c1.629-2.028,3.08-4.03,4.431-5.828s2.565-3.417,3.621-4.748,1.947-2.378,2.589-3.078c.316-.354.575-.617.75-.8a2.362,2.362,0,0,0,.256-.284,2.308,2.308,0,0,0-.29.25c-.186.168-.456.421-.784.767-.664.683-1.58,1.714-2.653,3.036s-2.311,2.926-3.665,4.722-2.818,3.79-4.441,5.81l-.1.12-.078.1.1.074,5.408,4.043.068.051.066-.052,1.206-.94-.146-.016a1.683,1.683,0,0,0,1.085.481,2.489,2.489,0,0,0,1.1-.172,11.017,11.017,0,0,0,1.8-.925,22.273,22.273,0,0,0,2.651-1.933c.7-.59,1.207-1.1,1.549-1.448l.378-.415A.8.8,0,0,0,126.869,220.718Z" transform="translate(-111.486 -207.318)"/></g></g><g transform="translate(36.448 10.727)"><g transform="translate(0)"><path class="h" d="M104.8,155.779c.042.015.217-.529.657-1.324a9.644,9.644,0,0,1,.888-1.322,9.669,9.669,0,0,1,2.975-2.479,9.7,9.7,0,0,1,1.46-.634c.862-.29,1.428-.363,1.421-.407a1.284,1.284,0,0,0-.4.021,6.271,6.271,0,0,0-1.071.225,8.5,8.5,0,0,0-1.511.6A9.056,9.056,0,0,0,106.174,153a8.5,8.5,0,0,0-.864,1.378,6.3,6.3,0,0,0-.415,1.013A1.311,1.311,0,0,0,104.8,155.779Z" transform="translate(-104.798 -149.604)"/></g></g><g class="o" transform="translate(13.871 17.522)"><g transform="translate(0)"><path d="M167.344,170.629c-.151.325-.688.124-.751-.129a1.1,1.1,0,0,1,.189-.741,13.681,13.681,0,0,0,1.5-5.288,13.082,13.082,0,0,1-.939,6.159" transform="translate(-166.577 -164.47)"/></g></g><g class="o" transform="translate(38.079 35.191)"><g transform="translate(0)"><path d="M112.334,206.828a3.017,3.017,0,0,0-1.378-3.442,1.788,1.788,0,0,0-.978-.253c-.741.054-1.272.713-1.706,1.314a3.082,3.082,0,0,1,3.908,2.358" transform="translate(-108.273 -203.129)"/></g></g><g transform="translate(9.106 37.643)"><g transform="translate(0)"><path class="p" d="M180.822,208.494" transform="translate(-180.822 -208.494)"/></g></g><g transform="translate(6.429 11.249)"><g transform="translate(0)"><path class="h" d="M180.555,150.746a12.256,12.256,0,0,0,.62,1.173,18.3,18.3,0,0,1,1.961,6.029,12.281,12.281,0,0,0,.189,1.314,5.269,5.269,0,0,0-.022-1.334,14.829,14.829,0,0,0-1.982-6.091A5.274,5.274,0,0,0,180.555,150.746Z" transform="translate(-180.553 -150.746)"/></g></g><g class="o" transform="translate(8.73 22.856)"><path d="M159.421,176.14a9.1,9.1,0,0,1,.313,2.383c0,2.57-.164,3.7-.168,6.27a8.811,8.811,0,0,0,.886,4.738,10.053,10.053,0,0,0,.995,1.888,11.229,11.229,0,0,0,1.205,1.319,49.133,49.133,0,0,1,5.53,6.561l1.005,1.473-9.972-9.355-.491-1.238-.025-.145Z" transform="translate(-158.698 -176.14)"/></g><g transform="translate(0 9.247)"><g transform="translate(0)"><path class="j" d="M163.663,146.364s-1.57.59-2.39,4.095a126.069,126.069,0,0,0-2.376,13.324c-.16,2.144-2.266,9.98-.638,13.429s9.5,14.1,12.607,14.444l1.3-.329,1.362.233,3.82-4.394-.334-1.258a1.262,1.262,0,0,0-.019-1.326c-.451-.625-10.191-9.776-10.191-9.776s.371-.048.451-.679c.138-1.087-.809-1.048-.809-1.048l.628-9.575Z" transform="translate(-157.646 -146.364)"/></g><g transform="translate(5.425 28.332)"><path class="h" d="M180.824,209.6c.042.059.76-.456,1.78-.777s1.9-.331,1.9-.4a4.519,4.519,0,0,0-3.68,1.181Z" transform="translate(-180.822 -208.353)"/></g><g transform="translate(3.458 26.467)"><path class="h" d="M181.5,205.95a7.09,7.09,0,0,1,5.338-1.429,2.08,2.08,0,0,0-.825-.21,5.536,5.536,0,0,0-3.9,1.045A2.074,2.074,0,0,0,181.5,205.95Z" transform="translate(-181.499 -204.274)"/></g><g transform="translate(8.718 26.63)"><g transform="translate(0)"><path class="h" d="M179.772,206.4c.01.023.162.01.362-.141a.774.774,0,0,0,.254-.365.976.976,0,0,0,.005-.542,1.277,1.277,0,0,0-.14-.334l.011.024a.69.69,0,0,0-.607-.407c-.181-.011-.279.041-.274.065s.1.031.248.078a.618.618,0,0,1,.415.336l0,.007.009.016a1.335,1.335,0,0,1,.106.274.759.759,0,0,1-.146.724C179.88,206.287,179.754,206.361,179.772,206.4Z" transform="translate(-179.383 -204.629)"/></g></g><g transform="translate(8.783 13.141)"><g transform="translate(0)"><path class="h" d="M180.589,175.117a2.308,2.308,0,0,0-.085.53c-.04.343-.086.84-.134,1.455-.1,1.23-.192,2.931-.275,4.809-.079,1.852-.15,3.526-.205,4.811-.023.576-.042,1.064-.059,1.458a2.32,2.32,0,0,0,.007.537,2.369,2.369,0,0,0,.085-.531c.04-.343.086-.84.134-1.455.1-1.229.193-2.931.275-4.81.079-1.851.15-3.525.205-4.81.023-.576.043-1.064.059-1.458A2.367,2.367,0,0,0,180.589,175.117Z" transform="translate(-179.824 -175.117)"/></g></g><g transform="translate(3.269 28.331)"><path class="h" d="M162.7,208.351a2.05,2.05,0,0,0,.242.237l.722.652,2.672,2.423c1.127,1.038,2.465,2.293,3.938,3.729.736.718,1.509,1.481,2.3,2.282a2.593,2.593,0,0,1,.489.653,1.2,1.2,0,0,1,.083.782,4.433,4.433,0,0,0-.142.9.9.9,0,0,0,.49.849l-.045-.187-1.971,2.253-1.935,2.216.108-.039-1.362-.232-.017,0-.014,0a6.02,6.02,0,0,1-1.609.26,2.983,2.983,0,0,1-1.39-.637,21.665,21.665,0,0,1-2.182-2.035c-1.309-1.374-2.381-2.681-3.263-3.777s-1.568-1.989-2.043-2.6l-.548-.7a1.8,1.8,0,0,0-.2-.234,1.7,1.7,0,0,0,.167.259l.517.722c.456.626,1.124,1.532,1.99,2.644s1.928,2.431,3.234,3.823a21.414,21.414,0,0,0,2.2,2.072,3.2,3.2,0,0,0,1.494.686,5.911,5.911,0,0,0,1.66-.254h-.031l1.362.234.065.011.043-.05,1.937-2.214,1.969-2.255.111-.127-.156-.06a.679.679,0,0,1-.342-.639,4.366,4.366,0,0,1,.136-.85,1.428,1.428,0,0,0-.1-.92,2.784,2.784,0,0,0-.533-.712q-1.2-1.206-2.317-2.275c-1.484-1.427-2.836-2.671-3.978-3.694s-2.074-1.826-2.722-2.372l-.749-.621A1.9,1.9,0,0,0,162.7,208.351Z" transform="translate(-157.02 -208.35)"/></g></g><g transform="translate(9.18 31.657)"><path class="h" d="M119.783,195.829c0,.066,6.231.029,13.913-.081s13.912-.253,13.911-.319-6.23-.029-13.914.081S119.782,195.764,119.783,195.829Z" transform="translate(-119.783 -195.396)"/></g><g transform="translate(16.326 35.859)"><path class="h" d="M137.311,204.592a.509.509,0,0,0,.011.176c.018.114.034.285.084.5a9.965,9.965,0,0,0,.548,1.777,10.972,10.972,0,0,0,9.493,6.832,9.979,9.979,0,0,0,1.859-.044c.218-.021.385-.06.5-.079s.172-.038.171-.046a19.079,19.079,0,0,1-2.516,0,11.206,11.206,0,0,1-9.351-6.73A19.183,19.183,0,0,1,137.311,204.592Z" transform="translate(-137.307 -204.592)"/></g><g transform="translate(29.66 54.001)"><g transform="translate(0)"><path class="h" d="M134.013,245.244c.041.05.3-.1.536-.37s.341-.552.286-.585-.245.173-.467.43S133.97,245.193,134.013,245.244Z" transform="translate(-134.006 -244.286)"/></g></g><g transform="translate(27.909 52.667)"><g transform="translate(0)"><path class="h" d="M138.135,242.3c.053.039.25-.137.439-.393s.3-.495.248-.534-.249.137-.439.393S138.083,242.258,138.135,242.3Z" transform="translate(-138.122 -241.365)"/></g></g><g transform="translate(17.81 49.918)"><g transform="translate(0)"><path class="h" d="M159.128,235.367c-.03.059.231.251.558.47s.6.387.647.336-.174-.307-.515-.534S159.156,235.309,159.128,235.367Z" transform="translate(-159.125 -235.351)"/></g></g><g transform="translate(16.505 51.205)"><g transform="translate(0)"><path class="h" d="M162.1,238.171c-.054.033.1.381.435.705s.68.479.712.424-.237-.288-.545-.594S162.161,238.134,162.1,238.171Z" transform="translate(-162.094 -238.168)"/></g></g><g transform="translate(15.267 52.722)"><g transform="translate(0)"><path class="h" d="M164.725,241.493c-.048.044.154.335.491.6s.666.4.7.343-.229-.272-.55-.529S164.774,241.448,164.725,241.493Z" transform="translate(-164.719 -241.487)"/></g></g><g transform="translate(29.639 4.086)"><g transform="translate(0)"><path class="h" d="M131.887,135.073c-.068-.026-.613,1.347-1.546,2.9s-1.873,2.693-1.818,2.74a3.344,3.344,0,0,0,.675-.7A15.717,15.717,0,0,0,131.593,136,3.38,3.38,0,0,0,131.887,135.073Z" transform="translate(-128.522 -135.072)"/></g></g><g transform="translate(5.429 65.384)"><path class="h" d="M105.73,269.289a2.359,2.359,0,0,0,.387.021l1.107.012,4.071.037c3.438.042,8.185.171,13.429.33s10,.262,13.437.261c1.72,0,3.112-.012,4.073-.038l1.107-.032a2.345,2.345,0,0,0,.386-.027,2.342,2.342,0,0,0-.386-.021l-1.107-.012-4.071-.037c-3.437-.042-8.186-.171-13.432-.33s-9.995-.262-13.435-.261c-1.72,0-3.112.012-4.073.038l-1.107.032A2.36,2.36,0,0,0,105.73,269.289Z" transform="translate(-105.73 -269.191)"/></g></g><g transform="translate(15.803 24.565)"><g transform="translate(0)"><path class="j" d="M161.23,134.364c.054.047.613-.592,1.49-1.13s1.692-.764,1.673-.834a4.413,4.413,0,0,0-3.163,1.964Z" transform="translate(-161.226 -132.386)"/></g></g><g transform="translate(15.625 71.68)"><g transform="translate(0 5.367)"><path class="q" d="M161.366,247.214a1.014,1.014,0,0,1-.961.444c-.372-.014-.734-.134-1.106-.155a1.046,1.046,0,0,0-.979.411.864.864,0,0,0,.031.846,1.7,1.7,0,0,0,.642.6,3.474,3.474,0,0,0,3.948-.38" transform="translate(-158.224 -247.214)"/></g><g transform="translate(2.136 6.984)"><path class="q" d="M152.725,254.812a22.007,22.007,0,0,1-3.534,2.863,1.379,1.379,0,0,1-.931.313c-.331-.054-.6-.485-.373-.737a1,1,0,0,1-1.588-1.073.03.03,0,0,0-.041-.038,1.144,1.144,0,0,1-1-.07.859.859,0,0,1-.375-.961.887.887,0,0,1-1.413-.23,1.558,1.558,0,0,1,.266-1.6A7.828,7.828,0,0,1,145,252.135a2.519,2.519,0,0,0,.951-1.382" transform="translate(-143.341 -250.753)"/><g transform="translate(4.399 4.699)"><path class="r" d="M149.922,263.023a3.291,3.291,0,0,0,1.968-1.987c-.062-.033-.391.5-.931,1.045S149.888,262.962,149.922,263.023Z" transform="translate(-149.921 -261.035)"/></g><g transform="translate(2.69 3.797)"><g transform="translate(0)"><path class="r" d="M153.931,260.893a3.8,3.8,0,0,0,1.846-1.829c-.056-.039-.424.41-.929.908S153.892,260.837,153.931,260.893Z" transform="translate(-153.928 -259.062)"/></g></g><g transform="translate(1.199 2.857)"><path class="r" d="M157.369,258.722a3.477,3.477,0,0,0,1.766-1.716c-.056-.039-.409.382-.892.849S157.332,258.665,157.369,258.722Z" transform="translate(-157.367 -257.003)"/></g></g><g transform="translate(0.475 0)"><path class="q" d="M146.429,236.187s.137-.583-1.364-.394a17.4,17.4,0,0,1-3.857.246c-1.686-.087-4.421-.568-4.421-.568l-4.4,3.873A63.337,63.337,0,0,0,138.233,244c1.346.7,4.088,2.461,5.649,2.377,1.186-.064,1.293-.654,1.293-.654s1.158-.8.985-1.184c0,0,1.374-.075,1.117-1.129,0,0,.98-.181,1.139-.74s-.581-1.217-.865-1.5c-.458-.453-4.463-3.393-4.48-3.475C143.069,237.7,146.492,237.36,146.429,236.187Z" transform="translate(-132.386 -235.472)"/><g transform="translate(11.202 4.987)"><g transform="translate(0)"><path class="r" d="M134.8,246.386a23.5,23.5,0,0,0,3.745,2.887,23.555,23.555,0,0,0-3.745-2.887Z" transform="translate(-134.795 -246.383)"/></g></g><g transform="translate(9.082 5.399)"><g transform="translate(0)"><path class="r" d="M137.307,247.286a2.767,2.767,0,0,0,.526.718,11.725,11.725,0,0,0,3.368,2.632,2.751,2.751,0,0,0,.824.337c.033-.066-1.181-.662-2.482-1.686S137.363,247.238,137.307,247.286Z" transform="translate(-137.306 -247.284)"/></g></g><g transform="translate(7.189 6.755)"><path class="r" d="M139.3,250.253a2.984,2.984,0,0,0,.6.807,8.532,8.532,0,0,0,4.112,2.474,3,3,0,0,0,.992.149,11.535,11.535,0,0,1-5.7-3.429Z" transform="translate(-139.301 -250.251)"/></g><g transform="translate(1.818 5.496)"><path class="r" d="M140.6,247.5a1.83,1.83,0,0,0,.331.343c.225.208.558.5.983.845a28.571,28.571,0,0,0,3.521,2.429c.722.423,1.426.8,2.079,1.111a7.675,7.675,0,0,0,1.814.676,2.9,2.9,0,0,0,1.31,0,1.094,1.094,0,0,0,.442-.189,3.247,3.247,0,0,1-1.715.023,8.2,8.2,0,0,1-1.754-.708c-.643-.324-1.339-.7-2.056-1.119a37.916,37.916,0,0,1-3.538-2.357C141.141,247.9,140.622,247.471,140.6,247.5Z" transform="translate(-140.597 -247.498)"/></g></g></g><g transform="translate(16.409)"><g transform="translate(0)"><g transform="translate(0 0.302)"><g transform="translate(2.398)"><path class="q" d="M133.068,79.334a7.9,7.9,0,0,1,8.6,7.271c.274,3.664.531,7.628.535,9.626.009,4.29-4.272,5.018-4.272,5.018s.123,1.269.265,2.844a5.651,5.651,0,0,1-5.287,6.145h0a5.648,5.648,0,0,1-5.979-5.3l-1.025-17.268a7.9,7.9,0,0,1,7.159-8.334Z" transform="translate(-125.895 -79.3)"/><g transform="translate(6.432 20.379)"><path class="r" d="M140.63,125.4a9.978,9.978,0,0,1-5.614-1.509s1.437,3.1,5.711,2.652Z" transform="translate(-135.016 -123.889)"/></g></g><g transform="translate(0 9.714)"><path class="q" d="M162.971,100.674c-.074-.031-2.959-.829-2.824,2.1a2.206,2.206,0,0,0,3.052,2.106C163.2,104.8,162.971,100.674,162.971,100.674Z" transform="translate(-160.143 -100.553)"/><g transform="translate(0.748 0.967)"><path class="r" d="M163.569,104.961c-.013-.009-.049.038-.133.082a.515.515,0,0,1-.382.026,1.266,1.266,0,0,1-.637-1.107,1.687,1.687,0,0,1,.109-.738.59.59,0,0,1,.366-.41.26.26,0,0,1,.308.126c.043.08.027.139.043.144s.06-.052.032-.172a.329.329,0,0,0-.124-.179.386.386,0,0,0-.286-.061.719.719,0,0,0-.512.479,1.739,1.739,0,0,0-.139.825,1.326,1.326,0,0,0,.8,1.231.548.548,0,0,0,.463-.1C163.567,105.032,163.58,104.966,163.569,104.961Z" transform="translate(-162.208 -102.667)"/></g></g><g transform="translate(8.192 5.754)"><g transform="translate(0)"><g transform="translate(0 2.468)"><g transform="translate(6.477)"><g transform="translate(0.616 0.875)"><path class="h" d="M131.933,99.75a.613.613,0,0,1-.582.627.586.586,0,0,1-.639-.543.613.613,0,0,1,.581-.627A.586.586,0,0,1,131.933,99.75Z" transform="translate(-130.711 -99.205)"/></g><g transform="translate(0)"><path class="h" d="M131.838,97.917c-.075.081-.544-.256-1.2-.245s-1.137.348-1.21.268c-.036-.035.04-.181.248-.337a1.678,1.678,0,0,1,.967-.314,1.615,1.615,0,0,1,.959.294C131.8,97.737,131.875,97.88,131.838,97.917Z" transform="translate(-129.416 -97.29)"/></g></g><g transform="translate(0 0.216)"><g transform="translate(0.489 0.84)"><path class="h" d="M146.382,100.146a.613.613,0,0,1-.582.627.586.586,0,0,1-.639-.543.613.613,0,0,1,.581-.627A.586.586,0,0,1,146.382,100.146Z" transform="translate(-145.16 -99.601)"/></g><path class="h" d="M146.01,98.39c-.075.081-.544-.256-1.2-.245s-1.138.348-1.21.268c-.035-.035.039-.181.248-.337a1.679,1.679,0,0,1,.967-.314,1.614,1.614,0,0,1,.959.294C145.975,98.21,146.046,98.353,146.01,98.39Z" transform="translate(-143.588 -97.763)"/></g><g transform="translate(4.497 0.209)"><g transform="translate(0)"><path class="h" d="M134.949,103.234a4.385,4.385,0,0,1,1.068-.208c.168-.02.327-.055.353-.171a.859.859,0,0,0-.119-.5l-.516-1.274a22.028,22.028,0,0,1-1.166-3.336A22.039,22.039,0,0,1,136,100.982c.173.447.338.874.495,1.282a.972.972,0,0,1,.1.659.423.423,0,0,1-.273.25,1.164,1.164,0,0,1-.286.044A4.271,4.271,0,0,1,134.949,103.234Z" transform="translate(-134.562 -97.747)"/></g></g></g><g transform="translate(0.161 0.342)"><path class="h" d="M144.954,93.22c-.077.175-.728.047-1.506.089-.779.027-1.416.212-1.508.045-.041-.08.079-.241.342-.4a2.62,2.62,0,0,1,2.3-.1C144.854,92.987,144.987,93.137,144.954,93.22Z" transform="translate(-141.933 -92.637)"/></g><g transform="translate(6.899)"><g transform="translate(0)"><path class="h" d="M131.108,92.556c-.113.151-.57,0-1.116,0-.546-.019-1.006.115-1.115-.04-.048-.075.023-.226.223-.371a1.617,1.617,0,0,1,1.8.03C131.093,92.329,131.158,92.482,131.108,92.556Z" transform="translate(-128.862 -91.89)"/></g></g></g></g></g><g transform="translate(2.211)"><path class="h" d="M132.817,88.646a4.993,4.993,0,0,0,.093,1.407,1.536,1.536,0,0,0,.765,1.06,1.588,1.588,0,0,0,1.977-.979,4.931,4.931,0,0,0,.128-2.438,11.878,11.878,0,0,1,0-3.356,4.814,4.814,0,0,1,1.57-2.9,3.054,3.054,0,0,1,3.152-.5,17.2,17.2,0,0,1,1.687,1.207,2.577,2.577,0,0,0,1.779.42c.614-.105,1.446-.537,1.342-1.151-.243-1.431.75-.23.685-.474-.109-.406-.934-1.1-1.277-1.353a4.562,4.562,0,0,0-1.971-.8,10.229,10.229,0,0,0-5.6.632,7.258,7.258,0,0,0-3.985,3.815c-.824,2.019-.7,3.243-.417,5.417" transform="translate(-132.537 -78.638)"/></g></g><g transform="translate(11.681 15.99)"><path class="h" d="M135.865,113.8c-.007.131.541.267,1.223.3s1.242-.04,1.249-.171-.54-.267-1.223-.3S135.872,113.674,135.865,113.8Z" transform="translate(-135.865 -113.625)"/></g><g transform="translate(2.498 7.635)"><g transform="translate(0 0.492)"><path class="h" d="M148.554,98.557a2.973,2.973,0,0,0,.9-.2c.543-.162,1.277-.435,2.074-.759l2.04-.821a4.334,4.334,0,0,0,.843-.355,2.971,2.971,0,0,0-.9.2c-.543.162-1.277.435-2.075.759l-2.04.82A4.388,4.388,0,0,0,148.554,98.557Z" transform="translate(-148.554 -96.419)"/></g><g transform="translate(11.387)"><path class="h" d="M125.547,95.441a.876.876,0,0,0-.767.73,3.643,3.643,0,0,0,2.668,4.086,2.132,2.132,0,0,0,1.673-.157,2.647,2.647,0,0,0,.952-2.128,2.723,2.723,0,0,0-.3-1.709,2.458,2.458,0,0,0-1.973-.912c-.751-.041-2.258.09-2.258.09Z" transform="translate(-124.739 -95.343)"/></g><g transform="translate(4.214 0.156)"><path class="h" d="M144.884,95.732a.885.885,0,0,1,.8.716,3.685,3.685,0,0,1-2.579,4.209,2.155,2.155,0,0,1-1.7-.11,2.676,2.676,0,0,1-1.025-2.124,2.758,2.758,0,0,1,.249-1.737,2.487,2.487,0,0,1,1.968-.979c.758-.063,2.286.025,2.286.025Z" transform="translate(-140.349 -95.684)"/></g><g transform="translate(8.056 0.146)"><path class="h" d="M132.743,95.842a26.629,26.629,0,0,0,5.025-.1,26.629,26.629,0,0,0-5.025.1Z" transform="translate(-132.743 -95.662)"/></g></g><g transform="translate(0.544 12.389)"><g transform="translate(0 2.223)"><path class="e" d="M163.086,123.408s.008-.024.013-.071a.99.99,0,0,0-.008-.211,2.254,2.254,0,0,0-.283-.758,5.107,5.107,0,0,1-.515-1.142,5.733,5.733,0,0,1-.194-1.642c0-.621.078-1.288.123-2.033a1.034,1.034,0,0,0-.141-.591.563.563,0,0,0-.6-.277.489.489,0,0,0-.292.223.377.377,0,0,0,.009.4.577.577,0,0,0,.691.134,1.039,1.039,0,0,0,.546-1.2,1.068,1.068,0,0,0-.406-.592.776.776,0,0,0-.36-.142.475.475,0,0,0-.4.137.384.384,0,0,0,.285.669.941.941,0,0,0,.95-1.042.935.935,0,0,0-.445-.649.879.879,0,0,0-.661-.118.643.643,0,0,0-.309.181.4.4,0,0,0-.105.382.415.415,0,0,0,.277.272.762.762,0,0,0,.34.029,1.241,1.241,0,0,0,.575-.255,1.014,1.014,0,0,0,.374-1.124.89.89,0,0,0-.986-.584.549.549,0,0,0-.438.443.388.388,0,0,0,.125.324.5.5,0,0,0,.3.13.785.785,0,0,0,.536-.2,1.2,1.2,0,0,0,.339-.414.772.772,0,0,0-.212-.978.552.552,0,0,0-.854.335l-.011.064.055.03a.8.8,0,0,0,1.109-.4.679.679,0,0,0-.049-.591.841.841,0,0,0-.412-.364.671.671,0,0,0-.518,0,.383.383,0,0,0-.254.419.264.264,0,0,0,.166.2.323.323,0,0,0,.238-.012.449.449,0,0,0,.244-.322,3.634,3.634,0,0,0,.013-1.086,1.349,1.349,0,0,0-.081-.37,5.442,5.442,0,0,1-.035,1.428.337.337,0,0,1-.187.24.155.155,0,0,1-.231-.1c-.048-.235.333-.381.587-.251a.608.608,0,0,1,.362.751.631.631,0,0,1-.854.3l.045.093a.362.362,0,0,1,.554-.2.569.569,0,0,1,.137.722.85.85,0,0,1-.668.487c-.126-.011-.239-.112-.22-.214a.338.338,0,0,1,.27-.248.669.669,0,0,1,.719.447.784.784,0,0,1-.3.859,1.013,1.013,0,0,1-.46.205c-.156.024-.34-.032-.358-.132-.038-.092.094-.232.245-.267a.644.644,0,0,1,.477.091.7.7,0,0,1,.334.481.671.671,0,0,1-.182.543.678.678,0,0,1-.517.229c-.2-.005-.237-.144-.129-.275.091-.107.311-.076.459.035a.841.841,0,0,1,.32.463.821.821,0,0,1-.411.934c-.151.068-.364.05-.428-.051s.019-.259.161-.3a.362.362,0,0,1,.373.186.842.842,0,0,1,.115.479c-.036.717-.106,1.408-.095,2.034a5.733,5.733,0,0,0,.235,1.68,4.9,4.9,0,0,0,.562,1.149,2.459,2.459,0,0,1,.316.721C163.081,123.31,163.075,123.407,163.086,123.408Z" transform="translate(-160.965 -110.609)"/></g><g transform="translate(0.407)"><path class="e" d="M161.8,106.741a1.605,1.605,0,0,1,.194-.631.731.731,0,0,1,.53-.362.58.58,0,0,1,.582.37.6.6,0,0,1-.216.649l-.012.01,0,0,0,0-.051.033c-.076.048-.184.054-.261.1a.536.536,0,0,0-.2.489,4.883,4.883,0,0,1,.044.552c-.01.134-.086.29-.221.293-.117,0-.2-.112-.247-.218A2.362,2.362,0,0,1,161.8,106.741Z" transform="translate(-161.766 -105.745)"/></g></g><g transform="translate(2.505 22.374)"><path class="f" d="M144.911,128.161a6.454,6.454,0,0,1,.994,2.223,31.955,31.955,0,0,1-.6,4.293,6.073,6.073,0,0,1-.96,2.335l-.6.872a20.584,20.584,0,0,0-2.138,4.029c-1.159,2.931-3.107,7.866-3.175,8.1a18.916,18.916,0,0,1-.866,1.724l-1.03-12.319-3.108-6.159a4.165,4.165,0,0,1-.444-1.724l-.073-1.977a2.774,2.774,0,0,1,.718-1.966h0l.156,1.779,5.154,4.682,5.979-4.023Z" transform="translate(-132.911 -127.593)"/><g transform="translate(6.292 6.499)"><path class="h" d="M134.607,141.814a3.142,3.142,0,0,1,1.077,1.017,11.442,11.442,0,0,1,1.251,3.408l.1.4.046.184.145-.121a23.541,23.541,0,0,0,2.417-2.415,9.014,9.014,0,0,0,.892-1.069,8,8,0,0,0-1.01.958,33.277,33.277,0,0,1-2.45,2.343l.19.063-.1-.4a10.26,10.26,0,0,0-1.344-3.446,2.53,2.53,0,0,0-.827-.777A.944.944,0,0,0,134.607,141.814Z" transform="translate(-134.606 -141.813)"/></g><g transform="translate(2.612 6.504)"><path class="h" d="M148.355,145.14a14.56,14.56,0,0,0,1.16,1.886l.19.286.005-.348a6.908,6.908,0,0,1,.318-1.676,9.351,9.351,0,0,1,.917-2.594,6.951,6.951,0,0,1,.735-.869c-.008-.012-.109.037-.275.155a2.787,2.787,0,0,0-.6.62,8.009,8.009,0,0,0-1.007,2.627,6.341,6.341,0,0,0-.3,1.74l.2-.062A14.492,14.492,0,0,0,148.355,145.14Z" transform="translate(-148.352 -141.824)"/></g><g transform="translate(4.959 6.606)"><g transform="translate(0)"><path class="h" d="M148.1,158.746c.065,0,.359-3.731.656-8.341s.484-8.353.419-8.358-.359,3.73-.656,8.342S148.039,158.741,148.1,158.746Z" transform="translate(-148.091 -142.047)"/></g></g></g><g transform="translate(18.36 8.363)"><path class="e" d="M125.593,98.843a1.16,1.16,0,0,0,.055-1.073c-.2-.6-.656-.884-.685-.828-.046.053.291.378.458.9S125.526,98.828,125.593,98.843Z" transform="translate(-124.959 -96.936)"/></g><g transform="translate(11.443 8.674)"><g transform="translate(0)"><path class="e" d="M141.019,99.471c.048.04.35-.348.347-.926s-.3-.966-.347-.926.114.422.109.926S140.958,99.437,141.019,99.471Z" transform="translate(-141.006 -97.616)"/></g></g></g></g></g></g></g></svg>