<svg xmlns="http://www.w3.org/2000/svg" xmlns:xlink="http://www.w3.org/1999/xlink" width="40.318" height="40.318" viewBox="0 0 40.318 40.318"><defs><style>.a{clip-path:url(#a);}.b{fill:#e4a885;}.c{fill:#2d1a10;}.d{fill:#e8a78c;}.e{fill:#fff;}.f{fill:#00adb9;}.g{fill:#aeb0b3;}.h{fill:#002d43;}.i{fill:#001e30;}.j{fill:#1e110b;}.k{fill:#21120b;}.l{fill:#1a1818;}</style><clipPath id="a"><circle cx="20.159" cy="20.159" r="20.159" transform="translate(763 197)"/></clipPath></defs><g class="a" transform="translate(-763 -197)"><g transform="translate(726.122 177.272)"><g transform="translate(53.228 47.206)"><rect class="b" width="6.938" height="3.65" transform="translate(0 0)"/><path class="b" d="M85.846,96.251a6.61,6.61,0,0,0,3.061-.858,5.54,5.54,0,0,0,1.679-1.443c.083-.11.174-.235.259-.367v-.13h-6.94v2.732A15.792,15.792,0,0,0,85.846,96.251Z" transform="translate(-83.906 -93.453)"/></g><path class="b" d="M78.4,31.913h0c-4.433.125-7.817,1.946-7.8,8.227.009,3.724.349,4.822,1.434,9.071.751,2.94,4.744,4.491,6.268,4.592l.1-.008.1.008c1.522-.1,5.517-1.652,6.268-4.592,1.085-4.249,1.424-5.348,1.435-9.071C86.222,33.859,82.838,32.038,78.4,31.913Z" transform="translate(-21.705 -4.75)"/><path class="b" d="M114.908,64.375l-.485,3.709c1.9.838,2.2-3.526,2.2-3.526C116.184,63.469,114.908,64.375,114.908,64.375Z" transform="translate(-51.256 -26.401)"/><path class="b" d="M67.22,64.555s.3,4.364,2.2,3.526l-.484-3.709S67.66,63.467,67.22,64.555Z" transform="translate(-19.426 -26.399)"/><path class="c" d="M114.7,49.932" transform="translate(-51.442 -16.9)"/><path class="d" d="M60.227,104.662,69.6,107.1s3.2.489,4.014,3.364l1.4,5.208h-36.6l1.4-5.208c.816-2.873,4.014-3.364,4.014-3.364l9.343-2.439Z" transform="translate(0 -53.805)"/><path class="e" d="M38.411,115.67l1.4-5.208c.816-2.873,4.014-3.364,4.014-3.364l9.343-2.439h7.061L69.6,107.1s3.2.489,4.014,3.364l1.4,5.208" transform="translate(0 -53.803)"/><g transform="translate(54.391 50.857)"><path class="f" d="M90.4,104.662H89.192l-1.716,2.7,1.535,1.729h1.568l1.535-1.729Z" transform="translate(-87.476 -104.662)"/><path class="f" d="M90.648,108.765a4.839,4.839,0,0,1-1.169-4.1h-.288l-1.716,2.7,1.535,1.729h1.568l.189-.213C90.726,108.844,90.686,108.8,90.648,108.765Z" transform="translate(-87.476 -104.662)"/></g><g transform="translate(56.683 49.032)"><path class="g" d="M98.009,99.059l-3.495,1.825,2.3,3.468L101,101.836Z" transform="translate(-94.514 -99.059)"/><path class="e" d="M98.009,99.059l-3.495,1.825,2.345,3.007,3.911-2.264Z" transform="translate(-94.514 -99.059)"/></g><g transform="translate(50.22 49.032)"><path class="g" d="M77.661,99.059l3.473,1.825-2.282,3.468-4.181-2.516Z" transform="translate(-74.671 -99.059)"/><path class="e" d="M78.133,99.059l3.494,1.825-2.345,3.007-3.911-2.264Z" transform="translate(-75.143 -99.059)"/></g><path class="h" d="M50.5,106.262,43.826,108s-3.2.489-4.014,3.364l-1.4,5.208h36.6l-1.4-5.208C72.8,108.49,69.6,108,69.6,108l-6.987-2.005-5.927,10.317Z" transform="translate(-0.002 -54.703)"/><path class="f" d="M90.377,118.273l-.835,3.688,1.619,2.63,1.512-2.631-.728-3.687Z" transform="translate(-34.478 -62.983)"/><path class="i" d="M68.969,106.816l-3.16.823,1.783.69-1.1,1.252,6.375,7.543h2.477Z" transform="translate(-18.475 -55.257)"/><path class="i" d="M100.174,105.994l3.478,1-1.783.784,1.1,1.252-6.375,7.543H94.117Z" transform="translate(-37.563 -54.703)"/><path class="j" d="M70.773,38.178l.391,4.706c-2.057-5.536-.868-12.778-.868-12.778.656-2.674,1.261-3.128,2.32-3.683a5.724,5.724,0,0,1,2.321-.858c1.665-.4,0,0,2.252-.555a5.632,5.632,0,0,1,4.129.705c1.539.907,2.5,1.363,2.5,1.363,3.38,2.624,1.837,9.889,1.837,9.889a20.966,20.966,0,0,1-1.039,6.408l.262-6.1c0-8.414-4.3-7.67-4.3-7.67a16.82,16.82,0,0,1-5.035-.007s-5.153-1.581-4.773,8.466" transform="translate(-21.27)"/><path class="k" d="M74.291,33.446c.023.106-.039.167.058.223a6.524,6.524,0,0,1,.336-1.276c.267.179.877,1.208.829.157.284-.029.6.288.821.218.34-.107.367-.639.6-.922.535.386.611.692,1.139.393.186-.106.121-.47.376-.538.3-.083.448.266.683.294a3.224,3.224,0,0,0,1.043-.164c.27-.16.481-1.045.92-.362.614-.454.719.552,1.279.6,0-.09.016-.192.023-.283.348.246.417-.1.665-.074.466.046.557.28.928.43a4.1,4.1,0,0,0,1.56.3c.01-.046.018-.091.024-.137a11.369,11.369,0,0,0,1.355,1.371c.049-.044.042-.112.067-.138.3.414.413.924.9,1.179.035-.988-1.325-2.185-1.8-2.8.039.071.061.156.105.23a7.019,7.019,0,0,0-1.831-1.274c.027.1.021.249.053.353-.2-.471-1.7-.886-2.171-1.03.012.111-.035.256-.023.369-.029-.022-.4-.272-.443-.245.137-.088-.585.281-.3.247,0,0-.181.195-.3.215s-.53-.316-.675-.356c0,.091-.022.192-.023.282-.106-.079-.382-.152-.5-.285.005.113-.035.252-.029.364a1.681,1.681,0,0,0-.81-.516,1.674,1.674,0,0,0,.076.5c-.155-.309-.386-.447-.611-.212-.307-.3-.976-.772-1.057-.079-.091,0-.133-.068-.218-.058-.286.374-.65.1-.987,0,.04.4,0,.923-.469.755-.029.089-.051.19-.083.288a1.248,1.248,0,0,0-.2-.12c-.257.253-.706.243-1.059.442.015.6-.162,1.1-.165,1.727" transform="translate(-24.194 -3.546)"/><path class="l" d="M85.8,59l-1.415-.443v.037a10.654,10.654,0,0,0-5.934.015v0a4.726,4.726,0,0,1-2,.01c-.091-.027-.233-.067-.42-.111h0a10.807,10.807,0,0,0-5.213.079v-.029l-1.4.271v1.223l1.192.337c.2,1.3.97,2.8,3.491,2.541a2.966,2.966,0,0,0,2.645-2.854,4.035,4.035,0,0,0,0-.43.972.972,0,0,1,1.511.069c0,.187.007.31.007.31a2.967,2.967,0,0,0,2.645,2.855c2.453.255,3.246-1.164,3.474-2.436l1.379-.228Zm-9.624,1.174A2.424,2.424,0,0,1,74.012,62.5c-3.525.366-2.854-3.5-2.854-3.5a8.7,8.7,0,0,1,4.866.007A3.044,3.044,0,0,1,76.173,60.169ZM81,62.451a2.423,2.423,0,0,1-2.161-2.332,3.041,3.041,0,0,1,.149-1.16,8.7,8.7,0,0,1,4.866-.007s.671,3.866-2.854,3.5Z" transform="translate(-20.909 -22.458)"/></g></g></svg>