<svg xmlns="http://www.w3.org/2000/svg" xmlns:xlink="http://www.w3.org/1999/xlink" width="40.318" height="40.318" viewBox="0 0 40.318 40.318"><defs><style>.a{clip-path:url(#a);}.b{fill:#250f00;}.c{fill:#cd9371;}.d{fill:#a0745a;}.e{fill:#2d1a10;}.f{fill:#cc1e25;}.g{fill:#8b151a;}.h{fill:#2a1200;}.i{fill:#220e00;}.j{fill:#2e1809;}</style><clipPath id="a"><circle cx="20.159" cy="20.159" r="20.159" transform="translate(763 197)"/></clipPath></defs><g class="a" transform="translate(-763 -197)"><g transform="translate(728.927 -88.471)"><path class="b" d="M58.975,338.516s-1.13,8.281,5.211,8.388H70.9s5.969-1.534,4.794-8.39Z" transform="translate(-13.94 -32.715)"/><g transform="translate(50.792 312.143)"><path class="c" d="M0,0H6.166V3.563H0Z" transform="translate(0 0)"/><path class="d" d="M80.015,362.33a5.492,5.492,0,0,0,2.72-.838,5.1,5.1,0,0,0,1.493-1.408c.074-.107.155-.229.23-.359V359.6H78.291v2.666A12.617,12.617,0,0,0,80.015,362.33Z" transform="translate(-78.291 -359.599)"/></g><path class="c" d="M78.136,306.393c0-5.712-3.423-9-7.655-9.022h-.09c-4.232.027-7.654,3.31-7.654,9.022,0,7.408,5.333,11.729,7.691,11.748h.016C72.8,318.123,78.136,313.8,78.136,306.393Z" transform="translate(-16.625 -3.951)"/><g transform="translate(45.509 304.237)"><path class="c" d="M110.379,333.641l-.44,3.366c1.727.761,2-3.2,2-3.2C111.536,332.818,110.379,333.641,110.379,333.641Z" transform="translate(-95.134 -333.319)"/><path class="c" d="M60.732,333.805s.271,3.962,2,3.2l-.44-3.366S61.131,332.818,60.732,333.805Z" transform="translate(-60.732 -333.319)"/></g><path class="e" d="M108.307,317.6" transform="translate(-48.484 -18.093)"/><path class="c" d="M50.767,370.537l-7.417,2.294a4.315,4.315,0,0,0-3.258,3.163l-1.135,4.9h29.71l-1.135-4.9a4.314,4.314,0,0,0-3.258-3.163l-7.417-2.294Z" transform="translate(0 -55.102)"/><path class="f" d="M60.313,374.088l3.961,1.225a4.314,4.314,0,0,1,3.258,3.163l1.135,4.9H38.957l1.135-4.9a4.315,4.315,0,0,1,3.258-3.163l3.933-1.216S52.83,377.8,60.313,374.088Z" transform="translate(0 -57.585)"/><path class="g" d="M40.092,379.556a4.315,4.315,0,0,1,3.258-3.163l3.933-1.216s5.547,3.706,13.028-.009l3.962,1.225a4.315,4.315,0,0,1,3.258,3.163l.885,3.818h.25l-1.135-4.9a4.314,4.314,0,0,0-3.258-3.162l-3.961-1.226c-7.483,3.715-13.028.009-13.028.009l-3.933,1.216a4.315,4.315,0,0,0-3.259,3.163l-1.135,4.9h.25Z" transform="translate(0 -57.585)"/><path class="h" d="M56.869,305.689c-.564,12.186,2.106,13.242,2.106,13.242,3.561.727,3.738-.79,3.738-.79C58.022,316.9,58.9,305.758,58.9,305.758s2.877-2.05,3.34-4.523l.112-3.866S58.581,297.658,56.869,305.689Z" transform="translate(-12.468 -3.949)"/><path class="i" d="M73.081,297.02s3.1,4.837,11.176,4.79c0,0,.882,11.139-3.809,12.382,0,0,.294,1.715,3.856.988,0,0,2.724.527,2.3-12.853,0,0,.045-12.773-11.27-10.284C75.334,292.042,71.107,293.827,73.081,297.02Z" transform="translate(-23.49)"/><path class="j" d="M75.012,302.144a2.93,2.93,0,0,0,1.126,2.171c.655.185.454-.415.561-.878a3.769,3.769,0,0,0,1.612,1.658,2.883,2.883,0,0,1,.092-.816,9.2,9.2,0,0,0,2.3,1.661,1.474,1.474,0,0,0-.049-1.18c1.043.2,1.848,1.288,2.874,1.535a2.027,2.027,0,0,1,.1-.83,11.089,11.089,0,0,1,2.723,1.52,5.421,5.421,0,0,0-.049-.958c.361.178.669.524,1.034.692-.043-.808-.662-2.072-1.6-2.026a2.136,2.136,0,0,0,.047.532,11.455,11.455,0,0,0-2.157-2.3,2.3,2.3,0,0,0,.205.818,4.027,4.027,0,0,0-1.688-1.312c-.063.517.113,1.023.047,1.541-.527-.2-.682-1.049-1.241-1.333,0,.2-.124.415-.094.629a20.454,20.454,0,0,1-1.884-1.333,2.418,2.418,0,0,0,.566,1.319c-.3-.4-.588-1-1.058-1.162a1.211,1.211,0,0,0,.236.984c-.484-.166-.712-.637-1.1-.907,0,.074-.08.268-.077.388-.563.059-1.053-.651-1.672-.686.041.15-.014.319.056.476-.291-.084-.766-.356-.909-.2" transform="translate(-25.2 -7.096)"/></g></g></svg>