<svg width="22" height="21" viewBox="0 0 22 21" fill="none" xmlns="http://www.w3.org/2000/svg">
<path d="M5.8118 3.72721C7.1068 2.66846 8.70805 1.96846 10.4668 1.79346V3.56096C9.1893 3.71846 8.02555 4.22596 7.0543 4.97846L5.8118 3.72721ZM4.40305 9.62471H2.63555C2.81054 7.86596 3.51055 6.26471 4.5693 4.96971L5.82055 6.21221C5.06805 7.18346 4.56055 8.34721 4.40305 9.62471ZM5.82055 14.7872L4.5693 16.0385C3.51055 14.7435 2.81054 13.1335 2.63555 11.3835H4.40305C4.56055 12.6522 5.06805 13.816 5.82055 14.7872ZM10.4668 17.4385V19.206C8.70805 19.031 7.1068 18.331 5.8118 17.2722L7.06305 16.021C8.02555 16.7735 9.1893 17.281 10.4668 17.4385ZM10.4668 10.4997V6.12471H12.2168V10.4997H15.7168L11.3418 14.8747L6.9668 10.4997H10.4668ZM12.2168 17.4385V19.206C16.6355 18.7685 20.0918 15.041 20.0918 10.4997C20.0918 5.95846 16.6355 2.23096 12.2168 1.79346V3.56096C15.673 3.98971 18.3418 6.92971 18.3418 10.4997C18.3418 14.0697 15.673 17.0097 12.2168 17.4385Z" fill="white"/>
<path d="M12.2129 19.2144C14.3775 18.9395 16.4238 18.0472 17.8644 16.4083C19.3049 14.7693 20.097 12.6605 20.0918 10.4785C20.0865 8.29648 19.2843 6.19153 17.836 4.55948C16.3877 2.92743 14.393 2.06872 12.227 1.8042V3.55811C14.0087 3.95445 15.1915 4.4857 16.5001 5.74499C17.6594 7.05134 18.3015 8.73621 18.3057 10.4828C18.3099 12.2294 17.6759 13.9173 16.5228 15.2292C15.2917 16.4738 14.061 17.146 12.2129 17.4526V19.2144Z" fill="#0BD684"/>
</svg>
