<svg xmlns="http://www.w3.org/2000/svg" width="95.974" height="106.647" viewBox="0 0 95.974 106.647"><g transform="translate(-5.499 31.936)"><path d="M87.066,104.259A47.973,47.973,0,1,0,8.646,87.1Z" transform="translate(0 -41.99)" fill="#49d88b"/><path d="M96.187,0H29.771A8.621,8.621,0,0,0,21.15,8.621v64.97a50.9,50.9,0,0,0,6.042,11.4L98.7,97.059a51.309,51.309,0,0,0,6.111-5.163V8.621A8.621,8.621,0,0,0,96.187,0Z" transform="translate(-12.391 -31.936)" fill="#167cc1"/><path d="M49.468,86.648a3.6,3.6,0,0,1,0-5.077.847.847,0,0,0,.21-.556V69.675a.834.834,0,0,0-.211-.556,3.722,3.722,0,0,1,.02-5.084.841.841,0,0,0,.191-.534V52.148a.829.829,0,0,0-.214-.56c-2.19-2.392-.762-4.356-.085-5.06a.85.85,0,0,0,.22-.734l-3.49-20.141a.852.852,0,0,0-.227-.442c-4.6-4.788-1.784-9.49-.661-10.988a.851.851,0,0,0,.09-.9,1.056,1.056,0,0,1,.124-1.18.871.871,0,0,0,.186-.528V7.935a.78.78,0,0,0-.158-.455,1.142,1.142,0,0,1-.113-1.167.845.845,0,0,0-.13-.874,3.6,3.6,0,0,1-.1-4.913A.835.835,0,0,0,45.312,0H29.771A8.62,8.62,0,0,0,21.15,8.622v64.97a50.9,50.9,0,0,0,6.042,11.4l22.488,3.8v-1.58A.831.831,0,0,0,49.468,86.648Z" transform="translate(-12.391 -31.937)" fill="#0e62a8"/><path d="M73.5,187.791c-9.308-11.338-19.54-10-24.148-8.547v46.664a51.034,51.034,0,0,0,71.91,12.139V204.784a47.112,47.112,0,0,1-3.746-3.388C104.907,188.788,94.51,213.383,73.5,187.791Z" transform="translate(-34.718 -173.093)" fill="#e9efff"/><path d="M71.96,240.158a.841.841,0,0,0,.046-.274V228.362a.831.831,0,0,0-.212-.557,3.6,3.6,0,0,1,0-5.077.847.847,0,0,0,.21-.556V210.831a.834.834,0,0,0-.211-.556,3.721,3.721,0,0,1,.02-5.084.842.842,0,0,0,.191-.534V193.3a.829.829,0,0,0-.214-.56c-2.19-2.392-.762-4.356-.085-5.06a.85.85,0,0,0,.22-.734l-.2-1.157c-8.806-9.171-18.06-7.909-22.376-6.549v46.664a51.2,51.2,0,0,0,23.327,18.41A4.563,4.563,0,0,1,71.96,240.158Z" transform="translate(-34.717 -173.093)" fill="#d3dcfb"/><g transform="translate(14.633 -18.64)"><g transform="translate(0 0)"><path d="M73.5,97.606c21.011,25.592,31.409,1,44.016,13.6a47.125,47.125,0,0,0,3.746,3.389V63.833H49.352V89.059c4.607-1.452,14.839-2.791,24.148,8.547Z" transform="translate(-49.352 -63.833)" fill="#9bd8f9"/></g></g><path d="M49.352,89.059c4.332-1.365,13.635-2.629,22.469,6.647L68.439,76.189a.852.852,0,0,0-.227-.442c-4.6-4.788-1.784-9.49-.661-10.988a.851.851,0,0,0,.09-.9c0-.009-.006-.017-.011-.026H49.352Z" transform="translate(-34.719 -82.473)" fill="#73c3f9"/><g transform="translate(24.777 -6.565)"><path d="M146.821,142.681H100.054a2.01,2.01,0,0,1-2-2V123.807a2.01,2.01,0,0,1,2-2h46.767a2.01,2.01,0,0,1,2,2v16.869A2.01,2.01,0,0,1,146.821,142.681Z" transform="translate(-98.05 -121.803)" fill="#4fabf7"/></g><path d="M114.436,138.847V125.635a3.844,3.844,0,0,1,3.833-3.833H100.054a2.01,2.01,0,0,0-2,2v16.869a2.01,2.01,0,0,0,2,2h18.215A3.845,3.845,0,0,1,114.436,138.847Z" transform="translate(-73.273 -128.367)" fill="#1e9ef4"/><g transform="translate(14.633 -26.062)"><path d="M118.515,28.2H52.1a2.755,2.755,0,0,0-2.747,2.747v5.11h71.91V30.949A2.754,2.754,0,0,0,118.515,28.2Z" transform="translate(-49.351 -28.202)" fill="#2a428c"/></g><path d="M67.64,35.65a1.056,1.056,0,0,1,.124-1.18.872.872,0,0,0,.186-.528v-3.68a.78.78,0,0,0-.158-.455,1.142,1.142,0,0,1-.113-1.167.845.845,0,0,0,.06-.438H52.1a2.755,2.755,0,0,0-2.747,2.747v5.11H67.727A.8.8,0,0,0,67.64,35.65Z" transform="translate(-34.718 -54.264)" fill="#1c2e7a"/><g transform="translate(19.263 -24.273)"><path d="M75.858,38.93a2.139,2.139,0,1,1-2.139-2.139A2.139,2.139,0,0,1,75.858,38.93Z" transform="translate(-71.579 -36.791)" fill="#ff4155"/></g><g transform="translate(25.178 -24.273)"><path d="M104.256,38.93a2.139,2.139,0,1,1-2.139-2.139A2.139,2.139,0,0,1,104.256,38.93Z" transform="translate(-99.977 -36.791)" fill="#ffdd40"/></g><g transform="translate(31.094 -24.273)"><path d="M132.654,38.93a2.139,2.139,0,1,1-2.139-2.139A2.139,2.139,0,0,1,132.654,38.93Z" transform="translate(-128.375 -36.791)" fill="#38c674"/></g><g transform="translate(40.766 -23.765)"><path d="M197.911,42.492H176.444a1.632,1.632,0,0,1,0-3.264h21.467a1.632,1.632,0,0,1,0,3.264Z" transform="translate(-174.812 -39.228)" fill="#3c58a0"/></g><g transform="translate(30.95 -2.466)"><g transform="translate(24.363 0)"><path d="M246.282,154.162a1.632,1.632,0,0,1-1.632-1.632v-9.415a1.632,1.632,0,1,1,3.264,0v9.415A1.631,1.631,0,0,1,246.282,154.162Z" transform="translate(-244.65 -141.484)" fill="#e9efff"/></g><g transform="translate(28.885 0)"><path d="M274.27,154.162h-6.281a1.632,1.632,0,0,1-1.367-2.523l4.491-6.892h-2.931a1.632,1.632,0,0,1,0-3.264h5.942a1.633,1.633,0,0,1,1.367,2.523L271,150.9h3.27a1.632,1.632,0,1,1,0,3.264Z" transform="translate(-266.357 -141.484)" fill="#e9efff"/></g><g transform="translate(13.261)"><path d="M196.2,154.162h-.008a4.75,4.75,0,0,1-4.842-4.568v-6.478a1.632,1.632,0,1,1,3.264,0v6.478c0,.33.055.637.724,1.065a1.551,1.551,0,0,0,.859.24h0c.771,0,1.693-.511,1.693-1.311v-6.472a1.632,1.632,0,0,1,3.264,0v6.472A4.8,4.8,0,0,1,196.2,154.162Z" transform="translate(-191.348 -141.483)" fill="#e9efff"/></g><g transform="translate(0 0)"><g transform="translate(6.439 6.365)"><path d="M162.088,177.839l-3.012-3.012a1.632,1.632,0,0,1,2.308-2.308l3.012,3.012a1.632,1.632,0,0,1-2.308,2.308Z" transform="translate(-158.598 -172.041)" fill="#e9efff"/></g><path d="M134.025,154.162a6.339,6.339,0,1,1,6.339-6.339A6.346,6.346,0,0,1,134.025,154.162Zm0-9.415a3.076,3.076,0,1,0,3.076,3.076A3.079,3.079,0,0,0,134.025,144.748Z" transform="translate(-127.686 -141.484)" fill="#e9efff"/></g></g><g transform="translate(36.854 19.876)"><path d="M193.618,253.633l-4.434-4.434a1.569,1.569,0,0,0-1.11-.46H156.03v12.007h32.044a1.569,1.569,0,0,0,1.11-.46l4.434-4.433A1.57,1.57,0,0,0,193.618,253.633Z" transform="translate(-156.03 -248.74)" fill="#d3dcfb"/><path d="M193.618,337.791l-4.434-4.434a1.57,1.57,0,0,0-1.11-.46H156.03V344.9h32.044a1.57,1.57,0,0,0,1.11-.46l4.434-4.433A1.57,1.57,0,0,0,193.618,337.791Z" transform="translate(-156.03 -315.368)" fill="#d3dcfb"/><path d="M193.618,421.948l-4.434-4.434a1.569,1.569,0,0,0-1.11-.46H156.03v12.007h32.044a1.569,1.569,0,0,0,1.11-.46l4.434-4.434A1.57,1.57,0,0,0,193.618,421.948Z" transform="translate(-156.03 -381.996)" fill="#d3dcfb"/></g><path d="M167.329,254.742a6,6,0,0,1,6-6h-17.3v12.007h17.3A6,6,0,0,1,167.329,254.742Z" transform="translate(-119.176 -228.864)" fill="#bec8f7"/><path d="M167.329,338.9a6,6,0,0,1,6-6h-17.3V344.9h17.3A6,6,0,0,1,167.329,338.9Z" transform="translate(-119.176 -295.492)" fill="#bec8f7"/><path d="M167.329,423.058a6,6,0,0,1,6-6h-17.3v12.007h17.3A6,6,0,0,1,167.329,423.058Z" transform="translate(-119.176 -362.119)" fill="#bec8f7"/><path d="M99.976,418.625v7.44a51.167,51.167,0,0,0,4.28,3h7.831V417.055H101.546A1.57,1.57,0,0,0,99.976,418.625Z" transform="translate(-74.798 -362.12)" fill="#38c674"/><path d="M112.087,332.9H101.546a1.57,1.57,0,0,0-1.57,1.57v8.868a1.57,1.57,0,0,0,1.57,1.57h10.541Z" transform="translate(-74.798 -295.492)" fill="#ffdd40"/><path d="M112.087,248.74H101.546a1.57,1.57,0,0,0-1.57,1.57v8.867a1.57,1.57,0,0,0,1.57,1.57h10.541Z" transform="translate(-74.798 -228.865)" fill="#ff4155"/><g transform="translate(74.902 24.371)" fill="#49d88b" stroke-linecap="round"><path d="M 8.700420379638672 17.98984146118164 L 7.964180946350098 17.18814086914063 L -0.7365391850471497 7.713840961456299 L -1.357709169387817 7.037440776824951 L -0.7365391850471497 6.361040592193604 L 2.074460744857788 3.300110816955566 L 2.802580833435059 2.507260799407959 L 3.539730787277222 3.29171085357666 L 8.697402954101563 8.780304908752441 L 18.43943023681641 -1.681479215621948 L 19.17636108398438 -2.472869157791138 L 19.90780067443848 -1.676399230957031 L 22.71880149841309 1.384530782699585 L 23.3402099609375 2.061200857162476 L 22.71853065490723 2.737620830535889 L 9.436990737915039 17.18843078613281 L 8.700420379638672 17.98984146118164 Z" stroke="none"/><path d="M 8.70072078704834 16.51174163818359 L 21.98226165771484 2.060930728912354 L 19.17126083374023 -0.9999991655349731 L 8.70072078704834 10.24412059783936 L 2.811000823974609 3.976510763168335 L 8.2885742358485e-07 7.037440776824951 L 8.70072078704834 16.51174163818359 M 8.700130462646484 19.46794128417969 L 7.22765064239502 17.86454010009766 L -1.473069190979004 8.390240669250488 L -2.715409278869629 7.037440776824951 L -1.473069190979004 5.684650897979736 L 1.337930798530579 2.62372088432312 L 2.794160842895508 1.038010835647583 L 4.268470764160156 2.606920719146729 L 8.694076538085938 7.31647777557373 L 17.70759010314941 -2.362969160079956 L 19.18146133422852 -3.94572925567627 L 20.64433097839355 -2.352789163589478 L 23.45532989501953 0.7081407904624939 L 24.69817161560059 2.061470746994019 L 23.45479011535645 3.414310932159424 L 10.17325115203857 17.86511993408203 L 8.700130462646484 19.46794128417969 Z" stroke="none" fill="#fff"/></g><g transform="translate(74.902 -3.365)" fill="#49d88b" stroke-linecap="round"><path d="M 8.700420379638672 17.98984146118164 L 7.964180946350098 17.18814086914063 L -0.7365391850471497 7.713840961456299 L -1.357709169387817 7.037440776824951 L -0.7365391850471497 6.361040592193604 L 2.074460744857788 3.300110816955566 L 2.802580833435059 2.507260799407959 L 3.539730787277222 3.29171085357666 L 8.697402954101563 8.780304908752441 L 18.43943023681641 -1.681479215621948 L 19.17636108398438 -2.472869157791138 L 19.90780067443848 -1.676399230957031 L 22.71880149841309 1.384530782699585 L 23.3402099609375 2.061200857162476 L 22.71853065490723 2.737620830535889 L 9.436990737915039 17.18843078613281 L 8.700420379638672 17.98984146118164 Z" stroke="none"/><path d="M 8.70072078704834 16.51174163818359 L 21.98226165771484 2.060930728912354 L 19.17126083374023 -0.9999991655349731 L 8.70072078704834 10.24412059783936 L 2.811000823974609 3.976510763168335 L 8.2885742358485e-07 7.037440776824951 L 8.70072078704834 16.51174163818359 M 8.700130462646484 19.46794128417969 L 7.22765064239502 17.86454010009766 L -1.473069190979004 8.390240669250488 L -2.715409278869629 7.037440776824951 L -1.473069190979004 5.684650897979736 L 1.337930798530579 2.62372088432312 L 2.794160842895508 1.038010835647583 L 4.268470764160156 2.606920719146729 L 8.694076538085938 7.31647777557373 L 17.70759010314941 -2.362969160079956 L 19.18146133422852 -3.94572925567627 L 20.64433097839355 -2.352789163589478 L 23.45532989501953 0.7081407904624939 L 24.69817161560059 2.061470746994019 L 23.45479011535645 3.414310932159424 L 10.17325115203857 17.86511993408203 L 8.700130462646484 19.46794128417969 Z" stroke="none" fill="#fff"/></g><g transform="translate(74.902 48.611)" fill="#49d88b" stroke-linecap="round"><path d="M 8.700420379638672 17.98984146118164 L 7.964180946350098 17.18814086914063 L -0.7365391850471497 7.713840961456299 L -1.357709169387817 7.037440776824951 L -0.7365391850471497 6.361040592193604 L 2.074460744857788 3.300110816955566 L 2.802580833435059 2.507260799407959 L 3.539730787277222 3.29171085357666 L 8.697402954101563 8.780304908752441 L 18.43943023681641 -1.681479215621948 L 19.17636108398438 -2.472869157791138 L 19.90780067443848 -1.676399230957031 L 22.71880149841309 1.384530782699585 L 23.3402099609375 2.061200857162476 L 22.71853065490723 2.737620830535889 L 9.436990737915039 17.18843078613281 L 8.700420379638672 17.98984146118164 Z" stroke="none"/><path d="M 8.70072078704834 16.51174163818359 L 21.98226165771484 2.060930728912354 L 19.17126083374023 -0.9999991655349731 L 8.70072078704834 10.24412059783936 L 2.811000823974609 3.976510763168335 L 8.2885742358485e-07 7.037440776824951 L 8.70072078704834 16.51174163818359 M 8.700130462646484 19.46794128417969 L 7.22765064239502 17.86454010009766 L -1.473069190979004 8.390240669250488 L -2.715409278869629 7.037440776824951 L -1.473069190979004 5.684650897979736 L 1.337930798530579 2.62372088432312 L 2.794160842895508 1.038010835647583 L 4.268470764160156 2.606920719146729 L 8.694076538085938 7.31647777557373 L 17.70759010314941 -2.362969160079956 L 19.18146133422852 -3.94572925567627 L 20.64433097839355 -2.352789163589478 L 23.45532989501953 0.7081407904624939 L 24.69817161560059 2.061470746994019 L 23.45479011535645 3.414310932159424 L 10.17325115203857 17.86511993408203 L 8.700130462646484 19.46794128417969 Z" stroke="none" fill="#fff"/></g></g></svg>