<svg xmlns="http://www.w3.org/2000/svg" width="109.744" height="28.255" viewBox="0 0 109.744 28.255"><defs><style>.a{fill:#429ae6;}</style></defs><g transform="translate(5 -13)"><g transform="translate(-5 13)"><path class="a" d="M186.2,39.573c.349.127.425.4.581.6a10.916,10.916,0,0,0,8.585,4.354,5.426,5.426,0,0,0,5.6-4.5,5.5,5.5,0,0,0-3.433-6.112A5.44,5.44,0,0,0,190.83,36.3c-.079.128-.167.251-.325.489a12.65,12.65,0,0,0-1.75-3.72c-.263-.364.058-.568.274-.786a9.388,9.388,0,0,1,13.839.795,8.9,8.9,0,0,1,1.1,10.142,9.036,9.036,0,0,1-8.949,5.207A9.347,9.347,0,0,1,186.2,39.573Z" transform="translate(-171.167 -29.61)"/><path class="a" d="M183.774,43.063a9.8,9.8,0,0,1-5.71-5.539,6.15,6.15,0,0,0-2.453-3.153,5.485,5.485,0,0,0-8.372,4.583c-.047,2.878-.012,5.756-.013,8.633,0,.94-.052.976-.99.732a3.7,3.7,0,0,1-2.89-3.329,42.876,42.876,0,0,1,.105-7.52,9.4,9.4,0,0,1,18.557.029,10.825,10.825,0,0,1,.136,1.481A6.192,6.192,0,0,0,183.774,43.063Z" transform="translate(-163.233 -29.606)"/><path class="a" d="M186.264,49.909a10.474,10.474,0,0,0,3.514,4.363.82.82,0,0,1,.283.768c0,3.063-.014,6.126.007,9.188,0,.585-.181.727-.742.607a3.886,3.886,0,0,1-3.182-3.687c-.038-3.664-.01-7.329-.007-10.994C186.137,50.115,186.176,50.076,186.264,49.909Z" transform="translate(-171.14 -36.619)"/><path class="a" d="M279.241,47.982c0,1.332-.027,2.4.009,3.468.023.674-.047,1.066-.911,1.077-.913.012-.872-.46-.869-1.087.014-3.465,0-6.93.016-10.395,0-.345-.224-.867.338-.972.411-.077,1.088-.235,1.229.147.323.876.61.473,1.083.183a3.9,3.9,0,0,1,5.833,2.106c1.036,2.969-.344,6.008-2.986,6.6A4.115,4.115,0,0,1,279.241,47.982Zm-.015-3.433c.02,1.871,1.037,3.04,2.638,3.031,1.553-.009,2.63-1.269,2.632-3.08a2.862,2.862,0,0,0-2.607-3.147C280.32,41.322,279.207,42.659,279.226,44.548Z" transform="translate(-202.684 -33.122)"/><path class="a" d="M312.254,49.24a4.589,4.589,0,0,1-4.511-5.076,4.412,4.412,0,0,1,5.116-4.364,4.212,4.212,0,0,1,3.5,4.4c-.031.728-.408.755-.948.751-1.566-.014-3.135.041-4.7-.02-1.191-.046-1.221.493-.8,1.332a2.619,2.619,0,0,0,4.4.374c.582-.842,1.163-.74,1.666-.3.552.482-.125.95-.4,1.325A4.069,4.069,0,0,1,312.254,49.24Zm-.207-5.681a3.707,3.707,0,0,0,.87-.012c.5-.126,1.332.411,1.467-.389a1.6,1.6,0,0,0-1.189-1.647,2.511,2.511,0,0,0-2.5.183c-.52.369-1.085.888-.915,1.537.177.677.916.217,1.395.318A4.337,4.337,0,0,0,312.047,43.559Z" transform="translate(-213.146 -33.11)"/><path class="a" d="M243.371,44.934c-.734,0-1.469-.014-2.2,0-1.162.027-1.348.389-.748,1.421a2.607,2.607,0,0,0,4.321.286c.567-.821,1.123-.782,1.659-.329.592.5-.1.958-.376,1.318a4.353,4.353,0,0,1-5.814.848A4.98,4.98,0,0,1,238.7,42.2a4.225,4.225,0,0,1,8.086,1.821c.022.711-.209.967-.916.927C245.038,44.9,244.2,44.934,243.371,44.934Zm-.854-1.391a2.617,2.617,0,0,0,.724-.011c.535-.161,1.457.485,1.568-.425a1.684,1.684,0,0,0-1.484-1.726,2.42,2.42,0,0,0-2.447.5c-.386.381-.842.843-.668,1.368.192.581.846.218,1.291.284A6.924,6.924,0,0,0,242.517,43.543Z" transform="translate(-189.119 -33.093)"/><path class="a" d="M297.954,44.934c-.734,0-1.47.047-2.2-.01-1.368-.107-1.214.585-.762,1.405a2.6,2.6,0,0,0,4.309.329c.563-.8,1.1-.819,1.661-.359.677.559-.1,1.02-.386,1.389a4.36,4.36,0,0,1-5.94.671,5.084,5.084,0,0,1-1.127-6.6,4.3,4.3,0,0,1,4.83-1.911,4.193,4.193,0,0,1,3.015,3.9c.064.827-.054,1.309-1.057,1.2A21.537,21.537,0,0,0,297.954,44.934Zm-.835-1.392a2.7,2.7,0,0,0,.728-.01c.541-.158,1.5.473,1.574-.414a1.755,1.755,0,0,0-1.506-1.741,2.522,2.522,0,0,0-2.351.413c-.457.393-.94.919-.778,1.478s.856.206,1.312.266A7.935,7.935,0,0,0,297.119,43.543Z" transform="translate(-207.978 -33.093)"/><path class="a" d="M260.886,45.568c0,.832.014,1.665-.007,2.5-.008.3.256.768-.277.829-.45.052-1.191.3-1.319-.178-.249-.931-.514-.459-.917-.19a3.391,3.391,0,0,1-3.476.383,2.526,2.526,0,0,1-1.614-2.55,2.339,2.339,0,0,1,1.759-2.273c.922-.295,1.913-.369,2.866-.575.494-.107,1.182-.061,1.142-.846a1.333,1.333,0,0,0-.989-1.322c-1.043-.26-2.163-.324-2.646.871-.419,1.036-1.154.7-1.629.415-.633-.382-.08-.969.176-1.384a4.083,4.083,0,0,1,4.466-1.411,3.076,3.076,0,0,1,2.428,3.092c.054.877.009,1.761.009,2.642Zm-4.6,2.137a2.438,2.438,0,0,0,2.782-2.283c.031-.565-.179-.678-.662-.626-2.358.255-3.354.478-3.323,1.619A1.226,1.226,0,0,0,256.285,47.705Z" transform="translate(-194.335 -33.088)"/><path class="a" d="M224.332,44.369c0-1.123-.012-2.247.007-3.37.006-.355-.188-.87.38-.957.408-.063,1.058-.264,1.214.153.348.926.651.293,1,.086,2.365-1.391,4.775-.27,5.033,2.453.17,1.792.043,3.611.1,5.415.02.693-.31.773-.888.8-.717.035-.923-.223-.9-.916.045-1.415.041-2.834,0-4.249-.046-1.7-.713-2.482-2.031-2.488-1.289-.006-2.041.8-2.124,2.455-.071,1.413-.05,2.832-.018,4.248.015.653-.115.97-.871.956-.7-.013-.944-.221-.917-.926C224.366,46.812,224.332,45.59,224.332,44.369Z" transform="translate(-184.331 -33.086)"/><path class="a" d="M269.382,41.1a3.632,3.632,0,0,1,1.819-1.143c.483-.065,1.24-.52,1.341.5.069.7.126,1.267-.962,1.32-1.591.078-2.172.826-2.235,2.479-.048,1.265-.052,2.534-.013,3.8.022.683-.177.935-.9.94s-.9-.232-.893-.919c.037-2.24-.01-4.482.035-6.722.009-.44-.408-1.139.459-1.3C268.8,39.911,269.38,40.069,269.382,41.1Z" transform="translate(-199.244 -33.128)"/><path class="a" d="M323.239,44.526c0-1.17-.014-2.339.008-3.509.007-.345-.2-.9.4-.911.458-.01,1.162-.382,1.316.443.112.6.279.482.6.167a2.833,2.833,0,0,1,1.68-.806c.5-.06,1.029-.117.986.653-.031.536.222,1.114-.751,1.233-2.027.246-2.423.792-2.455,2.871-.018,1.17-.047,2.341.01,3.509.039.8-.383.821-.987.842-.648.023-.842-.207-.821-.837C323.269,46.964,323.24,45.745,323.239,44.526Z" transform="translate(-218.496 -33.154)"/></g></g></svg>