<svg width="25" height="24" viewBox="0 0 25 24" fill="none" xmlns="http://www.w3.org/2000/svg">
<g clip-path="url(#clip0_2188_9693)">
<rect x="8.75586" y="16" width="7.31445" height="2" rx="1" fill="white"/>
<path d="M15.3459 2.59C14.9659 2.21 14.4559 2 13.9259 2H6.75586C5.65586 2 4.75586 2.9 4.75586 4V20C4.75586 21.1 5.64586 22 6.74586 22H18.7559C19.8559 22 20.7559 21.1 20.7559 20V8.83C20.7559 8.3 20.5459 7.79 20.1659 7.42L15.3459 2.59ZM15.7559 18H9.75586C9.20586 18 8.75586 17.55 8.75586 17C8.75586 16.45 9.20586 16 9.75586 16H15.7559C16.3059 16 16.7559 16.45 16.7559 17C16.7559 17.55 16.3059 18 15.7559 18ZM15.7559 14H9.75586C9.20586 14 8.75586 13.55 8.75586 13C8.75586 12.45 9.20586 12 9.75586 12H15.7559C16.3059 12 16.7559 12.45 16.7559 13C16.7559 13.55 16.3059 14 15.7559 14ZM13.7559 8V3.5L19.2559 9H14.7559C14.2059 9 13.7559 8.55 13.7559 8Z" fill="#E03249"/>
<rect x="16.499" y="16" width="0.256836" height="2" rx="0.128418" fill="#E03249"/>
<rect x="8.75586" y="17" width="6.6333" height="1" rx="0.5" fill="#E03249"/>
<rect x="8.75586" y="13" width="8" height="1" rx="0.5" fill="#E03249"/>
<g clip-path="url(#clip1_2188_9693)">
<path d="M20.022 16.9023H19.647V16.1523C19.647 15.1173 18.807 14.2773 17.772 14.2773C16.737 14.2773 15.897 15.1173 15.897 16.1523V16.9023H15.522C15.1095 16.9023 14.772 17.2398 14.772 17.6523V21.4023C14.772 21.8148 15.1095 22.1523 15.522 22.1523H20.022C20.4345 22.1523 20.772 21.8148 20.772 21.4023V17.6523C20.772 17.2398 20.4345 16.9023 20.022 16.9023ZM17.772 20.2773C17.3595 20.2773 17.022 19.9398 17.022 19.5273C17.022 19.1148 17.3595 18.7773 17.772 18.7773C18.1845 18.7773 18.522 19.1148 18.522 19.5273C18.522 19.9398 18.1845 20.2773 17.772 20.2773ZM18.9345 16.9023H16.6095V16.1523C16.6095 15.5111 17.1307 14.9898 17.772 14.9898C18.4132 14.9898 18.9345 15.5111 18.9345 16.1523V16.9023Z" fill="white"/>
</g>
</g>
<defs>
<clipPath id="clip0_2188_9693">
<rect width="24" height="24" fill="white" transform="translate(0.755859)"/>
</clipPath>
<clipPath id="clip1_2188_9693">
<rect width="9" height="9" fill="white" transform="translate(13 14)"/>
</clipPath>
</defs>
</svg>
