<svg width="25" height="25" viewBox="0 0 25 25" fill="none" xmlns="http://www.w3.org/2000/svg">
<g clip-path="url(#clip0_2188_9675)">
<path d="M15.3459 3.10172C14.9659 2.72172 14.4559 2.51172 13.9259 2.51172H6.75586C5.65586 2.51172 4.75586 3.41172 4.75586 4.51172V20.5117C4.75586 21.6117 5.64586 22.5117 6.74586 22.5117H18.7559C19.8559 22.5117 20.7559 21.6117 20.7559 20.5117V9.34172C20.7559 8.81172 20.5459 8.30172 20.1659 7.93172L15.3459 3.10172ZM15.7559 18.5117H9.75586C9.20586 18.5117 8.75586 18.0617 8.75586 17.5117C8.75586 16.9617 9.20586 16.5117 9.75586 16.5117H15.7559C16.3059 16.5117 16.7559 16.9617 16.7559 17.5117C16.7559 18.0617 16.3059 18.5117 15.7559 18.5117ZM15.7559 14.5117H9.75586C9.20586 14.5117 8.75586 14.0617 8.75586 13.5117C8.75586 12.9617 9.20586 12.5117 9.75586 12.5117H15.7559C16.3059 12.5117 16.7559 12.9617 16.7559 13.5117C16.7559 14.0617 16.3059 14.5117 15.7559 14.5117ZM13.7559 8.51172V4.01172L19.2559 9.51172H14.7559C14.2059 9.51172 13.7559 9.06172 13.7559 8.51172Z" fill="#E03249"/>
<rect x="15.7559" y="16.5117" width="1" height="2" rx="0.5" fill="#E03249"/>
<rect x="8.75586" y="16.5117" width="6" height="2" rx="1" fill="white"/>
<rect x="8.75586" y="17.5117" width="6" height="1" rx="0.5" fill="#E03249"/>
<rect x="8.75586" y="13.5117" width="8" height="1" rx="0.5" fill="#E03249"/>
<path d="M20.29 18.0113C20.3824 18.0117 20.4726 18.0395 20.5493 18.0911C20.626 18.1428 20.6856 18.216 20.7207 18.3015C20.7559 18.3871 20.7649 18.4811 20.7467 18.5717C20.7285 18.6624 20.6838 18.7456 20.6184 18.8109L17.6891 13.5117M20.29 18.0113H18.7478H18.2478V17.5113V14.0744C18.2481 14.0007 18.234 13.9276 18.2061 13.8594C18.1782 13.7912 18.1371 13.7292 18.0852 13.6769C18.0333 13.6247 17.9716 13.5832 17.9036 13.5548C17.8356 13.5265 17.7627 13.5118 17.6891 13.5117M20.29 18.0113L20.288 18.479L20.288 18.4793L20.288 18.4795L20.288 18.4798L20.288 18.483L20.2878 18.5113C20.2814 18.5113 20.2752 18.5094 20.2699 18.5058C20.2647 18.5023 20.2606 18.4973 20.2582 18.4915C20.2559 18.4857 20.2552 18.4793 20.2565 18.4732C20.2576 18.4679 20.26 18.4629 20.2635 18.4588C20.264 18.4582 20.2645 18.4577 20.265 18.4572L20.2635 18.4587L20.2113 18.5113H20.29V18.485V18.4818V18.4799V18.4784V18.4761V18.0113ZM17.6891 13.5117L17.6884 14.0117C17.6885 14.0117 17.6885 14.0117 17.6886 14.0117H17.6891V13.5117ZM16.7937 22.0265L16.758 21.9906L16.7224 22.0265M16.7937 22.0265C16.7843 22.0171 16.7715 22.0117 16.758 22.0117C16.7446 22.0117 16.7318 22.0171 16.7224 22.0265M16.7937 22.0265L16.758 22.0621M16.7937 22.0265L16.7948 22.0276L16.7591 22.0632M16.7224 22.0265L16.721 22.0278L16.7568 22.0634M16.7224 22.0265L16.758 22.0621M16.758 22.0621L16.7591 22.0632M16.758 22.0621L16.7568 22.0634M16.7591 22.0632L16.758 22.0642L16.7578 22.0644M16.7591 22.0632L17.0759 22.3801L16.758 22.0646L16.7578 22.0644M16.7568 22.0634L16.4402 22.3801L16.7578 22.0644M16.7568 22.0634L16.7578 22.0644M15.826 14.0117C15.8261 14.0117 15.8262 14.0117 15.8262 14.0117L15.8256 13.5117V14.0117H15.826ZM13.3005 18.5113L13.248 18.4585L13.248 18.4585L13.2465 18.457C13.247 18.4575 13.2475 18.458 13.248 18.4585C13.2516 18.4627 13.2541 18.4678 13.2552 18.4732C13.2565 18.4793 13.2559 18.4857 13.2535 18.4915C13.2511 18.4973 13.247 18.5023 13.2418 18.5058C13.2365 18.5094 13.2303 18.5113 13.2239 18.5113L13.2237 18.4826L13.2237 18.4798L13.2237 18.4795L13.2237 18.4793L13.2237 18.479L13.2217 18.0113V18.4761V18.4784V18.4799V18.4818V18.4846V18.5113H13.3005Z" stroke="white"/>
</g>
<defs>
<clipPath id="clip0_2188_9675">
<rect width="24" height="24" fill="white" transform="translate(0.755859 0.511719)"/>
</clipPath>
</defs>
</svg>
