<svg xmlns="http://www.w3.org/2000/svg" width="20.026" height="16.729" viewBox="0 0 20.026 16.729"><g transform="translate(-1273.916 -1698)"><path d="M186.2,35.513c.206.075.251.237.343.353a6.443,6.443,0,0,0,5.071,2.578,3.207,3.207,0,0,0,3.31-2.663,3.256,3.256,0,0,0-2.028-3.619,3.21,3.21,0,0,0-3.962,1.416c-.046.076-.1.148-.192.289a7.5,7.5,0,0,0-1.034-2.2c-.155-.215.034-.336.162-.465a5.537,5.537,0,0,1,8.174.47,5.276,5.276,0,0,1,.651,6,5.335,5.335,0,0,1-5.286,3.083A5.528,5.528,0,0,1,186.2,35.513Z" transform="translate(1096.595 1668.386)" fill="#e03249"/><path d="M175.367,37.573a5.8,5.8,0,0,1-3.373-3.279,3.64,3.64,0,0,0-1.449-1.867,3.24,3.24,0,0,0-4.945,2.714c-.028,1.7-.007,3.408-.008,5.111,0,.557-.031.578-.585.433a2.191,2.191,0,0,1-1.707-1.971,25.44,25.44,0,0,1,.062-4.453,5.552,5.552,0,0,1,10.961.017,6.424,6.424,0,0,1,.08.877A3.671,3.671,0,0,0,175.367,37.573Z" transform="translate(1110.683 1668.395)" fill="#e03249"/><path d="M186.207,49.909a6.2,6.2,0,0,0,2.076,2.583.486.486,0,0,1,.167.455c0,1.813-.008,3.627,0,5.44,0,.346-.107.431-.438.36a2.3,2.3,0,0,1-1.879-2.183c-.022-2.169-.006-4.339,0-6.509C186.132,50.031,186.155,50.008,186.207,49.909Z" transform="translate(1096.643 1655.96)" fill="#e03249"/></g></svg>