<svg width="54" height="46" viewBox="0 0 54 46" fill="none" xmlns="http://www.w3.org/2000/svg">
<path d="M23.9121 16.4086C24.4733 16.6106 24.5875 17.0446 24.8325 17.3571C26.4199 19.4755 28.4725 21.2012 30.832 22.4013C33.1916 23.6013 35.7951 24.2437 38.4421 24.2788C40.5396 24.3763 42.6003 23.7037 44.2363 22.3875C45.8723 21.0712 46.9706 19.2023 47.3244 17.1326C47.6877 15.1334 47.3432 13.0702 46.35 11.2975C45.3569 9.5249 43.7771 8.1537 41.8824 7.41971C39.9495 6.66417 37.8087 6.63258 35.8544 7.33078C33.9 8.02897 32.2639 9.40991 31.2473 11.2192C31.1219 11.4231 30.9835 11.6176 30.7309 11.9955C30.1342 9.8871 29.1971 7.89031 27.9566 6.084C27.5395 5.50595 28.0483 5.18044 28.3906 4.83435C29.869 3.3874 31.6331 2.26502 33.5702 1.53903C35.5072 0.813041 37.5744 0.499443 39.6396 0.618304C41.7048 0.737165 43.7225 1.28587 45.5634 2.2293C47.4044 3.17272 49.0281 4.49009 50.3307 6.0971C52.2367 8.28149 53.4264 10.9983 53.7388 13.8805C54.0513 16.7627 53.4715 19.6713 52.0779 22.2135C50.8475 24.881 48.8264 27.1056 46.2888 28.5854C43.7511 30.0652 40.8197 30.7287 37.8921 30.4859C34.2351 30.2793 30.7837 28.727 28.2027 26.128C25.6216 23.529 24.0933 20.067 23.9121 16.4086Z" fill="#E03249"/>
<path d="M32.6458 21.9579C30.6064 21.206 28.7472 20.0352 27.188 18.5208C25.6288 17.0064 24.4043 15.1821 23.5933 13.1654C22.8906 11.1097 21.5228 9.34683 19.706 8.1556C18.3969 7.3448 16.8959 6.89619 15.3566 6.85563C13.8173 6.81507 12.2948 7.18402 10.9448 7.92475C9.59484 8.66548 8.4658 9.75142 7.67309 11.0716C6.88038 12.3917 6.45246 13.8986 6.43309 15.4384C6.35826 20.0104 6.41438 24.5844 6.4125 29.1565C6.4125 30.6531 6.33018 30.7073 4.84295 30.3201C3.61365 30.0453 2.50505 29.3832 1.68029 28.4312C0.855529 27.4791 0.358186 26.2874 0.261507 25.0315C-0.0323812 21.0509 0.0233391 17.0521 0.428011 13.0812C0.99922 9.58882 2.79479 6.4137 5.49327 4.12427C8.19174 1.83483 11.617 0.580554 15.1558 0.585955C18.6946 0.591356 22.116 1.85609 24.8075 4.15375C27.4989 6.45141 29.2848 9.632 29.8453 13.1261C29.9708 13.9048 30.0427 14.6911 30.0605 15.4795C30.1033 17.882 31.0228 20.186 32.6458 21.9579Z" fill="#E03249"/>
<path d="M24.0561 21.6953C25.2495 24.4691 27.1753 26.8657 29.6271 28.6283C29.8016 28.7749 29.9349 28.9646 30.0136 29.1785C30.0924 29.3924 30.1139 29.6232 30.0761 29.848C30.0761 34.7119 30.0536 39.5758 30.0873 44.4397C30.0873 45.3751 29.8011 45.5958 28.9125 45.405C27.5293 45.1501 26.2746 44.4306 25.3561 43.3654C24.4375 42.3003 23.9103 40.9534 23.8615 39.5477C23.8017 33.7241 23.8447 27.9005 23.8503 22.0788C23.854 22.0227 23.9157 21.961 24.0561 21.6953Z" fill="#E03249"/>
</svg>
