<svg width="24" height="24" viewBox="0 0 24 24" fill="none" xmlns="http://www.w3.org/2000/svg">
<circle cx="12.5186" cy="12.5195" r="7" stroke="white"/>
<mask id="path-2-inside-1_2486_20703" fill="white">
<path d="M12.0748 20.0058C10.1661 19.8927 8.37269 19.0549 7.06111 17.6637C5.74954 16.2724 5.01886 14.4327 5.01842 12.5207C5.01799 10.6086 5.74784 8.76863 7.05878 7.37677C8.36972 5.9849 10.1628 5.14627 12.0714 5.03231L12.133 6.06321C10.4871 6.16148 8.94099 6.88463 7.81056 8.08484C6.68013 9.28505 6.05078 10.8717 6.05116 12.5204C6.05153 14.1692 6.6816 15.7555 7.81257 16.9552C8.94355 18.1549 10.49 18.8774 12.1359 18.9749L12.0748 20.0058Z"/>
</mask>
<path d="M12.0748 20.0058C10.1661 19.8927 8.37269 19.0549 7.06111 17.6637C5.74954 16.2724 5.01886 14.4327 5.01842 12.5207C5.01799 10.6086 5.74784 8.76863 7.05878 7.37677C8.36972 5.9849 10.1628 5.14627 12.0714 5.03231L12.133 6.06321C10.4871 6.16148 8.94099 6.88463 7.81056 8.08484C6.68013 9.28505 6.05078 10.8717 6.05116 12.5204C6.05153 14.1692 6.6816 15.7555 7.81257 16.9552C8.94355 18.1549 10.49 18.8774 12.1359 18.9749L12.0748 20.0058Z" stroke="#969696" stroke-width="2" mask="url(#path-2-inside-1_2486_20703)"/>
<mask id="path-3-inside-2_2486_20703" fill="white">
<path d="M5.15604 11.0389C4.94502 12.0799 4.95752 13.1539 5.19273 14.1897L6.21998 13.9565C6.0178 13.0661 6.00706 12.143 6.18844 11.2482L5.15604 11.0389Z"/>
</mask>
<path d="M5.15604 11.0389C4.94502 12.0799 4.95752 13.1539 5.19273 14.1897L6.21998 13.9565C6.0178 13.0661 6.00706 12.143 6.18844 11.2482L5.15604 11.0389Z" stroke="white" stroke-width="2" mask="url(#path-3-inside-2_2486_20703)"/>
<mask id="path-4-inside-3_2486_20703" fill="white">
<path d="M5.79151 15.8611C6.20998 16.7485 6.79852 17.5452 7.52376 18.206L8.23324 17.4274C7.60986 16.8594 7.10399 16.1746 6.74429 15.4118L5.79151 15.8611Z"/>
</mask>
<path d="M5.79151 15.8611C6.20998 16.7485 6.79852 17.5452 7.52376 18.206L8.23324 17.4274C7.60986 16.8594 7.10399 16.1746 6.74429 15.4118L5.79151 15.8611Z" stroke="white" stroke-width="2" mask="url(#path-4-inside-3_2486_20703)"/>
<mask id="path-5-inside-4_2486_20703" fill="white">
<path d="M9.43974 19.4051C10.4027 19.8534 11.4499 20.0922 12.512 20.1054L12.5265 18.9432C11.629 18.932 10.7441 18.7303 9.93036 18.3514L9.43974 19.4051Z"/>
</mask>
<path d="M9.43974 19.4051C10.4027 19.8534 11.4499 20.0922 12.512 20.1054L12.5265 18.9432C11.629 18.932 10.7441 18.7303 9.93036 18.3514L9.43974 19.4051Z" stroke="white" stroke-width="2" mask="url(#path-5-inside-4_2486_20703)"/>
<mask id="path-6-inside-5_2486_20703" fill="white">
<path d="M7.88754 6.56052C7.08215 7.18525 6.41256 7.96759 5.91964 8.85976L6.84168 9.36917C7.26536 8.60231 7.84091 7.92985 8.53318 7.39287L7.88754 6.56052Z"/>
</mask>
<path d="M7.88754 6.56052C7.08215 7.18525 6.41256 7.96759 5.91964 8.85976L6.84168 9.36917C7.26536 8.60231 7.84091 7.92985 8.53318 7.39287L7.88754 6.56052Z" stroke="white" stroke-width="2" mask="url(#path-6-inside-5_2486_20703)"/>
<mask id="path-7-inside-6_2486_20703" fill="white">
<path d="M13.5286 5.10071C12.3257 4.93981 11.1016 5.07325 9.9616 5.48958L10.3229 6.47906C11.3029 6.12121 12.355 6.00651 13.389 6.14481L13.5286 5.10071Z"/>
</mask>
<path d="M13.5286 5.10071C12.3257 4.93981 11.1016 5.07325 9.9616 5.48958L10.3229 6.47906C11.3029 6.12121 12.355 6.00651 13.389 6.14481L13.5286 5.10071Z" stroke="white" stroke-width="2" mask="url(#path-7-inside-6_2486_20703)"/>
<path d="M10.3516 9.7143V15.326C10.3516 15.7539 10.8228 16.0139 11.1857 15.781L15.5949 12.9751C15.9307 12.7639 15.9307 12.2764 15.5949 12.0597L11.1857 9.2593C10.8228 9.02639 10.3516 9.28639 10.3516 9.7143Z" fill="white"/>
</svg>
