<svg xmlns="http://www.w3.org/2000/svg" xmlns:xlink="http://www.w3.org/1999/xlink" width="42.695" height="40.377" viewBox="0 0 42.695 40.377"><defs><style>.a{fill:#f2f2f2;}.b{filter:url(#a);}</style><filter id="a" x="0" y="0" width="42.695" height="40.377" filterUnits="userSpaceOnUse"><feOffset input="SourceAlpha"/><feGaussianBlur stdDeviation="1" result="b"/><feFlood flood-opacity="0.161"/><feComposite operator="in" in2="b"/><feComposite in="SourceGraphic"/></filter></defs><g class="b" transform="matrix(1, 0, 0, 1, 0, 0)"><path class="a" d="M6.525,16.1H31.78a2.525,2.525,0,1,1,0,5.051H6.525a2.525,2.525,0,1,1,0-5.051Zm0-10.1H31.78a2.525,2.525,0,0,1,0,5.051H6.525A2.525,2.525,0,1,1,6.525,6Zm0,20.2H21.678a2.525,2.525,0,0,1,0,5.051H6.525a2.525,2.525,0,1,1,0-5.051Zm22.729,2.222V39.109a1.265,1.265,0,0,0,1.919,1.086l8.915-5.354a1.276,1.276,0,0,0,0-2.172l-8.915-5.354a1.284,1.284,0,0,0-1.919,1.111Z" transform="translate(-1 -3)"/></g></svg>