<svg width="30" height="30" viewBox="0 0 30 30" fill="none" xmlns="http://www.w3.org/2000/svg">
<path d="M29.3384 15.131C29.2468 6.73743 22.7304 0.194347 14.5657 0.297586C6.42774 0.400461 -0.0715359 7.14147 0.0646002 15.3382C0.200918 23.5571 6.78507 30.08 14.8629 29.9993C22.9207 29.9187 29.4267 23.2361 29.3384 15.131ZM14.8536 27.6377C8.11517 27.6662 2.58012 22.0094 2.57376 15.0875C2.56721 8.06062 8.0192 2.46177 14.9336 2.3947C21.4429 2.33163 27.0385 8.11406 27.0726 14.9392C27.1077 21.942 21.6546 27.609 14.8536 27.6377Z" fill="white"/>
<path d="M14.7411 3.74961C8.6333 3.8005 3.77239 8.91751 3.85454 15.2099C3.93433 21.309 8.90285 26.3978 14.7269 26.3453C20.9504 26.2891 25.8495 21.2463 25.7908 14.9569C25.7327 8.6994 20.8025 3.69908 14.7411 3.74961ZM9.99121 14.9013C9.92723 14.9015 10.0552 14.9013 9.99121 14.9013C9.99121 12.8456 9.99793 10.7898 9.98885 8.73412C9.98303 7.39421 10.5672 6.98634 11.7208 7.69338C15.1717 9.80831 18.5932 11.9716 22.003 14.1523C22.8749 14.7099 22.8476 15.3743 21.9612 15.9104C18.5502 17.9736 15.1289 20.02 11.6941 22.0431C10.6437 22.6618 10.1955 22.3808 10.1873 21.1623C10.1731 19.0754 9.99121 16.9884 9.99121 14.9013Z" fill="white"/>
</svg>
