<svg xmlns="http://www.w3.org/2000/svg" xmlns:xlink="http://www.w3.org/1999/xlink" width="642.024" height="273.341" viewBox="0 0 642.024 273.341"><defs><linearGradient id="a" x1="1.22" y1="1.237" x2="0.197" y2="0.209" gradientUnits="objectBoundingBox"><stop offset="0" stop-color="#dae3fe"/><stop offset="1" stop-color="#e9effd"/></linearGradient><linearGradient id="b" x1="2.013" y1="-0.184" x2="0.821" y2="0.361" gradientUnits="objectBoundingBox"><stop offset="0" stop-color="#ff928e"/><stop offset="1" stop-color="#fe7062"/></linearGradient><linearGradient id="c" x1="0.97" y1="-0.074" x2="0.045" y2="1.078" xlink:href="#b"/><linearGradient id="d" x1="0.627" y1="-1.564" x2="0.798" y2="-4.01" gradientUnits="objectBoundingBox"><stop offset="0" stop-color="#febbba"/><stop offset="1" stop-color="#ff928e"/></linearGradient><linearGradient id="e" x1="5.83" y1="-11.399" x2="10.163" y2="-21.072" xlink:href="#d"/><linearGradient id="f" x1="2.282" y1="-1.042" x2="0.793" y2="0.258" gradientUnits="objectBoundingBox"><stop offset="0" stop-color="#4f52ff"/><stop offset="1" stop-color="#4042e2"/></linearGradient><linearGradient id="g" x1="1.163" y1="-0.265" x2="0.155" y2="0.922" xlink:href="#f"/><linearGradient id="h" x1="1.142" y1="-0.929" x2="0.32" y2="0.911" xlink:href="#b"/><linearGradient id="i" x1="-4.739" y1="0.5" x2="-3.739" y2="0.5" gradientUnits="objectBoundingBox"><stop offset="0" stop-color="#09005d"/><stop offset="1" stop-color="#1a0f91"/></linearGradient><linearGradient id="j" x1="-3.908" y1="-77.693" x2="-4.091" y2="-37.877" xlink:href="#f"/><linearGradient id="k" x1="49.754" y1="-0.843" x2="49.247" y2="2.39" xlink:href="#d"/><linearGradient id="l" x1="14.255" y1="-22.776" x2="14.127" y2="16.665" xlink:href="#f"/><linearGradient id="m" x1="13.74" y1="0.5" x2="14.74" y2="0.5" xlink:href="#i"/><linearGradient id="n" x1="53.92" y1="-0.224" x2="53.405" y2="2.539" xlink:href="#d"/><linearGradient id="o" x1="1.845" y1="-0.209" x2="-0.819" y2="1.235" xlink:href="#i"/><linearGradient id="p" x1="1.405" y1="-0.727" x2="0.599" y2="0.24" xlink:href="#b"/><linearGradient id="q" x1="0.328" y1="1.566" x2="0.733" y2="-0.054" xlink:href="#d"/><linearGradient id="r" x1="89.187" y1="-17.607" x2="90.619" y2="-17.868" xlink:href="#d"/><linearGradient id="s" x1="-0.599" y1="-1.544" x2="0.541" y2="-1.544" xlink:href="#i"/><linearGradient id="t" x1="260.741" y1="-59.844" x2="264.922" y2="-60.697" xlink:href="#d"/><linearGradient id="u" x1="1.592" y1="-0.616" x2="0.587" y2="0.52" xlink:href="#b"/><linearGradient id="v" x1="0.799" y1="-0.337" x2="0.056" y2="1.68" xlink:href="#d"/><linearGradient id="w" x1="1.152" y1="-1.139" x2="0.322" y2="0.762" xlink:href="#b"/><linearGradient id="x" x1="49.304" y1="18.683" x2="48.682" y2="21.087" xlink:href="#d"/><linearGradient id="y" x1="-65.028" y1="0.5" x2="-64.028" y2="0.5" gradientUnits="objectBoundingBox"><stop offset="0" stop-color="#2b3582"/><stop offset="0.392" stop-color="#23286c"/><stop offset="1" stop-color="#150e42"/></linearGradient><linearGradient id="z" x1="-66.943" y1="0.5" x2="-65.943" y2="0.5" xlink:href="#i"/><linearGradient id="aa" x1="-232.754" y1="0.5" x2="-231.754" y2="0.5" xlink:href="#d"/><linearGradient id="ab" x1="-180.612" y1="0.5" x2="-179.612" y2="0.5" xlink:href="#y"/><linearGradient id="ac" x1="-122.72" y1="0.5" x2="-121.72" y2="0.5" xlink:href="#i"/><linearGradient id="ad" x1="-203.991" y1="0.5" x2="-202.991" y2="0.5" xlink:href="#d"/><linearGradient id="ae" x1="0.88" y1="-0.205" x2="-0.06" y2="1.491" xlink:href="#y"/><linearGradient id="af" x1="6.854" y1="-12.552" x2="-1.009" y2="3.599" xlink:href="#y"/><linearGradient id="ag" x1="-38.554" y1="0.308" x2="-39.425" y2="1.354" xlink:href="#d"/><linearGradient id="ah" x1="-17.1" y1="-0.057" x2="-18.329" y2="1.819" xlink:href="#f"/><linearGradient id="ai" x1="33.968" y1="-7.688" x2="15.968" y2="-3.284" xlink:href="#f"/><linearGradient id="aj" x1="-122.008" y1="1.478" x2="-121.736" y2="0.434" xlink:href="#d"/><linearGradient id="ak" x1="-86.537" y1="0.35" x2="-87.649" y2="1.106" xlink:href="#d"/><linearGradient id="al" x1="-63.199" y1="0.152" x2="-62.449" y2="1.129" xlink:href="#i"/><linearGradient id="am" x1="-357.733" y1="-0.685" x2="-362.284" y2="1.784" xlink:href="#d"/><linearGradient id="an" x1="2.652" y1="-2.02" x2="0.044" y2="0.971" xlink:href="#d"/><linearGradient id="ao" x1="-47.701" y1="-0.752" x2="-48.055" y2="0.28" xlink:href="#d"/><linearGradient id="ap" x1="1.344" y1="-4.334" x2="0.773" y2="-1.249" xlink:href="#d"/><linearGradient id="aq" x1="5.267" y1="10.244" x2="4.528" y2="12.707" xlink:href="#i"/><linearGradient id="ar" x1="4.053" y1="0.133" x2="3.655" y2="0.802" xlink:href="#i"/><linearGradient id="as" x1="0" y1="0.5" x2="1" y2="0.5" xlink:href="#a"/></defs><g transform="translate(423.498)"><path d="M1418.952,591.166c-9.9,2.889-19.268,4.752-26.671,6.224-87,17.3-189.95,12.258-211.83,11.026-32.308-1.819-94.761-5.334-139.912-20.051-68.312-22.264-57.675-57.341-4.688-80.5,9.693-4.235,60.889-27.743,164.945-31.513,62.974-2.281,136.382,2.32,189.54,14.664C1501.923,516.931,1493.98,569.275,1418.952,591.166Z" transform="translate(-1256.314 -338.074)" opacity="0" fill="url(#a)"/><g transform="translate(32.004 136.751)"><path d="M39.218,0h0A39.218,39.218,0,0,1,78.437,39.218v96.195a0,0,0,0,1,0,0H0a0,0,0,0,1,0,0V39.218A39.218,39.218,0,0,1,39.218,0Z" transform="translate(19.925 0)" fill="url(#b)"/><path d="M39.218,0h0A39.218,39.218,0,0,1,78.437,39.218v96.195a0,0,0,0,1,0,0H0a0,0,0,0,1,0,0V39.218A39.218,39.218,0,0,1,39.218,0Z" transform="translate(0 0)" fill="url(#c)"/><g transform="translate(4.761 5.898)"><path d="M1369.781,1935.665a.5.5,0,0,1-.5-.5v-9.607a9.476,9.476,0,0,1,9.607-9.315h15.063a.5.5,0,0,1,0,1H1378.89a8.477,8.477,0,0,0-8.61,8.318v9.607A.5.5,0,0,1,1369.781,1935.665Z" transform="translate(-1369.283 -1916.245)" fill="url(#d)"/><path d="M1369.781,2174.135a.5.5,0,0,1-.5-.5v-3.915a.5.5,0,0,1,1,0v3.915A.5.5,0,0,1,1369.781,2174.135Z" transform="translate(-1369.283 -2144.526)" fill="url(#e)"/></g></g><g transform="translate(121.147 185.029)"><path d="M33.793,0h0A33.794,33.794,0,0,1,67.587,33.794V86.941a0,0,0,0,1,0,0H0a0,0,0,0,1,0,0V33.793A33.793,33.793,0,0,1,33.793,0Z" transform="translate(19.925)" fill="url(#f)"/><path d="M33.794,0h0A33.794,33.794,0,0,1,67.587,33.794V86.941a0,0,0,0,1,0,0H0a0,0,0,0,1,0,0V33.794A33.794,33.794,0,0,1,33.794,0Z" transform="translate(0)" fill="url(#g)"/><g transform="translate(5.081 4.078)"><path d="M2286.217,2412.894a.5.5,0,0,1-.5-.5v-10.3c0-5.49,5.045-9.954,11.244-9.954h17.772a.5.5,0,1,1,0,1h-17.772c-5.651,0-10.248,4.018-10.248,8.958v10.3A.5.5,0,0,1,2286.217,2412.894Z" transform="translate(-2285.719 -2392.139)" fill="#91b3fa"/><path d="M2286.217,2668.646a.5.5,0,0,1-.5-.5v-4.2a.5.5,0,0,1,1,0v4.2A.5.5,0,0,1,2286.217,2668.646Z" transform="translate(-2285.719 -2636.967)" fill="#91b3fa"/></g></g><g transform="translate(39.717 0)"><g transform="translate(76.727 2.872)"><path d="M2186.821,499.921c11.4-3.378,22.272-2.467,27.7-1.032,6.417,1.7,8.546,2.97,14.226,3.611,5.05.569,18.468-3.516,16.749-.443-2.239,4.006-1.625,19.693,1.717,26.234.486.951-15.4,3.307-25.031,1.547-13.275-2.425-17.548-6.492-26.264-4.642a25.877,25.877,0,0,0-9.028,3.869C2187.778,519.393,2185.932,509.592,2186.821,499.921Z" transform="translate(-2186.467 -496.313)" fill="url(#h)"/><path d="M2185.992,618.134a.5.5,0,0,1-.5-.5V484.914a.5.5,0,0,1,1,0V617.636A.5.5,0,0,1,2185.992,618.134Z" transform="translate(-2185.493 -484.416)" fill="#26264f"/></g><g transform="translate(0 0)"><path d="M1606.009,1794.836a.8.8,0,0,1,.021-.209c1.041-4.13,5.3-6.245,5.3-6.245l2.048.16c1.178,3.639,1.938,5.416,1.748,6.411-.005.027-.013.054-.021.081A48.634,48.634,0,0,1,1606.009,1794.836Z" transform="translate(-1585.852 -1658.214)" fill="url(#i)"/><path d="M1615.362,1854.7a.887.887,0,0,1-.65.656,28.1,28.1,0,0,1-7.829-.11.746.746,0,0,1-.619-.744A48.661,48.661,0,0,0,1615.362,1854.7Z" transform="translate(-1586.083 -1717.883)" fill="url(#j)"/><path d="M1643.244,1755.725l.9,4.319a.706.706,0,0,0,.6.58,5.952,5.952,0,0,0,1.39-.022.887.887,0,0,0,.7-1.043l-.623-3.834Z" transform="translate(-1619.452 -1628.746)" fill="url(#k)"/><path d="M1841.122,1851a11.818,11.818,0,0,1-3.9-.558c0,.218,0,.439.007.669a.432.432,0,0,0,.412.438l12.014-.078a.548.548,0,0,0,.44-.8C1848.516,1850.806,1844.5,1851.1,1841.122,1851Z" transform="translate(-1794.489 -1714.219)" fill="url(#l)"/><path d="M1850.377,1798.408a.6.6,0,0,0-.047-.09,15.311,15.311,0,0,0-9.1-5.715l-2.562-.081a12.287,12.287,0,0,0-1.162,5.655,11.822,11.822,0,0,0,3.906.558C1844.792,1798.83,1848.8,1798.538,1850.377,1798.408Z" transform="translate(-1794.748 -1661.951)" fill="url(#m)"/><path d="M1844.542,1747.016c.029.191.38,3.093.516,4.218a.556.556,0,0,0,.469.5,5.9,5.9,0,0,0,1.76-.027.759.759,0,0,0,.574-.761V1746.4Z" transform="translate(-1801.099 -1620.327)" fill="url(#n)"/><path d="M1637.572,1174.918s-4.1,36.433-1.821,59.2a17.6,17.6,0,0,0,4.1-.456s4.259-35.622,5.636-45.816a.343.343,0,0,1,.677-.021c1.7,8.576,8.377,42.206,9.171,45.382a5.679,5.679,0,0,0,4.1,0s-3.644-48.73-6.376-57.383Z" transform="translate(-1612.069 -1104.638)" fill="url(#o)"/><path d="M1576.249,733.52s13.779-1.861,26.354.037a5.752,5.752,0,0,1,4.857,6.452l-1.153,8.539s-3.644,19.583-6.376,28.236c0,0-10.475,1.822-15.484-.911,0,0-4.1-24.592-6.376-28.235C1578.07,747.638,1575.793,738.074,1576.249,733.52Z" transform="translate(-1558.942 -705.594)" fill="url(#p)"/><path d="M1684.019,613.59l-1.724,11.659s4.817,2.212,8.19-.1l-.726-8.228Z" transform="translate(-1654.691 -598.108)" fill="url(#q)"/><g transform="translate(26.037 3.132)"><path d="M1699.757,529.107c.053.1,1.093,5.977,1.733,9.617a2.553,2.553,0,0,1-2.365,2.991l-1.4.083a4.975,4.975,0,0,1-5.211-4.213l-1.009-6.592S1698.438,526.716,1699.757,529.107Z" transform="translate(-1689.042 -524.349)" fill="url(#r)"/><path d="M1667.2,493.742a1.957,1.957,0,0,1,.137-2.873,2.761,2.761,0,0,1,3.293-.476.918.918,0,0,0,1.082-.214.584.584,0,0,1,.545-.2.859.859,0,0,0,.971-.747,2.265,2.265,0,0,1,2-2.083c2.681-.518,4.018,2.165,3.97,4.051s-2.986,2.282-4.654,1.969c-1.224-.23-2.283.846-2.759,1.434a.884.884,0,0,0-.174.76l.423,1.822a8.392,8.392,0,0,1-.995,1.628,1.8,1.8,0,0,1-.967.621c-.5-.93-1.9-1.088-2.548-1.109a.888.888,0,0,1-.644-.305,1.949,1.949,0,0,1,.211-3.048A.886.886,0,0,0,1667.2,493.742Z" transform="translate(-1666.239 -487.082)" fill="url(#s)"/><path d="M1678.753,599.78s-.058-3.29-1.389-3.6-2.768.654-1.629,2.623C1677.151,601.254,1678.753,599.78,1678.753,599.78Z" transform="translate(-1674.434 -585.479)" fill="url(#t)"/></g><path d="M1424.623,550.728s-39.1-10.644-19.687-38.018l1.313,1.86s-5.849,18.541,13.529,20.3C1419.778,534.872,1424.8,547.817,1424.623,550.728Z" transform="translate(-1399.527 -507.076)" fill="url(#u)"/><path d="M1453.325,460.774s-.44-5.285,2.2-5.726,3.523,2.2,3.964,3.524-3.964,3.964-4.845,3.964S1453.325,460.774,1453.325,460.774Z" transform="translate(-1448.048 -455)" fill="url(#v)"/><path d="M1872.462,799.012s5.055,20,30.407-2.034l-1.943-1.187s-22.321,15.836-26.255-11.176C1874.671,784.615,1872.462,796.583,1872.462,799.012Z" transform="translate(-1826.293 -752.438)" fill="url(#w)"/><path d="M2165.52,854.3s5.3.087,5.566-2.579-2.432-3.369-3.78-3.72-3.69,4.219-3.631,5.1S2165.52,854.3,2165.52,854.3Z" transform="translate(-2089.076 -809.62)" fill="url(#x)"/></g></g><g transform="translate(119.175 70.97)"><path d="M2600.349,2347.081c2.265.2,6.2.513,9.3.649a8.937,8.937,0,0,0,3.553-.347c0,.069,0,.135-.005.2a.643.643,0,0,1-.61.606,109.1,109.1,0,0,1-12.171.012.456.456,0,0,1-.371-.686A3.55,3.55,0,0,1,2600.349,2347.081Z" transform="translate(-2562.243 -2233.343)" fill="url(#y)"/><path d="M2613.1,2305.452c-3.1-.136-7.031-.454-9.3-.65,2.228-2.732,9.3-4.574,9.3-4.574h2a8.384,8.384,0,0,1,1.556,4.877A8.943,8.943,0,0,1,2613.1,2305.452Z" transform="translate(-2565.696 -2191.064)" fill="url(#z)"/><path d="M2688.485,2266.844l-.187,3.7a.843.843,0,0,1-.721.794,3.282,3.282,0,0,1-1.5-.124,1,1,0,0,1-.671-.768l-.646-3.6Z" transform="translate(-2638.753 -2160.939)" fill="url(#aa)"/><g transform="translate(67.079 107.044)"><path d="M2928.671,2376.516a1.947,1.947,0,0,0,1.614-1.541.076.076,0,0,1,0,.02,1.76,1.76,0,0,1-.859,1.881,4.478,4.478,0,0,1-2.381.481,2.2,2.2,0,0,1-1.787-1.065l-.007-.009C2926,2376.756,2927.034,2376.812,2928.671,2376.516Z" transform="translate(-2922.847 -2365.557)" fill="url(#ab)"/><path d="M2901.789,2278.508h1.647c2.507-.067,4.082,6.769,4.6,9.416a1.947,1.947,0,0,1-1.612,1.542c-1.639.3-2.677.24-3.417-.234a24.041,24.041,0,0,1-2.35-7.648A2.854,2.854,0,0,1,2901.789,2278.508Z" transform="translate(-2900.596 -2278.507)" fill="url(#ac)"/></g><path d="M2895.095,2243.362l.914,3.636a.986.986,0,0,1-.514,1.118,3.5,3.5,0,0,1-1.894.459.827.827,0,0,1-.673-.55l-1.341-3.826Z" transform="translate(-2825.387 -2139.749)" fill="url(#ad)"/><path d="M2598.088,1743.275s8.169,51.067,8.035,51.348a6.792,6.792,0,0,0,4.715.13s-.737-27.3-2.469-37.766c0,0,13.942,24.4,18.37,36.558a11.063,11.063,0,0,0,4.22-1.533s-15.012-43.919-19.018-49.769Z" transform="translate(-2560.54 -1687.55)" fill="url(#ae)"/><path d="M2648.04,1836.124a.332.332,0,0,1-.28-.153l-2.979-4.757-2.107-.424a.329.329,0,1,1,.129-.645l2.247.452a.328.328,0,0,1,.214.147l3.054,4.877a.328.328,0,0,1-.278.5Z" transform="translate(-2600.534 -1766.865)" fill="url(#af)"/><path d="M2213.519,1240.572a54.75,54.75,0,0,1,8.866,2.764,3.059,3.059,0,0,1,1.5,1.507c1,2.2,4,7.7,9.821,10.334a16.047,16.047,0,0,0-2.775,7.314c-3.494-2.6-6.512-6.945-7.96-14.069a2.841,2.841,0,0,1-2.479-.069,25.262,25.262,0,0,1-2.2-1.248,2.882,2.882,0,0,1-1.276-1.714,9.949,9.949,0,0,1-.1-2.656l-2.833-.878A1.008,1.008,0,0,1,2213.519,1240.572Z" transform="translate(-2213.46 -1234.853)" fill="url(#ag)"/><path d="M2392.418,1394.019a16.05,16.05,0,0,1,2.775-7.314c3.615,1.634,8.316,2.156,14.3.081a6.345,6.345,0,0,1,1.713-.337c3.187-.187,13.689-.529,22.381,2.344a6.751,6.751,0,0,1,4.075,3.708c2.35,5.4,6.157,17.684-4.41,23.886a26.087,26.087,0,0,0-2.551-4.826c1.7-2.87,2.207-6.791-.814-11.9-2.2,5.946-3.235,14.621-3.449,18.46a8.257,8.257,0,0,0,.646,3.693l.054.128a.437.437,0,0,1-.307.6,50.1,50.1,0,0,1-13.985.82.76.76,0,0,1-.678-.582c-2.894-12.189-2.9-20.5-2.192-25.76C2407.273,1397.626,2399,1398.916,2392.418,1394.019Z" transform="translate(-2374.948 -1366.381)" fill="url(#ah)"/><path d="M2569.142,1424.8l-.044,0a.326.326,0,0,1-.282-.368c.7-5.272,2.1-7.53,2.159-7.624a.328.328,0,0,1,.555.351c-.014.022-1.388,2.251-2.064,7.359A.327.327,0,0,1,2569.142,1424.8Z" transform="translate(-2534.124 -1393.743)" fill="url(#ai)"/><path d="M2667.816,1314.818a82.832,82.832,0,0,0,1.132,8.245.643.643,0,0,1-.3.735,6.226,6.226,0,0,1-6.005-.094,1.342,1.342,0,0,1-.743-1.26l.261-6.149Z" transform="translate(-2618.116 -1301.851)" fill="url(#aj)"/><g transform="translate(41.414 0)"><path d="M2643.129,1231.433s-1.925,4.422-2.053,6.742-.63,3.827,2.053,4.294a5.707,5.707,0,0,0,6.169-3.181s1.918-3.562,1.488-5.021S2643.129,1231.433,2643.129,1231.433Z" transform="translate(-2640.635 -1226.606)" fill="url(#ak)"/><path d="M2645.439,1193.01l-.154-.068a.37.37,0,0,1-.18-.506c.379-.73,1.117-2.406.164-2.8-1.229-.5-6.094-1.5-7.143-3.222a3.212,3.212,0,0,1,1.228-4.41.185.185,0,0,1,.242.08l.112.211a.182.182,0,0,0,.336-.035.182.182,0,0,1,.328-.047c.322.516,1.193,1.353,3.523,1.784,3.311.61,5.5,1.95,5.552,4.237a.184.184,0,0,0,.283.151c.245-.149.635-.219,1.159.221.909.764.536,2.748-1.456,4.378a.181.181,0,0,0,.008.292c.361.235.9.795-.5,1.541a4.707,4.707,0,0,1-2.937.64.182.182,0,0,1-.148-.22l.444-2.01a.183.183,0,0,0-.178-.222Z" transform="translate(-2637.692 -1181.991)" fill="url(#al)"/><path d="M2716.182,1279.136s.734-2.824,2-2.033-.657,3.164-1.674,3.271Z" transform="translate(-2708.52 -1267.692)" fill="url(#am)"/></g><path d="M2262.47,1272.031a.325.325,0,0,1-.255-.122,19.26,19.26,0,0,0-2.609-2.784,1.32,1.32,0,0,1-.721-.8,1.007,1.007,0,0,1,.19-.812.326.326,0,0,1,.336-.138l2.407.482a.33.33,0,0,1,.15.073l1.279,1.1a.328.328,0,1,1-.427.5l-1.215-1.042-2.079-.417a.228.228,0,0,0,0,.107c.027.113.171.249.4.382a20.256,20.256,0,0,1,2.8,2.942.328.328,0,0,1-.255.535Z" transform="translate(-2254.429 -1259.032)" fill="url(#an)"/><path d="M2636.445,1653.962l-8.686-.188s7.575-2.142,8.044-1.559a26.566,26.566,0,0,0,7.267-7.424,26.107,26.107,0,0,1,2.551,4.826C2643.315,1650.971,2640.286,1653.323,2636.445,1653.962Z" transform="translate(-2587.315 -1599.611)" fill="url(#ao)"/><path d="M2619.242,1723.333s.18,3.461-4.363,2.958c-2.469-.273-6.456-2.575-6.456-2.575S2618.814,1723.689,2619.242,1723.333Z" transform="translate(-2569.866 -1670.486)" fill="url(#ap)"/><g transform="translate(5.098 34.374)"><path d="M2492,1714.956h-.05l-21.6-.023a.956.956,0,1,1,0-1.913l21.6.024a.956.956,0,0,1,.047,1.911Z" transform="translate(-2449.506 -1695.554)" fill="url(#aq)"/><path d="M2267.119,1534.1H2285.1a3.434,3.434,0,0,1,3.1,1.945l8.313,17.445h-22.351a2.083,2.083,0,0,1-1.937-1.3l-6.448-16.143A1.423,1.423,0,0,1,2267.119,1534.1Z" transform="translate(-2265.681 -1534.103)" fill="url(#ar)"/><path d="M2383.667,1609.252c.39,1.2.1,2.361-.643,2.6s-1.666-.541-2.056-1.74-.1-2.362.644-2.6S2383.278,1608.054,2383.667,1609.252Z" transform="translate(-2369.557 -1600.308)" fill="#91b3fa"/></g></g><g transform="translate(117.865 202.578)"><path d="M2241.171,2530.411c.71,7.845,3.572,56-32,66.1-1.076.306-2.373-.4-2.393-1.292-.121-5.707.917-23.639,16.706-42.7,11.391-13.754,15.667-20.078,17.028-22.256A.4.4,0,0,1,2241.171,2530.411Z" transform="translate(-2206.109 -2530.135)" fill="#91b3fa"/><g transform="translate(0 15.494)"><path d="M2200.709,2739.1a.665.665,0,0,1-.489-1.116c18.875-20.469,28.338-46.762,28.615-48.442a.665.665,0,0,1,1.3-.237c.055.166.2.608-1.709,5.424-1.027,2.592-2.8,6.767-5.408,11.936-4.354,8.625-11.673,21.219-21.816,32.219A.662.662,0,0,1,2200.709,2739.1Zm28.16-49.379h0Zm0,0v0Zm-.027-.206Z" transform="translate(-2200.045 -2688.854)" fill="#bdd0fb"/></g></g><g transform="translate(118.343 246.151)"><path d="M2259.265,2976.873c-3.035,4.935-22.544,34.564-47.951,24.857-.769-.293-1.224-1.278-.841-1.815,2.439-3.417,10.946-13.525,28.638-17.8,12.766-3.091,18.069-4.934,19.831-5.618C2259.127,2976.419,2259.369,2976.7,2259.265,2976.873Z" transform="translate(-2209.809 -2976.48)" fill="#bdd0fb"/><path d="M2205.609,3061.762a.664.664,0,0,1-.12-1.316c19.908-3.71,37.006-14.9,38.081-15.89a.665.665,0,0,1,1.167.6c-.25.751-6.268,4.383-11.923,7.2a106.771,106.771,0,0,1-27.083,9.4A.591.591,0,0,1,2205.609,3061.762Zm37.869-17.024Z" transform="translate(-2204.946 -3037.665)" fill="url(#as)"/></g><g transform="translate(0 -22.641)"><g transform="translate(-423.498 58.8)" fill="none" stroke="#707070" stroke-width="3" stroke-dasharray="30" opacity="0.16"><rect width="428.295" height="117.685" rx="4" stroke="none"/><rect x="1.5" y="1.5" width="425.295" height="114.685" rx="2.5" fill="none"/></g><path d="M52.13,59.68a3.337,3.337,0,0,1,.99-.11q1.87,0,1.87,2.42a4.067,4.067,0,0,1-.578,2.228,2.542,2.542,0,0,1-1.787,1.128q-5,.935-9.845,2.09l-.165,1.32q-1.54,10.835-6.132,16.033a14.673,14.673,0,0,1-11.468,5.2q-4.565,0-7.068-2.228a7.28,7.28,0,0,1-2.5-5.692q0-5.775,5.17-10.285T36.29,63.805l1.1-7.755q.22-1.32.55-3.52-2.585,6.82-6.6,10.175a13.634,13.634,0,0,1-8.965,3.355q-4.73,0-7.205-2.887a11.048,11.048,0,0,1-2.475-7.452,25.5,25.5,0,0,1,.44-4.483q.44-2.447,1.375-6.627.825-3.8,1.238-6.05a22.587,22.587,0,0,0,.413-4.015q0-2.64-2.035-2.64a6.822,6.822,0,0,0-3.767,1.568,22.479,22.479,0,0,0-4.593,4.813A2.15,2.15,0,0,1,4.06,39.33a1.68,1.68,0,0,1-1.347-.743,2.661,2.661,0,0,1-.578-1.677,6.856,6.856,0,0,1,1.54-3.85q5.61-7.7,13.145-7.7a6.829,6.829,0,0,1,5.253,2.035q1.9,2.035,1.9,6a34.079,34.079,0,0,1-.522,5.857q-.523,3-1.568,7.618-.66,2.75-.99,4.428a14.923,14.923,0,0,0-.33,2.778,6.382,6.382,0,0,0,.99,4.015,4.261,4.261,0,0,0,3.465,1.21q2.97,0,6.077-3.272T36.7,46.1a68.957,68.957,0,0,0,3.6-16.28,5.833,5.833,0,0,1,1.265-3.437,3.81,3.81,0,0,1,2.86-1.018q3.85,0,3.85,3.85a7.769,7.769,0,0,1-.055,1.045q-1.155,8.2-2.145,14.8-.55,3.96-1.182,8.14T43.66,61.66Q47.675,60.56,52.13,59.68Zm-16.665,9.9Q22.155,74.2,22.155,80.8a3.407,3.407,0,0,0,3.685,3.575q7.645,0,9.57-14.41Zm44.22-14.465a1.2,1.2,0,0,1,1.1.715,3.8,3.8,0,0,1,.385,1.815q0,2.64-1.6,3.135a25.04,25.04,0,0,1-7.26,1.32,13.728,13.728,0,0,1-4.125,7.4A10.148,10.148,0,0,1,61.2,72.275a9.76,9.76,0,0,1-5.637-1.6,10.13,10.13,0,0,1-3.548-4.235,13.563,13.563,0,0,1-1.21-5.72,16.8,16.8,0,0,1,1.6-7.452,12.53,12.53,0,0,1,4.4-5.115,11.081,11.081,0,0,1,6.215-1.843A8.565,8.565,0,0,1,69.757,49.2a12.367,12.367,0,0,1,3,7.122,33.335,33.335,0,0,0,6.16-1.1A3.232,3.232,0,0,1,79.685,55.115Zm-18.04,11.33a3.989,3.989,0,0,0,3.052-1.43A7.938,7.938,0,0,0,66.43,60.89a7.593,7.593,0,0,1-2.612-3.025,8.955,8.955,0,0,1-.908-3.96,9.531,9.531,0,0,1,.165-1.76H62.8a4.318,4.318,0,0,0-3.658,2.118,10.439,10.439,0,0,0-1.457,5.968,7.673,7.673,0,0,0,1.182,4.62A3.414,3.414,0,0,0,61.645,66.445Zm20.515,5.83a4.919,4.919,0,0,1-4.152-2.118A9.666,9.666,0,0,1,76.44,64.3a48.026,48.026,0,0,1,.55-7.563A47.472,47.472,0,0,1,78.8,49.45a4.6,4.6,0,0,1,1.54-2.365,5.422,5.422,0,0,1,3.135-.715,2.715,2.715,0,0,1,1.677.385,1.409,1.409,0,0,1,.467,1.155,22.833,22.833,0,0,1-.6,2.97q-.55,2.035-.88,3.685a52.024,52.024,0,0,0-1.1,7.7,3.43,3.43,0,0,0,.275,1.623.945.945,0,0,0,.88.467q.825,0,2.09-1.677a23.92,23.92,0,0,0,2.667-5.06A64.9,64.9,0,0,0,91.62,49.45a3.571,3.571,0,0,1,4.07-3.08A2.128,2.128,0,0,1,97.422,47a2.929,2.929,0,0,1,.523,1.9,23.653,23.653,0,0,1-.22,3.052q-.22,1.678-.5,3.438-.55,3.52-.88,6.408a58.43,58.43,0,0,0-.33,6.573,4.306,4.306,0,0,1-.853,3,3.667,3.667,0,0,1-2.777.908A3.316,3.316,0,0,1,89.557,71.2q-.8-1.073-.8-4.152,0-.605.11-2.7a13.352,13.352,0,0,1-2.777,5.885A5.313,5.313,0,0,1,82.16,72.275Zm44.66,0q-5.39,0-8.388-3.052a11,11,0,0,1-3-8.058,16.576,16.576,0,0,1,1.76-7.81,13.4,13.4,0,0,1,4.565-5.17,10.668,10.668,0,0,1,5.885-1.815,6.135,6.135,0,0,1,4.7,1.788,6.442,6.442,0,0,1,1.678,4.592,7.116,7.116,0,0,1-1.018,3.9,3.059,3.059,0,0,1-2.668,1.6,2.647,2.647,0,0,1-1.677-.495,1.648,1.648,0,0,1-.633-1.375,4.11,4.11,0,0,1,.11-.88q.11-.495.165-.715a4.887,4.887,0,0,0,.275-1.54,1.558,1.558,0,0,0-.357-1.1,1.32,1.32,0,0,0-1.018-.385,3.277,3.277,0,0,0-2.365,1.127,8.026,8.026,0,0,0-1.76,3.053,12.987,12.987,0,0,0-.66,4.235q0,6.38,5.555,6.38a9.817,9.817,0,0,0,4.867-1.513,19.841,19.841,0,0,0,5.143-4.537,1.931,1.931,0,0,1,1.485-.77,1.271,1.271,0,0,1,1.128.66,3.411,3.411,0,0,1,.413,1.815,5.328,5.328,0,0,1-1.045,3.41,17.841,17.841,0,0,1-6.187,4.923A16.023,16.023,0,0,1,126.82,72.275Zm15.95,0a6.689,6.689,0,0,1-5.445-2.475,9.892,9.892,0,0,1-2.035-6.49,17.88,17.88,0,0,1,2.035-8.332,17.371,17.371,0,0,1,5.417-6.325,12.218,12.218,0,0,1,7.178-2.392,2.142,2.142,0,0,1,1.622.468,3.951,3.951,0,0,1,.688,1.677,12.914,12.914,0,0,1,2.42-.22q2.695,0,2.695,1.925a41.265,41.265,0,0,1-.825,5.5,53.381,53.381,0,0,0-1.265,8.8,2,2,0,0,0,.413,1.32,1.33,1.33,0,0,0,1.072.5,4.179,4.179,0,0,0,2.53-1.347,47.045,47.045,0,0,0,4.015-4.373,1.931,1.931,0,0,1,1.485-.77,1.271,1.271,0,0,1,1.128.66,3.411,3.411,0,0,1,.413,1.815,5.057,5.057,0,0,1-1.045,3.41,27.707,27.707,0,0,1-4.785,4.73,8.157,8.157,0,0,1-4.9,1.925,5.136,5.136,0,0,1-3.327-1.238,7.541,7.541,0,0,1-2.283-3.382Q147.115,72.275,142.77,72.275Zm1.98-5.555a3.018,3.018,0,0,0,2.31-1.43,9.273,9.273,0,0,0,1.6-3.8l2.035-10.12a6.663,6.663,0,0,0-4.262,1.732,11.671,11.671,0,0,0-3.107,4.428,14.9,14.9,0,0,0-1.155,5.83,3.9,3.9,0,0,0,.688,2.53A2.336,2.336,0,0,0,144.75,66.72Zm21.01,5.555a3.005,3.005,0,0,1-2.943-2.2,21.081,21.081,0,0,1-.852-7.04A44.79,44.79,0,0,1,164,49.45a4.138,4.138,0,0,1,1.622-2.337,5.723,5.723,0,0,1,3.163-.743,3.1,3.1,0,0,1,1.54.275,1.136,1.136,0,0,1,.44,1.045,20.966,20.966,0,0,1-.825,3.96q-.55,2.2-.88,3.85a39.455,39.455,0,0,0-.55,4.07,31.272,31.272,0,0,1,4.07-7.7,15.959,15.959,0,0,1,4.427-4.235,8.051,8.051,0,0,1,3.988-1.265,3.19,3.19,0,0,1,3.575,3.575,43.54,43.54,0,0,1-.6,5.39q-.55,3.355-.88,6.353a61.464,61.464,0,0,0-.33,6.683,4.306,4.306,0,0,1-.852,3,3.667,3.667,0,0,1-2.777.908,3.352,3.352,0,0,1-2.64-.935,4.133,4.133,0,0,1-.825-2.8,55.187,55.187,0,0,1,.77-7.26,51.808,51.808,0,0,0,.66-5.61q0-.88-.6-.88-.715,0-2.008,1.843a29.535,29.535,0,0,0-2.64,4.868,37.863,37.863,0,0,0-2.173,6.38,8.577,8.577,0,0,1-1.4,3.493A3.164,3.164,0,0,1,165.76,72.275Zm68.53-12.54a1.271,1.271,0,0,1,1.128.66,3.412,3.412,0,0,1,.412,1.815,5.057,5.057,0,0,1-1.045,3.41,26.552,26.552,0,0,1-4.95,4.7,9.085,9.085,0,0,1-5.335,1.952q-4.18,0-6.38-4.9a15.8,15.8,0,0,1-4.043,3.905,8.007,8.007,0,0,1-4.042.99,7,7,0,0,1-5.527-2.5,9.585,9.585,0,0,1-2.173-6.518,18.116,18.116,0,0,1,1.87-8.167,16.688,16.688,0,0,1,5.143-6.16A14.949,14.949,0,0,1,216.69,46.1a69.152,69.152,0,0,1,3.988-18.233Q223.62,20.3,228.4,20.3a4.707,4.707,0,0,1,3.933,2.145q1.567,2.145,1.567,6.49a42.8,42.8,0,0,1-3.025,14.41,107.042,107.042,0,0,1-8.085,16.94,12.012,12.012,0,0,0,.963,4.565,2.178,2.178,0,0,0,1.9,1.375,4.7,4.7,0,0,0,3.025-1.32,40.136,40.136,0,0,0,4.125-4.4A1.931,1.931,0,0,1,234.29,59.735ZM227.8,25.69q-1.045,0-2.09,3.713a67.781,67.781,0,0,0-1.788,9.707q-.742,6-1.072,12.54,6.16-13.42,6.16-21.56a11.485,11.485,0,0,0-.357-3.245Q228.295,25.69,227.8,25.69ZM211.96,66.72a3.31,3.31,0,0,0,2.09-.853,16.119,16.119,0,0,0,2.64-3.163,36.714,36.714,0,0,1-.55-6.655q0-1.32.11-4.29a9.213,9.213,0,0,0-5.033,4.042,12.454,12.454,0,0,0-2.007,6.9Q209.21,66.72,211.96,66.72Zm28.71,5.555a9.292,9.292,0,0,1-5.527-1.623A10.076,10.076,0,0,1,231.7,66.39a13.977,13.977,0,0,1-1.155-5.665,17.045,17.045,0,0,1,1.568-7.452,12.654,12.654,0,0,1,4.262-5.115,10.474,10.474,0,0,1,6.05-1.843,9.417,9.417,0,0,1,5.555,1.623A10,10,0,0,1,251.45,52.2a13.977,13.977,0,0,1,1.155,5.665,16.8,16.8,0,0,1-1.595,7.452,12.772,12.772,0,0,1-4.318,5.115A10.513,10.513,0,0,1,240.67,72.275Zm.6-5.94a3.727,3.727,0,0,0,3.163-2.035,11.16,11.16,0,0,0,1.292-5.94,7.838,7.838,0,0,0-1.1-4.565,3.192,3.192,0,0,0-2.64-1.54,3.807,3.807,0,0,0-3.273,2.007,11.137,11.137,0,0,0-1.292,5.968,7.8,7.8,0,0,0,1.1,4.62A3.307,3.307,0,0,0,241.275,66.335Zm54.12-6.6a1.271,1.271,0,0,1,1.127.66,3.412,3.412,0,0,1,.413,1.815,5.057,5.057,0,0,1-1.045,3.41,23.4,23.4,0,0,1-5.17,4.785,11.332,11.332,0,0,1-6.435,1.87q-11.22,0-11.22-15.785,0-2.42.165-4.895h-2.145a3.085,3.085,0,0,1-2.227-.605,2.716,2.716,0,0,1-.578-1.925q0-3.08,2.475-3.08h3.135a53.525,53.525,0,0,1,2.86-11.055,24.942,24.942,0,0,1,4.647-7.975,7.922,7.922,0,0,1,5.858-2.97,4.114,4.114,0,0,1,3.63,2.035,9.221,9.221,0,0,1,1.32,5.115q0,8.525-7.15,14.85h6.16a1.741,1.741,0,0,1,1.265.385,2.024,2.024,0,0,1,.385,1.43q0,3.8-6.215,3.8h-6.71q-.11,2.75-.11,4.29,0,5.72,1.348,8.03a4.575,4.575,0,0,0,4.262,2.31,6.565,6.565,0,0,0,4.18-1.43,33.371,33.371,0,0,0,4.29-4.29A1.931,1.931,0,0,1,295.395,59.735Zm-9.625-30.47q-.825,0-1.842,2.063A29.344,29.344,0,0,0,282,37.048a76.669,76.669,0,0,0-1.512,8.112,18.786,18.786,0,0,0,4.867-6.3,15.272,15.272,0,0,0,1.622-6.353Q286.98,29.265,285.77,29.265ZM323,59.735a1.271,1.271,0,0,1,1.128.66,3.412,3.412,0,0,1,.413,1.815,5.057,5.057,0,0,1-1.045,3.41,29.007,29.007,0,0,1-5.2,4.785,10.329,10.329,0,0,1-6.077,1.87,5.347,5.347,0,0,1-4.235-1.623,6.9,6.9,0,0,1-1.43-4.7,34.337,34.337,0,0,1,.77-5.5,28.462,28.462,0,0,0,.715-4.785q0-.88-.605-.88-.715,0-2.035,1.843a27.026,27.026,0,0,0-2.64,4.868,39.511,39.511,0,0,0-2.145,6.38q-1.045,4.4-5.17,4.4a2.125,2.125,0,0,1-2.172-1.183,11.853,11.853,0,0,1-.522-4.262q0-1.76.055-2.805l.055-4.4A95.259,95.259,0,0,1,294.6,41.97a53.055,53.055,0,0,1,5.115-15.428q3.383-6.243,8.112-6.243a4.832,4.832,0,0,1,4.1,2.173,9.41,9.41,0,0,1,1.568,5.638,24.1,24.1,0,0,1-3.245,11.523,74.506,74.506,0,0,1-10.56,13.942q-.165,2.86-.165,5.885a31.564,31.564,0,0,1,4.043-7.618,15.777,15.777,0,0,1,4.4-4.208,8.051,8.051,0,0,1,3.987-1.265q3.575,0,3.575,3.575a44.2,44.2,0,0,1-1.21,7.755,38.168,38.168,0,0,0-1.045,6.325q0,2.2,1.6,2.2a4.3,4.3,0,0,0,2.613-1.347,44.144,44.144,0,0,0,4.042-4.373A1.931,1.931,0,0,1,323,59.735ZM306.67,25.745q-.99,0-2.2,2.832a48,48,0,0,0-2.337,7.645A102.087,102.087,0,0,0,300.29,46.7a39.36,39.36,0,0,0,5.637-8.745,20.421,20.421,0,0,0,2.228-8.58,7.362,7.362,0,0,0-.385-2.695Q307.385,25.745,306.67,25.745ZM327.295,42.74a4.934,4.934,0,0,1-3.465-1.072,3.888,3.888,0,0,1-1.155-3,4.063,4.063,0,0,1,1.512-3.218,5.6,5.6,0,0,1,3.768-1.292,5.2,5.2,0,0,1,3.3.99,3.355,3.355,0,0,1,1.265,2.805,4.474,4.474,0,0,1-1.43,3.493A5.444,5.444,0,0,1,327.295,42.74Zm-.44,29.535a5.716,5.716,0,0,1-5.2-2.53,12.282,12.282,0,0,1-1.622-6.71,41.071,41.071,0,0,1,.633-6.353,59.312,59.312,0,0,1,1.622-7.233,4.66,4.66,0,0,1,1.32-2.42,4.229,4.229,0,0,1,2.64-.66q2.805,0,2.805,1.87a43.121,43.121,0,0,1-1.045,6.38,47.566,47.566,0,0,0-1.32,8.195,5.8,5.8,0,0,0,.44,2.53,1.531,1.531,0,0,0,1.485.88,4.14,4.14,0,0,0,2.475-1.375,49.228,49.228,0,0,0,3.96-4.345,1.931,1.931,0,0,1,1.485-.77,1.271,1.271,0,0,1,1.128.66,3.412,3.412,0,0,1,.413,1.815,5.057,5.057,0,0,1-1.045,3.41Q331.585,72.275,326.855,72.275Zm16.995,1.21a6.458,6.458,0,0,1-4.372-1.32,3.885,3.885,0,0,1-1.513-2.97,3.383,3.383,0,0,1,1.045-2.475,4.176,4.176,0,0,1,3.08-1.045,12.068,12.068,0,0,1,1.678.137q.962.138,1.457.192a7.08,7.08,0,0,0-.633-2.695,13.463,13.463,0,0,0-1.457-2.447q-.88-1.183-1.65-2.062a35.939,35.939,0,0,1-3.383,5.39,40.283,40.283,0,0,1-3.658,4.07,2.944,2.944,0,0,1-2.09.99,1.806,1.806,0,0,1-1.43-.632,2.3,2.3,0,0,1-.55-1.567,3.136,3.136,0,0,1,.77-2.035l.715-.88a71.081,71.081,0,0,0,4.565-6.16,35.53,35.53,0,0,0,2.008-3.795q1.017-2.2,2.667-6,1.045-2.42,4.345-2.42a5.769,5.769,0,0,1,2.145.275.917.917,0,0,1,.605.88,4.048,4.048,0,0,1-.22,1.045,7.949,7.949,0,0,1-.6,1.43,7.842,7.842,0,0,0-.99,3.355,3.661,3.661,0,0,0,.578,1.815,20.6,20.6,0,0,0,1.788,2.475,34.945,34.945,0,0,1,2.667,3.932,7.145,7.145,0,0,1,.908,3.547,9.346,9.346,0,0,1-1.072,4.373,8.738,8.738,0,0,1-3,3.327A7.831,7.831,0,0,1,343.85,73.485ZM363.1,59.13a3.118,3.118,0,0,1-1.815-.495,1.743,1.743,0,0,1-.715-1.54l.055-.44q.935-6.16,2.53-14.025t2.97-13.585q.88-3.52,4.785-3.52,3.52,0,3.52,2.255a4.215,4.215,0,0,1-.165,1.1q-1.43,5.83-3.795,14.107T365.96,57.37A2.671,2.671,0,0,1,363.1,59.13Zm-2.09,13.145a4.776,4.776,0,0,1-3.658-1.32,4.861,4.861,0,0,1-1.237-3.465,5.531,5.531,0,0,1,1.4-3.96,6.087,6.087,0,0,1,7.59-.3,4.61,4.61,0,0,1,1.238,3.493,5.643,5.643,0,0,1-1.43,4.042A5.116,5.116,0,0,1,361.01,72.275Z" transform="translate(-397.633 61.5)" fill="#46267d"/></g></g></svg>