<svg xmlns="http://www.w3.org/2000/svg" width="61.989" height="58.115" viewBox="0 0 61.989 58.115">
  <g id="pop-quiz-intro-title" transform="translate(0 -16)">
    <g id="Group_7630" data-name="Group 7630" transform="translate(0 41.425)">
      <path id="Path_5949" data-name="Path 5949" d="M45.4,258.689H1.816A1.815,1.815,0,0,1,0,256.873V227.816A1.815,1.815,0,0,1,1.816,226H31.491a1.817,1.817,0,0,1,1.786,2.148c-.071.381-.151.752-.239,1.116,6.2-1.593,8.813.369,12.365.369a1.815,1.815,0,0,1,1.816,1.816v25.425a1.815,1.815,0,0,1-1.816,1.816Z" transform="translate(0 -226)" fill="#ff641a"/>
    </g>
    <path id="Path_5950" data-name="Path 5950" d="M216.793,229.632c-3.552,0-6.161-1.961-12.365-.369.089-.364.169-.734.239-1.116A1.817,1.817,0,0,0,202.882,226H195v32.689h21.793a1.815,1.815,0,0,0,1.816-1.816V231.448A1.815,1.815,0,0,0,216.793,229.632Z" transform="translate(-171.391 -184.575)" fill="#f03800"/>
    <path id="Path_5951" data-name="Path 5951" d="M129.816,308.708A1.816,1.816,0,0,1,128,306.892V293.816a1.816,1.816,0,0,1,2.628-1.624l13.076,6.538a1.816,1.816,0,0,1,0,3.249l-13.076,6.538A1.815,1.815,0,0,1,129.816,308.708Z" transform="translate(-112.503 -242.584)" fill="#fff5f5"/>
    <path id="Path_5952" data-name="Path 5952" d="M203.6,321.65a1.816,1.816,0,0,0-1-1.624l-7.592-3.8V327.07l7.592-3.8A1.816,1.816,0,0,0,203.6,321.65Z" transform="translate(-171.391 -263.88)" fill="#efe2dd"/>
    <g id="Group_7631" data-name="Group 7631" transform="translate(28.417 16)">
      <path id="Path_5953" data-name="Path 5953" d="M234.915,46.9a15.758,15.758,0,0,0,1.172-10.588,15.867,15.867,0,0,1-.491-3.964,16.345,16.345,0,1,1,16.345,16.345A15.756,15.756,0,0,1,248,48.195a15.706,15.706,0,0,0-10.646,1.176A1.832,1.832,0,0,1,234.915,46.9Z" transform="translate(-234.714 -16)" fill="#fed843"/>
    </g>
    <path id="Path_5954" data-name="Path 5954" d="M393.345,32.345A16.363,16.363,0,0,0,377,16V48.689A16.363,16.363,0,0,0,393.345,32.345Z" transform="translate(-331.356)" fill="#fabe2c"/>
    <g id="Group_7632" data-name="Group 7632" transform="translate(40.196 23.264)">
      <path id="Path_5955" data-name="Path 5955" d="M342.9,81.447a5.455,5.455,0,0,1-3.6,5.121,1.991,1.991,0,0,1-1.852,2,1.7,1.7,0,0,1-1.816-1.671,3.87,3.87,0,0,1,1.816-3.451,3.238,3.238,0,0,1,.617-.291,1.816,1.816,0,1,0-2.433-1.707,1.816,1.816,0,1,1-3.632,0,5.448,5.448,0,1,1,10.9,0Z" transform="translate(-332 -75.999)" fill="#474f54"/>
    </g>
    <g id="Group_7633" data-name="Group 7633" transform="translate(43.909 37.309)">
      <circle id="Ellipse_920" data-name="Ellipse 920" cx="1.937" cy="1.937" r="1.937" transform="translate(0 0)" fill="#474f54"/>
    </g>
    <g id="Group_7634" data-name="Group 7634" transform="translate(45.644 23.264)">
      <path id="Path_5956" data-name="Path 5956" d="M378.816,197.816A1.816,1.816,0,0,0,377,196v3.632A1.816,1.816,0,0,0,378.816,197.816Z" transform="translate(-377 -181.471)" fill="#32393f"/>
      <path id="Path_5957" data-name="Path 5957" d="M382.448,81.448a5.455,5.455,0,0,1-3.6,5.121,1.991,1.991,0,0,1-1.852,2V83.446a3.238,3.238,0,0,1,.617-.291A1.816,1.816,0,0,0,377,79.632V76A5.441,5.441,0,0,1,382.448,81.448Z" transform="translate(-377 -76)" fill="#32393f"/>
    </g>
  </g>
</svg>
