<svg xmlns="http://www.w3.org/2000/svg" width="18.001" height="17.823" viewBox="0 0 18.001 17.823"><defs><style>.a{fill:#fff;}</style></defs><g transform="translate(1526.804 4711)"><g transform="translate(-1526.804 -4711)"><g transform="translate(0)"><path class="a" d="M1955.956,4396.532h-9.964a2,2,0,0,1-1.993-1.993V4380.7a2,2,0,0,1,1.993-1.993h9.964a2,2,0,0,1,1.993,1.993v13.837A2,2,0,0,1,1955.956,4396.532Zm-5.655-4.926a1.673,1.673,0,0,0-.436.046.619.619,0,0,0-.273.15.564.564,0,0,0-.142.293,2.4,2.4,0,0,0-.037.466,2.258,2.258,0,0,0,.037.457.612.612,0,0,0,.142.292.566.566,0,0,0,.273.16,1.677,1.677,0,0,0,.436.045,1.635,1.635,0,0,0,.423-.045.541.541,0,0,0,.273-.16.613.613,0,0,0,.138-.292,2.278,2.278,0,0,0,.039-.457,2.421,2.421,0,0,0-.039-.466.574.574,0,0,0-.138-.293.585.585,0,0,0-.273-.15A1.634,1.634,0,0,0,1950.3,4391.606Zm-.126-4.256a1.07,1.07,0,0,0-.268.029.4.4,0,0,0-.193.109.516.516,0,0,0-.113.2.938.938,0,0,0-.03.314l.051,2.32a.212.212,0,0,0,.033.118.226.226,0,0,0,.109.079.72.72,0,0,0,.2.041,2.938,2.938,0,0,0,.3.013,1.286,1.286,0,0,0,.473-.063.2.2,0,0,0,.147-.188l.06-2.019a3.538,3.538,0,0,0,1.173-.269,2.662,2.662,0,0,0,.9-.627,2.829,2.829,0,0,0,.586-.972,3.788,3.788,0,0,0,.21-1.308,3.832,3.832,0,0,0-.2-1.24,2.753,2.753,0,0,0-.62-1.021,2.976,2.976,0,0,0-1.064-.691,4.192,4.192,0,0,0-1.543-.256,4.723,4.723,0,0,0-.842.075,6.234,6.234,0,0,0-.745.186,3.305,3.305,0,0,0-.578.238,1.728,1.728,0,0,0-.323.209.384.384,0,0,0-.109.185,1.414,1.414,0,0,0-.024.306,2.345,2.345,0,0,0,.016.306.685.685,0,0,0,.05.193.207.207,0,0,0,.081.1.21.21,0,0,0,.1.025.59.59,0,0,0,.256-.1c.109-.064.253-.138.44-.226a4.245,4.245,0,0,1,.632-.23,3.061,3.061,0,0,1,.851-.1,2.628,2.628,0,0,1,.959.159,1.793,1.793,0,0,1,.674.449,1.865,1.865,0,0,1,.4.687,2.739,2.739,0,0,1,.134.876,2.931,2.931,0,0,1-.108.8,1.791,1.791,0,0,1-.348.671,1.72,1.72,0,0,1-.625.457,2.287,2.287,0,0,1-.93.172Z" transform="translate(-1939.948 -4378.709)"/><rect class="a" width="2.273" height="16.137" rx="1.136" transform="translate(0 0.843)"/></g></g></g></svg>