<svg xmlns="http://www.w3.org/2000/svg" xmlns:xlink="http://www.w3.org/1999/xlink" width="18" height="17.823" viewBox="0 0 18 17.823"><defs><style>.a{fill:url(#a);}</style><linearGradient id="a" x1="0.5" x2="0.5" y2="1" gradientUnits="objectBoundingBox"><stop offset="0" stop-color="#5169d5"/><stop offset="1" stop-color="#3fa0e8"/></linearGradient></defs><g transform="translate(1526.804 4711)"><g transform="translate(-1526.804 -4711)"><g transform="translate(0)"><path class="a" d="M1806.955,4396.532h-9.963a2,2,0,0,1-1.993-1.993V4380.7a2,2,0,0,1,1.993-1.993h9.963a2,2,0,0,1,1.993,1.993v13.837A2,2,0,0,1,1806.955,4396.532Zm-5.653-4.927a1.665,1.665,0,0,0-.436.047.608.608,0,0,0-.273.151.562.562,0,0,0-.141.293,2.292,2.292,0,0,0-.04.465,2.181,2.181,0,0,0,.04.456.619.619,0,0,0,.141.295.561.561,0,0,0,.273.158,1.665,1.665,0,0,0,.436.047,1.625,1.625,0,0,0,.423-.047.552.552,0,0,0,.273-.158.633.633,0,0,0,.137-.295,2.179,2.179,0,0,0,.037-.456,2.326,2.326,0,0,0-.037-.465.57.57,0,0,0-.137-.293.583.583,0,0,0-.273-.151A1.625,1.625,0,0,0,1801.3,4391.605Zm-.125-4.257a1.075,1.075,0,0,0-.269.031.383.383,0,0,0-.192.107.5.5,0,0,0-.115.2.966.966,0,0,0-.029.315l.051,2.319a.2.2,0,0,0,.033.116.227.227,0,0,0,.108.082.812.812,0,0,0,.2.041c.088.007.184.014.3.014a1.328,1.328,0,0,0,.473-.063.2.2,0,0,0,.145-.189l.06-2.018a3.569,3.569,0,0,0,1.172-.269,2.7,2.7,0,0,0,.905-.628,2.891,2.891,0,0,0,.588-.974,4.042,4.042,0,0,0,.007-2.548,2.751,2.751,0,0,0-.619-1.021,2.953,2.953,0,0,0-1.064-.689,4.188,4.188,0,0,0-1.542-.258,4.663,4.663,0,0,0-.844.077,6.578,6.578,0,0,0-.744.183,3.506,3.506,0,0,0-.579.24,1.7,1.7,0,0,0-.322.209.365.365,0,0,0-.11.186,1.487,1.487,0,0,0-.024.306,1.941,1.941,0,0,0,.018.3.719.719,0,0,0,.049.194.225.225,0,0,0,.079.1.221.221,0,0,0,.106.024.584.584,0,0,0,.255-.1c.108-.062.248-.134.44-.225a4.055,4.055,0,0,1,.632-.231,3.054,3.054,0,0,1,.85-.105,2.615,2.615,0,0,1,.96.161,1.8,1.8,0,0,1,.674.446,1.933,1.933,0,0,1,.4.688,2.79,2.79,0,0,1,.134.877,2.94,2.94,0,0,1-.11.8,1.78,1.78,0,0,1-.348.669,1.707,1.707,0,0,1-.623.458,2.259,2.259,0,0,1-.932.17Z" transform="translate(-1790.948 -4378.709)"/><rect class="a" width="2.273" height="16.137" rx="1.136" transform="translate(0 0.843)"/></g></g></g></svg>