<svg xmlns="http://www.w3.org/2000/svg" width="18" height="17.823" viewBox="0 0 18 17.823"><defs><style>.a{fill:#84a9bf;}</style></defs><g transform="translate(1526.804 4711)"><g transform="translate(-1526.804 -4711)"><g transform="translate(0)"><path class="a" d="M2077.955,4396.532h-9.962a2,2,0,0,1-1.993-1.993V4380.7a2,2,0,0,1,1.993-1.993h9.962a2,2,0,0,1,1.993,1.993v13.837A2,2,0,0,1,2077.955,4396.532Zm-5.654-4.926a1.673,1.673,0,0,0-.436.046.619.619,0,0,0-.272.15.565.565,0,0,0-.142.293,2.376,2.376,0,0,0-.038.466,2.288,2.288,0,0,0,.038.457.612.612,0,0,0,.142.292.567.567,0,0,0,.272.16,1.677,1.677,0,0,0,.436.045,1.633,1.633,0,0,0,.423-.045.536.536,0,0,0,.273-.16.627.627,0,0,0,.139-.292,2.357,2.357,0,0,0,.038-.457,2.5,2.5,0,0,0-.038-.466.516.516,0,0,0-.412-.443A1.63,1.63,0,0,0,2072.3,4391.606Zm-.126-4.256a1.069,1.069,0,0,0-.268.029.4.4,0,0,0-.193.109.519.519,0,0,0-.113.2.941.941,0,0,0-.03.314l.051,2.32a.212.212,0,0,0,.033.118.223.223,0,0,0,.109.079.742.742,0,0,0,.2.041,2.945,2.945,0,0,0,.3.013,1.294,1.294,0,0,0,.473-.063.2.2,0,0,0,.146-.188l.059-2.019a3.542,3.542,0,0,0,1.174-.269,2.664,2.664,0,0,0,.9-.627,2.828,2.828,0,0,0,.586-.972,3.783,3.783,0,0,0,.21-1.308,3.834,3.834,0,0,0-.2-1.24,2.755,2.755,0,0,0-.62-1.021,2.971,2.971,0,0,0-1.064-.691,4.191,4.191,0,0,0-1.542-.256,4.726,4.726,0,0,0-.842.075,6.341,6.341,0,0,0-.746.186,3.433,3.433,0,0,0-.578.238,1.725,1.725,0,0,0-.322.209.382.382,0,0,0-.109.185,1.418,1.418,0,0,0-.024.306,2.347,2.347,0,0,0,.017.306.649.649,0,0,0,.051.193.2.2,0,0,0,.079.1.212.212,0,0,0,.1.025.59.59,0,0,0,.255-.1c.108-.063.252-.138.44-.226a4.272,4.272,0,0,1,.632-.23,3.059,3.059,0,0,1,.851-.1,2.632,2.632,0,0,1,.959.159,1.8,1.8,0,0,1,.674.449,1.872,1.872,0,0,1,.4.687,2.731,2.731,0,0,1,.135.876,2.929,2.929,0,0,1-.109.8,1.8,1.8,0,0,1-.348.671,1.719,1.719,0,0,1-.625.457,2.287,2.287,0,0,1-.93.172Z" transform="translate(-2061.948 -4378.709)"/><rect class="a" width="2.273" height="16.137" rx="1.136" transform="translate(0 0.843)"/></g></g></g></svg>