<svg width="21" height="16" viewBox="0 0 21 16" fill="none" xmlns="http://www.w3.org/2000/svg">
<path d="M10.9961 0.300781C5.4821 0.300781 0.996097 4.78678 0.996097 10.3008C0.994801 11.8442 1.35473 13.3664 2.0471 14.7458C2.2171 15.0858 2.5631 15.3008 2.9421 15.3008H19.0491C19.4281 15.3008 19.7751 15.0858 19.9451 14.7458C20.6375 13.3664 20.9974 11.8442 20.9961 10.3008C20.9961 4.78678 16.5101 0.300781 10.9961 0.300781ZM16.0181 5.32278L12.0561 11.3608C11.9459 11.5291 11.8035 11.6741 11.6372 11.7873C11.4709 11.9005 11.2839 11.9799 11.0869 12.0207C10.8899 12.0616 10.6867 12.0632 10.4891 12.0255C10.2914 11.9877 10.1032 11.9114 9.9351 11.8008C9.72237 11.6617 9.54766 11.4718 9.42673 11.2482C9.30581 11.0246 9.24249 10.7745 9.24249 10.5203C9.24249 10.2661 9.30581 10.0159 9.42673 9.79237C9.54766 9.56881 9.72237 9.37889 9.9351 9.23978L15.9731 5.27778C15.9804 5.27325 15.9892 5.27175 15.9976 5.27362C16.006 5.27549 16.0134 5.28057 16.0181 5.28778C16.0213 5.29307 16.0229 5.29912 16.0229 5.30528C16.0229 5.31145 16.0213 5.3175 16.0181 5.32278Z" fill="white"/>
</svg>
