<svg width="21" height="16" viewBox="0 0 21 16" fill="none" xmlns="http://www.w3.org/2000/svg">
<path d="M10.041 0.154297C4.52702 0.154297 0.0410191 4.6403 0.0410191 10.1543C0.0397227 11.6977 0.399654 13.2199 1.09202 14.5993C1.26202 14.9393 1.60802 15.1543 1.98702 15.1543H18.094C18.473 15.1543 18.82 14.9393 18.99 14.5993C19.6824 13.2199 20.0423 11.6977 20.041 10.1543C20.041 4.6403 15.555 0.154297 10.041 0.154297ZM15.063 5.1763L11.101 11.2143C10.9908 11.3826 10.8485 11.5276 10.6821 11.6408C10.5158 11.7541 10.3288 11.8334 10.1318 11.8743C9.93477 11.9151 9.73163 11.9167 9.53399 11.879C9.33636 11.8413 9.14811 11.7649 8.98002 11.6543C8.76729 11.5152 8.59258 11.3253 8.47165 11.1017C8.35073 10.8781 8.28741 10.628 8.28741 10.3738C8.28741 10.1196 8.35073 9.86946 8.47165 9.64589C8.59258 9.42233 8.76729 9.23241 8.98002 9.0933L15.018 5.1313C15.0253 5.12676 15.0341 5.12527 15.0426 5.12714C15.051 5.12901 15.0583 5.13409 15.063 5.1413C15.0662 5.14658 15.0679 5.15263 15.0679 5.1588C15.0679 5.16496 15.0662 5.17101 15.063 5.1763Z" fill="#A0AEC7"/>
</svg>
