<svg xmlns="http://www.w3.org/2000/svg" xmlns:xlink="http://www.w3.org/1999/xlink" width="49" height="49" viewBox="0 0 49 49"><defs><filter id="a" x="0" y="0" width="49" height="49" filterUnits="userSpaceOnUse"><feOffset dy="1" input="SourceAlpha"/><feGaussianBlur stdDeviation="1.5" result="b"/><feFlood flood-opacity="0.2"/><feComposite operator="in" in2="b"/><feComposite in="SourceGraphic"/></filter><clipPath id="c"><rect width="24" height="24" fill="none"/></clipPath></defs><g transform="translate(-1096.5 -577.5)"><g transform="translate(1169 582)"><g transform="matrix(1, 0, 0, 1, -72.5, -4.5)" filter="url(#a)"><g transform="translate(4.5 3.5)" fill="none" stroke="#fff" stroke-width="1"><rect width="40" height="40" rx="4" stroke="none"/><rect x="0.5" y="0.5" width="39" height="39" rx="3.5" fill="none"/></g></g><g transform="translate(-60 7)" clip-path="url(#c)"><path d="M20-18a2,2,0,0,0-1.99,2A2,2,0,0,0,20-14a2.006,2.006,0,0,0,2-2A2.006,2.006,0,0,0,20-18ZM14-34v2h2l3.6,7.59-1.35,2.44A2,2,0,0,0,20-19H32v-2H20l1.1-2h7.45a1.991,1.991,0,0,0,1.75-1.03l3.58-6.49A1,1,0,0,0,33.01-32H18.21l-.94-2ZM30-18a2,2,0,0,0-1.99,2A2,2,0,0,0,30-14a2.006,2.006,0,0,0,2-2A2.006,2.006,0,0,0,30-18Z" transform="translate(-12 36)" fill="#fff"/><rect width="18" height="18" fill="none"/></g></g></g></svg>