<svg xmlns="http://www.w3.org/2000/svg" width="292.835" height="240.141" viewBox="0 0 292.835 240.141"><g transform="translate(-39.605 -76.73)"><g transform="translate(51.01 300.903)"><ellipse cx="133.981" cy="7.822" rx="133.981" ry="7.822" fill="#f5f5f5"/></g><g transform="translate(39.605 76.73)"><path d="M176.972,272.15H43.544A3.945,3.945,0,0,1,39.6,268.2V80.641a3.946,3.946,0,0,1,3.939-3.911H176.972a3.946,3.946,0,0,1,3.946,3.946h0V268.2A3.946,3.946,0,0,1,176.972,272.15ZM43.544,76.868a3.773,3.773,0,0,0-3.766,3.773V268.2a3.772,3.772,0,0,0,3.766,3.773H176.972a3.78,3.78,0,0,0,3.773-3.773V80.641a3.78,3.78,0,0,0-3.773-3.773Z" transform="translate(-39.605 -76.73)" fill="#f0f0f0"/><path d="M393.276,272.15H259.841A3.952,3.952,0,0,1,255.9,268.2V80.641a3.953,3.953,0,0,1,3.946-3.911H393.276a3.946,3.946,0,0,1,3.932,3.911V268.2A3.945,3.945,0,0,1,393.276,272.15ZM259.841,76.868a3.78,3.78,0,0,0-3.773,3.773V268.2a3.779,3.779,0,0,0,3.773,3.773H393.276a3.78,3.78,0,0,0,3.773-3.773V80.641a3.78,3.78,0,0,0-3.773-3.773Z" transform="translate(-106.435 -76.73)" fill="#f0f0f0"/><g transform="translate(9.802 211.325)"><g transform="translate(0 17.734)"><rect width="28.477" height="0.173" transform="translate(0 1.382)" fill="#e0e0e0"/><rect width="6.91" height="0.173" transform="translate(116.775)" fill="#e0e0e0"/><rect width="31.96" height="0.173" transform="translate(22.658 5.901)" fill="#e0e0e0"/><rect width="19.3" height="0.173" transform="translate(171.31 1.292)" fill="#e0e0e0"/><rect width="19.3" height="0.173" transform="translate(247.171 1.292)" fill="#e0e0e0"/></g><g transform="translate(22.002)"><rect width="28.56" height="0.173" transform="translate(35.304)" fill="#e0e0e0"/><rect width="31.96" height="0.173" transform="translate(0 5.901)" fill="#e0e0e0"/><rect width="14.926" height="0.173" transform="translate(127.576 1.292)" fill="#e0e0e0"/><rect width="19.3" height="0.173" transform="translate(148.652 1.292)" fill="#e0e0e0"/><rect width="43.147" height="0.173" transform="translate(217.885 4.215)" fill="#e0e0e0"/></g></g><g transform="translate(0.118 110.411)"><rect width="21.636" height="23.032" transform="translate(5.542 3.552)" fill="#e6e6e6"/><rect width="5.542" height="23.032" transform="translate(0 3.552)" fill="#f0f0f0"/><rect width="16.253" height="26.583" transform="translate(16.598)" fill="#e6e6e6"/><rect width="4.699" height="26.583" transform="translate(11.906)" fill="#f0f0f0"/><rect width="13.703" height="23.032" transform="translate(21.387 3.552)" fill="#f0f0f0"/><rect width="3.13" height="23.032" transform="translate(18.257 3.552)" fill="#f5f5f5"/><rect width="17.973" height="19.134" transform="translate(32.602 7.449)" fill="#e6e6e6"/><rect width="4.602" height="19.134" transform="translate(28 7.449)" fill="#f5f5f5"/><rect width="13.502" height="22.085" transform="translate(41.786 4.499)" fill="#e6e6e6"/><rect width="3.904" height="22.085" transform="translate(37.888 4.499)" fill="#f0f0f0"/><rect width="13.116" height="19.134" transform="translate(45.766 7.449)" fill="#f0f0f0"/><rect width="2.598" height="19.134" transform="translate(43.161 7.449)" fill="#f5f5f5"/></g><g transform="translate(0.173 110.534)"><rect width="21.636" height="23.032" transform="translate(87.588 3.552)" fill="#e6e6e6"/><rect width="5.542" height="23.032" transform="translate(82.046 3.552)" fill="#f0f0f0"/><rect width="16.253" height="26.583" transform="translate(98.645)" fill="#e6e6e6"/><rect width="4.699" height="26.583" transform="translate(93.953)" fill="#f0f0f0"/><rect width="13.703" height="23.032" transform="translate(103.433 3.552)" fill="#f0f0f0"/><rect width="3.13" height="23.032" transform="translate(100.303 3.552)" fill="#f5f5f5"/><rect width="140.968" height="6.666" transform="translate(0 26.571)" fill="#e0e0e0"/><rect width="17.973" height="19.134" transform="translate(114.649 7.449)" fill="#e6e6e6"/><rect width="4.602" height="19.134" transform="translate(110.046 7.449)" fill="#f5f5f5"/><rect width="13.502" height="22.085" transform="translate(123.832 4.499)" fill="#e6e6e6"/><rect width="3.904" height="22.085" transform="translate(119.935 4.499)" fill="#f0f0f0"/><rect width="13.116" height="19.134" transform="translate(127.812 7.449)" fill="#f0f0f0"/><rect width="2.598" height="19.134" transform="translate(125.207 7.449)" fill="#f5f5f5"/></g><g transform="translate(0.389 17.351)"><rect width="113.211" height="68.984" transform="translate(0 0.027)" fill="#ebebeb"/><g transform="translate(3.428)"><g transform="translate(109.795)"><rect width="0.829" height="68.984" fill="#e0e0e0"/></g><rect width="0.684" height="62.074" transform="translate(0 3.024)" fill="#e0e0e0"/></g><rect width="106.163" height="62.074" transform="translate(3.36 3.024)" fill="#fff"/><rect width="8.748" height="12.566" transform="translate(66.478 23.71)" fill="#f5f5f5"/><rect width="8.748" height="12.566" transform="translate(8.473 43.619)" fill="#f5f5f5"/><rect width="8.748" height="8.748" transform="translate(7.62 17.414)" fill="#f5f5f5"/><rect width="8.748" height="8.748" transform="translate(51.138 47.625)" fill="#f5f5f5"/><g transform="translate(80.449 24.792)"><rect width="22.403" height="31.483" fill="#f5f5f5"/><g transform="translate(3.068 4.558)"><rect width="16.092" height="0.346" fill="#e0e0e0"/></g><g transform="translate(10.941 4.895)"><rect width="0.346" height="23.317" fill="#e0e0e0"/></g><g transform="translate(18.33 4.895)"><rect width="0.346" height="23.317" fill="#e0e0e0"/></g><g transform="translate(4.373 4.895)"><rect width="0.346" height="23.317" fill="#e0e0e0"/></g><g transform="translate(3.224 4.895)"><rect width="0.346" height="23.317" fill="#e0e0e0"/></g><g transform="translate(3.396 6.125)"><rect width="14.943" height="0.346" fill="#e0e0e0"/></g></g><g transform="translate(24.064 14.323)"><rect width="2.956" height="6.896" transform="translate(19.936 3.925) rotate(-90)" fill="#f5f5f5"/><rect width="2.299" height="6.896" transform="translate(21.284 25.525) rotate(-90)" fill="#f5f5f5"/><rect width="22.403" height="31.483" fill="#f0f0f0"/><rect width="2.299" height="6.896" transform="translate(19.737 30.615) rotate(-90)" fill="#f5f5f5"/><rect width="2.299" height="6.897" transform="translate(20.887 9.569) rotate(-90)" fill="#f5f5f5"/><rect width="2.299" height="6.896" transform="translate(19.375 15.282) rotate(-90)" fill="#f5f5f5"/><rect width="15.271" height="2.709" transform="translate(2.64 3.87)" fill="#e6e6e6"/><path d="M94.329,144.37H79.058l-.246-1.232H94.083Z" transform="translate(-76.172 -128.924)" fill="#e6e6e6"/><rect width="5.419" height="2.709" transform="translate(2.64 9.289)" fill="#e6e6e6"/></g></g><g transform="translate(131.145 151.104)"><g transform="translate(4.25)"><path d="M270.6,302.838a23.066,23.066,0,0,1,5.735,3.439,8.333,8.333,0,0,1,2.5,2.66,3.146,3.146,0,0,1-.229,3.456,3.264,3.264,0,0,1-4.013.238,11.827,11.827,0,0,1-2.984-3.157c-1.341-1.745-6.657-5.4-6.8-7.243A9.48,9.48,0,0,1,270.6,302.838Z" transform="translate(-244.584 -297.437)" fill="#e6e6e6"/><path d="M272.8,314.1a5.431,5.431,0,0,0,1.886,3.687,2.72,2.72,0,0,0,3.774-.421c.764-1.187.16-2.759-.555-3.976a20.028,20.028,0,0,0-4.762-5.787A20.852,20.852,0,0,0,272.8,314.1Z" transform="translate(-247.009 -299.171)" fill="#e0e0e0"/><path d="M264.655,303.243a14.5,14.5,0,0,1-.809,5.237,13,13,0,0,0-.693,5.246c.227,1.6,1.482,3.329,3.071,3.06a3.469,3.469,0,0,0,2.273-2.26c1.332-3.005,2.376-7,1.154-10.054-1.153-2.879-4.758-5.505-7.822-6.306C262.515,300.087,264.431,300.933,264.655,303.243Z" transform="translate(-243.663 -296.254)" fill="#e6e6e6"/><path d="M247.029,300.05a11.251,11.251,0,0,0-2.7,9.18,6.958,6.958,0,0,0-8.544,8.581c1.124.589,2.487-.4,3.031-1.547s.645-2.485,1.283-3.584,2.222-1.849,3.164-1c.493,5.413-.247,13.026.245,18.439.071-.35,4.253-.323,4.235-.418-.514-2.7-1.224-13.019.109-12.7,1.058.251,1.278,1.665,1.143,2.747s-.323,2.357.477,3.074a1.779,1.779,0,0,0,2.695-.5c.9-1.39.379-3-.218-4.4a5.665,5.665,0,0,0-2.476-3.163c-1.243-.574-3.094.145-3.107,1.518-.7-3.407-1.4-6.983-.41-10.317s4.3-6.251,7.69-5.536c1.669.352,4.136,1.777,5.347-.186.861-1.4.046-2.343-1.165-3.038C254.382,295.22,249.393,297.427,247.029,300.05Z" transform="translate(-235.54 -295.72)" fill="#f0f0f0"/><path d="M260.483,300.743a7.4,7.4,0,0,0,.554,4.8c.688,1.253,2.161,2.076,3.268,1.314a3.812,3.812,0,0,0,1.193-3.081C265.566,299.336,261.811,293.5,260.483,300.743Z" transform="translate(-243.198 -295.993)" fill="#f0f0f0"/><path d="M266.65,295.886a9.47,9.47,0,0,1,5.882,5.386,2.557,2.557,0,0,1,.034,2.389c-.593.851-1.875.814-2.843.445-2.032-.776-3.515-2.51-5.1-4-1.059-.993-4.657-2.157-3.872-3.725S265.393,295.5,266.65,295.886Z" transform="translate(-243.294 -295.399)" fill="#f0f0f0"/></g><path d="M251.221,362.755H236.9L229.39,335.17h29.336Z" transform="translate(-229.39 -307.688)" fill="#e6e6e6"/><g transform="translate(6.448 50.965)"><rect width="16.347" height="0.614" fill="#fff"/></g></g><g transform="translate(74.449 190.278)"><path d="M147.344,361.423l.449,8.6H174.8l-9.815-8.6Z" transform="translate(-147.344 -354.973)" fill="#ebebeb"/><path d="M157.376,366.87l.657,9.272,27.176-.082-7.916-9.19Z" transform="translate(-150.444 -356.656)" fill="#e6e6e6"/><path d="M155.937,354.171l-6.187,4.9s20.018,3.636,19.586,3.586-.7-6.639-.7-6.639Z" transform="translate(-148.087 -352.732)" fill="#ebebeb"/><path d="M169.8,361.541l-1.54,5.066h18.91c-.315,0-3.772-4.956-3.772-4.956Z" transform="translate(-153.806 -355.009)" fill="#f0f0f0"/><path d="M168.389,352.089l-2.622,4.6,18.441,4.181c-.307-.07-2.582-5.667-2.582-5.667Z" transform="translate(-153.036 -352.089)" fill="#f5f5f5"/><path d="M162.824,356.287l-9.606,4.434s10.438,5.615,14.86,5.213c2.709-.246,6.363-6.814,6.363-6.814Z" transform="translate(-149.159 -353.386)" fill="#fafafa"/></g></g><g transform="translate(102.239 131.636)"><g transform="translate(0 0)"><g transform="translate(41.78)"><path d="M215.389,170.847c-3.185-2.2-5.768-5.606-6.009-9.467a47.293,47.293,0,0,1-18.443-5.193l-.23.273a49,49,0,0,0,2.022,10.442,16.464,16.464,0,0,0,6.138,8.481c3.619,2.376,8.183,2.669,12.512,2.722,5.031.063,10.315-.167,14.647-2.727C222.331,174.226,218.574,173.044,215.389,170.847Z" transform="translate(-190.707 -156.187)" fill="#407bff"/><path d="M215.389,170.847c-3.185-2.2-5.768-5.606-6.009-9.467a47.293,47.293,0,0,1-18.443-5.193l-.23.273a49,49,0,0,0,2.022,10.442,16.464,16.464,0,0,0,6.138,8.481c3.619,2.376,8.183,2.669,12.512,2.722,5.031.063,10.315-.167,14.647-2.727C222.331,174.226,218.574,173.044,215.389,170.847Z" transform="translate(-190.707 -156.187)" fill="#fff" opacity="0.7"/></g><g transform="translate(89.203 0.766)"><path d="M278.335,183.7a16.125,16.125,0,0,0-3.474-10.71c-2.034-2.341-4.875-3.793-7.359-5.65a26.693,26.693,0,0,1-8.166-10.049l.351,1.632a40.708,40.708,0,0,1,3.477,28.221,117.859,117.859,0,0,1,13.261,7.877A47.948,47.948,0,0,0,278.335,183.7Z" transform="translate(-259.335 -157.295)" fill="#407bff"/><path d="M278.335,183.7a16.125,16.125,0,0,0-3.474-10.71c-2.034-2.341-4.875-3.793-7.359-5.65a26.693,26.693,0,0,1-8.166-10.049l.351,1.632a40.708,40.708,0,0,1,3.477,28.221,117.859,117.859,0,0,1,13.261,7.877A47.948,47.948,0,0,0,278.335,183.7Z" transform="translate(-259.335 -157.295)" fill="#fff" opacity="0.7"/></g><g transform="translate(41.335 148.415)"><path d="M190.062,380.993l10.407,3.474a11.356,11.356,0,0,0,2.862.687,9.811,9.811,0,0,0,5.53-1.8,34.294,34.294,0,0,0,10.568-10.064l-9.486-1.55c-1.084-.178-3.385-1.028-4.409-.7-.894.287-1.741,1.78-2.415,2.452a29.093,29.093,0,0,1-6.035,4.61C195.712,378.891,191.68,381.456,190.062,380.993Z" transform="translate(-190.062 -370.965)" fill="#407bff"/><path d="M190.062,380.993l10.407,3.474a11.356,11.356,0,0,0,2.862.687,9.811,9.811,0,0,0,5.53-1.8,34.294,34.294,0,0,0,10.568-10.064l-9.486-1.55c-1.084-.178-3.385-1.028-4.409-.7-.894.287-1.741,1.78-2.415,2.452a29.093,29.093,0,0,1-6.035,4.61C195.712,378.891,191.68,381.456,190.062,380.993Z" transform="translate(-190.062 -370.965)" fill="#fff" opacity="0.6"/></g><g transform="translate(73.5 154.741)"><path d="M236.61,380.119l6.22,9.039a11.365,11.365,0,0,0,1.872,2.271,9.811,9.811,0,0,0,5.5,1.889,34.3,34.3,0,0,0,14.5-1.676l-6.642-6.947c-.759-.794-2.084-2.858-3.1-3.212-.887-.308-2.461.374-3.4.505a29.1,29.1,0,0,1-7.594.049C242.388,381.842,237.624,381.464,236.61,380.119Z" transform="translate(-236.61 -380.119)" fill="#407bff"/><path d="M236.61,380.119l6.22,9.039a11.365,11.365,0,0,0,1.872,2.271,9.811,9.811,0,0,0,5.5,1.889,34.3,34.3,0,0,0,14.5-1.676l-6.642-6.947c-.759-.794-2.084-2.858-3.1-3.212-.887-.308-2.461.374-3.4.505a29.1,29.1,0,0,1-7.594.049C242.388,381.842,237.624,381.464,236.61,380.119Z" transform="translate(-236.61 -380.119)" fill="#fff" opacity="0.6"/></g><g transform="translate(53.997 154.64)"><path d="M238.72,387.086l-9.432-5.6a11.4,11.4,0,0,0-2.651-1.278,9.809,9.809,0,0,0-5.786.587,34.305,34.305,0,0,0-12.463,7.592l8.941,3.528c1.021.4,3.089,1.723,4.16,1.618.935-.091,2.079-1.37,2.881-1.884a29.1,29.1,0,0,1,6.876-3.224C232.752,387.941,237.236,386.29,238.72,387.086Z" transform="translate(-208.387 -379.973)" fill="#407bff"/><path d="M238.72,387.086l-9.432-5.6a11.4,11.4,0,0,0-2.651-1.278,9.809,9.809,0,0,0-5.786.587,34.305,34.305,0,0,0-12.463,7.592l8.941,3.528c1.021.4,3.089,1.723,4.16,1.618.935-.091,2.079-1.37,2.881-1.884a29.1,29.1,0,0,1,6.876-3.224C232.752,387.941,237.236,386.29,238.72,387.086Z" transform="translate(-208.387 -379.973)" fill="#fff" opacity="0.7"/></g><g transform="translate(0 19.812)"><path d="M130.245,195.585a92.44,92.44,0,0,0,26.221-.151,1.781,1.781,0,0,0,1.337-.633c.4-.653-.16-1.446-.617-2.056a10.05,10.05,0,0,1-1.785-7.887,41.869,41.869,0,0,1-23.363,10.623Z" transform="translate(-130.245 -184.858)" fill="#407bff"/><path d="M130.245,195.585a92.44,92.44,0,0,0,26.221-.151,1.781,1.781,0,0,0,1.337-.633c.4-.653-.16-1.446-.617-2.056a10.05,10.05,0,0,1-1.785-7.887,41.869,41.869,0,0,1-23.363,10.623Z" transform="translate(-130.245 -184.858)" fill="#fff" opacity="0.4"/></g></g></g><g transform="translate(48.172 198.818)"><g transform="translate(0)"><path d="M55.089,287.882h0V253.409h0a10.85,10.85,0,0,1,10.85,10.85v12.774A10.85,10.85,0,0,1,55.089,287.882Z" transform="translate(-52.957 -253.409)" fill="#407bff"/><g transform="translate(0 10.826)"><path d="M87.147,332.445H61.115c-5.8,0-8.994-4.176-8.994-11.758L52,269.08l2.073,0,.117,51.609c0,6.429,2.329,9.687,6.921,9.687H87.147Z" transform="translate(-52.003 -269.076)" fill="#263238"/></g><path d="M105.812,351.981H68.637c-5.514,0-9.984-3.153-9.984-7.043h0c0-3.89,4.47-7.044,9.984-7.044h37.175c5.514,0,9.983,3.154,9.983,7.044h0C115.8,348.828,111.326,351.981,105.812,351.981Z" transform="translate(-54.058 -279.514)" fill="#407bff"/><path d="M55.089,287.882h0V253.409h0a10.85,10.85,0,0,1,10.85,10.85v12.774A10.85,10.85,0,0,1,55.089,287.882Z" transform="translate(-52.957 -253.409)" fill="#407bff"/><path d="M105.812,351.981H68.637c-5.514,0-9.984-3.153-9.984-7.043h0c0-3.89,4.47-7.044,9.984-7.044h37.175c5.514,0,9.983,3.154,9.983,7.044h0C115.8,348.828,111.326,351.981,105.812,351.981Z" transform="translate(-54.058 -279.514)" fill="#407bff"/><rect width="5.946" height="21.248" transform="translate(29.312 73.159)" fill="#263238"/><path d="M63.343,396.762l21.476-6.732h5.946l22.988,6.732v1.97H63.343Z" transform="translate(-55.507 -295.622)" fill="#263238"/><g transform="translate(6.687 103.11)"><rect width="4.762" height="4.762" transform="translate(1.149)" fill="#263238"/><circle cx="3.642" cy="3.642" r="3.642" transform="translate(0 5.242)" fill="#263238"/></g><g transform="translate(52.171 103.11)"><rect width="4.762" height="4.762" transform="translate(1.149)" fill="#263238"/><circle cx="3.642" cy="3.642" r="3.642" transform="translate(0 5.242)" fill="#263238"/></g></g><g transform="translate(14.911 16.74)"><g transform="translate(0 14.285)"><path d="M97,298.307H88.521l-14.94,87.027h3.772Z" transform="translate(-73.581 -298.307)" fill="#263238"/><path d="M97,298.307H88.521l-14.94,87.027h3.772Z" transform="translate(-73.581 -298.307)" fill="#fff" opacity="0.1"/></g><g transform="translate(74.994 14.285)"><path d="M182.109,298.307h8.481l14.94,87.027h-3.772Z" transform="translate(-182.109 -298.307)" fill="#263238"/><path d="M182.109,298.307h8.481l14.94,87.027h-3.772Z" transform="translate(-182.109 -298.307)" fill="#fff" opacity="0.1"/></g><g transform="translate(10.778 7.553)"><rect width="77.339" height="13.3" fill="#263238"/><rect width="77.339" height="13.3" fill="#fff" opacity="0.2"/></g><g transform="translate(3.436)"><path d="M165.417,285.187H82.331a3.777,3.777,0,0,1-3.777-3.776h0a3.777,3.777,0,0,1,3.777-3.776h83.086a3.777,3.777,0,0,1,3.777,3.776h0A3.777,3.777,0,0,1,165.417,285.187Z" transform="translate(-78.554 -277.634)" fill="#407bff"/><path d="M165.417,285.187H82.331a3.777,3.777,0,0,1-3.777-3.776h0a3.777,3.777,0,0,1,3.777-3.776h83.086a3.777,3.777,0,0,1,3.777,3.776h0A3.777,3.777,0,0,1,165.417,285.187Z" transform="translate(-78.554 -277.634)" opacity="0.3"/></g></g></g><g transform="translate(168.487 79.053)"><g transform="translate(0 0)"><circle cx="14.129" cy="14.129" r="14.129" transform="translate(0 27.769) rotate(-79.316)" fill="#e03249"/><circle cx="11.339" cy="11.339" r="11.339" transform="translate(4.994 5.165)" fill="#fff" opacity="0.8"/><g transform="translate(11.293 9.934)"><g transform="translate(3.861 6.361)"><path d="M250.346,104.823a1.15,1.15,0,1,1-1.15-1.15A1.15,1.15,0,0,1,250.346,104.823Z" transform="translate(-248.046 -103.673)" fill="#e03249"/></g><path d="M247.338,102.4l-4.879-4.592.474-.5,4.42,4.16,7.922-7,.458.518Z" transform="translate(-242.459 -94.467)" fill="#e03249"/></g></g></g><g transform="translate(82.57 162.139)"><g transform="translate(0 43.567)"><rect width="37.972" height="9.442" transform="translate(37.972 9.442) rotate(180)" fill="#407bff"/><rect width="37.972" height="9.442" transform="translate(38.095 9.483) rotate(180)" fill="#fff" opacity="0.6" style="isolation:isolate"/><rect width="29.146" height="9.442" transform="translate(29.146 9.483) rotate(180)" fill="#fff" opacity="0.6" style="isolation:isolate"/><path d="M102.04,275.178l37.788,1.173-.042-.957L102.02,274.9Z" transform="translate(-101.856 -266.937)" fill="#407bff" style="isolation:isolate"/><path d="M139.864,268.034l-37.73-2.121v.318l37.73,2.522Z" transform="translate(-101.891 -264.16)" fill="#407bff" style="isolation:isolate"/><path d="M139.864,264.856l-37.73.864v.311l37.73-.456Z" transform="translate(-101.891 -263.833)" fill="#407bff" style="isolation:isolate"/><path d="M140.015,271.385l-37.736,1.838v-.276l37.736-2.191Z" transform="translate(-101.935 -265.656)" fill="#407bff" style="isolation:isolate"/><path d="M101.917,263.555l37.73.031v.311h-37.73Z" transform="translate(-101.824 -263.431)" fill="#407bff" style="isolation:isolate"/></g><g transform="translate(2.723 15.448)"><rect width="37.972" height="9.442" transform="translate(37.972 9.442) rotate(180)" fill="#407bff"/><rect width="37.972" height="9.442" transform="translate(38.095 9.483) rotate(180)" fill="#fff" opacity="0.6" style="isolation:isolate"/><rect width="29.146" height="9.442" transform="translate(29.146 9.483) rotate(180)" fill="#fff" opacity="0.6" style="isolation:isolate"/><path d="M105.981,234.485l37.788,1.173-.042-.957-37.767-.493Z" transform="translate(-105.796 -226.244)" fill="#407bff" style="isolation:isolate"/><path d="M143.8,227.34l-37.729-2.121v.318l37.729,2.522Z" transform="translate(-105.832 -223.467)" fill="#407bff" style="isolation:isolate"/><path d="M143.8,224.163l-37.729.864v.311l37.729-.456Z" transform="translate(-105.832 -223.14)" fill="#407bff" style="isolation:isolate"/><path d="M143.955,230.692l-37.736,1.838v-.276l37.736-2.191Z" transform="translate(-105.876 -224.963)" fill="#407bff" style="isolation:isolate"/></g><g transform="translate(2.251 33.996)"><rect width="37.972" height="9.442" transform="translate(37.972 9.442) rotate(180)" fill="#407bff"/><rect width="37.972" height="9.442" transform="translate(38.095 9.483) rotate(180)" fill="#fff" opacity="0.6" style="isolation:isolate"/><rect width="29.146" height="9.442" transform="translate(0.083 0.041)" fill="#fff" opacity="0.6" style="isolation:isolate"/><path d="M142.848,261.049l-37.767.493-.042.957,37.788-1.173Z" transform="translate(-105.04 -253.086)" fill="#407bff" style="isolation:isolate"/><path d="M105.392,249.7l37.73.031v.311h-37.73Z" transform="translate(-105.148 -249.58)" fill="#407bff" style="isolation:isolate"/><path d="M105.04,254.9l37.73-2.522v-.318l-37.73,2.121Z" transform="translate(-105.04 -250.308)" fill="#407bff" style="isolation:isolate"/><path d="M143.121,251l-37.73.864v.311l37.73-.456Z" transform="translate(-105.148 -249.982)" fill="#407bff" style="isolation:isolate"/><path d="M143.272,257.534l-37.736,1.838V259.1l37.736-2.191Z" transform="translate(-105.193 -251.805)" fill="#407bff" style="isolation:isolate"/></g><g transform="translate(0.898 25.095)"><path d="M141.093,236.644l-37.956.191-.055,9.251h38.012Z" transform="translate(-103.081 -236.644)" fill="#407bff"/><rect width="37.972" height="9.442" transform="translate(38.012 9.442) rotate(180)" fill="#fff" opacity="0.6" style="isolation:isolate"/><rect width="29.146" height="9.442" fill="#fff" opacity="0.6" style="isolation:isolate"/><path d="M133.393,236.92H103.161v.961h29.582Z" transform="translate(-103.106 -236.729)" fill="#407bff" style="isolation:isolate"/><path d="M140.9,242.517l-37.736.352v.276H140.9Z" transform="translate(-103.106 -238.458)" fill="#407bff" style="isolation:isolate"/><path d="M103.161,248.017l37.736-1.838v.276l-37.736,2.191Z" transform="translate(-103.106 -239.59)" fill="#407bff" style="isolation:isolate"/><path d="M103.161,243.7l37.736.753v.27l-37.736-.394Z" transform="translate(-103.106 -238.824)" fill="#407bff" style="isolation:isolate"/></g><g transform="translate(10.77 4.557)"><rect width="37.73" height="4.754" transform="translate(0.103)" fill="#407bff"/><rect width="37.73" height="4.754" transform="translate(0.103)" fill="#fff" opacity="0.6" style="isolation:isolate"/><rect width="30.066" height="4.754" transform="translate(0.103)" fill="#fff" opacity="0.6" style="isolation:isolate"/><path d="M155.276,211.8l-37.73.187v.138h37.73Z" transform="translate(-117.424 -208.43)" fill="#407bff" style="isolation:isolate"/><path d="M117.547,208.8l37.73-.961v.145l-37.73,1.14Z" transform="translate(-117.424 -207.206)" fill="#407bff" style="isolation:isolate"/><path d="M117.369,208.853l37.73.387v.145l-37.73-.207Z" transform="translate(-117.369 -207.519)" fill="#407bff" style="isolation:isolate"/></g><g transform="translate(5.592 2.34)"><rect width="37.73" height="2.291" transform="translate(0 0.123)" fill="#407bff"/><rect width="37.73" height="2.272" transform="translate(0 0.143)" fill="#fff" opacity="0.6" style="isolation:isolate"/><rect width="30.066" height="2.414" fill="#fff" opacity="0.6" style="isolation:isolate"/><path d="M109.9,205.989l37.73-.961v.145l-37.73,1.14Z" transform="translate(-109.884 -204.12)" fill="#407bff" style="isolation:isolate"/><path d="M109.9,204.754l37.73.387v.145l-37.73-.207Z" transform="translate(-109.884 -204.036)" fill="#407bff" style="isolation:isolate"/></g><g transform="translate(9.108)"><rect width="37.73" height="2.291" transform="translate(0 0.123)" fill="#407bff"/><rect width="37.73" height="2.272" transform="translate(0 0.143)" fill="#fff" opacity="0.6" style="isolation:isolate"/><rect width="30.066" height="2.414" fill="#fff" opacity="0.6" style="isolation:isolate"/><path d="M114.989,202l37.739.459-.005.145-37.746-.28Z" transform="translate(-114.967 -200.846)" fill="#407bff" style="isolation:isolate"/><path d="M114.992,201.368l37.73.387v.145l-37.73-.207Z" transform="translate(-114.972 -200.65)" fill="#407bff" style="isolation:isolate"/></g><g transform="translate(8.081 9.311)"><rect width="37.73" height="6.122" transform="translate(0.24)" fill="#407bff"/><rect width="37.73" height="6.122" transform="translate(0.24)" fill="#fff" opacity="0.6" style="isolation:isolate"/><rect width="29.113" height="6.122" transform="translate(0.24)" fill="#fff" opacity="0.6" style="isolation:isolate"/><path d="M151.206,216.386l-37.73-.214v-.166h37.73Z" transform="translate(-113.476 -214.483)" fill="#407bff" style="isolation:isolate"/><path d="M113.853,217.675l37.73,1.106v-.166l-37.73-1.313Z" transform="translate(-113.593 -214.884)" fill="#407bff" style="isolation:isolate"/><path d="M152.54,213.812H116.953l.788.753h34.8Z" transform="translate(-114.551 -213.805)" fill="#407bff" style="isolation:isolate"/><path d="M114.041,221.018l37.73-.456V220.4l-37.73.235Z" transform="translate(-113.651 -215.842)" fill="#407bff" style="isolation:isolate"/></g></g><g transform="translate(77.85 168.867)"><path d="M157.034,254.63l10.62-44.564h0c.743.177,1.737.923,1.56,1.665l-10.3,43.22Z" transform="translate(-114.133 -210.066)" fill="#263238"/><path d="M0,0H45.812a0,0,0,0,1,0,0V0a2.306,2.306,0,0,1-2.306,2.306H2.306A2.306,2.306,0,0,1,0,0V0A0,0,0,0,1,0,0Z" transform="translate(0 44.354)" fill="#263238"/></g><g transform="translate(127.329 202.559)"><path d="M168.862,261.071V263.8a1.719,1.719,0,0,0,.505,1.22l2.193,2.192a1.708,1.708,0,0,0,.709.421,5.623,5.623,0,0,0,5.1,3.26h.821a5.627,5.627,0,0,0,5.628-5.627v-6.449H171.742v.523h-1.155A1.727,1.727,0,0,0,168.862,261.071Zm1.382,0a.344.344,0,0,1,.343-.343h1.155v4.543c0,.062.007.122.009.184l-1.406-1.406a.349.349,0,0,1-.1-.243Z" transform="translate(-167.267 -258.822)" fill="#407bff"/><path d="M185.971,277.177H168.6a3.191,3.191,0,0,1-2.046-1.023h21.463A3.191,3.191,0,0,1,185.971,277.177Z" transform="translate(-166.554 -264.177)" fill="#407bff"/></g><g transform="translate(234.725 81.083)"><g transform="translate(0 13.09)"><g transform="translate(3.108 3.228)"><rect width="89.784" height="191.928" fill="#407bff"/><rect width="89.784" height="191.928" opacity="0.5"/></g><g transform="translate(2.998 3.228)"><path d="M372.33,112.157V291.463l-45.861,7.109V106.644Z" transform="translate(-326.359 -106.644)" opacity="0.3"/><path d="M372.33,112.157l-45.861-5.513L372.33,232.692Z" transform="translate(-326.359 -106.644)" opacity="0.4"/><rect width="190.463" height="2.985" transform="matrix(0.001, -1, 1, 0.001, 0, 191.462)" opacity="0.4"/></g><path d="M321.971,101.973V297.129h3.108V105.2H414.5V297.129H417.6V101.973Z" transform="translate(-321.971 -101.973)" fill="#e03249"/></g><g transform="translate(31.277)"><rect width="34.63" height="12.399" fill="#407bff"/><rect width="34.63" height="12.399" fill="#fff" opacity="0.8"/><g transform="translate(9.098 3.224)"><path d="M380.4,93.647V87.695h4.381v1.057h-3.138v1.263h2.911V91.04h-2.911V92.59h3.276v1.057Z" transform="translate(-380.4 -87.695)" fill="#407bff"/><path d="M389.587,90.635l-1.8-2.94h1.471l1.046,1.92,1.085-1.92h1.435l-1.814,2.846,1.943,3.105h-1.485L390.3,91.6l-1.171,2.05H387.66Z" transform="translate(-382.643 -87.695)" fill="#407bff"/><path d="M396.262,87.695h1.243v5.952h-1.243Z" transform="translate(-385.301 -87.695)" fill="#407bff"/><path d="M400.8,88.752H399V87.695h4.839v1.057h-1.8v4.9H400.8Z" transform="translate(-386.146 -87.695)" fill="#407bff"/></g></g></g><g transform="translate(170.742 114.898)"><path d="M357.743,166.982c-2.518,2.466-4.538,5.532-1.023,9.262,0,0,2.016,5.725-5.568.728-6.879-4.533-5.942-8.312-5.942-8.312,4.135-.817,7.643-8.24,9.234-12.5Z" transform="translate(-265.156 -139.439)" fill="#ff8b7b"/><path d="M381.711,160.965c.283.148.351.635.141,1.072s-.607.672-.893.53-.347-.617-.139-1.063C381.039,161.042,381.428,160.817,381.711,160.965Z" transform="translate(-276.133 -140.911)" fill="#263238"/><path d="M377.533,166.346a2.782,2.782,0,0,0,2.269.672,18.286,18.286,0,0,1-.3-4.86Z" transform="translate(-275.156 -141.293)" fill="#a02724"/><g transform="translate(87.446 2.037)"><path d="M361.94,142.846a7.94,7.94,0,0,1,11.18,1.045c4.223,4.85,1.165,13.3-2.273,17.6A7.843,7.843,0,0,1,357.17,159.1c-1.4-4.175.187-7.334,2.41-12.946A7.94,7.94,0,0,1,361.94,142.846Z" transform="translate(-356.147 -136.799)" fill="#ff8b7b"/><g transform="translate(0 2.792)"><path d="M361.589,156.713a7.29,7.29,0,0,1-5.278-2.872c-1.069-1.372.1-9.213,3.246-12.317,3.034-2.989,5.556-3.245,9.832-1.422s6.945,6.223,6.148,8.153-5.173,5.952-6.455,5.8C367.6,151.656,363.315,156.77,361.589,156.713Z" transform="translate(-355.926 -138.953)" fill="#263238"/><path d="M361.589,156.713a7.29,7.29,0,0,1-5.278-2.872c-1.069-1.372.1-9.213,3.246-12.317,3.034-2.989,5.556-3.245,9.832-1.422s6.945,6.223,6.148,8.153-5.173,5.952-6.455,5.8C367.6,151.656,363.315,156.77,361.589,156.713Z" transform="translate(-355.926 -138.953)" fill="#fff" opacity="0.2"/></g><path d="M362.712,142.131c-3.861-.99-2.217-6.231,1.351-7.1,2.889-.707,8.21,1.759,10.6,3.791s2.613,0,2.613,0a5.611,5.611,0,0,1,3.269,5.13c-.034,3.776-3.766,5.574-5.558,4.237C374.986,148.191,366.573,143.121,362.712,142.131Z" transform="translate(-357.337 -134.912)" fill="#263238"/><path d="M374.851,156.447c.982,1.681-.468,4.081-1.78,5.213-1.456,1.254-3.412,1.076-3.65-.922a6.021,6.021,0,0,1,1.17-4.286C371.736,154.962,373.869,154.767,374.851,156.447Z" transform="translate(-360.084 -141.199)" fill="#ff8b7b"/><path d="M380.694,157.441a2.388,2.388,0,0,1,2.12.06.285.285,0,1,0,.308-.48,2.954,2.954,0,0,0-2.654-.11h0a.3.3,0,0,0-.017.523A.3.3,0,0,0,380.694,157.441Z" transform="translate(-363.456 -141.628)" fill="#263238"/></g><g transform="translate(88.664)"><g transform="translate(4.094)"><path d="M367.879,140.122l-.306-.158a5.28,5.28,0,0,0-3.959-7.658l.048-.342a5.625,5.625,0,0,1,4.217,8.158Z" transform="translate(-363.614 -131.964)" fill="#263238"/></g><g transform="translate(10.032 0.207)"><path d="M372.347,141.268l-.14-.316A5.28,5.28,0,0,0,373.9,132.5l.252-.238a5.626,5.626,0,0,1-1.8,9.005Z" transform="translate(-372.207 -132.263)" fill="#263238"/></g><g transform="translate(0 4.338)"><path d="M361.454,139.191a3.7,3.7,0,0,0-3.612-.236l-.153-.309a3.994,3.994,0,0,1,3.958.258Z" transform="translate(-357.689 -138.241)" fill="#263238"/></g><g transform="translate(20.026 9.267)"><path d="M386.847,147l-.177-.3a9.61,9.61,0,0,1,4.5-1.331l.013.346A9.247,9.247,0,0,0,386.847,147Z" transform="translate(-386.67 -145.375)" fill="#263238"/></g><g transform="translate(6.595 1.463)"><path d="M378.63,140.9a1.274,1.274,0,0,1-.793-.273,3.179,3.179,0,0,1-.654-.8l-.04-.061c-.332-.511-3.341-5-6.6-5.322a3.668,3.668,0,0,0-3.06,1.236l-.247-.242a4,4,0,0,1,3.341-1.338c3.423.339,6.517,4.952,6.859,5.477l.041.062a2.878,2.878,0,0,0,.578.717.941.941,0,0,0,.832.164.9.9,0,0,0,.589-.419,1.384,1.384,0,0,0-.009-1.025,2.785,2.785,0,0,0-.822-1.052l.235-.254a3.083,3.083,0,0,1,.914,1.195,1.717,1.717,0,0,1-.012,1.3,1.227,1.227,0,0,1-.8.589A1.321,1.321,0,0,1,378.63,140.9Z" transform="translate(-367.233 -134.081)" fill="#263238"/></g><path d="M381.483,152.682a.164.164,0,0,1,.24-.223,2.74,2.74,0,0,0,2.79.565,4.543,4.543,0,0,0,3.185-3.6.164.164,0,1,1,.322.065,4.9,4.9,0,0,1-3.419,3.845,3.285,3.285,0,0,1-2.693-.3A2.285,2.285,0,0,1,381.483,152.682Z" transform="translate(-365.029 -137.319)" fill="#263238"/></g><g transform="translate(0 26.042)"><path d="M351.921,227.2c2.83,2.253,6.63,3.45,8.787,6.355,1.1,1.479,5.626,3.841,7.386,4.691a1.615,1.615,0,0,0,1.361.023c1.031-.455,2.991-1.316,3.82-1.658a.32.32,0,0,0,.133-.487l-1.365-1.855-3.559.247c.334-1.717.905-3.829-1.043-3.96a7.63,7.63,0,0,1-4.094-.968c-8.8-5.516-15.3-18.8-17.277-29-.48-2.483-.838-5.081-2.22-7.2s-4.172-3.58-6.482-2.551C330.738,193.795,345.584,222.157,351.921,227.2Z" transform="translate(-262.23 -176.094)" fill="#ff8b7b"/><g transform="translate(0 47.955)"><g transform="translate(22.49)"><path d="M297.124,311.594c-6.192,5.018-35.2,20.564-35.2,20.564l4.068,7.649s24.53-6.784,37-15.6Z" transform="translate(-261.926 -261.463)" fill="#e03249"/><path d="M316.479,301.831a45.134,45.134,0,0,0,3.94-8,69.609,69.609,0,0,0,2.817-9.49c.105-.453.2-.923.3-1.4.037-.183.073-.36.111-.549a85.853,85.853,0,0,0,1.611-12.778l.9-7.521L328.1,245.85c-8.169-3.412-14.881-6.8-14.881-6.8a20.948,20.948,0,0,0-5.155,12.32c-.4,9.935,1.29,35.319-1.821,41.031Z" transform="translate(-275.62 -239.048)" fill="#e03249"/><path d="M306.247,316.255l10.232,9.432Z" transform="translate(-275.62 -262.904)" fill="#e03249"/></g><g transform="translate(0 68.792)"><path d="M257.851,340.509l-11.717,5.052s-.136,5.3,1.988,4.9c2.889-.547,12.254-2.378,12.254-2.378S261.816,349.634,257.851,340.509Z" transform="translate(-234.556 -339.19)" fill="#ff8b7b"/><g transform="translate(10.265 12.688)"><path d="M244.487,359.018a10.26,10.26,0,0,1-.252-1.828.131.131,0,0,1,.086-.138.135.135,0,0,1,.153.036c.2.228,1.949,2.226,1.734,3.005a.439.439,0,0,1-.3.309.785.785,0,0,1-.715-.092A2.241,2.241,0,0,1,244.487,359.018Zm.053-1.433a3.93,3.93,0,0,0,.787,2.5.51.51,0,0,0,.477.057.159.159,0,0,0,.119-.115C246.058,359.591,245.228,358.417,244.54,357.585Z" transform="translate(-244.234 -356.986)" fill="#e03249"/><path d="M244.237,357.19a.18.18,0,0,1,0-.086.149.149,0,0,1,.109-.086c.1-.032,2.478-.346,2.811.92l.035.111c.058.37-.1.524-.242.587-.616.265-2.189-.793-2.678-1.4Zm2.658.826c-.206-.822-1.629-.782-2.235-.753.6.6,1.8,1.283,2.171,1.122,0,0,.123-.039.083-.291Z" transform="translate(-244.234 -356.961)" fill="#e03249"/></g><path d="M256.053,342.964l2.255,6.47,4.926-1.111-3.9-6.775Z" transform="translate(-237.621 -339.511)" opacity="0.2"/><path d="M242.479,346.057c-.948-.9-.628-.3-2.283-1.6-.8-.627-3.222-1.206-4.078-.717-1.329.759-1.736,2.324-3.076,4.626a38.834,38.834,0,0,0-3.627,10.383,1.969,1.969,0,0,0,1.409,2.281c.234.056.438.1.6.122a.726.726,0,0,0,.694-.272c1.922-2.486,2.317-2.742,4.18-5.008s6.341-3.779,6.341-3.779Z" transform="translate(-229.379 -340.131)" fill="#263238"/><g transform="translate(20.01)"><path d="M265.569,349.117c.025.035-3.428.835-3.428.835l-3.8-9.941,2.779-1.412Z" transform="translate(-258.337 -338.6)" fill="#e03249"/><g opacity="0.7"><path d="M265.569,349.117c.025.035-3.428.835-3.428.835l-3.8-9.941,2.779-1.412Z" transform="translate(-258.337 -338.6)" fill="#fff"/></g></g></g></g><g transform="translate(57.148 51.031)"><path d="M408.5,346.53l7.925,12.793s5.535-1.7,4.713-3.906c-.508-1.36-2.407-6-3.777-9.68a3.318,3.318,0,0,0-2.527-2.378C413.287,343.322,411.59,344.5,408.5,346.53Z" transform="translate(-341.872 -274.354)" fill="#ff8b7b"/><g transform="translate(82.012 79.481)"><path d="M433.156,361.023a10.289,10.289,0,0,1-1.73.644.13.13,0,0,1-.153-.055.135.135,0,0,1,0-.158c.178-.246,1.749-2.386,2.555-2.347a.437.437,0,0,1,.368.229.781.781,0,0,1,.066.717A2.238,2.238,0,0,1,433.156,361.023Zm-1.41.26a3.937,3.937,0,0,0,2.27-1.312.514.514,0,0,0-.048-.478.162.162,0,0,0-.138-.091C433.374,359.365,432.407,360.43,431.746,361.282Z" transform="translate(-430.914 -358.701)" fill="#e03249"/><path d="M431.289,361.658a.175.175,0,0,1-.084.013.149.149,0,0,1-.108-.087c-.053-.091-.877-2.343.286-2.944l.1-.059c.348-.138.533-.016.626.109.392.543-.3,2.309-.786,2.919Zm.228-2.775c-.757.38-.408,1.761-.248,2.345.454-.719.86-2.037.623-2.363,0,0-.065-.112-.3-.017Z" transform="translate(-430.764 -358.52)" fill="#e03249"/></g><path d="M418.755,364.341c.055,1.05.963,2.459,1.213,4.13.12.809.773,2.088,1.542,2.276,1.194.291,2.349.081,4.4-.521,2.68-.786,9.456-4.619,11.17-5.847a1.582,1.582,0,0,0,.438-2.109c-.106-.162-.2-.3-.283-.4a.582.582,0,0,0-.555-.224c-2.5.389-2.867.32-5.206.613s-6.793-1.7-6.793-1.7Z" transform="translate(-345.041 -279.667)" fill="#263238"/><path d="M412.846,353.086l1.826,2.948,5.829-3.986L419.26,348.7Z" transform="translate(-343.216 -276.004)" opacity="0.2"/><path d="M330.947,243.5l-18.866,9.513a36.88,36.88,0,0,0,3.089,7.91c6.622,10.99,14.057,5.776,19.767,9.832,12.657,8.995,21.965,13.58,24.619,16.656,2.086,2.417,23.119,34.672,23.119,34.672l6.229-4.154s-9.612-28.82-17.182-38.767S330.947,243.5,330.947,243.5Z" transform="translate(-312.081 -243.499)" fill="#e03249"/><path d="M325.769,291.238a94.892,94.892,0,0,0,2.041-14.228c.175-2.625.216-5.382-.948-7.741a12.786,12.786,0,0,0-4.226-4.536c-1.859-1.327-9.6-6-7.967-1.911C316.036,266.24,325.505,292.421,325.769,291.238Z" transform="translate(-312.811 -248.961)" opacity="0.2"/><path d="M330.947,243.5l-18.866,9.513a36.88,36.88,0,0,0,3.089,7.91c6.622,10.99,14.057,5.776,19.767,9.832,12.657,8.995,21.965,13.58,24.619,16.656,2.086,2.417,23.119,34.672,23.119,34.672l6.229-4.154s-9.612-28.82-17.182-38.767S330.947,243.5,330.947,243.5Z" transform="translate(-312.081 -243.499)" fill="#e03249"/><g transform="translate(67.399 70.473)"><path d="M418.911,345.484c.029-.032,1.389,3.1,1.389,3.1l-8.7,5.948-1.984-2.4Z" transform="translate(-409.617 -345.484)" fill="#e03249"/><path d="M418.911,345.484c.029-.032,1.389,3.1,1.389,3.1l-8.7,5.948-1.984-2.4Z" transform="translate(-409.617 -345.484)" fill="#fff" opacity="0.7"/></g></g><g transform="translate(102.497 52.853)"><circle cx="3.564" cy="3.564" r="3.564" transform="matrix(0.758, -0.652, 0.652, 0.758, 0, 4.647)" fill="#e03249"/><path d="M383.656,248.265a3.562,3.562,0,1,0,3.282,3.821A3.557,3.557,0,0,0,383.656,248.265Zm-.159,4.941a1.233,1.233,0,1,1,1.23-1.237A1.23,1.23,0,0,1,383.5,253.206Z" transform="translate(-378.361 -246.79)" fill="#fff" opacity="0.7"/></g><g transform="translate(52.736 2.233)"><g transform="translate(0.013)"><path d="M340.151,208.578a73.859,73.859,0,0,0-1.649,14.311l1.089,4.6-1.439.183-.221-1.031-.488-2.248-.484,2.087-.3,1.3a62.218,62.218,0,0,1-8.183-.213c-7.075-.657-22.763-3.686-22.763-3.686s2.271-8.756,4.147-10.485c1.034-4.541,2.412-10.743,3.975-18.063a58.383,58.383,0,0,1,6.32-17.223,10.526,10.526,0,0,1,8.971-5.22,44.871,44.871,0,0,1,7.661.491c6.276,1.031,12.654,4.588,13.388,6.207C351.63,182.768,342.047,200.807,340.151,208.578Z" transform="translate(-305.715 -172.882)" fill="#e03249"/><path d="M351.9,249.669l-.972-.161.484-2.087Z" transform="translate(-319.685 -195.913)" fill="#e03249"/></g><path d="M340.132,208.594a73.854,73.854,0,0,0-1.648,14.311l1.089,4.6-1.44.183-.22-1.031-.488-2.248-.484,2.087-.3,1.3a62.232,62.232,0,0,1-8.184-.213c-7.075-.657-22.763-3.686-22.763-3.686s2.271-8.756,4.147-10.485c1.035-4.541,2.413-10.744,3.976-18.064a59.545,59.545,0,0,1,5.873-16.434,11.708,11.708,0,0,1,10.275-6.013,42.964,42.964,0,0,1,6.8.5c6.277,1.03,12.653,4.588,13.388,6.207C351.611,182.783,342.029,200.822,340.132,208.594Z" transform="translate(-305.696 -172.886)" fill="#fff" opacity="0.8"/></g><path d="M341.8,171.89l2.73-1.743a3.168,3.168,0,0,1,2.166-.463c1.76.257,5.283.586,8.157,2.014a2.927,2.927,0,0,1,1.826,3.545S351.688,172.646,341.8,171.89Z" transform="translate(-264.114 -169.65)" fill="#e03249"/></g><g transform="translate(64.591 46.218)"><g transform="translate(12.318)"><path d="M354.008,204.078l-2.763.064-.023-1a1.675,1.675,0,0,0-.453-1.133,1.2,1.2,0,0,0-.9-.392l-5.149.12a1.23,1.23,0,0,0-.88.433,1.683,1.683,0,0,0-.4,1.153l.023,1-2.763.064-.023-1a4.44,4.44,0,0,1,1.083-3.038,3.952,3.952,0,0,1,2.894-1.376l5.149-.12a3.939,3.939,0,0,1,2.955,1.239,4.433,4.433,0,0,1,1.224,2.984Z" transform="translate(-340.678 -198.848)" fill="#263238"/></g><g transform="translate(12.318)" opacity="0.2"><path d="M354.008,204.078l-2.763.064-.023-1a1.675,1.675,0,0,0-.453-1.133,1.2,1.2,0,0,0-.9-.392l-5.149.12a1.23,1.23,0,0,0-.88.433,1.683,1.683,0,0,0-.4,1.153l.023,1-2.763.064-.023-1a4.44,4.44,0,0,1,1.083-3.038,3.952,3.952,0,0,1,2.894-1.376l5.149-.12a3.939,3.939,0,0,1,2.955,1.239,4.433,4.433,0,0,1,1.224,2.984Z" transform="translate(-340.678 -198.848)" fill="#fff"/></g><path d="M323.851,207.232l-1,24.269,5.164-.121-2.545-24.186Z" transform="translate(-322.852 -201.427)" fill="#263238"/><path d="M361.268,230.271l-2.125.049-3.038.072-31.244.726-.566-24.232,32.808-.763,1.474-.035.145-.005Z" transform="translate(-323.298 -201.084)" fill="#263238"/><path d="M361.268,230.271l-2.125.049-3.038.072-31.244.726-.566-24.232,32.808-.763,1.474-.035.145-.005Z" transform="translate(-323.298 -201.084)" fill="#fff" opacity="0.2"/><path d="M323.851,207.232l-1,24.269,5.164-.121-2.545-24.186Z" transform="translate(-322.852 -201.427)" fill="#fff" opacity="0.2"/><g transform="translate(1.829 5.772)"><line x2="0.413" y2="24.236" transform="translate(0.341 0.006)" fill="none"/><rect width="0.691" height="24.24" transform="translate(0 0.011) rotate(-0.951)" fill="#263238"/></g></g><g transform="translate(77.255 32.894)"><g transform="translate(0.487 0.746)"><path d="M352.829,182.323c-1.392,2.694-5.562,13.914-9.368,24.206a3.276,3.276,0,0,0,2.264,4.312l4.223.7c4.472-9.926,8.037-18.3,11.986-26.764C358.693,182.951,355.009,178.107,352.829,182.323Z" transform="translate(-342.307 -180.647)" fill="#ff8b7b"/><path d="M349.63,225.027c1.715,10.159,2.365,19.395,3.723,28.133l-4.478.187c-.173-3.295-2.584-9.072-3.887-14.83-.471-2.08-1.5-4.076-2.254-7.209a5.893,5.893,0,0,1,3.365-6.288Z" transform="translate(-342.112 -194.357)" fill="#ff8b7b"/><g transform="translate(2.483 57.913)"><path d="M353.823,264.47c-4.277-.339-4.622,5.561-4.622,5.561l5.234,3.193.931-7.863Z" transform="translate(-346.627 -264.456)" fill="#ff8b7b"/><path d="M353.284,275.717l-5.233-3.193-2.574,4.08,3.215,2.831Z" transform="translate(-345.476 -266.949)" fill="#ff8b7b"/></g><path d="M350.755,218.705l-6.4-5.972s-4.926,10.345-.862,16.441c3.474,5.21,5.551-4.709,5.551-4.709l.812-3.172Z" transform="translate(-341.883 -190.561)" fill="#ff8b7b"/></g><path d="M349.643,189.447a2.2,2.2,0,0,0-.486-1.529.861.861,0,0,0-1.238.075l.179-.485-5.078,9.382a2.389,2.389,0,0,0-.37,2.182c.227.421-.057,1.428.281,1.766,1.014,1.011-2.379,3.238-1.647,12.291C346.8,204.794,349.953,195.976,349.643,189.447Z" transform="translate(-341.178 -182.021)" fill="#263238" opacity="0.5"/><g transform="translate(4.485)"><path d="M357.83,179.656a12.354,12.354,0,0,0-5.761,2.98,7.456,7.456,0,0,0-1.838,2,8.461,8.461,0,0,0-.808,3.425c-.189,2.057-1.565,7.294-1.754,9.352a29.572,29.572,0,0,0,9.9,3.728,1.746,1.746,0,0,0,1.287-.107c.67-.449,3.423-9.589,4.466-11.666C365.542,184.941,363.619,178.749,357.83,179.656Z" transform="translate(-347.669 -179.567)" fill="#e03249"/><path d="M357.83,179.656a12.354,12.354,0,0,0-5.761,2.98,7.456,7.456,0,0,0-1.838,2,8.461,8.461,0,0,0-.808,3.425c-.189,2.057-1.565,7.294-1.754,9.352a29.572,29.572,0,0,0,9.9,3.728,1.746,1.746,0,0,0,1.287-.107c.67-.449,3.423-9.589,4.466-11.666C365.542,184.941,363.619,178.749,357.83,179.656Z" transform="translate(-347.669 -179.567)" fill="#fff" opacity="0.8"/></g></g></g></g></svg>