<svg xmlns="http://www.w3.org/2000/svg" width="202.001" height="209.355" viewBox="0 0 202.001 209.355"><g transform="translate(-37.381 -34.802)"><g transform="translate(41.599 46.698)"><g transform="translate(152.813 77.362)"><g transform="translate(0)"><g transform="translate(0.04 0.104)"><path d="M370.5,232.944a10.3,10.3,0,0,1,1.009-2.549l-1.391-2.127,2.924-3.021,2.171,1.321a10.284,10.284,0,0,1,2.514-1.091l.521-2.486,4.2-.068.6,2.468a10.307,10.307,0,0,1,2.549,1.008l2.127-1.39,3.021,2.924-1.321,2.171a10.281,10.281,0,0,1,1.091,2.514l2.487.521.068,4.2-2.468.6a10.3,10.3,0,0,1-1.009,2.549l1.39,2.127-2.924,3.021-2.171-1.321a10.3,10.3,0,0,1-2.514,1.091l-.521,2.486-4.2.069-.6-2.468a10.312,10.312,0,0,1-2.549-1.008l-2.127,1.39-3.021-2.924,1.321-2.172a10.29,10.29,0,0,1-1.091-2.514l-2.487-.521-.068-4.2,2.468-.6Zm5.541,2.382a4.51,4.51,0,1,0,4.436-4.583A4.51,4.51,0,0,0,376.045,235.326Z" transform="translate(-368.036 -222.922)" fill="none"/></g><g transform="translate(8.034 7.822)"><path d="M384.88,243.856a3.418,3.418,0,0,1,.076-1.114,4.488,4.488,0,0,1,1.592-2.568,4.542,4.542,0,0,1,1.916-.908,4.609,4.609,0,0,1,2.429.148,4.611,4.611,0,0,1,2.18,1.57,4.6,4.6,0,0,1,.09,5.474,4.618,4.618,0,0,1-2.129,1.641,4.606,4.606,0,0,1-2.423.228,4.538,4.538,0,0,1-1.945-.845,4.486,4.486,0,0,1-1.675-2.515,3.428,3.428,0,0,1-.113-1.111,10.83,10.83,0,0,0,.206,1.086,4.5,4.5,0,0,0,1.685,2.4,4.409,4.409,0,0,0,4.183.545,4.412,4.412,0,0,0,2.012-1.568,4.377,4.377,0,0,0-.085-5.187,4.417,4.417,0,0,0-2.062-1.5,4.412,4.412,0,0,0-4.163.682,4.5,4.5,0,0,0-1.607,2.453A10.769,10.769,0,0,0,384.88,243.856Z" transform="translate(-384.865 -239.17)" fill="#e0e0e0"/></g><path d="M370.46,232.829a1.034,1.034,0,0,1-.152.047l-.465.123-1.842.47.03-.039c.024,1.076.055,2.492.092,4.2l-.049-.06,2.488.511.043.009.012.042a10.29,10.29,0,0,0,1.09,2.492l.026.042-.026.042-1.314,2.176-.014-.109,3.027,2.917-.121-.011,2.124-1.394.052-.034.054.03a10.245,10.245,0,0,0,2.525.994l.062.015.016.063c.188.764.394,1.608.6,2.467l-.109-.084,4.2-.074-.111.092.518-2.487.015-.07.068-.02a10.228,10.228,0,0,0,2.485-1.08l.062-.038.062.038,2.172,1.319-.15.019,2.923-3.022-.015.153-1.391-2.127-.041-.062.037-.066a10.2,10.2,0,0,0,1-2.516v0l.019-.073.072-.018,2.468-.6-.095.122q-.034-2.128-.067-4.2l.1.118-2.486-.522-.072-.015-.02-.071a10.191,10.191,0,0,0-1.077-2.486l-.037-.062.038-.062,1.322-2.17.019.146-3.018-2.927.142.013-2.129,1.388-.057.037-.058-.033a10.214,10.214,0,0,0-2.521-1l-.063-.016-.015-.063c-.205-.846-.4-1.667-.6-2.468l.1.078-4.2.06.091-.075-.527,2.485-.011.053-.052.015a10.254,10.254,0,0,0-2.5,1.075l-.042.026-.042-.026-2.167-1.327.091-.012-2.937,3.009.007-.069,1.378,2.136.013.02-.011.021a10.669,10.669,0,0,0-.838,1.882c-.066.21-.116.37-.153.487s-.052.161-.052.161.009-.059.032-.166.067-.276.134-.494a9.97,9.97,0,0,1,.808-1.908v.041l-1.4-2.119-.025-.037.031-.032,2.911-3.033.04-.042.05.03,2.176,1.313h-.084a10.388,10.388,0,0,1,2.532-1.107l-.062.067c.164-.792.333-1.613.515-2.488l.015-.074h.076l4.2-.076h.082l.019.08.605,2.466-.078-.078a10.422,10.422,0,0,1,2.577,1.016l-.114,0,2.125-1.393.076-.05.066.063,3.024,2.921.068.066-.049.081-1.319,2.172v-.124a10.4,10.4,0,0,1,1.1,2.543l-.092-.086,2.487.52.1.02,0,.1q.034,2.073.069,4.2l0,.1-.1.023-2.468.6.091-.09v0a10.426,10.426,0,0,1-1.02,2.577l0-.128,1.39,2.127.054.083-.068.07-2.926,3.02-.067.07-.083-.05-2.17-1.322h.124a10.466,10.466,0,0,1-2.544,1.1l.083-.089c-.181.862-.361,1.712-.523,2.486l-.019.09h-.092l-4.2.064h-.088l-.021-.085c-.208-.86-.412-1.7-.6-2.469l.078.078a10.436,10.436,0,0,1-2.573-1.023l.105,0-2.13,1.386-.066.043-.056-.054-3.015-2.93-.05-.049.037-.06,1.326-2.168v.084a10.38,10.38,0,0,1-1.091-2.537l.055.051-2.484-.531-.049-.01v-.05c-.019-1.712-.034-3.128-.045-4.2V233.4l.03-.007,1.836-.426.475-.106A1.393,1.393,0,0,1,370.46,232.829Z" transform="translate(-367.952 -222.703)" fill="#e0e0e0"/></g></g><g transform="translate(29.611 64.686)"><path d="M111.358,207.226a11.5,11.5,0,0,1,1.128-2.851L110.93,202l3.271-3.378,2.428,1.476a11.508,11.508,0,0,1,2.812-1.22l.583-2.781,4.7-.076.673,2.76a11.511,11.511,0,0,1,2.851,1.128l2.379-1.555,3.379,3.271-1.477,2.428a11.511,11.511,0,0,1,1.22,2.813l2.781.582.077,4.7-2.76.673a11.525,11.525,0,0,1-1.128,2.851l1.555,2.379L131,221.427l-2.429-1.477a11.517,11.517,0,0,1-2.812,1.22l-.582,2.781-4.7.077-.673-2.76a11.509,11.509,0,0,1-2.851-1.128l-2.379,1.555-3.379-3.271L112.675,216a11.508,11.508,0,0,1-1.22-2.812l-2.781-.582-.077-4.7,2.761-.673Zm6.2,2.664a5.045,5.045,0,1,0,4.962-5.126A5.045,5.045,0,0,0,117.555,209.891Z" transform="translate(-108.597 -196.017)" fill="#e0e0e0" fill-rule="evenodd"/></g><g transform="translate(139.91 60.51)"><g transform="translate(0)"><path d="M341.587,190.463a3.332,3.332,0,0,1,.325-.823l-.449-.687.944-.975.7.427a3.313,3.313,0,0,1,.812-.352l.168-.8,1.357-.022.194.8a3.308,3.308,0,0,1,.823.326l.687-.449.975.944-.426.7a3.338,3.338,0,0,1,.352.812l.8.168.022,1.358-.8.194a3.328,3.328,0,0,1-.325.823l.449.687-.944.975-.7-.426a3.311,3.311,0,0,1-.812.352l-.168.8-1.357.022-.194-.8a3.325,3.325,0,0,1-.823-.326l-.687.449-.975-.944.426-.7a3.329,3.329,0,0,1-.352-.812l-.8-.168-.022-1.357.8-.194Zm1.789.769a1.456,1.456,0,1,0,1.433-1.48A1.457,1.457,0,0,0,343.376,191.232Z" transform="translate(-340.79 -187.227)" fill="#e0e0e0" fill-rule="evenodd"/></g></g><g transform="translate(0 73.32)"><path d="M47.364,218.673a4.61,4.61,0,0,1,.451-1.139l-.621-.951,1.307-1.351.97.59a4.6,4.6,0,0,1,1.124-.487l.233-1.112,1.879-.03.269,1.1a4.592,4.592,0,0,1,1.139.451l.951-.621,1.35,1.307-.59.97a4.607,4.607,0,0,1,.487,1.124l1.112.233.03,1.879-1.1.269a4.592,4.592,0,0,1-.451,1.139l.621.951-1.307,1.351-.97-.59a4.6,4.6,0,0,1-1.124.487l-.233,1.112-1.879.03-.269-1.1a4.591,4.591,0,0,1-1.139-.451l-.951.621-1.35-1.307.59-.97a4.617,4.617,0,0,1-.487-1.124l-1.112-.233-.03-1.879,1.1-.269Zm2.477,1.065a2.016,2.016,0,1,0,1.983-2.049A2.016,2.016,0,0,0,49.841,219.738Z" transform="translate(-46.261 -214.193)" fill="#ebebeb" fill-rule="evenodd"/></g><g transform="translate(169.475 37.284)"><path d="M405.552,148.587a10.547,10.547,0,0,1,1.031-2.607l-1.422-2.176,2.991-3.091,2.221,1.351a10.528,10.528,0,0,1,2.573-1.116l.533-2.544,4.3-.069.615,2.524A10.523,10.523,0,0,1,421,141.89l2.176-1.422,3.091,2.991-1.351,2.221a10.527,10.527,0,0,1,1.116,2.573l2.544.533.07,4.3-2.525.616a10.525,10.525,0,0,1-1.032,2.607l1.423,2.176-2.992,3.091-2.222-1.351a10.517,10.517,0,0,1-2.572,1.116l-.533,2.544-4.3.07-.615-2.524a10.545,10.545,0,0,1-2.608-1.032L408.5,161.82l-3.091-2.991,1.351-2.222a10.523,10.523,0,0,1-1.116-2.572L403.1,153.5l-.07-4.3,2.525-.616Zm5.669,2.437a4.614,4.614,0,1,0,4.538-4.689A4.614,4.614,0,0,0,411.221,151.024Z" transform="translate(-403.027 -138.334)" fill="#ebebeb" fill-rule="evenodd"/></g><g transform="translate(5.638 109.944)"><path d="M60.416,300.573a9.536,9.536,0,0,1,.933-2.36l-1.287-1.97,2.708-2.8,2.011,1.223a9.523,9.523,0,0,1,2.329-1.01l.482-2.3,3.893-.063.557,2.285a9.553,9.553,0,0,1,2.361.934l1.97-1.288,2.8,2.708-1.223,2.011a9.543,9.543,0,0,1,1.01,2.329l2.3.482.064,3.893-2.286.557a9.5,9.5,0,0,1-.934,2.36l1.288,1.97-2.708,2.8-2.011-1.223a9.546,9.546,0,0,1-2.329,1.01l-.483,2.3-3.893.064-.557-2.285a9.552,9.552,0,0,1-2.36-.934l-1.97,1.288-2.8-2.708,1.223-2.011A9.546,9.546,0,0,1,60.5,305.5l-2.3-.482-.063-3.893,2.286-.557Zm5.132,2.206a4.177,4.177,0,1,0,4.108-4.244A4.177,4.177,0,0,0,65.548,302.779Z" transform="translate(-58.13 -291.291)" fill="#f5f5f5" fill-rule="evenodd"/></g><g transform="translate(88.608 34.641)"><path d="M233.787,136.811a4.15,4.15,0,0,1,.407-1.028l-.561-.858,1.179-1.218.875.533a4.163,4.163,0,0,1,1.014-.44l.21-1,1.7-.028.243,1a4.166,4.166,0,0,1,1.028.407l.858-.561,1.218,1.18-.533.875a4.156,4.156,0,0,1,.44,1.014l1,.21.028,1.695-1,.243a4.157,4.157,0,0,1-.407,1.028l.561.858-1.179,1.218L240,141.4a4.163,4.163,0,0,1-1.014.44l-.21,1-1.7.028-.243-1a4.146,4.146,0,0,1-1.028-.407l-.857.561-1.218-1.179.533-.875a4.156,4.156,0,0,1-.44-1.014l-1-.21-.028-1.7,1-.242Zm2.235.96a1.819,1.819,0,1,0,1.789-1.848A1.819,1.819,0,0,0,236.022,137.772Z" transform="translate(-232.792 -132.769)" fill="#f5f5f5" fill-rule="evenodd"/></g><g transform="translate(153.993 128.446)"><g transform="translate(20.964 27.772)"><path d="M417.129,389.758a11.319,11.319,0,0,1,7.023-.854,5.835,5.835,0,0,1,3.469,1.549,2.5,2.5,0,0,1,.036,3.464,3.323,3.323,0,0,1-2.187.555c-1.856-.021-3.916-.349-5.4.769-.846.637-1.409,1.7-2.421,2.01a2.392,2.392,0,0,1-2.632-1.171,4.088,4.088,0,0,1-.3-3.017A4.606,4.606,0,0,1,417.129,389.758Z" transform="translate(-414.567 -388.706)" fill="#ebebeb"/></g><g transform="translate(17.398)"><path d="M408.294,349.617c1.306,1.866,3.845,1.248,5.022.109a9.484,9.484,0,0,0,2.128-4.363c1.035-3.6,2.078-7.368,1.309-11.031a6.129,6.129,0,0,0-1.409-3,3.2,3.2,0,0,0-3.034-1.009c-1.28.338-2.075,1.592-2.651,2.785a26.288,26.288,0,0,0-2.6,11.284,9.113,9.113,0,0,0,1.233,5.224" transform="translate(-407.061 -330.242)" fill="#ebebeb"/></g><g transform="translate(0 6.003)"><path d="M385.48,358.929a6.788,6.788,0,0,0,1.056-6.247,12.039,12.039,0,0,0-3.7-5.367,19.925,19.925,0,0,0-6.626-3.909,7.066,7.066,0,0,0-2.98-.506,3.127,3.127,0,0,0-2.5,1.513c-.7,1.33-.028,2.943.694,4.259a50.517,50.517,0,0,0,4.352,6.627,11.782,11.782,0,0,0,4.786,4.1c1.988.76,4.053.67,5.107-.708" transform="translate(-370.436 -342.879)" fill="#ebebeb"/></g><g transform="translate(18.519 30.363)"><path d="M409.444,411.316a4.072,4.072,0,0,0,.118-.848c.06-.617.135-1.391.225-2.313a33.506,33.506,0,0,1,.521-3.394,26.151,26.151,0,0,1,1.234-4,14.749,14.749,0,0,1,2.045-3.624,7.644,7.644,0,0,1,2.586-2.15,7.24,7.24,0,0,1,2.178-.678,4.1,4.1,0,0,0,.844-.122,3.968,3.968,0,0,0-.859-.013,6.594,6.594,0,0,0-2.271.591,7.623,7.623,0,0,0-2.728,2.168,14.431,14.431,0,0,0-2.12,3.7,24.55,24.55,0,0,0-1.225,4.071,28.76,28.76,0,0,0-.451,3.437c-.073.982-.1,1.778-.115,2.328A3.963,3.963,0,0,0,409.444,411.316Z" transform="translate(-409.42 -394.16)" fill="#e0e0e0"/></g><g transform="translate(18.519 7.496)"><path d="M409.6,384.265a1.674,1.674,0,0,0,.023-.394c0-.3,0-.668,0-1.125,0-.976,0-2.389.05-4.133.086-3.489.387-7.244.967-12.537.55-4.978,1.287-10.771,2.065-14.538.167-.856.335-1.627.494-2.3s.28-1.26.4-1.732l.263-1.094a1.713,1.713,0,0,0,.069-.388,1.647,1.647,0,0,0-.137.369l-.327,1.078c-.145.467-.293,1.047-.463,1.721s-.362,1.441-.545,2.3a127.636,127.636,0,0,0-2.171,13.489c-.581,5.3-.844,10.135-.866,13.632-.021,1.749.016,3.165.061,4.141l.069,1.124A1.681,1.681,0,0,0,409.6,384.265Z" transform="translate(-409.42 -346.022)" fill="#e0e0e0"/></g><g transform="translate(6.263 10.345)"><path d="M396.083,378.1a7.448,7.448,0,0,0-.008-1.175c-.043-.755-.147-1.846-.36-3.183a42.006,42.006,0,0,0-1.036-4.639,38.012,38.012,0,0,0-1.94-5.489,29.235,29.235,0,0,0-5.7-8.869,14.464,14.464,0,0,0-1.34-1.246c-.206-.174-.387-.347-.572-.485l-.52-.359a7.529,7.529,0,0,0-.989-.633,35.055,35.055,0,0,1,3.243,2.893,30.8,30.8,0,0,1,5.554,8.837,43.407,43.407,0,0,1,1.951,5.438,47.085,47.085,0,0,1,1.1,4.592c.243,1.323.383,2.4.468,3.152A7.63,7.63,0,0,0,396.083,378.1Z" transform="translate(-383.621 -352.018)" fill="#e0e0e0"/></g><g transform="translate(9.721 52.856)"><path d="M390.9,441.511l.934,12.789h16.43l.934-12.789Z" transform="translate(-390.9 -441.511)" fill="#e0e0e0"/></g><g transform="translate(8.134 47.815)"><rect width="21.844" height="5.041" fill="#e0e0e0"/></g><g transform="translate(8.134 65.156)"><path d="M387.559,467.4v1.4h21.483v-1.4Z" transform="translate(-387.559 -467.403)" fill="#ebebeb"/></g><g transform="translate(9.161 66.553)"><path d="M390.726,472.8l-1.006-2.459h19.674L408.22,472.8Z" transform="translate(-389.72 -470.345)" fill="#e0e0e0"/></g><g transform="translate(9.998 55.239)"><path d="M409.2,448.325a.575.575,0,0,1-.077.117l-.246.326-.957,1.225-.043.055-.041-.057-2.351-3.252h.135l-2.315,3.278-.073.1-.081-.1-2.746-3.267.158,0-.151.19-2.455,3.078-.082.1-.076-.107-2.316-3.277.135.006L392.765,450l-.051.058-.039-.065-.893-1.5-.229-.4a.629.629,0,0,1-.07-.143.637.637,0,0,1,.1.127l.254.384.938,1.473-.089-.007,2.807-3.29.071-.083.064.09,2.337,3.262-.157,0,2.449-3.082.151-.19.078-.1.08.1L403.3,449.9l-.154.006,2.338-3.262.068-.1.067.1,2.3,3.287-.084,0,1-1.194.266-.308C409.16,448.355,409.194,448.322,409.2,448.325Z" transform="translate(-391.483 -446.528)" fill="#f5f5f5"/></g><g transform="translate(9.858 52.67)"><path d="M409.576,441.22c0,.056-4.117.1-9.194.1s-9.195-.046-9.195-.1,4.116-.1,9.195-.1S409.576,441.164,409.576,441.22Z" transform="translate(-391.188 -441.118)" fill="#f5f5f5"/></g><g transform="translate(9.092 66.589)"><path d="M409.56,470.522c0,.057-4.474.1-9.992.1s-9.993-.046-9.993-.1,4.473-.1,9.993-.1S409.56,470.466,409.56,470.522Z" transform="translate(-389.575 -470.42)" fill="#f5f5f5"/></g></g><g transform="translate(10.051 51.911)"><path d="M67.42,169.146a5.572,5.572,0,0,1,.852-.021c.274,0,.61,0,1,.032s.833.04,1.32.1a30.238,30.238,0,0,1,3.4.54,31.035,31.035,0,0,1,7.914,2.892,30.286,30.286,0,0,1,2.95,1.783c.412.267.761.542,1.075.774s.575.441.784.619a5.527,5.527,0,0,1,.637.565,5.631,5.631,0,0,1-.7-.489c-.217-.166-.485-.366-.807-.583s-.674-.484-1.09-.74a33.946,33.946,0,0,0-2.959-1.726,33,33,0,0,0-7.859-2.872,33.853,33.853,0,0,0-3.374-.589c-.483-.072-.924-.1-1.31-.137s-.72-.061-.993-.074A5.638,5.638,0,0,1,67.42,169.146Z" transform="translate(-67.42 -169.125)" fill="#ebebeb"/></g><g transform="translate(1.249 95.056)"><path d="M48.89,269.749a1.661,1.661,0,0,1,.255-.215l.761-.578c.33-.253.74-.553,1.234-.876s1.039-.716,1.681-1.091c.633-.389,1.329-.811,2.1-1.219.759-.434,1.6-.835,2.484-1.269a47.56,47.56,0,0,1,12.156-3.853c.971-.153,1.892-.312,2.762-.394.867-.112,1.679-.168,2.421-.214.74-.064,1.413-.06,2-.077s1.1-.011,1.512,0l.955.034a1.647,1.647,0,0,1,.332.029,1.722,1.722,0,0,1-.333.021l-.954.013c-.414,0-.921,0-1.509.037s-1.257.038-1.994.113c-.738.057-1.546.123-2.408.243-.866.091-1.781.257-2.746.415a49.61,49.61,0,0,0-12.1,3.836c-.88.427-1.723.818-2.483,1.243-.774.4-1.473.809-2.109,1.188-.645.363-1.2.742-1.7,1.056s-.916.6-1.254.839l-.788.54A1.722,1.722,0,0,1,48.89,269.749Z" transform="translate(-48.89 -259.95)" fill="#ebebeb"/></g><g transform="translate(35.386 107.902)"><path d="M120.755,309.479a1.038,1.038,0,0,1,.033-.257c.038-.193.086-.434.143-.727.062-.316.145-.7.26-1.144s.228-.952.4-1.5c.307-1.111.734-2.416,1.266-3.844s1.205-2.965,1.989-4.54,1.634-3.023,2.447-4.312,1.615-2.406,2.321-3.316c.342-.464.68-.861.968-1.217s.544-.654.761-.893l.5-.55a1.035,1.035,0,0,1,.186-.181,1.027,1.027,0,0,1-.148.213l-.461.579c-.2.248-.452.553-.726.918s-.6.767-.935,1.236c-.686.921-1.458,2.05-2.268,3.332s-1.629,2.738-2.418,4.3-1.442,3.1-2,4.511-.985,2.711-1.312,3.811c-.177.546-.3,1.05-.43,1.489s-.224.819-.3,1.132l-.188.716A1.01,1.01,0,0,1,120.755,309.479Z" transform="translate(-120.753 -286.994)" fill="#ebebeb"/></g><g transform="translate(87.388)"><path d="M242.763,59.846a1.8,1.8,0,0,1-.185.289l-.568.8c-.252.343-.556.766-.89,1.27s-.737,1.063-1.135,1.711-.858,1.343-1.3,2.119c-.466.763-.915,1.607-1.4,2.488-.935,1.78-1.891,3.775-2.772,5.921s-1.576,4.249-2.149,6.177c-.268.969-.536,1.886-.735,2.758-.223.866-.393,1.682-.546,2.427s-.272,1.423-.381,2.017-.19,1.109-.25,1.531c-.062.4-.113.723-.151.969a1.768,1.768,0,0,1-.069.336,1.767,1.767,0,0,1,.02-.342c.027-.247.062-.571.105-.976.045-.424.108-.942.209-1.54s.189-1.283.346-2.029.3-1.57.518-2.441c.19-.877.452-1.8.715-2.775.563-1.938,1.267-4.045,2.139-6.206a65.455,65.455,0,0,1,2.8-5.936c.491-.882.948-1.725,1.424-2.486.455-.774.912-1.474,1.333-2.11s.821-1.2,1.169-1.695.661-.913.925-1.248l.606-.772A1.8,1.8,0,0,1,242.763,59.846Z" transform="translate(-230.225 -59.846)" fill="#ebebeb"/></g><g transform="translate(120.482 49.346)"><g transform="translate(0)"><path d="M322.1,163.731a1.294,1.294,0,0,1-.286.055l-.822.108-.594.072c-.216.033-.448.084-.7.13-.5.1-1.077.182-1.694.362l-.976.253c-.338.09-.68.22-1.039.335-.724.216-1.464.539-2.25.857a27.381,27.381,0,0,0-8.972,6.3c-.566.632-1.12,1.219-1.569,1.827-.229.3-.468.577-.667.865l-.569.832c-.379.52-.65,1.035-.915,1.472-.128.22-.255.422-.359.614l-.269.534-.38.737a1.277,1.277,0,0,1-.148.25,1.306,1.306,0,0,1,.1-.271l.339-.759.251-.546c.1-.2.22-.4.343-.628.255-.445.518-.97.89-1.5l.56-.847c.2-.293.433-.575.661-.879.446-.618,1-1.215,1.565-1.857a26.693,26.693,0,0,1,9.047-6.357c.8-.315,1.544-.633,2.277-.842.363-.111.709-.238,1.051-.324l.987-.239c.625-.171,1.207-.239,1.713-.329.254-.039.488-.084.706-.11l.6-.051.829-.062A1.268,1.268,0,0,1,322.1,163.731Z" transform="translate(-299.892 -163.726)" fill="#ebebeb"/></g></g><g transform="translate(128.9 72.42)"><path d="M366.336,217.5a.523.523,0,0,1-.125-.034l-.357-.122-1.364-.49-.983-.36c-.362-.124-.76-.244-1.185-.381-.853-.265-1.813-.6-2.9-.879l-1.7-.465c-.592-.159-1.219-.283-1.862-.435-1.283-.318-2.677-.55-4.138-.818a71.975,71.975,0,0,0-19.268-.591c-1.475.179-2.88.325-4.181.564-.651.112-1.284.2-1.885.32l-1.727.36c-1.105.208-2.084.487-2.952.7-.432.112-.837.206-1.206.308l-1,.3-1.391.406-.364.1a.516.516,0,0,1-.126.026.474.474,0,0,1,.119-.05l.356-.123,1.379-.451,1-.32c.367-.109.771-.211,1.2-.329.866-.225,1.844-.517,2.95-.737l1.729-.376c.6-.128,1.236-.218,1.888-.334,1.3-.248,2.711-.4,4.19-.588a70.113,70.113,0,0,1,19.329.592c1.465.276,2.861.516,4.147.844.644.156,1.271.285,1.864.449l1.7.481c1.091.287,2.049.638,2.9.916.424.144.82.27,1.18.4l.977.381,1.349.534.348.144A.481.481,0,0,1,366.336,217.5Z" transform="translate(-317.613 -212.3)" fill="#ebebeb"/></g></g><g transform="translate(130.974 39.436)"><g transform="translate(0 0)"><g transform="translate(0.236 0.142)"><path d="M249.082,51.734V65.283C246.006,68.3,234.9,79.5,234.9,79.5h14.179V90.164a6.879,6.879,0,0,0,6.814,6.878l78.609.743a6.879,6.879,0,0,0,6.944-6.878V51.734a6.879,6.879,0,0,0-6.879-6.878H255.961A6.879,6.879,0,0,0,249.082,51.734Z" transform="translate(-234.903 -44.856)" fill="#fafafa"/></g><path d="M248.822,51.577s0-.261.029-.77a6.973,6.973,0,0,1,.6-2.173,6.871,6.871,0,0,1,.878-1.418,7.525,7.525,0,0,1,1.478-1.368,7.069,7.069,0,0,1,2.138-.971,9.491,9.491,0,0,1,2.662-.239l31.94-.049,22.057-.019,12.288-.008,6.426,0,3.279,0h1.655c.28.011.565.019.846.047a7.149,7.149,0,0,1,.838.15,7.02,7.02,0,0,1,4.957,4.4,7.3,7.3,0,0,1,.4,1.7c.042.59.039,1.164.037,1.74q0,1.731,0,3.481,0,7,0,14.281t0,14.8q0,1.879,0,3.771l0,1.9a7.367,7.367,0,0,1-.287,1.917A7.02,7.02,0,0,1,338.982,96a6.592,6.592,0,0,1-1.626,1.086,6.744,6.744,0,0,1-1.869.6,9.729,9.729,0,0,1-1.858.1L331.8,97.76l-3.646-.034-7.222-.069L306.8,97.521,280,97.26l-24.369-.244a7.005,7.005,0,0,1-5.1-2.291A7.127,7.127,0,0,1,248.7,89.64q.005-5.355.009-10.293l.114.114-14.179-.016h-.236l.166-.167,14.2-14.2-.019.046c.013-4.4.024-7.782.03-10.075.008-1.139.013-2.006.017-2.594s.017-.879.017-.879.011.3.017.879.009,1.455.017,2.594c.007,2.293.017,5.678.031,10.075v.026l-.019.019L234.711,79.415l-.069-.167,14.179-.016h.114v.114q0,4.932.009,10.293a6.876,6.876,0,0,0,1.775,4.914,6.751,6.751,0,0,0,4.918,2.2l24.369.217,26.793.245,14.135.131,7.222.068,3.646.034,1.831.017a9.386,9.386,0,0,0,1.8-.095,6.756,6.756,0,0,0,5.318-4.718,7.051,7.051,0,0,0,.275-1.833q0-.948,0-1.893V85.158q0-7.514,0-14.8t0-14.281q0-1.749,0-3.481c0-.578,0-1.155-.034-1.711a6.992,6.992,0,0,0-.383-1.631,6.732,6.732,0,0,0-4.749-4.226,13.975,13.975,0,0,0-3.273-.191h-3.279l-6.426,0-12.288-.008-22.057-.019-31.94-.049a9.417,9.417,0,0,0-2.635.221,6.989,6.989,0,0,0-2.113.944,7.467,7.467,0,0,0-1.47,1.341,6.877,6.877,0,0,0-.882,1.4A7.258,7.258,0,0,0,248.822,51.577Z" transform="translate(-234.406 -44.557)" fill="#263238"/><g transform="translate(33.017 18.167)"><path d="M303.912,89.308c0-3.739,2.912-6.507,6.884-6.507,3.955,0,6.884,2.75,6.884,6.507s-2.93,6.506-6.884,6.506C306.824,95.814,303.912,93.046,303.912,89.308Zm10.821,0a3.937,3.937,0,1,0-3.937,4.026A3.838,3.838,0,0,0,314.733,89.308Z" transform="translate(-303.912 -82.801)"/><path d="M335.576,94.062a5.322,5.322,0,1,1,5.32,4.979A4.978,4.978,0,0,1,335.576,94.062Zm7.783,0A2.48,2.48,0,1,0,340.9,96.74,2.441,2.441,0,0,0,343.359,94.062Z" transform="translate(-320.535 -86.099)"/><path d="M372.4,94.062a4.7,4.7,0,0,1-4.817,4.979,3.752,3.752,0,0,1-2.911-1.169v4.512h-2.8V89.227h2.678v1.114a3.758,3.758,0,0,1,3.038-1.258A4.7,4.7,0,0,1,372.4,94.062Zm-2.84,0A2.471,2.471,0,1,0,367.1,96.74,2.441,2.441,0,0,0,369.562,94.062Z" transform="translate(-334.337 -86.099)"/><path d="M386,98l.935-2.013a6.616,6.616,0,0,0,3.361.934c1.294,0,1.779-.342,1.779-.881,0-1.582-5.841.036-5.841-3.829,0-1.833,1.654-3.127,4.476-3.127a7.955,7.955,0,0,1,3.721.845l-.935,2a5.553,5.553,0,0,0-2.786-.719c-1.258,0-1.8.4-1.8.9,0,1.653,5.842.054,5.842,3.864,0,1.8-1.672,3.073-4.566,3.073A8.306,8.306,0,0,1,386,98Z" transform="translate(-347.007 -86.099)"/><path d="M407.189,94.346a1.73,1.73,0,0,1,3.451,0,1.728,1.728,0,0,1-3.451,0Zm.054-11.091h3.343l-.557,8.215H407.8Z" transform="translate(-358.129 -83.039)"/></g></g></g><g transform="translate(49.43 34.802)"><g transform="translate(8.157 0)"><g transform="translate(41.304 4.528)"><path d="M0,0H0A7.255,7.255,0,0,1,7.255,7.255v.536A7.254,7.254,0,0,1,0,15.045H0a0,0,0,0,1,0,0V0A0,0,0,0,1,0,0Z" transform="translate(0.017 5.112) rotate(-44.795)" fill="#455a64"/><path d="M177.486,63.158l-.009-.008L166.868,52.466l.009-.009.446-.443A6.6,6.6,0,0,1,172,50.087h.024a6.594,6.594,0,0,1,4.687,1.961l1.263,1.272a6.638,6.638,0,0,1-.033,9.388ZM166.9,52.466l10.584,10.659.438-.434a6.615,6.615,0,0,0,.033-9.355l-1.263-1.272a6.571,6.571,0,0,0-4.67-1.954H172a6.572,6.572,0,0,0-4.661,1.921Z" transform="translate(-166.868 -47.354)" fill="#263238"/></g><g transform="translate(4.383 40.624)"><path d="M0,0H0A7.254,7.254,0,0,1,7.255,7.254v.536A7.255,7.255,0,0,1,0,15.045H0a0,0,0,0,1,0,0V0A0,0,0,0,1,0,0Z" transform="translate(15.535 11.073) rotate(137.295)" fill="#455a64"/><path d="M102.742,133.589q-.136,0-.272-.006a6.593,6.593,0,0,1-4.613-2.13l-1.215-1.317a6.639,6.639,0,0,1,.376-9.381l.471-.434.008.009,10.211,11.065-.009.008-.461.426A6.594,6.594,0,0,1,102.742,133.589Zm-5.708-12.816a6.614,6.614,0,0,0-.374,9.347l1.215,1.317a6.571,6.571,0,0,0,4.6,2.123c.09,0,.181.005.271.005a6.566,6.566,0,0,0,4.48-1.754l.453-.418L97.487,120.354Z" transform="translate(-92.156 -120.321)" fill="#263238"/></g><g transform="translate(2.7 27.363)"><rect width="1.189" height="9.827" transform="matrix(0.628, -0.778, 0.778, 0.628, 0, 0.926)" fill="#455a64"/></g><g transform="translate(0 24.879)"><path d="M83.86,87.711a2.422,2.422,0,1,1-3.406.364A2.422,2.422,0,0,1,83.86,87.711Z" transform="translate(-79.917 -87.174)" fill="#263238"/></g><g transform="translate(5.036 5.726)"><rect width="47.113" height="35.55" rx="16.501" transform="matrix(0.71, -0.705, 0.705, 0.71, 0, 33.196)" fill="#e8505b"/></g><g transform="translate(28.958 3.978)"><path d="M145.445,49.83,144.4,45.823l-2.732.453-.789-2.893.893-.206.626,2.107,2.722-.37,1.142,4.109Z" transform="translate(-140.876 -43.176)" fill="#455a64"/></g><g transform="translate(11.147 11.846)"><path d="M7.261,0H33.176a7.261,7.261,0,0,1,7.261,7.261v0a7.261,7.261,0,0,1-7.261,7.261H7.261A7.261,7.261,0,0,1,0,7.261v0A7.261,7.261,0,0,1,7.261,0Z" transform="matrix(0.71, -0.705, 0.705, 0.71, 0, 28.493)" fill="#263238"/></g><g transform="translate(12.327 13.071)"><path d="M139.969,77.824s.057-.076.179-.215a7.2,7.2,0,0,0,.522-.628,8.09,8.09,0,0,0,1.393-2.789,9.017,9.017,0,0,0,.314-2.235,8.688,8.688,0,0,0-.427-2.642,8.217,8.217,0,0,0-1.482-2.685l-.559-.615-.609-.61a12.47,12.47,0,0,0-1.313-1.2,8.264,8.264,0,0,0-9.454-.4,10.082,10.082,0,0,0-1.716,1.435l-3.351,3.335-14.93,14.839a8.263,8.263,0,0,0-2.361,4.8,8.58,8.58,0,0,0,.086,2.654,8.261,8.261,0,0,0,.914,2.447,8.766,8.766,0,0,0,.719,1.076c.282.325.559.647.87.95a14.538,14.538,0,0,0,1.874,1.72,8.237,8.237,0,0,0,9.021.412,8.612,8.612,0,0,0,.931-.632c.283-.243.561-.484.826-.744l1.56-1.544,5.69-5.63,8.252-8.138,2.252-2.2.59-.569c.134-.127.207-.188.207-.188s-.061.073-.19.206l-.573.586-2.219,2.236-8.2,8.195-5.669,5.65-1.555,1.549c-.264.261-.552.514-.841.762a8.848,8.848,0,0,1-.953.652,8.457,8.457,0,0,1-9.271-.408,14.742,14.742,0,0,1-1.905-1.742c-.308-.3-.6-.636-.889-.969a9.006,9.006,0,0,1-.742-1.106,8.5,8.5,0,0,1-.943-2.52,8.82,8.82,0,0,1-.09-2.732,8.509,8.509,0,0,1,2.431-4.945l14.943-14.825,3.358-3.327a10.319,10.319,0,0,1,1.755-1.459,8.49,8.49,0,0,1,6.174-1.155,8.57,8.57,0,0,1,3.5,1.6,12.689,12.689,0,0,1,1.324,1.219l.605.613.566.628a8.342,8.342,0,0,1,1.492,2.742,8.778,8.778,0,0,1,.413,2.686,9.046,9.046,0,0,1-.34,2.26,7.958,7.958,0,0,1-1.446,2.794,6.225,6.225,0,0,1-.543.615C140.039,77.759,139.969,77.824,139.969,77.824Z" transform="translate(-105.867 -62.318)" fill="#263238"/></g><g transform="translate(17.361 34.977)"><g transform="translate(4.218)"><path d="M125.54,116.984a37.184,37.184,0,0,1-.184-4.274,37.082,37.082,0,0,1,.063-4.278,37.107,37.107,0,0,1,.184,4.274A37.013,37.013,0,0,1,125.54,116.984Z" transform="translate(-125.343 -108.433)" fill="#fff"/></g><g transform="translate(0 3.902)"><path d="M125.017,116.684a37.214,37.214,0,0,1-4.271.316,37.021,37.021,0,0,1-4.282.069,37.207,37.207,0,0,1,4.271-.316A37.143,37.143,0,0,1,125.017,116.684Z" transform="translate(-116.464 -116.648)" fill="#fff"/></g></g><g transform="translate(34.292 17.722)"><g transform="translate(4.217)"><path d="M161.181,80.66A36.985,36.985,0,0,1,161,76.387a37.082,37.082,0,0,1,.063-4.278,36.981,36.981,0,0,1,.184,4.274A37.209,37.209,0,0,1,161.181,80.66Z" transform="translate(-160.983 -72.109)" fill="#fff"/></g><g transform="translate(0 3.902)"><path d="M160.657,80.36a37.079,37.079,0,0,1-4.271.316,37.205,37.205,0,0,1-4.282.07,37.127,37.127,0,0,1,4.271-.317A37.128,37.128,0,0,1,160.657,80.36Z" transform="translate(-152.105 -80.324)" fill="#fff"/></g></g><g transform="translate(26.388)"><circle cx="2.422" cy="2.422" r="2.422" transform="matrix(1, -0.015, 0.015, 1, 0, 0.075)" fill="#263238"/></g><g transform="translate(26.653 48.187)"><path d="M145.755,145.948a2.251,2.251,0,0,1-.418-.345c-.258-.234-.626-.578-1.076-1.006-.9-.858-2.132-2.055-3.48-3.392s-2.556-2.559-3.417-3.456a10.625,10.625,0,0,1-1.337-1.508,4.252,4.252,0,0,1,.4.364l1.061,1.021,3.467,3.4c1.347,1.336,2.559,2.553,3.429,3.443l1.02,1.063A2.3,2.3,0,0,1,145.755,145.948Z" transform="translate(-136.024 -136.241)" fill="#263238"/></g><g transform="translate(47.229 27.463)"><path d="M189.071,102.322a2.279,2.279,0,0,1-.418-.345c-.258-.233-.626-.577-1.076-1.006-.9-.858-2.132-2.055-3.48-3.392s-2.556-2.559-3.417-3.456a10.558,10.558,0,0,1-1.337-1.508,4.254,4.254,0,0,1,.4.364L180.8,94l3.467,3.4c1.347,1.335,2.559,2.553,3.428,3.443l1.021,1.062A2.283,2.283,0,0,1,189.071,102.322Z" transform="translate(-179.341 -92.615)" fill="#263238"/></g><g transform="translate(29.749 30.425)"><g transform="translate(0 0)"><rect width="24.775" height="2.719" transform="matrix(0.701, -0.713, 0.713, 0.701, 0, 17.659)" fill="#263238"/></g></g><g transform="translate(26.361 50.772)"><path d="M136.45,142.225a.52.52,0,1,1-.5-.54A.52.52,0,0,1,136.45,142.225Z" transform="translate(-135.411 -141.684)" fill="#263238"/></g><g transform="translate(30.324 54.957)"><path d="M144.792,151.034a.52.52,0,1,1-.5-.54A.519.519,0,0,1,144.792,151.034Z" transform="translate(-143.753 -150.493)" fill="#263238"/></g><g transform="translate(49.649 27.061)"><path d="M185.473,92.31a.52.52,0,1,1-.5-.54A.519.519,0,0,1,185.473,92.31Z" transform="translate(-184.434 -91.769)" fill="#263238"/></g><g transform="translate(53.611 31.246)"><path d="M193.814,101.119a.52.52,0,1,1-.5-.54A.519.519,0,0,1,193.814,101.119Z" transform="translate(-192.775 -100.578)" fill="#263238"/></g><g transform="translate(8.034 43.398)"><path d="M100.925,134.62a14.318,14.318,0,0,0-1.1-.973c-.358-.279-.807-.587-1.268-.991a4.97,4.97,0,0,1-1.209-1.589,5.347,5.347,0,0,1-.373-3.552,4.443,4.443,0,0,1,.387-1.024c.133-.222.212-.34.227-.331a10.409,10.409,0,0,0-.443,1.393,5.5,5.5,0,0,0,.425,3.406,7.573,7.573,0,0,0,2.365,2.551A3.41,3.41,0,0,1,100.925,134.62Z" transform="translate(-96.828 -126.16)" fill="#fff"/></g><g transform="translate(10.302 13.646)"><path d="M124.082,63.529c.048.049-4.946,4.978-11.153,11.008S101.651,85.417,101.6,85.369s4.945-4.977,11.154-11.009S124.035,63.48,124.082,63.529Z" transform="translate(-101.603 -63.528)" fill="#fff"/></g><g transform="translate(0.47 25.706)"><path d="M82.34,92.22c-.007.027-.248,0-.569-.212a1.952,1.952,0,0,1-.567-2.663c.207-.324.416-.447.433-.425s-.13.192-.28.509a2,2,0,0,0,.519,2.44C82.143,92.1,82.354,92.183,82.34,92.22Z" transform="translate(-80.907 -88.917)" fill="#fff"/></g><g transform="translate(26.849 0.71)"><path d="M137.872,39.809c-.006.027-.267-.005-.606-.245a1.974,1.974,0,0,1-.371-2.874c.267-.318.512-.415.524-.391s-.176.178-.384.495a1.979,1.979,0,0,0,.339,2.634C137.657,39.681,137.887,39.772,137.872,39.809Z" transform="translate(-136.437 -36.296)" fill="#fff"/></g><g transform="translate(42.588 7.953)"><path d="M173.251,51.624a6.517,6.517,0,0,0-3.677,1.458,3.8,3.8,0,0,1,3.677-1.458Z" transform="translate(-169.571 -51.543)" fill="#fff"/></g><g transform="translate(19.636 51.587)"><path d="M128.167,150.555c-.049.048-1.636-1.516-3.545-3.491s-3.416-3.616-3.367-3.663,1.636,1.515,3.545,3.491S128.216,150.508,128.167,150.555Z" transform="translate(-121.254 -143.4)" fill="#fff"/></g></g><g transform="translate(0 51.103)"><g transform="translate(64.338 121.723)"><g transform="translate(4.872)"><rect width="20.326" height="28.81" fill="#e8505b"/></g><g transform="translate(2.318 28.314)"><path d="M2.966,0h19.5a2.966,2.966,0,0,1,2.966,2.966v0a0,0,0,0,1,0,0H0a0,0,0,0,1,0,0v0A2.966,2.966,0,0,1,2.966,0Z" fill="#263238"/></g><g transform="translate(0 31.281)"><rect width="30.871" height="4.693" fill="#e8505b"/></g><g transform="translate(4.972 1.721)"><g transform="translate(0 23.799)"><path d="M228.778,452.469c0,.068-4.506.124-10.064.124s-10.064-.056-10.064-.124,4.505-.123,10.064-.123S228.778,452.4,228.778,452.469Z" transform="translate(-208.65 -452.346)" fill="#263238"/></g><g transform="translate(0 20.373)"><path d="M228.778,445.257c0,.068-4.506.124-10.064.124s-10.064-.056-10.064-.124,4.505-.124,10.064-.124S228.778,445.19,228.778,445.257Z" transform="translate(-208.65 -445.134)" fill="#263238"/></g><g transform="translate(0 17.008)"><path d="M228.778,438.173c0,.068-4.506.124-10.064.124s-10.064-.055-10.064-.124,4.505-.123,10.064-.123S228.778,438.105,228.778,438.173Z" transform="translate(-208.65 -438.05)" fill="#263238"/></g><g transform="translate(0 13.582)"><path d="M228.778,430.961c0,.068-4.506.124-10.064.124s-10.064-.056-10.064-.124,4.505-.123,10.064-.123S228.778,430.893,228.778,430.961Z" transform="translate(-208.65 -430.838)" fill="#263238"/></g><g transform="translate(0 10.217)"><path d="M228.778,423.878c0,.068-4.506.124-10.064.124s-10.064-.055-10.064-.124,4.505-.124,10.064-.124S228.778,423.809,228.778,423.878Z" transform="translate(-208.65 -423.754)" fill="#263238"/></g><g transform="translate(0 6.791)"><path d="M228.778,416.665c0,.068-4.506.124-10.064.124s-10.064-.055-10.064-.124,4.505-.124,10.064-.124S228.778,416.6,228.778,416.665Z" transform="translate(-208.65 -416.542)" fill="#263238"/></g><g transform="translate(0 3.425)"><path d="M228.778,409.581c0,.068-4.506.124-10.064.124s-10.064-.055-10.064-.124,4.505-.124,10.064-.124S228.778,409.513,228.778,409.581Z" transform="translate(-208.65 -409.457)" fill="#263238"/></g><path d="M228.778,402.37c0,.068-4.506.124-10.064.124s-10.064-.055-10.064-.124,4.505-.124,10.064-.124S228.778,402.3,228.778,402.37Z" transform="translate(-208.65 -402.246)" fill="#263238"/></g><g transform="translate(4.689 0.516)" opacity="0.3"><path d="M208.239,403.208l20.227-.562v-2.937h-20.41Z" transform="translate(-208.056 -399.709)"/></g></g><g transform="translate(96.175 121.723)"><g transform="translate(4.872)"><rect width="20.326" height="28.81" fill="#e8505b"/></g><g transform="translate(2.318 28.314)"><path d="M2.966,0h19.5a2.966,2.966,0,0,1,2.966,2.966v0a0,0,0,0,1,0,0H0a0,0,0,0,1,0,0v0A2.966,2.966,0,0,1,2.966,0Z" fill="#263238"/></g><g transform="translate(0 31.281)"><rect width="30.871" height="4.693" fill="#e8505b"/></g><g transform="translate(4.972 1.721)"><g transform="translate(0 23.799)"><path d="M295.8,452.469c0,.068-4.506.124-10.064.124s-10.064-.056-10.064-.124,4.505-.123,10.064-.123S295.8,452.4,295.8,452.469Z" transform="translate(-275.671 -452.346)" fill="#263238"/></g><g transform="translate(0 20.373)"><path d="M295.8,445.257c0,.068-4.506.124-10.064.124s-10.064-.056-10.064-.124,4.505-.124,10.064-.124S295.8,445.19,295.8,445.257Z" transform="translate(-275.671 -445.134)" fill="#263238"/></g><g transform="translate(0 17.008)"><path d="M295.8,438.173c0,.068-4.506.124-10.064.124s-10.064-.055-10.064-.124,4.505-.123,10.064-.123S295.8,438.105,295.8,438.173Z" transform="translate(-275.671 -438.05)" fill="#263238"/></g><g transform="translate(0 13.582)"><path d="M295.8,430.961c0,.068-4.506.124-10.064.124s-10.064-.056-10.064-.124,4.505-.123,10.064-.123S295.8,430.893,295.8,430.961Z" transform="translate(-275.671 -430.838)" fill="#263238"/></g><g transform="translate(0 10.217)"><path d="M295.8,423.878c0,.068-4.506.124-10.064.124s-10.064-.055-10.064-.124,4.505-.124,10.064-.124S295.8,423.809,295.8,423.878Z" transform="translate(-275.671 -423.754)" fill="#263238"/></g><g transform="translate(0 6.791)"><path d="M295.8,416.665c0,.068-4.506.124-10.064.124s-10.064-.055-10.064-.124,4.505-.124,10.064-.124S295.8,416.6,295.8,416.665Z" transform="translate(-275.671 -416.542)" fill="#263238"/></g><g transform="translate(0 3.425)"><path d="M295.8,409.581c0,.068-4.506.124-10.064.124s-10.064-.055-10.064-.124,4.505-.124,10.064-.124S295.8,409.513,295.8,409.581Z" transform="translate(-275.671 -409.457)" fill="#263238"/></g><path d="M295.8,402.37c0,.068-4.506.124-10.064.124s-10.064-.055-10.064-.124,4.505-.124,10.064-.124S295.8,402.3,295.8,402.37Z" transform="translate(-275.671 -402.246)" fill="#263238"/></g><g transform="translate(4.69 0.516)" opacity="0.3"><path d="M275.26,403.208l20.227-.562v-2.937h-20.41Z" transform="translate(-275.077 -399.709)"/></g></g><g transform="translate(120.236 40.268)"><g transform="translate(0 0)"><g transform="translate(1.919)"><path d="M1.832,0h.131A1.832,1.832,0,0,1,3.794,1.832V9.267a0,0,0,0,1,0,0H0a0,0,0,0,1,0,0V1.832A1.832,1.832,0,0,1,1.832,0Z" transform="translate(0 3.679) rotate(-75.831)" fill="#e8505b"/></g><g transform="translate(1.919)" opacity="0.3"><path d="M1.832,0h.131A1.832,1.832,0,0,1,3.794,1.832V9.267a0,0,0,0,1,0,0H0a0,0,0,0,1,0,0V1.832A1.832,1.832,0,0,1,1.832,0Z" transform="translate(0 3.679) rotate(-75.831)"/></g><g transform="translate(0 5.743)"><path d="M2.854,0h0A2.854,2.854,0,0,1,5.709,2.854V9.267a0,0,0,0,1,0,0H0a0,0,0,0,1,0,0V2.854A2.854,2.854,0,0,1,2.854,0Z" transform="translate(0 5.535) rotate(-75.831)" fill="#e8505b"/></g><g transform="translate(5.914 1.373)"><rect width="9.687" height="3.658" transform="translate(0 9.392) rotate(-75.831)" fill="#e8505b"/></g><g transform="translate(10.558 3.896)"><path d="M341.692,271.01s15.175-.617,13.92-15.16c-.961-11.14-17.531-11.242-17.531-11.242l4.237-9.258s19.364,1.685,23.186,15.785c4.318,15.93-5.668,28.926-23.812,28.62Z" transform="translate(-338.082 -235.35)" fill="#e8505b"/></g><g transform="translate(7.421 1.319)"><rect width="5.909" height="13.151" transform="translate(2.838 0) rotate(12.463)" fill="#263238"/></g><g transform="translate(7.764 12.815)"><path d="M337.88,255.384a11.12,11.12,0,0,1-2.872-.469,16.481,16.481,0,0,1-2.806-.779,18,18,0,0,1,2.861.537c.783.179,1.489.35,2,.48l.6.159A1.156,1.156,0,0,1,337.88,255.384Z" transform="translate(-332.202 -254.126)" fill="#455a64"/></g><g transform="translate(8.275 10.503)"><path d="M338.956,250.518a11.118,11.118,0,0,1-2.872-.469,16.522,16.522,0,0,1-2.806-.779,17.946,17.946,0,0,1,2.861.537c.782.178,1.488.35,2,.48l.6.159A1.174,1.174,0,0,1,338.956,250.518Z" transform="translate(-333.278 -249.26)" fill="#455a64"/></g><g transform="translate(8.886 8.192)"><path d="M340.242,245.652a11.13,11.13,0,0,1-2.872-.469,16.545,16.545,0,0,1-2.806-.778,17.874,17.874,0,0,1,2.86.537c.783.178,1.489.35,2,.48l.6.159A1.091,1.091,0,0,1,340.242,245.652Z" transform="translate(-334.564 -244.394)" fill="#455a64"/></g><g transform="translate(9.297 5.88)"><path d="M341.107,240.785a11.094,11.094,0,0,1-2.872-.469,16.482,16.482,0,0,1-2.806-.779,18.013,18.013,0,0,1,2.861.537c.782.179,1.489.35,2,.48l.6.159A1.158,1.158,0,0,1,341.107,240.785Z" transform="translate(-335.429 -239.527)" fill="#455a64"/></g><g transform="translate(9.892 3.717)"><path d="M342.359,236.232a11.116,11.116,0,0,1-2.872-.469,16.468,16.468,0,0,1-2.806-.779,18.012,18.012,0,0,1,2.861.537c.782.179,1.488.35,2,.48l.6.159A1.171,1.171,0,0,1,342.359,236.232Z" transform="translate(-336.681 -234.974)" fill="#455a64"/></g></g><g transform="translate(16.446 39.297)"><path d="M351.515,318.781a6.4,6.4,0,0,1-.309-1.281c-.153-.8-.332-1.908-.472-3.141s-.212-2.356-.241-3.168a6.464,6.464,0,0,1,.015-1.317,7.531,7.531,0,0,1,.16,1.306c.073.808.173,1.923.312,3.151s.29,2.338.4,3.141A7.548,7.548,0,0,1,351.515,318.781Z" transform="translate(-350.477 -309.874)" fill="#263238"/></g><g transform="translate(19.666 38.337)"><path d="M359.788,316.985a90.758,90.758,0,0,1-2.526-9.132,90.869,90.869,0,0,1,2.526,9.132Z" transform="translate(-357.256 -307.853)" fill="#263238"/></g><g transform="translate(23.288 36.447)"><path d="M370.132,312.627a9.4,9.4,0,0,1-.809-1.259l-1.851-3.1-1.86-3.09a9.432,9.432,0,0,1-.73-1.307,8.506,8.506,0,0,1,.877,1.213c.513.77,1.2,1.847,1.924,3.057s1.353,2.322,1.79,3.136A8.539,8.539,0,0,1,370.132,312.627Z" transform="translate(-364.881 -303.875)" fill="#263238"/></g><g transform="translate(25.595 34.05)"><path d="M378.016,305.7c-.043.053-1.932-1.443-4.218-3.34s-4.1-3.478-4.061-3.53,1.932,1.443,4.218,3.34S378.06,305.649,378.016,305.7Z" transform="translate(-369.737 -298.829)" fill="#263238"/></g><g transform="translate(27.424 30.94)"><path d="M383.473,296.4c-.026.063-2.26-.807-4.99-1.944s-4.921-2.11-4.895-2.172,2.26.807,4.99,1.944S383.5,296.338,383.473,296.4Z" transform="translate(-373.588 -292.281)" fill="#263238"/></g><g transform="translate(28.124 27.387)"><path d="M385.929,286.144a10.943,10.943,0,0,1-1.6-.149l-3.84-.475-3.842-.463a10.863,10.863,0,0,1-1.587-.24,9.823,9.823,0,0,1,1.6.066c.989.076,2.352.208,3.854.391s2.857.383,3.834.547A9.762,9.762,0,0,1,385.929,286.144Z" transform="translate(-375.062 -284.803)" fill="#263238"/></g><g transform="translate(28.117 22.16)"><path d="M385.136,273.8a8.21,8.21,0,0,1-1.434.487c-.9.263-2.149.587-3.546.882s-2.673.5-3.6.624a8.151,8.151,0,0,1-1.509.133,10.4,10.4,0,0,1,1.482-.305c.918-.166,2.185-.4,3.577-.694s2.645-.59,3.552-.809A10.361,10.361,0,0,1,385.136,273.8Z" transform="translate(-375.046 -273.799)" fill="#263238"/></g><g transform="translate(27.093 15.866)"><path d="M382.1,260.551c.031.061-2.005,1.149-4.547,2.43s-4.628,2.271-4.658,2.209,2-1.149,4.547-2.43S382.065,260.49,382.1,260.551Z" transform="translate(-372.89 -260.548)" fill="#263238"/></g><g transform="translate(24.663 10.76)"><path d="M375.5,249.8c.044.052-1.648,1.582-3.78,3.418s-3.9,3.283-3.941,3.231,1.647-1.582,3.78-3.419S375.453,249.75,375.5,249.8Z" transform="translate(-367.775 -249.8)" fill="#263238"/></g><g transform="translate(20.793 6.967)"><path d="M364.618,241.815a94.335,94.335,0,0,1-4.987,8.267,94.151,94.151,0,0,1,4.987-8.267Z" transform="translate(-359.629 -241.815)" fill="#263238"/></g><g transform="translate(16.797 4.592)"><path d="M354.287,236.817a48.537,48.537,0,0,1-1.415,4.684,48.625,48.625,0,0,1-1.65,4.607,96.856,96.856,0,0,1,3.065-9.292Z" transform="translate(-351.217 -236.817)" fill="#263238"/></g><g transform="translate(17.766 20.631)" opacity="0.3"><path d="M362.485,281.791a11.726,11.726,0,0,1-5.5,5.645,17.379,17.379,0,0,1-3.725,1.45c2.9,1.549,6.693.622,9.232-1.471a11.722,11.722,0,0,0,3.966-8.712,10.332,10.332,0,0,0-.822-4.562,7.13,7.13,0,0,0-3.126-3.562,8.723,8.723,0,0,1,.883,2.493A14.552,14.552,0,0,1,362.485,281.791Z" transform="translate(-353.256 -270.581)"/></g></g><g transform="translate(0 74.062)"><g transform="translate(35.667 23.673)"><path d="M137.829,348.125a3.84,3.84,0,0,1,.471.524c.294.346.694.866,1.166,1.527a32.979,32.979,0,0,1,5.186,11.5c.183.79.308,1.435.372,1.884a3.82,3.82,0,0,1,.081.7,3.9,3.9,0,0,1-.176-.682c-.093-.442-.244-1.079-.447-1.86a37.157,37.157,0,0,0-5.16-11.441c-.45-.67-.828-1.2-1.1-1.567A3.857,3.857,0,0,1,137.829,348.125Z" transform="translate(-137.828 -348.124)" fill="#263238"/></g><g transform="translate(33.642 21.976)"><path d="M133.574,344.564c.046-.051.27.075.5.28s.382.414.337.465-.27-.075-.5-.28S133.529,344.614,133.574,344.564Z" transform="translate(-133.566 -344.552)" fill="#263238"/></g><g transform="translate(34.099 20.589)"><path d="M134.541,341.636c.059-.035.294.249.525.635s.371.728.313.763-.294-.249-.525-.636S134.483,341.671,134.541,341.636Z" transform="translate(-134.528 -341.633)" fill="#263238"/></g><g transform="translate(42.901 6.929)"><path d="M153.058,346.055a2.294,2.294,0,0,1,.073-.381l.255-1.082c.221-.94.542-2.3.907-3.985.731-3.371,1.619-8.058,2.271-13.281a58.9,58.9,0,0,1,1.083-7.357,11.123,11.123,0,0,1,1.275-3,8.778,8.778,0,0,1,1.893-2.119,8.994,8.994,0,0,1,3.67-1.79,7.828,7.828,0,0,1,1.1-.166,2.286,2.286,0,0,1,.389-.01,2.288,2.288,0,0,1-.383.06,9.721,9.721,0,0,0-1.086.21,9.192,9.192,0,0,0-3.582,1.832,8.706,8.706,0,0,0-1.83,2.093,11.024,11.024,0,0,0-1.228,2.952,61.326,61.326,0,0,0-1.058,7.328c-.653,5.232-1.57,9.923-2.346,13.288-.387,1.684-.734,3.038-.984,3.971q-.188.671-.3,1.071A2.27,2.27,0,0,1,153.058,346.055Z" transform="translate(-153.057 -312.877)" fill="#455a64"/></g><g transform="translate(43.464 2.435)"><path d="M154.244,303.416a7.67,7.67,0,0,0,1.211,1.769,8.016,8.016,0,0,0,4.569,2.222,17.148,17.148,0,0,0,5.184-.219l1.564-.274a2.71,2.71,0,0,1,.58-.075,2.634,2.634,0,0,1-.56.17c-.364.092-.893.218-1.553.351a15.731,15.731,0,0,1-5.25.292,7.864,7.864,0,0,1-4.661-2.348,5.167,5.167,0,0,1-.89-1.334A2.034,2.034,0,0,1,154.244,303.416Z" transform="translate(-154.243 -303.415)" fill="#263238"/></g><g transform="translate(41.652 0.926)"><path d="M150.437,300.249c.048-.048.275.1.507.332s.38.458.332.506-.275-.1-.506-.332S150.389,300.3,150.437,300.249Z" transform="translate(-150.428 -300.24)" fill="#263238"/></g><g transform="translate(42.187 0.105)"><path d="M151.569,298.515c.058-.036.273.205.48.539s.328.633.27.669-.273-.205-.48-.539S151.511,298.551,151.569,298.515Z" transform="translate(-151.554 -298.512)" fill="#263238"/></g><g transform="translate(43.436)"><path d="M154.436,298.291c.067.01.079.29.026.624s-.151.6-.218.586-.079-.29-.026-.625S154.368,298.28,154.436,298.291Z" transform="translate(-154.184 -298.29)" fill="#263238"/></g><g transform="translate(43.869 18.552)"><path d="M159.389,337.345a5.554,5.554,0,0,1-.042.845c-.041.543-.12,1.327-.234,2.294-.226,1.934-.622,4.6-1.215,7.511s-1.275,5.519-1.825,7.388c-.274.934-.509,1.686-.684,2.2a5.528,5.528,0,0,1-.293.794,5.481,5.481,0,0,1,.2-.822l.608-2.222c.505-1.877,1.157-4.483,1.751-7.39s1.013-5.559,1.284-7.484c.127-.933.232-1.7.312-2.282A5.51,5.51,0,0,1,159.389,337.345Z" transform="translate(-155.095 -337.345)" fill="#455a64"/></g><g transform="translate(48.425 7.531)"><path d="M172.845,314.167c0,.047-.681.049-1.731.327a8.577,8.577,0,0,0-5.955,5.5c-.361,1.024-.418,1.705-.464,1.7a1.593,1.593,0,0,1,.02-.478,7.131,7.131,0,0,1,.278-1.275,8.25,8.25,0,0,1,6.079-5.613,7.169,7.169,0,0,1,1.294-.176A1.581,1.581,0,0,1,172.845,314.167Z" transform="translate(-164.686 -314.144)" fill="#455a64"/></g><g transform="translate(45.152 8.954)"><path d="M157.8,348.194a1.959,1.959,0,0,1,.02-.358c.022-.233.058-.577.119-1.019a9.631,9.631,0,0,1,1.126-3.6c.4-.7.951-1.381,1.4-2.189a4.491,4.491,0,0,0,.494-1.321,5.529,5.529,0,0,0,.04-1.5,11.771,11.771,0,0,1-.146-3.317,4.032,4.032,0,0,1,.76-1.611c.35-.486.75-.935,1.068-1.436a3.029,3.029,0,0,0,.533-1.623,7.122,7.122,0,0,0-.227-1.7,10.03,10.03,0,0,1-.273-3.31,9.427,9.427,0,0,1,5.006-7.546,8.211,8.211,0,0,1,.938-.421,1.95,1.95,0,0,1,.342-.107,1.92,1.92,0,0,1-.323.153c-.212.1-.525.241-.911.46a9.716,9.716,0,0,0-2.828,2.412,9.381,9.381,0,0,0-2,5.069,9.891,9.891,0,0,0,.283,3.238,7.293,7.293,0,0,1,.236,1.756,3.276,3.276,0,0,1-.57,1.748c-.334.524-.736.974-1.077,1.447a3.813,3.813,0,0,0-.723,1.516,11.8,11.8,0,0,0,.136,3.248,5.7,5.7,0,0,1-.054,1.561,4.66,4.66,0,0,1-.528,1.379c-.468.827-1.023,1.5-1.427,2.18a9.957,9.957,0,0,0-1.181,3.524c-.068.42-.124.756-.165,1.01A1.942,1.942,0,0,1,157.8,348.194Z" transform="translate(-157.796 -317.14)" fill="#455a64"/></g><g transform="translate(47.083 12.439)"><path d="M171.922,324.513a4.43,4.43,0,0,0-1.168.165,4.649,4.649,0,0,0-2.455,1.961,10.242,10.242,0,0,0-1.279,4.559,57.9,57.9,0,0,1-.87,5.853,94.488,94.488,0,0,1-2.831,10.365c-.426,1.307-.786,2.359-1.039,3.085l-.3.833a1.471,1.471,0,0,1-.12.285,1.45,1.45,0,0,1,.073-.3l.254-.847.963-3.108c.8-2.625,1.92-6.257,2.755-10.361.418-2.052.7-4.023.886-5.83a10.238,10.238,0,0,1,1.36-4.63,4.652,4.652,0,0,1,2.575-1.957,3.154,3.154,0,0,1,.885-.109A1.447,1.447,0,0,1,171.922,324.513Z" transform="translate(-161.861 -324.476)" fill="#e0e0e0"/></g><g transform="translate(0 38.306)"><g transform="translate(12.495)"><path d="M116.237,378.929h9.2s-5.58,44.315-36.393,44.164l.4-8.638S110.4,413.155,116.237,378.929Z" transform="translate(-89.048 -378.929)" fill="#e8505b"/></g><g transform="translate(0 32.397)"><g transform="translate(0 0.476)"><g transform="translate(0.138 0)"><path d="M1.832,0h.131A1.832,1.832,0,0,1,3.794,1.832V9.267a0,0,0,0,1,0,0H0a0,0,0,0,1,0,0V1.832A1.832,1.832,0,0,1,1.832,0Z" transform="translate(0 3.793) rotate(-88.993)" fill="#e8505b"/></g><g transform="translate(0.138 0)" opacity="0.3"><path d="M1.832,0h.131A1.832,1.832,0,0,1,3.794,1.832V9.267a0,0,0,0,1,0,0H0a0,0,0,0,1,0,0V1.832A1.832,1.832,0,0,1,1.832,0Z" transform="translate(0 3.793) rotate(-88.993)"/></g><g transform="translate(0 5.922)"><path d="M2.854,0h0A2.854,2.854,0,0,1,5.709,2.854V9.267a0,0,0,0,1,0,0H0a0,0,0,0,1,0,0V2.854A2.854,2.854,0,0,1,2.854,0Z" transform="translate(0 5.708) rotate(-88.993)" fill="#e8505b"/></g><g transform="translate(5.642 0.099)"><rect width="9.687" height="3.658" transform="translate(0 9.686) rotate(-88.993)" fill="#e8505b"/></g></g><g transform="translate(7.722 0)"><rect width="5.909" height="13.151" transform="translate(0 0.072) rotate(-0.699)" fill="#263238"/></g><g transform="translate(7.913 11.715)"><path d="M85.216,471.843a11.115,11.115,0,0,1-2.9.2,16.574,16.574,0,0,1-2.909-.119,17.919,17.919,0,0,1,2.908-.128c.8,0,1.529,0,2.055.012l.622.018A1.15,1.15,0,0,1,85.216,471.843Z" transform="translate(-79.403 -471.792)" fill="#455a64"/></g><g transform="translate(7.884 9.348)"><path d="M85.155,466.86a11.128,11.128,0,0,1-2.9.2,16.55,16.55,0,0,1-2.909-.119,17.88,17.88,0,0,1,2.908-.129c.8,0,1.529,0,2.055.012l.622.018A1.116,1.116,0,0,1,85.155,466.86Z" transform="translate(-79.342 -466.808)" fill="#455a64"/></g><g transform="translate(7.953 6.958)"><path d="M85.3,461.829a11.129,11.129,0,0,1-2.9.2,16.467,16.467,0,0,1-2.909-.119,17.985,17.985,0,0,1,2.908-.128c.8,0,1.529,0,2.055.012l.622.018A1.081,1.081,0,0,1,85.3,461.829Z" transform="translate(-79.486 -461.777)" fill="#455a64"/></g><g transform="translate(7.827 4.614)"><path d="M85.034,456.893a11.133,11.133,0,0,1-2.9.2,16.538,16.538,0,0,1-2.909-.119,17.849,17.849,0,0,1,2.908-.128c.8,0,1.529,0,2.055.012l.622.018A1.119,1.119,0,0,1,85.034,456.893Z" transform="translate(-79.221 -456.842)" fill="#455a64"/></g><g transform="translate(7.913 2.372)"><path d="M85.216,452.174a11.093,11.093,0,0,1-2.9.2,16.458,16.458,0,0,1-2.909-.119,17.98,17.98,0,0,1,2.908-.128c.8,0,1.529,0,2.055.012l.622.018A1.147,1.147,0,0,1,85.216,452.174Z" transform="translate(-79.403 -452.123)" fill="#455a64"/></g></g><g transform="translate(15.505 34.97)"><path d="M96.837,461.3c.013,0,.022.077.028.238l.009.276-.083-.269a40.078,40.078,0,0,1-.9-4.349c-.2-1.277-.344-2.44-.421-3.283a6.952,6.952,0,0,1-.064-1.371,8.2,8.2,0,0,1,.238,1.35c.121.837.288,1.992.492,3.264.328,2.062.661,3.8.733,4.373l-.074.006C96.808,461.378,96.824,461.3,96.837,461.3Z" transform="translate(-95.385 -452.545)" fill="#263238"/></g><g transform="translate(18.495 33.863)"><path d="M104.511,459.24a90.383,90.383,0,0,1-2.828-9.025,45.483,45.483,0,0,1,1.532,4.476A45.46,45.46,0,0,1,104.511,459.24Z" transform="translate(-101.678 -450.215)" fill="#263238"/></g><g transform="translate(22.173 31.983)"><path d="M113.737,454.982a95.875,95.875,0,0,1-4.312-8.724,47.9,47.9,0,0,1,2.267,4.308A47.875,47.875,0,0,1,113.737,454.982Z" transform="translate(-109.422 -446.257)" fill="#263238"/></g><g transform="translate(25.388 29.619)"><path d="M121.866,448.95a91.979,91.979,0,0,1-5.674-7.667,45.913,45.913,0,0,1,2.936,3.76A46.251,46.251,0,0,1,121.866,448.95Z" transform="translate(-116.19 -441.281)" fill="#263238"/></g><g transform="translate(28.399 26.809)"><path d="M129.188,442.052a44.98,44.98,0,0,1-3.416-3.255,45.039,45.039,0,0,1-3.241-3.431,45.092,45.092,0,0,1,3.416,3.256A45.123,45.123,0,0,1,129.188,442.052Z" transform="translate(-122.53 -435.365)" fill="#263238"/></g><g transform="translate(30.396 24.298)"><path d="M134.685,434.727a7.645,7.645,0,0,1-1.191-.638l-2.809-1.643-2.812-1.64a7.771,7.771,0,0,1-1.141-.724,7.018,7.018,0,0,1,1.226.571c.741.384,1.752.937,2.852,1.579s2.078,1.251,2.776,1.708A7.042,7.042,0,0,1,134.685,434.727Z" transform="translate(-126.732 -430.079)" fill="#263238"/></g><g transform="translate(32.767 20.721)"><path d="M139.534,426.166a7.038,7.038,0,0,1-1.152-.518c-.7-.342-1.665-.812-2.742-1.311s-2.062-.929-2.775-1.24a7,7,0,0,1-1.141-.542,5.953,5.953,0,0,1,1.207.38c.732.271,1.731.678,2.814,1.178s2.039,1,2.719,1.38A5.84,5.84,0,0,1,139.534,426.166Z" transform="translate(-131.723 -422.55)" fill="#263238"/></g><g transform="translate(34.507 17.338)"><path d="M144.12,417.969a6.577,6.577,0,0,1-1.318-.22c-.806-.173-1.913-.446-3.121-.8s-2.289-.715-3.062-1a6.62,6.62,0,0,1-1.231-.52,7.789,7.789,0,0,1,1.287.355c.786.243,1.871.578,3.075.929s2.3.648,3.093.864A7.857,7.857,0,0,1,144.12,417.969Z" transform="translate(-135.388 -415.427)" fill="#263238"/></g><g transform="translate(35.906 14.257)"><path d="M147.087,410.07a39.418,39.418,0,0,1-4.393-.435,39.6,39.6,0,0,1-4.363-.68,39.424,39.424,0,0,1,4.394.435A39.582,39.582,0,0,1,147.087,410.07Z" transform="translate(-138.331 -408.943)" fill="#263238"/></g><g transform="translate(37.493 10.107)"><path d="M150.35,401.094a6.578,6.578,0,0,1-1.278-.04c-.788-.057-1.874-.152-3.072-.272s-2.283-.243-3.066-.344a6.581,6.581,0,0,1-1.261-.214,6.556,6.556,0,0,1,1.281.04c.787.057,1.873.152,3.071.272s2.28.243,3.063.344A6.612,6.612,0,0,1,150.35,401.094Z" transform="translate(-141.673 -400.206)" fill="#263238"/></g><g transform="translate(38.169 6.69)"><path d="M152.263,393.058a42.469,42.469,0,0,1-4.579.267,42.707,42.707,0,0,1-4.587.02,42.618,42.618,0,0,1,4.58-.267A42.7,42.7,0,0,1,152.263,393.058Z" transform="translate(-143.096 -393.013)" fill="#263238"/></g><g transform="translate(39.2 3.239)"><path d="M153.879,385.766a5.7,5.7,0,0,1-1.252.2c-.778.08-1.858.149-3.053.155s-2.275-.052-3.054-.125a5.717,5.717,0,0,1-1.254-.183,7.325,7.325,0,0,1,1.265.009c.779.028,1.855.057,3.043.052s2.262-.047,3.041-.082A7.377,7.377,0,0,1,153.879,385.766Z" transform="translate(-145.266 -385.748)" fill="#263238"/></g><g transform="translate(14.667 1.317)"><path d="M119.04,381.7a.421.421,0,0,1,.009.119l0,.352c-.008.308.008.765-.031,1.351a35.327,35.327,0,0,1-.583,4.934,37.321,37.321,0,0,1-2.066,7.073A36.849,36.849,0,0,1,105.9,410.055a37.274,37.274,0,0,1-6.059,4.2,35.32,35.32,0,0,1-4.5,2.112c-.543.222-.981.352-1.272.456l-.334.109a.414.414,0,0,1-.116.029.458.458,0,0,1,.108-.053l.325-.132c.285-.12.716-.263,1.252-.5a38.874,38.874,0,0,0,4.447-2.175,37.959,37.959,0,0,0,18.512-25.674,38.793,38.793,0,0,0,.659-4.907c.054-.583.054-1.038.077-1.346.009-.142.017-.257.022-.351A.443.443,0,0,1,119.04,381.7Z" transform="translate(-93.62 -381.701)" fill="#fff"/></g></g></g><g transform="translate(49.941)"><g transform="translate(15.919 23.026)"><path d="M218.267,229.864s-5.095-6.891-16.879-5.87c0,0,11.995-9.214,4.937-18.682,0,0,15.149,4.476,15.321-14.46,0,0,2.754,17.559,17.043,12.566,0,0,1.014,13.951,10.9,11.368-4.785,4.712-9.443,8.859-8.494,14.874" transform="translate(-201.388 -190.852)" fill="#e8505b"/></g><g transform="translate(15.919 23.026)" opacity="0.8"><path d="M218.267,229.864s-5.095-6.891-16.879-5.87c0,0,11.995-9.214,4.937-18.682,0,0,15.149,4.476,15.321-14.46,0,0,2.754,17.559,17.043,12.566,0,0,1.014,13.951,10.9,11.368-4.785,4.712-9.443,8.859-8.494,14.874" transform="translate(-201.388 -190.852)" fill="#fff"/></g><g transform="translate(23.212 30.524)"><path d="M226.327,238.151s-.121-8.037-9.587-7.217c0,0,8.8-5.076,3.135-12.681,0,0,12.168,3.6,12.307-11.615,0,0,2.213,14.1,13.689,10.094,0,0-1.369,10.233,6.575,8.158-3.843,3.785-5.4,8.09-4.639,12.921" transform="translate(-216.74 -206.637)" fill="#e8505b"/></g><g transform="translate(23.212 30.524)" opacity="0.6"><path d="M226.327,238.151s-.121-8.037-9.587-7.217c0,0,8.8-5.076,3.135-12.681,0,0,12.168,3.6,12.307-11.615,0,0,2.213,14.1,13.689,10.094,0,0-1.369,10.233,6.575,8.158-3.843,3.785-5.4,8.09-4.639,12.921" transform="translate(-216.74 -206.637)" fill="#fff"/></g><g transform="translate(8.139 2.124)"><g transform="translate(34.308 6.605)"><path d="M263.131,160.756a1.587,1.587,0,0,1-.115.3l-.372.838c-.167.361-.367.8-.579,1.329s-.477,1.11-.721,1.778-.534,1.39-.8,2.185c-.284.786-.534,1.643-.81,2.541-.517,1.806-1.011,3.813-1.4,5.946s-.615,4.19-.76,6.063c-.055.938-.119,1.829-.127,2.665-.032.835-.025,1.614-.016,2.324s.037,1.353.055,1.918.049,1.05.079,1.447c.023.377.042.68.057.915a1.578,1.578,0,0,1,0,.321,1.585,1.585,0,0,1-.053-.316c-.026-.234-.06-.536-.1-.912-.046-.4-.093-.882-.121-1.447s-.086-1.209-.093-1.922-.037-1.494-.014-2.333c0-.839.056-1.734.1-2.676a54.249,54.249,0,0,1,2.17-12.058c.284-.9.542-1.758.836-2.544.271-.794.559-1.52.827-2.181s.529-1.251.757-1.769.438-.959.619-1.314l.414-.819A1.576,1.576,0,0,1,263.131,160.756Z" transform="translate(-257.233 -160.756)" fill="#e8505b"/></g><path d="M191.216,150.2a11.908,11.908,0,0,0-6.2-3.329,3.207,3.207,0,0,1,1.058.1,8.919,8.919,0,0,1,4.477,2.4A3.2,3.2,0,0,1,191.216,150.2Z" transform="translate(-185.011 -146.851)" fill="#e8505b"/><g transform="translate(9.853 24.023)"><path d="M205.753,197.424a1.153,1.153,0,0,1,.2.186l.529.567c.459.493,1.1,1.231,1.856,2.165s1.629,2.077,2.547,3.379,1.86,2.781,2.785,4.37,1.719,3.154,2.4,4.593,1.234,2.766,1.662,3.892.754,2.044.953,2.688l.228.741a.136.136,0,1,1-.048.016l-.272-.725c-.227-.633-.574-1.542-1.025-2.655s-1.024-2.424-1.7-3.858-1.5-2.979-2.411-4.567-1.865-3.053-2.759-4.365-1.752-2.457-2.5-3.4-1.356-1.7-1.792-2.211l-.494-.6A1.085,1.085,0,0,1,205.753,197.424Z" transform="translate(-205.753 -197.423)" fill="#e8505b"/></g><g transform="translate(37.215 26.449)"><path d="M268.653,202.531a.862.862,0,0,1-.1.217l-.322.6c-.144.256-.317.571-.5.945s-.415.789-.628,1.269c-.455.945-.937,2.1-1.41,3.4a36.74,36.74,0,0,0-1.975,8.774c-.13,1.379-.189,2.628-.183,3.677-.013.524.015,1,.023,1.415s.028.776.049,1.068c.014.27.025.493.035.676a.871.871,0,0,1,0,.238.851.851,0,0,1-.045-.233c-.022-.182-.049-.4-.081-.673-.036-.292-.072-.651-.091-1.069s-.062-.894-.06-1.421a33.754,33.754,0,0,1,.131-3.7,34.529,34.529,0,0,1,1.988-8.83,33.716,33.716,0,0,1,1.467-3.4c.224-.477.464-.89.663-1.258s.383-.678.541-.927l.362-.573A.871.871,0,0,1,268.653,202.531Z" transform="translate(-263.353 -202.531)" fill="#e8505b"/></g><g transform="translate(46.129 28.288)"><path d="M287.834,206.4a12.694,12.694,0,0,1-1.028.891,17.615,17.615,0,0,0-4.046,5.081,12.7,12.7,0,0,1-.638,1.2,5.3,5.3,0,0,1,.482-1.281,14.453,14.453,0,0,1,4.091-5.137A5.283,5.283,0,0,1,287.834,206.4Z" transform="translate(-282.118 -206.402)" fill="#e8505b"/></g><g transform="translate(12.177 40.406)"><path d="M210.646,231.913a5.525,5.525,0,0,1,1.161.725,16.434,16.434,0,0,1,4.408,4.887,5.506,5.506,0,0,1,.6,1.23,11.692,11.692,0,0,1-.751-1.138,20.76,20.76,0,0,0-4.366-4.84A11.8,11.8,0,0,1,210.646,231.913Z" transform="translate(-210.645 -231.911)" fill="#e8505b"/></g><g transform="translate(5.037 34.698)"><path d="M200.348,221.186c-.037.066-1.006-.475-2.316-.808s-2.418-.338-2.418-.414a6.858,6.858,0,0,1,4.734,1.222Z" transform="translate(-195.614 -219.896)" fill="#e8505b"/></g></g><g transform="translate(7.377 20.148)"><path d="M184.168,187.888a3.178,3.178,0,0,1,.311-.787l-.429-.656.9-.933.67.408a3.2,3.2,0,0,1,.776-.337l.161-.768,1.3-.021.186.762a3.163,3.163,0,0,1,.787.311l.657-.429.932.9-.408.67a3.206,3.206,0,0,1,.337.776l.768.161.021,1.3-.762.186a3.164,3.164,0,0,1-.311.787l.429.657-.9.932-.67-.408a3.162,3.162,0,0,1-.776.337l-.161.768-1.3.021-.186-.761a3.183,3.183,0,0,1-.787-.312l-.657.429-.932-.9.408-.67a3.2,3.2,0,0,1-.337-.776l-.768-.161-.021-1.3.762-.186Zm1.711.736a1.393,1.393,0,1,0,1.37-1.415A1.393,1.393,0,0,0,185.879,188.624Z" transform="translate(-183.406 -184.794)" fill="#e8505b" fill-rule="evenodd"/></g><g transform="translate(61.995 56.06)"><path d="M298.946,262.677a2.344,2.344,0,0,1,.229-.581l-.317-.484.666-.688.495.3a2.344,2.344,0,0,1,.573-.248l.119-.567.958-.015.137.562a2.329,2.329,0,0,1,.581.23l.485-.317.688.666-.3.495a2.369,2.369,0,0,1,.248.572l.566.119.016.958-.562.137a2.364,2.364,0,0,1-.23.58l.317.485-.666.688-.495-.3a2.333,2.333,0,0,1-.573.248l-.119.567-.958.015-.137-.562a2.33,2.33,0,0,1-.581-.23l-.485.317-.688-.666.3-.495a2.364,2.364,0,0,1-.248-.573l-.566-.118-.016-.958.562-.137Zm1.262.543a1.028,1.028,0,1,0,1.011-1.044A1.028,1.028,0,0,0,300.209,263.22Z" transform="translate(-298.384 -260.394)" fill="#455a64" fill-rule="evenodd"/></g><g transform="translate(50.9 15.584)"><g transform="translate(0 1.532)"><g transform="translate(0.002 0.156)"><rect width="4.954" height="2.24" transform="translate(0 4.475) rotate(-64.589)" fill="#e0e0e0"/></g><path d="M275.03,183.043a5.152,5.152,0,0,1,.585.232c.36.153.865.37,1.476.648l-.119.043c.531-1.167,1.269-2.751,2.095-4.489-.052-.148.072.2.058.164h0l0,0-.009,0-.017-.008-.033-.016-.066-.032-.132-.063-.263-.125-.514-.246-.979-.47.156-.056c-.615,1.276-1.161,2.368-1.56,3.154l-.475.926a2.5,2.5,0,0,1-.2.344,1.411,1.411,0,0,1,.121-.322l.406-.929c.355-.8.871-1.946,1.493-3.274l.05-.106.107.05.983.462.515.244.263.124.133.063.067.031.033.016.017.008.008,0,0,0h0c-.012-.036.111.312.058.165-.826,1.738-1.587,3.311-2.156,4.46l-.04.082-.079-.039c-.639-.316-1.145-.58-1.484-.759A3.365,3.365,0,0,1,275.03,183.043Z" transform="translate(-275.027 -178.412)" fill="#263238"/></g><g transform="translate(1.048)"><g transform="translate(0.153 0.068)"><path d="M280.31,175.53a2.068,2.068,0,0,0-2.754.98l3.735,1.774A2.068,2.068,0,0,0,280.31,175.53Z" transform="translate(-277.556 -175.329)" fill="#e0e0e0"/></g><path d="M280.141,175.454c.005-.01.086.015.228.085a1.934,1.934,0,0,1,.534.428,2.072,2.072,0,0,1,.472.944,2.15,2.15,0,0,1-.151,1.347l-.047.1-.105-.049-1.871-.878-1.864-.9-.1-.05.051-.1a2.147,2.147,0,0,1,.949-.968,2.072,2.072,0,0,1,1.03-.23,1.93,1.93,0,0,1,.668.143c.144.066.215.113.209.124a3.916,3.916,0,0,0-.878-.129,2.028,2.028,0,0,0-.94.26,2,2,0,0,0-.833.9l-.054-.152,1.872.878,1.863.9-.152.054a2,2,0,0,0,.17-1.212,2.027,2.027,0,0,0-.392-.894A3.92,3.92,0,0,0,280.141,175.454Z" transform="translate(-277.233 -175.186)" fill="#263238"/></g><g transform="translate(3.587 0.11)"><g transform="translate(0.006 0.011)"><path d="M283,176.769a1.3,1.3,0,0,0-.409-1.329" transform="translate(-282.59 -175.44)" fill="#e0e0e0"/></g><path d="M282.584,175.428c.031-.06.382.13.515.569s-.046.792-.105.76-.017-.335-.131-.687S282.541,175.484,282.584,175.428Z" transform="translate(-282.578 -175.417)" fill="#263238"/></g><g transform="translate(1.717 2.309)"><path d="M278.643,180.056a18.418,18.418,0,0,1,2.143.964,2.188,2.188,0,0,1-1.158-.291C279.022,180.459,278.606,180.11,278.643,180.056Z" transform="translate(-278.641 -180.047)" fill="#263238"/></g><g transform="translate(1.467 2.835)"><path d="M278.118,181.162a18.507,18.507,0,0,1,2.143.964,2.188,2.188,0,0,1-1.158-.291C278.5,181.565,278.08,181.216,278.118,181.162Z" transform="translate(-278.116 -181.153)" fill="#263238"/></g><g transform="translate(1.217 3.36)"><path d="M277.592,182.268a18.461,18.461,0,0,1,2.143.964,2.189,2.189,0,0,1-1.158-.291C277.971,182.671,277.555,182.322,277.592,182.268Z" transform="translate(-277.59 -182.259)" fill="#263238"/></g><g transform="translate(0.968 3.885)"><path d="M277.067,183.373a18.524,18.524,0,0,1,2.143.965,2.188,2.188,0,0,1-1.158-.291C277.446,183.776,277.029,183.428,277.067,183.373Z" transform="translate(-277.065 -183.365)" fill="#263238"/></g><g transform="translate(0.718 4.411)"><path d="M276.541,184.48a18.461,18.461,0,0,1,2.143.964,2.189,2.189,0,0,1-1.158-.291C276.921,184.883,276.5,184.534,276.541,184.48Z" transform="translate(-276.539 -184.471)" fill="#263238"/></g><g transform="translate(0.469 4.936)"><path d="M276.016,185.586a18.418,18.418,0,0,1,2.143.964A2.189,2.189,0,0,1,277,186.26C276.4,185.989,275.978,185.64,276.016,185.586Z" transform="translate(-276.014 -185.577)" fill="#263238"/></g><g transform="translate(0.219 5.462)"><path d="M275.49,186.692a18.468,18.468,0,0,1,2.143.964,2.19,2.19,0,0,1-1.158-.291C275.87,187.095,275.453,186.746,275.49,186.692Z" transform="translate(-275.488 -186.683)" fill="#263238"/></g></g><g transform="translate(0 55.735)"><g transform="translate(1.526)"><g transform="translate(0.113 0.118)"><rect width="4.954" height="2.24" transform="translate(0 2.046) rotate(-24.4)" fill="#e0e0e0"/></g><path d="M176.639,261.868a5.215,5.215,0,0,1-.3-.555c-.176-.349-.422-.841-.71-1.448l.119.045c-1.159.549-2.745,1.283-4.5,2.077l.061-.163h0v0l0,0,0,.009.008.017.015.034.03.067.06.133.12.265.235.52.444.99-.155-.058c1.293-.578,2.415-1.059,3.227-1.4l.961-.4a2.486,2.486,0,0,1,.371-.137,1.391,1.391,0,0,1-.3.168l-.91.448c-.787.382-1.921.924-3.253,1.537l-.106.049-.049-.107-.453-.987-.237-.519-.12-.265-.061-.133-.03-.067-.015-.034-.008-.017,0-.009,0,0v0h0c-.014.036.116-.31.062-.164,1.752-.795,3.349-1.5,4.525-2.015l.084-.036.035.081c.284.653.5,1.181.645,1.537A3.4,3.4,0,0,1,176.639,261.868Z" transform="translate(-171.089 -259.71)" fill="#263238"/></g><g transform="translate(0 1.22)"><g transform="translate(0.067 0.153)"><path d="M168.2,265.337a2.067,2.067,0,0,0,2.737,1.029l-1.708-3.765A2.067,2.067,0,0,0,168.2,265.337Z" transform="translate(-168.017 -262.601)" fill="#e0e0e0"/></g><path d="M168.128,265.168c-.01.005-.057-.066-.12-.212a1.945,1.945,0,0,1-.132-.671,2.076,2.076,0,0,1,.249-1.026,2.147,2.147,0,0,1,.984-.932l.1-.049.048.105.863,1.879c.3.665.582,1.3.845,1.887l.048.106-.1.045a2.151,2.151,0,0,1-1.35.127,2.072,2.072,0,0,1-.936-.489,1.936,1.936,0,0,1-.418-.541c-.067-.143-.091-.225-.08-.23a3.918,3.918,0,0,0,.588.666,2.028,2.028,0,0,0,.886.408,2,2,0,0,0,1.216-.148l-.057.151-.863-1.879-.845-1.886.151.057a2,2,0,0,0-.912.817,2.029,2.029,0,0,0-.277.935A3.918,3.918,0,0,0,168.128,265.168Z" transform="translate(-167.876 -262.279)" fill="#263238"/></g><g transform="translate(0.32 3.164)"><g transform="translate(0.096 0.014)"><path d="M169.315,266.4a1.3,1.3,0,0,0-.545,1.279" transform="translate(-168.752 -266.399)" fill="#e0e0e0"/></g><path d="M168.664,267.663c-.062.026-.208-.345-.026-.767s.546-.575.571-.513-.2.267-.343.609S168.733,267.649,168.664,267.663Z" transform="translate(-168.55 -266.371)" fill="#263238"/></g><g transform="translate(2.26 1.865)"><path d="M173.658,265.759a18.485,18.485,0,0,1-1.015-2.12c.053-.039.411.369.7.969A2.193,2.193,0,0,1,173.658,265.759Z" transform="translate(-172.635 -263.636)" fill="#263238"/></g><g transform="translate(2.79 1.625)"><path d="M174.773,265.253a18.475,18.475,0,0,1-1.015-2.12c.053-.039.411.37.7.969A2.193,2.193,0,0,1,174.773,265.253Z" transform="translate(-173.75 -263.131)" fill="#263238"/></g><g transform="translate(3.32 1.385)"><path d="M175.888,264.747a18.7,18.7,0,0,1-1.015-2.12c.053-.039.411.37.7.969A2.187,2.187,0,0,1,175.888,264.747Z" transform="translate(-174.865 -262.625)" fill="#263238"/></g><g transform="translate(3.849 1.144)"><path d="M177,264.241a18.691,18.691,0,0,1-1.015-2.12c.054-.039.411.37.7.969A2.189,2.189,0,0,1,177,264.241Z" transform="translate(-175.98 -262.119)" fill="#263238"/></g><g transform="translate(4.379 0.904)"><path d="M178.118,263.735a18.744,18.744,0,0,1-1.015-2.12c.054-.039.411.37.7.97A2.183,2.183,0,0,1,178.118,263.735Z" transform="translate(-177.095 -261.613)" fill="#263238"/></g><g transform="translate(4.909 0.664)"><path d="M179.233,263.23a18.581,18.581,0,0,1-1.014-2.12c.053-.039.411.369.7.969A2.184,2.184,0,0,1,179.233,263.23Z" transform="translate(-178.211 -261.107)" fill="#263238"/></g><g transform="translate(5.439 0.423)"><path d="M180.349,262.724a18.471,18.471,0,0,1-1.015-2.12c.053-.039.411.369.7.969A2.193,2.193,0,0,1,180.349,262.724Z" transform="translate(-179.326 -260.601)" fill="#263238"/></g></g><g transform="translate(15.984)"><path d="M201.524,142.38s5.753,5.684,7.184,9.23c1.362,3.376,2.266,6.521,2.266,6.521s1.483-2.594,3.15,0,9.549,34.093,10.846,45.952h5.022s-2.341-19.825-3.452-22.049a9.363,9.363,0,0,0-2.038-2.965s-1.3-8.339-2.224-9.635a6.25,6.25,0,0,0-2.038-1.853s-1.667-9.08-4.077-10.933-4.261-.926-4.261-.926S210.367,146.014,201.524,142.38Z" transform="translate(-201.524 -142.38)" fill="#e8505b"/></g><g transform="translate(56.698 42.066)"><path d="M293.616,230.946a17.625,17.625,0,0,0-6.381,2.9,3.407,3.407,0,0,1,.773-.7,11.493,11.493,0,0,1,4.569-2.075A3.4,3.4,0,0,1,293.616,230.946Z" transform="translate(-287.234 -230.934)" fill="#455a64"/></g><g transform="translate(56.496 41.076)"><path d="M293.2,228.857a20.786,20.786,0,0,0-6.387,3.539,3.724,3.724,0,0,1,.762-.774,13.1,13.1,0,0,1,4.565-2.53A3.688,3.688,0,0,1,293.2,228.857Z" transform="translate(-286.808 -228.85)" fill="#455a64"/></g><g transform="translate(57.466 43.449)"><path d="M293.3,233.9c0,.076-1.049.092-2.276.446s-2.133.881-2.171.816A6.3,6.3,0,0,1,293.3,233.9Z" transform="translate(-288.849 -233.846)" fill="#455a64"/></g><g transform="translate(50.654 43.468)"><path d="M274.684,252.07c-.837-6.654,1.345-14.446,6.665-18.184l1.267,1.032s-6.61,3.932-6.126,17.2" transform="translate(-274.51 -233.886)" fill="#263238"/></g><g transform="translate(18.201 50.225)"><g transform="translate(0.611 1.837)"><path d="M212.195,251.989a10.577,10.577,0,0,0-4.713,2.9,6.526,6.526,0,0,1,4.713-2.9Z" transform="translate(-207.479 -251.977)" fill="#455a64"/></g><g transform="translate(0 1.249)"><path d="M211.389,250.748a24.327,24.327,0,0,1-2.587,1,24.38,24.38,0,0,1-2.61.938,18.088,18.088,0,0,1,5.2-1.939Z" transform="translate(-206.192 -250.739)" fill="#455a64"/></g><g transform="translate(3.298)"><path d="M229.669,261.178l-2.3-.6a5.237,5.237,0,0,0-.618-4.027,5.09,5.09,0,0,0-1.121-1.257,4.366,4.366,0,0,1-2.521,3.384,3.736,3.736,0,0,1-3.158-.2,3.3,3.3,0,0,1-1.726-2.246,3.725,3.725,0,0,1,1.841-3.811,4.691,4.691,0,0,1,1.739-.593c-.056-.047-.113-.092-.172-.137a6.355,6.355,0,0,0-7.164-.194l-1.338-1.962a8.7,8.7,0,0,1,9.944.268,6.993,6.993,0,0,1,2.065,2.48,7.508,7.508,0,0,1,4.525,8.89Zm-7.078-7.027a2.571,2.571,0,0,0-1.313.318,1.384,1.384,0,0,0-.72,1.308.98.98,0,0,0,.517.61,1.372,1.372,0,0,0,1.126.1,2.137,2.137,0,0,0,1.1-2.176c0-.031-.007-.062-.012-.094A4.055,4.055,0,0,0,222.591,254.151Z" transform="translate(-213.134 -248.109)" fill="#263238"/></g></g><g transform="translate(18.747 19.179)"><path d="M207.341,182.756a4.012,4.012,0,0,1,.637.337c.4.227.972.588,1.653,1.063a28.363,28.363,0,0,1,2.3,1.793,29.277,29.277,0,0,1,4.785,5.29,28.416,28.416,0,0,1,1.554,2.469c.4.725.707,1.326.892,1.751a3.977,3.977,0,0,1,.272.668,4.1,4.1,0,0,1-.358-.625c-.211-.411-.536-1-.957-1.706s-.955-1.536-1.589-2.424a31.852,31.852,0,0,0-4.751-5.251c-.82-.719-1.586-1.336-2.253-1.823s-1.214-.872-1.6-1.123A3.972,3.972,0,0,1,207.341,182.756Z" transform="translate(-207.34 -182.754)" fill="#e8505b"/></g></g><g transform="translate(56.393 61.703)"><g transform="translate(0 10.407)"><path d="M4.662,0h0a0,0,0,0,1,0,0V23.995a0,0,0,0,1,0,0h0A4.662,4.662,0,0,1,0,19.333V4.662A4.662,4.662,0,0,1,4.662,0Z" fill="#263238"/></g><g transform="translate(73.348 10.407)"><path d="M0,0H0A4.662,4.662,0,0,1,4.662,4.662V19.333A4.662,4.662,0,0,1,0,23.995H0a0,0,0,0,1,0,0V0A0,0,0,0,1,0,0Z" fill="#263238"/></g><g transform="translate(3.434 5.721)"><rect width="70.966" height="52.249" rx="14.119" fill="#e8505b"/></g><g transform="translate(31.683 11.274)"><path d="M264.421,296.005a16.263,16.263,0,0,0-16.264,16.264h32.527A16.263,16.263,0,0,0,264.421,296.005Z" transform="translate(-248.157 -296.005)" fill="#fff"/></g><g transform="translate(31.769 11.922)"><g transform="translate(26.804 14.819)"><path d="M307.238,328.57c.683-.007,1.3-.006,1.749,0a3.48,3.48,0,0,1,.725.046,3.533,3.533,0,0,1-.724.052c-.447.013-1.066.02-1.75.02l-1.749-.015-.53-.015a.808.808,0,0,1-.194-.018.765.765,0,0,1,.194-.02l.53-.02Z" transform="translate(-304.765 -328.565)" fill="#e0e0e0"/></g><g transform="translate(25.946 8.973)"><path d="M305.154,317.2a10.252,10.252,0,0,1,2.3-.929,10.322,10.322,0,0,1-2.2,1.148,16.9,16.9,0,0,1-2.3.929A16.825,16.825,0,0,1,305.154,317.2Z" transform="translate(-302.959 -316.259)" fill="#e0e0e0"/></g><g transform="translate(23.526 4.126)"><path d="M299.429,307.82a10.46,10.46,0,0,1,1.743-1.76,10.492,10.492,0,0,1-1.563,1.922,16.413,16.413,0,0,1-1.742,1.759A16.4,16.4,0,0,1,299.429,307.82Z" transform="translate(-297.865 -306.056)" fill="#e0e0e0"/></g><g transform="translate(19.985 1.044)"><path d="M291.165,301.845a10.563,10.563,0,0,1,.977-2.276,10.6,10.6,0,0,1-.75,2.361,16.128,16.128,0,0,1-.977,2.275A16.127,16.127,0,0,1,291.165,301.845Z" transform="translate(-290.41 -299.568)" fill="#e0e0e0"/></g><g transform="translate(15.753)"><path d="M281.5,299.845a10.711,10.711,0,0,1,.121-2.475,10.65,10.65,0,0,1,.121,2.475,15.855,15.855,0,0,1-.121,2.473A15.86,15.86,0,0,1,281.5,299.845Z" transform="translate(-281.502 -297.37)" fill="#e0e0e0"/></g><g transform="translate(10.026 1.044)"><path d="M270.205,301.928a10.568,10.568,0,0,1-.75-2.361,10.538,10.538,0,0,1,.977,2.276,16.152,16.152,0,0,1,.75,2.36A16.12,16.12,0,0,1,270.205,301.928Z" transform="translate(-269.445 -299.567)" fill="#e0e0e0"/></g><g transform="translate(4.914 4.127)"><path d="M260.25,307.983a10.455,10.455,0,0,1-1.563-1.922,10.416,10.416,0,0,1,1.743,1.76,16.347,16.347,0,0,1,1.562,1.921A16.243,16.243,0,0,1,260.25,307.983Z" transform="translate(-258.683 -306.058)" fill="#e0e0e0"/></g><g transform="translate(1.313 8.974)"><path d="M253.3,317.419a10.3,10.3,0,0,1-2.2-1.148,10.267,10.267,0,0,1,2.3.928,16.827,16.827,0,0,1,2.194,1.148A16.917,16.917,0,0,1,253.3,317.419Z" transform="translate(-251.102 -316.262)" fill="#e0e0e0"/></g><g transform="translate(0 14.819)"><path d="M250.813,328.69c-.684,0-1.3-.007-1.75-.02a3.537,3.537,0,0,1-.724-.052,3.48,3.48,0,0,1,.725-.046c.448-.009,1.066-.01,1.75,0l1.749.033.53.02a.771.771,0,0,1,.195.02.815.815,0,0,1-.195.018l-.53.015Z" transform="translate(-248.339 -328.565)" fill="#e0e0e0"/></g></g><g transform="translate(16.511 11.964)"><path d="M220.535,299.618a2.159,2.159,0,1,1-2.159-2.159A2.159,2.159,0,0,1,220.535,299.618Z" transform="translate(-216.218 -297.459)" fill="#fff"/></g><g transform="translate(16.511 18.472)"><path d="M220.535,313.318a2.159,2.159,0,1,1-2.159-2.159A2.159,2.159,0,0,1,220.535,313.318Z" transform="translate(-216.218 -311.159)" fill="#455a64"/></g><g transform="translate(17.353 31.024)"><path d="M262.377,360.021s-.006-.14-.01-.4-.006-.659-.01-1.166c-.006-1.028-.013-2.528-.023-4.457-.012-3.86-.029-9.427-.049-16.291l.092.092-44.26.031h0l.123-.124c0,7.869-.005,15.419-.007,22.317l-.116-.116,31.787.056,9.17.032,2.451.014.636.007c.143,0,.22.007.22.007s-.067,0-.206.007l-.622.007-2.427.014-9.143.032-31.865.056H218v-.117c0-6.9,0-14.448-.007-22.317v-.123h.127l44.26.031h.093v.092c-.021,6.887-.038,12.474-.049,16.347-.01,1.92-.018,3.413-.023,4.436q-.006.749-.01,1.149C262.384,359.894,262.377,360.021,262.377,360.021Z" transform="translate(-217.99 -337.581)" fill="#263238"/></g><g transform="translate(10.757 57.869)"><path d="M0,0H56.32a0,0,0,0,1,0,0V0a3.241,3.241,0,0,1-3.241,3.241H3.241A3.241,3.241,0,0,1,0,0V0A0,0,0,0,1,0,0Z" fill="#263238"/></g><g transform="translate(56.796 32.332)"><g transform="translate(0.199 1.03)" opacity="0.3"><path d="M301.453,343.421a1.341,1.341,0,0,0,.921,1.414,1.481,1.481,0,0,0,1.61-.591,1.655,1.655,0,0,0,.022-1.74,1.643,1.643,0,0,1-.372,1.113,1.214,1.214,0,0,1-1.071.421.966.966,0,0,1-.805-.779" transform="translate(-301.442 -342.504)"/></g><g transform="translate(0.124 0.106)"><path d="M303.91,341.871a1.313,1.313,0,1,1-1.313-1.313A1.313,1.313,0,0,1,303.91,341.871Z" transform="translate(-301.285 -340.558)" fill="#e0e0e0"/></g><path d="M303.773,341.753c-.021,0-.027-.116-.088-.308a1.31,1.31,0,0,0-.484-.665,1.23,1.23,0,0,0-1.15-.152,1.2,1.2,0,0,0,0,2.251,1.23,1.23,0,0,0,1.15-.152,1.309,1.309,0,0,0,.484-.665c.061-.192.067-.309.088-.309s.041.118.006.332a1.308,1.308,0,0,1-.471.78,1.393,1.393,0,0,1-1.333.227,1.42,1.42,0,0,1,0-2.68,1.392,1.392,0,0,1,1.333.227,1.306,1.306,0,0,1,.471.78C303.814,341.636,303.786,341.754,303.773,341.753Z" transform="translate(-301.024 -340.335)" fill="#263238"/><g transform="translate(0.933 0.836)"><path d="M304.1,342.116c.024.067-.288.228-.575.531s-.444.614-.512.592,0-.418.334-.764S304.082,342.052,304.1,342.116Z" transform="translate(-302.987 -342.095)" fill="#263238"/></g><g transform="translate(0.831 0.976)"><path d="M303.984,343.242c-.059.039-.278-.2-.6-.416s-.624-.333-.609-.4.38-.052.748.2S304.041,343.209,303.984,343.242Z" transform="translate(-302.773 -342.39)" fill="#263238"/></g></g><g transform="translate(57.412 48.574)"><g transform="translate(0.199 1.03)" opacity="0.3"><path d="M302.75,377.613a1.342,1.342,0,0,0,.921,1.414,1.482,1.482,0,0,0,1.61-.591,1.654,1.654,0,0,0,.022-1.74,1.642,1.642,0,0,1-.372,1.113,1.213,1.213,0,0,1-1.07.421.966.966,0,0,1-.806-.779" transform="translate(-302.739 -376.696)"/></g><g transform="translate(0.124 0.106)"><circle cx="1.313" cy="1.313" r="1.313" fill="#e0e0e0"/></g><path d="M305.07,375.945c-.021,0-.026-.116-.087-.309a1.315,1.315,0,0,0-.484-.665,1.231,1.231,0,0,0-1.149-.152,1.2,1.2,0,0,0,0,2.251,1.229,1.229,0,0,0,1.149-.152,1.315,1.315,0,0,0,.484-.665c.061-.192.066-.309.087-.309s.042.118.006.332a1.308,1.308,0,0,1-.471.78,1.393,1.393,0,0,1-1.333.227,1.42,1.42,0,0,1,0-2.68,1.393,1.393,0,0,1,1.333.227,1.305,1.305,0,0,1,.471.78C305.112,375.828,305.083,375.946,305.07,375.945Z" transform="translate(-302.321 -374.527)" fill="#263238"/><g transform="translate(0.933 0.836)"><path d="M305.394,376.308c.024.067-.288.228-.575.531s-.443.614-.511.592,0-.418.333-.764S305.379,376.244,305.394,376.308Z" transform="translate(-304.285 -376.287)" fill="#263238"/></g><g transform="translate(0.831 0.976)"><path d="M305.281,377.433c-.059.039-.278-.2-.6-.415s-.624-.333-.609-.4.381-.052.748.2S305.338,377.4,305.281,377.433Z" transform="translate(-304.07 -376.582)" fill="#263238"/></g></g><g transform="translate(19.229 32.312)"><g transform="translate(0.198 1.03)" opacity="0.3"><path d="M222.37,343.379a1.343,1.343,0,0,0,.922,1.414,1.482,1.482,0,0,0,1.61-.591,1.655,1.655,0,0,0,.022-1.74,1.643,1.643,0,0,1-.372,1.113,1.212,1.212,0,0,1-1.071.421.966.966,0,0,1-.805-.779" transform="translate(-222.358 -342.462)"/></g><g transform="translate(0.124 0.106)"><circle cx="1.313" cy="1.313" r="1.313" fill="#e0e0e0"/></g><path d="M224.69,341.712c-.021,0-.027-.117-.088-.309a1.313,1.313,0,0,0-.484-.665,1.232,1.232,0,0,0-1.15-.152,1.2,1.2,0,0,0,0,2.252,1.231,1.231,0,0,0,1.15-.152,1.313,1.313,0,0,0,.484-.665c.061-.192.067-.309.088-.309s.041.118.006.332a1.309,1.309,0,0,1-.471.781,1.392,1.392,0,0,1-1.333.227,1.42,1.42,0,0,1,0-2.68,1.392,1.392,0,0,1,1.333.227,1.309,1.309,0,0,1,.471.781C224.731,341.594,224.7,341.713,224.69,341.712Z" transform="translate(-221.941 -340.293)" fill="#263238"/><g transform="translate(0.933 0.836)"><path d="M225.013,342.074c.024.067-.288.229-.575.532s-.444.614-.512.592,0-.418.333-.764S225,342.011,225.013,342.074Z" transform="translate(-223.904 -342.054)" fill="#263238"/></g><g transform="translate(0.831 0.977)"><path d="M224.9,343.2c-.059.039-.278-.2-.6-.416s-.624-.333-.609-.4.381-.052.748.2S224.958,343.168,224.9,343.2Z" transform="translate(-223.69 -342.349)" fill="#263238"/></g></g><g transform="translate(18.951 48.413)"><g transform="translate(0.199 1.03)" opacity="0.3"><path d="M221.783,377.274a1.341,1.341,0,0,0,.921,1.414,1.48,1.48,0,0,0,1.61-.591,1.654,1.654,0,0,0,.022-1.74,1.642,1.642,0,0,1-.372,1.113,1.213,1.213,0,0,1-1.07.421.966.966,0,0,1-.806-.779" transform="translate(-221.772 -376.357)"/></g><g transform="translate(0.124 0.106)"><circle cx="1.313" cy="1.313" r="1.313" fill="#e0e0e0"/></g><path d="M224.1,375.607c-.021,0-.026-.117-.088-.309a1.309,1.309,0,0,0-.484-.665,1.229,1.229,0,0,0-1.149-.152,1.2,1.2,0,0,0,0,2.251,1.229,1.229,0,0,0,1.149-.152,1.308,1.308,0,0,0,.484-.665c.062-.192.067-.309.088-.309s.042.117.006.332a1.305,1.305,0,0,1-.471.78,1.393,1.393,0,0,1-1.333.227,1.42,1.42,0,0,1,0-2.68,1.392,1.392,0,0,1,1.333.227,1.306,1.306,0,0,1,.471.78C224.145,375.489,224.116,375.607,224.1,375.607Z" transform="translate(-221.354 -374.188)" fill="#263238"/><g transform="translate(0.933 0.836)"><path d="M224.427,375.969c.024.067-.288.229-.575.531s-.443.614-.511.592,0-.418.333-.764S224.412,375.9,224.427,375.969Z" transform="translate(-223.318 -375.948)" fill="#263238"/></g><g transform="translate(0.831 0.976)"><path d="M224.314,377.095c-.059.039-.278-.2-.6-.416s-.624-.333-.609-.4.381-.053.748.2S224.371,377.063,224.314,377.095Z" transform="translate(-223.103 -376.243)" fill="#263238"/></g></g><g transform="translate(17.476 53.464)" opacity="0.3"><path d="M218.25,384.942c5.141,1.117,11.143,1.159,16.7.889,2.67-.13,5.6-.3,7.737,1.312.469.353,1.017.812,1.567.608.8-.3.83-1.76,1.684-1.789.427-.015.752.393.891.8a6.259,6.259,0,0,0,.39,1.218c.219.368.737.617,1.077.357.542-.415-.083-1.3.122-1.953.212-.675,1.17-.729,1.826-.461a4.029,4.029,0,0,0,1.994.626,3.833,3.833,0,0,0,1.343-.691,8.355,8.355,0,0,1,4.255-.833c1.544-.027,3.136-.173,4.68-.2Z" transform="translate(-218.25 -384.821)"/></g><g transform="translate(30.907 36.822)"><path d="M268.492,349.79a1.037,1.037,0,0,1-.242.085,5.541,5.541,0,0,0-.689.23,10.562,10.562,0,0,0-2.317,1.314c-.927.647-1.95,1.538-3.245,2.328a7.519,7.519,0,0,1-2.2.913,12.044,12.044,0,0,1-2.538.19,9.516,9.516,0,0,0-4.562,1.407c-1.322.707-2.51,1.35-3.446,1.982a12.476,12.476,0,0,0-2.064,1.69c-.437.456-.647.739-.665.725a1.008,1.008,0,0,1,.137-.217,6.452,6.452,0,0,1,.457-.574,11.342,11.342,0,0,1,2.036-1.769,36.845,36.845,0,0,1,3.437-2.039,15.628,15.628,0,0,1,2.149-1,7.46,7.46,0,0,1,2.514-.452,12.068,12.068,0,0,0,2.492-.179,7.4,7.4,0,0,0,2.135-.873c1.277-.763,2.314-1.642,3.261-2.275a9.762,9.762,0,0,1,2.384-1.261,4.125,4.125,0,0,1,.71-.188A.971.971,0,0,1,268.492,349.79Z" transform="translate(-246.525 -349.788)" fill="#263238"/></g><g transform="translate(32.862 37.07)"><path d="M259.391,353.826a6.057,6.057,0,0,1-1.379-.212,20.963,20.963,0,0,1-6.23-2.5,6.084,6.084,0,0,1-1.142-.8,10.759,10.759,0,0,1,1.23.648,28.4,28.4,0,0,0,6.185,2.483A10.715,10.715,0,0,1,259.391,353.826Z" transform="translate(-250.639 -350.31)" fill="#263238"/></g><g transform="translate(48.759 21.452)"><path d="M284.1,321.058c.362-.192,11.036-3.626,11.036-3.626l-10.2,5.72Z" transform="translate(-284.104 -317.432)" fill="#e8505b"/></g><g transform="translate(44.036 23.928)"><path d="M277.772,322.645a3.609,3.609,0,0,0-3.609,3.609h7.218A3.609,3.609,0,0,0,277.772,322.645Z" transform="translate(-274.163 -322.645)" fill="#263238"/></g><g transform="translate(11.223 6.047)"><path d="M205.21,336.824c-.068,0-.124-11.6-.124-25.91S205.142,285,205.21,285s.124,11.6.124,25.912S205.278,336.824,205.21,336.824Z" transform="translate(-205.086 -285.002)" fill="#263238"/></g><g transform="translate(67.68 6.047)"><path d="M324.059,336.824c-.068,0-.124-11.6-.124-25.91s.056-25.912.124-25.912.123,11.6.123,25.912S324.127,336.824,324.059,336.824Z" transform="translate(-323.935 -285.002)" fill="#263238"/></g><g transform="translate(8.423 11.964)"><circle cx="0.554" cy="0.554" r="0.554" fill="#263238"/></g><g transform="translate(8.423 22.361)"><circle cx="0.554" cy="0.554" r="0.554" fill="#263238"/></g><g transform="translate(8.423 32.758)"><circle cx="0.554" cy="0.554" r="0.554" fill="#263238"/></g><g transform="translate(8.423 43.156)"><circle cx="0.554" cy="0.554" r="0.554" fill="#263238"/></g><g transform="translate(8.423 53.553)"><circle cx="0.554" cy="0.554" r="0.554" fill="#263238"/></g><g transform="translate(70.152 11.964)"><circle cx="0.554" cy="0.554" r="0.554" fill="#263238"/></g><g transform="translate(70.152 22.361)"><circle cx="0.554" cy="0.554" r="0.554" fill="#263238"/></g><g transform="translate(70.152 32.758)"><circle cx="0.554" cy="0.554" r="0.554" fill="#263238"/></g><g transform="translate(70.152 43.156)"><circle cx="0.554" cy="0.554" r="0.554" fill="#263238"/></g><g transform="translate(70.152 53.553)"><circle cx="0.554" cy="0.554" r="0.554" fill="#263238"/></g><g transform="translate(25.101)"><rect width="24.274" height="5.721" fill="#455a64"/><g transform="translate(1.627 0.2)"><path d="M237.851,278.214a30.794,30.794,0,0,1,0-5.521,30.919,30.919,0,0,1,0,5.521Z" transform="translate(-237.727 -272.693)" fill="#263238"/></g><g transform="translate(4.12 0.2)"><path d="M243.1,278.214a30.919,30.919,0,0,1,0-5.521,30.912,30.912,0,0,1,0,5.521Z" transform="translate(-242.974 -272.693)" fill="#263238"/></g><g transform="translate(6.612 0.2)"><path d="M248.344,278.214a30.8,30.8,0,0,1,0-5.521,30.912,30.912,0,0,1,0,5.521Z" transform="translate(-248.22 -272.693)" fill="#263238"/></g><g transform="translate(9.104 0.2)"><path d="M253.59,278.214a30.912,30.912,0,0,1,0-5.521,30.791,30.791,0,0,1,0,5.521Z" transform="translate(-253.467 -272.693)" fill="#263238"/></g><g transform="translate(11.596 0.2)"><path d="M258.837,278.214a30.8,30.8,0,0,1,0-5.521,30.916,30.916,0,0,1,0,5.521Z" transform="translate(-258.713 -272.693)" fill="#263238"/></g><g transform="translate(14.088 0.2)"><path d="M264.083,278.214a30.908,30.908,0,0,1,0-5.521,30.794,30.794,0,0,1,0,5.521Z" transform="translate(-263.96 -272.693)" fill="#263238"/></g><g transform="translate(16.581 0.2)"><path d="M269.331,278.214a30.916,30.916,0,0,1,0-5.521,30.916,30.916,0,0,1,0,5.521Z" transform="translate(-269.207 -272.693)" fill="#263238"/></g><g transform="translate(19.073 0.2)"><path d="M274.577,278.214a30.908,30.908,0,0,1,0-5.521,30.8,30.8,0,0,1,0,5.521Z" transform="translate(-274.453 -272.693)" fill="#263238"/></g><g transform="translate(21.565 0.2)"><path d="M279.824,278.214a30.916,30.916,0,0,1,0-5.521,30.916,30.916,0,0,1,0,5.521Z" transform="translate(-279.7 -272.693)" fill="#263238"/></g></g><g transform="translate(78.006 18.12)" opacity="0.3"><path d="M345.678,310.418c.587,2.976,1.133,5.775,1.72,8.751a12.814,12.814,0,0,1-1.72-.005c-.014-2.849.013-5.9,0-8.746" transform="translate(-345.674 -310.418)"/></g><g transform="translate(4.478 11.297)"><path d="M191.486,296.053c.068,0,0,8.872-.162,19.811s-.341,19.81-.409,19.809,0-8.87.162-19.813S191.417,296.052,191.486,296.053Z" transform="translate(-190.888 -296.053)" fill="#fff"/></g><g transform="translate(15.28 32.406)"><path d="M213.75,360.223c-.068,0-.124-4.418-.124-9.865s.056-9.867.124-9.867.124,4.417.124,9.867S213.818,360.223,213.75,360.223Z" transform="translate(-213.626 -340.491)" fill="#fff"/></g><g transform="translate(13.415 7.197)"><path d="M258.342,287.547c0,.068-10.89.124-24.319.124s-24.322-.056-24.322-.124,10.887-.124,24.322-.124S258.342,287.478,258.342,287.547Z" transform="translate(-209.701 -287.423)" fill="#fff"/></g></g></g></g><g transform="translate(37.381 243.86)"><g transform="translate(0 0)"><path d="M239.382,475.021c0,.068-45.223.124-101,.124-55.792,0-101.005-.056-101.005-.124s45.213-.124,101.005-.124C194.159,474.9,239.382,474.953,239.382,475.021Z" transform="translate(-37.381 -474.897)" fill="#263238"/></g></g></g></svg>