<svg xmlns="http://www.w3.org/2000/svg" xmlns:xlink="http://www.w3.org/1999/xlink" width="20" height="20" viewBox="0 0 20 20"><defs><style>.a{fill:url(#a);}.b{fill:none;}.c,.d{stroke:none;}.d{fill:#4981dd;}</style><linearGradient id="a" x1="0.5" x2="0.5" y2="1" gradientUnits="objectBoundingBox"><stop offset="0" stop-color="#5169d5"/><stop offset="1" stop-color="#3fa0e8"/></linearGradient></defs><path class="a" d="M5.7,0A4.531,4.531,0,0,0,1.9,1.708a.407.407,0,0,0,.115.617l.955.614A.6.6,0,0,0,3.7,2.861a2.235,2.235,0,0,1,1.832-.928c.681,0,1.523.371,1.523.931,0,.423-.412.64-1.084.96-.784.373-1.822.836-1.822,2V6a.5.5,0,0,0,.531.45h1.6A.5.5,0,0,0,6.816,6V5.9c0-.8,2.773-.838,2.773-3.014C9.589,1.243,7.584,0,5.7,0ZM5.483,7.007a1.433,1.433,0,0,0-1.533,1.3,1.433,1.433,0,0,0,1.533,1.3,1.433,1.433,0,0,0,1.533-1.3A1.433,1.433,0,0,0,5.483,7.007Z" transform="translate(4.179 5.152)"/><g class="b" transform="translate(-0.563 -0.563)"><path class="c" d="M20.562,10.562a10,10,0,1,1-10-10A10,10,0,0,1,20.562,10.562Z"/><path class="d" d="M 10.56249904632568 3.062498092651367 C 6.42698860168457 3.062498092651367 3.062498092651367 6.42698860168457 3.062498092651367 10.56249904632568 C 3.062498092651367 14.6980094909668 6.42698860168457 18.0625 10.56249904632568 18.0625 C 14.6980094909668 18.0625 18.0625 14.6980094909668 18.0625 10.56249904632568 C 18.0625 6.42698860168457 14.6980094909668 3.062498092651367 10.56249904632568 3.062498092651367 M 10.56249904632568 0.5624980926513672 C 16.08495903015137 0.5624980926513672 20.5625 5.041648864746094 20.5625 10.56249904632568 C 20.5625 16.08656883239746 16.08495903015137 20.5625 10.56249904632568 20.5625 C 5.0400390625 20.5625 0.5624980926513672 16.08656883239746 0.5624980926513672 10.56249904632568 C 0.5624980926513672 5.041648864746094 5.0400390625 0.5624980926513672 10.56249904632568 0.5624980926513672 Z"/></g></svg>