<svg xmlns="http://www.w3.org/2000/svg" width="169.221" height="200.687" viewBox="0 0 169.221 200.687"><g transform="translate(-137.436 -97.733)"><g transform="translate(137.436 97.733)"><g transform="translate(0 6.92)"><g transform="translate(0.129 0.103)"><path d="M148.064,110.238c-9.013,14.178-8.423,33.834,1.425,47.445,6.565,9.074,16.413,15.155,24.233,23.173s13.758,19.832,9.632,30.243c-4.2,10.6-16.506,14.911-25.721,21.624a48.615,48.615,0,0,0-11.727,66.4h95.719s16.814-32.045-4.8-56.466-33.228-24.821-32.427-40.835,12.01-21.218,18.416-27.223,37.632-20.017,19.216-64.363Z" transform="translate(-137.666 -110.238)" fill="#fafafa"/></g><path d="M147.964,110.157s.556-.008,1.648-.013l4.852-.013,18.678-.026,68.782-.051h.071l.025.064a89.161,89.161,0,0,1,3.567,10.365,60.4,60.4,0,0,1,2.034,11.263,44.709,44.709,0,0,1-.607,11.889,38.205,38.205,0,0,1-4.326,11.558,42.136,42.136,0,0,1-3.605,5.231,48.78,48.78,0,0,1-4.41,4.717,65.05,65.05,0,0,1-5,4.237c-1.742,1.347-3.56,2.621-5.335,3.966-.889.67-1.7,1.423-2.548,2.176-.851.739-1.728,1.452-2.613,2.159-1.769,1.415-3.555,2.829-5.242,4.378a27.993,27.993,0,0,0-7.861,11.275,27.39,27.39,0,0,0-1.5,6.893c-.048.591-.127,1.182-.149,1.777s-.046,1.191-.017,1.787a20.361,20.361,0,0,0,.359,3.561,16.258,16.258,0,0,0,2.873,6.557,36.381,36.381,0,0,0,4.964,5.375c3.634,3.323,7.489,6.494,11.181,9.919q5.565,5.108,10.784,10.779a65.024,65.024,0,0,1,4.978,5.918,41.546,41.546,0,0,1,4.012,6.691,43.914,43.914,0,0,1,4.122,15.179,55.609,55.609,0,0,1-.932,15.957,65.537,65.537,0,0,1-2.054,7.828,57.07,57.07,0,0,1-3.039,7.561l-.039.078H239.06l-93.254-.006h-.075l-.041-.062a49.352,49.352,0,0,1-8.015-22.594,47.639,47.639,0,0,1,3.312-22.807,49.648,49.648,0,0,1,12.653-18.072,57.449,57.449,0,0,1,8.638-6.3c2.988-1.855,6-3.571,8.852-5.448a40.554,40.554,0,0,0,7.791-6.338,21.287,21.287,0,0,0,4.821-8.357,20.784,20.784,0,0,0,.38-9.329,30.381,30.381,0,0,0-2.958-8.576,41.934,41.934,0,0,0-4.818-7.318,58.3,58.3,0,0,0-5.83-6.083c-4.052-3.731-8.2-6.993-11.931-10.345-1.869-1.673-3.641-3.361-5.271-5.1a47.512,47.512,0,0,1-4.369-5.386,41.039,41.039,0,0,1-5.477-11.352,42.379,42.379,0,0,1-1.864-10.751c-.079-.836-.047-1.656-.046-2.456s-.013-1.583.069-2.342q.088-1.14.171-2.222c.086-.718.205-1.413.3-2.09a39.93,39.93,0,0,1,3.754-11.92,16.05,16.05,0,0,1,.866-1.669l.687-1.172c.368-.627.558-.94.558-.94l-.543.959-.673,1.174a16.363,16.363,0,0,0-.853,1.67,40.186,40.186,0,0,0-3.7,11.913c-.095.677-.211,1.37-.3,2.087q-.08,1.08-.165,2.218c-.081.757-.055,1.538-.064,2.336s-.029,1.616.052,2.45A42.3,42.3,0,0,0,143.6,145.68a40.943,40.943,0,0,0,5.474,11.3,47.379,47.379,0,0,0,4.362,5.363c1.628,1.728,3.4,3.41,5.267,5.078,3.732,3.344,7.882,6.6,11.945,10.334a58.533,58.533,0,0,1,5.856,6.1,42.155,42.155,0,0,1,4.848,7.35,30.6,30.6,0,0,1,2.986,8.634,21.019,21.019,0,0,1-.378,9.428,21.52,21.52,0,0,1-4.867,8.452,40.75,40.75,0,0,1-7.831,6.381c-2.857,1.885-5.872,3.6-8.854,5.458a57.271,57.271,0,0,0-8.6,6.279,49.41,49.41,0,0,0-12.578,17.985,47.373,47.373,0,0,0-3.284,22.681,49.084,49.084,0,0,0,7.977,22.464l-.116-.062,93.254-.007h2.465l-.13.079a56.9,56.9,0,0,0,3.021-7.516,65.311,65.311,0,0,0,2.045-7.793,55.328,55.328,0,0,0,.929-15.873,43.644,43.644,0,0,0-4.093-15.08,41.315,41.315,0,0,0-3.985-6.646,64.732,64.732,0,0,0-4.957-5.895q-5.2-5.66-10.764-10.764c-3.687-3.422-7.534-6.589-11.179-9.922a36.691,36.691,0,0,1-5-5.419,16.548,16.548,0,0,1-2.917-6.665,20.681,20.681,0,0,1-.363-3.608c-.028-.6.006-1.2.018-1.8s.1-1.2.151-1.792a27.676,27.676,0,0,1,1.514-6.958,28.264,28.264,0,0,1,7.937-11.377c1.7-1.556,3.49-2.975,5.257-4.387.885-.705,1.759-1.416,2.606-2.151s1.667-1.511,2.562-2.185c1.784-1.35,3.6-2.62,5.337-3.963a64.767,64.767,0,0,0,4.988-4.217,48.6,48.6,0,0,0,4.389-4.69,41.863,41.863,0,0,0,3.587-5.2,37.958,37.958,0,0,0,4.307-11.481,44.49,44.49,0,0,0,.612-11.827,60.168,60.168,0,0,0-2.018-11.224,88.832,88.832,0,0,0-3.549-10.342l.1.064-68.741-.051-18.692-.027-4.864-.013C148.529,110.166,147.964,110.157,147.964,110.157Z" transform="translate(-137.436 -110.054)" fill="#263238"/></g><g transform="translate(9.012 24.7)"><path d="M245.137,150.036c14.1,2.317-8.13,27.286-20.712,37.138-7.285,5.705-15.109,11.892-18.569,20.474-3.925,9.736-1.016,20.681-2.918,30.475a1.361,1.361,0,0,1-2.7-.286,106.112,106.112,0,0,0-1.144-19.184c-1.511-8.977-4.962-17.858-11.254-24.437-5.136-5.37-11.87-8.939-17.348-13.959-8-7.33-16.214-16.784-17.016-27.6,0,0,15.357-12.37,23.882-10.808,9.962,1.825,19.769,17.2,35.205,15.437C223.346,156.053,228.785,147.348,245.137,150.036Z" transform="translate(-153.481 -141.709)" fill="#e8505b"/></g><g transform="translate(5.183 150.093)"><path d="M243.4,381.542c-.356-3.526-1.3-7.516-4.425-9.179a8.737,8.737,0,0,0-6.279-.35c-2.076.547-4.027,1.49-6.084,2.1a19.938,19.938,0,0,1-12.449-.394c-3.825-1.405-7.108-3.945-10.66-5.942s-7.709-3.484-11.664-2.5c-6.818,1.7-10.366,9.905-17.108,11.887-3,.881-6.214.386-9.259-.3s-6.1-1.575-9.224-1.459a10.232,10.232,0,0,0-6.7,2.613l.018-.024c-.017.017-.033.036-.049.054a6.972,6.972,0,0,0-.773.906c-2.091,2.788-2.425,6.535-1.782,9.939a35.531,35.531,0,0,0,4.411,10.709c2.251,3.975,4.807,7.934,8.528,10.584,4.59,3.27,10.363,1.013,15.981,1.456,13.105,1.034,27.2,1.74,40.311.724,6.923-.537,13.412.213,18.906-4.034a22.337,22.337,0,0,0,7.591-12.225A41.817,41.817,0,0,0,243.4,381.542Z" transform="translate(-146.664 -364.966)" fill="#e8505b"/></g><g transform="translate(75.102 159.916)" opacity="0.24"><path d="M273.237,382.456a3.62,3.62,0,0,0-.342,3.8,12.6,12.6,0,0,1,1.987,3.513c.486,2.069-.76,4.093-1.689,6a19.145,19.145,0,0,0-1.857,11.082,15.075,15.075,0,0,0,5.5,9.677c1.331,1.027,3.06,1.824,4.664,1.32a4.51,4.51,0,0,0,2.787-3.56,15.1,15.1,0,0,0-.145-4.725,73.5,73.5,0,0,1,.554-21.948c.215-1.209.42-2.59-.347-3.549a4.125,4.125,0,0,0-2.014-1.149c-2.921-.972-6.074.108-9.1-.466" transform="translate(-271.153 -382.456)"/></g><g transform="translate(1.342 193.418)"><path d="M139.828,448.943s-.263-4.393,5.467-6.838H245.972s5.25,2.657,5.9,6.748Z" transform="translate(-139.826 -442.105)" fill="#263238"/></g><g transform="translate(8.305)"><path d="M249.272,105.292l-.16.074-94.667-.609s-.336-.215-.839-.609a3.589,3.589,0,0,1,2.24-6.415l91.882.742A3.589,3.589,0,0,1,249.272,105.292Z" transform="translate(-152.223 -97.733)" fill="#263238"/></g><g transform="translate(27.48 42.485)" opacity="0.24"><path d="M249.086,174.562c.19.365-.52,1.155-1.877,2.359s-3.349,2.86-5.876,4.9a76.637,76.637,0,0,1-9.537,6.728,38.619,38.619,0,0,1-6.54,3,30.611,30.611,0,0,1-3.758,1.039,24.885,24.885,0,0,1-4.061.529A21.7,21.7,0,0,1,209.275,192a29.459,29.459,0,0,1-6.558-3.348c-1.887-1.251-3.514-2.486-5.047-3.668s-2.919-2.328-4.163-3.4c-4.973-4.309-7.588-7.477-7.084-8.088.521-.636,4.041,1.379,9.527,4.75l4.481,2.752c1.608.98,3.337,2.06,5.1,3.06a28.4,28.4,0,0,0,5.53,2.5,17.656,17.656,0,0,0,6.087.717,32.241,32.241,0,0,0,12.122-3.489c3.643-1.783,6.9-3.8,9.745-5.392a49.136,49.136,0,0,1,7.034-3.43C247.821,174.325,248.9,174.211,249.086,174.562Z" transform="translate(-186.362 -173.376)"/></g><g transform="translate(54.848 132.773)"><path d="M236.086,334.2a1.593,1.593,0,1,1-.08.031" transform="translate(-235.091 -334.13)" fill="#e8505b"/></g><g transform="translate(8.664 16.549)"><path d="M166.181,169.986a2.888,2.888,0,0,1-.334-.337l-.917-1.005c-.388-.446-.9-.962-1.419-1.62l-1.788-2.225c-.611-.863-1.3-1.793-2-2.824l-1.026-1.633c-.173-.283-.362-.562-.53-.858l-.494-.912a37.885,37.885,0,0,1-3.488-8.4,35.281,35.281,0,0,1-1.324-9c0-.7.037-1.383.052-2.047.015-.331.01-.659.042-.98l.1-.945c.071-.618.12-1.219.2-1.79l.3-1.635c.161-1.048.438-1.966.636-2.783.108-.406.192-.788.3-1.131l.306-.936.433-1.291a2.863,2.863,0,0,1,.17-.443,2.953,2.953,0,0,1-.114.462q-.141.485-.38,1.3-.127.428-.281.94c-.1.345-.175.728-.275,1.134-.183.817-.444,1.736-.591,2.78l-.276,1.629c-.076.57-.12,1.167-.185,1.782l-.093.939c-.03.318-.022.644-.035.973-.011.659-.045,1.337-.039,2.031a35.727,35.727,0,0,0,1.336,8.922,38.415,38.415,0,0,0,3.443,8.347l.486.909c.165.3.351.575.521.857l1.009,1.633c.685,1.032,1.365,1.965,1.963,2.833l1.749,2.245c.508.667,1,1.192,1.378,1.65l.875,1.041A2.937,2.937,0,0,1,166.181,169.986Z" transform="translate(-152.862 -127.197)" fill="#263238"/></g><g transform="translate(16.653 77.855)"><path d="M167.086,301.273a1.1,1.1,0,0,1,.105-.185l.334-.528.552-.854.354-.544c.138-.186.3-.372.463-.576l1.1-1.346c.432-.466.928-.948,1.447-1.479a38.938,38.938,0,0,1,3.856-3.245c2.981-2.26,6.827-4.505,11-7.126a63.364,63.364,0,0,0,6.306-4.442,29.64,29.64,0,0,0,5.659-5.98,28.288,28.288,0,0,0,4.575-15.069,35.693,35.693,0,0,0-2.153-12.8,47.741,47.741,0,0,0-3.72-7.978c-.52-.9-.948-1.59-1.242-2.053l-.33-.53a1.09,1.09,0,0,1-.1-.186,1.172,1.172,0,0,1,.129.17l.355.514c.311.453.754,1.132,1.29,2.027a45.678,45.678,0,0,1,3.818,7.966,35.546,35.546,0,0,1,2.227,12.878,29.323,29.323,0,0,1-.31,3.788,27.692,27.692,0,0,1-.822,3.879,26.462,26.462,0,0,1-3.47,7.56,29.758,29.758,0,0,1-5.72,6.038,62.747,62.747,0,0,1-6.343,4.448c-4.184,2.613-8.032,4.834-11.017,7.063a39.985,39.985,0,0,0-3.866,3.2c-.521.523-1.021,1-1.457,1.455l-1.116,1.323c-.166.2-.331.383-.472.566l-.363.534-.574.836-.358.512A1.215,1.215,0,0,1,167.086,301.273Z" transform="translate(-167.085 -236.35)" fill="#263238"/></g><g transform="translate(6.669 152.702)"><path d="M154.07,369.613a1.09,1.09,0,0,1-.123.261l-.4.714c-.181.306-.4.684-.612,1.14s-.5.955-.738,1.544l-.4.913c-.135.318-.246.662-.377,1.01-.275.694-.488,1.461-.73,2.263a30.355,30.355,0,0,0-.991,10.8c.093.832.162,1.627.306,2.358.066.367.112.724.188,1.062s.151.66.222.97c.125.622.309,1.167.444,1.652s.272.9.395,1.232l.263.776a1.065,1.065,0,0,1,.074.278,1.032,1.032,0,0,1-.128-.256l-.316-.758a11.864,11.864,0,0,1-.443-1.222c-.151-.484-.35-1.028-.489-1.652q-.117-.467-.243-.973c-.082-.339-.134-.7-.206-1.068-.155-.736-.235-1.536-.336-2.376a29.3,29.3,0,0,1,1-10.893c.252-.806.476-1.579.762-2.275.138-.349.254-.694.4-1.011l.416-.913c.25-.588.545-1.087.782-1.536a11.936,11.936,0,0,1,.658-1.12l.448-.688A1.03,1.03,0,0,1,154.07,369.613Z" transform="translate(-149.31 -369.613)" fill="#263238"/></g><g transform="translate(28.827 166.2)"><path d="M240.8,393.645a.526.526,0,0,1-.114.083l-.35.219-1.363.818-.989.586c-.368.2-.782.4-1.22.617-.883.426-1.865.969-3.022,1.406l-1.795.736c-.626.251-1.3.445-1.989.683-1.367.5-2.88.855-4.462,1.268a52.436,52.436,0,0,1-21.124.552c-1.6-.33-3.131-.606-4.523-1.033-.7-.2-1.383-.359-2.021-.577l-1.83-.642c-1.179-.376-2.187-.867-3.091-1.246-.449-.2-.872-.369-1.25-.552l-1.018-.534-1.4-.746-.361-.2a.071.071,0,1,1,.015-.026l.375.175,1.426.7,1.027.509c.38.175.807.338,1.256.529.908.364,1.917.84,3.1,1.2l1.829.621c.637.211,1.32.364,2.017.559,1.387.415,2.912.681,4.506,1a53.267,53.267,0,0,0,21.017-.549c1.575-.4,3.083-.748,4.447-1.236.685-.231,1.36-.419,1.985-.663l1.794-.716c1.158-.423,2.141-.95,3.028-1.361.439-.214.857-.4,1.227-.594l1-.562,1.388-.77.365-.194A.505.505,0,0,1,240.8,393.645Z" transform="translate(-188.761 -393.645)" fill="#263238"/></g><g transform="translate(32.214 47.332)"><path d="M249.306,182.006a.675.675,0,0,1-.12.111l-.368.3-1.434,1.145c-1.25.988-3.056,2.421-5.339,4.128a77.523,77.523,0,0,1-8.354,5.523,38.038,38.038,0,0,1-5.382,2.476,24.517,24.517,0,0,1-6.21,1.382,23.65,23.65,0,0,1-11.932-2.482,40.644,40.644,0,0,1-4.608-2.741c-1.372-.968-2.623-1.9-3.731-2.8-2.224-1.784-3.966-3.295-5.177-4.33l-1.387-1.2-.357-.317a.642.642,0,0,1-.115-.116.691.691,0,0,1,.134.093l.375.3,1.423,1.158c1.233,1.008,3,2.495,5.231,4.255,1.114.886,2.369,1.809,3.74,2.764a41.261,41.261,0,0,0,4.59,2.7,23.53,23.53,0,0,0,11.793,2.432,24.391,24.391,0,0,0,6.134-1.359,38.237,38.237,0,0,0,5.349-2.442,80.4,80.4,0,0,0,8.361-5.454c2.3-1.683,4.121-3.091,5.392-4.051l1.467-1.1.386-.28A.7.7,0,0,1,249.306,182.006Z" transform="translate(-194.793 -182.005)" fill="#263238"/></g><g transform="translate(36.074 169.066)" opacity="0.24"><path d="M201.664,400.6c2.661-2.055,6.4-1.557,9.691-.865s6.605,1.817,9.935,1.351c2.509-.351,4.812-1.586,7.288-2.122s5.482-.14,6.854,1.99a53.353,53.353,0,0,1-33.769-.353" transform="translate(-201.664 -398.748)"/></g></g><g transform="translate(213.363 177.896)"><g transform="translate(0 34.631)"><g transform="translate(4.087)"><path d="M328.838,343l-12.1-13.544-.122,16.463,3.641,10.559-36.182,6.276-1.534-28.549-2.6-21.925a5.954,5.954,0,0,1,3.73-6.242l9.957-3.921,14.025,2.573,5.642,2.144a15.469,15.469,0,0,1,6.148,4.276l16.983,19.421" transform="translate(-279.897 -302.12)" fill="#e8505b"/><g transform="translate(35.997 15.66)"><path d="M343.987,338.443a19.138,19.138,0,0,0,2.043-.144,8.292,8.292,0,0,0,6.8-6.272A19.157,19.157,0,0,0,353.14,330a1.779,1.779,0,0,1,.051.556,7.152,7.152,0,0,1-.158,1.515,8.106,8.106,0,0,1-6.973,6.43,7.156,7.156,0,0,1-1.523.035A1.768,1.768,0,0,1,343.987,338.443Z" transform="translate(-343.987 -330.002)" fill="#fff"/></g><g transform="translate(36.765 17.629)"><path d="M345.645,358.98c.084,0,.106-5.7.049-12.737s-.173-12.736-.257-12.736-.107,5.7-.049,12.738S345.56,358.98,345.645,358.98Z" transform="translate(-345.355 -333.507)" fill="#263238"/></g></g><g transform="translate(0 3.921)"><path d="M312.436,352.467l-21.863-8.8a5,5,0,0,1-3.115-4.254l-1.6-20.961s.189-8.915-5.379-9.349l-3.168,1.247c-4.094,2.174-5.108,8.135-4.551,12.737.792,6.539,1.122,15.793,2.008,21.469.725,4.642,3.384,8.726,7.928,9.922l26.928,5.829Z" transform="translate(-272.619 -309.102)" fill="#e8505b"/></g><g transform="translate(13.546 16.468)"><path d="M296.744,331.44a3.026,3.026,0,0,1,.069.48l.14,1.381c.112,1.229.269,2.958.463,5.084.185,2.156.4,4.709.648,7.541q.09,1.065.184,2.18a16.346,16.346,0,0,0,.279,2.243,3.723,3.723,0,0,0,1.087,1.965,7.386,7.386,0,0,0,2.017,1.255c6.029,2.609,11.585,4.763,15.618,6.273l4.788,1.764,1.3.48a2.983,2.983,0,0,1,.448.185,3.029,3.029,0,0,1-.467-.13l-1.32-.429c-1.144-.379-2.794-.947-4.822-1.677-4.057-1.463-9.622-3.584-15.668-6.2a7.628,7.628,0,0,1-2.1-1.31,4.014,4.014,0,0,1-1.165-2.111,16.448,16.448,0,0,1-.279-2.283q-.088-1.116-.174-2.182c-.22-2.835-.418-5.391-.586-7.549l-.37-5.091q-.054-.872-.085-1.386A2.92,2.92,0,0,1,296.744,331.44Z" transform="translate(-296.738 -331.44)" fill="#263238"/></g><g transform="translate(1.01 27.863)"><path d="M274.434,351.728a1.071,1.071,0,0,1,.043.281l.072.809c.065.747.153,1.752.259,2.975.12,1.255.272,2.748.49,4.4a42.065,42.065,0,0,0,.987,5.31,7.933,7.933,0,0,0,1.067,2.531,14.481,14.481,0,0,0,1.633,2.007,13.975,13.975,0,0,0,3.5,2.625,13.142,13.142,0,0,0,3.839,1.257,1.043,1.043,0,0,1-.284-.007,6.069,6.069,0,0,1-.809-.1,10.7,10.7,0,0,1-2.841-.962,13.706,13.706,0,0,1-3.6-2.62,14.461,14.461,0,0,1-1.679-2.035A8.127,8.127,0,0,1,276,365.578a39.5,39.5,0,0,1-.972-5.353c-.2-1.658-.335-3.156-.429-4.415s-.14-2.28-.167-2.985c-.007-.325-.012-.593-.017-.813A1.019,1.019,0,0,1,274.434,351.728Z" transform="translate(-274.418 -351.728)" fill="#263238"/></g><g transform="translate(10.369 37.354)"><path d="M291.087,373.8a3.2,3.2,0,0,1,.4-1.165,7.52,7.52,0,0,1,4.435-3.788,3.224,3.224,0,0,1,1.213-.211c.009.049-.45.14-1.145.406a8.506,8.506,0,0,0-4.321,3.691C291.3,373.381,291.134,373.82,291.087,373.8Z" transform="translate(-291.082 -368.628)" fill="#263238"/></g><g transform="translate(14.675 4.932)"><path d="M298.747,332.558a.56.56,0,0,1,.139.061l.391.206a13.555,13.555,0,0,0,1.56.661,12.345,12.345,0,0,0,6.127.523,12.1,12.1,0,0,0,7.617-4.733,10.048,10.048,0,0,0,1.994-4.953,6.751,6.751,0,0,0-.291-2.8,5.688,5.688,0,0,0-1.577-2.408,4.762,4.762,0,0,0-2.566-1.247,3.056,3.056,0,0,0-2.572.723,1.653,1.653,0,0,0-.5,1.164,2.034,2.034,0,0,0,.422,1.2,3.284,3.284,0,0,0,2.224,1.16,9,9,0,0,0,4.779-.684,8.869,8.869,0,0,0,5.034-5.628,9.506,9.506,0,0,0,.416-2.63,9.936,9.936,0,0,0-.122-1.686l-.08-.434a.617.617,0,0,1-.019-.151,7.056,7.056,0,0,1,.335,2.271,9.361,9.361,0,0,1-.373,2.677,9.164,9.164,0,0,1-1.643,3.179,9.347,9.347,0,0,1-8.366,3.353,3.548,3.548,0,0,1-2.408-1.26,2.309,2.309,0,0,1-.481-1.369,1.939,1.939,0,0,1,.582-1.365,3.336,3.336,0,0,1,2.814-.809,5.052,5.052,0,0,1,2.724,1.319,5.974,5.974,0,0,1,1.656,2.533,7.022,7.022,0,0,1,.3,2.922,10.287,10.287,0,0,1-2.063,5.086,12.077,12.077,0,0,1-14,4.156A8.892,8.892,0,0,1,298.747,332.558Z" transform="translate(-298.747 -310.901)" fill="#fff"/></g><g transform="translate(0.353 17.753)"><path d="M273.248,336.974a1.964,1.964,0,0,1,.359-.448,8.076,8.076,0,0,1,1.181-1.027,9.9,9.9,0,0,1,4.836-1.714,9.341,9.341,0,0,1,2.85.12,8.765,8.765,0,0,1,2.2.772,9.878,9.878,0,0,1,1.336.813,2.02,2.02,0,0,1,.439.37c-.03.046-.684-.448-1.864-1a9.183,9.183,0,0,0-4.927-.787,10.4,10.4,0,0,0-4.75,1.593C273.824,336.39,273.289,337.015,273.248,336.974Z" transform="translate(-273.247 -333.728)" fill="#fff"/></g><g transform="translate(3.85 1.63)"><path d="M279.474,309.4a8.933,8.933,0,0,0,1.77,1.286,6.328,6.328,0,0,0,2.252.66,5.64,5.64,0,0,0,5.091-2.107,6.351,6.351,0,0,0,1.127-2.059,8.913,8.913,0,0,0,.343-2.161,1.892,1.892,0,0,1,.073.6,5.414,5.414,0,0,1-.218,1.625,6.24,6.24,0,0,1-1.115,2.168,5.755,5.755,0,0,1-5.331,2.206,6.216,6.216,0,0,1-2.32-.746,5.384,5.384,0,0,1-1.3-1A1.9,1.9,0,0,1,279.474,309.4Z" transform="translate(-279.473 -305.023)" fill="#fff"/></g><g transform="translate(22.899 32.154)"><path d="M313.394,367.692a2.177,2.177,0,0,1,.046-.414,4.563,4.563,0,0,1,.388-1.131,6.238,6.238,0,0,1,3.273-2.841,9.573,9.573,0,0,1,6.428-.23,6.136,6.136,0,0,1,3.35,1.9,2.03,2.03,0,0,1,.246,2.056,3.264,3.264,0,0,1-1.558,1.47,4.947,4.947,0,0,1-2.07.512,3.013,3.013,0,0,1-1.988-.616,2.542,2.542,0,0,1-.89-1.8,4.524,4.524,0,0,1,.3-1.894,8.5,8.5,0,0,1,4.506-4.561,8.84,8.84,0,0,1,4.3-.739,6.081,6.081,0,0,1,1.572.331c-.009.038-.557-.147-1.58-.217a9,9,0,0,0-4.207.814,8.792,8.792,0,0,0-2.454,1.665,7.874,7.874,0,0,0-1.884,2.8,4.266,4.266,0,0,0-.272,1.779,2.26,2.26,0,0,0,.793,1.6,2.736,2.736,0,0,0,1.8.546,4.679,4.679,0,0,0,1.944-.483,2.989,2.989,0,0,0,1.423-1.328,1.74,1.74,0,0,0-.213-1.769,4.055,4.055,0,0,0-1.463-1.161,10.493,10.493,0,0,0-1.728-.644,9.448,9.448,0,0,0-6.275.162,6.233,6.233,0,0,0-3.251,2.7A6.377,6.377,0,0,0,313.394,367.692Z" transform="translate(-313.391 -359.368)" fill="#fff"/></g><g transform="translate(8.346 38.231)"><path d="M287.479,380.329c-.009-.056.833-.126,2.1-.577a10.455,10.455,0,0,0,6.707-7.419c.321-1.3.307-2.147.363-2.143a2.047,2.047,0,0,1,.031.59,8.8,8.8,0,0,1-.192,1.6,10.085,10.085,0,0,1-6.842,7.569,8.882,8.882,0,0,1-1.573.352A2.048,2.048,0,0,1,287.479,380.329Z" transform="translate(-287.479 -370.189)" fill="#fff"/></g><g transform="translate(1.261 30.648)"><path d="M274.864,358.116a1.026,1.026,0,0,1,.264-.106c.176-.058.438-.139.781-.225a9.416,9.416,0,0,1,2.978-.3,6.219,6.219,0,0,1,2.025.5,4.666,4.666,0,0,1,1.889,1.482,3.885,3.885,0,0,1,.734,2.549,3.106,3.106,0,0,1-.434,1.368,2.173,2.173,0,0,1-1.146.958,1.512,1.512,0,0,1-1.477-.292,1.972,1.972,0,0,1-.509-1.363,5.829,5.829,0,0,1,.515-2.6,5.684,5.684,0,0,1,3.189-3.026,5.785,5.785,0,0,1,2.973-.295,4.912,4.912,0,0,1,.791.2,1.033,1.033,0,0,1,.261.115c-.008.029-.375-.117-1.067-.2a5.922,5.922,0,0,0-2.883.375,5.521,5.521,0,0,0-3.017,2.943,5.6,5.6,0,0,0-.475,2.476,1.7,1.7,0,0,0,.423,1.165,1.224,1.224,0,0,0,1.189.225,1.887,1.887,0,0,0,.986-.832,2.841,2.841,0,0,0,.4-1.238,3.632,3.632,0,0,0-.668-2.368,4.459,4.459,0,0,0-1.77-1.419,6.12,6.12,0,0,0-1.943-.516,10.091,10.091,0,0,0-2.935.208C275.246,358.037,274.87,358.139,274.864,358.116Z" transform="translate(-274.864 -356.688)" fill="#fff"/></g><g transform="translate(14.264 22.699)" opacity="0.3"><path d="M317.286,364.623c-2.338-1.32-4.625-2.335-7.07-3.446a16.015,16.015,0,0,1-6.438-4.693c-3.017-4.066-2.674-9.936-5.762-13.949l.6,8.1c.185,2.474-.194,4.919,1.4,6.6,1.342,1.416,3.959,2.5,5.811,3.113,3.723,1.228,7.732,3.053,11.455,4.28" transform="translate(-298.016 -342.535)"/></g></g><g transform="translate(67.308 109.249)"><g transform="translate(0 0.977)"><path d="M396.673,436.713s18.293,5.063,19.027,5.322c1.1.388.917,4.425-.8,4.362-.811-.03-14.051.493-15.723.388s-6.72-2.093-6.72-2.093Z" transform="translate(-392.458 -436.713)" fill="#e8505b"/></g><g transform="translate(11.799 4.303)"><path d="M413.5,446.289a8.025,8.025,0,0,1,2.1-3.648,4.064,4.064,0,0,0-2.1,3.648Z" transform="translate(-413.465 -442.635)" fill="#263238"/></g><g transform="translate(9.899 3.597)"><path d="M410.112,444.873c.089.016.275-.849.762-1.8s1.062-1.624,1-1.687a4.586,4.586,0,0,0-1.758,3.492Z" transform="translate(-410.083 -441.377)" fill="#263238"/></g><g transform="translate(8.018 2.964)"><path d="M406.855,443.9a6.423,6.423,0,0,1,1.424-3.643,3.435,3.435,0,0,0-1.424,3.643Z" transform="translate(-406.734 -440.251)" fill="#263238"/></g><g transform="translate(7.013)"><path d="M406.395,439.224a3.229,3.229,0,0,0,.2-1.361,6.41,6.41,0,0,0-.185-1.492,6.226,6.226,0,0,0-.272-.849,1.019,1.019,0,0,0-.293-.448.487.487,0,0,0-.628.031.806.806,0,0,0-.244.517,3.538,3.538,0,0,0-.024.483,4.037,4.037,0,0,0,.113.9,5.43,5.43,0,0,0,.563,1.4,3.683,3.683,0,0,0,.822,1.1c.042-.029-.265-.455-.63-1.2a6.007,6.007,0,0,1-.48-1.36,3.99,3.99,0,0,1-.088-.836c.008-.281,0-.632.168-.768a.177.177,0,0,1,.242-.02.767.767,0,0,1,.2.32,6.776,6.776,0,0,1,.277.807,7.378,7.378,0,0,1,.242,1.428C406.429,438.7,406.346,439.216,406.395,439.224Z" transform="translate(-404.944 -434.973)" fill="#263238"/></g><g transform="translate(4.781 3.874)"><path d="M404.63,442.061a2.554,2.554,0,0,0-1.18-.19,5.285,5.285,0,0,0-1.3.159,2.867,2.867,0,0,0-.748.275.773.773,0,0,0-.413.836.915.915,0,0,0,.659.653,1.674,1.674,0,0,0,.821,0,3.158,3.158,0,0,0,1.188-.584,3.229,3.229,0,0,0,.85-.837,8.05,8.05,0,0,0-.975.66,3.247,3.247,0,0,1-1.122.486,1.45,1.45,0,0,1-.678-.01.621.621,0,0,1-.445-.435.472.472,0,0,1,.272-.51,2.769,2.769,0,0,1,.664-.259,6.138,6.138,0,0,1,1.232-.215C404.173,442.037,404.622,442.11,404.63,442.061Z" transform="translate(-400.97 -441.871)" fill="#263238"/></g><g transform="translate(14.504 5.063)"><path d="M418.424,447.078A4.937,4.937,0,0,1,419.68,444a2.624,2.624,0,0,0-1.256,3.082Z" transform="translate(-418.282 -443.988)" fill="#263238"/></g><g transform="translate(1.882 8.993)"><path d="M395.809,450.989a3.776,3.776,0,0,0,.708.333,15.745,15.745,0,0,0,2.035.631,29.032,29.032,0,0,0,6.984.662c2.741-.03,5.212-.154,7-.226l2.12-.112a3.768,3.768,0,0,0,.776-.083,3.879,3.879,0,0,0-.78-.036l-2.122.015-7,.136a32.715,32.715,0,0,1-6.935-.567C396.851,451.382,395.83,450.932,395.809,450.989Z" transform="translate(-395.809 -450.984)" fill="#263238"/></g><g transform="translate(1.341 7.859)"><path d="M394.846,450.521c.025.042.525-.25,1.37-.621a6.37,6.37,0,0,1,3.461-.576,5.483,5.483,0,0,1,2.992,1.78,10.786,10.786,0,0,0,1.054,1.077,5.641,5.641,0,0,0-.9-1.224,7.224,7.224,0,0,0-1.213-1.134,4.34,4.34,0,0,0-1.89-.8,6.051,6.051,0,0,0-3.6.681A4.867,4.867,0,0,0,394.846,450.521Z" transform="translate(-394.845 -448.966)" fill="#263238"/></g></g><g transform="translate(33.828 105.176)"><path d="M351.126,427.721s-17.31,11.334-17.931,11.8c-.932.7.137,4.058,1.752,3.478.764-.275,15.289-4.315,16.851-4.923s5.767-4.035,5.767-4.035Z" transform="translate(-332.849 -427.721)" fill="#e8505b"/><g transform="translate(10.028 6.112)"><path d="M353.813,441.456a4.066,4.066,0,0,0-3.108-2.838,8.024,8.024,0,0,1,3.108,2.838Z" transform="translate(-350.704 -438.603)" fill="#263238"/></g><g transform="translate(11.954 4.759)"><path d="M356.87,439a4.59,4.59,0,0,0-2.735-2.793c-.044.08.714.535,1.461,1.3S356.79,439.039,356.87,439Z" transform="translate(-354.133 -436.195)" fill="#263238"/></g><g transform="translate(13.786 3.511)"><path d="M359.858,437.023a3.434,3.434,0,0,0-2.463-3.039,6.42,6.42,0,0,1,2.463,3.039Z" transform="translate(-357.393 -433.972)" fill="#263238"/></g><g transform="translate(14.332 0.078)"><path d="M359.258,432.191c.045-.022-.192-.49-.392-1.3a7.334,7.334,0,0,1-.2-1.434,6.628,6.628,0,0,1,.019-.853.762.762,0,0,1,.094-.365.178.178,0,0,1,.237-.054c.2.079.3.415.393.68a4.022,4.022,0,0,1,.17.823,5.987,5.987,0,0,1-.044,1.441c-.121.822-.284,1.321-.235,1.336a3.705,3.705,0,0,0,.448-1.3,5.436,5.436,0,0,0,.112-1.5,4.033,4.033,0,0,0-.165-.887,3.539,3.539,0,0,0-.169-.453.809.809,0,0,0-.39-.419.488.488,0,0,0-.608.161,1.02,1.02,0,0,0-.143.516,6.307,6.307,0,0,0,0,.892,6.421,6.421,0,0,0,.276,1.477A3.243,3.243,0,0,0,359.258,432.191Z" transform="translate(-358.366 -427.86)" fill="#263238"/></g><g transform="translate(15.188 3.431)"><path d="M359.892,434.624c.022.044.427-.162,1.125-.331a6.126,6.126,0,0,1,1.24-.169,2.771,2.771,0,0,1,.711.045.471.471,0,0,1,.414.4.621.621,0,0,1-.293.549,1.439,1.439,0,0,1-.643.215,3.243,3.243,0,0,1-1.217-.122,8.12,8.12,0,0,0-1.129-.333,3.2,3.2,0,0,0,1.064.54,3.164,3.164,0,0,0,1.31.2,1.684,1.684,0,0,0,.783-.247.914.914,0,0,0,.429-.822.771.771,0,0,0-.648-.671,2.852,2.852,0,0,0-.8-.035,5.309,5.309,0,0,0-1.285.243A2.563,2.563,0,0,0,359.892,434.624Z" transform="translate(-359.891 -433.83)" fill="#263238"/></g><g transform="translate(2.466 10.372)"><path d="M339.078,450.464c.02.027.292-.175.424-.671a2.557,2.557,0,0,0-.324-1.879,6.8,6.8,0,0,0-.58-.864,3.16,3.16,0,0,0-.587-.631,1.022,1.022,0,0,0-.553-.231c-.144-.006-.219.029-.216.047a1.621,1.621,0,0,1,.63.349,3.906,3.906,0,0,1,.5.631,9.866,9.866,0,0,1,.54.845,2.68,2.68,0,0,1,.381,1.688C339.227,450.2,339.037,450.434,339.078,450.464Z" transform="translate(-337.24 -446.188)" fill="#263238"/></g><g transform="translate(8.385 7.433)"><path d="M349.911,443.527a2.623,2.623,0,0,0-2.133-2.554,4.935,4.935,0,0,1,2.133,2.554Z" transform="translate(-347.777 -440.955)" fill="#263238"/></g><g transform="translate(1.072 6.932)"><path d="M356.622,440.064a6.062,6.062,0,0,0-.761.522,21.732,21.732,0,0,1-2.134,1.308,28.027,28.027,0,0,1-3.39,1.509c-1.31.489-2.781.95-4.335,1.4-3.114.9-5.933,1.716-7.968,2.329l-2.406.738a5.419,5.419,0,0,0-.871.311,5.325,5.325,0,0,0,.9-.2l2.432-.645c2.05-.559,4.876-1.345,7.994-2.243,1.557-.452,3.034-.923,4.35-1.431a25.471,25.471,0,0,0,3.394-1.583,17.041,17.041,0,0,0,2.1-1.4A4.826,4.826,0,0,0,356.622,440.064Z" transform="translate(-334.757 -440.063)" fill="#263238"/></g><g transform="translate(15.619 6.678)"><path d="M368.617,440.1a4.859,4.859,0,0,0-1.467-.39,6.051,6.051,0,0,0-3.638.444,4.345,4.345,0,0,0-1.557,1.337,7.249,7.249,0,0,0-.811,1.449,5.643,5.643,0,0,0-.481,1.438,10.774,10.774,0,0,0,.677-1.346,5.481,5.481,0,0,1,2.31-2.6,6.374,6.374,0,0,1,3.473-.5C368.04,440.02,368.606,440.147,368.617,440.1Z" transform="translate(-360.658 -439.612)" fill="#263238"/></g></g><g transform="translate(38.829 76.606)"><path d="M391,377.783a8.291,8.291,0,0,1,5.214,7.677c.042,11.154-22.536,23.448-22.536,23.448L343.635,389l-1.883-.762S382.311,373,391,377.783Z" transform="translate(-341.752 -376.854)" fill="#263238"/><g transform="translate(17.102 6.562)"><path d="M372.2,404.177a5.545,5.545,0,0,0,.782-.531c.493-.357,1.2-.886,2.055-1.552,1.72-1.329,4.061-3.214,6.579-5.375s4.735-4.192,6.309-5.691c.787-.75,1.418-1.364,1.844-1.8a5.6,5.6,0,0,0,.643-.693,5.625,5.625,0,0,0-.725.607l-1.91,1.724c-1.611,1.457-3.847,3.458-6.361,5.618s-4.83,4.066-6.514,5.438l-1.993,1.627A5.584,5.584,0,0,0,372.2,404.177Z" transform="translate(-372.202 -388.538)" fill="#455a64"/></g><g transform="translate(35.297 5.022)"><path d="M410.068,385.871a7.447,7.447,0,0,0-5.469,1.614c.049.08,1.145-.618,2.661-1.058S410.069,385.965,410.068,385.871Z" transform="translate(-404.597 -385.795)" fill="#455a64"/></g><g transform="translate(35.449 3.331)"><path d="M407.6,382.794a4.564,4.564,0,0,0-2.716,3.363c.088.03.416-.905,1.173-1.831S407.647,382.873,407.6,382.794Z" transform="translate(-404.868 -382.786)" fill="#455a64"/></g><g transform="translate(49.223 38.624)"><path d="M431.071,445.655c.016-.035-.358-.107-.775.235a2.811,2.811,0,0,0-.868,1.744,3.423,3.423,0,0,0,.274,1.923c.212.457.447.671.472.649.042-.029-.123-.282-.272-.73a3.9,3.9,0,0,1-.171-1.8,3.014,3.014,0,0,1,.71-1.627C430.76,445.716,431.077,445.7,431.071,445.655Z" transform="translate(-429.392 -445.623)" fill="#263238"/></g></g><g transform="translate(23.537 59.313)"><path d="M372.157,346.065l-10.7,27.127-46.077.751-.853-2.493,16.148-.586,7.761-24.064Z" transform="translate(-314.526 -346.065)" fill="#455a64"/><g transform="translate(35.264 11.516)"><path d="M378.16,366.8a2.047,2.047,0,0,1,2.216.236A1.792,1.792,0,0,1,380.81,369a1.941,1.941,0,0,1-1.665,1.163,1.75,1.75,0,0,1-1.76-1.162,1.965,1.965,0,0,1,.775-2.2" transform="translate(-377.312 -366.569)" fill="#ebebeb"/></g></g><g transform="translate(7.567 79.136)"><path d="M352.127,412.237s-42.451-27.845-44.189-28.424S302,380.481,297.8,381.64s-7.967,4.925-9.85,10.429c-1.076,3.145-1.584,8.511-1.822,12.534a18.593,18.593,0,0,0,4.351,13.258,11.871,11.871,0,0,0,5.293,3.758c.442.138.9.256,1.372.358a19.966,19.966,0,0,0,20.783-8.726l.991-1.508s27.77,10.2,28.2,10.057Z" transform="translate(-286.092 -381.358)" fill="#263238"/><g transform="translate(13.517 1.854)"><path d="M310.158,406.02s.077.039.233.1l.695.276,2.691,1.036,10,3.768c4.248,1.585,9.338,3.47,15.047,5.547s12.038,4.354,18.8,6.643l.123.042.06-.116,3.317-6.333,1.691-3.23.065-.125-.118-.075L330.378,393l-9.727-6.136-2.642-1.648-.69-.422c-.156-.094-.24-.135-.24-.135s.073.058.224.16l.674.447,2.612,1.7,9.676,6.215,32.328,20.635-.052-.2-1.691,3.23-3.314,6.335.183-.074c-6.754-2.282-13.085-4.55-18.8-6.608l-15.069-5.484-10.033-3.681-2.71-.986-.7-.249C310.242,406.041,310.158,406.02,310.158,406.02Z" transform="translate(-310.158 -384.66)" fill="#455a64"/></g></g><g transform="translate(15.939)"><g transform="translate(1.823)"><path d="M311.971,243.93c.723-1.957,2.324-2.807,4.351-3.3a6.507,6.507,0,0,1,5.822,1.5c1.029.942,1.783,2.245,3.054,2.821,2.093.949,4.774-.438,6.758.722a2.964,2.964,0,0,1-1.911,5.494,2.629,2.629,0,0,1,.679,3.877,3.95,3.95,0,0,1-4.126,1.089,8.323,8.323,0,0,1-3.681-2.53c-1.025-1.106-1.922-2.333-3.032-3.354a6.471,6.471,0,0,0-4-1.9,5.925,5.925,0,0,0-4.993,3.033,15.173,15.173,0,0,0-1.769,5.818,25.06,25.06,0,0,1-1.3,5.967c-.092.222-.222.467-.457.516-.339.071-.587-.3-.723-.623a29.97,29.97,0,0,1-2.394-11.4c-.024-2.27.23-4.4,1.64-6.175s4.662-2.889,6.086-1.554" transform="translate(-304.243 -240.46)" fill="#263238"/></g><g transform="translate(1.578 2.674)"><path d="M306.993,255.078l-3.12,22.678a6.81,6.81,0,0,0,6.152,7.712h0a6.813,6.813,0,0,0,7.341-5.866c.233-1.707.431-3.13.467-3.3,0,0,5.848.251,7.051-5.405.581-2.734,1.32-8.461,1.929-13.651a10.771,10.771,0,0,0-8.592-11.812l-.547-.11C311.7,244.486,307.662,249.088,306.993,255.078Z" transform="translate(-303.808 -245.222)" fill="#ffbe9d"/><g transform="translate(7.077 27.417)"><path d="M323.382,297.615a13.448,13.448,0,0,1-6.973-3.578s.932,4.43,6.693,5.05Z" transform="translate(-316.409 -294.037)" fill="#eb996e"/></g></g><g transform="translate(0 16.321)"><path d="M305.385,270.019c-.088-.061-3.666-1.93-4.316,1.971s3.4,3.75,3.426,3.64S305.385,270.019,305.385,270.019Z" transform="translate(-300.998 -269.519)" fill="#ffbe9d"/><g transform="translate(1.02 1.215)"><path d="M304.345,274.9c-.015-.015-.076.037-.2.07a.689.689,0,0,1-.51-.074,1.706,1.706,0,0,1-.526-1.638,2.278,2.278,0,0,1,.353-.942.8.8,0,0,1,.6-.436.351.351,0,0,1,.37.253c.034.118,0,.192.016.2s.095-.051.09-.217a.435.435,0,0,0-.112-.27.519.519,0,0,0-.359-.162.969.969,0,0,0-.811.486,2.338,2.338,0,0,0-.417,1.049,1.789,1.789,0,0,0,.71,1.85.737.737,0,0,0,.639,0C304.323,274.994,304.358,274.911,304.345,274.9Z" transform="translate(-302.814 -271.683)" fill="#eb996e"/></g></g><g transform="translate(3.936 1.879)"><path d="M330.089,255.683a8.353,8.353,0,0,1-6.948-3.092c-1.146-1.446-1.874-3.34-3.5-4.217a4.7,4.7,0,0,0-3.619-.222,9.075,9.075,0,0,0-3.16,1.921c.52,3.1-.859,6.17-2.2,9.013a1.571,1.571,0,0,1-.63.8c-.529.261-1.161-.152-1.477-.65a4.884,4.884,0,0,1-.547-2.737,16.259,16.259,0,0,1,1.294-6.281,11.073,11.073,0,0,1,4.078-4.884,10.492,10.492,0,0,1,7.76-1.285,12.884,12.884,0,0,1,6.8,4.083,7.548,7.548,0,0,1,1.833,3.218" transform="translate(-308.006 -243.806)" fill="#263238"/></g></g></g></g></svg>