<svg xmlns="http://www.w3.org/2000/svg" width="288.858" height="180.699" viewBox="0 0 288.858 180.699"><g transform="translate(-156.189 -159.422)"><path d="M491.8,319.7a52.155,52.155,0,0,1-9.714,20c-3.381,0-16.149,0-34.321,0l-34.817,0c-76.431-.012-188.078-.078-188.172-.371l-.023-.055a.3.3,0,0,1-.023-.08c-.092-.216-37.079-60.716,20.421-102.834,22.5-16.479-1.408-27.357,16.483-45.7,13.562-13.905,27.94-8.493,42.718-5.939,7.627,1.318,15.361,1.875,23.144-1.38a36.755,36.755,0,0,0,12.15-8.572,45.2,45.2,0,0,1,7.468-6.164c8.354-5.532,18.278-8.217,28.188-8.963,25.546-1.909,54.295,8.831,69.131,24.527,2.987,3.161,16.569,19.515,5.862,41.995a10.924,10.924,0,0,0,.291,9.812c2.13,4.512,6.593,9.039,11.634,13.684,7,6.462,15.187,13.194,19.7,20.46C491.329,285.264,496.1,302.328,491.8,319.7Z" transform="translate(-50.623 0)" fill="#ebf3fa"/><path d="M1979.228,690.175a7.2,7.2,0,0,1,7.039-3.924s7.206-7.357,14.89-.981c0,0,8.168-1.58,14.217,1.368,4.033,1.965,5.365,4.027,5.365,4.027Z" transform="translate(-1626.19 -466.749)" fill="#fff"/><path d="M2370.321,1217.153a5.983,5.983,0,0,1,5.848-3.26s5.986-6.112,12.37-.815c0,0,6.786-1.312,11.811,1.136a11.33,11.33,0,0,1,4.457,3.346Z" transform="translate(-1975.053 -937.958)" fill="#fff"/><path d="M391.8,530.991c-34.1-.005-54.059-.022-89.146-.064-18.033-.022-34.474-.049-47.552-.088-18.51-.052-30.287-.124-30.317-.218l-.023-.055a.3.3,0,0,1-.023-.08,86.144,86.144,0,0,1-6.693-14.9,90.369,90.369,0,0,1-4.961-24.126h0c-1.184-19.827,4.868-43.873,32.076-63.8,22.5-16.479-1.408-27.357,16.483-45.7,13.562-13.905,34.712-6.81,43.964-1.277,13.65,8.165,30.438,17.521,38.238,74.333C352.853,520.648,391.8,530.991,391.8,530.991Z" transform="translate(-50.625 -191.288)" fill="#739af0"/><path d="M334.89,1502.271H256.242c-18.51-.052-30.287-.124-30.317-.218L225.9,1502a.3.3,0,0,1-.023-.08,86.156,86.156,0,0,1-6.693-14.9,90.368,90.368,0,0,1-4.961-24.126,45.175,45.175,0,0,1,34.816,17.142C264.771,1499.725,323.162,1474.055,334.89,1502.271Z" transform="translate(-51.768 -1162.72)" fill="#2b478b" opacity="0.5"/><g transform="translate(241.025 189.383)"><path d="M1173.84,643.958a53.831,53.831,0,1,1-53.831-53.831A53.648,53.648,0,0,1,1173.84,643.958Z" transform="translate(-1052.755 -573.581)" fill="#2b478b"/><path d="M1293.787,643.958a53.648,53.648,0,0,1-14.825,37.1l-78.317-73.874a53.831,53.831,0,0,1,93.142,36.775Z" transform="translate(-1172.703 -573.581)" fill="#8c9df4"/><g transform="translate(59.347 23.912)"><path d="M1493.719,660.862l-1.853.515-.382-1.47,2.764-.882h1.265V669.39h-1.794Z" transform="translate(-1491.484 -658.95)" fill="#ebf3fa"/><path d="M1548.537,667.356l3.544-3.014c1.412-1.191,1.926-1.853,1.926-2.779a1.543,1.543,0,0,0-1.661-1.6c-.941,0-1.588.515-2.382,1.544l-1.279-1a4.219,4.219,0,0,1,3.794-2.161,3.088,3.088,0,0,1,3.4,3.1c0,1.617-.867,2.485-2.676,3.985l-2.117,1.764h4.9v1.588h-7.44Z" transform="translate(-1542.376 -658.343)" fill="#ebf3fa"/></g><g transform="translate(62.177 104.204)"><path d="M1518.959,1411.507c-.794-.794-1.265-1.868-1.265-3.97,0-3.146,1.5-5.6,4.411-5.6a4.665,4.665,0,0,1,3.147,1.147l-.971,1.4a3.416,3.416,0,0,0-2.235-.9c-1.529,0-2.382,1.382-2.47,3.264a3.277,3.277,0,0,1,2.455-1.029c2,0,3.6,1.176,3.6,3.264a3.572,3.572,0,0,1-3.823,3.5A3.823,3.823,0,0,1,1518.959,1411.507Zm4.867-2.382a1.873,1.873,0,0,0-2.1-1.794,1.9,1.9,0,0,0-2.088,1.838,1.925,1.925,0,0,0,2.132,1.853A1.876,1.876,0,0,0,1523.826,1409.125Z" transform="translate(-1517.695 -1401.935)" fill="#ebf3fa"/></g><g transform="translate(102.244 64.859)"><path d="M1888.761,1046.218l1.264-1.176a3.357,3.357,0,0,0,2.705,1.353,1.615,1.615,0,0,0,1.779-1.588c0-1.014-.926-1.588-2.367-1.588h-.838l-.294-1.132,2.779-2.955h-4.455v-1.573h6.808v1.353l-2.867,2.941c1.632.235,3.029,1.073,3.029,2.926a3.293,3.293,0,0,1-3.6,3.249A4.88,4.88,0,0,1,1888.761,1046.218Z" transform="translate(-1888.761 -1037.558)" fill="#ebf3fa"/></g><g transform="translate(24.273 64.77)"><path d="M1166.9,1046.151l.985-1.382a3.432,3.432,0,0,0,2.353.97c1.514,0,2.426-1.338,2.485-3.235a3.032,3.032,0,0,1-2.411,1.088c-2.191,0-3.646-1.279-3.646-3.294a3.58,3.58,0,0,1,3.838-3.558,3.689,3.689,0,0,1,2.852,1.088c.765.765,1.25,1.9,1.25,3.955,0,3.308-1.647,5.6-4.411,5.6A4.886,4.886,0,0,1,1166.9,1046.151Zm5.764-5.955a1.945,1.945,0,0,0-2.147-1.9,1.9,1.9,0,1,0,2.147,1.9Z" transform="translate(-1166.664 -1036.741)" fill="#ebf3fa"/></g><g transform="translate(0 2.884)"><path d="M1008.69,598.312h0c-.391,0-.784-.01-1.169-.019a.258.258,0,0,1,.013-.516c.382.01.772.016,1.16.019a.258.258,0,0,1,0,.517Zm1.165,0a.258.258,0,0,1,0-.517c.385,0,.775-.01,1.159-.021a.255.255,0,0,1,.265.252.258.258,0,0,1-.251.265c-.387.01-.779.017-1.168.021Zm-3.493-.057h-.011c-.391-.017-.783-.036-1.168-.059a.258.258,0,0,1,.031-.516c.381.023.771.042,1.159.059a.258.258,0,0,1-.011.517Zm5.816,0a.258.258,0,0,1-.011-.516c.385-.017.775-.037,1.159-.06a.258.258,0,1,1,.031.516c-.387.023-.779.044-1.167.061Zm-8.141-.134h-.02c-.387-.03-.779-.063-1.165-.1a.258.258,0,1,1,.048-.514c.383.036.772.069,1.156.1a.258.258,0,0,1-.019.516Zm10.466-.007a.258.258,0,0,1-.02-.516c.387-.03.776-.064,1.156-.1a.258.258,0,0,1,.049.514c-.383.036-.775.07-1.165.1Zm-12.785-.211h-.029c-.39-.043-.781-.091-1.161-.14a.258.258,0,1,1,.066-.512c.377.049.764.1,1.152.138a.258.258,0,0,1-.028.515Zm15.1-.01a.258.258,0,0,1-.029-.515c.383-.043.771-.09,1.152-.14a.258.258,0,1,1,.067.512c-.384.05-.774.1-1.161.141Zm-17.413-.288-.038,0c-.384-.056-.773-.117-1.155-.18a.258.258,0,1,1,.084-.51c.379.062.765.122,1.146.178a.258.258,0,0,1-.037.514Zm19.723-.013a.258.258,0,0,1-.037-.514c.379-.056.765-.117,1.146-.18a.258.258,0,1,1,.084.51c-.384.064-.773.125-1.155.181Zm-22.021-.365a.256.256,0,0,1-.047,0c-.385-.07-.771-.144-1.148-.22a.258.258,0,1,1,.1-.507c.374.075.758.148,1.139.218a.258.258,0,0,1-.046.513Zm24.318-.017a.258.258,0,0,1-.046-.512c.377-.069.76-.143,1.139-.22a.258.258,0,0,1,.1.506c-.382.077-.768.151-1.148.221A.257.257,0,0,1,1021.429,597.207Zm-26.6-.441a.262.262,0,0,1-.056-.006c-.382-.084-.765-.171-1.14-.26a.258.258,0,1,1,.119-.5c.372.088.752.175,1.131.258a.258.258,0,0,1-.055.511Zm28.885-.019a.258.258,0,0,1-.055-.511c.374-.082.755-.17,1.131-.259a.258.258,0,1,1,.12.5c-.379.09-.762.178-1.139.261A.262.262,0,0,1,1023.712,596.746Zm-31.151-.518a.259.259,0,0,1-.064-.008c-.379-.1-.759-.2-1.13-.3a.258.258,0,0,1,.137-.5c.368.1.746.2,1.121.3a.258.258,0,0,1-.064.509Zm33.417-.022a.258.258,0,0,1-.064-.508c.373-.1.751-.2,1.121-.3a.258.258,0,0,1,.137.5c-.373.1-.753.2-1.13.3A.264.264,0,0,1,1025.977,596.206Zm-35.663-.594a.262.262,0,0,1-.073-.01c-.371-.109-.748-.223-1.119-.339a.258.258,0,1,1,.154-.493c.368.115.742.228,1.11.336a.258.258,0,0,1-.073.506Zm37.909-.026a.258.258,0,0,1-.073-.506c.37-.109.743-.223,1.11-.338a.258.258,0,0,1,.155.493c-.369.116-.746.23-1.118.34A.263.263,0,0,1,1028.223,595.587Zm-40.136-.67a.254.254,0,0,1-.081-.013c-.371-.123-.744-.25-1.111-.379a.258.258,0,1,1,.171-.487c.363.128.734.254,1.1.376a.258.258,0,0,1-.081.5Zm42.359-.027a.258.258,0,0,1-.082-.5c.365-.122.735-.248,1.1-.376a.258.258,0,0,1,.172.487c-.365.129-.738.256-1.106.379A.26.26,0,0,1,1030.445,594.89Zm-44.564-.748a.255.255,0,0,1-.09-.016c-.366-.136-.735-.276-1.1-.418a.258.258,0,1,1,.188-.481c.359.141.724.28,1.088.415a.258.258,0,0,1-.09.5Zm46.761-.027a.258.258,0,0,1-.09-.5c.359-.134.724-.273,1.083-.415a.258.258,0,1,1,.189.481c-.362.142-.73.283-1.092.418A.257.257,0,0,1,1032.642,594.115Zm-48.937-.824a.256.256,0,0,1-.1-.02c-.361-.148-.724-.3-1.08-.456a.258.258,0,1,1,.205-.474c.354.153.714.3,1.072.452a.258.258,0,0,1-.1.5Zm51.105-.026a.258.258,0,0,1-.1-.5c.357-.147.715-.3,1.064-.45a.258.258,0,1,1,.205.474c-.352.153-.713.305-1.073.454A.258.258,0,0,1,1034.81,593.264Zm-53.249-.9a.258.258,0,0,1-.106-.023c-.353-.16-.711-.326-1.063-.493a.258.258,0,0,1,.221-.467c.35.166.7.331,1.055.489a.258.258,0,0,1-.107.494Zm55.378-.022a.258.258,0,0,1-.107-.494c.348-.158.7-.322,1.048-.487a.258.258,0,1,1,.222.467c-.351.167-.706.332-1.057.491A.259.259,0,0,1,1036.939,592.342Zm-57.488-.979a.256.256,0,0,1-.115-.027c-.351-.174-.7-.352-1.045-.53a.258.258,0,1,1,.238-.459c.34.176.689.353,1.037.526a.258.258,0,0,1-.115.49Zm59.585-.018a.258.258,0,0,1-.115-.49c.345-.171.692-.347,1.031-.524a.258.258,0,1,1,.238.459c-.342.178-.692.355-1.039.528A.256.256,0,0,1,1039.036,591.345Zm-61.658-1.055a.258.258,0,0,1-.122-.031c-.34-.184-.685-.374-1.026-.566a.258.258,0,1,1,.253-.45c.338.19.68.379,1.018.562a.258.258,0,0,1-.123.486Zm63.719-.014a.258.258,0,0,1-.123-.486c.335-.181.676-.369,1.013-.559a.258.258,0,0,1,.254.45c-.34.191-.683.381-1.021.564A.257.257,0,0,1,1041.1,590.276Zm-65.753-1.131a.256.256,0,0,1-.13-.036c-.336-.2-.674-.4-1.005-.6a.258.258,0,1,1,.269-.441c.328.2.664.4,1,.6a.258.258,0,0,1-.131.481Zm67.777-.009a.258.258,0,0,1-.131-.481c.331-.194.666-.394.993-.594a.258.258,0,1,1,.269.441c-.33.2-.667.4-1,.6A.257.257,0,0,1,1043.121,589.136Zm-69.768-1.205a.257.257,0,0,1-.138-.04c-.328-.208-.659-.422-.983-.635a.258.258,0,1,1,.284-.431c.322.212.65.424.976.63a.258.258,0,0,1-.138.477Zm71.752-.005a.258.258,0,0,1-.139-.476c.326-.206.653-.418.972-.628a.258.258,0,0,1,.284.431c-.322.212-.652.425-.98.633A.256.256,0,0,1,1045.105,587.926Zm-73.7-1.277a.257.257,0,0,1-.146-.045c-.32-.219-.643-.444-.96-.669a.258.258,0,1,1,.3-.421c.315.224.636.447.953.664a.258.258,0,0,1-.146.472Zm75.642,0a.258.258,0,0,1-.146-.472c.315-.215.635-.438.95-.662a.258.258,0,0,1,.3.421c-.318.226-.641.45-.958.667A.257.257,0,0,1,1047.047,586.647Zm1.9-1.345a.258.258,0,0,1-.153-.466c.312-.229.624-.463.927-.694a.258.258,0,1,1,.313.411c-.306.233-.62.469-.934.7A.257.257,0,0,1,1048.943,585.3Zm-79.44,0a.256.256,0,0,1-.153-.05c-.312-.229-.627-.465-.936-.7a.258.258,0,0,1,.313-.411c.307.234.62.468.929.7a.258.258,0,0,1-.153.466Zm81.29-1.408a.258.258,0,0,1-.161-.461c.3-.238.605-.482.9-.726a.258.258,0,1,1,.327.4c-.3.246-.606.492-.91.732A.257.257,0,0,1,1050.793,583.891Zm-83.143-.005a.257.257,0,0,1-.16-.056c-.307-.243-.614-.49-.911-.733a.258.258,0,1,1,.328-.4c.3.242.6.487.9.728a.258.258,0,0,1-.16.461Zm84.943-1.469a.258.258,0,0,1-.167-.455c.293-.248.588-.5.878-.758a.258.258,0,1,1,.341.388c-.292.256-.589.513-.884.763A.257.257,0,0,1,1052.594,582.417Zm-86.746-.008a.257.257,0,0,1-.167-.061c-.3-.253-.6-.51-.885-.764a.258.258,0,1,1,.341-.388c.287.252.582.507.878.758a.258.258,0,0,1-.167.455Zm88.5-1.528a.258.258,0,0,1-.174-.449c.285-.259.571-.524.851-.787a.258.258,0,1,1,.354.376c-.282.266-.571.533-.858.794A.258.258,0,0,1,1054.343,580.882Zm-90.245-.01a.258.258,0,0,1-.174-.067c-.285-.259-.574-.526-.858-.794a.258.258,0,1,1,.354-.376c.282.266.569.531.852.788a.258.258,0,0,1-.174.449Zm91.941-1.586a.258.258,0,0,1-.18-.443c.279-.271.556-.546.824-.817a.258.258,0,1,1,.367.364c-.27.272-.549.549-.83.823A.258.258,0,0,1,1056.038,579.286Zm-93.637-.011a.257.257,0,0,1-.18-.073c-.279-.272-.558-.549-.83-.823a.258.258,0,1,1,.367-.364c.27.272.547.547.824.816a.258.258,0,0,1-.18.443Zm95.277-1.642a.258.258,0,0,1-.187-.437c.267-.279.535-.563.8-.845a.258.258,0,1,1,.379.351c-.262.284-.532.57-.8.851A.258.258,0,0,1,1057.678,577.633Zm-96.916-.011a.257.257,0,0,1-.187-.08c-.268-.28-.537-.566-.8-.851a.258.258,0,1,1,.379-.351c.262.283.529.567.795.844a.258.258,0,0,1-.186.437Zm98.5-1.7a.258.258,0,0,1-.193-.431c.258-.289.516-.582.766-.872a.258.258,0,0,1,.391.338c-.252.292-.512.587-.772.878A.258.258,0,0,1,1059.26,575.924Zm-100.079-.011a.257.257,0,0,1-.193-.086c-.26-.291-.519-.586-.771-.878a.258.258,0,0,1,.391-.338c.25.29.507.583.765.871a.258.258,0,0,1-.193.43Zm101.6-1.753a.258.258,0,0,1-.2-.424c.248-.3.5-.6.736-.9a.258.258,0,1,1,.4.324c-.241.3-.491.6-.741.9A.258.258,0,0,1,1060.783,574.16Zm-103.123-.009a.258.258,0,0,1-.2-.093c-.248-.3-.5-.6-.74-.9a.258.258,0,0,1,.4-.324c.241.3.488.6.734.9a.259.259,0,0,1-.2.424Zm104.584-1.807a.258.258,0,0,1-.2-.417c.235-.3.472-.613.7-.923a.258.258,0,1,1,.413.31c-.234.312-.473.625-.71.93A.258.258,0,0,1,1062.244,572.345ZM956.2,572.339a.258.258,0,0,1-.2-.1c-.239-.308-.477-.62-.708-.928a.258.258,0,0,1,.413-.31c.229.306.466.616.7.921a.259.259,0,0,1-.2.417Zm107.44-1.859a.258.258,0,0,1-.209-.41c.226-.313.452-.631.672-.947a.258.258,0,0,1,.424.3c-.222.318-.449.639-.677.954A.258.258,0,0,1,1063.642,570.48Zm-108.835,0a.258.258,0,0,1-.21-.107c-.228-.315-.455-.635-.675-.952a.258.258,0,1,1,.424-.3c.219.314.444.632.67.945a.258.258,0,0,1-.209.41Zm-1.329-1.908a.258.258,0,0,1-.215-.114c-.217-.323-.433-.651-.642-.974a.258.258,0,1,1,.434-.28c.208.321.422.647.637.967a.258.258,0,0,1-.214.4Zm111.5,0a.258.258,0,0,1-.214-.4c.215-.32.43-.647.639-.97a.258.258,0,0,1,.434.28c-.21.326-.427.655-.644.978A.259.259,0,0,1,1064.975,568.567Zm-112.76-1.949A.258.258,0,0,1,952,566.5c-.2-.327-.408-.662-.608-1a.258.258,0,1,1,.443-.265c.2.331.4.663.6.988a.258.258,0,0,1-.219.395Zm114.026-.01a.258.258,0,0,1-.219-.395c.2-.327.407-.661.605-.992a.258.258,0,1,1,.443.265c-.2.334-.4.67-.61,1A.258.258,0,0,1,1066.241,566.608Zm-115.219-1.984a.258.258,0,0,1-.224-.129c-.192-.334-.385-.676-.573-1.016a.258.258,0,1,1,.452-.25c.186.337.377.676.568,1.008a.258.258,0,0,1-.224.387Zm116.417-.018a.258.258,0,0,1-.224-.387c.193-.336.385-.676.57-1.013a.258.258,0,1,1,.452.25c-.187.339-.38.682-.575,1.021A.258.258,0,0,1,1067.439,564.606ZM949.9,562.59a.258.258,0,0,1-.229-.137c-.181-.342-.362-.69-.537-1.035a.258.258,0,0,1,.461-.234c.174.342.353.688.533,1.027a.258.258,0,0,1-.228.379Zm118.667-.028a.256.256,0,0,1-.121-.03.258.258,0,0,1-.107-.349c.18-.34.36-.688.535-1.032a.258.258,0,0,1,.461.234c-.176.347-.357.7-.539,1.04A.258.258,0,0,1,1068.566,562.563ZM948.847,560.52a.258.258,0,0,1-.232-.145c-.169-.346-.337-.7-.5-1.052a.258.258,0,1,1,.469-.218c.162.349.329.7.5,1.044a.258.258,0,0,1-.232.371Zm120.775-.039a.258.258,0,0,1-.232-.371c.169-.349.337-.7.5-1.051a.258.258,0,0,1,.469.217c-.163.351-.332.708-.5,1.059A.258.258,0,0,1,1069.622,560.481Zm-121.754-2.065a.258.258,0,0,1-.236-.154c-.158-.355-.313-.714-.463-1.069a.258.258,0,1,1,.476-.2c.149.352.3.708.46,1.06a.258.258,0,0,1-.236.363Zm122.737-.053a.258.258,0,0,1-.236-.363c.157-.354.312-.713.462-1.068a.258.258,0,0,1,.476.2c-.151.358-.307.719-.465,1.076A.258.258,0,0,1,1070.605,558.363Zm-123.641-2.083a.258.258,0,0,1-.24-.162c-.145-.36-.289-.726-.427-1.088a.258.258,0,1,1,.482-.185c.137.359.28.722.424,1.08a.259.259,0,0,1-.24.355Zm124.55-.069a.258.258,0,0,1-.24-.355c.143-.357.286-.722.424-1.084a.258.258,0,1,1,.483.184c-.139.365-.283.732-.427,1.092A.259.259,0,0,1,1071.514,556.21ZM946.131,554.1a.259.259,0,0,1-.243-.17c-.133-.365-.263-.736-.389-1.1a.258.258,0,0,1,.489-.168c.125.363.255.731.386,1.094a.258.258,0,0,1-.243.347Zm126.215-.077a.255.255,0,0,1-.088-.015.258.258,0,0,1-.155-.331c.131-.363.261-.733.386-1.1a.258.258,0,1,1,.489.167c-.126.368-.257.741-.389,1.107A.258.258,0,0,1,1072.347,554.027ZM945.375,551.9a.258.258,0,0,1-.246-.179c-.12-.37-.238-.745-.35-1.115a.258.258,0,0,1,.494-.151c.112.367.229.74.348,1.107a.258.258,0,0,1-.246.338Zm127.728-.086a.258.258,0,0,1-.246-.338c.119-.37.236-.744.348-1.112a.258.258,0,1,1,.494.15c-.112.37-.23.748-.35,1.121A.258.258,0,0,1,1073.1,551.815ZM944.7,549.673a.258.258,0,0,1-.248-.187c-.106-.372-.211-.752-.311-1.127a.258.258,0,1,1,.5-.133c.1.372.2.749.309,1.118a.258.258,0,0,1-.177.319A.254.254,0,0,1,944.7,549.673Zm129.083-.091a.258.258,0,0,1-.249-.329c.105-.372.209-.748.307-1.119a.258.258,0,1,1,.5.132c-.1.373-.2.753-.31,1.128A.258.258,0,0,1,1073.78,549.581ZM944.1,547.422a.258.258,0,0,1-.251-.2c-.093-.376-.185-.759-.271-1.137a.258.258,0,1,1,.5-.115c.086.375.177.755.269,1.128a.258.258,0,0,1-.189.313A.261.261,0,0,1,944.1,547.422Zm130.28-.092a.253.253,0,0,1-.062-.008.258.258,0,0,1-.189-.312c.092-.376.183-.755.268-1.129a.258.258,0,1,1,.5.115c-.086.376-.177.759-.27,1.138A.258.258,0,0,1,1074.377,547.33Zm-130.8-2.178a.258.258,0,0,1-.252-.2c-.08-.38-.158-.766-.232-1.146a.258.258,0,0,1,.507-.1c.073.377.15.76.23,1.137a.258.258,0,0,1-.2.306A.264.264,0,0,1,943.575,545.152Zm131.319-.093a.25.25,0,0,1-.053-.006.258.258,0,0,1-.2-.306c.079-.378.156-.761.228-1.137a.258.258,0,0,1,.507.1c-.073.38-.15.766-.23,1.146A.259.259,0,0,1,1074.894,545.059Zm-131.761-2.194a.258.258,0,0,1-.254-.214c-.067-.381-.131-.769-.192-1.153a.258.258,0,1,1,.51-.08c.06.381.124.766.19,1.144a.258.258,0,0,1-.21.3A.255.255,0,0,1,943.134,542.865Zm132.2-.094a.262.262,0,0,1-.044,0,.258.258,0,0,1-.21-.3c.066-.38.129-.765.188-1.145a.258.258,0,1,1,.51.08c-.06.383-.123.771-.19,1.153A.258.258,0,0,1,1075.333,542.772Zm-132.561-2.207a.258.258,0,0,1-.256-.223c-.053-.382-.1-.772-.151-1.159a.258.258,0,0,1,.513-.063c.047.384.1.771.15,1.15a.258.258,0,0,1-.22.292Zm132.919-.094-.036,0a.258.258,0,0,1-.22-.291c.053-.382.1-.769.148-1.151a.258.258,0,0,1,.513.062c-.046.385-.1.775-.15,1.16A.258.258,0,0,1,1075.691,540.47Zm-133.2-2.217a.258.258,0,0,1-.257-.232c-.04-.386-.078-.778-.111-1.164a.258.258,0,0,1,.515-.045c.033.383.07.771.11,1.155a.258.258,0,0,1-.23.284Zm133.479-.095-.027,0a.258.258,0,0,1-.23-.283c.039-.38.076-.769.109-1.155a.258.258,0,0,1,.515.044c-.033.389-.07.781-.11,1.164A.258.258,0,0,1,1075.969,538.158Zm-133.68-2.226a.258.258,0,0,1-.257-.24c-.027-.387-.051-.78-.071-1.167a.258.258,0,0,1,.516-.027c.02.384.044.774.07,1.158a.258.258,0,0,1-.24.276Zm133.878-.1h-.018a.258.258,0,0,1-.24-.275c.026-.382.049-.772.069-1.158a.258.258,0,0,1,.516.026c-.02.389-.043.782-.069,1.167A.258.258,0,0,1,1076.167,535.838Zm-134-2.231a.258.258,0,0,1-.258-.249c-.013-.385-.024-.777-.031-1.166a.258.258,0,0,1,.254-.263h0a.258.258,0,0,1,.258.254c.007.386.017.776.031,1.158a.258.258,0,0,1-.249.267Zm134.118-.1h-.009a.258.258,0,0,1-.25-.267c.013-.384.023-.774.029-1.16a.262.262,0,0,1,.262-.254.259.259,0,0,1,.254.263c-.006.388-.016.782-.029,1.169A.258.258,0,0,1,1076.286,533.512ZM942.126,531.28a.258.258,0,0,1-.258-.258v-.065c0-.387,0-.781.01-1.169a.263.263,0,0,1,.263-.254.258.258,0,0,1,.254.263c-.007.385-.01.776-.01,1.16v.065A.258.258,0,0,1,942.126,531.28Zm134.2-.1a.259.259,0,0,1-.259-.258c0-.386,0-.776-.01-1.16a.258.258,0,0,1,.254-.263.263.263,0,0,1,.263.254c.007.387.01.78.01,1.169A.258.258,0,0,1,1076.324,531.183Zm-134.158-2.3h-.009a.258.258,0,0,1-.249-.267c.013-.389.03-.782.05-1.168a.258.258,0,0,1,.516.027c-.02.383-.036.773-.05,1.159A.258.258,0,0,1,942.166,528.887Zm134.117-.03a.258.258,0,0,1-.258-.249c-.013-.387-.03-.777-.05-1.159a.258.258,0,0,1,.516-.027c.02.386.037.779.05,1.168a.258.258,0,0,1-.249.267Zm-134-2.3h-.018a.258.258,0,0,1-.24-.275c.027-.388.057-.78.09-1.165a.258.258,0,1,1,.515.044c-.033.383-.063.772-.089,1.157A.259.259,0,0,1,942.285,526.561Zm133.877-.031a.258.258,0,0,1-.257-.24c-.027-.386-.057-.775-.09-1.157a.258.258,0,1,1,.515-.044c.033.385.064.777.091,1.165a.259.259,0,0,1-.24.276Zm-133.678-2.29h-.027a.259.259,0,0,1-.23-.284c.04-.388.084-.778.13-1.162a.258.258,0,1,1,.513.062c-.046.38-.09.768-.129,1.153A.258.258,0,0,1,942.485,524.24Zm133.477-.031a.258.258,0,0,1-.256-.232c-.04-.384-.084-.772-.13-1.153a.258.258,0,0,1,.513-.062c.047.383.09.774.131,1.162a.258.258,0,0,1-.23.284Zm-133.2-2.282-.036,0a.258.258,0,0,1-.22-.291c.053-.383.11-.772.17-1.157a.258.258,0,1,1,.51.08c-.06.382-.117.768-.169,1.148A.258.258,0,0,1,942.764,521.928Zm132.918-.03a.258.258,0,0,1-.255-.223c-.053-.381-.11-.767-.17-1.148a.258.258,0,0,1,.51-.08c.06.384.118.773.171,1.156a.258.258,0,0,1-.22.291Zm-132.558-2.271a.259.259,0,0,1-.255-.3c.066-.379.137-.766.21-1.15a.258.258,0,0,1,.507.1c-.073.381-.143.765-.209,1.141A.259.259,0,0,1,943.124,519.627Zm132.2-.03a.258.258,0,0,1-.254-.214c-.066-.377-.136-.761-.209-1.141a.258.258,0,1,1,.507-.1c.074.383.145.77.211,1.15a.258.258,0,0,1-.21.3A.264.264,0,0,1,1075.321,519.6ZM943.563,517.34a.267.267,0,0,1-.053-.006.258.258,0,0,1-.2-.306c.079-.378.164-.763.25-1.142a.258.258,0,1,1,.5.115c-.086.376-.17.758-.249,1.133A.258.258,0,0,1,943.563,517.34Zm131.318-.03a.258.258,0,0,1-.253-.205c-.08-.378-.164-.76-.249-1.133a.258.258,0,1,1,.5-.115c.086.376.171.76.251,1.142a.259.259,0,0,1-.253.312Zm-130.8-2.24a.254.254,0,0,1-.062-.008.258.258,0,0,1-.189-.313c.093-.377.191-.757.29-1.132a.258.258,0,0,1,.5.133c-.1.372-.2.75-.288,1.124A.258.258,0,0,1,944.082,515.069Zm130.279-.03a.258.258,0,0,1-.251-.2c-.092-.374-.189-.751-.288-1.124a.258.258,0,0,1,.5-.133c.1.375.2.756.291,1.132a.258.258,0,0,1-.189.313A.265.265,0,0,1,1074.361,515.04ZM944.68,512.818a.258.258,0,0,1-.249-.329c.106-.373.217-.75.33-1.122a.258.258,0,0,1,.494.15c-.112.369-.222.743-.327,1.113A.258.258,0,0,1,944.68,512.818Zm129.082-.029a.259.259,0,0,1-.248-.188c-.105-.37-.216-.744-.328-1.113a.258.258,0,0,1,.494-.15c.113.371.224.749.33,1.121a.258.258,0,0,1-.178.319A.262.262,0,0,1,1073.762,512.789Zm-128.4-2.2a.259.259,0,0,1-.246-.338c.12-.372.245-.746.37-1.114a.258.258,0,0,1,.489.167c-.125.365-.248.736-.367,1.1A.258.258,0,0,1,945.358,510.585Zm127.727-.025a.258.258,0,0,1-.246-.179c-.119-.368-.242-.738-.367-1.1a.258.258,0,0,1,.489-.167c.125.366.25.739.369,1.109a.259.259,0,0,1-.246.338Zm-126.97-2.187a.259.259,0,0,1-.243-.346c.132-.366.27-.736.409-1.1a.258.258,0,0,1,.483.184c-.138.361-.274.728-.406,1.091A.258.258,0,0,1,946.115,508.373Zm126.215-.016a.258.258,0,0,1-.243-.171c-.131-.362-.268-.728-.4-1.087a.258.258,0,0,1,.483-.185c.138.362.275.73.408,1.1a.259.259,0,0,1-.243.346ZM946.948,506.19a.258.258,0,0,1-.24-.355c.145-.362.3-.726.447-1.084a.258.258,0,0,1,.476.2c-.15.355-.3.717-.444,1.076A.258.258,0,0,1,946.948,506.19Zm124.55-.008a.258.258,0,0,1-.24-.162c-.142-.354-.291-.713-.441-1.068a.258.258,0,1,1,.476-.2c.151.357.3.72.444,1.076a.259.259,0,0,1-.239.355Zm-.9-2.137a.259.259,0,0,1-.236-.154c-.155-.35-.316-.7-.478-1.053a.258.258,0,0,1,.469-.218c.163.351.325.708.481,1.061a.258.258,0,0,1-.236.363Zm-122.737-.006a.258.258,0,0,1-.236-.363c.158-.357.321-.716.485-1.067a.258.258,0,0,1,.469.218c-.162.349-.324.705-.481,1.059A.258.258,0,0,1,947.858,504.038Zm121.76-2.1a.258.258,0,0,1-.233-.146c-.167-.344-.34-.693-.514-1.036a.258.258,0,0,1,.461-.234c.175.346.35.7.518,1.044a.258.258,0,0,1-.232.371Zm-120.776-.019a.258.258,0,0,1-.232-.371c.169-.349.345-.7.521-1.049a.258.258,0,1,1,.461.234c-.175.345-.349.695-.517,1.041A.258.258,0,0,1,948.842,501.921Zm119.725-2.052a.259.259,0,0,1-.229-.138c-.18-.339-.365-.682-.55-1.018a.258.258,0,0,1,.452-.25c.187.338.373.684.554,1.026a.258.258,0,0,1-.228.379ZM949.9,499.839a.258.258,0,0,1-.228-.379c.182-.344.37-.69.558-1.03a.258.258,0,1,1,.452.25c-.186.337-.373.681-.553,1.022A.258.258,0,0,1,949.9,499.839Zm117.546-2a.258.258,0,0,1-.224-.13c-.191-.332-.387-.668-.585-1a.258.258,0,0,1,.443-.265c.2.333.4.672.59,1.006a.258.258,0,0,1-.224.387ZM951.027,497.8a.258.258,0,0,1-.224-.387c.193-.336.393-.676.593-1.01a.258.258,0,0,1,.443.265c-.2.332-.4.669-.588,1A.258.258,0,0,1,951.027,497.8Zm115.225-1.956a.258.258,0,0,1-.219-.122c-.2-.325-.411-.654-.62-.978a.258.258,0,0,1,.434-.28c.211.326.421.658.624.986a.258.258,0,0,1-.219.395ZM952.226,495.8a.259.259,0,0,1-.219-.395c.2-.329.416-.661.627-.988a.258.258,0,1,1,.434.281c-.21.324-.419.654-.623.981A.258.258,0,0,1,952.226,495.8Zm112.766-1.908a.258.258,0,0,1-.215-.114c-.214-.32-.434-.641-.653-.956a.258.258,0,0,1,.424-.3c.221.317.442.641.658.964a.258.258,0,0,1-.214.4Zm-111.5-.051a.258.258,0,0,1-.214-.4c.217-.322.439-.647.661-.966a.258.258,0,0,1,.424.3c-.22.316-.441.638-.656.958A.258.258,0,0,1,953.493,493.837Zm110.17-1.858a.258.258,0,0,1-.21-.107c-.225-.312-.456-.626-.686-.933a.258.258,0,0,1,.414-.31c.232.31.464.626.692.94a.258.258,0,0,1-.209.41Zm-108.836-.055a.258.258,0,0,1-.209-.41c.226-.313.46-.63.694-.942a.258.258,0,0,1,.413.31c-.232.31-.464.624-.689.935A.257.257,0,0,1,954.827,491.925Zm107.442-1.807a.257.257,0,0,1-.2-.1c-.236-.3-.477-.61-.718-.909a.258.258,0,0,1,.4-.324c.243.3.486.61.724.916a.258.258,0,0,1-.2.417Zm-106.043-.057a.258.258,0,0,1-.2-.417c.238-.306.482-.615.726-.917a.258.258,0,1,1,.4.324c-.242.3-.484.606-.72.91A.258.258,0,0,1,956.226,490.06Zm104.585-1.756a.259.259,0,0,1-.2-.093c-.246-.3-.5-.593-.749-.884a.258.258,0,0,1,.391-.338c.253.293.507.593.755.891a.258.258,0,0,1-.2.424Zm-103.123-.058a.258.258,0,0,1-.2-.424c.249-.3.5-.6.757-.891a.258.258,0,1,1,.391.338c-.252.291-.5.589-.751.884A.258.258,0,0,1,957.688,488.246Zm101.6-1.7a.258.258,0,0,1-.193-.086c-.256-.287-.518-.576-.78-.858a.258.258,0,0,1,.379-.351c.263.285.528.576.786.865a.258.258,0,0,1-.193.43Zm-100.079-.059a.258.258,0,0,1-.192-.431c.258-.288.523-.579.787-.864a.258.258,0,1,1,.379.351c-.262.283-.525.572-.781.858A.258.258,0,0,1,959.212,486.483Zm98.5-1.651a.257.257,0,0,1-.187-.08c-.268-.28-.54-.559-.809-.831a.258.258,0,1,1,.367-.364c.271.274.546.556.815.837a.258.258,0,0,1-.187.437Zm-96.916-.058a.258.258,0,0,1-.186-.437c.268-.28.543-.561.816-.837a.258.258,0,0,1,.367.364c-.271.273-.544.553-.81.83A.258.258,0,0,1,960.795,484.774Zm95.277-1.6a.257.257,0,0,1-.18-.073c-.277-.27-.558-.54-.837-.8a.258.258,0,0,1,.354-.376c.281.265.565.537.844.809a.258.258,0,0,1-.18.443Zm-93.637-.056a.258.258,0,0,1-.18-.444c.277-.27.562-.542.845-.808a.258.258,0,0,1,.354.376c-.281.264-.563.534-.838.8A.257.257,0,0,1,962.435,483.122Zm91.941-1.541a.257.257,0,0,1-.174-.067c-.284-.259-.575-.519-.865-.774a.258.258,0,0,1,.341-.388c.292.257.585.519.871.78a.258.258,0,0,1-.174.449Zm-90.245-.053a.258.258,0,0,1-.174-.449c.288-.261.581-.523.872-.778a.258.258,0,0,1,.341.388c-.289.253-.58.513-.865.772A.257.257,0,0,1,964.132,481.527Zm88.5-1.485a.257.257,0,0,1-.167-.061c-.293-.249-.593-.5-.891-.744a.258.258,0,1,1,.328-.4c.3.246.6.5.9.749a.258.258,0,0,1-.167.455Zm-86.745-.05a.258.258,0,0,1-.167-.455c.294-.249.6-.5.9-.747a.258.258,0,1,1,.327.4c-.3.245-.6.494-.891.741A.257.257,0,0,1,965.882,479.993Zm84.943-1.428a.257.257,0,0,1-.16-.056c-.3-.238-.609-.477-.916-.712a.258.258,0,1,1,.313-.411c.31.237.621.478.924.718a.258.258,0,0,1-.16.461Zm-83.142-.045a.258.258,0,0,1-.16-.461c.3-.24.615-.481.923-.716a.258.258,0,0,1,.313.411c-.306.233-.614.472-.916.71A.257.257,0,0,1,967.683,478.52Zm81.289-1.369a.257.257,0,0,1-.153-.05c-.312-.229-.628-.458-.941-.68a.258.258,0,0,1,.3-.421c.315.224.634.454.948.686a.258.258,0,0,1-.153.466Zm-79.439-.041a.258.258,0,0,1-.153-.467c.313-.23.631-.46.947-.683a.258.258,0,0,1,.3.422c-.313.221-.629.45-.939.678A.258.258,0,0,1,969.533,477.11Zm77.538-1.309a.258.258,0,0,1-.146-.045c-.319-.218-.643-.436-.964-.648a.258.258,0,1,1,.284-.431c.323.213.65.433.972.653a.258.258,0,0,1-.146.472Zm-75.641-.035a.258.258,0,0,1-.146-.472c.32-.219.646-.437.969-.65a.258.258,0,1,1,.284.432c-.32.211-.644.428-.962.645A.257.257,0,0,1,971.431,475.766Zm73.693-1.248a.257.257,0,0,1-.138-.04c-.324-.206-.656-.412-.986-.614a.258.258,0,1,1,.269-.441c.333.2.667.411.994.619a.258.258,0,0,1-.139.476Zm-71.751-.029a.258.258,0,0,1-.139-.477c.327-.207.661-.414.991-.616a.258.258,0,0,1,.269.441c-.328.2-.659.405-.983.611A.257.257,0,0,1,973.373,474.488Zm69.76-1.186a.257.257,0,0,1-.13-.036c-.332-.2-.671-.39-1.008-.579a.258.258,0,0,1,.254-.45c.339.191.68.387,1.015.584a.258.258,0,0,1-.131.481Zm-67.775-.023a.258.258,0,0,1-.131-.481c.333-.2.673-.391,1.011-.581a.258.258,0,0,1,.254.45c-.335.189-.673.383-1,.576A.258.258,0,0,1,975.357,473.279Zm65.743-1.122a.258.258,0,0,1-.123-.031c-.339-.183-.684-.366-1.027-.544a.258.258,0,1,1,.238-.459c.346.179.694.364,1.035.548a.258.258,0,0,1-.123.486Zm-63.718-.017a.258.258,0,0,1-.123-.486c.341-.184.688-.367,1.03-.545a.258.258,0,1,1,.238.459c-.34.176-.684.358-1.023.541A.257.257,0,0,1,977.382,472.139Zm61.646-1.057a.258.258,0,0,1-.115-.027c-.344-.171-.7-.342-1.046-.508a.258.258,0,0,1,.222-.467c.352.167.707.34,1.054.512a.258.258,0,0,1-.115.49Zm-59.584-.011a.258.258,0,0,1-.115-.49c.347-.172.7-.343,1.048-.509a.258.258,0,0,1,.222.467c-.346.164-.7.334-1.04.5A.256.256,0,0,1,979.444,471.071Zm57.475-.991a.257.257,0,0,1-.107-.023c-.35-.159-.708-.317-1.063-.471a.258.258,0,1,1,.205-.474c.359.155.719.315,1.072.475a.258.258,0,0,1-.107.494Zm-55.378,0a.258.258,0,0,1-.107-.494c.351-.159.71-.318,1.065-.472a.258.258,0,0,1,.205.474c-.353.153-.708.31-1.057.468A.257.257,0,0,1,981.541,470.076Zm2.129-.921a.258.258,0,0,1-.1-.5c.359-.148.724-.295,1.085-.436a.258.258,0,1,1,.189.481c-.358.14-.72.286-1.076.433A.257.257,0,0,1,983.67,469.155Zm51.1,0a.257.257,0,0,1-.1-.02c-.359-.148-.722-.294-1.08-.434a.258.258,0,1,1,.188-.481c.361.141.727.288,1.088.437a.258.258,0,0,1-.1.5Zm-48.936-.848a.258.258,0,0,1-.09-.5c.365-.136.734-.269,1.1-.4a.258.258,0,1,1,.171.487c-.362.127-.729.26-1.091.395A.256.256,0,0,1,985.839,468.3Zm46.761,0a.257.257,0,0,1-.09-.016c-.361-.134-.729-.267-1.095-.4a.258.258,0,1,1,.171-.487c.369.13.74.264,1.1.4a.258.258,0,0,1-.09.5Zm-44.564-.769a.258.258,0,0,1-.081-.5c.368-.122.743-.243,1.112-.359a.258.258,0,1,1,.154.493c-.367.115-.738.235-1.1.356A.259.259,0,0,1,988.036,467.531Zm42.359-.007a.26.26,0,0,1-.082-.013c-.366-.122-.739-.242-1.109-.358a.258.258,0,0,1,.154-.493c.372.116.748.238,1.117.36a.258.258,0,0,1-.081.5Zm-40.136-.69a.258.258,0,0,1-.073-.506c.372-.109.751-.217,1.124-.32a.258.258,0,0,1,.137.5c-.371.1-.746.209-1.116.318A.26.26,0,0,1,990.258,466.835Zm37.909-.007a.259.259,0,0,1-.073-.011c-.371-.109-.746-.216-1.116-.317a.258.258,0,1,1,.137-.5c.372.1.75.21,1.124.32a.258.258,0,0,1-.073.506Zm-35.664-.611a.258.258,0,0,1-.064-.509c.377-.1.759-.191,1.135-.281a.258.258,0,0,1,.12.5c-.373.089-.752.182-1.126.278A.265.265,0,0,1,992.5,466.217Zm33.418-.006a.261.261,0,0,1-.064-.008c-.372-.1-.751-.189-1.126-.278a.258.258,0,1,1,.119-.5c.378.09.76.184,1.135.28a.258.258,0,0,1-.064.509Zm-31.152-.533a.258.258,0,0,1-.055-.511c.381-.084.766-.165,1.144-.241a.258.258,0,1,1,.1.506c-.375.076-.757.156-1.135.239A.253.253,0,0,1,994.769,465.678Zm28.886-.006a.259.259,0,0,1-.055-.006c-.376-.082-.759-.163-1.135-.238a.258.258,0,0,1,.1-.507c.38.076.765.157,1.144.24a.258.258,0,0,1-.055.511Zm-26.6-.454a.258.258,0,0,1-.046-.512c.381-.07.768-.137,1.152-.2a.258.258,0,0,1,.084.51c-.38.063-.765.13-1.143.2A.255.255,0,0,1,997.052,465.218Zm24.32,0a.256.256,0,0,1-.047,0c-.379-.069-.763-.136-1.143-.2a.258.258,0,0,1,.084-.51c.382.063.77.13,1.152.2a.258.258,0,0,1-.046.512Zm-22.022-.375a.258.258,0,0,1-.037-.514c.382-.056.772-.11,1.158-.161a.258.258,0,0,1,.067.512c-.383.05-.77.1-1.149.159Zm19.724,0-.038,0c-.38-.056-.766-.109-1.149-.159a.258.258,0,1,1,.066-.512c.385.05.775.1,1.158.16a.258.258,0,0,1-.037.514Zm-17.414-.3a.258.258,0,0,1-.029-.515c.385-.043.776-.084,1.163-.12a.258.258,0,1,1,.049.514c-.384.036-.772.077-1.154.119Zm15.1,0-.029,0c-.381-.043-.769-.083-1.154-.119a.258.258,0,0,1,.049-.514c.388.036.779.077,1.163.12a.258.258,0,0,1-.029.515Zm-12.786-.217a.258.258,0,0,1-.02-.516c.387-.03.779-.057,1.166-.08a.258.258,0,0,1,.031.516c-.384.023-.773.05-1.157.079Zm10.467,0h-.02c-.382-.029-.771-.056-1.157-.079a.258.258,0,0,1,.031-.516c.389.023.782.05,1.166.08a.258.258,0,0,1-.02.516Zm-8.142-.138a.258.258,0,0,1-.011-.516c.386-.017.778-.03,1.165-.04a.258.258,0,0,1,.014.516c-.385.01-.774.023-1.156.04Zm5.817,0h-.011c-.385-.016-.775-.03-1.159-.039a.258.258,0,1,1,.013-.516c.387.01.78.023,1.168.04a.258.258,0,0,1-.011.516Zm-3.493-.059a.258.258,0,0,1,0-.517l.6,0,.569,0a.258.258,0,0,1,.256.26.261.261,0,0,1-.26.256l-.587,0-.574,0Z" transform="translate(-941.868 -463.6)" fill="#2b478b"/><path d="M1256.59,508.843a3.019,3.019,0,1,1,3.019,3.019A3.019,3.019,0,0,1,1256.59,508.843Z" transform="translate(-1222.607 -501.265)" fill="#2b478b"/></g><g transform="translate(12.576 15.46)"><path d="M1113.12,689.63a54.612,54.612,0,1,1,21.323-4.305A54.439,54.439,0,0,1,1113.12,689.63Zm0-107.389a52.441,52.441,0,1,0,20.477,4.134A52.277,52.277,0,0,0,1113.12,582.241Z" transform="translate(-1058.339 -580.069)" fill="#172a49"/></g><rect width="14.297" height="4.805" transform="translate(59.863 12.144)" fill="#172a49"/><rect width="2.3" height="5.451" transform="translate(65.862 7.602)" fill="#172a49"/><g transform="translate(62.561)"><path d="M1525.707,445.8a4.451,4.451,0,1,1,4.45-4.451A4.456,4.456,0,0,1,1525.707,445.8Zm0-6.985a2.534,2.534,0,1,0,2.534,2.534A2.537,2.537,0,0,0,1525.707,438.811Z" transform="translate(-1521.256 -436.895)" fill="#172a49"/></g><g transform="translate(43.001 45.465)"><path d="M1390.72,883.262a25.487,25.487,0,0,1-.409,4.558,25.315,25.315,0,0,1-48.044,5.687,24.888,24.888,0,0,1-1.289-3.639,25.488,25.488,0,0,1-.3-11.991c0-.02.009-.039.013-.059a25.377,25.377,0,0,1,9.878-15.055q.78-.566,1.606-1.073a25.171,25.171,0,0,1,13.237-3.735q.966,0,1.912.072a25.136,25.136,0,0,1,12.534,4.455h0a25.4,25.4,0,0,1,6.942,7.248q.582.918,1.086,1.887a25.2,25.2,0,0,1,2.832,11.645Z" transform="translate(-1340.106 -857.954)" fill="#f99746"/><g transform="translate(0.574 3.498)"><path d="M1361.561,902.791c-1.01,1.6.422,4.377-2.608,3.619s-4.882-1.094-5.049.588,2.272,1.684,2.272,3.451-1.094,2.352-2.777,1.512-2.168-2.06-4.124-1.3-3.093.253-3.535-1.262a2.219,2.219,0,0,0-.314-.663c0-.02.009-.039.013-.059a25.375,25.375,0,0,1,9.878-15.055q.78-.566,1.606-1.073a3.329,3.329,0,0,1,2.536,1.323c1.767,2.189,2.945,1.094,2.525,3.619s.253,2.862,1.683,2.777,3.114-.085,3.282,1.01S1362.57,901.192,1361.561,902.791Z" transform="translate(-1345.425 -892.31)" fill="#ed7f35"/><path d="M1539.65,1081.605s-1.76.565-2.225-.664.066-1.495-1.495-1.86-1.694-1.428-2.69-1.3-.5.531-1.661,1.4-2.225.465-2.192,2.059,1.76,1.844,2.109,2.89-.249,1.495.5,2.292,2.142.448,1.495,1.545-1.644,1.943-1.146,3.637.149,1.794,1,2.989,2.491,1.594,2.74.8-1.146-1.844-.7-2.641,1.2-.249,1.495-1.445,1.511-1.2,1.611-2.026-1.461-2.093-.864-2.624,1.794.963,2.724-.365.3-2.391,1.262-3.654S1540.315,1080.875,1539.65,1081.605Z" transform="translate(-1509.522 -1057.537)" fill="#ed7f35"/><path d="M1647.534,1004.2a25.487,25.487,0,0,1-.409,4.558,25.168,25.168,0,0,1-3.994,9.709,2.889,2.889,0,0,1-2.024-.054c-3.156-1.262-.82-4.671.442-6.375s-1.957-.947-4.292-2.525.253-5.807-2.146-5.113-5.3,1.578-6.691-.757,1.262-2.714.063-4.671.694-3.093,3.093-3.282,2.083-1.894,5.049-2.146,2.9,3.535,6.186,3.282,3.135.505,3.135.505a1.528,1.528,0,0,1,.685.144A25.349,25.349,0,0,1,1647.534,1004.2Z" transform="translate(-1597.494 -982.396)" fill="#ed7f35"/><path d="M1655.9,909.008c-2.729,1.328-3.825-2.284-6.158-1.2-2.352,1.094-1.94-1.01-3.791-2.357s-5.554,1.094-5.386-1.01,2.945-1.515,3.535-3.2,3.282-1.262,3.282-1.262a1.823,1.823,0,0,1,.49-.111s0,0,0,0a25.4,25.4,0,0,1,6.942,7.248Q1655.393,908.039,1655.9,909.008Z" transform="translate(-1608.689 -898.844)" fill="#ed7f35"/><path d="M1514.616,893.26s1.431-2.064-.842-2.673-2.23.188-4,0-2.462,1.179-1.136,2.673,2.4,4.36,3.6,2.832S1513.207,893.408,1514.616,893.26Z" transform="translate(-1490.401 -890.354)" fill="#ed7f35"/></g></g><g transform="translate(61.567 37.907)"><g transform="translate(4.361)"><path d="M1553.983,822.147l-.372.006a1.125,1.125,0,0,1-1.171-1.1l.172-32.429a.685.685,0,0,1,.689-.665h0a.685.685,0,0,1,.711.646l1.04,32.475A1.062,1.062,0,0,1,1553.983,822.147Z" transform="translate(-1552.44 -787.957)" fill="#172a49"/></g><g transform="translate(5.696 4.51)"><path d="M1564.851,859.406l-.04-.027c-.069-.047.174-.524.54-1.057l19.242-28.08c.215-.314.42-.544.461-.516h0c.041.028-.1.3-.314.621l-19.152,28.226C1565.248,859.076,1564.916,859.451,1564.851,859.406Z" transform="translate(-1564.8 -829.724)" fill="#233862"/></g><g transform="translate(3.622 32.186)"><path d="M1545.657,1087.088l.131-.348a1.259,1.259,0,0,1,1.682-.6l36.627,14.575a.759.759,0,0,1,.5.936h0a.76.76,0,0,1-.995.373l-37.13-13.47A1.186,1.186,0,0,1,1545.657,1087.088Z" transform="translate(-1545.596 -1086.034)" fill="#172a49"/></g><path d="M1512.051,1045.664a5.66,5.66,0,1,1,5.752,5.565A5.66,5.66,0,0,1,1512.051,1045.664Z" transform="translate(-1512.05 -1012.705)" fill="#2b478b"/></g></g><path d="M2239.859,1134.706a5.484,5.484,0,0,1,5.308-2.66s5.434-4.988,11.228-.665c0,0,6.159-1.071,10.721.927a10.143,10.143,0,0,1,4.046,2.73Z" transform="translate(-1858.678 -865.436)" fill="#fff"/><path d="M1612.185,240.09s1.336-3.1,4.531-2.753c0,0,4.638-5.162,9.584-.688,0,0,5.257-1.108,9.151.96a8.982,8.982,0,0,1,3.453,2.825Z" transform="translate(-1298.78 -67.261)" fill="#fff"/><path d="M471.109,1362.05a10.642,10.642,0,0,1,10.111-4.594s10.351-8.615,21.389-1.149c0,0,11.733-1.85,20.423,1.6,5.793,2.3,7.707,4.716,7.707,4.716Z" transform="translate(-280.915 -1064.932)" fill="#fff" opacity="0.7"/><path d="M722.888,1137.895a5.889,5.889,0,0,1,5.672-2.753s5.806-5.162,12-.688c0,0,6.581-1.108,11.456.96a10.824,10.824,0,0,1,4.323,2.825Z" transform="translate(-505.508 -868.122)" fill="#fff" opacity="0.5"/><path d="M298.015,1252.575a5.889,5.889,0,0,1,5.672-2.753s5.806-5.162,12-.688c0,0,6.581-1.108,11.456.96a10.821,10.821,0,0,1,4.323,2.825Z" transform="translate(-126.512 -970.42)" fill="#fff" opacity="0.5"/><path d="M674.205,983.709a3.813,3.813,0,0,1,3.727-2.078s3.815-3.9,7.884-.519c0,0,4.325-.837,7.528.724a7.222,7.222,0,0,1,2.841,2.132Z" transform="translate(-462.081 -731.737)" fill="#fff" opacity="0.5"/><path d="M629.728,1090.749a13.024,13.024,0,1,1-9.14-22.515,12.169,12.169,0,0,0,9.14,22.515Z" transform="translate(-402.826 -810.68)" fill="#f5fbff"/><g transform="translate(398.38 305.437)"><g transform="translate(9.097 14.716)"><path d="M2484.721,1652.042c1.082.439,4.948.084,5.073-.225s-2.4-3.255-3.486-3.693a2.114,2.114,0,1,0-1.588,3.918Z" transform="translate(-2483.4 -1647.969)" fill="#a8d29f"/><path d="M2580.089,1694.408c-.607,1-.882,4.87-.6,5.043s3.6-1.846,4.208-2.843a2.114,2.114,0,0,0-3.611-2.2Z" transform="translate(-2569.015 -1688.488)" fill="#a8d29f"/><path d="M2525.538,1738.869c1.112.355,4.94-.293,5.042-.61s-2.644-3.063-3.756-3.418a2.114,2.114,0,0,0-1.285,4.028Z" transform="translate(-2519.675 -1725.371)" fill="#a8d29f"/><g transform="translate(6.263 3.759)"><path d="M2546.635,1696.271c0-.088-.432-8.853-5.231-13.378l.1-.108c4.844,4.567,5.273,13.392,5.277,13.48Z" transform="translate(-2541.404 -1682.784)" fill="#a8d29f"/></g></g><g transform="translate(27.706 16.293)"><path d="M2709.419,1665.263a1.935,1.935,0,1,1-1.62-2.441,1.465,1.465,0,1,1,1.62,2.441Z" transform="translate(-2700.515 -1662.577)" fill="#a8d29f"/><path d="M2658.275,1707.683a1.935,1.935,0,1,1-2.147,1.993,1.465,1.465,0,1,1,2.147-1.993Z" transform="translate(-2655.737 -1702.395)" fill="#a8d29f"/><path d="M2692.7,1729.861a1.935,1.935,0,1,1-1.43-2.557,1.465,1.465,0,1,1,1.43,2.557Z" transform="translate(-2685.57 -1720.148)" fill="#a8d29f"/><g transform="translate(3.554 3.17)"><path d="M2688.914,1701.8c-.01-.06-.932-6.07,1.7-9.807l-.084-.059c-2.656,3.771-1.727,9.822-1.717,9.883Z" transform="translate(-2688.647 -1691.935)" fill="#a8d29f"/></g></g><g transform="translate(15.925)"><g transform="translate(4.524 4.405)"><path d="M2594.854,1579.526l-.305-.049a93.14,93.14,0,0,0-6.021-26.877l.278-.12A93.432,93.432,0,0,1,2594.854,1579.526Z" transform="translate(-2588.528 -1552.48)" fill="#a8d29f"/></g><path d="M2555.36,1517.082a2.118,2.118,0,1,0,2.4-2.122,1.6,1.6,0,0,0-2.4,2.122Z" transform="translate(-2554.06 -1514.122)" fill="#8c9df4"/><path d="M2590.557,1512.329a2.118,2.118,0,1,0,2.571,1.916,1.6,1.6,0,0,0-2.571-1.916Z" transform="translate(-2585.052 -1511.683)" fill="#8c9df4"/><path d="M2595.44,1545.835a2.118,2.118,0,1,0-.843,3.093,1.6,1.6,0,1,0,.843-3.093Z" transform="translate(-2586.778 -1542.101)" fill="#8c9df4"/><path d="M2582.424,1554.4a2.118,2.118,0,1,0-3.191.308,1.6,1.6,0,1,0,3.191-.308Z" transform="translate(-2575.708 -1546.819)" fill="#8c9df4"/><path d="M2548.98,1553.825a2.118,2.118,0,1,0-1.49-2.839,1.6,1.6,0,0,0,1.49,2.839Z" transform="translate(-2546.631 -1546.43)" fill="#8c9df4"/><path d="M2585.31,1547.5a.528.528,0,1,1,.438.6A.528.528,0,0,1,2585.31,1547.5Z" transform="translate(-2581.128 -1543.24)" fill="#f99746"/><path d="M2633.38,1648c-.871,1.071-1.812,5.566-1.506,5.814s4.514-1.588,5.385-2.66a2.5,2.5,0,1,0-3.879-3.155Z" transform="translate(-2622.617 -1632.457)" fill="#a8d29f"/></g><g transform="translate(0 12.52)"><g transform="translate(2.884 3.107)"><path d="M2432.415,1673.822l-.207-.005a62.339,62.339,0,0,0-6.354-17.306l.174-.1A62.552,62.552,0,0,1,2432.415,1673.822Z" transform="translate(-2425.854 -1656.406)" fill="#a8d29f"/></g><path d="M2401.727,1634.816a1.417,1.417,0,1,0,1.409-1.619,1.073,1.073,0,1,0-1.409,1.619Z" transform="translate(-2401.119 -1632.361)" fill="#f99746"/><path d="M2426.4,1628.183a1.418,1.418,0,1,0,1.874,1.046,1.073,1.073,0,0,0-1.874-1.046Z" transform="translate(-2423.208 -1627.633)" fill="#f99746"/><path d="M2430.257,1649.088a1.418,1.418,0,1,0-.288,2.127,1.073,1.073,0,0,0,.288-2.127Z" transform="translate(-2424.697 -1646.766)" fill="#f99746"/><path d="M2424.349,1657.524a1.417,1.417,0,1,0-2.091.485,1.073,1.073,0,1,0,2.091-.485Z" transform="translate(-2419.742 -1652.475)" fill="#f99746"/><path d="M2400.84,1658.06a1.418,1.418,0,1,0-1.238-1.753,1.073,1.073,0,0,0,1.238,1.753Z" transform="translate(-2399.147 -1652.754)" fill="#f99746"/><path d="M2423.542,1653.206a.353.353,0,1,1,.344.363A.353.353,0,0,1,2423.542,1653.206Z" transform="translate(-2420.907 -1650.138)" fill="#2a4a7c"/><path d="M2468.393,1713.417a2.211,2.211,0,1,0,2.851,1.753,1.673,1.673,0,0,0-2.851-1.753Z" transform="translate(-2460.403 -1703.443)" fill="#a8d29f"/></g><path d="M2426.815,1788.226a5.733,5.733,0,0,1,5.308-3.3c4.162-.195,7.027,2.338,10.465,1.169s9.129-3.809,14.512-2.051,6.291,4.18,6.291,4.18Z" transform="translate(-2423.827 -1754.113)" fill="#a8d29f"/></g><g transform="translate(336.786 308.894)"><g transform="translate(0 3.818)"><g transform="translate(3.708 3.611)"><path d="M1868.238,1634.67l-.25-.04a76.332,76.332,0,0,0-4.935-22.029l.228-.1A76.588,76.588,0,0,1,1868.238,1634.67Z" transform="translate(-1863.053 -1612.503)" fill="#a8d29f"/></g><path d="M1835.868,1583.49a1.736,1.736,0,1,0,1.97-1.739,1.314,1.314,0,0,0-1.97,1.739Z" transform="translate(-1834.802 -1581.064)" fill="#8c9df4"/><path d="M1864.715,1579.594a1.736,1.736,0,1,0,2.107,1.57,1.314,1.314,0,0,0-2.107-1.57Z" transform="translate(-1860.203 -1579.066)" fill="#8c9df4"/><path d="M1868.717,1607.055a1.736,1.736,0,1,0-.691,2.536,1.314,1.314,0,0,0,.691-2.536Z" transform="translate(-1861.619 -1603.995)" fill="#8c9df4"/><path d="M1858.051,1614.08a1.736,1.736,0,1,0-2.616.253,1.314,1.314,0,1,0,2.616-.253Z" transform="translate(-1852.546 -1607.864)" fill="#8c9df4"/><path d="M1830.639,1613.6a1.736,1.736,0,1,0-1.221-2.327,1.314,1.314,0,1,0,1.221,2.327Z" transform="translate(-1828.714 -1607.544)" fill="#8c9df4"/><path d="M1860.415,1608.425a.433.433,0,1,1,.359.5A.433.433,0,0,1,1860.415,1608.425Z" transform="translate(-1856.987 -1604.929)" fill="#233862"/><path d="M1889.563,1639.92c-.714.878-1.485,4.562-1.234,4.766s3.7-1.3,4.414-2.18a2.049,2.049,0,0,0-3.18-2.586Z" transform="translate(-1881.849 -1632.674)" fill="#a8d29f"/><path d="M1866.146,1742.9a1.973,1.973,0,1,1-1.309,2.685,1.494,1.494,0,1,1,1.309-2.685Z" transform="translate(-1860.188 -1725.07)" fill="#a8d29f"/></g><g transform="translate(11.943 0)"><g transform="translate(4.096 4.145)"><path d="M1977.249,1607.546l.287-.046a87.638,87.638,0,0,1,5.666-25.291l-.262-.113A87.931,87.931,0,0,0,1977.249,1607.546Z" transform="translate(-1977.249 -1582.096)" fill="#a8d29f"/></g><g transform="translate(5.043)"><path d="M2032.874,1548.785a1.993,1.993,0,1,1-2.262-2,1.509,1.509,0,1,1,2.262,2Z" transform="translate(-2024.835 -1546.001)" fill="#8c9df4"/><path d="M2001.373,1544.313a1.993,1.993,0,1,1-2.419,1.8,1.509,1.509,0,1,1,2.419-1.8Z" transform="translate(-1997.291 -1543.705)" fill="#8c9df4"/><path d="M1987.136,1575.841a1.993,1.993,0,1,1,.793,2.911,1.509,1.509,0,0,1-.793-2.911Z" transform="translate(-1986.023 -1572.328)" fill="#8c9df4"/><path d="M2013.217,1583.905a1.993,1.993,0,1,1,3,.29,1.509,1.509,0,1,1-3-.29Z" transform="translate(-2010.275 -1576.768)" fill="#8c9df4"/><path d="M2032.982,1583.361a1.993,1.993,0,1,1,1.4-2.671,1.509,1.509,0,0,1-1.4,2.671Z" transform="translate(-2025.93 -1576.402)" fill="#8c9df4"/><path d="M2027.2,1577.414a.5.5,0,1,0-.412.569A.5.5,0,0,0,2027.2,1577.414Z" transform="translate(-2021.871 -1573.4)" fill="#2a4a7c"/></g><path d="M1943.494,1671.979c.82,1.008,1.7,5.237,1.417,5.471s-4.248-1.495-5.068-2.5a2.353,2.353,0,0,1,3.651-2.969Z" transform="translate(-1939.316 -1657.353)" fill="#a8d29f"/><path d="M1986.8,1731.8a2.265,2.265,0,1,0,1.5,3.083,1.715,1.715,0,0,0-1.5-3.083Z" transform="translate(-1979.336 -1711.336)" fill="#a8d29f"/></g><path d="M1855.431,1801.575s3.5-4.619,8.469-2.929,11.6.152,11.583,2.468Z" transform="translate(-1852.546 -1770.786)" fill="#a8d29f"/></g><g transform="translate(342.682 258.445)"><path d="M2264.848,1395.2a1.771,1.771,0,0,1,.127,1.326c-.586,1.713-.571,2.375.45,3.139,0,0,1.413.7,1.227-.086a2.878,2.878,0,0,1,.094-1.42c.434-1.245.446-1.852-.211-2.732l-.286-.444Z" transform="translate(-2223.417 -1360.59)" fill="#ffb27d"/><path d="M2260.456,1408.553a.583.583,0,0,0-.406.276c-.3.715-1,1.333-.9,1.447.214.236.7-.225.994-.675A2.333,2.333,0,0,0,2260.456,1408.553Z" transform="translate(-2218.559 -1372.697)" fill="#ffb27d"/><path d="M2122.706,1195.329a3.22,3.22,0,0,1,4.851-3.031l.136.085c3.339,2.149,10.545,12.179,11.041,13.184s1.959,9,1.959,9-1.809.662-2.655-.025c0,0-2.933-7.58-3.367-7.959s-11.733-6.719-11.829-9.1C2122.817,1196.856,2122.766,1196.1,2122.706,1195.329Z" transform="translate(-2096.848 -1179.38)" fill="#ef7e29"/><path d="M2269.231,1763.066s1.346,1.229,1.084,2.1-1.478,1.455-1.642,2.522-.821,1.649-1.412,1.649h-2.818s-.435-.751.616-.977,1.447-1.48,1.381-2.644a20.51,20.51,0,0,1,.1-2.716l2.233-.517Z" transform="translate(-2223.211 -1688.411)" fill="#2a4a7c"/><path d="M2091.172,1788.367s.242,2.8-.349,3.087l-7.565-.016s0-.873,1.215-1.067,3.349-.905,3.711-2.49S2091.172,1788.367,2091.172,1788.367Z" transform="translate(-2061.669 -1710.534)" fill="#2a4a7c"/><path d="M2097.4,1425.877s.4,4.9.868,10.794c.637,8,1.4,17.835,1.48,19.7.131,3.234.657,8.407.657,8.407a4.176,4.176,0,0,0,3.744.711,83.493,83.493,0,0,0,2.86-15.2q.015-.192.03-.386c.591-7.954,1.51-24.7,1.51-24.7Z" transform="translate(-2074.288 -1387.545)" fill="#8c9df4"/><path d="M2097.4,1425.877s.4,4.9.868,10.794l8.74,13.618q.015-.192.03-.386c.591-7.954,1.51-24.7,1.51-24.7Z" transform="translate(-2074.288 -1387.545)" fill="#707fe5"/><path d="M2114.279,1410.432s7.192,17.752,11.92,26.094,6.207,10.671,6.207,10.671,2.709-1.067,2.956-1.795c0,0-1.808-16.105-4.975-20.031-1.789-2.218-3.308-8.573-3.557-10.89-.291-2.7-1.073-7.25-1.073-7.25Z" transform="translate(-2089.341 -1371.518)" fill="#8c9df4"/><path d="M2108.589,1141.966s-4.818,2.444-7.64,1.629a6.314,6.314,0,0,1,1.211-1.134,1.3,1.3,0,0,0,.5-1.263c-.037-.223-.068-.43-.092-.622a13.533,13.533,0,0,1-.148-1.5l1.848-1.514,1.752-1.448A7.174,7.174,0,0,0,2108.589,1141.966Z" transform="translate(-2077.45 -1129.68)" fill="#ffb27d"/><path d="M2093.3,1202.632a19.845,19.845,0,0,1-5.943,2.56c-2.542.6-5.667.425-6.712.584a.434.434,0,0,1-.3-.077c-.082-.042-.543-3.143-1.005-7.058-.021-.157-.042-.317-.051-.476l-.007-.053c-.18-1.53-.337-3.137-.474-4.749-.111-1.254-.2-2.494-.267-3.658-.08-1.457-.113-2.8-.08-3.9.015-.5.044-.955.089-1.348a9.592,9.592,0,0,1,2.393-5.136l1.011-.962a4.239,4.239,0,0,0,2.788-.76c1.041-.685,2.164-1.422,2.375-1.3,1.595.873,2.893,3.133,3.821,6.12a34.063,34.063,0,0,1,1.2,5.734c.084.641.155,1.3.21,1.953.01.121.02.242.029.362.125,1.79.329,3.468.556,4.965.3,2.021.652,3.713.9,4.905.123.607.217,1.076.272,1.412C2094.148,1202.049,2093.561,1202.469,2093.3,1202.632Z" transform="translate(-2057.374 -1165.515)" fill="#aec3ff"/><path d="M2093.459,1202.685a19.851,19.851,0,0,1-5.943,2.56c-2.542.6-5.667.425-6.713.584a.434.434,0,0,1-.3-.077c-.082-.042-.543-3.143-1.005-7.057-.021-.157-.042-.317-.051-.476l-.007-.053c-.18-1.53-.337-3.137-.474-4.749-.112-1.254-.2-2.494-.267-3.658-.08-1.457-.114-2.8-.08-3.9.014-.5.044-.956.089-1.348a9.207,9.207,0,0,1,2.368-5.218c.239-.254,1.036-.88,1.036-.88a4.24,4.24,0,0,0,2.789-.76c1.041-.685,2.163-1.422,2.375-1.3,1.594.873,2.893,3.134,3.82,6.12a34.084,34.084,0,0,1,1.2,5.735c.084.641.155,1.3.21,1.953.011.121.02.242.029.362.125,1.79.329,3.468.556,4.965.3,2.021.652,3.713.9,4.905.123.607.217,1.076.273,1.412C2094.308,1202.1,2093.721,1202.522,2093.459,1202.685Z" transform="translate(-2057.516 -1165.562)" fill="#f99746"/><path d="M2118.273,1149.6a6.448,6.448,0,0,1-3.514,2.939,13.56,13.56,0,0,1-.148-1.5l1.848-1.514Z" transform="translate(-2089.637 -1141.643)" fill="#ed985f"/><path d="M2098.618,1100.334s4.656.667,5.035-2.195,1.235-4.7-1.721-5.25-3.68.471-4.043,1.4S2097.417,1100.087,2098.618,1100.334Z" transform="translate(-2074.501 -1090.981)" fill="#ffb27d"/><path d="M2092.248,1077.989c.041-.049.138-.09.354-.106a.878.878,0,0,0-.406-.106,1.088,1.088,0,0,0-.742-.948.649.649,0,0,1,.324.462c-.612-.6-1.905-1.026-5.456-.675-4.68.463-3.076,3.434-2.462,3.78s2.122-.666,3.254-.6,1.38,1.7,1.768,1.914.229-.177.744-.422.581.614.442,1.176.589,1.286.589,1.286l.705-.79c.705-.79,1.319-4.091.978-4.785C2092.308,1078.114,2092.279,1078.052,2092.248,1077.989Z" transform="translate(-2061.52 -1076.488)" fill="#233862"/><path d="M2086.623,1264.7a21.066,21.066,0,0,1-8.087,3.642c-.08-1.457-.113-2.8-.08-3.9Z" transform="translate(-2057.374 -1244.15)" fill="#ef7e29"/><path d="M1888.464,1211.233c-.062-.067-.764-2.265-2.156-2.393-1.115-.1-3.577.428-2.853.824a6.743,6.743,0,0,1,2.285,2.163c.344.6,1.4.779,1.4.779Z" transform="translate(-1883.324 -1194.537)" fill="#ffb27d"/><path d="M1943.1,1202.408a3.221,3.221,0,0,1-.337,5.712l-.148.062c-3.687,1.479-14.357,2.074-17.147,1.37-1.087-.274-8.474-3.612-8.474-3.612s.508-1.858,1.557-2.151c0,0,6.725.913,8.035,1.083,6.768.879,12.682-4.9,14.676-3.6C1941.79,1201.614,1942.435,1202.01,1943.1,1202.408Z" transform="translate(-1913.359 -1187.627)" fill="#f99746"/></g><g transform="translate(216.215 206.512)"><path d="M916.938,595.783a.55.55,0,1,1-.76-.165A.549.549,0,0,1,916.938,595.783Z" transform="translate(-893.917 -595.531)" fill="#dde7fe"/><path d="M907.579,850.22a.805.805,0,1,1-1.113-.241A.805.805,0,0,1,907.579,850.22Z" transform="translate(-885.149 -822.39)" fill="#dde7fe"/><path d="M714.157,879.952a1.12,1.12,0,1,1-1.548-.336A1.12,1.12,0,0,1,714.157,879.952Z" transform="translate(-712.095 -848.782)" fill="#fff"/><path d="M803.619,710.452a.819.819,0,1,1-1.131-.245A.819.819,0,0,1,803.619,710.452Z" transform="translate(-792.393 -697.708)" fill="#dde7fe"/></g><path d="M582.5,910.4a.38.38,0,1,1-.526-.114A.38.38,0,0,1,582.5,910.4Z" transform="translate(-379.656 -669.732)" fill="#dde7fe"/><path d="M413.586,1372.657a.775.775,0,1,1-.459-1A.775.775,0,0,1,413.586,1372.657Z" transform="translate(-228.264 -1081.301)" fill="#dde7fe"/><g transform="translate(188.227 250.13)"><path d="M453.843,1080.009a.5.5,0,1,1-.223-.671A.5.5,0,0,1,453.843,1080.009Z" transform="translate(-452.896 -1070.667)" fill="#dde7fe"/><path d="M511.153,1196.335a.733.733,0,1,1-.327-.984A.733.733,0,0,1,511.153,1196.335Z" transform="translate(-503.624 -1174.132)" fill="#fff"/><path d="M573.818,1000.558a.745.745,0,1,1-.332-1A.745.745,0,0,1,573.818,1000.558Z" transform="translate(-559.502 -999.479)" fill="#dde7fe"/></g><path d="M866.773,1309.034a.38.38,0,1,1-.225-.489A.38.38,0,0,1,866.773,1309.034Z" transform="translate(-633.199 -1025.022)" fill="#dde7fe"/><path d="M344.781,1694.361c-43.551-.052-77.817-.144-77.869-.306l-.023-.055a.3.3,0,0,1-.023-.08,86.148,86.148,0,0,1-6.693-14.9,62.411,62.411,0,0,1,37.535,5.254C318.184,1694.372,335.409,1678.775,344.781,1694.361Z" transform="translate(-92.755 -1354.722)" fill="#2b478b"/><path d="M404.453,1553.942s4.857-18.224,12.327-19.026S407.337,1547.79,404.453,1553.942Z" transform="translate(-221.457 -1226.94)" fill="#2b478b"/><path d="M423.824,1622.709s7.654-11.388,12.68-10.2S427.212,1619.154,423.824,1622.709Z" transform="translate(-238.736 -1296.109)" fill="#2b478b"/><path d="M954.2,1729.2s5.539-8.657,9.536-7.838S956.716,1726.485,954.2,1729.2Z" transform="translate(-711.846 -1393.237)" fill="#2b478b"/><path d="M967.121,1764.989s6.671-5.129,9.522-3.388S969.812,1763.6,967.121,1764.989Z" transform="translate(-723.369 -1428.857)" fill="#2b478b"/><path d="M937.536,1722.7s1.86-8.207,5.166-8.687S938.717,1719.913,937.536,1722.7Z" transform="translate(-696.978 -1386.71)" fill="#2b478b"/><circle cx="5.83" cy="5.83" r="5.83" transform="translate(366.841 206.872) rotate(-80.783)" fill="#fff"/><path d="M1397.17,1757.366h-7.6c-.407-.346.282-1.13,1-1.183a4.444,4.444,0,0,1,1.16.137c.1-1.389.7-7.635,2.953-7.384,2.531.281,0,2.75-.716,4.213a34.735,34.735,0,0,0-1.345,3.369c.205.045.418.088.635.128.336-1.03,1.584-4.5,3.171-4.293,1.864.236,1.115,1.626-.206,2.45-.969.606-2.159,1.468-2.725,1.885a8.079,8.079,0,0,0,1.486.119A3.2,3.2,0,0,1,1397.17,1757.366Z" transform="translate(-1100.093 -1417.875)" fill="#2b478b"/><path d="M.416,0H288.442a.416.416,0,0,1,.416.416v0a.416.416,0,0,1-.416.416H.416A.416.416,0,0,1,0,.416v0A.416.416,0,0,1,.416,0Z" transform="translate(156.189 339.288)" fill="#233862"/><g transform="translate(328.538 176.69)"><path d="M1972.348,438.659a16.2,16.2,0,0,0-9.465-.894s6.1-.417,9.721,3.456c0,0,2.531-3.881,6.714-4.77A11.254,11.254,0,0,0,1972.348,438.659Z" transform="translate(-1940.148 -423.789)" fill="#739af0"/><path d="M1882.322,425.76a12.526,12.526,0,0,0-7.316-.734s4.722-.295,7.5,2.717a9.3,9.3,0,0,1,5.214-3.659A8.7,8.7,0,0,0,1882.322,425.76Z" transform="translate(-1861.759 -412.759)" fill="#739af0"/><path d="M1792.413,412.277a11.4,11.4,0,0,0-6.683-.386s4.283-.45,6.929,2.183a8.467,8.467,0,0,1,4.6-3.529A7.923,7.923,0,0,0,1792.413,412.277Z" transform="translate(-1782.123 -400.692)" fill="#739af0"/><path d="M1756.858,386.936a7.724,7.724,0,0,0-4.531.161,6.4,6.4,0,0,1,4.81,1.035,5.734,5.734,0,0,1,2.88-2.67A5.366,5.366,0,0,0,1756.858,386.936Z" transform="translate(-1752.327 -378.323)" fill="#739af0"/><path d="M1947.772,320.651a7.723,7.723,0,0,0-4.533-.075,6.4,6.4,0,0,1,4.75,1.284,5.735,5.735,0,0,1,3.016-2.516A5.367,5.367,0,0,0,1947.772,320.651Z" transform="translate(-1922.625 -319.343)" fill="#739af0"/><path d="M2023.973,384.559a11.253,11.253,0,0,0-6.563-.747s4.245-.208,6.707,2.53a8.355,8.355,0,0,1,4.727-3.224A7.819,7.819,0,0,0,2023.973,384.559Z" transform="translate(-1988.787 -376.214)" fill="#739af0"/><path d="M1991.193,342.98a10.4,10.4,0,0,0-6.089-.461s3.914-.341,6.285,2.1a7.723,7.723,0,0,1,4.255-3.144A7.228,7.228,0,0,0,1991.193,342.98Z" transform="translate(-1959.969 -339.081)" fill="#739af0"/></g><g transform="translate(328.55 221.459)"><path d="M1768.561,748.835a.53.53,0,0,1-.38-.263,31.082,31.082,0,0,0-15.4-13.6.531.531,0,0,1,.4-.984,32.134,32.134,0,0,1,15.927,14.056.531.531,0,0,1-.543.787Z" transform="translate(-1752.446 -733.953)" fill="#2b478b"/><g transform="translate(13.129 11.687)"><path d="M1878.95,848.8l-.4-6.607-1.625,2.4-2.886-.224Z" transform="translate(-1874.037 -842.188)" fill="#2b478b"/></g></g><g transform="translate(270.379 277.882)"><g transform="translate(1.316 3.406)"><path d="M1226.513,1288.045a.53.53,0,0,1,.38.262,31.081,31.081,0,0,0,15.4,13.6.531.531,0,0,1-.4.984,32.136,32.136,0,0,1-15.927-14.056.531.531,0,0,1,.543-.787Z" transform="translate(-1225.901 -1288.038)" fill="#8c9df4"/></g><g transform="translate(0)"><path d="M1213.717,1256.493l.4,6.607,1.625-2.4,2.886.224Z" transform="translate(-1213.717 -1256.493)" fill="#8c9df4"/></g></g></g></svg>