<svg xmlns="http://www.w3.org/2000/svg" width="275.01" height="225.522" viewBox="0 0 275.01 225.522"><g transform="translate(-39.605 -76.73)"><g transform="translate(50.316 287.257)"><ellipse cx="125.825" cy="7.346" rx="125.825" ry="7.346" transform="translate(0)" fill="#f5f5f5"/></g><g transform="translate(39.605 76.73)"><path d="M168.61,260.254H43.3a3.7,3.7,0,0,1-3.7-3.706V80.4a3.706,3.706,0,0,1,3.7-3.673H168.61a3.706,3.706,0,0,1,3.706,3.706h0V256.548A3.706,3.706,0,0,1,168.61,260.254ZM43.3,76.86A3.544,3.544,0,0,0,39.767,80.4V256.548a3.543,3.543,0,0,0,3.537,3.543H168.61a3.55,3.55,0,0,0,3.543-3.543V80.4a3.55,3.55,0,0,0-3.543-3.543Z" transform="translate(-39.605 -76.73)" fill="#f0f0f0"/><path d="M384.913,260.254H259.6a3.711,3.711,0,0,1-3.705-3.706V80.4A3.713,3.713,0,0,1,259.6,76.73H384.913a3.706,3.706,0,0,1,3.693,3.673V256.548A3.705,3.705,0,0,1,384.913,260.254ZM259.6,76.86a3.55,3.55,0,0,0-3.543,3.543V256.548a3.549,3.549,0,0,0,3.543,3.543H384.913a3.55,3.55,0,0,0,3.543-3.543V80.4a3.55,3.55,0,0,0-3.543-3.543Z" transform="translate(-115.533 -76.73)" fill="#f0f0f0"/><g transform="translate(9.205 198.461)"><g transform="translate(0 16.654)"><rect width="26.743" height="0.162" transform="translate(0 1.298)" fill="#e0e0e0"/><rect width="6.49" height="0.162" transform="translate(109.667)" fill="#e0e0e0"/><rect width="30.014" height="0.162" transform="translate(21.279 5.542)" fill="#e0e0e0"/><rect width="18.125" height="0.162" transform="translate(160.882 1.214)" fill="#e0e0e0"/><rect width="18.125" height="0.162" transform="translate(232.125 1.214)" fill="#e0e0e0"/></g><g transform="translate(20.662)"><rect width="26.821" height="0.162" transform="translate(33.155)" fill="#e0e0e0"/><rect width="30.014" height="0.162" transform="translate(0 5.542)" fill="#e0e0e0"/><rect width="14.017" height="0.162" transform="translate(119.81 1.214)" fill="#e0e0e0"/><rect width="18.125" height="0.162" transform="translate(139.603 1.214)" fill="#e0e0e0"/><rect width="40.521" height="0.162" transform="translate(204.621 3.959)" fill="#e0e0e0"/></g></g><g transform="translate(0.111 103.69)"><rect width="20.319" height="21.63" transform="translate(5.205 3.336)" fill="#e6e6e6"/><rect width="5.205" height="21.63" transform="translate(0 3.336)" fill="#f0f0f0"/><rect width="15.263" height="24.965" transform="translate(15.588)" fill="#e6e6e6"/><rect width="4.413" height="24.965" transform="translate(11.181)" fill="#f0f0f0"/><rect width="12.869" height="21.63" transform="translate(20.085 3.336)" fill="#f0f0f0"/><rect width="2.94" height="21.63" transform="translate(17.145 3.336)" fill="#f5f5f5"/><rect width="16.879" height="17.97" transform="translate(30.618 6.996)" fill="#e6e6e6"/><rect width="4.322" height="17.97" transform="translate(26.296 6.996)" fill="#f5f5f5"/><rect width="12.681" height="20.741" transform="translate(39.242 4.225)" fill="#e6e6e6"/><rect width="3.667" height="20.741" transform="translate(35.582 4.225)" fill="#f0f0f0"/><rect width="12.317" height="17.97" transform="translate(42.98 6.996)" fill="#f0f0f0"/><rect width="2.44" height="17.97" transform="translate(40.534 6.996)" fill="#f5f5f5"/></g><g transform="translate(0.162 103.805)"><rect width="20.319" height="21.63" transform="translate(82.257 3.336)" fill="#e6e6e6"/><rect width="5.205" height="21.63" transform="translate(77.052 3.336)" fill="#f0f0f0"/><rect width="15.263" height="24.965" transform="translate(92.64)" fill="#e6e6e6"/><rect width="4.413" height="24.965" transform="translate(88.233)" fill="#f0f0f0"/><rect width="12.869" height="21.63" transform="translate(97.137 3.336)" fill="#f0f0f0"/><rect width="2.94" height="21.63" transform="translate(94.197 3.336)" fill="#f5f5f5"/><rect width="132.386" height="6.26" transform="translate(0 24.954)" fill="#e0e0e0"/><rect width="16.879" height="17.97" transform="translate(107.67 6.996)" fill="#e6e6e6"/><rect width="4.322" height="17.97" transform="translate(103.348 6.996)" fill="#f5f5f5"/><rect width="12.681" height="20.741" transform="translate(116.294 4.225)" fill="#e6e6e6"/><rect width="3.667" height="20.741" transform="translate(112.634 4.225)" fill="#f0f0f0"/><rect width="12.317" height="17.97" transform="translate(120.032 6.996)" fill="#f0f0f0"/><rect width="2.44" height="17.97" transform="translate(117.586 6.996)" fill="#f5f5f5"/></g><g transform="translate(0.365 16.295)"><rect width="106.319" height="64.785" transform="translate(0 0.026)" fill="#ebebeb"/><g transform="translate(3.219)"><g transform="translate(103.112)"><rect width="0.779" height="64.785" fill="#e0e0e0"/></g><rect width="0.642" height="58.295" transform="translate(0 2.84)" fill="#e0e0e0"/></g><rect width="99.701" height="58.295" transform="translate(3.155 2.84)" fill="#fff"/><rect width="8.216" height="11.801" transform="translate(62.431 22.267)" fill="#f5f5f5"/><rect width="8.216" height="11.801" transform="translate(7.958 40.964)" fill="#f5f5f5"/><rect width="8.216" height="8.216" transform="translate(7.157 16.354)" fill="#f5f5f5"/><rect width="8.216" height="8.216" transform="translate(48.025 44.726)" fill="#f5f5f5"/><g transform="translate(75.552 23.283)"><rect width="21.039" height="29.566" fill="#f5f5f5"/><g transform="translate(2.881 4.281)"><rect width="15.112" height="0.324" fill="#e0e0e0"/></g><g transform="translate(10.275 4.597)"><rect width="0.324" height="21.897" fill="#e0e0e0"/></g><g transform="translate(17.214 4.597)"><rect width="0.324" height="21.897" fill="#e0e0e0"/></g><g transform="translate(4.107 4.597)"><rect width="0.324" height="21.897" fill="#e0e0e0"/></g><g transform="translate(3.027 4.597)"><rect width="0.324" height="21.897" fill="#e0e0e0"/></g><g transform="translate(3.19 5.752)"><rect width="14.033" height="0.324" fill="#e0e0e0"/></g></g><g transform="translate(22.599 13.451)"><rect width="2.776" height="6.477" transform="translate(18.722 3.686) rotate(-90)" fill="#f5f5f5"/><rect width="2.159" height="6.477" transform="translate(19.988 23.971) rotate(-90)" fill="#f5f5f5"/><rect width="21.039" height="29.566" fill="#f0f0f0"/><rect width="2.159" height="6.477" transform="translate(18.536 28.751) rotate(-90)" fill="#f5f5f5"/><rect width="2.159" height="6.477" transform="translate(19.615 8.987) rotate(-90)" fill="#f5f5f5"/><rect width="2.159" height="6.477" transform="translate(18.195 14.352) rotate(-90)" fill="#f5f5f5"/><rect width="14.341" height="2.544" transform="translate(2.479 3.635)" fill="#e6e6e6"/><path d="M93.384,144.3H79.043l-.231-1.157H93.153Z" transform="translate(-76.333 -129.789)" fill="#e6e6e6"/><rect width="5.089" height="2.544" transform="translate(2.479 8.724)" fill="#e6e6e6"/></g></g><g transform="translate(123.161 141.906)"><g transform="translate(3.991 0)"><path d="M270.251,302.786a21.663,21.663,0,0,1,5.386,3.229,7.826,7.826,0,0,1,2.35,2.5,2.955,2.955,0,0,1-.215,3.246,3.065,3.065,0,0,1-3.769.224,11.107,11.107,0,0,1-2.8-2.964c-1.26-1.639-6.252-5.071-6.389-6.8A8.9,8.9,0,0,1,270.251,302.786Z" transform="translate(-245.815 -297.714)" fill="#e6e6e6"/><path d="M272.79,313.707a5.1,5.1,0,0,0,1.771,3.462,2.555,2.555,0,0,0,3.544-.4c.718-1.115.151-2.591-.521-3.734a18.807,18.807,0,0,0-4.472-5.435A19.583,19.583,0,0,0,272.79,313.707Z" transform="translate(-248.57 -299.684)" fill="#e0e0e0"/><path d="M264.483,302.934a13.62,13.62,0,0,1-.759,4.918,12.206,12.206,0,0,0-.651,4.926c.213,1.5,1.392,3.127,2.884,2.874a3.258,3.258,0,0,0,2.134-2.123c1.251-2.822,2.232-6.577,1.084-9.442-1.082-2.7-4.469-5.17-7.345-5.922C262.473,299.97,264.272,300.764,264.483,302.934Z" transform="translate(-244.768 -296.37)" fill="#e6e6e6"/><path d="M246.329,299.83a10.566,10.566,0,0,0-2.539,8.621,6.535,6.535,0,0,0-8.024,8.059c1.055.553,2.336-.374,2.847-1.453s.605-2.334,1.205-3.366,2.086-1.737,2.972-.938c.463,5.084-.232,12.233.23,17.317.067-.328,3.994-.3,3.977-.393-.483-2.54-1.15-12.226.1-11.929.994.236,1.2,1.563,1.073,2.58s-.3,2.214.448,2.887a1.671,1.671,0,0,0,2.531-.472c.844-1.306.356-2.814-.2-4.132a5.32,5.32,0,0,0-2.325-2.97c-1.167-.539-2.906.136-2.918,1.426-.662-3.2-1.319-6.558-.385-9.689s4.036-5.87,7.222-5.2c1.567.331,3.884,1.668,5.022-.175.809-1.31.043-2.2-1.094-2.853C253.235,295.294,248.55,297.367,246.329,299.83Z" transform="translate(-235.54 -295.763)" fill="#f0f0f0"/><path d="M260.474,300.535a6.953,6.953,0,0,0,.52,4.505c.646,1.177,2.029,1.949,3.069,1.234a3.58,3.58,0,0,0,1.121-2.893C265.247,299.214,261.721,293.733,260.474,300.535Z" transform="translate(-244.241 -296.074)" fill="#f0f0f0"/><path d="M266.284,295.857a8.893,8.893,0,0,1,5.524,5.058,2.4,2.4,0,0,1,.032,2.243,2.27,2.27,0,0,1-2.67.418c-1.909-.729-3.3-2.357-4.794-3.757-.994-.933-4.374-2.026-3.636-3.5S265.1,295.492,266.284,295.857Z" transform="translate(-244.349 -295.399)" fill="#f0f0f0"/></g><path d="M249.892,361.076H236.438L229.39,335.17h27.55Z" transform="translate(-229.39 -309.361)" fill="#e6e6e6"/><g transform="translate(6.055 47.863)"><rect width="15.352" height="0.577" fill="#fff"/></g></g><g transform="translate(69.917 178.695)"><path d="M147.344,361.423l.422,8.078H173.13l-9.218-8.078Z" transform="translate(-147.344 -355.366)" fill="#ebebeb"/><path d="M157.376,366.87l.617,8.707,25.521-.077-7.434-8.63Z" transform="translate(-150.866 -357.278)" fill="#e6e6e6"/><path d="M155.561,354.171l-5.811,4.606s18.8,3.415,18.394,3.367-.658-6.235-.658-6.235Z" transform="translate(-148.188 -352.82)" fill="#ebebeb"/><path d="M169.7,361.541l-1.447,4.757h17.759c-.3,0-3.542-4.654-3.542-4.654Z" transform="translate(-154.686 -355.407)" fill="#f0f0f0"/><path d="M168.229,352.089l-2.462,4.319,17.319,3.926c-.289-.066-2.425-5.322-2.425-5.322Z" transform="translate(-153.811 -352.089)" fill="#f5f5f5"/><path d="M162.239,356.287l-9.021,4.164s9.8,5.273,13.956,4.9c2.545-.231,5.976-6.4,5.976-6.4Z" transform="translate(-149.406 -353.563)" fill="#fafafa"/></g></g><g transform="translate(98.426 128.294)"><g transform="translate(0 0)"><g transform="translate(39.237)"><path d="M213.886,169.955c-2.991-2.064-5.417-5.264-5.643-8.891a44.415,44.415,0,0,1-17.32-4.877l-.216.256a46.011,46.011,0,0,0,1.9,9.806,15.462,15.462,0,0,0,5.764,7.965c3.4,2.232,7.685,2.506,11.75,2.556,4.725.059,9.688-.156,13.755-2.561C220.406,173.128,216.878,172.018,213.886,169.955Z" transform="translate(-190.707 -156.187)" fill="#407bff"/><path d="M213.886,169.955c-2.991-2.064-5.417-5.264-5.643-8.891a44.415,44.415,0,0,1-17.32-4.877l-.216.256a46.011,46.011,0,0,0,1.9,9.806,15.462,15.462,0,0,0,5.764,7.965c3.4,2.232,7.685,2.506,11.75,2.556,4.725.059,9.688-.156,13.755-2.561C220.406,173.128,216.878,172.018,213.886,169.955Z" transform="translate(-190.707 -156.187)" fill="#fff" opacity="0.7"/></g><g transform="translate(83.773 0.719)"><path d="M277.178,182.1a15.143,15.143,0,0,0-3.263-10.058c-1.91-2.2-4.578-3.562-6.911-5.306a25.068,25.068,0,0,1-7.669-9.437l.33,1.532a38.23,38.23,0,0,1,3.266,26.5,110.677,110.677,0,0,1,12.454,7.4A45.031,45.031,0,0,0,277.178,182.1Z" transform="translate(-259.335 -157.295)" fill="#407bff"/><path d="M277.178,182.1a15.143,15.143,0,0,0-3.263-10.058c-1.91-2.2-4.578-3.562-6.911-5.306a25.068,25.068,0,0,1-7.669-9.437l.33,1.532a38.23,38.23,0,0,1,3.266,26.5,110.677,110.677,0,0,1,12.454,7.4A45.031,45.031,0,0,0,277.178,182.1Z" transform="translate(-259.335 -157.295)" fill="#fff" opacity="0.7"/></g><g transform="translate(38.818 139.381)"><path d="M190.062,380.383l9.773,3.263a10.666,10.666,0,0,0,2.688.645,9.214,9.214,0,0,0,5.193-1.692,32.206,32.206,0,0,0,9.924-9.451l-8.908-1.456c-1.018-.167-3.179-.966-4.141-.656-.84.27-1.635,1.672-2.268,2.3a27.323,27.323,0,0,1-5.667,4.329C195.368,378.409,191.582,380.818,190.062,380.383Z" transform="translate(-190.062 -370.965)" fill="#407bff"/><path d="M190.062,380.383l9.773,3.263a10.666,10.666,0,0,0,2.688.645,9.214,9.214,0,0,0,5.193-1.692,32.206,32.206,0,0,0,9.924-9.451l-8.908-1.456c-1.018-.167-3.179-.966-4.141-.656-.84.27-1.635,1.672-2.268,2.3a27.323,27.323,0,0,1-5.667,4.329C195.368,378.409,191.582,380.818,190.062,380.383Z" transform="translate(-190.062 -370.965)" fill="#fff" opacity="0.6"/></g><g transform="translate(69.026 145.321)"><path d="M236.61,380.119l5.841,8.488a10.674,10.674,0,0,0,1.758,2.133,9.214,9.214,0,0,0,5.165,1.774,32.208,32.208,0,0,0,13.614-1.574l-6.238-6.525c-.713-.746-1.957-2.684-2.912-3.016-.833-.289-2.312.351-3.2.474a27.333,27.333,0,0,1-7.132.046C242.036,381.737,237.562,381.382,236.61,380.119Z" transform="translate(-236.61 -380.119)" fill="#407bff"/><path d="M236.61,380.119l5.841,8.488a10.674,10.674,0,0,0,1.758,2.133,9.214,9.214,0,0,0,5.165,1.774,32.208,32.208,0,0,0,13.614-1.574l-6.238-6.525c-.713-.746-1.957-2.684-2.912-3.016-.833-.289-2.312.351-3.2.474a27.333,27.333,0,0,1-7.132.046C242.036,381.737,237.562,381.382,236.61,380.119Z" transform="translate(-236.61 -380.119)" fill="#fff" opacity="0.6"/></g><g transform="translate(50.71 145.226)"><path d="M236.873,386.653l-8.858-5.263a10.7,10.7,0,0,0-2.49-1.2,9.213,9.213,0,0,0-5.434.551,32.217,32.217,0,0,0-11.7,7.129l8.4,3.314c.959.379,2.9,1.618,3.907,1.52.878-.086,1.952-1.286,2.705-1.769a27.331,27.331,0,0,1,6.457-3.028C231.268,387.456,235.48,385.906,236.873,386.653Z" transform="translate(-208.387 -379.973)" fill="#407bff"/><path d="M236.873,386.653l-8.858-5.263a10.7,10.7,0,0,0-2.49-1.2,9.213,9.213,0,0,0-5.434.551,32.217,32.217,0,0,0-11.7,7.129l8.4,3.314c.959.379,2.9,1.618,3.907,1.52.878-.086,1.952-1.286,2.705-1.769a27.331,27.331,0,0,1,6.457-3.028C231.268,387.456,235.48,385.906,236.873,386.653Z" transform="translate(-208.387 -379.973)" fill="#fff" opacity="0.7"/></g><g transform="translate(0 18.606)"><path d="M130.245,194.932a86.813,86.813,0,0,0,24.625-.142,1.672,1.672,0,0,0,1.256-.594c.371-.613-.15-1.358-.58-1.931a9.439,9.439,0,0,1-1.676-7.406,39.32,39.32,0,0,1-21.941,9.976Z" transform="translate(-130.245 -184.858)" fill="#407bff"/><path d="M130.245,194.932a86.813,86.813,0,0,0,24.625-.142,1.672,1.672,0,0,0,1.256-.594c.371-.613-.15-1.358-.58-1.931a9.439,9.439,0,0,1-1.676-7.406,39.32,39.32,0,0,1-21.941,9.976Z" transform="translate(-130.245 -184.858)" fill="#fff" opacity="0.4"/></g></g></g><g transform="translate(47.651 191.386)"><g transform="translate(0)"><path d="M55.089,285.784h0V253.409h0A10.19,10.19,0,0,1,65.278,263.6v12A10.19,10.19,0,0,1,55.089,285.784Z" transform="translate(-53.086 -253.409)" fill="#407bff"/><g transform="translate(0 10.167)"><path d="M85.007,328.588H60.56c-5.447,0-8.447-3.922-8.447-11.043L52,269.08l1.947,0,.11,48.467c0,6.038,2.187,9.1,6.5,9.1H85.007Z" transform="translate(-52.003 -269.076)" fill="#263238"/></g><path d="M102.941,351.124H68.029c-5.178,0-9.376-2.961-9.376-6.614h0c0-3.653,4.2-6.615,9.376-6.615h34.912c5.178,0,9.375,2.962,9.375,6.615h0C112.317,348.163,108.119,351.124,102.941,351.124Z" transform="translate(-54.337 -283.068)" fill="#407bff"/><path d="M55.089,285.784h0V253.409h0A10.19,10.19,0,0,1,65.278,263.6v12A10.19,10.19,0,0,1,55.089,285.784Z" transform="translate(-53.086 -253.409)" fill="#407bff"/><path d="M102.941,351.124H68.029c-5.178,0-9.376-2.961-9.376-6.614h0c0-3.653,4.2-6.615,9.376-6.615h34.912c5.178,0,9.375,2.962,9.375,6.615h0C112.317,348.163,108.119,351.124,102.941,351.124Z" transform="translate(-54.337 -283.068)" fill="#407bff"/><rect width="5.584" height="19.955" transform="translate(27.527 68.706)" fill="#263238"/><path d="M63.343,396.352l20.168-6.322H89.1l21.589,6.322v1.85H63.343Z" transform="translate(-55.984 -301.369)" fill="#263238"/><g transform="translate(6.28 96.833)"><rect width="4.472" height="4.472" transform="translate(1.079)" fill="#263238"/><circle cx="3.421" cy="3.421" r="3.421" transform="translate(0 4.923)" fill="#263238"/></g><g transform="translate(48.995 96.833)"><rect width="4.472" height="4.472" transform="translate(1.079)" fill="#263238"/><circle cx="3.421" cy="3.421" r="3.421" transform="translate(0 4.923)" fill="#263238"/></g></g><g transform="translate(14.003 15.721)"><g transform="translate(0 13.416)"><path d="M95.577,298.307H87.612l-14.03,81.73h3.542Z" transform="translate(-73.581 -298.307)" fill="#263238"/><path d="M95.577,298.307H87.612l-14.03,81.73h3.542Z" transform="translate(-73.581 -298.307)" fill="#fff" opacity="0.1"/></g><g transform="translate(70.429 13.416)"><path d="M182.109,298.307h7.965l14.03,81.73h-3.542Z" transform="translate(-182.109 -298.307)" fill="#263238"/><path d="M182.109,298.307h7.965l14.03,81.73h-3.542Z" transform="translate(-182.109 -298.307)" fill="#fff" opacity="0.1"/></g><g transform="translate(10.122 7.093)"><rect width="72.631" height="12.491" fill="#263238"/><rect width="72.631" height="12.491" fill="#fff" opacity="0.2"/></g><g transform="translate(3.227)"><path d="M160.129,284.727H82.1a3.547,3.547,0,0,1-3.547-3.546h0a3.547,3.547,0,0,1,3.547-3.547h78.028a3.547,3.547,0,0,1,3.547,3.547h0A3.547,3.547,0,0,1,160.129,284.727Z" transform="translate(-78.554 -277.634)" fill="#407bff"/><path d="M160.129,284.727H82.1a3.547,3.547,0,0,1-3.547-3.546h0a3.547,3.547,0,0,1,3.547-3.547h78.028a3.547,3.547,0,0,1,3.547,3.547h0A3.547,3.547,0,0,1,160.129,284.727Z" transform="translate(-78.554 -277.634)" opacity="0.3"/></g></g></g><g transform="translate(160.642 78.912)"><g transform="translate(0 0)"><circle cx="13.269" cy="13.269" r="13.269" transform="translate(0 26.079) rotate(-79.316)" fill="#407bff"/><circle cx="10.649" cy="10.649" r="10.649" transform="translate(4.69 4.851)" fill="#fff" opacity="0.8"/><g transform="translate(10.606 9.329)"><g transform="translate(3.626 5.974)"><path d="M250.206,104.753a1.08,1.08,0,1,1-1.08-1.08A1.08,1.08,0,0,1,250.206,104.753Z" transform="translate(-248.046 -103.673)" fill="#407bff"/></g><path d="M247.041,101.919l-4.582-4.312.445-.473,4.151,3.907,7.44-6.573.43.486Z" transform="translate(-242.459 -94.467)" fill="#407bff"/></g></g></g><g transform="translate(79.955 156.939)"><g transform="translate(0 0)"><g transform="translate(0 40.915)"><g transform="translate(0 0)"><rect width="35.66" height="8.867" transform="translate(35.66 8.867) rotate(180)" fill="#407bff"/><rect width="35.66" height="8.867" transform="translate(35.776 8.905) rotate(180)" fill="#fff" opacity="0.6" style="isolation:isolate"/><rect width="27.372" height="8.867" transform="translate(27.372 8.905) rotate(180)" fill="#fff" opacity="0.6" style="isolation:isolate"/><path d="M102.039,275.161l35.488,1.1-.04-.9L102.02,274.9Z" transform="translate(-101.866 -267.422)" fill="#407bff" style="isolation:isolate"/><path d="M137.567,267.9l-35.433-1.992v.3l35.433,2.369Z" transform="translate(-101.906 -264.266)" fill="#407bff" style="isolation:isolate"/><path d="M137.567,264.856l-35.433.811v.292l35.433-.428Z" transform="translate(-101.906 -263.896)" fill="#407bff" style="isolation:isolate"/><path d="M137.718,271.347l-35.439,1.726v-.26l35.439-2.057Z" transform="translate(-101.956 -265.967)" fill="#407bff" style="isolation:isolate"/></g><path d="M101.917,263.555l35.433.029v.292H101.917Z" transform="translate(-101.829 -263.439)" fill="#407bff" style="isolation:isolate"/></g><g transform="translate(2.557 14.507)"><rect width="35.66" height="8.867" transform="translate(35.66 8.867) rotate(180)" fill="#407bff"/><rect width="35.66" height="8.867" transform="translate(35.776 8.905) rotate(180)" fill="#fff" opacity="0.6" style="isolation:isolate"/><rect width="27.372" height="8.867" transform="translate(27.372 8.905) rotate(180)" fill="#fff" opacity="0.6" style="isolation:isolate"/><path d="M105.98,234.468l35.488,1.1-.04-.9-35.468-.463Z" transform="translate(-105.806 -226.729)" fill="#407bff" style="isolation:isolate"/><path d="M141.508,227.211l-35.433-1.992v.3l35.433,2.369Z" transform="translate(-105.846 -223.573)" fill="#407bff" style="isolation:isolate"/><path d="M141.508,224.163l-35.433.811v.292l35.433-.428Z" transform="translate(-105.846 -223.203)" fill="#407bff" style="isolation:isolate"/><path d="M141.658,230.654l-35.439,1.726v-.26l35.439-2.057Z" transform="translate(-105.897 -225.274)" fill="#407bff" style="isolation:isolate"/></g><g transform="translate(2.114 31.926)"><rect width="35.66" height="8.867" transform="translate(35.66 8.867) rotate(180)" fill="#407bff"/><rect width="35.66" height="8.867" transform="translate(35.776 8.905) rotate(180)" fill="#fff" opacity="0.6" style="isolation:isolate"/><rect width="27.372" height="8.867" transform="translate(0.078 0.039)" fill="#fff" opacity="0.6" style="isolation:isolate"/><path d="M140.547,261.049l-35.468.463-.04.9,35.488-1.1Z" transform="translate(-105.04 -253.571)" fill="#407bff" style="isolation:isolate"/><path d="M105.392,249.7l35.433.029v.292H105.392Z" transform="translate(-105.163 -249.587)" fill="#407bff" style="isolation:isolate"/><path d="M105.04,254.728l35.433-2.369v-.3l-35.433,1.992Z" transform="translate(-105.04 -250.415)" fill="#407bff" style="isolation:isolate"/><path d="M140.825,251l-35.433.811v.292l35.433-.428Z" transform="translate(-105.163 -250.044)" fill="#407bff" style="isolation:isolate"/><path d="M140.975,257.5l-35.439,1.726v-.26l35.439-2.057Z" transform="translate(-105.214 -252.115)" fill="#407bff" style="isolation:isolate"/></g><g transform="translate(0.843 23.567)"><path d="M138.779,236.644l-35.646.179-.052,8.688h35.7Z" transform="translate(-103.081 -236.644)" fill="#407bff"/><rect width="35.66" height="8.867" transform="translate(35.698 8.867) rotate(180)" fill="#fff" opacity="0.6" style="isolation:isolate"/><rect width="27.372" height="8.867" fill="#fff" opacity="0.6" style="isolation:isolate"/><path d="M131.553,236.92H103.161v.9h27.782Z" transform="translate(-103.109 -236.741)" fill="#407bff" style="isolation:isolate"/><path d="M138.6,242.517l-35.439.331v.26H138.6Z" transform="translate(-103.109 -238.706)" fill="#407bff" style="isolation:isolate"/><path d="M103.161,247.905l35.439-1.726v.26L103.161,248.5Z" transform="translate(-103.109 -239.991)" fill="#407bff" style="isolation:isolate"/><path d="M103.161,243.7l35.439.707v.253l-35.439-.37Z" transform="translate(-103.109 -239.121)" fill="#407bff" style="isolation:isolate"/></g><g transform="translate(10.115 4.279)"><rect width="35.433" height="4.465" transform="translate(0.096)" fill="#407bff"/><rect width="35.433" height="4.465" transform="translate(0.096)" fill="#fff" opacity="0.6" style="isolation:isolate"/><rect width="28.236" height="4.465" transform="translate(0.096)" fill="#fff" opacity="0.6" style="isolation:isolate"/><path d="M152.98,211.8l-35.433.175v.13H152.98Z" transform="translate(-117.431 -208.635)" fill="#407bff" style="isolation:isolate"/><path d="M117.547,208.742l35.433-.9v.136l-35.433,1.071Z" transform="translate(-117.431 -207.245)" fill="#407bff" style="isolation:isolate"/><path d="M117.369,208.853l35.433.363v.136l-35.433-.195Z" transform="translate(-117.369 -207.6)" fill="#407bff" style="isolation:isolate"/></g><g transform="translate(5.252 2.197)"><rect width="35.433" height="2.152" transform="translate(0 0.116)" fill="#407bff"/><rect width="35.433" height="2.133" transform="translate(0 0.134)" fill="#fff" opacity="0.6" style="isolation:isolate"/><rect width="28.236" height="2.267" fill="#fff" opacity="0.6" style="isolation:isolate"/><path d="M109.9,205.93l35.433-.9v.136L109.9,206.235Z" transform="translate(-109.886 -204.176)" fill="#407bff" style="isolation:isolate"/><path d="M109.9,204.754l35.433.363v.136l-35.433-.195Z" transform="translate(-109.886 -204.08)" fill="#407bff" style="isolation:isolate"/></g><g transform="translate(8.554)"><rect width="35.433" height="2.152" transform="translate(0 0.116)" fill="#407bff"/><rect width="35.433" height="2.133" transform="translate(0 0.134)" fill="#fff" opacity="0.6" style="isolation:isolate"/><rect width="28.236" height="2.267" fill="#fff" opacity="0.6" style="isolation:isolate"/><path d="M114.988,202l35.442.431-.005.136-35.448-.263Z" transform="translate(-114.968 -200.917)" fill="#407bff" style="isolation:isolate"/><path d="M114.992,201.368l35.433.363v.136l-35.433-.195Z" transform="translate(-114.973 -200.693)" fill="#407bff" style="isolation:isolate"/></g><g transform="translate(7.589 8.744)"><rect width="35.433" height="5.75" transform="translate(0.225)" fill="#407bff"/><rect width="35.433" height="5.75" transform="translate(0.225)" fill="#fff" opacity="0.6" style="isolation:isolate"/><rect width="27.34" height="5.75" transform="translate(0.225)" fill="#fff" opacity="0.6" style="isolation:isolate"/><path d="M148.909,216.363l-35.433-.2v-.156h35.433Z" transform="translate(-113.476 -214.576)" fill="#407bff" style="isolation:isolate"/><path d="M113.853,217.653l35.433,1.038v-.156L113.853,217.3Z" transform="translate(-113.609 -215.031)" fill="#407bff" style="isolation:isolate"/><path d="M150.374,213.812H116.953l.74.707h32.681Z" transform="translate(-114.697 -213.806)" fill="#407bff" style="isolation:isolate"/><path d="M114.041,220.981l35.433-.428V220.4l-35.433.221Z" transform="translate(-113.675 -216.12)" fill="#407bff" style="isolation:isolate"/></g></g></g><g transform="translate(75.522 163.259)"><path d="M157.034,251.918l9.973-41.852h0c.7.166,1.631.866,1.465,1.563L158.8,252.219Z" transform="translate(-116.745 -210.066)" fill="#263238"/><path d="M0,0H43.024a0,0,0,0,1,0,0V0a2.165,2.165,0,0,1-2.165,2.165H2.165A2.165,2.165,0,0,1,0,0V0A0,0,0,0,1,0,0Z" transform="translate(0 41.654)" fill="#263238"/></g><g transform="translate(121.989 194.899)"><g transform="translate(0 0)"><path d="M168.862,260.934V263.5a1.614,1.614,0,0,0,.474,1.146l2.06,2.058a1.6,1.6,0,0,0,.666.4,5.281,5.281,0,0,0,4.789,3.061h.771a5.285,5.285,0,0,0,5.285-5.284v-6.056h-11.34v.491h-1.084A1.622,1.622,0,0,0,168.862,260.934Zm1.3,0a.323.323,0,0,1,.323-.323h1.084v4.267c0,.058.006.115.008.173l-1.321-1.321a.328.328,0,0,1-.095-.228Z" transform="translate(-167.364 -258.822)" fill="#407bff"/><path d="M184.789,277.114H168.476a3,3,0,0,1-1.922-.96H186.71A3,3,0,0,1,184.789,277.114Z" transform="translate(-166.554 -264.906)" fill="#407bff"/></g></g><g transform="translate(222.847 80.818)"><g transform="translate(0 12.293)"><g transform="translate(2.919 3.031)"><rect width="84.319" height="180.245" fill="#407bff"/><rect width="84.319" height="180.245" opacity="0.5"/></g><g transform="translate(2.816 3.031)"><path d="M369.539,111.821V280.212l-43.069,6.676V106.644Z" transform="translate(-326.366 -106.644)" opacity="0.3"/><path d="M369.539,111.821l-43.069-5.177,43.069,118.375Z" transform="translate(-326.366 -106.644)" opacity="0.4"/><rect width="178.869" height="2.803" transform="matrix(0.001, -1, 1, 0.001, 0, 179.807)" opacity="0.4"/></g><path d="M321.971,101.973V285.249h2.919V105h83.974V285.249h2.919V101.973Z" transform="translate(-321.971 -101.973)" fill="#407bff"/></g><g transform="translate(29.373)"><rect width="32.522" height="11.645" fill="#407bff"/><rect width="32.522" height="11.645" fill="#fff" opacity="0.8"/><g transform="translate(8.545 3.028)"><path d="M380.4,93.284V87.695h4.114v.992h-2.947v1.186H384.3v.962h-2.734v1.456h3.077v.992Z" transform="translate(-380.4 -87.695)" fill="#407bff"/><path d="M389.47,90.456l-1.688-2.761h1.382l.982,1.8,1.019-1.8h1.348l-1.7,2.673,1.825,2.916h-1.395l-1.1-1.925-1.1,1.925H387.66Z" transform="translate(-382.949 -87.695)" fill="#407bff"/><path d="M396.262,87.695h1.167v5.589h-1.167Z" transform="translate(-385.968 -87.695)" fill="#407bff"/><path d="M400.687,88.687H399v-.992h4.544v.992h-1.689v4.6h-1.167Z" transform="translate(-386.929 -87.695)" fill="#407bff"/></g></g></g><g transform="translate(162.759 112.574)"><path d="M356.978,166.323c-2.365,2.315-4.262,5.195-.96,8.7,0,0,1.893,5.377-5.229.684-6.46-4.257-5.58-7.806-5.58-7.806,3.883-.768,7.178-7.738,8.672-11.743Z" transform="translate(-270.026 -140.456)" fill="#ff8b7b"/><path d="M381.649,160.962c.266.139.33.6.132,1.007s-.57.631-.839.5-.326-.58-.13-1S381.383,160.823,381.649,160.962Z" transform="translate(-282.499 -142.129)" fill="#263238"/><path d="M377.533,166.091a2.613,2.613,0,0,0,2.131.631,17.17,17.17,0,0,1-.283-4.564Z" transform="translate(-281.388 -142.564)" fill="#a02724"/><g transform="translate(82.123 1.913)"><path d="M361.617,142.735a7.457,7.457,0,0,1,10.5.981c3.966,4.554,1.094,12.488-2.134,16.526A7.366,7.366,0,0,1,357.138,158c-1.312-3.921.176-6.887,2.263-12.158A7.456,7.456,0,0,1,361.617,142.735Z" transform="translate(-356.177 -137.056)" fill="#ff8b7b"/><g transform="translate(0 2.622)"><path d="M361.245,155.632a6.846,6.846,0,0,1-4.957-2.7c-1-1.289.1-8.652,3.048-11.568,2.849-2.807,5.218-3.047,9.233-1.336s6.523,5.844,5.774,7.656-4.858,5.59-6.062,5.446C366.891,150.883,362.865,155.686,361.245,155.632Z" transform="translate(-355.926 -138.953)" fill="#263238"/><path d="M361.245,155.632a6.846,6.846,0,0,1-4.957-2.7c-1-1.289.1-8.652,3.048-11.568,2.849-2.807,5.218-3.047,9.233-1.336s6.523,5.844,5.774,7.656-4.858,5.59-6.062,5.446C366.891,150.883,362.865,155.686,361.245,155.632Z" transform="translate(-355.926 -138.953)" fill="#fff" opacity="0.2"/></g><path d="M362.577,141.692c-3.626-.93-2.083-5.852,1.269-6.663,2.713-.664,7.71,1.652,9.954,3.56s2.454,0,2.454,0a5.269,5.269,0,0,1,3.07,4.818c-.032,3.547-3.537,5.234-5.22,3.979C374.1,147.382,366.2,142.622,362.577,141.692Z" transform="translate(-357.529 -134.912)" fill="#263238"/><path d="M374.518,156.375c.922,1.578-.439,3.833-1.672,4.9-1.367,1.178-3.2,1.01-3.428-.866a5.655,5.655,0,0,1,1.1-4.025C371.593,154.98,373.6,154.8,374.518,156.375Z" transform="translate(-360.65 -142.055)" fill="#ff8b7b"/><path d="M380.67,157.393a2.243,2.243,0,0,1,1.991.056.268.268,0,1,0,.289-.45,2.775,2.775,0,0,0-2.493-.1h0a.277.277,0,0,0-.016.491A.286.286,0,0,0,380.67,157.393Z" transform="translate(-364.481 -142.543)" fill="#263238"/></g><g transform="translate(83.267)"><g transform="translate(3.845)"><path d="M367.619,139.626l-.288-.149a4.959,4.959,0,0,0-3.718-7.192l.045-.321a5.283,5.283,0,0,1,3.961,7.662Z" transform="translate(-363.614 -131.964)" fill="#263238"/></g><g transform="translate(9.422 0.194)"><path d="M372.339,140.72l-.132-.3a4.958,4.958,0,0,0,1.591-7.937l.236-.223a5.284,5.284,0,0,1-1.7,8.457Z" transform="translate(-372.207 -132.263)" fill="#263238"/></g><g transform="translate(0 4.074)"><path d="M361.225,139.133a3.474,3.474,0,0,0-3.392-.221l-.144-.29a3.751,3.751,0,0,1,3.717.243Z" transform="translate(-357.689 -138.241)" fill="#263238"/></g><g transform="translate(18.807 8.703)"><path d="M386.836,146.9l-.166-.279a9.025,9.025,0,0,1,4.225-1.25l.012.324A8.684,8.684,0,0,0,386.836,146.9Z" transform="translate(-386.67 -145.375)" fill="#263238"/></g><g transform="translate(6.194 1.374)"><path d="M377.936,140.483a1.2,1.2,0,0,1-.744-.256,2.985,2.985,0,0,1-.614-.75l-.038-.058c-.312-.48-3.138-4.7-6.2-5a3.444,3.444,0,0,0-2.874,1.16l-.232-.227a3.756,3.756,0,0,1,3.138-1.256c3.215.318,6.12,4.65,6.441,5.144l.038.058a2.7,2.7,0,0,0,.543.673.884.884,0,0,0,.781.154.841.841,0,0,0,.554-.393,1.3,1.3,0,0,0-.008-.963,2.615,2.615,0,0,0-.772-.988l.221-.238a2.9,2.9,0,0,1,.859,1.122,1.612,1.612,0,0,1-.012,1.219,1.152,1.152,0,0,1-.754.554A1.241,1.241,0,0,1,377.936,140.483Z" transform="translate(-367.233 -134.081)" fill="#263238"/></g><path d="M381.481,152.476a.154.154,0,0,1,.225-.209,2.574,2.574,0,0,0,2.62.53,4.266,4.266,0,0,0,2.991-3.377.154.154,0,0,1,.3.061,4.605,4.605,0,0,1-3.211,3.611,3.086,3.086,0,0,1-2.529-.28A2.146,2.146,0,0,1,381.481,152.476Z" transform="translate(-366.028 -138.048)" fill="#263238"/></g><g transform="translate(0 24.457)"><path d="M350.934,224.967c2.658,2.116,6.226,3.24,8.252,5.968,1.032,1.389,5.284,3.608,6.936,4.406a1.517,1.517,0,0,0,1.278.021c.968-.427,2.809-1.236,3.587-1.557a.3.3,0,0,0,.125-.458l-1.282-1.742-3.342.232c.314-1.613.85-3.6-.98-3.719a7.166,7.166,0,0,1-3.844-.909c-8.262-5.18-14.373-17.659-16.226-27.232-.451-2.332-.787-4.772-2.085-6.76s-3.918-3.362-6.087-2.4C331.04,193.594,344.982,220.23,350.934,224.967Z" transform="translate(-266.703 -176.971)" fill="#ff8b7b"/><g transform="translate(0 45.036)"><g transform="translate(21.121)"><path d="M294.982,311.594c-5.815,4.713-33.056,19.312-33.056,19.312l3.82,7.183s23.037-6.371,34.75-14.648Z" transform="translate(-261.926 -264.515)" fill="#407bff"/><path d="M315.856,298.009a42.385,42.385,0,0,0,3.7-7.511,65.37,65.37,0,0,0,2.645-8.912c.1-.426.189-.866.282-1.312.035-.172.068-.338.1-.516a80.621,80.621,0,0,0,1.513-12l.848-7.063,1.824-15.258c-7.671-3.2-13.975-6.388-13.975-6.388a19.673,19.673,0,0,0-4.841,11.57c-.376,9.331,1.212,33.169-1.71,38.534Z" transform="translate(-277.485 -239.048)" fill="#407bff"/><path d="M306.247,316.255l9.609,8.858Z" transform="translate(-277.485 -266.151)" fill="#407bff"/></g><g transform="translate(0 64.605)"><path d="M257.138,340.509l-11,4.744s-.128,4.979,1.867,4.6c2.713-.514,11.509-2.233,11.509-2.233S260.861,349.078,257.138,340.509Z" transform="translate(-235.26 -339.27)" fill="#ff8b7b"/><g transform="translate(9.64 11.915)"><path d="M244.472,358.9a9.634,9.634,0,0,1-.237-1.717.123.123,0,0,1,.081-.129.127.127,0,0,1,.144.034c.189.214,1.83,2.091,1.629,2.822a.413.413,0,0,1-.286.29.737.737,0,0,1-.671-.086A2.1,2.1,0,0,1,244.472,358.9Zm.05-1.346a3.691,3.691,0,0,0,.739,2.349.479.479,0,0,0,.448.054.149.149,0,0,0,.112-.108C245.947,359.436,245.168,358.333,244.521,357.552Z" transform="translate(-244.234 -356.99)" fill="#407bff"/><path d="M244.236,357.176a.169.169,0,0,1,0-.08.14.14,0,0,1,.1-.08c.094-.03,2.327-.325,2.64.864l.033.1c.055.348-.094.492-.227.552-.578.249-2.056-.744-2.515-1.317Zm2.5.776c-.193-.772-1.53-.734-2.1-.707.566.563,1.691,1.205,2.038,1.053,0,0,.116-.036.078-.273Z" transform="translate(-244.234 -356.961)" fill="#407bff"/></g><path d="M256.053,342.878l2.118,6.076,4.626-1.044-3.659-6.363Z" transform="translate(-238.743 -339.635)" opacity="0.2"/><path d="M241.682,345.905c-.89-.848-.59-.286-2.144-1.5-.752-.589-3.026-1.132-3.83-.674-1.248.713-1.63,2.182-2.889,4.344a36.471,36.471,0,0,0-3.406,9.751,1.849,1.849,0,0,0,1.323,2.142c.22.053.411.09.565.115a.682.682,0,0,0,.652-.256c1.8-2.335,2.176-2.575,3.926-4.7s5.955-3.548,5.955-3.548Z" transform="translate(-229.379 -340.34)" fill="#263238"/><g transform="translate(18.792)"><path d="M265.129,348.477c.023.033-3.219.785-3.219.785l-3.572-9.336,2.609-1.326Z" transform="translate(-258.337 -338.6)" fill="#407bff"/><g opacity="0.7"><path d="M265.129,348.477c.023.033-3.219.785-3.219.785l-3.572-9.336,2.609-1.326Z" transform="translate(-258.337 -338.6)" fill="#fff"/></g></g></g></g><g transform="translate(53.67 47.924)"><path d="M408.5,346.337l7.443,12.015s5.2-1.6,4.427-3.668c-.477-1.277-2.26-5.631-3.547-9.091a3.116,3.116,0,0,0-2.373-2.234C413,343.324,411.4,344.434,408.5,346.337Z" transform="translate(-345.927 -278.554)" fill="#ff8b7b"/><g transform="translate(77.02 74.643)"><path d="M433.04,360.906a9.66,9.66,0,0,1-1.625.6.122.122,0,0,1-.143-.051.127.127,0,0,1,0-.148c.167-.231,1.643-2.241,2.4-2.2a.41.41,0,0,1,.345.215.734.734,0,0,1,.062.674A2.1,2.1,0,0,1,433.04,360.906Zm-1.325.244a3.7,3.7,0,0,0,2.132-1.232.483.483,0,0,0-.045-.449.152.152,0,0,0-.13-.086C433.244,359.349,432.337,360.349,431.715,361.15Z" transform="translate(-430.934 -358.726)" fill="#407bff"/><path d="M431.257,361.467a.164.164,0,0,1-.079.012.14.14,0,0,1-.1-.082c-.049-.086-.824-2.2.269-2.765l.1-.055c.327-.129.5-.015.588.1.368.51-.279,2.169-.738,2.742Zm.214-2.606c-.711.357-.383,1.654-.233,2.2.426-.675.808-1.913.585-2.219,0,0-.061-.105-.284-.016Z" transform="translate(-430.764 -358.52)" fill="#407bff"/></g><path d="M418.755,364.111c.051.986.9,2.309,1.139,3.878.113.76.726,1.96,1.448,2.138,1.121.273,2.206.076,4.135-.489,2.517-.738,8.88-4.338,10.49-5.491a1.485,1.485,0,0,0,.411-1.981c-.1-.152-.191-.28-.266-.379a.547.547,0,0,0-.521-.21c-2.343.365-2.693.3-4.889.576s-6.38-1.6-6.38-1.6Z" transform="translate(-349.529 -284.591)" fill="#263238"/><path d="M412.846,352.819l1.715,2.769,5.474-3.743L418.87,348.7Z" transform="translate(-347.454 -280.43)" opacity="0.2"/><path d="M329.8,243.5l-17.718,8.934a34.637,34.637,0,0,0,2.9,7.429c6.219,10.321,13.2,5.425,18.563,9.234,11.887,8.447,20.628,12.753,23.12,15.642,1.959,2.27,21.712,32.562,21.712,32.562l5.85-3.9s-9.027-27.065-16.136-36.407S329.8,243.5,329.8,243.5Z" transform="translate(-312.081 -243.499)" fill="#407bff"/><path d="M325.079,289.408A89.113,89.113,0,0,0,327,276.046c.164-2.465.2-5.054-.89-7.27a12.008,12.008,0,0,0-3.969-4.26c-1.746-1.247-9.019-5.639-7.482-1.795C315.939,265.932,324.832,290.519,325.079,289.408Z" transform="translate(-312.91 -249.705)" opacity="0.2"/><path d="M329.8,243.5l-17.718,8.934a34.637,34.637,0,0,0,2.9,7.429c6.219,10.321,13.2,5.425,18.563,9.234,11.887,8.447,20.628,12.753,23.12,15.642,1.959,2.27,21.712,32.562,21.712,32.562l5.85-3.9s-9.027-27.065-16.136-36.407S329.8,243.5,329.8,243.5Z" transform="translate(-312.081 -243.499)" fill="#407bff"/><g transform="translate(63.296 66.183)"><path d="M418.345,345.484c.027-.03,1.3,2.907,1.3,2.907l-8.17,5.586-1.863-2.258Z" transform="translate(-409.617 -345.484)" fill="#407bff"/><path d="M418.345,345.484c.027-.03,1.3,2.907,1.3,2.907l-8.17,5.586-1.863-2.258Z" transform="translate(-409.617 -345.484)" fill="#fff" opacity="0.7"/></g></g><g transform="translate(96.258 49.636)"><circle cx="3.347" cy="3.347" r="3.347" transform="matrix(0.758, -0.652, 0.652, 0.758, 0, 4.365)" fill="#407bff"/><path d="M383.423,248.265a3.345,3.345,0,1,0,3.083,3.589A3.34,3.34,0,0,0,383.423,248.265Zm-.149,4.64a1.158,1.158,0,1,1,1.155-1.162A1.155,1.155,0,0,1,383.274,252.9Z" transform="translate(-378.45 -246.88)" fill="#fff" opacity="0.7"/></g><g transform="translate(49.526 2.097)"><g transform="translate(0.012)"><path d="M338.055,206.405a69.364,69.364,0,0,0-1.548,13.44l1.023,4.316-1.352.172-.208-.968-.458-2.111-.454,1.96-.28,1.221a58.43,58.43,0,0,1-7.685-.2c-6.645-.617-21.378-3.462-21.378-3.462s2.133-8.223,3.9-9.847c.971-4.264,2.265-10.089,3.733-16.964a54.829,54.829,0,0,1,5.935-16.175,9.885,9.885,0,0,1,8.425-4.9,42.137,42.137,0,0,1,7.194.461c5.894.968,11.884,4.309,12.573,5.83C348.835,182.166,339.836,199.107,338.055,206.405Z" transform="translate(-305.715 -172.882)" fill="#407bff"/><path d="M351.842,249.532l-.913-.151.455-1.96Z" transform="translate(-321.587 -199.048)" fill="#407bff"/></g><path d="M338.036,206.421a69.354,69.354,0,0,0-1.548,13.44l1.023,4.316-1.352.172-.207-.968-.458-2.111-.455,1.96-.279,1.221a58.442,58.442,0,0,1-7.686-.2c-6.644-.617-21.378-3.462-21.378-3.462s2.133-8.223,3.9-9.847c.972-4.265,2.266-10.09,3.734-16.964a55.921,55.921,0,0,1,5.515-15.434,11,11,0,0,1,9.65-5.647,40.346,40.346,0,0,1,6.389.467c5.894.968,11.883,4.309,12.573,5.829C348.816,182.182,339.817,199.122,338.036,206.421Z" transform="translate(-305.696 -172.887)" fill="#fff" opacity="0.8"/></g><path d="M341.8,171.753l2.563-1.637a2.975,2.975,0,0,1,2.034-.435,25.188,25.188,0,0,1,7.661,1.892,2.749,2.749,0,0,1,1.715,3.329S351.086,172.463,341.8,171.753Z" transform="translate(-268.843 -169.65)" fill="#407bff"/></g><g transform="translate(60.659 43.405)"><g transform="translate(11.568)"><path d="M353.2,203.759l-2.6.06-.022-.943a1.573,1.573,0,0,0-.425-1.064,1.13,1.13,0,0,0-.844-.368l-4.835.113a1.155,1.155,0,0,0-.826.407,1.581,1.581,0,0,0-.374,1.082l.022.944-2.6.06-.022-.943a4.169,4.169,0,0,1,1.017-2.853,3.712,3.712,0,0,1,2.718-1.292l4.836-.113a3.7,3.7,0,0,1,2.775,1.164,4.163,4.163,0,0,1,1.149,2.8Z" transform="translate(-340.678 -198.848)" fill="#263238"/></g><g transform="translate(11.568)" opacity="0.2"><path d="M353.2,203.759l-2.6.06-.022-.943a1.573,1.573,0,0,0-.425-1.064,1.13,1.13,0,0,0-.844-.368l-4.835.113a1.155,1.155,0,0,0-.826.407,1.581,1.581,0,0,0-.374,1.082l.022.944-2.6.06-.022-.943a4.169,4.169,0,0,1,1.017-2.853,3.712,3.712,0,0,1,2.718-1.292l4.836-.113a3.7,3.7,0,0,1,2.775,1.164,4.163,4.163,0,0,1,1.149,2.8Z" transform="translate(-340.678 -198.848)" fill="#fff"/></g><path d="M323.79,207.23l-.938,22.792,4.85-.113-2.39-22.714Z" transform="translate(-322.852 -201.778)" fill="#263238"/><path d="M359.017,228.8l-2,.046-2.854.067-29.342.682-.532-22.757,30.811-.716,1.384-.033.136-.005Z" transform="translate(-323.358 -201.388)" fill="#263238"/><path d="M359.017,228.8l-2,.046-2.854.067-29.342.682-.532-22.757,30.811-.716,1.384-.033.136-.005Z" transform="translate(-323.358 -201.388)" fill="#fff" opacity="0.2"/><path d="M323.79,207.23l-.938,22.792,4.85-.113-2.39-22.714Z" transform="translate(-322.852 -201.778)" fill="#fff" opacity="0.2"/><g transform="translate(1.717 5.42)"><line x2="0.387" y2="22.761" transform="translate(0.32 0.005)" fill="none"/><rect width="0.649" height="22.764" transform="translate(0 0.011) rotate(-0.951)" fill="#263238"/></g></g><g transform="translate(72.552 30.892)"><g transform="translate(0.457 0.701)"><path d="M352.247,182.221c-1.308,2.53-5.223,13.067-8.8,22.733A3.077,3.077,0,0,0,345.575,209l3.966.657c4.2-9.322,7.548-17.183,11.257-25.135C357.754,182.811,354.294,178.262,352.247,182.221Z" transform="translate(-342.365 -180.647)" fill="#ff8b7b"/><path d="M349.2,225.026c1.611,9.541,2.221,18.214,3.5,26.42l-4.205.176c-.163-3.094-2.427-8.519-3.65-13.927-.442-1.953-1.412-3.828-2.117-6.771a5.534,5.534,0,0,1,3.16-5.905Z" transform="translate(-342.143 -196.223)" fill="#ff8b7b"/><g transform="translate(2.332 54.388)"><path d="M353.541,264.469c-4.017-.319-4.34,5.223-4.34,5.223l4.915,3,.875-7.384Z" transform="translate(-346.784 -264.456)" fill="#ff8b7b"/><path d="M352.809,275.523l-4.915-3-2.418,3.832,3.019,2.659Z" transform="translate(-345.476 -267.288)" fill="#ff8b7b"/></g><path d="M350.215,218.342l-6.015-5.609s-4.626,9.715-.809,15.44c3.262,4.893,5.213-4.423,5.213-4.423l.763-2.979Z" transform="translate(-341.883 -191.91)" fill="#ff8b7b"/></g><path d="M349.128,189.329a2.062,2.062,0,0,0-.457-1.435.808.808,0,0,0-1.163.071l.168-.456-4.769,8.811a2.244,2.244,0,0,0-.348,2.049c.214.4-.054,1.341.264,1.658.953.949-2.234,3.041-1.547,11.543C346.46,203.742,349.419,195.461,349.128,189.329Z" transform="translate(-341.178 -182.355)" fill="#263238" opacity="0.5"/><g transform="translate(4.212)"><path d="M357.211,179.651a11.6,11.6,0,0,0-5.41,2.8,7,7,0,0,0-1.726,1.879,7.946,7.946,0,0,0-.759,3.216c-.177,1.932-1.47,6.85-1.647,8.782a27.772,27.772,0,0,0,9.294,3.5,1.64,1.64,0,0,0,1.209-.1c.63-.422,3.214-9,4.194-10.956C364.454,184.614,362.648,178.8,357.211,179.651Z" transform="translate(-347.669 -179.567)" fill="#407bff"/><path d="M357.211,179.651a11.6,11.6,0,0,0-5.41,2.8,7,7,0,0,0-1.726,1.879,7.946,7.946,0,0,0-.759,3.216c-.177,1.932-1.47,6.85-1.647,8.782a27.772,27.772,0,0,0,9.294,3.5,1.64,1.64,0,0,0,1.209-.1c.63-.422,3.214-9,4.194-10.956C364.454,184.614,362.648,178.8,357.211,179.651Z" transform="translate(-347.669 -179.567)" fill="#fff" opacity="0.8"/></g></g></g></g></svg>