<svg xmlns="http://www.w3.org/2000/svg" width="25.662" height="25.301" viewBox="0 0 25.662 25.301">
  <g id="edit_2_" data-name="edit (2)" transform="translate(64.771 -2.612)">
    <g id="Group_10306" data-name="Group 10306" transform="translate(-64.771 2.612)">
      <g id="Group_10305" data-name="Group 10305" transform="translate(0)">
        <path id="Path_20933" data-name="Path 20933" d="M234.182,5.792a3.145,3.145,0,0,0-.9-2.241,3.253,3.253,0,0,0-2.241-.94,3.108,3.108,0,0,0-2.2.9L233.279,8A2.964,2.964,0,0,0,234.182,5.792Z" transform="translate(-208.521 -2.612)" fill="#e8505b"/>
        <rect id="Rectangle_3254" data-name="Rectangle 3254" width="6.287" height="14.568" transform="translate(19.3 1.952) rotate(45)" fill="#e8505b"/>
        <path id="Path_20934" data-name="Path 20934" d="M43.33,200.621l-1.012,4.59,4.59-1.012Z" transform="translate(-34.909 -186.922)" fill="#e8505b"/>
        <path id="Path_20935" data-name="Path 20935" d="M24.94,347.429H.723a.723.723,0,0,0,0,1.446H24.94a.723.723,0,0,0,0-1.446Z" transform="translate(0 -323.574)" fill="#e8505b"/>
      </g>
    </g>
  </g>
</svg>
