<svg xmlns="http://www.w3.org/2000/svg" width="371" height="461.234" viewBox="0 0 371 461.234"><g transform="translate(-342.999 -137)"><g transform="translate(301.422 174.143)"><g transform="translate(55.51 51.642)"><g transform="translate(73.884 95)"><path d="M183.484,219.865a20.549,20.549,0,1,0-.242-32.254l-.006,0-4.508-3.5-6.694,2.087.766-6.695-5.649-4.391-6.694,2.087.767-6.695-4.855-3.775-4.08,1.272.467-4.08-2.826-2.2-6.408.632-.862,9.848,33.586,26.11A20.553,20.553,0,0,0,183.484,219.865Zm24.468-7.007a5.895,5.895,0,1,1-1.036-8.271A5.894,5.894,0,0,1,207.951,212.858Z" transform="translate(-142.661 -161.716)" fill="#ebebeb"/></g><g transform="translate(110.213 56.664)"><path d="M216.038,135.553a11,11,0,1,0-17.267-.289l0,0-1.935,2.367,1.03,3.611-3.573-.5-2.424,2.966,1.03,3.61-3.574-.5-2.083,2.55.628,2.2-2.178-.3-1.212,1.484.255,3.439,5.259.589L204.4,139.147A11.007,11.007,0,0,0,216.038,135.553ZM212.6,122.365a3.156,3.156,0,1,1-4.441.447A3.156,3.156,0,0,1,212.6,122.365Z" transform="translate(-184.478 -117.589)" fill="#ebebeb"/></g><g transform="translate(0.434)"><path d="M152.987,52.364v63.757H61.414l-3.3-63.312Z" transform="translate(-58.115 -52.364)" fill="#e0e0e0"/></g><g transform="translate(0 0.012)"><rect width="63.177" height="91.573" transform="translate(0.434 63.611) rotate(-90)" fill="#fff"/><path d="M150.056,116.423H57.615V52.378h92.441Zm-91.573-.869h90.7V53.247h-90.7Z" transform="translate(-57.615 -52.378)" fill="#e0e0e0"/></g><g transform="translate(10.126 8.087)"><g transform="translate(0.226 0.208)"><rect width="71.737" height="47.479" fill="#fff"/></g><path d="M141.234,61.882s-.123.008-.354.012l-1.021.012-3.94.025-14.783.056-51.64.1.208-.208c.006,14.506.012,30.579.019,47.473v.005l-.227-.226,71.737.046-.181.18c.04-14.448.072-26.295.095-34.544.02-4.123.036-7.344.046-9.553q.013-1.637.02-2.51c.007-.569.02-.871.02-.871s.013.276.019.833c.005.573.011,1.4.02,2.477.011,2.2.026,5.406.046,9.512.023,8.276.056,20.161.095,34.656v.181h-.181l-71.737.046h-.226v-.232c.007-16.894.013-32.967.018-47.473v-.208H69.5l51.777.1,14.736.056,3.9.025,1,.012C141.127,61.874,141.234,61.882,141.234,61.882Z" transform="translate(-69.271 -61.673)" fill="#e0e0e0"/></g><g transform="translate(0.432 0.265)"><path d="M58.115,52.673a7.692,7.692,0,0,1,1.574,1.019c.937.677,2.213,1.637,3.59,2.738s2.59,2.146,3.443,2.927A7.38,7.38,0,0,1,68.032,60.7c-.085.1-2.287-1.72-5.036-3.915A49.873,49.873,0,0,1,58.115,52.673Z" transform="translate(-58.113 -52.669)" fill="#e0e0e0"/></g><g transform="translate(82.087 0.442)"><path d="M162.023,52.877a44.341,44.341,0,0,1-4.818,4.1,44.336,44.336,0,0,1-5.1,3.748,44.261,44.261,0,0,1,4.819-4.1A44.339,44.339,0,0,1,162.023,52.877Z" transform="translate(-152.104 -52.873)" fill="#e0e0e0"/></g><g transform="translate(81.723 55.354)"><g transform="translate(0.002 0.004)"><path d="M161.9,124.36l-10.21-8.275" transform="translate(-151.686 -116.085)" fill="#fff"/></g><path d="M151.686,116.084a47.829,47.829,0,0,1,5.247,3.962,48,48,0,0,1,4.963,4.313,47.831,47.831,0,0,1-5.248-3.962A48.1,48.1,0,0,1,151.686,116.084Z" transform="translate(-151.684 -116.081)" fill="#e0e0e0"/></g><g transform="translate(0.432 55.855)"><path d="M58.115,124.426a43.485,43.485,0,0,1,4.768-4.06,43.384,43.384,0,0,1,5.049-3.7,43.674,43.674,0,0,1-4.769,4.06A43.671,43.671,0,0,1,58.115,124.426Z" transform="translate(-58.113 -116.658)" fill="#e0e0e0"/></g><g transform="translate(24.918 23.088)"><rect width="15.898" height="45.138" transform="translate(0 15.898) rotate(-90)" fill="#e0e0e0"/></g></g><g transform="translate(44.868 413.543)"><path d="M378.641,469.166c0,.125-74.612.226-166.63.226-92.05,0-166.646-.1-166.646-.226s74.6-.226,166.646-.226C304.029,468.94,378.641,469.041,378.641,469.166Z" transform="translate(-45.365 -468.94)" fill="#263238"/></g><g transform="translate(53.131 193.001)"><g transform="translate(0 43.778)"><g transform="translate(255.338 144.834)"><path d="M348.789,432.889,370.3,464.161l7.687.181-14.1-32.156Z" transform="translate(-348.789 -432.185)" fill="#263238"/></g><g transform="translate(17.114 147.136)"><path d="M85.9,434.835l-11.33,29.532H80.24l19.788-29.4Z" transform="translate(-74.575 -434.835)" fill="#263238"/></g><g transform="translate(23.583 1.692)"><path d="M82.03,305.542l.831,38.212a10.1,10.1,0,0,0,9.873,9.879l213.879,4.761a10.1,10.1,0,0,0,10.325-10.1V302.26a27.2,27.2,0,0,0-23.484-26.954c-39.153-5.384-119.908-13.664-185.17-1.9A31.941,31.941,0,0,0,82.03,305.542Z" transform="translate(-82.022 -267.419)" fill="#e8505b"/></g><g transform="translate(0 48.815)"><path d="M77.506,326.013s-17.621-8.155-21.225,0,.4,18.167,4.4,23.773,3.94,74.487,3.94,74.487l267.208-2.856L335,355.157s12.815-15.782,12.014-22.589-11.613-16.711-24.028-6.554S307.369,357.4,307.369,357.4L94.325,359S95.03,329.17,77.506,326.013Z" transform="translate(-54.876 -321.66)" fill="#e8505b"/></g><g transform="translate(38.329 97.557)"><path d="M310.438,377.992c0,.125-47.337.227-105.716.227-58.4,0-105.726-.1-105.726-.227s47.326-.226,105.726-.226C263.1,377.766,310.438,377.868,310.438,377.992Z" transform="translate(-98.996 -377.766)" fill="#263238"/></g><g transform="translate(21.372 52.626)"><path d="M96.434,400.369a.726.726,0,0,1-.025-.209c-.007-.166-.016-.367-.026-.615-.021-.541-.038-1.34-.047-2.366-.005-2.1-.012-5.058-.022-8.7-.01-7.346.052-17.5-.282-28.7a122.352,122.352,0,0,0-1.222-15.71q-.233-.863-.46-1.7c-.218-.546-.429-1.089-.659-1.613-.459-1.049-.928-2.059-1.44-3a31.736,31.736,0,0,0-3.253-5,23.371,23.371,0,0,0-3.451-3.5,18.289,18.289,0,0,0-3.123-2.009,31.56,31.56,0,0,0-2.948-1.186.774.774,0,0,1,.207.039l.6.156a13.336,13.336,0,0,1,2.222.832,17.712,17.712,0,0,1,3.2,1.969,23.1,23.1,0,0,1,3.543,3.5,31.562,31.562,0,0,1,3.335,5.027c.525.95,1,1.966,1.474,3.022.235.528.45,1.073.674,1.625q.24.872.487,1.767a118.278,118.278,0,0,1,1.266,15.778c.335,11.214.222,21.367.151,28.714-.051,3.644-.093,6.607-.122,8.7q-.025,1.5-.039,2.366l-.017.615A.751.751,0,0,1,96.434,400.369Z" transform="translate(-79.477 -326.048)" fill="#263238"/></g><g transform="translate(18.207 68.096)"><path d="M78.173,344.306a1.282,1.282,0,0,1,.711-.221,2.947,2.947,0,0,1,1.96.546,2.99,2.99,0,0,1,.956,1.082,2.715,2.715,0,0,1,.255,1.652,3.233,3.233,0,0,1-2.5,2.664,3.3,3.3,0,0,1-3.3-1.574,2.89,2.89,0,0,1-.422-1.612,3.313,3.313,0,0,1,1.851-2.8,1.359,1.359,0,0,1,.721-.182c.01.039-.246.1-.639.337a3.294,3.294,0,0,0-1.261,1.4,2.685,2.685,0,0,0,.105,2.636,2.918,2.918,0,0,0,2.863,1.347,2.848,2.848,0,0,0,2.166-2.287,2.466,2.466,0,0,0-.988-2.408,2.963,2.963,0,0,0-1.763-.629C78.436,344.258,78.185,344.345,78.173,344.306Z" transform="translate(-75.833 -343.855)" fill="#263238"/></g><g transform="translate(19.302 74.113)"><path d="M79.549,362.362a4.148,4.148,0,0,1-1.208-1.425,8.522,8.522,0,0,1-.1-8.7,4.135,4.135,0,0,1,1.175-1.453c.058.047-.4.6-.892,1.6a9.129,9.129,0,0,0,.1,8.394C79.14,361.777,79.606,362.314,79.549,362.362Z" transform="translate(-77.094 -350.781)" fill="#263238"/></g><g transform="translate(18.146 59.901)"><path d="M76.581,334.423a8.43,8.43,0,0,1-.266,1.3,8.024,8.024,0,0,0,1.268,5.968c.455.665.821,1.023.771,1.078-.03.039-.48-.238-1.026-.885A7.014,7.014,0,0,1,76,335.65,2.68,2.68,0,0,1,76.581,334.423Z" transform="translate(-75.763 -334.422)" fill="#263238"/></g><g transform="translate(13.751 69.506)"><path d="M70.713,345.484c.1-.09.908.725,2.14,1.358,1.224.648,2.356.844,2.339.977a5.112,5.112,0,0,1-4.478-2.335Z" transform="translate(-70.704 -345.477)" fill="#263238"/></g><g transform="translate(8.767 126.721)"><path d="M334.192,411.563c0,.124-60.273.226-134.606.226-74.358,0-134.619-.1-134.619-.226s60.26-.227,134.619-.227C273.919,411.336,334.192,411.438,334.192,411.563Z" transform="translate(-64.967 -411.336)" fill="#263238"/></g><g transform="translate(248.616 84.769)"><path d="M341.279,363.046c.124,0,.226,9.436.226,21.075s-.1,21.077-.226,21.077-.227-9.435-.227-21.077S341.154,363.046,341.279,363.046Z" transform="translate(-341.052 -363.046)" fill="#263238"/></g><g transform="translate(29.63 11.86)"><path d="M218.962,279.139s-.14.018-.414.031l-1.215.045-4.67.131-17.18.4-56.681,1.14c-5.535.134-10.946.117-16.143.46a54.449,54.449,0,0,0-14.7,2.684,25.983,25.983,0,0,0-11.177,7.326,24.337,24.337,0,0,0-3.423,5.061,32.037,32.037,0,0,0-2.126,5.239,49.068,49.068,0,0,0-1.758,9.584c-.266,2.864-.3,5.347-.311,7.373s.036,3.6.059,4.669c.011.519.02.922.026,1.215,0,.274-.007.414-.007.414s-.021-.139-.039-.413c-.017-.292-.041-.7-.071-1.213-.053-1.067-.125-2.642-.143-4.672s-.009-4.517.235-7.395a48.757,48.757,0,0,1,1.7-9.654,32.268,32.268,0,0,1,2.122-5.307,24.573,24.573,0,0,1,3.451-5.148,26.31,26.31,0,0,1,11.319-7.472,54.643,54.643,0,0,1,14.811-2.733c5.224-.351,10.631-.336,16.165-.47l56.684-1.008,17.182-.254,4.672-.046h1.215C218.821,279.126,218.962,279.139,218.962,279.139Z" transform="translate(-88.983 -279.123)" fill="#263238"/></g><g transform="translate(88.549 41.356)"><path d="M159.461,313.353c.016.039-.288.147-.736.483a3.989,3.989,0,0,0-1.347,1.881,3.375,3.375,0,0,0,.483,3.229,3.521,3.521,0,0,0,6.351-1.513,3.376,3.376,0,0,0-1.026-3.1,3.984,3.984,0,0,0-2.05-1.071c-.551-.1-.871-.057-.875-.1a1.818,1.818,0,0,1,.9-.076,3.919,3.919,0,0,1,2.245,1.012,3.966,3.966,0,0,1,1.011,1.413,3.573,3.573,0,0,1,.205,2,3.916,3.916,0,0,1-7.092,1.69,3.576,3.576,0,0,1-.716-1.873,3.962,3.962,0,0,1,.264-1.718,3.922,3.922,0,0,1,1.547-1.916A1.824,1.824,0,0,1,159.461,313.353Z" transform="translate(-156.803 -313.075)" fill="#263238"/></g><g transform="translate(86.6 49.185)"><path d="M155.505,337.046a10.685,10.685,0,0,1-.66-2.569,14.891,14.891,0,0,1,.136-6.411,8.789,8.789,0,0,1,3.745-5.161,5.863,5.863,0,0,1,1.819-.738,1.812,1.812,0,0,1,.715-.067,10.761,10.761,0,0,0-2.362,1.074,8.96,8.96,0,0,0-3.48,5.012,16.251,16.251,0,0,0-.256,6.243C155.369,336.039,155.575,337.03,155.505,337.046Z" transform="translate(-154.559 -322.087)" fill="#263238"/></g><g transform="translate(88.079 28.213)"><path d="M158.892,297.949a20.6,20.6,0,0,0-1.28,1.916,7.608,7.608,0,0,0,2.236,9.8,20.243,20.243,0,0,0,1.985,1.17,1.534,1.534,0,0,1-.621-.135,6.534,6.534,0,0,1-1.549-.775,7.559,7.559,0,0,1-2.332-10.215,6.55,6.55,0,0,1,1.06-1.37C158.687,298.056,158.874,297.929,158.892,297.949Z" transform="translate(-156.261 -297.947)" fill="#263238"/></g><g transform="translate(80.804 45.524)"><path d="M157,317.955a44.2,44.2,0,0,0-4.712,1.061,44.036,44.036,0,0,0-4.4,2A12.651,12.651,0,0,1,157,317.955Z" transform="translate(-147.887 -317.872)" fill="#263238"/></g><g transform="translate(61.844 87.607)" opacity="0.3"><path d="M126.063,377.281a43.63,43.63,0,0,0,29.527,8.9L149,416.825c-.586,2.725-1.128,5.755.3,8.152,2,3.359,6.642,3.695,10.55,3.641,4.351-.06,8.886-.164,12.743-2.179,5.465-2.854,8.4-8.9,10.519-14.685s3.949-11.986,8.313-16.343a33.911,33.911,0,0,0,19.241,10.959c2.176.4,4.637.52,6.382-.842a6.075,6.075,0,0,0,1.789-5.994,17.872,17.872,0,0,0-2.845-5.9L203.28,373.91c-1.72-2.669-3.6-5.479-6.511-6.752-2.281-1-4.873-.9-7.358-.754a339.182,339.182,0,0,0-61.569,9.31" transform="translate(-126.063 -366.313)"/></g><g transform="translate(43.852)" opacity="0.3"><path d="M191.295,266.28c-5.143,13.586-24.344,16.7-31.087,29.57-6.667,12.723,1.6,29.574-5.27,42.19-2.544,4.672-6.91,8.158-9.395,12.862-1.672,3.167-2.536,6.93-5.234,9.284-3.145,2.744-8.016,2.69-11.794.917s-6.687-4.951-9.377-8.141c-5.041-5.979-9.776-12.441-12.131-19.9-4.054-12.837-.339-27.349,7.8-38.075s20.216-17.956,32.961-22.287,26.232-5.974,39.635-7.23" transform="translate(-105.354 -265.471)"/></g></g><g transform="translate(34.073)"><g transform="translate(33.95)"><path d="M133.176,223.935a21.168,21.168,0,0,1,7.791-7.224,13.842,13.842,0,0,1,10.414-1.046,10.342,10.342,0,0,1,6.971,7.507c.55,2.783-.191,5.9,1.247,8.342,1.655,2.816,5.643,3.707,7.042,6.657a6.437,6.437,0,0,1-.42,5.673,17.612,17.612,0,0,1-3.816,4.461,9.478,9.478,0,0,1,2.38,2.141,3.259,3.259,0,0,1,.506,3.041,4.455,4.455,0,0,1-2.575,2.084,25.718,25.718,0,0,1-15.371,1.444c-1.372-.3-2.942-.671-4.072.162" transform="translate(-133.176 -215.079)" fill="#263238"/></g><g transform="translate(59.355 13.411)"><path d="M171.795,236.267l-2.81,8.512,19,10.778-19.1.618,1.428,15.486,36.786-9.03s2.207-15-35.3-26.364l-2.638-.62a2.991,2.991,0,0,1-2.1-1.82h0a3.218,3.218,0,0,0-1.5-1.675l-3.134-1.635.022,2.486,1.722,2.025-.275,4.805a4.347,4.347,0,0,0,3.338,4.531l1.759.415" transform="translate(-162.419 -230.517)" fill="#b78876"/></g><g transform="translate(2.92 38.564)"><path d="M121.66,270.824c-.751,0-7.768,1.7-11.776,6.813s-12.426,32.954-12.426,32.954l14.784,2.555,8.98,7.331s37.744-4.947,35.739-6.934a75.745,75.745,0,0,0-6.127-5.054l8.7-28.935,10.446-5.629-3.513-14.458-21,2.839Z" transform="translate(-97.458 -259.469)" fill="#fafafa"/><g transform="translate(7.728 26.533)"><path d="M158.918,290.236c0,.125-11.768.227-26.282.227s-26.283-.1-26.283-.227,11.766-.226,26.283-.226S158.918,290.111,158.918,290.236Z" transform="translate(-106.353 -290.01)" fill="#e8505b"/></g><g transform="translate(5.372 35.039)"><path d="M156.207,300.027c0,.125-11.768.226-26.282.226s-26.283-.1-26.283-.226,11.766-.226,26.283-.226S156.207,299.9,156.207,300.027Z" transform="translate(-103.642 -299.801)" fill="#e8505b"/></g><g transform="translate(18.123 44.224)"><path d="M158.133,310.6c0,.125-8.913.226-19.906.226s-19.908-.1-19.908-.226,8.912-.227,19.908-.227S158.133,310.476,158.133,310.6Z" transform="translate(-118.319 -310.374)" fill="#e8505b"/></g><g transform="translate(21.178 53.07)"><path d="M161.649,320.783c0,.125-8.913.226-19.906.226s-19.908-.1-19.908-.226,8.911-.226,19.908-.226S161.649,320.658,161.649,320.783Z" transform="translate(-121.836 -320.557)" fill="#e8505b"/></g><g transform="translate(44.116 15.095)"><path d="M174.538,277.07c0,.125-5.888.227-13.149.227s-13.15-.1-13.15-.227,5.887-.226,13.15-.226S174.538,276.946,174.538,277.07Z" transform="translate(-148.239 -276.844)" fill="#e8505b"/></g><g transform="translate(45.165 6.227)"><path d="M175.653,266.711c0,.125-5.861.363-13.1.533s-13.106.205-13.109.08,5.861-.363,13.1-.533S175.649,266.586,175.653,266.711Z" transform="translate(-149.446 -266.636)" fill="#e8505b"/></g><g transform="translate(17.178 31.175)"><path d="M120.51,295.354a58.3,58.3,0,0,1-1.412,7.106,58.241,58.241,0,0,1-1.852,7,58.161,58.161,0,0,1,1.412-7.107A58.061,58.061,0,0,1,120.51,295.354Z" transform="translate(-117.231 -295.354)" fill="#263238"/></g></g><g transform="translate(49.954 178.207)"><g transform="translate(3.509)"><path d="M166.638,420.209l-11,34.693,13.263,1.331,12.457-30.139Z" transform="translate(-155.636 -420.209)" fill="#b78876"/></g><g transform="translate(0 16.914)"><path d="M175.812,445.292l-6.318,15.664s13.8,11.683,12.915,14.692L151.6,464.489l8.841-24.811Z" transform="translate(-151.597 -439.678)" fill="#455a64"/><g transform="translate(7.455 16.483)"><path d="M161.577,458.661a1.338,1.338,0,0,0-1.39,1.121,1.286,1.286,0,0,0,1.1,1.387,1.412,1.412,0,0,0,1.466-1.195c.006-.658-.652-1.411-1.3-1.316" transform="translate(-160.179 -458.651)" fill="#e0e0e0"/></g><g transform="translate(0 22.345)"><path d="M151.6,467.865l.989-2.466,29.173,11.62s1.155,1.094.651,2Z" transform="translate(-151.597 -465.399)" fill="#e0e0e0"/></g><g transform="translate(15.028 20.85)"><path d="M172.32,464.131c-.059.149-.836-.056-1.751.16-.922.192-1.539.705-1.656.6-.129-.079.422-.9,1.535-1.14S172.4,464,172.32,464.131Z" transform="translate(-168.895 -463.678)" fill="#263238"/></g><g transform="translate(18.373 23.622)"><path d="M175.574,467.057c-.018.158-.763.178-1.5.629-.755.43-1.133,1.071-1.281,1.01-.149-.028.065-.946,1-1.49S175.622,466.911,175.574,467.057Z" transform="translate(-172.746 -466.868)" fill="#263238"/></g><g transform="translate(21.57 26.14)"><path d="M176.492,471.969c-.149-.017-.086-.845.6-1.529s1.506-.757,1.525-.608c.041.154-.576.431-1.13,1S176.647,472.009,176.492,471.969Z" transform="translate(-176.426 -469.767)" fill="#263238"/></g><g transform="translate(16.233 16.317)"><path d="M173.547,459.716c-.113.115-.728-.343-1.6-.593-.866-.268-1.632-.222-1.663-.38-.048-.141.8-.463,1.822-.154S173.663,459.625,173.547,459.716Z" transform="translate(-170.283 -458.46)" fill="#263238"/></g><g transform="translate(16.634 10.441)"><path d="M174.824,455.645a3.065,3.065,0,0,1-1.54-.566A7.423,7.423,0,0,1,171.848,454a7.681,7.681,0,0,1-.716-.791,2.01,2.01,0,0,1-.334-.532.7.7,0,0,1,.221-.825.881.881,0,0,1,.784-.105,2.146,2.146,0,0,1,.549.289,5.859,5.859,0,0,1,.84.677,5.776,5.776,0,0,1,1.085,1.449,2.74,2.74,0,0,1,.453,1.582c-.086.025-.263-.572-.793-1.382a6.522,6.522,0,0,0-1.1-1.274,6.094,6.094,0,0,0-.787-.594c-.3-.2-.572-.307-.708-.192-.05.045-.063.065-.029.185a1.646,1.646,0,0,0,.247.389,8.516,8.516,0,0,0,.646.761,9.082,9.082,0,0,0,1.285,1.112A11.506,11.506,0,0,1,174.824,455.645Z" transform="translate(-170.744 -451.697)" fill="#263238"/></g><g transform="translate(20.371 10.031)"><path d="M175.114,455.728a2.613,2.613,0,0,1,.133-1.638,5.318,5.318,0,0,1,1.555-2.408,1.353,1.353,0,0,1,1.266-.422.766.766,0,0,1,.489.664,2.225,2.225,0,0,1-.047.623,3.6,3.6,0,0,1-.375,1.039,3.773,3.773,0,0,1-1.236,1.356c-.891.58-1.584.533-1.579.477a13.441,13.441,0,0,0,1.346-.795,3.771,3.771,0,0,0,1.013-1.273,3.366,3.366,0,0,0,.294-.9c.071-.345.043-.653-.091-.664a.937.937,0,0,0-.723.309,5.514,5.514,0,0,0-.685.7,5.917,5.917,0,0,0-.857,1.432C175.247,455.113,175.2,455.735,175.114,455.728Z" transform="translate(-175.045 -451.224)" fill="#263238"/></g></g></g><g transform="translate(106.207 136.5)"><path d="M216.349,381.251l16.418,28.537,13.431-8.616L229.71,372.2Z" transform="translate(-216.349 -372.201)" fill="#b78876"/><g transform="translate(11.343 20.817)"><path d="M243.278,396.163l8.481,14.606s17.7-3.714,19.525-1.168l-27.731,17.461L229.4,404.845Z" transform="translate(-229.405 -396.163)" fill="#455a64"/><g transform="translate(12.696 18.419)"><path d="M244.345,417.75a1.338,1.338,0,0,0,.031,1.785,1.286,1.286,0,0,0,1.77-.015,1.411,1.411,0,0,0-.043-1.89,1.335,1.335,0,0,0-1.839.22" transform="translate(-244.019 -417.365)" fill="#e0e0e0"/></g><g transform="translate(12.81 12.695)"><path d="M245.488,428.981l-1.338-2.3L271.239,410.8s1.573-.241,1.981.717Z" transform="translate(-244.15 -410.776)" fill="#e0e0e0"/></g><g transform="translate(20.992 14.152)"><path d="M255.291,412.483c.081.139-.558.626-.95,1.481-.415.844-.389,1.647-.547,1.672-.142.052-.449-.884.043-1.911S255.242,412.341,255.291,412.483Z" transform="translate(-253.568 -412.453)" fill="#263238"/></g><g transform="translate(25.378 13.537)"><path d="M259.62,411.762c.114.112-.328.712-.427,1.573-.124.86.149,1.552.011,1.631-.114.1-.707-.632-.564-1.7S259.535,411.635,259.62,411.762Z" transform="translate(-258.617 -411.745)" fill="#263238"/></g><g transform="translate(29.364 12.999)"><path d="M264.066,414.122c-.105.106-.72-.452-.839-1.412s.328-1.655.457-1.579c.147.063-.014.72.1,1.507C263.871,413.429,264.192,414.024,264.066,414.122Z" transform="translate(-263.205 -411.126)" fill="#263238"/></g><g transform="translate(17.606 10.979)"><path d="M252.477,408.89c.021.16-.718.364-1.451.9s-1.177,1.151-1.32,1.08c-.14-.049.126-.917,1-1.533S252.477,408.742,252.477,408.89Z" transform="translate(-249.67 -408.8)" fill="#263238"/></g><g transform="translate(13.312 7.582)"><path d="M250.063,405.462c.036.055-.446.475-1.393.867a7.333,7.333,0,0,1-1.734.468,7.693,7.693,0,0,1-1.064.079,2,2,0,0,1-.625-.063.7.7,0,0,1-.516-.681.881.881,0,0,1,.4-.684,2.142,2.142,0,0,1,.566-.255,5.786,5.786,0,0,1,2.86-.214,2.738,2.738,0,0,1,1.526.614c-.033.083-.613-.143-1.578-.223a6.561,6.561,0,0,0-1.678.082,6.176,6.176,0,0,0-.953.256c-.342.108-.593.263-.586.441,0,.067.013.089.129.136a1.663,1.663,0,0,0,.459.044,8.435,8.435,0,0,0,1-.043,9.051,9.051,0,0,0,1.667-.331A11.224,11.224,0,0,1,250.063,405.462Z" transform="translate(-244.728 -404.891)" fill="#263238"/></g><g transform="translate(16.432 3.272)"><path d="M250.481,405.116c-.035.051-.609-.265-1.211-1.111a5.308,5.308,0,0,1-.945-2.705,1.354,1.354,0,0,1,.445-1.259.765.765,0,0,1,.824.022,2.2,2.2,0,0,1,.463.42,3.616,3.616,0,0,1,.59.935,3.776,3.776,0,0,1,.31,1.808c-.089,1.06-.553,1.578-.592,1.539a13.651,13.651,0,0,0,.2-1.55,3.789,3.789,0,0,0-.382-1.581,3.4,3.4,0,0,0-.531-.787c-.229-.267-.489-.435-.58-.335a.935.935,0,0,0-.2.76,5.361,5.361,0,0,0,.13.97,5.909,5.909,0,0,0,.6,1.556C250.077,404.632,250.541,405.049,250.481,405.116Z" transform="translate(-248.32 -399.929)" fill="#263238"/></g></g></g><g transform="translate(22.48 92.638)"><g transform="translate(0 2.875)"><path d="M154.828,371.035l32.241-21.925,20.337,39.59L225.9,378.693s-21.3-51.929-28.942-53.6c-4.284-.94-53.4,8.442-53.4,8.442l-5.488-2.759-13.894-1.69-.887,2.247a47.413,47.413,0,0,0,1.543,38.331l.676,1.376Z" transform="translate(-119.973 -325.022)" fill="#263238"/></g><g transform="translate(19.684)"><path d="M146.482,343.18c.241,1.087,26.893,26.043,26.893,26.043L158,420.9l22.952,4.391,23.047-62.257L161.87,321.713l-19.239,8.1Z" transform="translate(-142.631 -321.713)" fill="#263238"/></g><g transform="translate(34.855 26.961)"><path d="M192.335,352.749c.07.1-7.091,5.1-15.993,11.149s-16.178,10.879-16.248,10.776,7.09-5.094,15.994-11.15S192.265,352.645,192.335,352.749Z" transform="translate(-160.093 -352.747)" fill="#455a64"/></g><g transform="translate(67.093 26.962)"><path d="M213.754,384.965a8.577,8.577,0,0,1-.778-1.195c-.481-.782-1.142-1.933-1.949-3.36-1.6-2.861-3.742-6.856-6-11.318s-4.25-8.534-5.651-11.5c-.7-1.482-1.257-2.686-1.63-3.524a8.236,8.236,0,0,1-.537-1.321,8.882,8.882,0,0,1,.7,1.245l1.759,3.46,5.767,11.433c2.262,4.458,4.352,8.473,5.882,11.37l1.821,3.426A8.57,8.57,0,0,1,213.754,384.965Z" transform="translate(-197.203 -352.749)" fill="#455a64"/></g><g transform="translate(49.901 38.283)"><path d="M182.76,365.781a40.758,40.758,0,0,1-2.466,5.537,40.878,40.878,0,0,1-2.873,5.339,81.134,81.134,0,0,1,5.339-10.877Z" transform="translate(-177.413 -365.78)" fill="#455a64"/></g></g><g transform="translate(0 80.999)"><path d="M99.623,308.315l-5.18,19.252a10.1,10.1,0,0,0,.861,7.413h0a10.1,10.1,0,0,0,11.169,5.051l41.308-10.177-4.319-8.578L110.921,324.1l3.485-13.229Z" transform="translate(-94.097 -308.315)" fill="#b78876"/></g><g transform="translate(23.851 63.934)"><path d="M121.551,334.961l.539-2.8,22.385-4.022,6.5-34.515,41.58-4.953-6.987,36.845Z" transform="translate(-121.551 -288.672)" fill="#455a64"/><g transform="translate(46.516 18.954)"><path d="M176.678,315.074a2.341,2.341,0,1,1,2.412-1.9A2.181,2.181,0,0,1,176.678,315.074Z" transform="translate(-175.094 -310.49)" fill="#ebebeb"/></g></g><g transform="translate(12.581 5.213)"><g transform="translate(17.352 4.104)"><path d="M128.553,227.727l.079,2.5.936,37.363a8.016,8.016,0,0,0,8.568,7.547h0c4.69-.154,8.457-3.829,8.42-8.212-.04-4.6,0-9.445,0-9.445s5.915-1.053,7.053-8.8c.566-3.853.3-10.156-.086-15.307a8.166,8.166,0,0,0-9.1-7.508Z" transform="translate(-128.553 -225.804)" fill="#b78876"/><g transform="translate(7.618 29.029)"><path d="M147.711,261.861a19.678,19.678,0,0,1-10.389-2.643s2.574,5.283,10.305,4.47Z" transform="translate(-137.322 -259.218)" fill="#aa6550"/></g></g><path d="M134.876,222.067a9.738,9.738,0,0,1-1.4,12.149c-1.849,1.722-4.6,3.064-4.788,5.584-.208,2.79,3.024,4.877,3.028,7.675.005,2.877-3.314,4.71-3.96,7.514-.52,2.256.829,4.519,2.392,6.228s3.443,3.225,4.381,5.343a9.445,9.445,0,0,1-.264,7.441,23.447,23.447,0,0,1-4.366,6.252,29.143,29.143,0,0,0-7.159-1.593q.231-1.384.46-2.768a2.554,2.554,0,0,1-1.868,2.348,6.832,6.832,0,0,1-3.193.04,51.831,51.831,0,0,1-9.559-2.458,17.114,17.114,0,0,0,3.492-4.364,5.8,5.8,0,0,0,.1-5.389c-.763-1.3-2.17-2.133-2.872-3.464-1.054-2-.186-4.536,1.311-6.225s3.523-2.8,5.3-4.19,3.414-3.268,3.558-5.522c.187-2.923-2.178-5.587-1.889-8.5.33-3.32,3.841-5.349,5.219-8.387,1-2.2.864-4.911,2.394-6.778a5.826,5.826,0,0,1,4.8-1.912,10.809,10.809,0,0,1,5.007,1.76" transform="translate(-108.579 -221.08)" fill="#263238"/><g transform="translate(34.924 27.721)"><path d="M149.861,261.874c-1.4.771-1.316,2.892-.466,4.242s2.219,2.313,3.059,3.67a6,6,0,0,1-1.413,7.657l3.338,1.262.728-.412,2.049-1.159-.962,2.366h2.136a6.1,6.1,0,0,0,5.017-9.681c-.879-1.216-2.243-2.184-2.538-3.655-.357-1.773.982-3.382,1.638-5.067a7.165,7.165,0,0,0-2.331-8.109" transform="translate(-148.779 -252.989)" fill="#263238"/></g></g></g></g><g transform="translate(41.578 146.802)"><g transform="translate(20.809 14.307)"><g transform="translate(0 3.293)"><path d="M73.1,182.274a1.163,1.163,0,0,1,.659,1.049v5.785a1.161,1.161,0,0,1-1.477,1.118,3.61,3.61,0,0,0-2.833.434,3.248,3.248,0,0,0-1.544,2.064,3.32,3.32,0,0,0,.591,2.527,3.705,3.705,0,0,0,2.387,1.582,4.352,4.352,0,0,0,4.551-2.943,1.162,1.162,0,0,1,2.214.705,6.7,6.7,0,0,1-7.131,4.533,6,6,0,0,1-3.934-2.557,5.656,5.656,0,0,1-.954-4.32,5.575,5.575,0,0,1,2.613-3.578,6.08,6.08,0,0,1,3.193-.892v-4.459a1.163,1.163,0,0,1,1.665-1.048Z" transform="translate(-65.53 -182.16)" fill="#e8505b"/></g><g transform="translate(5.974)"><path d="M72.407,179.344a.95.95,0,1,1,.975.926A.95.95,0,0,1,72.407,179.344Z" transform="translate(-72.407 -178.37)" fill="#e8505b"/></g></g><g transform="translate(52.024 46.225)"><path d="M104.564,215.146c0,.027-.288.044-.764.239a3.529,3.529,0,0,0-1.612,1.383,3.366,3.366,0,0,0-.5,1.379,2.924,2.924,0,0,0,.291,1.633,3.194,3.194,0,0,0,5.98-.354,2.927,2.927,0,0,0,.1-1.657,3.356,3.356,0,0,0-.658-1.31,3.533,3.533,0,0,0-1.764-1.182c-.5-.137-.789-.12-.787-.147a.648.648,0,0,1,.21-.017,1.3,1.3,0,0,1,.255.013,1.989,1.989,0,0,1,.345.057,3.584,3.584,0,0,1,2.6,2.537,3.112,3.112,0,0,1-.079,1.781,3.64,3.64,0,0,1-1.117,1.62,3.217,3.217,0,0,1-3.986.236,3.632,3.632,0,0,1-1.3-1.477,3.11,3.11,0,0,1-.29-1.759,3.587,3.587,0,0,1,2.28-2.826,2.024,2.024,0,0,1,.337-.1,1.308,1.308,0,0,1,.252-.043A.681.681,0,0,1,104.564,215.146Z" transform="translate(-101.461 -215.11)" fill="#263238"/></g><g transform="translate(61.586 54.632)"><path d="M114.461,224.818c0,.023-.181.041-.475.168a2.23,2.23,0,0,0-.994.871,1.884,1.884,0,0,0-.119,1.86,1.971,1.971,0,0,0,3.686-.219,1.883,1.883,0,0,0-.338-1.832,2.236,2.236,0,0,0-1.09-.748c-.308-.091-.492-.087-.491-.11a1.046,1.046,0,0,1,.515.017,2.2,2.2,0,0,1,1.2.729,2.229,2.229,0,0,1,.467.876,2,2,0,0,1-.048,1.144,2.189,2.189,0,0,1-4.109.244,2,2,0,0,1-.182-1.13,2.267,2.267,0,0,1,1.466-1.791A1.057,1.057,0,0,1,114.461,224.818Z" transform="translate(-112.468 -224.787)" fill="#263238"/></g><path d="M95.3,190.94s0-.148,0-.436.013-.72.023-1.277c.006-.281.012-.594.02-.94-.009-.346-.052-.723-.08-1.132s-.067-.85-.1-1.32a4.653,4.653,0,0,0-.1-.724q-.066-.371-.137-.764a25.55,25.55,0,0,0-2.4-7.341,26.693,26.693,0,0,0-6.192-8.1l-1.086-.95c-.384-.3-.792-.574-1.194-.868l-.61-.437a5.1,5.1,0,0,0-.632-.417l-1.333-.773c-.225-.129-.447-.264-.678-.388l-.718-.328-1.459-.665c-.5-.208-1.021-.359-1.538-.544l-.783-.267c-.132-.043-.261-.094-.4-.13l-.407-.095a24.684,24.684,0,0,0-3.34-.654c-.573-.065-1.148-.167-1.732-.2l-1.771-.047c-.3,0-.6-.028-.9-.012l-.9.068c-.6.051-1.21.074-1.817.15a28.365,28.365,0,0,0-3.636.765l-.91.255c-.151.043-.3.082-.455.131l-.444.173-1.786.7c-.587.261-1.155.575-1.738.862-.286.153-.589.28-.864.456l-.831.526a29.952,29.952,0,0,0-3.223,2.333l-1.472,1.387-.37.348c-.116.123-.224.254-.338.381l-.673.768-.677.772-.606.835-.6.841-.3.421c-.092.147-.175.3-.264.448L44.8,176.553l-.877,1.916a26.487,26.487,0,0,0-1.314,16.816l.568,2.03.759,1.95.19.484.235.464.467.924.468.919.549.868.546.864.275.429.311.4q.623.8,1.239,1.6a30.072,30.072,0,0,0,2.823,2.805l.738.649c.245.217.525.389.784.585.532.374,1.043.771,1.583,1.121l1.658.965.411.24c.141.072.287.134.43.2l.859.394a28.406,28.406,0,0,0,3.473,1.32c.587.169,1.185.286,1.771.43l.879.206c.293.063.592.083.886.128l1.757.228c.583.055,1.167.043,1.743.069a24.774,24.774,0,0,0,3.4-.129l.417-.03c.138-.016.275-.045.411-.068l.815-.142c.539-.1,1.081-.169,1.6-.3l1.544-.431.76-.211.731-.28,1.436-.557a5.258,5.258,0,0,0,.69-.314l.67-.338c.442-.228.888-.437,1.314-.672l1.221-.77a26.7,26.7,0,0,0,7.372-7.045c.22-.308.443-.6.649-.906l.542-.927.522-.892c.083-.147.175-.287.248-.435l.206-.446.777-1.688c.232-.543.387-1.085.571-1.585l.254-.734a4.538,4.538,0,0,0,.208-.7q.164-.688.307-1.287c.09-.4.192-.765.255-1.105q.069-.515.126-.932.115-.827.175-1.265c.041-.285.069-.431.069-.431s-.01.147-.043.434l-.151,1.269q-.051.42-.115.936c-.058.341-.156.709-.243,1.111s-.191.832-.3,1.294a4.618,4.618,0,0,1-.2.7q-.12.358-.249.738c-.18.5-.332,1.049-.562,1.6l-.771,1.7c-.067.149-.136.3-.2.449s-.164.291-.247.439l-.52.9-.54.934c-.205.3-.428.6-.648.913a26.752,26.752,0,0,1-7.39,7.112l-1.227.778c-.427.237-.876.45-1.321.68l-.674.341a5.322,5.322,0,0,1-.693.318l-1.445.565c-.244.093-.487.194-.735.283l-.766.215-1.554.437c-.526.132-1.072.2-1.615.3l-.821.145c-.137.023-.275.052-.414.069l-.42.032A25.165,25.165,0,0,1,68,215.77c-.58-.024-1.169-.012-1.757-.066l-1.772-.227c-.3-.043-.6-.065-.894-.127l-.886-.206c-.591-.145-1.194-.262-1.786-.433a28.319,28.319,0,0,1-3.5-1.326l-.867-.4c-.144-.068-.292-.129-.434-.2l-.415-.241-1.672-.972c-.545-.352-1.062-.751-1.6-1.129-.261-.2-.544-.371-.791-.59l-.746-.653a30.391,30.391,0,0,1-2.85-2.829l-1.251-1.611-.314-.406-.277-.433-.553-.872-.554-.876-.473-.927-.472-.932-.237-.468-.193-.488-.766-1.969q-.287-1.02-.575-2.049a26.708,26.708,0,0,1,1.326-16.972l.886-1.935q.533-.916,1.062-1.825c.089-.15.174-.3.268-.452l.306-.426.611-.848.612-.842.683-.779.681-.775c.114-.129.224-.26.341-.385l.374-.351,1.486-1.4a30.251,30.251,0,0,1,3.254-2.351l.838-.53c.278-.178.584-.3.872-.46.589-.289,1.162-.6,1.754-.867l1.8-.7.447-.173c.152-.05.307-.089.46-.133l.917-.256a28.542,28.542,0,0,1,3.668-.766c.612-.076,1.225-.1,1.831-.149l.907-.066c.3-.016.6.01.9.013l1.785.05c.589.038,1.168.141,1.746.208a25.069,25.069,0,0,1,3.366.665l.41.1c.135.037.266.089.4.132l.789.27c.52.188,1.049.341,1.548.552l1.467.672.723.332c.232.126.456.263.683.394l1.34.782a5.235,5.235,0,0,1,.636.421l.612.442c.4.3.814.576,1.2.877l1.09.959a26.738,26.738,0,0,1,6.2,8.172,25.477,25.477,0,0,1,2.375,7.386l.132.768a4.673,4.673,0,0,1,.091.727q.05.708.092,1.325c.024.41.063.789.068,1.135q-.017.52-.031.943-.031.835-.048,1.278C95.313,190.793,95.3,190.94,95.3,190.94Z" transform="translate(-41.578 -161.901)" fill="#263238"/></g><g transform="translate(211.471 46.857)"><g transform="translate(0.544 0.226)"><rect width="179.35" height="272.256" fill="#fff"/></g><g transform="translate(0.172 14.094)"><rect width="179.404" height="117.169" fill="#f5f5f5"/></g><g transform="translate(115.996 254.922)"><path d="M370.657,340.291" transform="translate(-370.657 -340.291)" fill="none" stroke="#4e585d" stroke-miterlimit="10" stroke-width="1"/></g><g transform="translate(23.848 169.942)"><path d="M401.871,242.7c0,.125-30.734.227-68.638.227s-68.645-.1-68.645-.227,30.728-.226,68.645-.226S401.871,242.574,401.871,242.7Z" transform="translate(-264.588 -242.473)"/></g><g transform="translate(53.149 177.278)"><path d="M377,251.143c0,.125-17.615.226-39.339.226s-39.343-.1-39.343-.226,17.611-.226,39.343-.226S377,251.018,377,251.143Z" transform="translate(-298.315 -250.917)"/></g><g transform="translate(45.238 45.698)"><g transform="translate(8.972)"><g transform="translate(0.701 2.374)"><g transform="translate(0.256 0.188)"><path d="M364.894,138.619a20.917,20.917,0,1,0-32.455-4.963l-4.255,3.971,1.016,7.064-6.6-1.851-5.325,4.968,1.016,7.064-6.6-1.851-4.577,4.27.62,4.306-4.025-1.128-2.664,2.485-.4,6.543,9.758,2.456,31.662-29.539A20.923,20.923,0,0,0,364.894,138.619ZM361.8,112.9a6,6,0,1,1-8.481-.294A6,6,0,0,1,361.8,112.9Z" transform="translate(-300.638 -102.408)" fill="#263238"/></g><g transform="translate(0.256 0.188)"><path d="M364.894,138.619a20.917,20.917,0,1,0-32.455-4.963l-4.255,3.971,1.016,7.064-6.6-1.851-5.325,4.968,1.016,7.064-6.6-1.851-4.577,4.27.62,4.306-4.025-1.128-2.664,2.485-.4,6.543,9.758,2.456,31.662-29.539A20.923,20.923,0,0,0,364.894,138.619ZM361.8,112.9a6,6,0,1,1-8.481-.294A6,6,0,0,1,361.8,112.9Z" transform="translate(-300.638 -102.408)" fill="none"/></g><g transform="translate(50.782 8.601)"><path d="M369.435,114.168c-.038.04-.393-.365-1.192-.857a5.979,5.979,0,0,0-3.776-.829,5.774,5.774,0,1,0,6.307,6.759,5.993,5.993,0,0,0-.566-3.824c-.436-.831-.816-1.213-.773-1.248.013-.012.111.076.287.26a4.606,4.606,0,0,1,.664.89,5.971,5.971,0,0,1,.752,3.984,6.186,6.186,0,0,1-7.252,5.1,6.2,6.2,0,0,1-5.045-5.408,6.188,6.188,0,0,1,5.59-6.88,5.973,5.973,0,0,1,3.923,1.025,4.617,4.617,0,0,1,.843.725C369.366,114.053,369.448,114.156,369.435,114.168Z" transform="translate(-358.796 -112.092)" fill="#263238"/></g><path d="M364.855,138.59s-.1.1-.3.289l-.922.821a21.886,21.886,0,0,1-4.048,2.573,21.055,21.055,0,0,1-17.63.254l.172-.029-31.609,29.6-.093.087-.125-.031-9.76-2.446-.2-.05.012-.2c.122-2.04.257-4.277.394-6.543l.006-.1.073-.069,2.663-2.487.1-.1.136.038,4.026,1.126-.321.281c-.195-1.345-.407-2.82-.622-4.3l-.019-.133.1-.092,4.576-4.271.106-.1.14.04,6.605,1.849-.328.288c-.322-2.24-.668-4.643-1.017-7.064l-.019-.136.1-.093,1.411-1.317,3.914-3.65.108-.1.141.039,6.6,1.852-.328.287q-.512-3.568-1.015-7.064l-.019-.134.1-.091,4.257-3.968-.048.313a21.346,21.346,0,0,1-2.719-9.523,20.3,20.3,0,0,1,.347-4.84,20.579,20.579,0,0,1,1.393-4.55,21.072,21.072,0,0,1,40.345,10.1A20.669,20.669,0,0,1,369.2,133l-.389.745-.43.664c-.284.423-.521.838-.793,1.187-.565.68-1,1.291-1.424,1.716l-.967.966c-.219.215-.339.315-.339.315s.1-.123.306-.349l.931-.993c.414-.434.833-1.051,1.383-1.735.264-.35.493-.766.77-1.19l.418-.664.376-.744a20.942,20.942,0,0,0,.152-18.8,20.723,20.723,0,0,0-37.548.923,20.066,20.066,0,0,0-1.353,4.446,19.807,19.807,0,0,0-.332,4.727,20.854,20.854,0,0,0,2.664,9.293l.1.176-.146.136-4.254,3.972.08-.225q.5,3.495,1.018,7.064l.057.4-.385-.108-6.6-1.85.248-.06-3.913,3.651-1.412,1.316.08-.228c.348,2.421.694,4.825,1.016,7.064l.056.4-.385-.108-6.6-1.853.246-.06-4.578,4.268.079-.224c.213,1.486.424,2.962.617,4.306l.056.387-.375-.106-4.025-1.13.24-.058-2.665,2.483.079-.167-.4,6.542-.184-.252,9.755,2.465-.217.056,31.714-29.483.077-.071.1.043a20.965,20.965,0,0,0,17.428-.118,23.008,23.008,0,0,0,4.067-2.488l.946-.786C364.738,138.672,364.855,138.59,364.855,138.59Z" transform="translate(-300.343 -102.192)" fill="#263238"/></g><g transform="translate(0.256 0.188)"><path d="M364.087,135.886a20.917,20.917,0,1,0-32.454-4.963l-.006.005-4.25,3.965,1.016,7.064-6.6-1.85-5.325,4.968,1.016,7.064-6.6-1.85-4.577,4.27.619,4.3-4.025-1.128-2.664,2.486-.4,6.542,9.758,2.456,31.663-29.539A20.921,20.921,0,0,0,364.087,135.886Zm-3.092-25.721a6,6,0,1,1-8.481-.295A6,6,0,0,1,360.995,110.165Z" transform="translate(-299.831 -99.676)" fill="#e8505b"/></g><g transform="translate(0.256 0.188)"><path d="M364.087,135.886a20.917,20.917,0,1,0-32.454-4.963l-.006.005-4.25,3.965,1.016,7.064-6.6-1.85-5.325,4.968,1.016,7.064-6.6-1.85-4.577,4.27.619,4.3-4.025-1.128-2.664,2.486-.4,6.542,9.758,2.456,31.663-29.539A20.921,20.921,0,0,0,364.087,135.886Zm-3.092-25.721a6,6,0,1,1-8.481-.295A6,6,0,0,1,360.995,110.165Z" transform="translate(-299.831 -99.676)" fill="none"/></g><g transform="translate(50.782 8.601)"><path d="M368.628,111.436c-.038.039-.392-.366-1.192-.858a5.991,5.991,0,0,0-3.776-.829,5.774,5.774,0,1,0,6.307,6.759,5.988,5.988,0,0,0-.566-3.824c-.436-.831-.815-1.213-.773-1.248.013-.013.111.076.288.259a4.642,4.642,0,0,1,.664.89,5.975,5.975,0,0,1,.751,3.985,6.187,6.187,0,0,1-7.251,5.1,6.2,6.2,0,0,1-5.045-5.408,6.186,6.186,0,0,1,5.589-6.881,5.968,5.968,0,0,1,3.923,1.026,4.619,4.619,0,0,1,.843.724C368.559,111.32,368.641,111.424,368.628,111.436Z" transform="translate(-357.99 -109.359)" fill="#263238"/></g><path d="M364.048,135.858s-.1.1-.3.289l-.921.821a21.942,21.942,0,0,1-4.048,2.573,21.06,21.06,0,0,1-17.63.253l.173-.029-31.61,29.6-.093.088-.125-.031-9.76-2.446-.2-.05.012-.2c.123-2.04.258-4.276.394-6.543l.005-.1.073-.069,2.663-2.486.1-.1.136.038,4.026,1.126-.321.281c-.194-1.344-.407-2.819-.621-4.3l-.019-.133.1-.091,4.576-4.272.106-.1.141.039,6.6,1.85-.328.288c-.322-2.24-.668-4.643-1.017-7.064l-.019-.136.1-.093,1.412-1.317,3.913-3.65.108-.1.141.039,6.6,1.852-.328.288q-.512-3.568-1.015-7.065l-.019-.133.1-.092,4.257-3.968-.048.313a21.353,21.353,0,0,1-2.719-9.523,20.3,20.3,0,0,1,.347-4.84,20.539,20.539,0,0,1,1.393-4.549,21.072,21.072,0,0,1,40.344,10.1,20.665,20.665,0,0,1-2.347,8.053l-.388.745-.43.664c-.285.423-.522.838-.794,1.187-.564.68-1,1.291-1.424,1.717l-.967.965c-.219.215-.339.316-.339.316s.1-.124.307-.35l.93-.993c.414-.434.833-1.05,1.383-1.734.264-.35.493-.767.77-1.191l.418-.664q.182-.361.376-.744a20.94,20.94,0,0,0,.152-18.8,20.723,20.723,0,0,0-37.548.922,20.068,20.068,0,0,0-1.354,4.446,19.816,19.816,0,0,0-.331,4.728,20.85,20.85,0,0,0,2.664,9.292l.1.177-.146.136-4.253,3.972.079-.225q.5,3.494,1.018,7.064l.057.394-.385-.108-6.6-1.85.248-.061-3.913,3.651-1.412,1.317.081-.228c.348,2.421.693,4.825,1.016,7.065l.056.4-.385-.108-6.6-1.853.246-.06-4.578,4.268.079-.223c.213,1.486.425,2.961.618,4.306l.056.387-.376-.106-4.024-1.13.24-.058-2.666,2.484.079-.168-.4,6.542-.184-.252,9.755,2.466-.217.056,31.715-29.482.076-.072.1.043a20.96,20.96,0,0,0,17.428-.119,23.009,23.009,0,0,0,4.067-2.488l.946-.785C363.932,135.939,364.048,135.858,364.048,135.858Z" transform="translate(-299.536 -99.459)" fill="#263238"/><g transform="translate(31.376 2.648)"><path d="M366.868,134.627a28.606,28.606,0,0,0,2.809-3.544,17.6,17.6,0,0,0,2.151-4.815,18.218,18.218,0,0,0-9.264-21.275,17.1,17.1,0,0,0-4.945-1.67,16.62,16.62,0,0,0-5.439-.174,18.079,18.079,0,0,0-15.694,14.641,16.6,16.6,0,0,0-.2,5.439,17.064,17.064,0,0,0,1.323,5.05,18.269,18.269,0,0,0,20.583,10.715,17.614,17.614,0,0,0,4.952-1.812,28.691,28.691,0,0,0,3.729-2.556,1.3,1.3,0,0,1-.21.212l-.655.586a8.527,8.527,0,0,1-1.122.884,13.032,13.032,0,0,1-1.644,1.053,17.4,17.4,0,0,1-4.988,1.919,18.563,18.563,0,0,1-14.977-3.119,18.664,18.664,0,0,1-6.111-7.693,17.539,17.539,0,0,1-1.376-5.182,17.069,17.069,0,0,1,.2-5.59,18.55,18.55,0,0,1,16.138-15.055,17.077,17.077,0,0,1,5.589.191,17.518,17.518,0,0,1,5.074,1.732,18.657,18.657,0,0,1,7.251,6.629,18.567,18.567,0,0,1,2.075,15.156,17.419,17.419,0,0,1-2.26,4.844,12.994,12.994,0,0,1-1.164,1.566,8.605,8.605,0,0,1-.96,1.059l-.63.612A1.311,1.311,0,0,1,366.868,134.627Z" transform="translate(-335.652 -102.507)" fill="#263238"/></g><g transform="translate(49.659 7.497)"><path d="M368.78,120.516c-.042-.04.437-.451,1.021-1.388a7.017,7.017,0,0,0,.989-4.439,6.837,6.837,0,0,0-3.721-5.361,6.725,6.725,0,0,0-3.882-.679,6.762,6.762,0,0,0-5.859,5.465,6.726,6.726,0,0,0,.409,3.919,6.834,6.834,0,0,0,5.091,4.084,7.013,7.013,0,0,0,4.5-.678c.975-.518,1.418-.967,1.454-.922.012.013-.094.125-.309.329a5.5,5.5,0,0,1-1.047.77,7,7,0,0,1-4.658.866,7.12,7.12,0,0,1-3.079-1.272,7.243,7.243,0,0,1-2.393-2.988,7.169,7.169,0,0,1-.469-4.2,7.232,7.232,0,0,1,6.3-5.879,7.164,7.164,0,0,1,4.16.759,7.238,7.238,0,0,1,2.815,2.592,7.117,7.117,0,0,1,1.055,3.161,7,7,0,0,1-1.186,4.586,5.491,5.491,0,0,1-.84.991C368.912,120.431,368.792,120.529,368.78,120.516Z" transform="translate(-356.697 -108.088)" fill="#263238"/></g><g transform="translate(7.456 38.526)"><path d="M308.12,173.852c-.1-.106,7.031-6.917,15.923-15.213s16.182-14.937,16.28-14.832-7.03,6.916-15.924,15.214S308.218,173.957,308.12,173.852Z" transform="translate(-308.119 -143.806)" fill="#263238"/></g></g><g transform="translate(18.688 26.469)"><path d="M312.392,130.572l.288-.645.388.592a2.965,2.965,0,0,0,1.268,1.081l.645.288-.592.388a2.961,2.961,0,0,0-1.08,1.268l-.289.646-.388-.592a2.963,2.963,0,0,0-1.268-1.081l-.646-.288.592-.388A2.965,2.965,0,0,0,312.392,130.572Z" transform="translate(-310.72 -129.927)" fill="#e8505b"/></g><g transform="translate(0 21.907)"><path d="M290.179,125.051l.168-.375.225.343a1.716,1.716,0,0,0,.737.627l.375.168-.344.226a1.726,1.726,0,0,0-.627.736l-.168.375-.225-.343a1.717,1.717,0,0,0-.737-.627l-.374-.169.343-.225A1.725,1.725,0,0,0,290.179,125.051Z" transform="translate(-289.209 -124.676)" fill="#e8505b"/></g><g transform="translate(61.052 54.951)"><path d="M360.454,163.087l.168-.375.225.343a1.717,1.717,0,0,0,.737.627l.375.168-.344.226a1.726,1.726,0,0,0-.627.736l-.168.375-.225-.343a1.725,1.725,0,0,0-.737-.628l-.374-.168.343-.225A1.725,1.725,0,0,0,360.454,163.087Z" transform="translate(-359.484 -162.712)" fill="#e8505b"/></g><g transform="translate(90.242 37.738)"><path d="M394.755,143.543l.289-.645.387.592a2.968,2.968,0,0,0,1.268,1.08l.646.289-.592.387a2.964,2.964,0,0,0-1.081,1.268l-.288.645-.388-.592a2.963,2.963,0,0,0-1.268-1.08l-.645-.289.592-.387A2.968,2.968,0,0,0,394.755,143.543Z" transform="translate(-393.084 -142.898)" fill="#e8505b"/></g><g transform="translate(85.211 13.564)"><path d="M390.1,116.157l.485-1.085.652.994a4.977,4.977,0,0,0,2.131,1.815l1.085.486-.994.652a4.972,4.972,0,0,0-1.815,2.131l-.486,1.085-.652-.994a4.984,4.984,0,0,0-2.131-1.816l-1.085-.485.994-.652A4.982,4.982,0,0,0,390.1,116.157Z" transform="translate(-387.293 -115.072)" fill="#e8505b"/></g><g transform="translate(11.526 6.245)"><path d="M305.285,107.732l.486-1.085.652.995a4.988,4.988,0,0,0,2.131,1.815l1.085.486-.994.652a4.979,4.979,0,0,0-1.816,2.131l-.485,1.085-.652-.995A4.988,4.988,0,0,0,303.561,111l-1.085-.486.994-.652A4.971,4.971,0,0,0,305.285,107.732Z" transform="translate(-302.476 -106.647)" fill="#e8505b"/></g></g><g transform="translate(20.478 192.099)"><path d="M392.041,294.327s.278-.03.818-.065a6.152,6.152,0,0,0,1-.117l.641-.1.72-.187a11.808,11.808,0,0,0,3.543-1.585,12.261,12.261,0,0,0,3.7-3.753,12.6,12.6,0,0,0,1.34-2.851,12.37,12.37,0,0,0,.573-3.421c.03-.6.023-1.238,0-1.869-.017-.315-.034-.635-.05-.956q-.074-.478-.149-.966a12.668,12.668,0,0,0-1.389-3.829A12.32,12.32,0,0,0,395.961,269a13.924,13.924,0,0,0-4.88-.639l-5.264.008-112.41.066a12.27,12.27,0,0,0-7.465,2.55,12.748,12.748,0,0,0-2.714,2.884,12.443,12.443,0,0,0-1.625,3.581,13.463,13.463,0,0,0-.374,1.926c-.038.653-.083,1.3-.07,1.968a13.093,13.093,0,0,0,.471,3.858,12.756,12.756,0,0,0,1.607,3.492,12.988,12.988,0,0,0,2.6,2.789,11.735,11.735,0,0,0,3.3,1.849,11.043,11.043,0,0,0,3.667.751c2.517.063,5.049.019,7.534.034l14.608.008,50.536.048,34.07.072,9.263.043,2.409.023c.543.008.821.023.821.023s-.278.015-.821.023l-2.409.023-9.263.043-34.07.072-50.536.048-14.608.008c-2.494-.012-5,.033-7.556-.028a11.481,11.481,0,0,1-3.8-.775,12.2,12.2,0,0,1-3.416-1.914,13.415,13.415,0,0,1-2.695-2.889,13.179,13.179,0,0,1-1.668-3.619,13.54,13.54,0,0,1-.49-3.98c-.013-.659.032-1.34.073-2.015a13.893,13.893,0,0,1,.386-2,12.932,12.932,0,0,1,1.684-3.714,13.208,13.208,0,0,1,2.813-2.99,12.732,12.732,0,0,1,7.741-2.645l112.41.067,5.264.008a14.19,14.19,0,0,1,4.971.671,12.583,12.583,0,0,1,6.959,5.776,12.9,12.9,0,0,1,1.4,3.912l.146.984q.023.493.047.975c.02.644.024,1.261-.01,1.88a12.565,12.565,0,0,1-.6,3.476,12.783,12.783,0,0,1-1.379,2.886,12.352,12.352,0,0,1-3.776,3.77,11.748,11.748,0,0,1-3.592,1.56c-.258.063-.5.129-.728.177l-.647.093a5.726,5.726,0,0,1-1.008.1C392.319,294.328,392.041,294.327,392.041,294.327Z" transform="translate(-260.708 -267.977)" fill="#263238"/></g><g transform="translate(20.705 224.038)"><rect width="143.57" height="26.123" rx="13.062" fill="#e8505b"/></g><g transform="translate(33.729 199.947)"><path d="M291.762,287.661a6.554,6.554,0,0,1-.04-.771c-.011-.539-.027-1.241-.046-2.114-.023-1.857-.056-4.426-.095-7.536l.181.182-15.523.045c-.05.049.427-.428.225-.225v1.381q0,.687,0,1.364,0,1.354,0,2.664c0,1.743-.01,3.419-.014,5.01l-.207-.208,11.124.1,3.216.056.868.025a1.713,1.713,0,0,1,.315.024,9.041,9.041,0,0,1-1.095.05l-3.168.056-11.261.1-.207,0v-.209c0-1.591-.009-3.267-.014-5.01q0-1.308,0-2.664,0-.676,0-1.364v-1.381c-.2.2.275-.277.228-.228l15.523.045h.183l0,.18c-.039,3.155-.071,5.763-.095,7.649q-.029,1.282-.046,2.073A4.489,4.489,0,0,1,291.762,287.661Z" transform="translate(-275.961 -277.011)" fill="#263238"/><g transform="translate(0.276 0.227)"><path d="M291.8,277.275a19.748,19.748,0,0,1-2.169,2.089c-1.378,1.248-3.3,2.947-5.444,4.8-.592,0-.166,0-.3,0l0,0-.006-.005-.013-.011-.025-.022-.05-.043-.1-.087-.2-.173-.394-.342-.768-.67-1.449-1.271c-.891-.8-1.711-1.526-2.435-2.174a19.682,19.682,0,0,1-2.168-2.089,19.984,19.984,0,0,1,2.378,1.848l2.5,2.1,1.466,1.252.773.665.394.341.2.172.1.087.05.043.025.022.013.01.006.006,0,0c-.131,0,.3,0-.294,0,2.143-1.856,4.1-3.517,5.531-4.7A19.939,19.939,0,0,1,291.8,277.275Z" transform="translate(-276.278 -277.272)" fill="#263238"/></g><g transform="translate(0.272 5.08)"><path d="M281.887,282.863a34.579,34.579,0,0,1-5.608,5.565,34.579,34.579,0,0,1,5.608-5.565Z" transform="translate(-276.275 -282.859)" fill="#263238"/></g><g transform="translate(10.56 4.759)"><path d="M293.357,288.38a34.517,34.517,0,0,1-5.235-5.888,34.328,34.328,0,0,1,5.235,5.888Z" transform="translate(-288.117 -282.488)" fill="#263238"/></g></g><g transform="translate(55.301 202.277)"><path d="M304.4,284.934v.344h-3.6v-5.225h3.492v.344h-3.112v2.06h2.783v.335h-2.783v2.141Z" transform="translate(-300.792 -279.74)" fill="#263238"/><path d="M312.8,283.2v2.276h-.374v-2.247c0-.881-.454-1.343-1.216-1.343a1.369,1.369,0,0,0-1.426,1.514v2.075h-.373v-2.247c0-.881-.455-1.343-1.216-1.343a1.369,1.369,0,0,0-1.426,1.514v2.075H306.4v-3.9h.359v.836a1.546,1.546,0,0,1,1.493-.865,1.38,1.38,0,0,1,1.426.94,1.644,1.644,0,0,1,1.574-.94A1.461,1.461,0,0,1,312.8,283.2Z" transform="translate(-301.527 -279.936)" fill="#263238"/><path d="M318.29,283v2.471h-.358v-.694a1.5,1.5,0,0,1-1.4.724c-.873,0-1.4-.448-1.4-1.112,0-.59.373-1.089,1.454-1.089h1.336v-.314a1.014,1.014,0,0,0-1.156-1.112,2.016,2.016,0,0,0-1.343.493l-.187-.269a2.372,2.372,0,0,1,1.56-.553A1.324,1.324,0,0,1,318.29,283Zm-.374,1.321v-.731h-1.328c-.806,0-1.089.335-1.089.784,0,.507.4.821,1.082.821A1.335,1.335,0,0,0,317.916,284.325Z" transform="translate(-302.673 -279.936)" fill="#263238"/><path d="M320.4,280.1a.307.307,0,0,1,.306-.307.3.3,0,1,1-.306.307Zm.119,1.246h.373v3.9h-.373Z" transform="translate(-303.365 -279.706)" fill="#263238"/><path d="M322.774,279.693h.374v5.537h-.374Z" transform="translate(-303.677 -279.693)" fill="#263238"/></g><g transform="translate(59.788 234.359)"><path d="M310.048,322.922l-1.406-1.97a4.031,4.031,0,0,1-.573.043h-1.684v1.928h-.429V317.03h2.113c1.481,0,2.374.74,2.374,1.986a1.807,1.807,0,0,1-1.38,1.843l1.473,2.062Zm-1.978-2.307c1.262,0,1.936-.589,1.936-1.6s-.674-1.6-1.936-1.6h-1.684v3.2Z" transform="translate(-305.957 -316.676)" fill="#fff"/><path d="M316.419,321.047H312.64a1.881,1.881,0,0,0,3.267,1.136l.244.278a2.1,2.1,0,0,1-1.658.716,2.158,2.158,0,0,1-2.265-2.231,2.1,2.1,0,0,1,2.1-2.231,2.081,2.081,0,0,1,2.1,2.214C316.427,320.962,316.419,321.005,316.419,321.047Zm-3.77-.328h3.366a1.684,1.684,0,0,0-3.366,0Z" transform="translate(-306.78 -316.897)" fill="#fff"/><path d="M317.819,322.613l.194-.337a2.556,2.556,0,0,0,1.582.53c.926,0,1.3-.328,1.3-.824,0-1.28-2.912-.337-2.912-2.062,0-.665.555-1.2,1.666-1.2a2.7,2.7,0,0,1,1.507.429l-.194.337a2.26,2.26,0,0,0-1.321-.4c-.859,0-1.238.353-1.238.824,0,1.322,2.912.387,2.912,2.062,0,.715-.614,1.2-1.734,1.2A2.755,2.755,0,0,1,317.819,322.613Z" transform="translate(-307.514 -316.897)" fill="#fff"/><path d="M326.836,321.047h-3.779a1.881,1.881,0,0,0,3.267,1.136l.244.278a2.1,2.1,0,0,1-1.658.716,2.158,2.158,0,0,1-2.265-2.231,2.1,2.1,0,0,1,2.1-2.231,2.081,2.081,0,0,1,2.1,2.214C326.844,320.962,326.836,321.005,326.836,321.047Zm-3.77-.328h3.366a1.684,1.684,0,0,0-3.366,0Z" transform="translate(-308.147 -316.897)" fill="#fff"/><path d="M331.052,322.726a1.331,1.331,0,0,1-.9.311,1.09,1.09,0,0,1-1.2-1.2v-2.871h-.809v-.361h.809v-.959h.42v.959h1.4v.361h-1.4V321.8c0,.565.277.876.817.876a1.01,1.01,0,0,0,.682-.244Z" transform="translate(-308.87 -316.757)" fill="#fff"/><path d="M339.971,319.016c0,1.237-.892,1.978-2.373,1.978h-1.685v1.928h-.429V317.03H337.6C339.079,317.03,339.971,317.77,339.971,319.016Zm-.438,0c0-1.018-.673-1.6-1.936-1.6h-1.685v3.19H337.6C338.86,320.607,339.533,320.026,339.533,319.016Z" transform="translate(-309.832 -316.676)" fill="#fff"/><path d="M345.226,320.357v2.786h-.4v-.784a1.684,1.684,0,0,1-1.582.818c-.985,0-1.583-.506-1.583-1.254,0-.665.42-1.228,1.641-1.228h1.507v-.354a1.144,1.144,0,0,0-1.3-1.254,2.286,2.286,0,0,0-1.515.555l-.21-.3a2.682,2.682,0,0,1,1.759-.623A1.494,1.494,0,0,1,345.226,320.357Zm-.42,1.49v-.825h-1.5c-.909,0-1.229.379-1.229.884,0,.572.447.926,1.221.926A1.506,1.506,0,0,0,344.805,321.847Z" transform="translate(-310.642 -316.897)" fill="#fff"/><path d="M347.016,322.613l.194-.337a2.558,2.558,0,0,0,1.582.53c.927,0,1.3-.328,1.3-.824,0-1.28-2.912-.337-2.912-2.062,0-.665.555-1.2,1.667-1.2a2.7,2.7,0,0,1,1.506.429l-.194.337a2.258,2.258,0,0,0-1.321-.4c-.858,0-1.238.353-1.238.824,0,1.322,2.913.387,2.913,2.062,0,.715-.614,1.2-1.734,1.2A2.76,2.76,0,0,1,347.016,322.613Z" transform="translate(-311.346 -316.897)" fill="#fff"/><path d="M351.649,322.613l.194-.337a2.556,2.556,0,0,0,1.582.53c.926,0,1.3-.328,1.3-.824,0-1.28-2.912-.337-2.912-2.062,0-.665.555-1.2,1.667-1.2a2.7,2.7,0,0,1,1.506.429l-.194.337a2.258,2.258,0,0,0-1.321-.4c-.858,0-1.238.353-1.238.824,0,1.322,2.913.387,2.913,2.062,0,.715-.615,1.2-1.735,1.2A2.755,2.755,0,0,1,351.649,322.613Z" transform="translate(-311.954 -316.897)" fill="#fff"/><path d="M363.087,318.754l-1.666,4.394h-.4l-1.482-3.814-1.49,3.814h-.387L356,318.754h.4l1.466,3.922,1.5-3.922h.362l1.489,3.914,1.481-3.914Z" transform="translate(-312.525 -316.902)" fill="#fff"/><path d="M364.586,320.946a2.2,2.2,0,1,1,2.2,2.231A2.141,2.141,0,0,1,364.586,320.946Zm3.964,0a1.769,1.769,0,1,0-1.767,1.851A1.743,1.743,0,0,0,368.55,320.946Z" transform="translate(-313.652 -316.897)" fill="#fff"/><path d="M373.225,318.715v.413c-.033,0-.067-.009-.1-.009a1.517,1.517,0,0,0-1.557,1.734v2.29h-.42v-4.394h.4v.96A1.667,1.667,0,0,1,373.225,318.715Z" transform="translate(-314.513 -316.897)" fill="#fff"/><path d="M378.661,316.622v6.246h-.413v-1.036a1.947,1.947,0,0,1-1.8,1.069,2.232,2.232,0,0,1,0-4.462,1.968,1.968,0,0,1,1.792,1.052v-2.87Zm-.421,4.049a1.769,1.769,0,1,0-1.767,1.851A1.743,1.743,0,0,0,378.24,320.671Z" transform="translate(-314.924 -316.622)" fill="#fff"/></g><g transform="translate(0.172 13.868)"><path d="M416.739,63.046c0,.125-40.164.226-89.7.226-49.551,0-89.707-.1-89.707-.226s40.156-.226,89.707-.226C376.574,62.82,416.739,62.921,416.739,63.046Z" transform="translate(-237.335 -62.82)" fill="#263238"/></g><g transform="translate(5.977 4.785)"><path d="M248.383,54.548a2.183,2.183,0,1,1-2.183-2.183A2.183,2.183,0,0,1,248.383,54.548Z" transform="translate(-244.017 -52.365)" fill="#263238"/></g><g transform="translate(12.249 4.785)"><path d="M255.6,54.548a2.183,2.183,0,1,1-2.183-2.183A2.183,2.183,0,0,1,255.6,54.548Z" transform="translate(-251.237 -52.365)" fill="#263238"/></g><g transform="translate(18.521 4.785)"><path d="M262.823,54.548a2.184,2.184,0,1,1-2.183-2.183A2.183,2.183,0,0,1,262.823,54.548Z" transform="translate(-258.456 -52.365)" fill="#263238"/></g><path d="M417.032,319.339c0-1.859-.086-112.018-.208-272.255l.207.207-179.646.019h-.022l.227-.226c-.017,102.738-.034,197.457-.046,272.255l-.181-.181,179.669.181-179.669.18h-.18v-.18c-.013-74.8-.029-169.517-.046-272.255v-.227h.248l179.646.019h.208v.208C417.117,207.321,417.032,317.482,417.032,319.339Z" transform="translate(-237.137 -46.857)" fill="#263238"/><text transform="translate(45.821 157.082)" font-size="12" font-family="BasisGrotesquePro-Bold, Basis Grotesque Pro" font-weight="700"><tspan x="0" y="0">Reset Password</tspan></text></g><g transform="translate(352.511 250.394)"><g transform="translate(32.452)"><path d="M439.959,423.463a2.155,2.155,0,0,0-.148-.356l-.477-1.017a25.582,25.582,0,0,1-1.4-4.074,35.962,35.962,0,0,1,.12-15.731,84.211,84.211,0,0,1,2.918-10.567c1.235-3.75,2.669-7.729,3.841-12.03a46.542,46.542,0,0,0,1.9-13.832c-.178-4.893-1.626-9.776-3.22-14.638s-3.233-9.628-3.726-14.415A21.971,21.971,0,0,1,442.4,323.49c2.108-3.885,4.762-7.207,6.747-10.649a37,37,0,0,0,4.055-10.237,38.125,38.125,0,0,0,.256-15.86,29.538,29.538,0,0,0-1.654-5.6,2.133,2.133,0,0,0,.1.373c.083.265.194.62.335,1.074a40.791,40.791,0,0,1,1.029,4.192,38.618,38.618,0,0,1-.412,15.741,36.877,36.877,0,0,1-4.068,10.107c-1.981,3.4-4.645,6.709-6.795,10.639a22.418,22.418,0,0,0-2.726,13.584c.5,4.868,2.153,9.66,3.738,14.522s3.025,9.69,3.206,14.5a46.328,46.328,0,0,1-1.851,13.692c-1.153,4.28-2.57,8.26-3.789,12.021a83.265,83.265,0,0,0-2.87,10.629,35.548,35.548,0,0,0,.04,15.849,23.478,23.478,0,0,0,1.5,4.068l.524,1A2.074,2.074,0,0,0,439.959,423.463Z" transform="translate(-436.84 -281.143)" fill="#263238"/></g><g transform="translate(37.872 14.512)"><path d="M447.272,318.428s4.032-12.891-3.2-20.439a.447.447,0,0,0-.766.222C442.92,300.339,442.438,306.824,447.272,318.428Z" transform="translate(-443.078 -297.847)" fill="#e8505b"/><g transform="translate(1.76 4.437)"><path d="M445.123,302.955a11.83,11.83,0,0,0,.272,2.378c.265,1.638.576,3.562.919,5.686s.643,4.048.9,5.686a12.984,12.984,0,0,0,.427,2.353,10.018,10.018,0,0,0-.072-2.4c-.134-1.473-.394-3.5-.759-5.723s-.751-4.227-1.067-5.67A10.69,10.69,0,0,0,445.123,302.955Z" transform="translate(-445.103 -302.955)" fill="#263238"/></g></g><g transform="translate(24.348 48.903)"><path d="M440.494,354.028s-2.466-13.28-12.387-16.57a.447.447,0,0,0-.574.554C428.187,340.074,430.793,346.031,440.494,354.028Z" transform="translate(-427.511 -337.434)" fill="#e8505b"/><g transform="translate(3.294 3.451)"><path d="M431.307,341.409a11.84,11.84,0,0,0,1.352,1.976l3.472,4.6,3.457,4.6a12.878,12.878,0,0,0,1.478,1.88,10.014,10.014,0,0,0-1.185-2.084c-.806-1.24-1.983-2.909-3.347-4.7s-2.641-3.385-3.595-4.512A10.776,10.776,0,0,0,431.307,341.409Z" transform="translate(-431.304 -341.407)" fill="#263238"/></g></g><g transform="translate(32.261 79.274)"><path d="M444.371,391.931s1.5-13.424-7.041-19.453a.447.447,0,0,0-.71.363C436.647,375,437.411,381.462,444.371,391.931Z" transform="translate(-436.62 -372.393)" fill="#e8505b"/><g transform="translate(2.291 4.151)"><path d="M439.266,377.172a11.887,11.887,0,0,0,.72,2.283c.573,1.558,1.245,3.386,1.988,5.405s1.4,3.851,1.971,5.409a12.847,12.847,0,0,0,.868,2.228,10.047,10.047,0,0,0-.528-2.338c-.412-1.42-1.054-3.36-1.837-5.474s-1.545-4.006-2.129-5.362A10.715,10.715,0,0,0,439.266,377.172Z" transform="translate(-439.257 -377.171)" fill="#263238"/></g></g><g transform="translate(24.108 113.058)"><path d="M435.665,430.545s1.016-13.468-7.733-19.188a.447.447,0,0,0-.7.388C427.34,413.906,428.334,420.332,435.665,430.545Z" transform="translate(-427.235 -411.281)" fill="#e8505b"/><g transform="translate(2.423 4.081)"><path d="M430.033,415.98a11.891,11.891,0,0,0,.8,2.256c.628,1.536,1.365,3.339,2.18,5.331s1.54,3.8,2.163,5.335a12.977,12.977,0,0,0,.947,2.2,9.964,9.964,0,0,0-.612-2.318c-.462-1.4-1.173-3.32-2.031-5.4s-1.687-3.948-2.32-5.283A10.752,10.752,0,0,0,430.033,415.98Z" transform="translate(-430.025 -415.979)" fill="#263238"/></g></g><g transform="translate(47.86 6.598)"><path d="M454.575,305.906s11.972-6.252,12.207-16.7a.446.446,0,0,0-.7-.386C464.305,290.048,459.374,294.287,454.575,305.906Z" transform="translate(-454.575 -288.738)" fill="#e8505b"/><g transform="translate(0.099 4.054)"><path d="M464.311,293.406a11.837,11.837,0,0,0-1.492,1.872l-3.375,4.667-3.387,4.656a12.931,12.931,0,0,0-1.364,1.963,9.956,9.956,0,0,0,1.645-1.744c.948-1.135,2.2-2.75,3.516-4.579s2.46-3.518,3.26-4.761A10.764,10.764,0,0,0,464.311,293.406Z" transform="translate(-454.689 -293.404)" fill="#263238"/></g></g><g transform="translate(35.004 35.028)"><path d="M439.777,337.887s12.33-5.514,13.2-15.931a.447.447,0,0,0-.673-.427C450.451,322.648,445.273,326.58,439.777,337.887Z" transform="translate(-439.777 -321.463)" fill="#e8505b"/><g transform="translate(0.097 3.923)"><path d="M450.291,325.981a11.8,11.8,0,0,0-1.6,1.778l-3.652,4.453-3.664,4.44a12.914,12.914,0,0,0-1.48,1.878,9.979,9.979,0,0,0,1.747-1.64c1.016-1.076,2.363-2.611,3.788-4.359s2.671-3.361,3.543-4.553A10.782,10.782,0,0,0,450.291,325.981Z" transform="translate(-439.889 -325.979)" fill="#263238"/></g></g><g transform="translate(42.082 61.855)"><path d="M447.941,372.82s8.466-10.525,4.495-20.194a.447.447,0,0,0-.794-.074C450.5,354.392,447.683,360.251,447.941,372.82Z" transform="translate(-447.924 -352.343)" fill="#e8505b"/><g transform="translate(0.116 4.568)"><path d="M451.614,357.6a11.714,11.714,0,0,0-.618,2.313c-.352,1.622-.765,3.525-1.222,5.629s-.883,4-1.24,5.622a13.041,13.041,0,0,0-.463,2.346,9.976,9.976,0,0,0,.809-2.256c.415-1.42.914-3.4,1.387-5.605s.846-4.209,1.08-5.667A10.849,10.849,0,0,0,451.614,357.6Z" transform="translate(-448.057 -357.602)" fill="#263238"/></g></g><g transform="translate(33.712 102.038)"><path d="M438.29,415.231s12.236-5.72,12.931-16.15a.448.448,0,0,0-.681-.416C448.708,399.816,443.6,403.834,438.29,415.231Z" transform="translate(-438.29 -398.596)" fill="#e8505b"/><g transform="translate(0.098 3.961)"><path d="M448.593,403.157a11.781,11.781,0,0,0-1.572,1.8l-3.578,4.515-3.588,4.5a12.961,12.961,0,0,0-1.449,1.9,9.955,9.955,0,0,0,1.72-1.67c1-1.092,2.318-2.651,3.714-4.421s2.613-3.406,3.465-4.612A10.737,10.737,0,0,0,448.593,403.157Z" transform="translate(-438.403 -403.155)" fill="#263238"/></g></g><g transform="translate(0 62.497)"><g transform="translate(9.325 3.072)"><path d="M410.235,356.618a1.011,1.011,0,0,0-.016.3c.006.235.013.52.022.864.036.811.084,1.908.145,3.275.157,2.879.377,6.894.64,11.7v.011l0,.016c.874,4.888,3.363,10.305,6.706,15.565,2.453,3.875,5.024,7.4,7.241,10.673a75.693,75.693,0,0,1,5.429,8.973,38.055,38.055,0,0,1,2.539,6.585c.215.807.377,1.436.47,1.867a3.409,3.409,0,0,0,.179.651,3.347,3.347,0,0,0-.079-.671c-.061-.438-.192-1.076-.38-1.9a34.716,34.716,0,0,0-2.408-6.692,71.634,71.634,0,0,0-5.365-9.078c-2.2-3.3-4.759-6.828-7.2-10.682-3.326-5.233-5.8-10.568-6.709-15.378l0,.028c-.337-4.8-.619-8.807-.821-11.684-.11-1.365-.2-2.458-.264-3.268-.035-.342-.063-.625-.087-.858A.984.984,0,0,0,410.235,356.618Z" transform="translate(-410.219 -356.618)" fill="#263238"/></g><g transform="translate(14.674 12.972)"><path d="M418.328,388.832s-5.181-12.474,1.336-20.645a.447.447,0,0,1,.784.151C421.025,370.423,422.093,376.837,418.328,388.832Z" transform="translate(-416.375 -368.014)" fill="#e8505b"/><g transform="translate(1.699 4.521)"><path d="M419.528,373.219a10.8,10.8,0,0,0-.41,2.36c-.183,1.466-.389,3.5-.55,5.743s-.237,4.29-.237,5.769a10.023,10.023,0,0,0,.145,2.393,12.96,12.96,0,0,0,.212-2.382c.111-1.655.241-3.6.384-5.744s.286-4.09.4-5.745A11.8,11.8,0,0,0,419.528,373.219Z" transform="translate(-418.331 -373.219)" fill="#263238"/></g><g opacity="0.3"><path d="M418.328,388.832s-5.181-12.474,1.336-20.645a.447.447,0,0,1,.784.151C421.025,370.423,422.093,376.837,418.328,388.832Z" transform="translate(-416.375 -368.014)"/></g></g><g transform="translate(31.478 43.234)"><path d="M436.917,423.462s-4.154-12.852,3.006-20.469a.447.447,0,0,1,.769.214C441.1,405.332,441.642,411.812,436.917,423.462Z" transform="translate(-435.719 -402.848)" fill="#e8505b"/><g transform="translate(1.048 4.448)"><path d="M439.337,407.968a10.732,10.732,0,0,0-.6,2.319c-.3,1.446-.671,3.452-1.013,5.679s-.585,4.257-.7,5.731a10.015,10.015,0,0,0-.049,2.4,12.9,12.9,0,0,0,.4-2.356c.244-1.64.532-3.566.849-5.694s.616-4.054.865-5.695A11.848,11.848,0,0,0,439.337,407.968Z" transform="translate(-436.925 -407.968)" fill="#263238"/></g><g opacity="0.3"><path d="M436.917,423.462s-4.154-12.852,3.006-20.469a.447.447,0,0,1,.769.214C441.1,405.332,441.642,411.812,436.917,423.462Z" transform="translate(-435.719 -402.848)"/></g></g><path d="M409.512,371.628s-11.065-7.746-9.948-18.139a.447.447,0,0,1,.742-.293C401.911,354.647,406.253,359.486,409.512,371.628Z" transform="translate(-399.485 -353.082)" fill="#e8505b"/><g opacity="0.3"><path d="M409.512,371.628s-11.065-7.746-9.948-18.139a.447.447,0,0,1,.742-.293C401.911,354.647,406.253,359.486,409.512,371.628Z" transform="translate(-399.485 -353.082)"/></g><g transform="translate(2.074 4.287)"><path d="M401.879,358.018a10.761,10.761,0,0,0,.919,2.212c.632,1.335,1.547,3.158,2.618,5.141s2.1,3.748,2.9,5a9.991,9.991,0,0,0,1.406,1.942,13.025,13.025,0,0,0-1.1-2.124c-.794-1.456-1.727-3.165-2.757-5.053l-2.744-5.064A11.849,11.849,0,0,0,401.879,358.018Z" transform="translate(-401.872 -358.017)" fill="#263238"/></g><g transform="translate(11.266 38.596)"><path d="M429.4,410.019s-13.345-2.081-16.92-11.9a.446.446,0,0,1,.537-.589C415.1,398.121,421.129,400.553,429.4,410.019Z" transform="translate(-412.453 -397.509)" fill="#e8505b"/><g opacity="0.3"><path d="M429.4,410.019s-13.345-2.081-16.92-11.9a.446.446,0,0,1,.537-.589C415.1,398.121,421.129,400.553,429.4,410.019Z" transform="translate(-412.453 -397.509)"/></g><g transform="translate(3.533 3.205)"><path d="M416.522,401.2a10.734,10.734,0,0,0,1.8,1.581c1.155.92,2.78,2.154,4.615,3.463s3.537,2.439,4.8,3.209a9.987,9.987,0,0,0,2.117,1.124,12.953,12.953,0,0,0-1.922-1.423l-4.7-3.322-4.694-3.338A11.915,11.915,0,0,0,416.522,401.2Z" transform="translate(-416.52 -401.198)" fill="#263238"/></g></g></g><g transform="translate(19.741 138.164)"><path d="M446.472,440.18l-3.827,25.108-15.287-.026-5.15-25.082Z" transform="translate(-422.208 -440.18)" fill="#455a64"/></g><g transform="translate(21.98 141.697)"><path d="M432.858,448.774a4.262,4.262,0,0,0,.709-2.1,2.288,2.288,0,0,0-1.037-2.159,2.477,2.477,0,0,0-2.561.211,3.74,3.74,0,0,0-1.465,2.306,9.836,9.836,0,0,0-.19,2.836,9.385,9.385,0,0,0,.62,2.9,6.408,6.408,0,0,0,1.772,2.528,4.948,4.948,0,0,0,2.942,1.228,5.388,5.388,0,0,0,3.06-.889,9.163,9.163,0,0,0,2.283-2.063,5.008,5.008,0,0,0,1.156-2.758,3.2,3.2,0,0,0-1.085-2.66,2.486,2.486,0,0,0-2.709-.165,2.9,2.9,0,0,0-1.563,2.047,3.93,3.93,0,0,0,1.933,3.975,5.4,5.4,0,0,0,3.69.533,8.407,8.407,0,0,0,2.63-1.029,13.871,13.871,0,0,0,1.473-1,3.075,3.075,0,0,0,.472-.4,3.789,3.789,0,0,0-.521.333c-.337.223-.831.559-1.5.923a8.523,8.523,0,0,1-2.591.941,5.185,5.185,0,0,1-3.5-.558,3.624,3.624,0,0,1-1.743-3.652,2.541,2.541,0,0,1,1.389-1.785,2.11,2.11,0,0,1,2.3.14,2.81,2.81,0,0,1,.925,2.335,4.622,4.622,0,0,1-1.08,2.526,8.792,8.792,0,0,1-2.179,1.963,4.988,4.988,0,0,1-2.822.824,4.537,4.537,0,0,1-2.69-1.128,5.987,5.987,0,0,1-1.662-2.364,9.018,9.018,0,0,1-.6-2.772,9.511,9.511,0,0,1,.166-2.719,3.377,3.377,0,0,1,1.294-2.09,2.129,2.129,0,0,1,2.184-.216,1.957,1.957,0,0,1,.887,1.844,3.974,3.974,0,0,1-.633,1.951,5.686,5.686,0,0,1-2.85,2.135,6.266,6.266,0,0,1-2.717.324,7.129,7.129,0,0,1-2.259-.671c0,.006.039.037.128.092a4.481,4.481,0,0,0,.4.23,5.569,5.569,0,0,0,1.709.51,6.281,6.281,0,0,0,2.81-.264,5.88,5.88,0,0,0,3.022-2.194" transform="translate(-424.786 -444.247)" fill="#263238"/></g></g></g><g transform="translate(452 137)"><g transform="translate(0 0)"><path d="M186.2,43.524c.486.177.593.559.809.833a15.2,15.2,0,0,0,11.964,6.083,7.566,7.566,0,0,0,7.809-6.283A7.683,7.683,0,0,0,202,35.618a7.573,7.573,0,0,0-9.349,3.34c-.109.179-.233.35-.453.683a17.689,17.689,0,0,0-2.439-5.2c-.367-.508.08-.794.381-1.1a13.064,13.064,0,0,1,19.287,1.11c3.417,4.359,4.064,9.2,1.536,14.168A12.588,12.588,0,0,1,198.492,55.9,13.042,13.042,0,0,1,186.2,43.524Z" transform="translate(-165.249 -29.607)" fill="#e03249"/><path d="M191.861,48.405a13.676,13.676,0,0,1-7.958-7.738,8.589,8.589,0,0,0-3.418-4.4,7.644,7.644,0,0,0-11.668,6.4c-.066,4.02-.016,8.04-.018,12.06,0,1.313-.072,1.363-1.379,1.022a5.17,5.17,0,0,1-4.028-4.65,60.03,60.03,0,0,1,.147-10.505,13.1,13.1,0,0,1,25.862.04,15.154,15.154,0,0,1,.19,2.068A8.66,8.66,0,0,0,191.861,48.405Z" transform="translate(-163.233 -29.606)" fill="#e03249"/><path d="M186.319,49.909a14.625,14.625,0,0,0,4.9,6.094,1.147,1.147,0,0,1,.394,1.073c-.006,4.278-.019,8.557.009,12.834.005.817-.252,1.016-1.034.849a5.425,5.425,0,0,1-4.434-5.15c-.053-5.119-.015-10.238-.01-15.357C186.142,50.2,186.2,50.142,186.319,49.909Z" transform="translate(-165.242 -31.344)" fill="#e03249"/><path d="M279.949,51.235c0,1.861-.037,3.354.013,4.844.032.941-.065,1.489-1.27,1.505-1.272.016-1.215-.643-1.211-1.519.02-4.84,0-9.681.023-14.521,0-.482-.312-1.211.472-1.358.573-.108,1.516-.328,1.712.2.451,1.223.85.661,1.51.256a5.437,5.437,0,0,1,8.129,2.943c1.443,4.148-.479,8.392-4.162,9.213A5.726,5.726,0,0,1,279.949,51.235Zm-.021-4.8c.027,2.614,1.445,4.246,3.676,4.234,2.165-.013,3.665-1.773,3.668-4.3,0-2.49-1.538-4.354-3.633-4.4C281.453,41.932,279.9,43.8,279.928,46.439Z" transform="translate(-173.254 -30.477)" fill="#e03249"/><path d="M314.034,53.007a6.4,6.4,0,0,1-6.286-7.09c.261-4.029,3.312-6.639,7.129-6.1a5.881,5.881,0,0,1,4.881,6.152c-.044,1.017-.569,1.055-1.322,1.049-2.183-.02-4.37.057-6.55-.027-1.66-.064-1.7.689-1.112,1.861a3.646,3.646,0,0,0,6.133.522c.811-1.177,1.62-1.033,2.322-.419.769.674-.174,1.327-.56,1.851A5.667,5.667,0,0,1,314.034,53.007Zm-.288-7.936a5.155,5.155,0,0,0,1.212-.016c.7-.176,1.856.574,2.044-.544a2.236,2.236,0,0,0-1.657-2.3,3.493,3.493,0,0,0-3.482.255c-.725.516-1.512,1.241-1.275,2.147.246.946,1.276.3,1.944.444A6.029,6.029,0,0,0,313.746,45.071Z" transform="translate(-175.912 -30.474)" fill="#e03249"/><path d="M245.418,47.01c-1.024,0-2.047-.019-3.07.006-1.619.037-1.878.544-1.043,1.985a3.629,3.629,0,0,0,6.022.4c.79-1.148,1.565-1.092,2.313-.46.826.7-.138,1.338-.525,1.841a6.057,6.057,0,0,1-8.1,1.184,6.967,6.967,0,0,1-2.108-8.778,5.886,5.886,0,0,1,11.269,2.544c.03.993-.291,1.351-1.277,1.295C247.741,46.96,246.578,47.01,245.418,47.01Zm-1.19-1.943a3.639,3.639,0,0,0,1.009-.016c.746-.225,2.031.678,2.186-.593a2.35,2.35,0,0,0-2.068-2.411,3.367,3.367,0,0,0-3.411.7c-.538.532-1.173,1.178-.931,1.911.267.812,1.179.3,1.8.4A9.628,9.628,0,0,0,244.228,45.067Z" transform="translate(-169.809 -30.47)" fill="#e03249"/><path d="M299.994,47.011c-1.023,0-2.049.066-3.065-.014-1.907-.15-1.692.817-1.062,1.963a3.621,3.621,0,0,0,6.005.46c.785-1.122,1.537-1.144,2.314-.5.943.781-.136,1.426-.537,1.94a6.067,6.067,0,0,1-8.278.937c-2.7-1.932-3.429-6.217-1.571-9.218a5.99,5.99,0,0,1,6.732-2.67,5.855,5.855,0,0,1,4.2,5.449c.089,1.156-.075,1.828-1.473,1.676A29.946,29.946,0,0,0,299.994,47.011Zm-1.163-1.944a3.752,3.752,0,0,0,1.014-.015c.754-.221,2.086.661,2.194-.579a2.45,2.45,0,0,0-2.1-2.431,3.508,3.508,0,0,0-3.277.577c-.637.549-1.31,1.284-1.085,2.065s1.193.288,1.828.371A11.034,11.034,0,0,0,298.831,45.067Z" transform="translate(-174.599 -30.47)" fill="#e03249"/><path d="M263.884,47.9c0,1.162.02,2.325-.01,3.487-.011.414.357,1.073-.386,1.158-.627.072-1.66.414-1.838-.249-.347-1.3-.716-.641-1.278-.265a4.716,4.716,0,0,1-4.845.535,3.529,3.529,0,0,1-2.25-3.562,3.266,3.266,0,0,1,2.451-3.175c1.285-.411,2.667-.515,3.994-.8.689-.149,1.647-.085,1.591-1.181A1.862,1.862,0,0,0,259.934,42c-1.453-.363-3.015-.453-3.688,1.216-.584,1.447-1.608.98-2.271.58-.882-.533-.111-1.353.245-1.933,1.11-1.8,3.686-2.585,6.224-1.971a4.3,4.3,0,0,1,3.384,4.32c.076,1.225.013,2.461.013,3.69Zm-6.413,2.986c2.339.065,3.77-1.286,3.877-3.189.044-.789-.25-.947-.922-.875-3.286.356-4.674.667-4.631,2.262A1.711,1.711,0,0,0,257.47,50.888Z" transform="translate(-171.134 -30.469)" fill="#e03249"/><path d="M224.34,46.229c0-1.569-.017-3.139.01-4.707.008-.5-.262-1.215.529-1.337.568-.089,1.475-.368,1.692.213.485,1.294.908.41,1.4.121,3.3-1.943,6.654-.378,7.014,3.427.236,2.5.06,5.044.135,7.565.028.967-.432,1.08-1.237,1.12-1,.049-1.286-.311-1.255-1.279.062-1.977.057-3.958,0-5.935-.064-2.372-.993-3.466-2.831-3.476-1.8-.008-2.844,1.123-2.96,3.429-.1,1.973-.07,3.957-.026,5.934.021.913-.161,1.355-1.214,1.336-.975-.018-1.315-.309-1.278-1.293C224.388,49.643,224.34,47.935,224.34,46.229Z" transform="translate(-168.593 -30.468)" fill="#e03249"/><path d="M270.13,41.617a5.06,5.06,0,0,1,2.535-1.6c.673-.091,1.728-.726,1.868.7.1.978.175,1.769-1.34,1.844-2.217.109-3.027,1.154-3.115,3.463-.068,1.768-.073,3.54-.018,5.307.03.955-.247,1.307-1.252,1.313s-1.26-.324-1.244-1.284c.052-3.129-.015-6.261.049-9.39.012-.614-.568-1.591.639-1.82C269.311,39.955,270.127,40.176,270.13,41.617Z" transform="translate(-172.381 -30.479)" fill="#e03249"/><path d="M323.247,46.37c0-1.634-.019-3.268.012-4.9.009-.482-.279-1.253.559-1.272.639-.014,1.619-.534,1.835.619.156.835.39.673.837.233a3.944,3.944,0,0,1,2.341-1.126c.7-.083,1.434-.164,1.374.912-.043.749.309,1.556-1.047,1.722-2.824.344-3.377,1.106-3.421,4.011-.025,1.634-.065,3.271.014,4.9.054,1.114-.534,1.148-1.376,1.177-.9.032-1.173-.289-1.144-1.169C323.288,49.776,323.248,48.073,323.247,46.37Z" transform="translate(-177.271 -30.485)" fill="#e03249"/></g></g></g></svg>