<svg xmlns="http://www.w3.org/2000/svg" width="340" height="225.711" viewBox="0 0 340 225.711"><g transform="translate(0)"><path d="M301.664,157.094c-13.965-11.9-30.8-83.725-88.459-46.325-29.792,19.329-80.031-16.575-121.613-4.186-38.186,11.39-41.867,48.934-38.173,61.166,7.463,24.709-15.763,28.386-37.311,39-33.8,16.656-8.746,75.8,23.179,76.075s225.113,0,225.113,0,46.44-1.062,65.73-26.66C350.887,228.625,337.729,187.86,301.664,157.094Z" transform="translate(0 -57.547)" fill="#ebf2f9"/><path d="M263.08,511.654s.4,6.524,1.666,6.617h6.4l7.956-.047a2.584,2.584,0,0,0-2.38-2.32c-2.325-.4-6.218-2.04-7.624-5.1C267.615,507.57,263.08,511.654,263.08,511.654Z" transform="translate(-151.271 -292.997)" fill="#520d0d"/><path d="M253.944,335.39s3.464.888,5.669.225,5.992.425,6.6,1.233.387,1.122-.7,1.4-4.951,1.925-7.488.969a20.073,20.073,0,0,0-5.848-.986Z" transform="translate(-145.004 -192.85)" fill="#e49963"/><path d="M185.84,259.323s3.9,27.672,10.344,30.149c3.179,1.224,17.238,3.995,21.4,4.275,0,0,1.02-.829.769-4.19,0,0-14.73-5.41-16.821-8.351-3.115-4.373,1.934-17.88-1.976-21.989S189.066,253.339,185.84,259.323Z" transform="translate(-106.858 -146.889)" fill="#cb4a4a"/><path d="M168.169,455.887v-6.035h-9.494a.463.463,0,0,1-.463-.467v-.965a.467.467,0,0,1,.463-.467h9.494V413.625a1.759,1.759,0,0,1,1.755-1.755H171.8a1.759,1.759,0,0,1,1.751,1.755v34.344h9.49a.468.468,0,0,1,.463.468v.965a.463.463,0,0,1-.463.468h-9.486V455.9c6.876.518,12.38,2.975,13.927,6.188H154.25C155.8,458.879,161.3,456.406,168.169,455.887Z" transform="translate(-88.694 -236.826)" fill="#f9a6a6"/><path d="M182.2,379.747a48.714,48.714,0,0,0,3.8,5.44c4.186,5.283,8.742,9.639,9.533,13.757a18.652,18.652,0,0,0,.74,2.635c.327.944.74,1.938,1.211,2.975a91.558,91.558,0,0,0,7.085,12.108c4.581,6.8,8.891,12.461,8.891,12.461l7.9-.34c-.314-.79-3.761-10.17-8.377-21.628-1.87-4.654-3.863-9.6-5.784-14.373-.255-.637-.51-1.275-.765-1.9-.587-1.458-1.165-2.9-1.73-4.3l-7.777-19.342s-17.31-6.558-19.125-2.308C176.339,368.433,177.55,371.863,182.2,379.747Z" transform="translate(-101.9 -209.012)" fill="#e58638"/><path d="M213.234,470.65s-5.5,3.532-4.964,4.675c.068.153,3.107,5.593,3.107,5.593l3.918,6.927a2.564,2.564,0,0,0,.85-3.209c-.8-2.227-1.211-6.422.769-9.163C219.019,472.618,213.234,470.65,213.234,470.65Z" transform="translate(-119.734 -270.624)" fill="#520d0d"/><path d="M202.809,365s21.726,13.532,24.153,22.623-28.9,28.5-28.9,28.5-3.438-3.03-4.042-5.253c0,0,14.157-16.966,17.229-20.765,1.887-2.337-27.893-8.075-31.526-13.744s-2.337-10.421-2.337-10.421Z" transform="translate(-101.868 -209.876)" fill="#ee9849"/><rect width="47.698" height="12.125" rx="3.8" transform="translate(58.327 172.49)" fill="#c73c3c"/><path d="M199.633,238.3a12.2,12.2,0,0,1,3.311,3c-5.2,1.347-13.834-3.476-13.834-3.476a12.769,12.769,0,0,0,4.594-7.2c.059-.251.119-.506.17-.769a15.622,15.622,0,0,0,.281-2.707l2.393,2.125,3.974,3.561a33.972,33.972,0,0,1-.587,4.02C199.85,237.316,199.748,237.792,199.633,238.3Z" transform="translate(-108.738 -130.612)" fill="#e49963"/><path d="M176.012,274.479c.748,10.026-.506,25.27.34,27.91.731,2.278,9.32.931,12.639.17,1.228-.28,2.716-.684,4.25-1.16,4.284-1.326,8.955-3.221,9.456-4.628a.807.807,0,0,0,.047-.166,1.241,1.241,0,0,0,0-.586,10.024,10.024,0,0,1-.884-3.273c-.085-1.98-.072-4.318-.149-6.83a6.643,6.643,0,0,0-.038-.871v-.264c-.072-2.8-.221-5.742-.391-8.666-.106-1.832-.229-3.646-.374-5.389a71.718,71.718,0,0,0-1.547-11.012,17.666,17.666,0,0,0-5.678-8.768l-1.606-1.356a9.154,9.154,0,0,1-5.742-.765c-2.044-.969-2.75-1.666-3.107-1.4C178.528,251.062,175.132,262.218,176.012,274.479Z" transform="translate(-101.127 -142.237)" fill="#f07373"/><path d="M206.155,342.131c4.288-1.33,8.959-3.226,9.46-4.633a.772.772,0,0,1,.047-.161v-.591a10.066,10.066,0,0,1-.884-3.268c-.085-1.98-.072-4.318-.149-6.83a8.53,8.53,0,0,0-.038-.871v-.264L198.4,318.17S197.447,331.222,206.155,342.131Z" transform="translate(-114.062 -182.948)" fill="#cb4a4a"/><path d="M206.449,235.751a33.972,33.972,0,0,1-.587,4.02,10.528,10.528,0,0,1-6.23-6.247,7.138,7.138,0,0,1-.242-.68l.425-.089,2.673-.565Z" transform="translate(-114.649 -133.51)" fill="#d68d5d"/><path d="M206.65,221.295s-8.53.961-9.048-4.36-1.963-8.78,3.46-9.618,6.681,1.088,7.284,2.822S208.855,220.908,206.65,221.295Z" transform="translate(-113.294 -119.091)" fill="#e49963"/><path d="M194.615,212.684a8.762,8.762,0,0,1,8.3-7.794c5.317-.5,2.354-5.079,1.785-5.81,0,0-4.071.561-8.249,1.249C187.692,201.779,193.757,211.583,194.615,212.684Z" transform="translate(-110.27 -114.471)" fill="#8b2b2b"/><rect width="0.786" height="20.553" transform="translate(126.37 149.721) rotate(-162)" fill="#cb4a4a"/><rect width="21.569" height="1.292" transform="translate(126.365 149.727) rotate(-178.78)" fill="#cb4a4a"/><path d="M249.341,345.4s3.349,1.275,5.61.85,5.912,1.1,6.43,1.955.259,1.16-.85,1.313-5.13,1.368-7.548.14a20.216,20.216,0,0,0-5.7-1.628Z" transform="translate(-142.186 -198.606)" fill="#e49963"/><path d="M189.89,262.859s.816,27.935,6.953,31.106c3.026,1.568,16.694,5.874,20.8,6.609,0,0,1.1-.71,1.228-4.08,0,0-14.025-7-15.8-10.153-2.614-4.675,3.893-17.557.463-22.074S193.762,257.266,189.89,262.859Z" transform="translate(-109.187 -149.291)" fill="#f07373"/><rect width="139.412" height="180.284" rx="25" transform="translate(284.226 180.284) rotate(180)" fill="#e94058" opacity="0.5"/><rect width="112.242" height="143.139" transform="translate(270.75 162.035) rotate(180)" fill="#fff"/><path d="M401.951,197.889a3.685,3.685,0,1,1,3.689-3.685A3.685,3.685,0,0,1,401.951,197.889Zm0-5.95a2.261,2.261,0,1,0,2.261,2.261,2.261,2.261,0,0,0-2.261-2.261Z" transform="translate(-229.006 -109.549)" fill="#3c3c3b"/><path d="M264.854,176.672a.71.71,0,0,1-.506-.208l-11.071-11.075H163.284a.714.714,0,0,1,0-1.428h90.58l11.5,11.475a.714.714,0,0,1-.506,1.215Z" transform="translate(-93.478 -94.277)" fill="#3c3c3b"/><path d="M451.813,380.758a3.689,3.689,0,1,1,3.685-3.689A3.689,3.689,0,0,1,451.813,380.758Zm0-5.95a2.261,2.261,0,1,0,2.257,2.257,2.261,2.261,0,0,0-2.257-2.257Z" transform="translate(-257.67 -214.694)" fill="#8b2b2b"/><path d="M559.675,400.113H470.523l-11.5-11.475a.715.715,0,1,1,1.012-1.011L471.114,398.7h88.561a.714.714,0,0,1,0,1.428Z" transform="translate(-263.82 -222.765)" fill="#8b2b2b"/><path d="M547.749,50.708a3.689,3.689,0,1,1,2.61-1.082,3.689,3.689,0,0,1-2.61,1.082Zm0-5.95a2.261,2.261,0,1,0,2.261,2.257,2.261,2.261,0,0,0-2.261-2.257Z" transform="translate(-312.835 -24.915)" fill="#3c3c3b"/><path d="M410.59,29.5a.731.731,0,0,1-.506-.208l-11.075-11.08H309.02a.714.714,0,1,1,0-1.424H399.6l11.475,11.475a.723.723,0,0,1,0,1.011A.731.731,0,0,1,410.59,29.5Z" transform="translate(-177.244 -9.651)" fill="#3c3c3b"/><path d="M223.334,155.187H164.216a1.806,1.806,0,0,1-1.806-1.806h0a1.806,1.806,0,0,1,1.806-1.81h59.117a1.806,1.806,0,0,1,1.806,1.81h0A1.806,1.806,0,0,1,223.334,155.187Z" transform="translate(-93.386 -87.153)" fill="#f07373"/><path d="M254.217,141.757H217.926a1.806,1.806,0,0,1-1.806-1.806h0a1.806,1.806,0,0,1,1.806-1.81h36.291a1.806,1.806,0,0,1,1.8,1.811h0A1.806,1.806,0,0,1,254.217,141.757Z" transform="translate(-124.269 -79.431)" fill="#f07373"/><path d="M254.217,128.332H217.926a1.806,1.806,0,0,1-1.806-1.806h0a1.806,1.806,0,0,1,1.806-1.806h36.291a1.806,1.806,0,0,1,1.8,1.819h0a1.806,1.806,0,0,1-1.8,1.793Z" transform="translate(-124.269 -71.714)" fill="#f07373"/><path d="M368.168,7.112H309.05a1.806,1.806,0,0,1-1.81-1.806h0A1.806,1.806,0,0,1,309.05,3.5h59.117a1.806,1.806,0,0,1,1.806,1.806h0a1.806,1.806,0,0,1-1.806,1.806Z" transform="translate(-176.663 -2.012)" fill="#f07373"/><circle cx="12.865" cy="12.865" r="12.865" transform="translate(217.455 207.852) rotate(-67.5)" fill="#82b378"/><path d="M538.851,433.72a10.876,10.876,0,0,1,7.752,18.5l-7.752-7.629-10.162,3.88a10.888,10.888,0,0,1,10.162-14.756Z" transform="translate(-304.589 -243.708)" fill="#fff"/><path d="M556.857,446.32h4.633a.332.332,0,0,1,.327.331h0a.331.331,0,0,1-.327.331h-4.633a.331.331,0,0,1-.327-.331h0A.331.331,0,0,1,556.857,446.32Z" transform="translate(-321.005 -250.953)" fill="#82b378"/><path d="M556.851,448.78h4.633a.331.331,0,0,1,0,.663h-4.633a.331.331,0,0,1,0-.663Z" transform="translate(-321 -252.368)" fill="#82b378"/><path d="M563.2,451.247h1.912a.331.331,0,0,1,0,.659H563.2a.331.331,0,1,1,0-.659Z" transform="translate(-324.629 -253.785)" fill="#82b378"/><path d="M527.06,438.217l5.087-5.087H527.06Z" transform="translate(-304.06 -243.111)" fill="#82b378"/><circle cx="12.865" cy="12.865" r="12.865" transform="matrix(0.05, -0.999, 0.999, 0.05, 264.241, 213.115)" fill="#82b378"/><path d="M630.2,444.6a10.871,10.871,0,1,1,4.28,8.649l6.6-8.649-10.162,3.88A10.884,10.884,0,0,1,630.2,444.6Z" transform="translate(-363.366 -243.717)" fill="#fff"/><path d="M659.292,446.32h4.628a.331.331,0,0,1,.332.331h0a.331.331,0,0,1-.332.331h-4.628a.331.331,0,0,1-.332-.331h0A.331.331,0,0,1,659.292,446.32Z" transform="translate(-379.903 -250.953)" fill="#82b378"/><path d="M659.292,448.78h4.628a.331.331,0,1,1,0,.663h-4.628a.331.331,0,1,1,0-.663Z" transform="translate(-379.903 -252.368)" fill="#82b378"/><path d="M665.631,451.247h1.912a.331.331,0,1,1,0,.659h-1.912a.331.331,0,1,1,0-.659Z" transform="translate(-383.526 -253.785)" fill="#82b378"/><path d="M629.45,438.217l5.087-5.087H629.45Z" transform="translate(-362.935 -243.369)" fill="#82b378"/><path d="M363.62,529.94H66.185a.425.425,0,0,1-.425-.425h0a.425.425,0,0,1,.425-.425H363.62a.425.425,0,0,1,.425.425h0A.425.425,0,0,1,363.62,529.94Z" transform="translate(-37.812 -304.228)" fill="#104d61"/></g></svg>