<svg xmlns="http://www.w3.org/2000/svg" xmlns:xlink="http://www.w3.org/1999/xlink" width="22" height="26" viewBox="0 0 22 26"><defs><style>.a{fill:#fff;}.b{filter:url(#a);}</style><filter id="a" x="0" y="0" width="22" height="26" filterUnits="userSpaceOnUse"><feOffset input="SourceAlpha"/><feGaussianBlur stdDeviation="1" result="b"/><feFlood flood-opacity="0.161"/><feComposite operator="in" in2="b"/><feComposite in="SourceGraphic"/></filter></defs><g class="b" transform="matrix(1, 0, 0, 1, 0, 0)"><path class="a" d="M11.99,5V1l-5,5,5,5V7a6,6,0,1,1-6,6h-2a8,8,0,1,0,8-8Zm-1.1,11h-.85V12.74l-1.01.31v-.69l1.77-.63h.09Zm4.28-1.76a2.784,2.784,0,0,1-.1.82,1.8,1.8,0,0,1-.29.57,1.121,1.121,0,0,1-.45.33,1.554,1.554,0,0,1-.59.1,1.589,1.589,0,0,1-.59-.1,1.152,1.152,0,0,1-.46-.33,1.544,1.544,0,0,1-.3-.57,2.806,2.806,0,0,1-.11-.82V13.5a2.784,2.784,0,0,1,.1-.82,1.8,1.8,0,0,1,.29-.57,1.121,1.121,0,0,1,.45-.33,1.554,1.554,0,0,1,.59-.1,1.589,1.589,0,0,1,.59.1,1.152,1.152,0,0,1,.46.33,1.544,1.544,0,0,1,.3.57,2.806,2.806,0,0,1,.11.82Zm-.85-.86a2.206,2.206,0,0,0-.04-.48,1,1,0,0,0-.12-.31.389.389,0,0,0-.19-.17.7.7,0,0,0-.25-.05.655.655,0,0,0-.25.05.436.436,0,0,0-.19.17,1,1,0,0,0-.12.31,2.206,2.206,0,0,0-.04.48v.97a2.206,2.206,0,0,0,.04.48,1.072,1.072,0,0,0,.12.32.389.389,0,0,0,.19.17.7.7,0,0,0,.25.05.655.655,0,0,0,.25-.05.436.436,0,0,0,.19-.17.858.858,0,0,0,.11-.32,3.083,3.083,0,0,0,.04-.48v-.97Z" transform="translate(-0.99 2)"/></g></svg>