<svg xmlns="http://www.w3.org/2000/svg" xmlns:xlink="http://www.w3.org/1999/xlink" width="181.996" height="185.308" viewBox="0 0 181.996 185.308"><defs><linearGradient id="a" x1="0.5" y1="0.245" x2="0.5" y2="0.788" gradientUnits="objectBoundingBox"><stop offset="0.494" stop-color="#ebeff2"/><stop offset="1" stop-color="#fff"/></linearGradient><linearGradient id="b" x1="0.572" y1="0.036" x2="0.198" y2="2.236" gradientUnits="objectBoundingBox"><stop offset="0" stop-color="#ffc444"/><stop offset="0.996" stop-color="#f36f56"/></linearGradient><linearGradient id="c" x1="0.298" y1="0.021" x2="1.022" y2="1.74" gradientUnits="objectBoundingBox"><stop offset="0" stop-color="#311944"/><stop offset="1" stop-color="#893976"/></linearGradient><linearGradient id="d" x1="3.132" y1="0.1" x2="3.805" y2="1.578" gradientUnits="objectBoundingBox"><stop offset="0" stop-color="#aa80f9"/><stop offset="0.996" stop-color="#6165d7"/></linearGradient><linearGradient id="e" x1="3.886" y1="-0.022" x2="4.861" y2="1.979" xlink:href="#d"/><linearGradient id="f" x1="0.296" y1="0.032" x2="1.027" y2="1.712" xlink:href="#c"/><linearGradient id="g" x1="1.235" y1="0.098" x2="1.935" y2="1.585" gradientUnits="objectBoundingBox"><stop offset="0" stop-color="#ff9085"/><stop offset="1" stop-color="#fb6fbb"/></linearGradient><linearGradient id="h" x1="1.058" y1="-0.016" x2="2.075" y2="1.967" xlink:href="#g"/><linearGradient id="i" x1="0.25" y1="0.077" x2="0.932" y2="1.674" xlink:href="#c"/><linearGradient id="j" x1="-1.665" y1="0.083" x2="-0.958" y2="1.626" xlink:href="#b"/><linearGradient id="k" x1="-1.665" y1="0.083" x2="-0.958" y2="1.626" xlink:href="#g"/><linearGradient id="l" x1="-2.428" y1="-1.103" x2="-0.096" y2="4.069" xlink:href="#g"/><linearGradient id="m" x1="-3.343" y1="-0.016" x2="-2.3" y2="1.988" xlink:href="#g"/><linearGradient id="n" x1="0.307" y1="0.027" x2="1.083" y2="1.928" xlink:href="#c"/><linearGradient id="o" x1="-1.51" y1="0.087" x2="-0.836" y2="1.613" xlink:href="#b"/><linearGradient id="p" x1="0.4" y1="0.361" x2="2.197" y2="2.876" gradientUnits="objectBoundingBox"><stop offset="0.004" stop-color="#e38ddd"/><stop offset="1" stop-color="#9571f6"/></linearGradient><linearGradient id="q" x1="0.333" y1="0.263" x2="1.021" y2="1.677" xlink:href="#p"/><linearGradient id="r" x1="-105.452" y1="0.115" x2="-104.414" y2="1.288" xlink:href="#c"/><linearGradient id="s" x1="-14.227" y1="0.042" x2="-13.647" y2="1.369" xlink:href="#p"/><linearGradient id="t" x1="-12.476" y1="0.95" x2="-12.206" y2="-0.004" xlink:href="#p"/><linearGradient id="u" x1="-113.057" y1="-17.061" x2="-112.006" y2="-15.612" gradientUnits="objectBoundingBox"><stop offset="0" stop-color="#444b8c"/><stop offset="0.996" stop-color="#26264f"/></linearGradient><linearGradient id="v" x1="-170.109" y1="-6.628" x2="-170.109" y2="-7.98" xlink:href="#b"/><linearGradient id="w" x1="-143.708" y1="-21.52" x2="-142.376" y2="-19.731" xlink:href="#u"/><linearGradient id="x" x1="-110.426" y1="-0.515" x2="-109.332" y2="0.793" xlink:href="#u"/><linearGradient id="y" x1="-205.381" y1="1.222" x2="-205.381" y2="-0.193" xlink:href="#b"/><linearGradient id="z" x1="4.044" y1="1.09" x2="3.387" y2="-0.252" xlink:href="#u"/><linearGradient id="aa" x1="-18.717" y1="-0.664" x2="-17.903" y2="0.761" xlink:href="#p"/><linearGradient id="ab" x1="-137.746" y1="-1.298" x2="-136.386" y2="0.479" xlink:href="#u"/><linearGradient id="ac" x1="-19.686" y1="7.239" x2="-18.423" y2="8.888" xlink:href="#c"/><linearGradient id="ad" x1="-216.397" y1="54.868" x2="-202.078" y2="68.658" xlink:href="#c"/></defs><g transform="translate(-429.892 -380.158)"><path d="M473.642,403.084c-6.113,8.91,1.055,23.356-8.015,30.057-8.829,6.523-19.675-4.169-28,1.446-12.343,8.33-10.089,46.445,7.957,70.127,5.427,7.122,9.962,9.893,11.97,17.948,4.313,17.3-10.844,27.583-7.96,36.137,6.494,19.26,106.373,35.422,146.449-22.462,18.717-27.034,21.517-66.071,4.794-95.721C570.625,387.042,487.358,383.091,473.642,403.084Z" transform="translate(0 -11.08)" fill="#f4f7fa"/><g transform="translate(430.78 385.183)"><g transform="translate(67.191 130.082)"><path d="M1544.284,2540.348a7.536,7.536,0,0,1-5-5.674l-3.714-18.383-31.772,1.128-3.91,19.151c-.548,2.682,1.645,5.372,4.169,6.36l13.293,5.2a17.272,17.272,0,0,0,7.771,1.126l28.092-2.4a1.743,1.743,0,0,0,1.576-1.544c.1-.828.671-1.758-.112-2.018Z" transform="translate(-1499.806 -2515.475)" fill="#97a6b7"/><path d="M1560.362,2527.229a7.471,7.471,0,0,1-4.992-5.6l-3.71-18.152-31,1.115-3.906,18.91a5.533,5.533,0,0,0,3.423,6.28l13.279,5.135a17.435,17.435,0,0,0,7.763,1.112l28.064-2.373a1.732,1.732,0,0,0,.394-3.371Z" transform="translate(-1515.57 -2503.474)" fill="url(#a)"/></g><g transform="translate(0 26.575)"><path d="M450.11,993.316c-3.445.205-6.264-2.03-6.264-4.984V881.868c0-2.954,2.819-5.235,6.264-5.086l4.672,3.136,154.666,3.768a4.816,4.816,0,0,1,4.578,4.755v90.547a4.914,4.914,0,0,1-4.578,4.829Z" transform="translate(-443.846 -876.775)" fill="#97a6b7"/><path d="M472.615,993.316c-3.445.205-6.264-2.03-6.264-4.984V881.868c0-2.954,2.819-5.235,6.264-5.086l159.338,6.9a4.816,4.816,0,0,1,4.578,4.755v90.547a4.914,4.914,0,0,1-4.578,4.829Z" transform="translate(-464.919 -876.775)" fill="#fff"/><path d="M674.992,922.365,515.654,915.81a2.979,2.979,0,0,0-3.34,2.719v106.191a2.923,2.923,0,0,0,3.34,2.664l159.338-9.15a2.623,2.623,0,0,0,2.452-2.581V924.906A2.571,2.571,0,0,0,674.992,922.365Z" transform="translate(-507.957 -913.323)" fill="#d8dee8" opacity="0.3" style="mix-blend-mode:multiply;isolation:isolate"/><path d="M545.649,1043.919a1.15,1.15,0,0,1-1.3-1.048V944.188a1.164,1.164,0,0,1,1.3-1.061l159.338,6.311a1,1,0,0,1,.958.992v84.612a1.017,1.017,0,0,1-.958,1Z" transform="translate(-537.953 -938.903)" fill="url(#b)"/><path d="M615.319,977.227c-13.405-8.292-4.042-31.869-19.1-43.714-15.177-11.943-36.534,2.705-47.166-9.663-7.916-9.209,1.347-20.329-6.212-28.99-11.854-13.582-42.2,5.1-56.139-8.283a18.749,18.749,0,0,1-5.114-9.406l-8.978-.389c-3.445-.149-6.264,2.132-6.264,5.086V988.332c0,2.954,2.819,5.189,6.264,4.984l159.338-9.5a4.914,4.914,0,0,0,4.578-4.829v-1.61C625.951,980.968,619.483,979.8,615.319,977.227Z" transform="translate(-464.919 -876.775)" fill="#fff" opacity="0.6" style="mix-blend-mode:soft-light;isolation:isolate"/></g><path d="M1196.345,584.547l-98.087,4.686V462.089a2.958,2.958,0,0,1,3.131-2.953l92.171,5.4a2.958,2.958,0,0,1,2.785,2.953Z" transform="translate(-1056.618 -459.131)" fill="#d8dee8"/><g transform="translate(50.495 13.19)" opacity="0.75"><path d="M1250.76,679.127l-13.35-.507V666.426l13.35.641Z" transform="translate(-1237.409 -666.426)" fill="#fff"/><path d="M1528.075,685.466l-31.911-1.393v-5.224l31.911,1.532Z" transform="translate(-1479.699 -678.059)" fill="#fff"/><path d="M1518.865,791.893l-22.7-.862v-5.224l22.7.961Z" transform="translate(-1479.699 -778.211)" fill="#fff"/><path d="M1319.043,1634.872l-81.634.475v-3.85l81.634-.216Z" transform="translate(-1237.409 -1569.887)" fill="#fff"/><path d="M1319.043,1721.567l-81.634.872v-3.85l81.634-.613Z" transform="translate(-1237.409 -1651.065)" fill="#fff"/><path d="M1319.043,1808.261l-81.634,1.269v-3.85l81.634-1.01Z" transform="translate(-1237.409 -1732.243)" fill="#fff"/><path d="M1319.043,1894.955l-81.634,1.665v-3.85l81.634-1.407Z" transform="translate(-1237.409 -1813.421)" fill="#fff"/><path d="M1237.409,916.072v42.1l81.634.027V918.925Zm50.643,20.653-3.522,3.171a.5.5,0,0,0-.16.46l.834,4.58a.534.534,0,0,1-.656.593.58.58,0,0,1-.366-.054l-4.386-2.216a.6.6,0,0,0-.151-.051.581.581,0,0,0-.151.047l-4.422,2.118a.587.587,0,0,1-.372.046.555.555,0,0,1-.668-.613l.849-4.6a.512.512,0,0,0-.162-.469l-3.6-3.331a.513.513,0,0,1,.315-.894l4.971-.574a.548.548,0,0,0,.424-.279l2.208-4.133a.555.555,0,0,1,.612-.267.582.582,0,0,1,.611.3l2.2,4.218a.57.57,0,0,0,.42.295l4.876.763A.519.519,0,0,1,1288.052,936.725Z" transform="translate(-1237.409 -900.187)" fill="#fff"/></g></g><g transform="translate(441.563 431.843)"><path d="M653.779,1211.329c0-.044,0-.088-.006-.132q-.016-.3-.044-.6c0-.052-.011-.1-.016-.156q-.026-.252-.061-.5c-.008-.061-.017-.122-.026-.183q-.037-.24-.081-.479c-.015-.082-.031-.164-.047-.247-.032-.158-.066-.315-.1-.472-.025-.1-.051-.207-.078-.31-.019-.073-.038-.145-.058-.218q-.091-.331-.2-.658l-.017-.052a17.066,17.066,0,0,0-3.259-5.739l0,.009A22.642,22.642,0,0,0,633.94,1194c-11.3-.692-20.634,6.528-20.634,16.139,0,8.511,7.323,15.8,16.845,17.588l.039.008q.426.079.858.143l.1.014q.418.06.84.107l.115.012c.282.029.566.055.851.074l.092.006c.3.019.6.035.9.043,11.059.318,19.855-6.926,19.855-16.174C653.795,1211.752,653.789,1211.541,653.779,1211.329Z" transform="translate(-613.306 -1193.861)" fill="url(#c)"/><g transform="translate(1.419 0)"><path d="M635.6,1208.6c0,9.611,9.337,17.67,20.634,18,11.059.318,19.855-6.926,19.855-16.174s-8.8-17.283-19.855-17.96C644.941,1191.772,635.6,1198.992,635.6,1208.6Z" transform="translate(-635.604 -1192.418)" fill="url(#d)"/><path d="M845.338,1293.035c0,2.764,3.073,9.314,5.226,13.562a2.286,2.286,0,0,0,4.118.147c2.127-4.062,5.134-10.283,5.134-13.009a7.922,7.922,0,0,0-7.189-8.016A7.039,7.039,0,0,0,845.338,1293.035Zm3.388.164a3.781,3.781,0,0,1,3.9-3.929,4.252,4.252,0,0,1,3.872,4.3,3.784,3.784,0,0,1-3.872,3.93A4.247,4.247,0,0,1,848.726,1293.2Z" transform="translate(-831.993 -1279.772)" fill="#fff"/><g transform="translate(13.319 7.628)" opacity="0.3" style="mix-blend-mode:multiply;isolation:isolate"><path d="M847.3,1334.336c2.459-4.971-.027-9.8,3.295-12.921,3.353-3.152,7.678.116,12.294-2.341,1.774-.944,3.738-2.813,5.194-6.781a16.015,16.015,0,0,1,4.009,10.378c0,9.248-8.8,16.492-19.855,16.174a24.118,24.118,0,0,1-7.315-1.351A10.83,10.83,0,0,0,847.3,1334.336Z" transform="translate(-844.924 -1312.293)" fill="url(#e)"/></g></g></g><g transform="translate(464.476 461.382)"><path d="M1029.474,1682.662c0-.063,0-.127-.008-.191q-.022-.425-.059-.846c-.007-.077-.016-.153-.023-.23q-.036-.349-.082-.7c-.013-.1-.027-.2-.042-.3q-.048-.323-.106-.643c-.022-.126-.045-.251-.07-.376q-.056-.283-.12-.565c-.043-.189-.088-.378-.136-.566-.02-.08-.041-.159-.062-.239a23.62,23.62,0,0,0-4.8-9.129l-.005.014a29.982,29.982,0,0,0-21.894-10.289c-15.67-.583-28.659,10.135-28.659,23.953,0,12.241,10.195,22.416,23.416,24.566l.041.007q.595.1,1.2.169l.129.015q.581.07,1.168.117l.158.012q.587.046,1.179.071l.129,0c.411.015.825.024,1.24.024,15.294-.018,27.425-10.752,27.425-23.975C1029.5,1683.266,1029.487,1682.964,1029.474,1682.662Z" transform="translate(-973.412 -1658.461)" fill="url(#f)"/><g transform="translate(1.779 0)"><path d="M1001.369,1680.626c0,13.818,12.989,25,28.659,24.986,15.294-.018,27.425-10.752,27.425-23.975s-12.131-24.394-27.425-24.964C1014.358,1656.09,1001.369,1666.808,1001.369,1680.626Z" transform="translate(-1001.369 -1656.651)" fill="url(#g)"/><g transform="translate(18.124 7.732)"><path d="M1288.809,1811.514l1.228-9.208-3.833-.047v-4.75l4.588.073.753-5.747-4.014-.082v-4.8l4.673.113,1.175-8.906,4.164.129-1.167,8.877,4.238.1,1.205-8.846,4.109.128-1.2,8.817,3.678.089v4.719l-4.324-.088-.739,5.691,3.824.061v4.672l-4.517-.055-1.158,9.118-4.185-.021,1.165-9.148-4.251-.052-1.173,9.178Zm10.41-13.8.744-5.709-4.242-.086-.749,5.728Z" transform="translate(-1286.204 -1778.164)" fill="#fff"/></g><g transform="translate(18.517 10.297)" opacity="0.3" style="mix-blend-mode:multiply;isolation:isolate"><path d="M1295.686,1850.885c3.408-7.233-.038-14.057,4.567-18.668,4.644-4.65,10.628-.137,17.006-3.836,2.449-1.42,5.16-4.171,7.168-9.9a22.793,22.793,0,0,1,5.525,14.689c0,13.223-12.131,23.957-27.425,23.975a31.944,31.944,0,0,1-10.141-1.625A16.192,16.192,0,0,0,1295.686,1850.885Z" transform="translate(-1292.386 -1818.478)" fill="url(#h)"/></g></g></g><g transform="translate(547.937 398.858)"><path d="M2346.578,705.383c0-.05,0-.1-.005-.15-.005-.154-.012-.308-.021-.461,0-.044,0-.087-.008-.131q-.016-.268-.039-.535l0-.033a22.431,22.431,0,0,0-5.641-12.926l-.01.029c-5.222-5.945-13.635-9.356-23.263-9.358-17.138,0-31.63,11.617-31.63,26.49a22.466,22.466,0,0,0,6.951,16.171,30.7,30.7,0,0,1-7.848,8.156c9.04,4.9,16.033-.74,18.623-2.988,1.564.562,3.109,1.39,4.718,2.064a2.67,2.67,0,0,1,3.193-1.62,10.136,10.136,0,0,0,1.382.419c.24.054.483.1.725.141l.143.027.129.013c.966.1,1.937.18,2.906.255a62.186,62.186,0,0,0,6.447.147,2.408,2.408,0,0,1,1.433.424,34.6,34.6,0,0,0,4.936-1.826q.643-.3,1.268-.616,1.25-.639,2.424-1.37a31.735,31.735,0,0,0,3.845-2.81q1.022-.872,1.948-1.818.694-.709,1.333-1.455.212-.248.418-.5.617-.757,1.175-1.549a26.193,26.193,0,0,0,1.681-2.722q.3-.56.57-1.133c.09-.191.178-.383.262-.575q.254-.578.478-1.166.111-.294.215-.591.207-.593.382-1.2a22.727,22.727,0,0,0,.565-2.444q.108-.619.18-1.244t.109-1.257q.037-.631.037-1.268C2346.587,705.777,2346.583,705.58,2346.578,705.383Z" transform="translate(-2285.061 -681.323)" fill="url(#i)"/><g transform="translate(0.903 0)"><path d="M2313.365,700.963c0,14.872,14.556,25.806,31.694,24.484,16.3-1.257,28.934-13.239,28.934-26.816s-12.636-24.587-28.934-24.59C2327.921,674.038,2313.365,686.091,2313.365,700.963Z" transform="translate(-2312.467 -674.041)" fill="url(#j)"/><path d="M2313.365,700.963c0,14.872,14.556,25.806,31.694,24.484,16.3-1.257,28.934-13.239,28.934-26.816s-12.636-24.587-28.934-24.59C2327.921,674.038,2313.365,686.091,2313.365,700.963Z" transform="translate(-2312.467 -674.041)" fill="url(#k)"/><path d="M2318.748,1269.618s-7.762,9.2-19.491,2.845c0,0,9.445-6.457,9.856-14.067Z" transform="translate(-2299.257 -1221.214)" fill="url(#l)"/><g transform="translate(15.737 21.797)"><path d="M2965.172,1020.129a3.128,3.128,0,0,0,3.145,3.286,3.437,3.437,0,0,0,3.115-3.527,3.132,3.132,0,0,0-3.115-3.287A3.431,3.431,0,0,0,2965.172,1020.129Z" transform="translate(-2938.537 -1016.6)" fill="#fff"/><path d="M2546.572,1034.053a3.312,3.312,0,0,0,3.405,3.414,3.638,3.638,0,0,0,3.372-3.675,3.315,3.315,0,0,0-3.372-3.415A3.633,3.633,0,0,0,2546.572,1034.053Z" transform="translate(-2546.572 -1029.499)" fill="#fff"/><path d="M2760.043,1026.953a3.217,3.217,0,0,0,3.271,3.349,3.534,3.534,0,0,0,3.24-3.6,3.221,3.221,0,0,0-3.24-3.35A3.529,3.529,0,0,0,2760.043,1026.953Z" transform="translate(-2746.46 -1022.921)" fill="#fff"/></g><g transform="translate(21.552 9.761)" opacity="0.3" style="mix-blend-mode:multiply;isolation:isolate"><path d="M2641.575,863.045c3.71-7.882-.041-14.848,4.967-20s11.414-.778,18.166-4.991c2.573-1.606,5.411-4.594,7.5-10.608a22.293,22.293,0,0,1,5.724,14.829c0,13.577-12.636,25.559-28.934,26.816a34.858,34.858,0,0,1-11.04-.883A18.992,18.992,0,0,0,2641.575,863.045Z" transform="translate(-2637.962 -827.448)" fill="url(#m)"/></g></g></g><g transform="translate(535.777 380.158)"><path d="M2133.748,397.136c0-.035,0-.07,0-.1,0-.095-.007-.19-.013-.284,0-.034,0-.068-.006-.1q-.01-.155-.024-.309c0-.021,0-.042-.005-.063a14.65,14.65,0,0,0-3.814-8.436l0,.012a21.491,21.491,0,0,0-15.445-6.7c-11.157-.3-20.471,6.953-20.471,16.22,0,8.217,7.323,14.908,16.761,16.163h0q.192.025.385.047l.1.012.33.034.163.016.3.025.2.015.269.018.235.013.245.011.269.009.218.006.318,0h.175c.166,0,.331,0,.5,0a23.383,23.383,0,0,0,7.808-1.483c1.883,1.207,5.54,2.583,10.157-.448a16.553,16.553,0,0,1-3.779-3.4c.369-.334.723-.679,1.057-1.037q.143-.152.281-.308.276-.31.535-.632t.5-.653a15.126,15.126,0,0,0,1.608-2.8q.241-.551.434-1.119c.085-.252.165-.507.235-.764a13.458,13.458,0,0,0,.463-2.771q.025-.405.025-.816C2133.754,397.389,2133.751,397.262,2133.748,397.136Z" transform="translate(-2093.961 -381.078)" fill="url(#n)"/><g transform="translate(0.903 0)"><path d="M2108.156,396.388c0,9.267,9.313,16.594,20.471,16.371,10.807-.216,19.322-7.477,19.322-16.225s-8.515-16.071-19.322-16.367C2117.469,379.863,2108.156,387.121,2108.156,396.388Z" transform="translate(-2108.156 -380.158)" fill="url(#o)"/><path d="M2142.813,407.432a14.713,14.713,0,0,0,5.136-10.9c0-8.747-8.515-16.071-19.322-16.367-11.157-.3-20.47,6.953-20.47,16.22s9.313,16.594,20.47,16.371a23.379,23.379,0,0,0,7.808-1.483c1.883,1.207,5.54,2.583,10.157-.448A16.555,16.555,0,0,1,2142.813,407.432Z" transform="translate(-2108.157 -380.158)" fill="url(#p)"/><g transform="translate(9.496 14.042)"><path d="M2531.429,604.874a2.088,2.088,0,1,0,2.093-2.168A2.141,2.141,0,0,0,2531.429,604.874Z" transform="translate(-2513.992 -602.587)" fill="#fff"/><path d="M2257.4,603.057a2.194,2.194,0,1,0,2.2-2.223A2.222,2.222,0,0,0,2257.4,603.057Z" transform="translate(-2257.396 -600.834)" fill="#fff"/><path d="M2396.141,603.976a2.14,2.14,0,1,0,2.146-2.195A2.181,2.181,0,0,0,2396.141,603.976Z" transform="translate(-2387.313 -601.721)" fill="#fff"/></g><path d="M2337.939,505.986a14.711,14.711,0,0,0,5.136-10.9,14.452,14.452,0,0,0-3.872-9.679c-1.41,3.812-3.315,5.658-5.039,6.621-4.5,2.514-8.732-.435-12.026,2.7-3.273,3.119-.823,7.632-3.246,12.5a11.131,11.131,0,0,1-2.351,3.134,23.91,23.91,0,0,0,7.211.949,23.385,23.385,0,0,0,7.808-1.483c1.883,1.207,5.54,2.583,10.157-.448A16.555,16.555,0,0,1,2337.939,505.986Z" transform="translate(-2303.282 -478.713)" opacity="0.3" fill="url(#q)" style="mix-blend-mode:multiply;isolation:isolate"/></g></g><g transform="translate(536.998 449.253)"><path d="M2117.417,1474.139s-.867-4.53-1.734-5.88a7.664,7.664,0,0,0-2.486-2.217s-.337.555.737,1.723.179,1.284,0,1.66a2.462,2.462,0,0,0,.978,2.208c.771.482,1.061,3.109,1.061,3.109Z" transform="translate(-2113.146 -1466.042)" fill="url(#r)"/><path d="M2140.884,1577.1l2.8-.482a44.035,44.035,0,0,0,9.9,12.463c3.144,2.726,5.173,4.486,8.508,5.368,4.927,1.3,9.182-.227,9.735,1.156.27.677-.667,1.409-2.169,3.2-4.371,5.231-3.958,8.043-6.361,8.819-1.985.642-3.983-.738-7.374-3.156a34.14,34.14,0,0,1-10.216-10.217A32.612,32.612,0,0,1,2140.884,1577.1Z" transform="translate(-2139.119 -1569.583)" fill="url(#s)"/><path d="M2593.269,1883.861c.453.171,7.361,2.918,8.781,10.128.114.583,1.225,6.777-2.977,11.154-4.711,4.907-13.782,4.785-17.382.683a7.353,7.353,0,0,1-1.531-2.908h0l.949-2.521a6.175,6.175,0,0,1,3.576-1.936c2.075-.511,3.642.413,4.83-.588a3.127,3.127,0,0,0,.905-2.062c.4-2.425-.971-3.917-1.071-5.412-.074-1.118-.465-3.567.994-5.164A4.709,4.709,0,0,1,2593.269,1883.861Z" transform="translate(-2550.445 -1857.275)" fill="url(#t)"/><path d="M2828.429,3138.61c.081-.444,1.514-.845,2.224-.251.352.3.6.894.391,1.164-.074.1.23.271-.062.275C2830.017,3139.809,2828.349,3139.051,2828.429,3138.61Z" transform="translate(-2782.913 -3031.669)" fill="url(#u)"/><path d="M2842.514,3095.543l1.474-.208c-.683-.822-.557-3.441-.557-3.441l-1.567.35s.179.719.482,1.779A6.926,6.926,0,0,1,2842.514,3095.543Z" transform="translate(-2795.496 -2988.441)" fill="url(#v)"/><path d="M2849.653,3143.453s1.775-.409,1.967-.057.341,1.295-.785,1.265S2849.554,3143.751,2849.653,3143.453Z" transform="translate(-2802.765 -3036.532)" fill="url(#w)"/><path d="M2510.438,3167.146c.142-.428,1.618-.625,2.237.063.308.342.464.968.224,1.207-.087.087.19.3-.1.264C2511.842,3168.555,2510.3,3167.571,2510.438,3167.146Z" transform="translate(-2485.149 -3058.54)" fill="url(#x)"/><path d="M2530.918,3127.4h1.489c-.562-.91-.07-3.485-.07-3.485l-1.6.127s.076.737.229,1.829A6.935,6.935,0,0,1,2530.918,3127.4Z" transform="translate(-2504.165 -3018.425)" fill="url(#y)"/><path d="M2431.786,2276.048a68.861,68.861,0,0,0-2.309,10.566c-1.809,13.155,2.036,13.575,1.317,28.152-.229,4.654,4.032,15.383,4.407,15.62a4.62,4.62,0,0,0,.589.023,5.854,5.854,0,0,0,1.5-.25c.675-.116,3.108-6.707,2.544-10.625-.4-2.773-.283-5.75-.052-11.7.038-.964,2.505-18.766,2.505-18.766h0c.75,6.589,1.614,12.188,2.362,16.528,2.405,13.945,10.223,22.387,10.631,22.522a1.655,1.655,0,0,0,1.415-.1.975.975,0,0,0,.357-.4c.209-.164-.062-13.923-2.446-24.278-3.461-15.03-1.954-18.547-3.051-25.261C2450.607,2272.268,2431.786,2276.048,2431.786,2276.048Z" transform="translate(-2408.891 -2223.375)" fill="url(#z)"/><path d="M2463.058,1862.906c-2.3-.068-7.58-.879-10.49,1.739-.051.046.545.364.252.708a19,19,0,0,0-2.054,2.947,19.768,19.768,0,0,0-1.727,4.271,36.69,36.69,0,0,0-1.363,7.45c-.531,6.994,0,10.221.474,12.415a24.207,24.207,0,0,0,13.812,2.028,21.553,21.553,0,0,0,6.885-2.268c-1.656-5.012-.356-7.694.256-10.166.874-3.525.888-3.258,1.607-6.058,1.187-4.62,1.382-9.341.566-10.307C2469.077,1863.062,2465.115,1862.967,2463.058,1862.906Z" transform="translate(-2426.182 -1837.494)" fill="url(#aa)"/><path d="M2531.089,3175.1s1.814-.157,1.955.219.157,1.33-.954,1.142S2530.949,3175.378,2531.089,3175.1Z" transform="translate(-2504.44 -3066.319)" fill="url(#ab)"/><g transform="translate(29.166 11.961)"><path d="M2574.4,1728.577a4,4,0,0,1,.429-2.862c.609-1.125.766-1.278,1.057-1.473l.4-.25.048-.018a4.677,4.677,0,0,1,1.323-.081c.572.122,1.182,2.454,1.008,5.75q.036.188.069.38c.09.521.162,1.031.217,1.53a1.278,1.278,0,0,0,.819,1.054c3.042,1.148,3.036.231,3.35,1.219.171.538-3.283,1.407-4.982,1.211-3.823.028-6.933-.379-6.6-.98.148-.267,3.11-1.041,3.944-1.809a2.55,2.55,0,0,0,.763-1.947C2576.018,1730.182,2574.676,1729.569,2574.4,1728.577Z" transform="translate(-2571.517 -1719.432)" fill="url(#ac)"/><path d="M2627.849,1657.638a3.84,3.84,0,0,0,.73,2.287,1.692,1.692,0,0,1,.37.4.522.522,0,0,1,.058.12c.224.644-.8,1.4-.6,1.689.144.209.839-.071.921.11s-.5.522-.412.725c.066.154.422.013.646.248.112.117.079.21.2.568a3.212,3.212,0,0,0,.233.548c.353.6,1.353.819,1.545.579.054-.067.007-.123.062-.348a1.8,1.8,0,0,1,.2-.448,4.66,4.66,0,0,1,1.21-.952,3.312,3.312,0,0,0,1.262-1.438c.027-.069.044-.121.056-.158a3.8,3.8,0,0,0-.1-2.539c-.567-1.139-1.846-.6-2.892-1.727-1.208-1.3-.489-3.082-1.144-3.279C2629.469,1653.812,2627.843,1655.749,2627.849,1657.638Z" transform="translate(-2624.264 -1654.012)" fill="#26264f"/><path d="M2636.789,1775.828c.251-.344.69-.021.693.424s-.429.907-.847.82S2636.453,1776.291,2636.789,1775.828Z" transform="translate(-2632.282 -1767.941)" fill="url(#ad)"/></g><path d="M2770.088,2089.7a.064.064,0,0,1-.063-.057,13.986,13.986,0,0,1,.686-5.838c.109-.385.213-.749.3-1.112.5-2,.713-2.776.944-3.595.15-.532.3-1.082.544-2a.063.063,0,0,1,.078-.046.064.064,0,0,1,.046.078c-.24.92-.395,1.471-.544,2-.23.818-.447,1.59-.943,3.591-.09.366-.194.731-.3,1.117a13.875,13.875,0,0,0-.682,5.789.065.065,0,0,1-.057.071Z" transform="translate(-2728.155 -2038.175)" fill="#9b305e"/><path d="M2608.345,1766.25l-.581.756s-.626.925-.992.418c-.3-.415-.376-.405-.395-.388,0,0,0,.008,0,.008s.044-.206.088-.386a3.387,3.387,0,0,0-.5,1.066,1.886,1.886,0,0,0,.006,1.458,1.449,1.449,0,0,0,.854.667,3.83,3.83,0,0,0,1.122-.11s-.992-.719-1.007-.891c-.041-.465.6-.716,1.082-1.669A3.831,3.831,0,0,0,2608.345,1766.25Z" transform="translate(-2574.468 -1747.148)" fill="#26264f"/></g></g></svg>