<svg xmlns="http://www.w3.org/2000/svg" width="587" height="563" viewBox="0 0 587 563"><g transform="translate(-356 -135)"><rect width="258" height="10" rx="4" transform="translate(356 135)" fill="#e3e8f1"/><rect width="473" height="23" rx="6" transform="translate(356 156)" fill="#e3e8f1"/><rect width="473" height="16" rx="5" transform="translate(356 289)" fill="#e3e8f1"/><rect width="493" height="16" rx="5" transform="translate(356 313)" fill="#e3e8f1"/><rect width="518" height="16" rx="5" transform="translate(356 338)" fill="#e3e8f1"/><rect width="518" height="16" rx="5" transform="translate(356 362)" fill="#e3e8f1"/><rect width="526" height="16" rx="5" transform="translate(356 386)" fill="#e3e8f1"/><rect width="477" height="16" rx="5" transform="translate(356 411)" fill="#e3e8f1"/><rect width="493" height="16" rx="5" transform="translate(356 435)" fill="#e3e8f1"/><rect width="121" height="16" rx="5" transform="translate(403 505)" fill="#e3e8f1"/><rect width="31" height="16" rx="5" transform="translate(564 505)" fill="#e3e8f1"/><rect width="31" height="16" rx="5" transform="translate(899 505)" fill="#e3e8f1"/><rect width="31" height="16" rx="5" transform="translate(564 564)" fill="#e3e8f1"/><rect width="31" height="16" rx="5" transform="translate(899 564)" fill="#e3e8f1"/><rect width="130" height="38" rx="5" transform="translate(813 660)" fill="#e3e8f1"/><rect width="121" height="16" rx="5" transform="translate(403 564)" fill="#e3e8f1"/><rect width="121" height="16" rx="5" transform="translate(712 564)" fill="#e3e8f1"/><rect width="147" height="16" rx="5" transform="translate(712 505)" fill="#e3e8f1"/><rect width="473" height="34" rx="6" transform="translate(395 230)" fill="#e3e8f1"/><rect width="20" height="20" rx="2" transform="translate(361 235)" fill="#e3e8f1"/><rect width="20" height="20" rx="4" transform="translate(361 502)" fill="#e3e8f1"/><rect width="20" height="20" rx="10" transform="translate(361 564)" fill="#e3e8f1"/><rect width="20" height="20" rx="10" transform="translate(682 564)" fill="#e3e8f1"/><rect width="20" height="20" rx="10" transform="translate(682 503)" fill="#e3e8f1"/></g></svg>