<svg xmlns="http://www.w3.org/2000/svg" width="36.348" height="35.51" viewBox="0 0 36.348 35.51"><g transform="translate(-4587.006 -408.493)"><path d="M4618.827,408.5a4.81,4.81,0,0,1,4.524,4.619,1.571,1.571,0,0,0-.069.754q-.005,12.293,0,24.585a1.509,1.509,0,0,0,.072.753,4.91,4.91,0,0,1-5.08,4.784c-5.414.017-10.828.005-16.242.005-3.347,0-6.7.019-10.042-.007a4.886,4.886,0,0,1-4.979-4.607,1.268,1.268,0,0,0,.085-.748q.006-12.392,0-24.781a1.192,1.192,0,0,0-.09-.746,4.782,4.782,0,0,1,4.545-4.613,6,6,0,0,0,1.544,0q12.093.02,24.186,0A6.4,6.4,0,0,0,4618.827,408.5Z" fill="#3cacee"/><path d="M4599.74,432.36a6.493,6.493,0,0,1-3.684-1.565,5.516,5.516,0,0,1-1.218-1.646c-.189-.4-.243-.637.373-.547a2.554,2.554,0,0,0,1.583-.175,6.652,6.652,0,0,1-2.883-1.823,5.671,5.671,0,0,1-1.266-2.764c-.09-.522-.044-.851.656-.543a9.055,9.055,0,0,0,1.45.372c.008-.407-.319-.5-.493-.689a5.383,5.383,0,0,1-1.26-5.768c.289-.829.386-.832.969-.218a15.831,15.831,0,0,0,10.2,5.02c.621.063.778-.024.711-.679a5.341,5.341,0,0,1,3.144-5.424,5.619,5.619,0,0,1,6.021.8,1.127,1.127,0,0,0,1.19.214,22.039,22.039,0,0,0,2.75-1.073,5.457,5.457,0,0,1-2.131,2.839,12.116,12.116,0,0,0,2.9-.69,9.5,9.5,0,0,1-2.061,2.253,1.528,1.528,0,0,0-.649,1.286c-.269,6.381-3.168,11.268-9.114,14.037a15.722,15.722,0,0,1-14.45-.417c-.215-.111-.5-.162-.617-.555A11.035,11.035,0,0,0,4599.74,432.36Z" fill="#fdfdfd"/></g></svg>