<svg xmlns="http://www.w3.org/2000/svg" xmlns:xlink="http://www.w3.org/1999/xlink" width="254.269" height="25.364" viewBox="0 0 254.269 25.364"><defs><filter id="a" x="-9" y="-6" width="272.269" height="43.364" filterUnits="userSpaceOnUse"><feOffset dy="3" input="SourceAlpha"/><feGaussianBlur stdDeviation="3" result="b"/><feFlood flood-color="#cecece" flood-opacity="0.161"/><feComposite operator="in" in2="b"/><feComposite in="SourceGraphic"/></filter><clipPath id="c"><g transform="matrix(1, 0, 0, 1, 0, 0)" filter="url(#a)"><path d="M7.928.439,249.3.238c2.209,0,5.213,2.651,5.213,3.023l.484,21.5c0,.372-1.791.674-4,.674H4c-2.209,0-3.2.372-3.2,0V5.672C.8,5.3-.492-.184,7.928.439Z" transform="translate(74 4136.04)" fill="none" stroke="#e76272" stroke-width="1"/></g></clipPath></defs><g transform="translate(-74.731 -4136.282)" clip-path="url(#c)"><g transform="translate(1191.469 3543.777)" style="isolation:isolate"><g transform="translate(-380.135 -283.236)"><g transform="translate(14.454 1.561)"><path d="M-638.623-205.465l23.7-14.262a5.292,5.292,0,0,0,1.806-7.261h0a5.292,5.292,0,0,0-7.261-1.806l-23.7,14.262a5.291,5.291,0,0,0-1.807,7.261h0A5.292,5.292,0,0,0-638.623-205.465Z" transform="translate(686.07 291.342)" fill="none" stroke="#d52234" stroke-miterlimit="10" stroke-width="3"/><path d="M-643.325-197.649l23.7-14.262a5.291,5.291,0,0,0,1.806-7.261h0a5.29,5.29,0,0,0-7.261-1.806l-23.7,14.262a5.29,5.29,0,0,0-1.806,7.26h0A5.291,5.291,0,0,0-643.325-197.649Z" transform="translate(696.294 292.702)" fill="none" stroke="#d52234" stroke-miterlimit="10" stroke-width="3"/><path d="M-577.087-247.22h0c-.008.09-.016.18-.026.27a71.678,71.678,0,0,0,3.171,26.78l-25.487,15.041a71.7,71.7,0,0,0-21.911-15.719l-.249-.108h0q-1.3-.562-2.551-1.239a31.785,31.785,0,0,1-12.233-11.821A31.931,31.931,0,0,1-625.1-277.745a31.929,31.929,0,0,1,43.728,11.271,31.77,31.77,0,0,1,4.435,16.424C-576.945-249.1-577-248.16-577.087-247.22Z" transform="translate(640.81 282.182)" fill="none" stroke="#d52234" stroke-miterlimit="10" stroke-width="3"/><path d="M-627.649-212.6a12.615,12.615,0,0,1-5.747,14.219,12.615,12.615,0,0,1-15.071-1.693Z" transform="translate(703.053 294.292)" fill="none" stroke="#d52234" stroke-miterlimit="10" stroke-width="3"/><path d="M-617.863-221.006l-13.544-22.95a4.751,4.751,0,0,1,1.678-6.505,4.75,4.75,0,0,1,6.505,1.677,4.75,4.75,0,0,1-1.677,6.505l-9.088,5.364" transform="translate(676.721 287.588)" fill="none" stroke="#d52234" stroke-miterlimit="10" stroke-width="3"/><path d="M-603.089-216.7l-13.544-22.949a4.751,4.751,0,0,0-6.506-1.676,4.75,4.75,0,0,0-1.677,6.505,4.751,4.751,0,0,0,6.507,1.676l9.088-5.363" transform="translate(651.955 289.178)" fill="none" stroke="#d52234" stroke-miterlimit="10" stroke-width="3"/></g><g transform="translate(-0.001 49.924)"><line x1="7.675" y2="4.53" transform="translate(7.278 9.595)" fill="none" stroke="#d52234" stroke-linecap="round" stroke-miterlimit="10" stroke-width="3"/><line x1="8.894" y2="0.574" transform="translate(0)" fill="none" stroke="#d52234" stroke-linecap="round" stroke-miterlimit="10" stroke-width="3"/><line x1="4.802" y2="7.508" transform="translate(17.882 17.269)" fill="none" stroke="#d52234" stroke-linecap="round" stroke-miterlimit="10" stroke-width="3"/></g><g transform="translate(80.765 0)"><line y1="4.53" x2="7.675" transform="translate(5.471 12.921)" fill="none" stroke="#d52234" stroke-linecap="round" stroke-miterlimit="10" stroke-width="3"/><line y1="7.508" x2="4.802" transform="translate(0)" fill="none" stroke="#d52234" stroke-linecap="round" stroke-miterlimit="10" stroke-width="3"/><line y1="0.575" x2="8.894" transform="translate(8.452 27.353)" fill="none" stroke="#d52234" stroke-linecap="round" stroke-miterlimit="10" stroke-width="3"/></g></g><g transform="translate(-643.75 107.117)"><line y1="11.268" x2="2.606" transform="translate(16.893 0)" fill="none" stroke="#d52234" stroke-linecap="round" stroke-miterlimit="10" stroke-width="3"/><line y1="8.876" x2="7.415" transform="translate(31.335 5.277)" fill="none" stroke="#d52234" stroke-linecap="round" stroke-miterlimit="10" stroke-width="3"/><line x1="2.764" y1="11.23" transform="translate(0 0.442)" fill="none" stroke="#d52234" stroke-linecap="round" stroke-miterlimit="10" stroke-width="3"/></g><g transform="translate(-908.724 -232.99)"><g transform="translate(37.149)"><rect width="12.903" height="32.393" rx="1" transform="translate(0 41.382) rotate(-22.301)" fill="none" stroke="#d52234" stroke-miterlimit="10" stroke-width="3"/><rect width="12.903" height="43.193" rx="1" transform="translate(16.018 23.139) rotate(-22.301)" fill="none" stroke="#d52234" stroke-miterlimit="10" stroke-width="3"/><rect width="12.903" height="53.994" rx="1" transform="translate(32.036 4.896) rotate(-22.301)" fill="none" stroke="#d52234" stroke-miterlimit="10" stroke-width="3"/></g><g transform="translate(0 7.284)"><line x2="35.522" y2="86.608" fill="none" stroke="#d52234" stroke-linecap="round" stroke-linejoin="round" stroke-width="3"/><line x1="103.897" y2="42.613" transform="translate(15.003 35.58)" fill="none" stroke="#d52234" stroke-linecap="round" stroke-linejoin="round" stroke-width="3"/></g></g><ellipse cx="22.187" cy="22.187" rx="22.187" ry="22.187" transform="translate(-795.729 -135.17)" fill="none" stroke="#d52234" stroke-linecap="round" stroke-linejoin="round" stroke-width="3"/><ellipse cx="22.187" cy="22.187" rx="22.187" ry="22.187" transform="translate(-671.753 -11.182)" fill="none" stroke="#d52234" stroke-linecap="round" stroke-linejoin="round" stroke-width="3"/><circle cx="22.187" cy="22.187" r="22.187" transform="translate(-1140.747 526.549)" fill="none" stroke="#d52234" stroke-linecap="round" stroke-linejoin="round" stroke-width="3"/><path d="M-1301.489-22.945a22.187,22.187,0,0,1-22.187-22.187,22.187,22.187,0,0,1-22.187,22.187A22.187,22.187,0,0,1-1323.676-.758,22.187,22.187,0,0,1-1301.489-22.945Z" transform="translate(0.969 41.762)" fill="none" stroke="#d52234" stroke-linecap="round" stroke-linejoin="round" stroke-width="3"/><ellipse cx="17.994" cy="17.994" rx="17.994" ry="17.994" transform="translate(-682.749 266.483)" fill="none" stroke="#d52234" stroke-linecap="round" stroke-linejoin="round" stroke-width="3"/><ellipse cx="17.995" cy="17.995" rx="17.995" ry="17.995" transform="translate(-288.005 581.76)" fill="none" stroke="#d52234" stroke-linecap="round" stroke-linejoin="round" stroke-width="3"/><circle cx="17.995" cy="17.995" r="17.995" transform="translate(-1199.008 -163.145)" fill="none" stroke="#d52234" stroke-linecap="round" stroke-linejoin="round" stroke-width="3"/><circle cx="17.995" cy="17.995" r="17.995" transform="translate(-998.544 393.587)" fill="none" stroke="#d52234" stroke-linecap="round" stroke-linejoin="round" stroke-width="3"/><circle cx="8.873" cy="8.873" r="8.873" transform="translate(-716.911 218.738) rotate(-135)" fill="none" stroke="#d52234" stroke-linecap="round" stroke-linejoin="round" stroke-width="3"/><circle cx="8.874" cy="8.874" r="8.874" transform="translate(-865.06 -273.243)" fill="none" stroke="#d52234" stroke-linecap="round" stroke-linejoin="round" stroke-width="3"/><ellipse cx="8.874" cy="8.874" rx="8.874" ry="8.874" transform="translate(-513.651 420.703)" fill="none" stroke="#d52234" stroke-linecap="round" stroke-linejoin="round" stroke-width="3"/><circle cx="8.874" cy="8.874" r="8.874" transform="translate(-1090.115 91.357) rotate(-22.391)" fill="none" stroke="#d52234" stroke-linecap="round" stroke-linejoin="round" stroke-width="3"/><ellipse cx="8.874" cy="8.874" rx="8.874" ry="8.874" transform="translate(-477.728 -282.117)" fill="none" stroke="#d52234" stroke-linecap="round" stroke-linejoin="round" stroke-width="3"/><g transform="translate(-1010.315 -121.489)"><circle cx="8.874" cy="8.874" r="8.874" fill="none" stroke="#d52234" stroke-linecap="round" stroke-linejoin="round" stroke-width="3"/></g><ellipse cx="8.874" cy="8.874" rx="8.874" ry="8.874" transform="translate(-745.497 383.569) rotate(-97.018)" fill="none" stroke="#d52234" stroke-linecap="round" stroke-linejoin="round" stroke-width="3"/><ellipse cx="8.874" cy="8.874" rx="8.874" ry="8.874" transform="matrix(-0.924, -0.383, 0.383, -0.924, -798.74, 514.883)" fill="none" stroke="#d52234" stroke-linecap="round" stroke-linejoin="round" stroke-width="3"/><circle cx="8.874" cy="8.874" r="8.874" transform="translate(-1043.002 599.755)" fill="none" stroke="#d52234" stroke-linecap="round" stroke-linejoin="round" stroke-width="3"/><circle cx="8.874" cy="8.874" r="8.874" transform="translate(-1255.927 428.991)" fill="none" stroke="#d52234" stroke-linecap="round" stroke-linejoin="round" stroke-width="3"/><g transform="translate(-1134.205 -285.098)"><ellipse cx="25.35" cy="53.482" rx="25.35" ry="53.482" transform="translate(9.568 22.074) rotate(-25.81)" fill="none" stroke="#d52234" stroke-linecap="round" stroke-linejoin="round" stroke-width="3"/><ellipse cx="25.35" cy="53.483" rx="25.35" ry="53.483" transform="translate(0 79.268) rotate(-84.476)" fill="none" stroke="#d52234" stroke-linecap="round" stroke-linejoin="round" stroke-width="3"/><ellipse cx="53.482" cy="25.35" rx="53.482" ry="25.35" transform="matrix(0.543, -0.84, 0.84, 0.543, 5.364, 90.359)" fill="none" stroke="#d52234" stroke-linecap="round" stroke-linejoin="round" stroke-width="3"/><path d="M-1115.068-227.653a6.709,6.709,0,0,1-8.96-3.118,6.708,6.708,0,0,1,3.12-8.96,6.707,6.707,0,0,1,8.96,3.118A6.708,6.708,0,0,1-1115.068-227.653Z" transform="translate(1173.663 292.877)" fill="none" stroke="#d52234" stroke-linecap="round" stroke-linejoin="round" stroke-width="3"/></g><g transform="translate(-999.441 489.147)"><path d="M-1034.89,406.046a8.364,8.364,0,0,1-8.364,8.364,8.364,8.364,0,0,1-8.364-8.364,8.364,8.364,0,0,1,8.364-8.363A8.364,8.364,0,0,1-1034.89,406.046Z" transform="translate(1051.618 -370.321)" fill="none" stroke="#d52234" stroke-linecap="round" stroke-linejoin="round" stroke-width="3"/><path d="M-958.646,460.708a8.365,8.365,0,0,1-8.364,8.364,8.365,8.365,0,0,1-8.364-8.364,8.364,8.364,0,0,1,8.364-8.363A8.363,8.363,0,0,1-958.646,460.708Z" transform="translate(1064.887 -360.808)" fill="none" stroke="#d52234" stroke-linecap="round" stroke-linejoin="round" stroke-width="3"/><circle cx="17.833" cy="17.833" r="17.833" transform="translate(48.55 47.028)" fill="none" stroke="#d52234" stroke-linecap="round" stroke-linejoin="round" stroke-width="3"/><g transform="translate(34.899 33.377)"><path d="M-958.924,434.291l-6.728,10.254-2.494,12.009-12.009,2.494-10.253,6.728-10.254-6.728-12.009-2.494-2.493-12.009-6.728-10.253,6.728-10.253,2.494-12.009,12.009-2.494,10.254-6.728,10.253,6.728,12.01,2.494,2.494,12.009Z" transform="translate(1021.892 -402.806)" fill="none" stroke="#d52234" stroke-linecap="round" stroke-linejoin="round" stroke-width="3"/></g><path d="M-964.841,471.766a8.364,8.364,0,0,1,8.364-8.363,8.334,8.334,0,0,1,6.261,2.831,47.705,47.705,0,0,0,10.174-29.506A47.929,47.929,0,0,0-987.97,388.8a47.928,47.928,0,0,0-47.929,47.929,47.929,47.929,0,0,0,47.929,47.929,47.685,47.685,0,0,0,25.333-7.247A8.325,8.325,0,0,1-964.841,471.766Z" transform="translate(1054.354 -371.867)" fill="none" stroke="#d52234" stroke-linecap="round" stroke-linejoin="round" stroke-width="3"/><path d="M-985.46,374.377a64.794,64.794,0,0,0-53.747,28.544,8.352,8.352,0,0,1,4.092,7.18,8.364,8.364,0,0,1-8.364,8.364,8.334,8.334,0,0,1-3.207-.64,64.714,64.714,0,0,0-3.635,21.413A64.862,64.862,0,0,0-985.46,504.1,64.862,64.862,0,0,0-920.6,439.239,64.862,64.862,0,0,0-985.46,374.377Z" transform="translate(1051.844 -374.377)" fill="none" stroke="#d52234" stroke-linecap="round" stroke-linejoin="round" stroke-width="3"/></g><g transform="translate(-684.585 -273.393)"><g transform="translate(-0.002 0.001)"><path d="M-307.9-244.919l-30.552-28.111a7.941,7.941,0,0,0-11.22.467h0a7.94,7.94,0,0,0,.467,11.219l30.552,28.111a7.94,7.94,0,0,0,11.219-.467h0A7.938,7.938,0,0,0-307.9-244.919Z" transform="translate(351.772 275.127)" fill="none" stroke="#d52234" stroke-linecap="round" stroke-miterlimit="10" stroke-width="3"/></g><ellipse cx="34.117" cy="34.117" rx="34.117" ry="34.117" transform="translate(89.305 122.815) rotate(-145.765)" fill="none" stroke="#d52234" stroke-linecap="round" stroke-miterlimit="10" stroke-width="3"/><ellipse cx="24.616" cy="24.616" rx="24.616" ry="24.616" transform="translate(85.569 109.827) rotate(-143.717)" fill="none" stroke="#d52234" stroke-linecap="round" stroke-miterlimit="10" stroke-width="3"/><line x1="9.883" y1="9.25" transform="translate(45.501 42.854)" fill="none" stroke="#d52234" stroke-linecap="round" stroke-miterlimit="10" stroke-width="3"/></g><g transform="translate(-1348.762 -200.627)"><g transform="translate(67.149 121.916)"><path d="M3.9,0H40.952a3.9,3.9,0,0,1,3.9,3.9v8.511a0,0,0,0,1,0,0H0a0,0,0,0,1,0,0V3.9A3.9,3.9,0,0,1,3.9,0Z" transform="translate(0 16.268) rotate(-21.268)" fill="none" stroke="#d52234" stroke-linecap="round" stroke-miterlimit="10" stroke-width="3"/></g><circle cx="44.804" cy="44.804" r="44.804" transform="matrix(0.902, -0.432, 0.432, 0.902, 0, 38.669)" fill="none" stroke="#d52234" stroke-miterlimit="10" stroke-width="3"/><path d="M-1263.606-119.368l-52.753-72.434-6.55-8.772a55.752,55.752,0,0,0-12.245,77.888,55.751,55.751,0,0,0,77.888,12.244l-6.444-8.849" transform="translate(1349.734 215.337)" fill="none" stroke="#d52234" stroke-linecap="round" stroke-linejoin="round" stroke-width="3"/><path d="M-1335.076-167.387a44.6,44.6,0,0,0,28.433-8.531,44.613,44.613,0,0,0,16.844-24.445,44.6,44.6,0,0,0-28.433,8.532A44.6,44.6,0,0,0-1335.076-167.387Z" transform="translate(1351.608 215.366)" fill="none" stroke="#d52234" stroke-miterlimit="10" stroke-width="3"/><path d="M-1300.014-119.245a44.6,44.6,0,0,0,28.433-8.531,44.614,44.614,0,0,0,16.844-24.445,44.6,44.6,0,0,0-28.433,8.532A44.6,44.6,0,0,0-1300.014-119.245Z" transform="translate(1357.71 223.744)" fill="none" stroke="#d52234" stroke-miterlimit="10" stroke-width="3"/><ellipse cx="22.402" cy="44.804" rx="22.402" ry="44.804" transform="matrix(0.808, -0.589, 0.589, 0.808, 15.267, 36.723)" fill="none" stroke="#d52234" stroke-miterlimit="10" stroke-width="3"/><line y1="52.753" x2="72.434" transform="translate(23.535 33.375)" fill="none" stroke="#d52234" stroke-miterlimit="10" stroke-width="3"/><line x2="7.355" y2="18.431" transform="translate(80.432 111.574)" fill="none" stroke="#d52234" stroke-miterlimit="10" stroke-width="3"/><line y1="21.234" x2="53.211" transform="translate(66.709 131.049)" fill="none" stroke="#d52234" stroke-linecap="round" stroke-miterlimit="10" stroke-width="3"/></g><g transform="translate(-1201.605 218.078)"><g transform="translate(20.204 8.399)"><line x1="4.856" y1="10.496" transform="translate(15.127 7.645)" fill="none" stroke="#d52234" stroke-linecap="round" stroke-miterlimit="10" stroke-width="3"/><line y1="11.558" x2="0.409" transform="translate(33.156)" fill="none" stroke="#d52234" stroke-linecap="round" stroke-miterlimit="10" stroke-width="3"/><line x1="9.073" y1="7.171" transform="translate(0 19.959)" fill="none" stroke="#d52234" stroke-linecap="round" stroke-miterlimit="10" stroke-width="3"/></g><path d="M-1182.44,181.283a4.879,4.879,0,0,1-6.091,3.244,4.878,4.878,0,0,1-3.243-6.09,4.879,4.879,0,0,1,6.09-3.244A4.88,4.88,0,0,1-1182.44,181.283Z" transform="translate(1229.353 -138.01)" fill="none" stroke="#d52234" stroke-linecap="round" stroke-linejoin="round" stroke-width="3"/><path d="M-1147.852,171.4a4.88,4.88,0,0,1-6.09,3.244,4.879,4.879,0,0,1-3.243-6.091,4.878,4.878,0,0,1,6.09-3.243A4.878,4.878,0,0,1-1147.852,171.4Z" transform="translate(1235.372 -139.73)" fill="none" stroke="#d52234" stroke-linecap="round" stroke-linejoin="round" stroke-width="3"/><path d="M-1150.925,145.617a4.879,4.879,0,0,1-1.276,6.781,4.88,4.88,0,0,1-6.781-1.277,4.878,4.878,0,0,1,1.276-6.78A4.879,4.879,0,0,1-1150.925,145.617Z" transform="translate(1234.949 -143.49)" fill="none" stroke="#d52234" stroke-linecap="round" stroke-linejoin="round" stroke-width="3"/><g transform="translate(0 57.431)"><g transform="translate(27.714)"><rect width="34.29" height="9.487" rx="3.343" transform="translate(2.845) rotate(17.448)" fill="none" stroke="#d52234" stroke-linecap="round" stroke-miterlimit="10" stroke-width="3"/></g><path d="M-1177.389,236.525l8.573-28.11-21.838-6.66-8.574,28.11-24.1,38.047a11.044,11.044,0,0,0,7.342,13.787l23.579,7.191a11.043,11.043,0,0,0,13.785-7.342Z" transform="translate(1223.814 -190.781)" fill="none" stroke="#d52234" stroke-linecap="round" stroke-miterlimit="10" stroke-width="3"/><path d="M-1212.13,240.353s7.778-2.187,15.82,5.74,16.4,1.646,16.4,1.646" transform="translate(1225.847 -184.112)" fill="none" stroke="#d52234" stroke-linecap="round" stroke-miterlimit="10" stroke-width="3"/></g><g transform="translate(78.595 35.015)"><rect width="34.29" height="9.487" rx="3.343" transform="translate(0 19.101) rotate(-33.851)" fill="none" stroke="#d52234" stroke-linecap="round" stroke-miterlimit="10" stroke-width="3"/><path d="M-1107.156,255.676a11.414,11.414,0,0,0,15.866,2.987A11.416,11.416,0,0,0-1088.3,242.8l-41.034-60.067-18.854,12.879Z" transform="translate(1158.379 -171.676)" fill="none" stroke="#d52234" stroke-linecap="round" stroke-miterlimit="10" stroke-width="3"/><path d="M-1107.156,255.676a11.414,11.414,0,0,0,15.866,2.987A11.416,11.416,0,0,0-1088.3,242.8l-41.034-60.067-18.854,12.879Z" transform="translate(1158.379 -171.676)" fill="none" stroke="#d52234" stroke-linecap="round" stroke-miterlimit="10" stroke-width="3"/><path d="M-1125.422,228.55a19.9,19.9,0,0,1,11.078-4.592c5.132-.6,7.982-3.118,9.565-5.669" transform="translate(1162.342 -165.488)" fill="none" stroke="#d52234" stroke-linecap="round" stroke-miterlimit="10" stroke-width="3"/></g></g><g transform="translate(-873.938 219.193)"><g transform="translate(24.65 37.513)"><g transform="translate(16.306)"><path d="M-213.923,195c-.139.176-.278.352-.426.576-.467.642-1.193.7-1.891.856-.432.114-.835.209-1.239.3a1.877,1.877,0,0,0-.4.221.537.537,0,0,1,.146.158.186.186,0,0,1,0,.127,1.509,1.509,0,0,0,.263.209c-.052.245-.073.471-.114.666a.435.435,0,0,0,.231.483.456.456,0,0,1,.146.159.969.969,0,0,0,.918.371,5.044,5.044,0,0,0,1.564-.517,1.29,1.29,0,0,1,.708-.21,1.281,1.281,0,0,0,.484-.231,6.71,6.71,0,0,0,.652-.553,4.605,4.605,0,0,0,1.161-1.519,1.916,1.916,0,0,1,.158-.274,2.55,2.55,0,0,1,.169-.322c0-.128.032-.275.043-.452.04-.068.011-.176.052-.244a6.983,6.983,0,0,0,.041-1.422,4.1,4.1,0,0,0-.371-1.279,4.694,4.694,0,0,0-.751-1.536c-.34-.454-.7-.938-1.038-1.392-.1-.148-.164-.315-.261-.463-.33-.5-.669-.958-1-1.46-.592-.838-1.134-1.666-1.7-2.476-.437-.6-.854-1.174-1.27-1.747q-.844-1.1-1.688-2.192c-.358-.484-.717-.966-1.106-1.431-.612-.741-1.2-1.451-1.824-2.144-.184-.217-.4-.416-.6-.662a.9.9,0,0,0-1-.107c-.2.087-.4.222-.6.309a8.615,8.615,0,0,0-.857.434c-.4.222-.789.473-1.173.726-.089.058-.228.106-.317.163a7.451,7.451,0,0,0-.738.484c-.336.263-.633.583-.969.845-.1.108-.2.215-.3.322-.039.068-.109.155-.07.215.047.265-.149.352-.278.478s-.228.234-.386.379c.088.069.127.129.194.169a.036.036,0,0,0,.012-.049l.44.092-.011.049a1.023,1.023,0,0,0,.305-.115c.029-.02.089-.059.1-.107l.04.06a1.567,1.567,0,0,0,.364-.155,7.517,7.517,0,0,1,1.1-.51,3.593,3.593,0,0,0,.581-.211c.059-.039.1-.107.129-.127a5.453,5.453,0,0,0,1.1-.636c.393-.174.728-.309,1.063-.443a.211.211,0,0,1,.332.12,4.378,4.378,0,0,0,.855,1.047c.146.159.262.336.407.494s.243.306.389.465c.059.088.056.216.1.275a4.862,4.862,0,0,0,.358.61,10.687,10.687,0,0,0,.541.957c.1.148.252.256.35.405.135.207.242.433.377.64.039.06.107.1.116.177l.832,1.273c.077.119.2.247.242.306.3.14.237-.155.356-.232.144.285-.043.451-.182.627a.464.464,0,0,1-.159.144c-.483.232-1.033.423-1.5.683a4.971,4.971,0,0,0-.839.592c-.365.282-.7.544-1.017.835-.228.234-.486.486-.713.72a.357.357,0,0,0,.37.306,1.467,1.467,0,0,1,.42.191l.293.061c.019.029.028.108.048.137l.02.029c.3.013.576.171.93.067s.562-.369.917-.473a6.1,6.1,0,0,0,1.913-1.208l.5-.33a1.341,1.341,0,0,1,.323.042.265.265,0,0,0,.048.137l.029-.019c.155.236.261.463.416.7.019.029.009.079.028.108l.031-.02c.531.878,1.062,1.755,1.634,2.692-.072.215.123.383.289.572-.011.048.009.077,0,.127l.541.829-.059.038a.5.5,0,0,1,.058.216c.164.316.328.632.463.966a3.543,3.543,0,0,1,.162.569c-.011.049.058.089.058.089C-213.883,194.93-213.894,194.978-213.923,195Zm-4.418-9.786a3.209,3.209,0,0,0-.015-.412.269.269,0,0,1,.106.1,1.592,1.592,0,0,1-.041.324Zm5.458,8.472c-.009.049-.031.147-.051.244l-.048-.009a2.038,2.038,0,0,1-.149.224.126.126,0,0,0-.088-.069.17.17,0,0,1,.068-.088c.041-.068,0-.128.012-.176a.132.132,0,0,0-.087-.07C-213.118,193.71-212.991,193.711-212.883,193.683Zm-.882,1.041-.058-.088c.02-.1.061-.167.08-.265.088.069.176.14.283.238C-213.567,194.638-213.657,194.7-213.765,194.725Z" transform="translate(262.596 -176.392)" fill="#4d4d4d" stroke="#d52234" stroke-width="1"/><path d="M-212.829,187.06c-.167-.061-.032.275-.256.126a.129.129,0,0,1-.079.009c-.129.126-.335.134-.288.4-.088-.069-.128,0-.177-.011-.205.007-.392.045-.464.259-.009.049-.195-.04-.225.107-.156-.109-.139.048-.247.076a1.718,1.718,0,0,0-.5.329c-.031.019,0,.127-.011.176-.147-.157-.187-.089-.276-.031-.177.115-.336.261-.542.4-.316.164-.649.3-.964.463a6.886,6.886,0,0,1-1.026.629c-.029.019-.021.1-.031.147-.077-.12-.137-.081-.2-.041-.452.339-1.053.52-1.187,1.283a.59.59,0,0,0,.182.473c.136.207.223.4.358.611.309.6.575.427.771.34a12.527,12.527,0,0,0,2.258-1.266,1.187,1.187,0,0,1,.276-.223c.286-.144.522-.3.809-.445a2.3,2.3,0,0,1,.452-.21c.06-.039.089-.059.05-.117.011-.049.04-.069.02-.1l.059.088a.074.074,0,0,0,.1.021l1.362-.891c-.019-.029-.069-.04-.088-.069l-.02-.029c.049.011.079-.009.1.02a.129.129,0,0,0,.009.079,18.136,18.136,0,0,0,2.346-1.45,10.933,10.933,0,0,0,.85-.768c.2-.215-.153-.492-.3-.65a2.2,2.2,0,0,0-.8-.7.949.949,0,0,0-.716,0,3.884,3.884,0,0,1-.571.29l-.888.581C-212.778,186.943-212.828,186.934-212.829,187.06Zm2.73,4.171c-.186-.09-.052.245-.256.126l-.1-.02c-.129.126-.315.164-.268.429-.108-.1-.128,0-.177-.011a.385.385,0,0,0-.463.261c-.029.02-.2-.041-.227.106-.176-.139-.157.019-.247.077a1.649,1.649,0,0,0-.521.3c-.031.02,0,.128.008.207-.147-.158-.205-.12-.295-.061a2.09,2.09,0,0,1-.542.4c-.3.194-.65.3-.945.492-.364.154-.642.5-1.026.629-.048-.011-.04.068-.049.117-.079-.12-.117-.05-.177-.012-.454.339-1.073.491-1.207,1.254a.614.614,0,0,0,.182.473c.136.208.242.433.377.64.29.573.556.4.753.311a10.435,10.435,0,0,0,2.256-1.264l.3-.195c.266-.174.521-.3.788-.473.167-.068.286-.146.453-.211.079-.009.088-.059.049-.117.012-.049.041-.068.021-.1l.058.089a.076.076,0,0,0,.1.02c.444-.29.888-.581,1.381-.862l-.019-.029c-.02-.029-.069-.039-.089-.068a.124.124,0,0,1,.079-.011c.02.031-.009.049.011.079a12.037,12.037,0,0,0,2.346-1.45,5.952,5.952,0,0,0,.85-.768c.2-.214-.153-.492-.3-.649-.222-.277-.534-.623-.777-.674a.883.883,0,0,0-.736-.027c-.177.116-.375.2-.552.319-.3.194-.611.358-.908.552C-210.069,191.085-210.1,191.1-210.1,191.232Zm.311-4.3c.067.167-.156-.109-.127,0l-.049-.011-.039-.06C-209.934,186.772-209.836,186.918-209.788,186.93Zm2.711,4.142c.068.168-.156-.109-.108.029-.02-.031-.049-.012-.068-.041l-.019-.029C-207.223,190.914-207.125,191.062-207.077,191.072Zm-3.382-4.717.039.059c-.049-.009-.069-.04-.117-.049A.129.129,0,0,1-210.46,186.355Zm2.73,4.173.02.028c-.049-.009-.069-.039-.117-.049C-207.779,190.517-207.749,190.5-207.73,190.527Zm-2.836-4.271-.02-.029Zm.018.285.009-.049c.02.029.069.039.088.068a.128.128,0,0,1,.068.041l.019.029c-.019-.029-.067-.04-.087-.07A.075.075,0,0,0-210.549,186.542Zm2.71,4.142.029-.02a.129.129,0,0,1,.069.04.127.127,0,0,0,.068.04l.019.029c-.019-.029-.067-.04-.087-.069S-207.79,190.693-207.839,190.684Zm-2.681-4.035a.035.035,0,0,0-.049-.009c-.02-.029-.008-.079-.028-.109l.049.012A.124.124,0,0,0-210.521,186.648Zm2.711,4.143-.05-.011c-.019-.029-.007-.079-.027-.109a.035.035,0,0,0,.048.012A.132.132,0,0,0-207.81,190.792Zm-3.15-4.491a.372.372,0,0,0-.036-.186.117.117,0,0,0,.067.039.564.564,0,0,1,.038.188A.128.128,0,0,0-210.96,186.3Zm2.711,4.143a.27.27,0,0,0-.018-.157l.048.011a.363.363,0,0,1,.038.187A.123.123,0,0,0-208.249,190.444Zm-2.791-3.878c-.06.039-.049-.011-.039-.06-.02-.029-.059-.089-.029-.108.011-.049.042-.2.157-.019.1.149-.031.147-.06.167Zm2.73,4.171c-.059.04-.069-.039-.039-.059-.039-.06-.058-.089-.048-.137s.041-.2.157-.019-.031.147-.041.2Zm-2.834-4.526-.02-.029a.034.034,0,0,1,.049.011l.019.029A.034.034,0,0,1-211.144,186.212Zm2.71,4.143-.02-.031.049.011.039.059C-208.414,190.384-208.414,190.384-208.434,190.355Zm-2.063-2.961.019.029-.031.02A.036.036,0,0,0-210.5,187.394Zm2.73,4.173-.031.019Zm-3.273-4.873-.029.02a.035.035,0,0,1,.009-.049Zm2.73,4.173a.036.036,0,0,1-.049-.011.036.036,0,0,0,.011-.049l.019.029Zm-3.169-4.519c.031-.02.04-.068.069-.087l.069.039c.027.108-.021.1-.069.088A.125.125,0,0,1-211.48,186.347Zm2.73,4.171c.011-.049.021-.1.05-.116a.358.358,0,0,1,.088.068c.008.079-.021.1-.088.059Zm-2.858-4.173c.012-.049.031-.02.031-.02.02.031.02.031.008.079a.033.033,0,0,0-.048-.009Zm.136.208-.02-.031a.036.036,0,0,0,.05.011Zm2.575,3.934c.031-.02.031-.02.049.011a.034.034,0,0,1-.011.049l-.048-.011A.035.035,0,0,0-208.9,190.487Zm.155.237-.019-.029.029-.02C-208.761,190.7-208.761,190.7-208.742,190.725Zm-2.624-3.946.029-.019h0a.033.033,0,0,1-.009.048Zm2.731,4.173c-.02-.031-.02-.031.009-.049.02.031.02.031.009.079Zm-.029.019.019.029Zm-2.944-4.37-.049-.011-.039-.06a.036.036,0,0,1,.049.012Zm.194.3.019.029-.048-.011Zm2.516,3.846a.034.034,0,0,1-.048-.011l-.019-.029.029-.019Zm.214.325.02.031a.035.035,0,0,0-.049-.011C-208.686,191.067-208.706,191.038-208.686,191.067Zm-2.9-4.232c-.019-.029-.019-.029-.009-.077l.02.029.019.029Zm.262.337.02.029Zm2.449,3.806a.035.035,0,0,1,.009-.049l.02.031.019.029A.034.034,0,0,0-208.871,190.978Zm-2.973-4.479a.034.034,0,0,0,.011-.048l.019.029Zm2.711,4.143.029-.02Zm.417.572.02.031Zm-2.934-4.418a.192.192,0,0,1-.117-.05c-.019-.029-.009-.079.009-.049a.125.125,0,0,1,.069.04Zm2.73,4.171c-.068-.039-.117-.05-.136-.08l.009-.049a.125.125,0,0,1,.069.04Zm-.2-.247.02.029Zm-2.613-3.867-.02-.029.049.011Zm.978,1.431a.034.034,0,0,1-.011.048A.034.034,0,0,1-210.76,188.285Zm1.752,2.74-.019-.029.028-.019Zm.959,1.4.019.029a.034.034,0,0,0-.011.048C-208.06,192.475-208.06,192.475-208.049,192.427Zm.047.137.02.029Zm-3.825-5.652s.068.039.136.08c-.029.019-.04.067-.1.106l-.048-.009C-211.848,187.01-211.857,186.931-211.827,186.913Zm2.711,4.142a.5.5,0,0,0,.136.08c-.009.049-.039.068-.1.107.019.029,0,0-.049-.011C-209.118,191.182-209.127,191.1-209.116,191.055Zm-2.1-3.146-.029.019Zm2.71,4.142.02.031a.035.035,0,0,0-.049-.012Zm-3.427-5.111.029-.019c.02.031.02.031-.009.049Zm2.711,4.143a.034.034,0,0,1,.048.011l-.029.019h0Zm-2.8-4.211.029-.02a.114.114,0,0,0,.009.079.124.124,0,0,0-.079.011C-212.053,186.89-212.053,186.89-212.023,186.871Zm2.71,4.142a.036.036,0,0,0,.05.011.033.033,0,0,0-.011.048.11.11,0,0,1-.079.011C-209.323,191.063-209.343,191.032-209.314,191.013Zm-2.915-4.262.049.011a.035.035,0,0,0-.011.049l-.048-.011A.034.034,0,0,1-212.229,186.752Zm2.711,4.142a.036.036,0,0,0,.049.012l-.011.048a.034.034,0,0,1-.048-.011Zm.291.445.019.029Zm-2.879-4.075.011-.049.02.029.039.059A.111.111,0,0,1-212.106,187.264Zm2.711,4.142a.036.036,0,0,0,.011-.049l.019.029.039.06C-209.376,191.435-209.376,191.435-209.395,191.406Zm-2.943-4.371.009-.048a.114.114,0,0,0,.068.04.034.034,0,0,0-.009.049C-212.29,187.045-212.319,187.064-212.338,187.035Zm2.71,4.143.011-.049c.019.029.019.029.068.04l-.011.049A.127.127,0,0,1-209.628,191.178Zm-2.827-4.192-.02-.029a.036.036,0,0,1,.049.011l.019.029A.034.034,0,0,1-212.455,186.985Zm.367.562.029-.019a.035.035,0,0,1-.009.048Zm2.342,3.58.029-.019.02.029C-209.726,191.157-209.726,191.157-209.746,191.127Zm.387.592-.019-.029.029-.019c.019.029.019.029.008.077Zm-2.808-4.162-.02-.029c-.039-.06-.027-.109-.047-.139a.034.034,0,0,1,.049.011C-212.195,187.448-212.176,187.477-212.167,187.557Zm2.71,4.142-.019-.029c-.019-.029-.028-.109-.047-.137l.048.009C-209.484,191.59-209.445,191.65-209.457,191.7Zm-3.207-4.451a1.01,1.01,0,0,0,.11-.284.129.129,0,0,1,.069.04,1.452,1.452,0,0,0-.013.3A.489.489,0,0,0-212.664,187.248Zm2.73,4.171a1.138,1.138,0,0,1,.11-.283l.049.009c-.02.1.008.207-.012.305Zm-2.145-3.667-.02-.029.029-.019.039.059Zm2.71,4.142.029-.019.02.031C-209.35,191.926-209.35,191.926-209.37,191.9Zm-2.788-4.133.019.029.02.031c-.02-.031-.02-.031-.049-.011A.035.035,0,0,0-212.158,187.763Zm2.73,4.171.02.031-.049-.011Zm-3-4.458a.036.036,0,0,0,.049.009l-.011.049a.034.034,0,0,0-.049-.011A.033.033,0,0,0-212.431,187.476Zm2.731,4.171a.034.034,0,0,1,.048.011l-.029.019-.049-.009Zm-2.315-3.472.019.029Zm-.591-.839.019.029Zm-.205-.119.06-.039.019.029a.466.466,0,0,1-.061.166l-.058-.088C-212.82,187.266-212.82,187.266-212.811,187.218Zm2.73,4.171a.128.128,0,0,0,.041-.068l.019.029a.5.5,0,0,1-.061.167l-.058-.089Zm-2.283-3.492-.02-.028.049.009a.034.034,0,0,1-.011.048Zm2.73,4.173-.039-.059.048.009c.019.029.019.029.009.079Zm-3.011-4.538.02.029Zm.279.493a.035.035,0,0,0,.049.009l-.009.05-.04-.06a.033.033,0,0,0-.048-.009l-.02-.031.02.031A.033.033,0,0,1-212.367,188.025Zm2.431,3.65.02.029Zm.279.492c.019.029.019.029.049.011a.034.034,0,0,1-.011.049l-.039-.06-.029.02-.019-.029-.02-.031.02.031.019.029Zm-2.46-3.63-.019-.029a.114.114,0,0,1-.009-.079c.019.031.019.031.068.04C-212.087,188.517-212.087,188.517-212.116,188.537Zm2.711,4.143h0c-.019-.031-.039-.06-.009-.079l.048.009C-209.376,192.661-209.376,192.661-209.405,192.681Zm-3.631-5.484.011-.05.02.031Zm2.721,4.092c.02.031.02.031-.011.05a.034.034,0,0,1,.049.009l-.019-.029Zm-2.247-3.3a.033.033,0,0,1,.048.009l.02.029c-.029.019-.029.019-.049-.011Zm2.73,4.171.029-.02.019.029c-.009.049-.029.02-.029.02Zm-.077-.119.02.029Zm.659,1-.02-.028Zm-3.913-5.721.029-.019.019.029A.034.034,0,0,1-213.164,187.322Zm.359.484.019.029c.019.029,0,0-.029.019Zm2.37,3.688a.034.034,0,0,1,.011-.048l.019.029.02.029A.035.035,0,0,0-210.435,191.494Zm.339.454.02.029.019.031A.033.033,0,0,0-210.1,192,.035.035,0,0,0-210.1,191.948Zm-2.19-3.216c.031-.02.049.009.069.04l-.029.02-.049-.012A.033.033,0,0,0-212.285,188.732Zm2.731,4.173c.031-.02.031-.02.049.009a.035.035,0,0,1-.011.049.036.036,0,0,0-.049-.011Zm-3.507-5.1-.019-.029a.033.033,0,0,1,.048.009l.058.089C-213.041,187.833-213.041,187.833-213.061,187.8Zm.677,1.035.029-.019-.009.049Zm2.053,3.137-.04-.06c.049.011.049.011.068.04l.04.06A.109.109,0,0,1-210.33,191.976Zm.657,1.006.029-.02a.035.035,0,0,1-.009.049Zm-2.827-4.32.02.029c.019.029-.011.049.008.079l.039.06-.058-.089a.034.034,0,0,1,.011-.049l-.02-.029c-.029.019-.029.019-.079.009C-212.529,188.681-212.529,188.681-212.5,188.662Zm2.711,4.143.02.029c.019.029.008.079.028.108l.039.06-.079-.12.012-.048-.02-.029-.059.039Zm-3.061-4.548-.019-.029a.034.034,0,0,0,.048.011.034.034,0,0,0-.009.049Zm.359.484.019.029Zm2.352,3.658h0l.029-.019-.009.049Zm.358.484.04.06Zm-3.611-5.327.029-.019a.119.119,0,0,1,.068.039C-213.324,187.595-213.343,187.566-213.392,187.556Zm.223.276a.034.034,0,0,1,.048.011c.04.06.068.167.107.227a.034.034,0,0,1-.049-.011L-213.1,188A.315.315,0,0,0-213.169,187.832Zm.744,1.2.1.021c-.011.048-.011.048.009.077-.031.02-.049-.009-.1-.02A.106.106,0,0,0-212.425,189.035Zm1.762,2.693.011-.049c.019.029.048.009.068.039l.019.031C-210.613,191.738-210.633,191.708-210.663,191.728Zm.224.276.029-.019c.058.089.067.167.124.255a.035.035,0,0,0-.049-.009l-.039-.06A.383.383,0,0,0-210.438,192Zm.743,1.2c.031-.019.05.011.08-.008a.108.108,0,0,0,.008.077c-.029.02-.049-.009-.079.009A.109.109,0,0,0-209.7,193.207Zm-3.04-4.518.009-.048c.029-.02.1.02.117.049l-.011.049C-212.667,188.729-212.715,188.719-212.735,188.689Zm2.73,4.173a.129.129,0,0,1-.009-.079c.049.011.1.02.117.049a.036.036,0,0,1-.011.05C-209.957,192.871-209.986,192.891-210.005,192.861Zm.426.524.02.029Zm-3.4-5.129-.02-.029Zm-.242-.306a.076.076,0,0,1-.1-.02c-.1-.021-.156-.109-.068-.168a2.018,2.018,0,0,1,.167.188c.019.029.019.029-.012.049C-213.2,187.979-213.2,187.979-213.218,187.949Zm2.73,4.171c-.049-.009-.079.011-.1-.019-.117-.05-.176-.14-.087-.2a1.9,1.9,0,0,1,.166.188c.02.028.02.028.009.079Zm-2.431-3.521.029-.019.019.029C-212.9,188.629-212.9,188.629-212.92,188.6Zm2.73,4.171a.034.034,0,0,0,.011-.048l.019.029.019.029Zm-3.332-4.961-.019-.029a.034.034,0,0,0,.048.011.033.033,0,0,0-.009.048Zm.339.582a1.916,1.916,0,0,0-.247.076.342.342,0,0,1-.32-.3l-.04-.06c.059.089.147.159.185.217.049.011.077-.008.127,0l-.076-.119c-.128,0-.077-.117-.077-.117.089-.059.147-.1.323.042.019.028.058.088.107.1C-213.145,188.323-213.106,188.382-213.183,188.392Zm.416.572c-.019-.029-.008-.077-.028-.108l.02.031a.13.13,0,0,1,.028.107Zm.2.5-.059-.089.119-.076A.453.453,0,0,0-212.565,189.466Zm1.753,2.485.029-.019-.011.048Zm.358.612a1.654,1.654,0,0,0-.265.047.343.343,0,0,1-.322-.3l-.019-.029c.039.059.127.128.184.216l-.019-.029c.048.011.077-.008.128,0l-.079-.12c-.127,0-.058-.088-.058-.088.069-.088.128-.126.3.013a.331.331,0,0,0,.126.129C-210.414,192.5-210.376,192.554-210.454,192.563Zm.4.544a.124.124,0,0,1-.011-.079h0a.13.13,0,0,1,.029.108Zm.281.365a.461.461,0,0,0-.06.166l-.077-.117.117-.077Zm-.02-.029.02.029Zm-3.853-5.762.029-.019.02.031A.035.035,0,0,1-213.648,187.68Zm2.73,4.173-.019-.031c.029-.019.029-.019.048.012Zm-2.7-4.063.039.059-.059-.088c-.009.048-.019.1-.031.147a.117.117,0,0,1-.039.067c-.031.02-.147-.031-.137-.079a.721.721,0,0,1,.16-.274.215.215,0,0,0,.047.139Zm.359.483c.02.031.008.08-.011.05-.029.019-.029.019-.079.008a.12.12,0,0,0-.009-.079C-213.31,188.263-213.291,188.292-213.261,188.272Zm.3.65c.011-.048-.009-.079,0-.127l.05.009a.191.191,0,0,0,0,.128A.034.034,0,0,1-212.963,188.922Zm2.072,3.04.019.029-.058-.089c-.011.048-.02.1-.031.147a.076.076,0,0,1-.02.1c-.031.02-.167-.061-.137-.08,0-.128.09-.186.16-.272a.131.131,0,0,0,.028.108Zm.271.541c.029-.02.048.009.077-.009l.011-.049-.1-.02C-210.61,192.454-210.639,192.473-210.619,192.5Zm.367.561c.009-.048-.009-.077,0-.127l.05.011a.179.179,0,0,0,.018.157C-210.232,193.095-210.232,193.095-210.252,193.064Zm-2.993-4.379.029-.02c-.011.049-.011.049.008.079Zm2.71,4.142c.02.029.02.029.049.011a.034.034,0,0,0-.011.048l.02.031-.02-.031Zm-3.429-4.983c-.019-.028-.008-.079-.028-.108a.036.036,0,0,1,.049.011c-.009.049.009.079-.021.1.019.029-.009.049.009.079C-213.973,187.894-213.945,187.874-213.964,187.845Zm2.73,4.173c-.019-.029-.008-.079-.028-.109l.029-.019c-.009.049.009.079,0,.128l-.009.049Zm.34.453.019.029Zm-3.09-4.527.02.029h0Zm.221.532.011-.049c.029-.02.048.009.079-.009-.031.019-.011.048-.04.068A.036.036,0,0,1-213.763,188.475Zm2.509,3.639.02.029S-211.284,192.135-211.254,192.115Zm.221.533c-.02-.031-.008-.08.011-.05l.06-.039c-.011.049-.011.049-.04.069Zm-2.836-4.272c-.156-.109.069-.088-.038-.187l.029-.019c.039.059.048.137.087.2C-213.822,188.386-213.851,188.4-213.87,188.375Zm2.73,4.171c-.156-.108.069-.087-.038-.185l.011-.049c.039.06.048.139.086.2Zm-3.13-4.459s-.008-.079.011-.049l.147.031c-.029.02-.011.049-.02.1C-214.182,188.157-214.22,188.1-214.27,188.088Zm2.711,4.142.011-.049.147.031c-.011.049.009.08,0,.128C-211.472,192.3-211.49,192.27-211.56,192.23Zm-2.448-3.934c-.029.02.009.079.009.079-.048-.009-.079.009-.128,0l-.038-.059c.048.011.067.04.117.05C-214.066,188.334-214.037,188.316-214.007,188.3Zm.445.681.02.031Zm2.266,3.462a.109.109,0,0,0,.009.077.179.179,0,0,1-.127,0l-.04-.06c.049.011.069.041.119.05A.122.122,0,0,1-211.3,192.439Zm-2.423-3.315c-.02-.031.011-.05-.008-.08a.034.034,0,0,1,.048.011c.02.029-.009.049.009.079Zm2.537,3.748.02.029Zm.193.424c-.019-.029-.009-.08-.028-.109l.048.011c.02.031.011.079.029.108A.035.035,0,0,0-210.99,193.295Zm-3.33-5.089-.04-.06a.037.037,0,0,1,.05.011c.019.029-.011.049.008.079Zm2.71,4.142-.039-.059.05.011c.019.028-.012.048.008.077Zm-2.78-3.927-.019-.029c.156-.018.182.345.35.277-.011.049-.04.068-.05.117C-214.275,188.725-214.254,188.5-214.39,188.42Zm2.711,4.142-.02-.029c.157-.018.183.345.37.308-.029.02-.04.068-.069.088C-211.546,192.9-211.543,192.643-211.679,192.562Zm-1.8-2.878-.02-.031.031-.02C-213.449,189.664-213.449,189.664-213.479,189.684Zm2.71,4.142-.019-.031a.034.034,0,0,1,.049.011Zm-3.244-4.765a.124.124,0,0,0,.069-.088l.02.031a.131.131,0,0,1-.07.087Zm2.8,4.084.019.029-.088.058A.13.13,0,0,1-211.214,193.145Zm-2.323-3.423.029-.019c.019.029.019.029.009.077Zm2.73,4.171-.019-.029.048.011-.011.048Zm-3.631-5.356a.033.033,0,0,1,.009-.048.122.122,0,0,1,.068.039l.039.06C-214.371,188.577-214.421,188.567-214.439,188.537Zm.445.553-.019-.029Zm.31.473-.019-.029.019.029.02.031Zm1.975,3.146c-.02-.031-.039-.06-.009-.079a.123.123,0,0,0,.068.04l.038.059C-211.662,192.719-211.691,192.739-211.71,192.71Zm.426.522-.019-.028Zm.31.474.019.029Zm-2.624-3.946.02.029Zm2.711,4.143.019.029Zm-3.07-4.5-.02-.031c.011-.048.029-.019.06-.039-.031.02-.031.02-.011.05Zm.136.079.02.029.019.031-.049-.011A.034.034,0,0,1-213.821,189.484Zm2.593,4.093-.039-.06.059-.039-.011.05A.033.033,0,0,0-211.227,193.576Zm.137.08.019.029-.031.02C-211.12,193.676-211.12,193.676-211.09,193.656Zm-3.061-4.548.048.012a.033.033,0,0,1-.009.048Zm2.73,4.173-.02-.029.049.011c.019.029.019.029.009.077Zm-3.156-4.823-.02-.029.02.029.039.059Zm2.73,4.173-.039-.06.02.031.058.088Zm-2.72-4.094c.02.029.008.079.028.108-.049-.011-.068-.04-.1-.02.009-.049-.009-.079.02-.1Zm.677,1.035a.034.034,0,0,1-.011.049l-.02-.031-.019-.028A.034.034,0,0,1-213.89,189.572Zm2.052,3.136c.02.029-.011.049.009.08-.029.019-.049-.011-.1-.021l.019-.1C-211.887,192.7-211.858,192.678-211.838,192.708Zm.677,1.037-.029.019-.039-.059C-211.179,193.715-211.179,193.715-211.16,193.744Zm-3.225-4.736-.031.02.012-.049Zm.271.414.019.029a.035.035,0,0,1-.009.049C-214.125,189.472-214.145,189.443-214.114,189.423Zm2.46,3.758a.036.036,0,0,0-.05-.011.034.034,0,0,0,.011-.049Zm.259.464c-.02-.031-.02-.031-.008-.08l.019.029c.02.031.02.031.009.08Zm-3.35-5.12-.029.02c-.039-.059-.058-.089-.048-.137Zm.29.444-.019-.029Zm2.421,3.7-.029.02a.261.261,0,0,1-.048-.137Zm.135.208-.019-.029Zm-2.334-3.374.031-.02Zm2.73,4.171a.034.034,0,0,1,.011-.048Zm-3.418-5.159.029-.019.02.031A.035.035,0,0,1-214.921,188.513Zm.426.652-.039-.059c.02.029.049.011.068.04Zm2.3,3.521a.035.035,0,0,1,.009-.049l.019.031Zm.425.65-.039-.058.049.009A.034.034,0,0,0-211.765,193.336Zm-2.942-4.5c.019.029-.011.048.009.079l-.039-.06Zm.52.926c.012-.049.012-.049-.007-.079a.035.035,0,0,1,.048.011.121.121,0,0,0,.009.079C-214.157,189.745-214.157,189.745-214.187,189.765Zm2.21,3.246-.011.048-.039-.06Zm.5.9a.037.037,0,0,0,.011-.05c.009-.048.028-.019.028-.019.02.031-.009.049.011.079A.035.035,0,0,0-211.475,193.909Zm-3.427-5.237.011-.05.019.031.02.029A.034.034,0,0,1-214.9,188.671Zm.494.69-.049-.009a.036.036,0,0,0,.011-.05l.02.031Zm.454.76a.034.034,0,0,0,.049.009l-.031.02Zm1.781,2.721a.035.035,0,0,1,.011-.049h0l.039.059Zm.475.661-.031.02a.036.036,0,0,1,.011-.049Zm.5.769-.012.049-.019-.029Zm-3.149-4.616c.049.011.049.011.068.04l.039.059c-.048-.009-.048-.009-.068-.04Zm.349.532.029-.019c.02.029.02.029-.009.048Zm.1.149-.02-.031a.036.036,0,0,1,.049.011Zm2.283,3.49a.036.036,0,0,1,.049.012l.059.088a.133.133,0,0,1-.088-.069Zm.349.533-.019-.029c.029-.02.029-.02.048.009l-.009.049Zm.077.119.029-.019Zm-3.5-5.228c-.02-.031-.029-.108-.049-.137l.049.009a.209.209,0,0,0,.048.139Zm2.71,4.142c-.02-.029-.009-.079-.048-.137a.034.034,0,0,0,.049.011.311.311,0,0,0,.067.167A.114.114,0,0,1-211.981,193.393Zm-2.836-4.4.02.029c.019.029,0,0-.029.019Zm2.73,4.171.02.031-.029.019A.036.036,0,0,1-212.088,193.167Zm-3.088-4.655a.5.5,0,0,0,.056.216l-.048-.009c-.058-.089-.1-.149-.039-.187Zm.135.207-.019-.029Zm.9,1.441.031-.02.02.029Zm1.7,2.524a.5.5,0,0,0,.056.216c-.019-.029-.048-.009-.067-.039-.059-.089-.079-.12-.039-.187A.034.034,0,0,0-212.446,192.683Zm.1.148.019.029Zm.937,1.5a.035.035,0,0,0,.012-.049l.019.029.02.031C-211.381,194.31-211.381,194.31-211.412,194.33Zm-3.494-5.276-.029.019Zm2.73,4.171-.029.019Zm.716,1.094.019.029Zm-3.244-4.764a.034.034,0,0,1,.048.011c.117.049.077.119.107.227l.019.029-.135-.207Zm2.71,4.142a.034.034,0,0,1,.048.011c.119.049.1.148.107.227l.02.029-.136-.207Zm-2.816-4.241c-.031.02-.05-.011-.069-.04l-.019-.029c.049.009.088.069.107.1Zm.019.029-.019-.029Zm.512.848.031-.019.019.029Zm1.966,2.94-.019-.029Zm.144.285-.02-.029c.049.009.088.069.108.1A.127.127,0,0,1-212.169,193.559Zm.668.957a.034.034,0,0,0-.049-.009.035.035,0,0,0,.012-.049l.019.029Zm-3.5-5.276a.036.036,0,0,0-.049-.012c.029-.019.029-.019.011-.048Zm2.711,4.142-.029.019.009-.048-.019-.031.019.031Zm-2.45-3.679c-.068-.04-.136-.079-.2-.12-.019-.029-.009-.079-.029-.108.069.04.108.1.176.139Zm.27.542a.126.126,0,0,1-.027-.109c.019.029.038.059.067.04-.009.049-.009.049.009.079Zm2.441,3.6c-.068-.04-.136-.079-.2-.12a.368.368,0,0,0-.029-.107c.069.039.127.128.176.139Zm.27.542a.116.116,0,0,1-.009-.08.112.112,0,0,0,.069.041.034.034,0,0,0-.011.048C-211.736,194.416-211.736,194.416-211.754,194.386Zm-3.7-5.652-.019-.029c.049.009.049.009.069.04A.036.036,0,0,1-215.453,188.735Zm.271.414.019.029.031-.02.02.031a.036.036,0,0,0-.05-.011Zm.116.177c-.019-.029-.019-.029.011-.049l.02.029Zm2.342,3.581-.039-.06a.127.127,0,0,1,.088.069A.035.035,0,0,0-212.723,192.907Zm.224.276.02.029Zm.077.119.019.029-.049-.009Zm.067.167a.033.033,0,0,1,.011-.048l.019.029Zm.143.413.02.031Zm-2.208-3.246-.019-.028.019.028.02.031Zm2.711,4.143.02.029Zm-3.853-5.761-.059-.088.029-.019c.039.059.029.107.048.136Zm.445.681-.048-.009a.124.124,0,0,0-.011-.079.036.036,0,0,0,.049.009C-215.136,189.669-215.136,189.669-215.117,189.7Zm2.265,3.462-.058-.089.048.011c.02.029.009.079.048.137Zm.445.68a.033.033,0,0,1-.048-.009l.009-.049.029-.02A.114.114,0,0,0-212.407,193.84Zm-2.576-3.807c.02.031.02.031.049.011-.011.049-.021.1-.05.116A.18.18,0,0,0-214.983,190.033Zm2.73,4.173.049.009a.188.188,0,0,0-.049.117A.186.186,0,0,0-212.253,194.206Zm-2.933-4.419-.02-.029.029-.02-.029.02Zm2.73,4.173-.02-.031a.034.034,0,0,1,.011-.048l.019.028-.029.02Zm-2.973-4.48-.019-.028.048.009a.108.108,0,0,1,.009.079Zm.8,1.165.02.031Zm1.907,2.979a.034.034,0,0,1,.048.011l-.009.048Zm-.135-.207.019.029Zm-2.558-3.65c.029-.02.029-.02.077-.011.157.11.274.288.252.385-.031.147-.137-.08-.2-.119C-215.345,189.932-215.373,189.824-215.412,189.765Zm2.71,4.142c.031-.02.049.009.079-.009.156.109.272.286.252.385-.031.147-.137-.08-.205-.12C-212.634,194.074-212.643,194-212.7,193.907Zm-3.028-4.822-.02-.031Zm0,.127-.019-.029a.035.035,0,0,1,.009-.049l.048.011C-215.72,189.163-215.7,189.194-215.731,189.212Zm2.73,4.173-.019-.029c-.02-.031-.02-.031-.009-.079a.033.033,0,0,0,.048.009C-212.991,193.336-212.991,193.336-213,193.385Zm-2.887-4.154c-.019-.029.011-.049-.008-.079l.1.148c.048.009.077-.009.128,0a.519.519,0,0,1-.042.2c.02.029-.079.009-.1-.021-.077-.117.049.011.059-.039a.213.213,0,0,1-.047-.137A.127.127,0,0,1-215.888,189.231Zm2.711,4.142.011-.049.1.148c.029-.019.079-.008.109-.028a.362.362,0,0,1-.022.227l-.1-.021c-.1-.148.031-.02.04-.068a.134.134,0,0,1-.028-.109C-213.12,193.462-213.159,193.4-213.177,193.373Zm-2.21-3.118a.218.218,0,0,1-.048-.137,1.223,1.223,0,0,0,.3.14C-215.172,190.327-215.28,190.354-215.387,190.255Zm2.711,4.142a.35.35,0,0,1-.048-.136l.019.029-.019-.029a.779.779,0,0,0,.3.14C-212.461,194.469-212.569,194.5-212.676,194.4Zm-2.738-4.377a.035.035,0,0,0,.011-.049l.029-.019a.124.124,0,0,1,.028.108C-215.366,190.03-215.385,190-215.414,190.02Zm2.711,4.142a.034.034,0,0,0,.009-.048l.049.009a.107.107,0,0,1,.009.079C-212.655,194.172-212.655,194.172-212.7,194.162Zm-2.333-3.629-.02-.029.02.029.019.029Zm2.71,4.142.02.031Zm-3.8-5.289c.031-.02.031-.02.012-.049.039-.068-.008-.205.089-.184.117.049.067.166.058.215a.278.278,0,0,1-.081.264c-.031.02-.216-.069-.225-.021-.07.087-.117-.05-.147-.031a.345.345,0,0,1-.029-.108.268.268,0,0,1,.08-.137c.02.031.009.079.028.108a.035.035,0,0,0,.049.011c.2.041-.126-.256,0-.255a.129.129,0,0,0-.009-.079l.019.029-.009.049C-216.291,189.326-216.164,189.326-216.125,189.386Zm2.711,4.142.031-.02c.019-.1-.028-.235.089-.184.1.02.047.137.038.187a.32.32,0,0,1-.061.294c-.031.02-.216-.07-.245-.052-.069.087-.1-.02-.147-.031a.369.369,0,0,1-.028-.108c.011-.049.069-.087.08-.137.02.031.008.08.028.109s.019.029.049.009c.195.041-.126-.256,0-.255l.009-.049a.034.034,0,0,1-.009.049C-213.561,193.5-213.453,193.469-213.415,193.528Zm-2.2-3.755.019.029a.077.077,0,0,1-.1-.021C-215.677,189.811-215.648,189.792-215.618,189.774Zm2.73,4.171a.122.122,0,0,1-.077.008A.108.108,0,0,1-212.889,193.945ZM-215.2,190.6a.034.034,0,0,1,.011-.049l.02.031Zm2.73,4.173-.019-.029.011-.049.019.029A.034.034,0,0,1-212.474,194.773Zm-3.07-4.5c-.088-.069-.077-.119-.038-.187.059.089.176.139.126.256l.039.059-.019-.029-.02-.029C-215.475,190.314-215.524,190.3-215.544,190.274Zm2.71,4.142c-.087-.069-.076-.119-.036-.187.058.089.195.168.144.286l.02.028-.02-.028C-212.745,194.485-212.795,194.476-212.835,194.416Zm-3.115-4.891-.02-.029Zm.2.375.019.029.049.011a.369.369,0,0,1,.028.108c-.059.039-.088.058-.147-.031-.019-.029.04-.068.069-.088Zm2.488,3.738.019.029Zm.222.4.02.031c.02.029.048.009.068.039a.12.12,0,0,1,.009.079c-.06.039-.089.059-.147-.031a.323.323,0,0,1,.069-.087Zm-2.752-3.819.029-.019.089-.058c-.021.1-.031.147-.041.195s-.06.039-.108.028c.009-.049-.009-.077.02-.1C-215.818,190.242-215.818,190.242-215.788,190.222Zm2.73,4.173.029-.02.089-.058a.514.514,0,0,0-.041.195c-.031.02-.079.009-.108.029.011-.049-.009-.079,0-.128Zm-2.991-4.636a.033.033,0,0,1-.048-.009.034.034,0,0,1,.011-.048.033.033,0,0,1,.048.009A.034.034,0,0,1-216.05,189.758Zm2.731,4.173-.048-.009c-.02-.031-.04-.06-.011-.079a.116.116,0,0,1,.068.04Zm-2.3-3.521-.029.02Zm2.681,4.162.029-.02c.019.029.019.029-.011.049Zm-2.875-4.33.029-.02Zm2.73,4.171.029-.019Zm-2.934-4.419-.02-.029-.039-.06a.036.036,0,0,0,.049.012A.1.1,0,0,0-216.022,189.994Zm.136.208.028-.019Zm2.593,3.965-.019-.029-.039-.06.029-.019A.131.131,0,0,0-213.292,194.167Zm.164.188-.048-.011.029-.019Zm-2.585-3.759c.011-.048.011-.048.02-.1.009.079.029.108.019.157A.049.049,0,0,1-215.713,190.6Zm2.73,4.172c.011-.049-.008-.079.021-.1-.011.048.009.079.018.156A.049.049,0,0,1-212.984,194.768Zm-.279-.493-.02-.029Zm-2.76-4.151a.741.741,0,0,0-.089.184l.019.029-.019-.029C-216.161,190.17-216.19,190.062-216.023,190.124Zm2.711,4.142a.343.343,0,0,0-.07.214C-213.431,194.343-213.479,194.2-213.312,194.265Zm-3.215-4.784a.034.034,0,0,1,.009-.049c.02.029.02.029.009.077Zm.629.9-.029.019a.117.117,0,0,1-.009-.077l-.02-.031Zm2.082,3.245.009-.049.019.029a.035.035,0,0,1-.009.049Zm.628.9-.029.019c-.019-.028.011-.048-.008-.077Zm-3.292-4.9c.077.117-.059.038-.05.117a.034.034,0,0,1-.048-.011.5.5,0,0,0,.012-.176C-216.528,189.608-216.449,189.6-216.48,189.619Zm2.711,4.142c.1.148-.059.039-.032.147a.034.034,0,0,0-.048-.011.472.472,0,0,1,.012-.176C-213.818,193.75-213.74,193.741-213.769,193.761Zm-3.014-4.283.011-.048.019.029a.112.112,0,0,1,.011.079Zm.278.748-.058-.088a.132.132,0,0,1-.07.087c-.187.038-.052.373-.189.421-.029.019-.029.019-.08.008-.039-.06-.047-.137-.086-.2l.029-.019.077.117.02.031.029-.019c-.154-.365.17-.323.19-.548l.06-.039c.029-.02.079-.008.157-.019-.011.049-.041.068-.051.117S-216.5,190.176-216.5,190.226Zm.41.24.02.029Zm.281.492.029-.019Zm1.762,2.693c-.02-.031-.02-.031.009-.049.02.031.02.031.009.079Zm.258.719-.039-.06c-.029.019-.04.069-.089.058-.167.068-.033.4-.17.451-.048-.011-.048-.011-.079.009-.059-.089-.067-.168-.106-.228l.029-.019.077.119.039.059a.033.033,0,0,0,.009-.048c-.154-.365.19-.292.211-.518.011-.049.011-.049.04-.069.049.011.077-.008.156-.018a.185.185,0,0,1-.049.117Zm.41.238.019.029Zm.329.5-.048-.011.029-.019Zm-3.709-5.475a.125.125,0,0,1,.009.077l-.031.02-.077-.119C-216.784,189.606-216.764,189.636-216.764,189.636Zm.067.166a.034.034,0,0,0,.011-.048l.019.029-.029.019c.02.031-.011.05.009.08C-216.708,189.852-216.677,189.832-216.7,189.8Zm.194.3.029-.02Zm2.45,3.679c.019.029.008.077.028.108a.036.036,0,0,1-.049-.011l-.077-.119Zm.087.2c.009-.049.009-.049-.011-.079l.02.029-.009.049-.012.049Zm.174.267.029-.019Zm-2.595-3.965.02.029Zm-.214-.2.048.011a.035.035,0,0,0-.009.049Zm2.759,4.154-.029.019.039.059C-213.852,194.28-213.852,194.28-213.842,194.231Zm-3.021-4.49-.019-.029-.02-.029Zm.075.245c-.019-.028.011-.048-.008-.077l.049.009c.019.029.008.08.028.109C-216.768,190.018-216.768,190.018-216.788,189.987Zm.456.633.031-.02Zm2.18,3.264-.02-.028Zm.1.276c-.02-.029-.009-.079-.029-.108l.049.011c.02.029.009.079.048.139A.113.113,0,0,1-214.057,194.16Zm.436.6.031-.02Zm-2.73-4.045c-.059-.088-.157-.109-.167-.188.05.011.088.069.156.109l-.009.049Zm2.544,3.954c.069.04.088.069.156.109a.129.129,0,0,0,.009.079C-213.68,194.8-213.779,194.78-213.807,194.672Zm-3.145-4.871.059.088Zm.6.917-.02-.029Zm2.11,3.225.058.088Zm.986,1.637-.02-.029Zm-3.7-5.4.019.029c.02.031-.029.019-.029.019C-216.985,190.2-216.985,190.2-216.955,190.183Zm2.71,4.142.02.031.019.029a.034.034,0,0,1-.048-.011A.035.035,0,0,1-214.246,194.325Zm-2.79-4.006c-.059.039-.127,0-.176-.011a.543.543,0,0,1-.019-.157c.058.088.156.109.207-.008A.59.59,0,0,0-217.035,190.32Zm2.73,4.171a.514.514,0,0,1-.195-.04c.009-.049-.029-.108-.019-.157.077.119.156.109.225.021A.642.642,0,0,0-214.306,194.491Zm-2.971-4.478c-.031.02-.031.02-.04.068l.029-.019C-217.308,190.033-217.346,189.973-217.277,190.013Zm.492.818a.036.036,0,0,0,.05.011l-.031.02Zm.077.247-.039-.06c.048.011.048.011.068.041l.06-.04.038.059c-.049-.009-.068-.039-.1-.019Zm2.16,3.106-.06.04.029-.02C-214.6,194.175-214.636,194.116-214.548,194.184Zm.522.8-.029.02Zm.028.236-.02-.031a.036.036,0,0,1,.049.012.116.116,0,0,0,.079-.009l.019.028c-.031.02-.049-.009-.1-.019Zm-3.089-4.783.02.029Zm.087.2-.019-.029a.034.034,0,0,1,.048.011.035.035,0,0,1-.009.049Zm2.663,4-.019-.028Zm.049.139.028-.019c.02.029.02.029-.009.048Zm-3.1-4.479-.029.019-.02-.029.029-.02Zm2.73,4.171-.029.02-.02-.029.029-.02Zm-2.868-4.124a.033.033,0,0,1-.048-.009l.029-.02.029-.019Zm2.731,4.173-.049-.011a.034.034,0,0,0,.011-.048l.048.009C-214.815,194.486-214.815,194.486-214.8,194.517Zm-2.973-4.478-.029.02Zm2.711,4.142-.031.02Zm-2.656-3.8c-.019-.031-.019-.031.011-.05-.019-.029,0,0,.029-.019-.009.049-.009.049.009.079A.035.035,0,0,1-217.713,190.383Zm2.711,4.142a.034.034,0,0,1,.011-.049l.049.011c-.029.019-.011.048.008.077C-214.983,194.554-214.983,194.554-215,194.525ZM-217,191.477l.031-.02-.019-.029.019.029Zm2.711,4.143.031-.02-.02-.031.02.031Zm-3.692-5.064.029-.019Zm.319.425.019.029Zm2.39,3.718.049.009Zm-2.875-4.331.02.031Zm.7,1.193c-.02-.029.009-.049-.009-.079l.049.009c-.031.02-.011.05-.021.1Zm2.015,2.949.019.031Zm.7,1.193.011-.049c-.02-.028,0,0,.029-.019a.262.262,0,0,0,0,.127Zm-3.455-5.217a.033.033,0,0,1,.009-.048l.019.029.02.029Zm.474.661a.036.036,0,0,1-.011.049l-.019-.029Zm2.235,3.481.029-.019.019.029C-215.464,194.658-215.464,194.658-215.483,194.628Zm.494.69-.029.02-.019-.029Zm-2.809-4.162.031-.02a.034.034,0,0,1-.011.049Zm.252.385.011-.049.02.029.019.029C-217.527,191.571-217.527,191.571-217.546,191.542Zm2.46,3.758a.035.035,0,0,0,.049.009l-.031.02Zm.27.413c-.019-.029-.019-.029.011-.049l.039.06Zm-2.624-3.946.029-.019-.029.019-.019-.029Zm2.711,4.143.029-.019.02.029a.035.035,0,0,0-.049-.011l-.019-.031Zm-2.839-4.016-.02-.029.089-.059a.034.034,0,0,0,.049.011c-.059.039-.088.059-.139.048.02.029.02.029.069.04C-217.549,191.923-217.549,191.923-217.568,191.894Zm2.016,2.821.02.031Zm.714,1.351-.019-.029c.029-.02.04-.068.069-.088a.1.1,0,0,0,.068.039.27.27,0,0,0-.137.049.034.034,0,0,0,.049.009Zm-3.659-5.593c-.019-.028-.019-.028-.008-.077l.019.029c.02.029.02.029.009.079Zm2.711,4.143a.034.034,0,0,1,.011-.049l.019.029-.009.049Zm-2.586-3.759-.039-.059.049.009.059.089A.109.109,0,0,1-218.374,190.857Zm2.711,4.142-.039-.059.049.011.058.088C-215.644,195.029-215.644,195.029-215.663,195Zm-2.635-3.9-.019-.029.029-.019.019.029Zm.116.177a.034.034,0,0,1,.011-.048C-218.152,191.261-218.152,191.261-218.181,191.28Zm2.6,3.966-.02-.031c.029-.019.029-.019.048.012Zm.135.207-.02-.029.029-.019Zm.589.966.019.029Zm-3.612-5.327a.035.035,0,0,1-.049-.011c.011-.048-.009-.079,0-.128l.048.011C-218.482,191.013-218.493,191.063-218.473,191.092Zm2.71,4.142c.02.031-.029.019-.029.019.011-.048-.008-.077,0-.127-.019-.029,0,0,.029-.02A.385.385,0,0,1-215.764,195.234Zm-2.615-3.739.019.029.029-.02-.009.05-.02-.031Zm2.759,4.153c.019.029-.011.049.009.079l-.039-.059Zm-3.156-4.695.048.009c.019.029.039.06.009.079a.034.034,0,0,1-.049-.011A.114.114,0,0,1-218.775,190.952Zm2.71,4.142a.127.127,0,0,1,.068.04.1.1,0,0,1,.009.077.124.124,0,0,1-.069-.039A.125.125,0,0,1-216.066,195.094Zm-1.714-2.555-.029.019Zm2.68,4.162.029-.02.02.029-.029.02Zm-3.119-4.508c.031-.02.011-.05.04-.069l.05.011a.124.124,0,0,0-.041.068Zm2.711,4.142c.031-.02.011-.05.04-.069a.035.035,0,0,0,.049.011c-.011.049-.04.068-.02.1C-215.459,196.345-215.489,196.365-215.508,196.335Zm-3.465-5.424-.019-.029Zm.223.4.029-.019c-.029.019-.029.019-.011.048Zm.25.512c.009-.048-.009-.077.021-.1a.122.122,0,0,1,.067.04l-.009.049C-218.451,191.838-218.47,191.808-218.5,191.827Zm.6.79.029-.019a.033.033,0,0,1-.009.048Zm1.637,2.436-.02-.029Zm.222.4.029-.019-.009.048Zm.25.512c.029-.019.011-.048.041-.068l.048.011c.02.031-.009.049.009.079C-215.74,195.981-215.74,195.981-215.79,195.969Zm.6.79.029-.019.019.029-.029.019Zm-3.5-5.277.02.031Zm-.107-.1.02.029Zm2.711,4.142.02.031Zm-2.963-4.4.031-.02c.019.029-.012.049.008.079l-.059.038Zm2.711,4.142.049.009-.012.049-.059.038Zm-2.5-3.563a.035.035,0,0,1-.048-.009c-.019-.029-.019-.029-.009-.079l.079-.009Zm2.712,4.143-.029.02a.132.132,0,0,1-.029-.108s.02.028.079-.011C-216.111,195.8-216.121,195.849-216.121,195.849Zm-2.461-3.63.019.029Zm2.711,4.142.039.06Zm-2.986-4.174.031-.02.02.029c.029-.019.077-.008.108-.028a.11.11,0,0,1,.008.079l-.089.059c-.019-.031-.008-.08-.027-.109A.036.036,0,0,0-218.856,192.187Zm2.711,4.142.031-.02.039.06.088-.059c.02.029.039.06.009.08a.132.132,0,0,0-.07.087c-.019-.029-.008-.079-.027-.108S-216.1,196.34-216.145,196.329Zm.274.159.019.029Zm-3.333-4.833.012-.049.048.011a.033.033,0,0,0-.009.048C-219.185,191.684-219.185,191.684-219.2,191.654Zm.274.286-.029.02c-.02-.031-.02-.031.009-.049Zm2.457,3.886c-.02-.031.011-.05-.009-.079a.036.036,0,0,0,.049.009c-.009.049-.009.049.009.079Zm.252.257.02.029-.049-.011.011-.048Z" transform="translate(245.95 -174.717)" fill="#4d4d4d" stroke="#d52234" stroke-width="1"/><path d="M-206.009,186.44c-.216.056-.289.4-.369.663-.051.119.016.284.015.412a4.254,4.254,0,0,1-.092.568.036.036,0,0,1-.05-.011c.065.549.1,1.119.144,1.639a3.854,3.854,0,0,1,.131.589c.038.188.046.393.1.609.009.079.038.187.047.265.008.205.046.393.065.551.075.373.1.735.176,1.109.066.295.1.608.169.9a.716.716,0,0,1,0,.255c.094.531.168,1.031.29,1.669a23.148,23.148,0,0,0,.538,2.564.16.16,0,0,1-.069.087c-.274-.286-.575-.554-.876-.821a5.758,5.758,0,0,0-.555-.525c-.458-.376-.886-.773-1.343-1.148a9.1,9.1,0,0,1-.74-.615c-.283-.237-.546-.447-.78-.674-.515-.465-1.041-.882-1.527-1.367a3.852,3.852,0,0,1-.6-.661,1.983,1.983,0,0,0-.72-.586c-.294-.189-.575-.427-.838-.635a1.9,1.9,0,0,0-.683-.4,1.791,1.791,0,0,0-.149.224c-.1-.02-.167-.06-.264-.081l-.031.02c-.139.175-.228.36-.337.517-.05.117-.119.205-.169.323a.98.98,0,0,0-.1.744c.018.156-.022.352,0,.51a2.408,2.408,0,0,0,.413.954,2.173,2.173,0,0,1,.124.384q.3.562.608,1.124c.077.119.144.285.222.4.262.463.533.877.823,1.321.221.4.444.809.686,1.242l.6.917a2.316,2.316,0,0,1,.211.453l.116.177a2.364,2.364,0,0,0,.376.768l.369.562.775,1.185a5.99,5.99,0,0,1,.4.669c.1.149.212.326.329.5.039.06.048.137.087.2l.136.207.619.947-.059.039.251.384.329.5.194.3a2.787,2.787,0,0,0,.261.463c.136.208.242.433.4.67s.311.473.485.74l.522.8c.155.237.279.493.416.7.1.148.144.285.222.4.261.463.472.916.714,1.349.2.375.406.749.638,1.1l.562.858a3.873,3.873,0,0,0,.407.494,7.067,7.067,0,0,0,.534.5.356.356,0,0,0,.413-.016c.129-.127.247-.2.376-.33a.491.491,0,0,0,.142-.559c-.027-.235-.036-.441-.043-.647a1.555,1.555,0,0,0-.159-.953c-.29-.443-.532-.877-.774-1.31-.183-.345-.357-.738-.539-1.084-.175-.267-.379-.513-.573-.809-.155-.237-.27-.542-.444-.808-.232-.356-.5-.642-.737-1-.174-.266-.289-.572-.483-.868a4.248,4.248,0,0,1-.367-.562l-.717-1.094c-.242-.434-.561-.858-.8-1.293a13.056,13.056,0,0,1-.821-1.448c-.116-.178-.193-.424-.329-.632l-.367-.561c-.116-.177-.222-.4-.358-.612-.116-.177-.281-.365-.4-.542-.174-.267-.319-.552-.474-.789-.135-.207-.3-.394-.436-.6l-1.181-1.8c-.271-.414-.552-.78-.834-1.145a.263.263,0,0,1-.058-.217c.02.031.049.012.068.041.264.207.5.436.78.674a5.621,5.621,0,0,0,.467.454l.642.594c.058.088.146.157.2.247.215.2.459.377.623.565.214.2.4.416.593.583l.059.088c.214.2.4.417.613.614a2.216,2.216,0,0,0,.37.308,10.71,10.71,0,0,0,.827.811c.155.108.312.217.467.328a4.974,4.974,0,0,1,.506.514,6.47,6.47,0,0,0,.564.6l.263.208q.264.208.526.417a6.206,6.206,0,0,0,.614.485,1.185,1.185,0,0,0,.538.241c.244.052.487.229.7.045a.646.646,0,0,0,.258-.38,1.854,1.854,0,0,0,.085-.646c-.035-.441-.07-.884-.086-1.295a6.057,6.057,0,0,1-.159-1.08,13,13,0,0,0-.25-1.739c-.065-.421-.1-.864-.184-1.316-.1-.4-.209-.835-.323-1.268-.1-.4-.14-.795-.235-1.2-.1-.483-.256-.974-.39-1.436-.056-.216-.1-.481-.161-.7s-.085-.452-.141-.669l-.077-.117c-.028-.236-.1-.481-.133-.717l.06-.039.155.237c.107.227.163.443.25.64.279.492.589.966.87,1.458.116.177.222.4.338.582a8.733,8.733,0,0,0,.444.808c.116.177.262.336.358.483.136.208.223.405.358.612a.108.108,0,0,0,.068.04l-.029.02a1.843,1.843,0,0,1,.274.286,1.35,1.35,0,0,1,.114.305l.049.009c.135.335.3.65.413.954a.035.035,0,0,0,.049.012,5.247,5.247,0,0,0,.581.888c.261.336.493.69.726,1.045l-.059.039a.132.132,0,0,1,.088.069l-.029.02c.4.67.763,1.36,1.159,2.03a2.068,2.068,0,0,0,.386.72,2.715,2.715,0,0,1,.32.424c.2.375.395.8.6,1.173.163.315.387.592.551.906.155.237.262.464.417.7a4.9,4.9,0,0,0,.561.858l.5.77c.1.148.252.256.319.424.194.424.522.8.746,1.2.067.167.164.188.322.169.049.011.079-.009.128,0-.09.185-.17.322.025.491a5.27,5.27,0,0,1,.795-.013c.089-.058.225-.106.315-.164.108-.027.247-.076.355-.1.011-.049-.029-.108-.019-.157-.008-.079-.008-.205.052-.244a.584.584,0,0,0,.006-.638c-.194-.3-.358-.612-.552-.908-.009-.079-.1-.148-.155-.236l-.271-.414c-.164-.315-.328-.632-.492-.946a15.6,15.6,0,0,1-.977-1.558,11.8,11.8,0,0,0-.872-1.331,2.043,2.043,0,0,1-.308-.6,8.069,8.069,0,0,0-.783-1.39c-.367-.561-.736-1.124-1.093-1.734-.271-.414-.483-.868-.754-1.282-.281-.492-.591-.966-.9-1.439-.281-.365-.542-.7-.794-1.086-.214-.325-.387-.719-.6-1.044-.318-.553-.667-1.086-.986-1.638-.1-.147-.184-.345-.3-.522-.154-.236-.338-.453-.473-.66-.214-.326-.4-.67-.58-1.017a5.7,5.7,0,0,1-.485-.611c-.2-.376-.475-.662-.708-1.017a6.346,6.346,0,0,1-.416-.7c-.164-.316-.358-.612-.521-.927a3.535,3.535,0,0,0-.389-.464C-205.317,185.818-205.623,186.061-206.009,186.44Zm1.016,2.842c-.011-.079-.048-.136-.058-.216l.029-.019.232.355-.029.019-.077-.117.009-.049C-204.915,189.273-204.964,189.264-204.993,189.283Z" transform="translate(225.356 -174.802)" fill="#4d4d4d" stroke="#d52234" stroke-width="1"/><path d="M-189.893,217.734c.135.208.232.228.587.123a.374.374,0,0,1,.459.25c.117.049.214.069.382.13.264-.047.568.093.962-.081.275-.1.629-.2,1.012-.324a1.182,1.182,0,0,0,.3-.194,19.36,19.36,0,0,0,1.532-1.468,5.613,5.613,0,0,0,.568-1,4.571,4.571,0,0,0,.291-.783,9.221,9.221,0,0,0,.363-1.125,18.253,18.253,0,0,0,.305-2.312,5.955,5.955,0,0,0-.237-2.168c-.249-.768-.5-1.534-.8-2.264a19.553,19.553,0,0,0-.9-1.821,8.353,8.353,0,0,0-.764-1.106,11.382,11.382,0,0,0-1.5-1.641c-.34-.325-.652-.673-1.021-.979-.585-.5-1.168-1.011-1.762-1.466-.556-.4-1.171-.756-1.736-1.1a12.808,12.808,0,0,0-1.132-.7c-.068-.04-.167-.061-.186-.09-.274-.16-.5-.308-.7-.427-.519-.21-1.006-.44-1.525-.652a6.609,6.609,0,0,0-2.5-.393,5.751,5.751,0,0,0-1.14.2,5.332,5.332,0,0,0-.6.182,7.142,7.142,0,0,0-.74.357,2.093,2.093,0,0,0-.754,1.041,1.564,1.564,0,0,0-.211.646c-.02.1.106.228.164.316.019.029.137-.048.215-.058a.754.754,0,0,1,.256,0,1.393,1.393,0,0,0,.609-.1,1.885,1.885,0,0,1,.688-.24,9.462,9.462,0,0,1,1.473-.2,5.628,5.628,0,0,1,1.117.156,5.69,5.69,0,0,0,.626.182,4.584,4.584,0,0,1,1.32.531c.039.06.117.05.186.09.362.229.7.427,1.064.656.342.2.623.437.965.635a7.718,7.718,0,0,1,1.46,1.2q.745.652,1.49,1.308c.214.2.409.365.622.564.166.188.359.356.526.544,0,0,.048.011.019.029.134.335.457.5.661.751.184.216.378.386.506.514.329.5.648.928.929,1.421a3.877,3.877,0,0,1,.336.836c.028.109.067.168.1.276.154.364.289.7.423,1.033.087.2.174.394.27.669a1.442,1.442,0,0,0,.121.767,4.355,4.355,0,0,1,.12.893,1.065,1.065,0,0,0,.035.313c-.052.372-.085.774-.136,1.147-.029.019-.029.019-.049-.011.039.059.029.108.067.167-.019-.029-.019-.029-.068-.039-.082.391-.194.8-.255,1.222a2.356,2.356,0,0,1-.65,1.4,2,2,0,0,1-.877.533,12.747,12.747,0,0,1-1.316.184,5.782,5.782,0,0,0-.727.053,1.9,1.9,0,0,0-.532.349c-.1.107-.217.184-.316.291-.06.039-.069.088-.14.175C-189.754,217.3-189.824,217.52-189.893,217.734Z" transform="translate(201.343 -172.955)" fill="#4d4d4d" stroke="#d52234" stroke-width="1"/></g><text transform="matrix(-0.837, 0.548, 0.548, 0.837, 9.856, 34.015)" fill="#4d4d4d" font-size="17" font-family="SegoeUI, Segoe UI"><tspan x="-9.164" y="0">2</tspan></text></g><g transform="translate(0 0.001)"><rect width="115.066" height="84.897" rx="16.209" transform="translate(142.77 71.04) rotate(146.802)" fill="none" stroke="#d52234" stroke-linecap="round" stroke-miterlimit="10" stroke-width="3"/><line x1="96.285" y2="63.003" transform="translate(35.975 54.979)" fill="none" stroke="#d52234" stroke-linecap="round" stroke-miterlimit="10" stroke-width="3"/><path d="M-228.891,226.668a3,3,0,0,0,4.149.866,3,3,0,0,0,.868-4.149,3,3,0,0,0-4.15-.868A3,3,0,0,0-228.891,226.668Z" transform="translate(315.478 -130.938)" fill="#4d4d4d" stroke="#d52234" stroke-width="1"/><rect width="25.797" height="11.633" transform="translate(111.79 105.214) rotate(146.802)" fill="none" stroke="#d52234" stroke-linecap="round" stroke-miterlimit="10" stroke-width="3"/><line x1="37.262" y2="24.382" transform="translate(82.708 100.608)" fill="none" stroke="#d52234" stroke-linecap="round" stroke-miterlimit="10" stroke-width="3"/></g></g><g transform="translate(-694.449 78.566)"><g transform="translate(0 0)"><rect width="31.113" height="128.268" transform="translate(46.489 127.315) rotate(173.011)" fill="none" stroke="#d52234" stroke-linecap="round" stroke-linejoin="round" stroke-width="3"/><line y1="1.893" x2="15.441" transform="translate(1.872 17.162)" fill="none" stroke="#d52234" stroke-linecap="round" stroke-linejoin="round" stroke-width="3"/><line y1="1.893" x2="15.441" transform="translate(5.488 46.662)" fill="none" stroke="#d52234" stroke-linecap="round" stroke-linejoin="round" stroke-width="3"/><line y1="1.893" x2="15.441" transform="translate(9.104 76.161)" fill="none" stroke="#d52234" stroke-linecap="round" stroke-linejoin="round" stroke-width="3"/><line y1="1.893" x2="15.441" transform="translate(12.721 105.66)" fill="none" stroke="#d52234" stroke-linecap="round" stroke-linejoin="round" stroke-width="3"/><line y1="0.946" x2="7.72" transform="translate(3.069 27.874)" fill="none" stroke="#d52234" stroke-linecap="round" stroke-linejoin="round" stroke-width="3"/><line y1="0.946" x2="7.72" transform="translate(4.279 37.741)" fill="none" stroke="#d52234" stroke-linecap="round" stroke-linejoin="round" stroke-width="3"/><line y1="0.946" x2="7.72" transform="translate(6.692 57.424)" fill="none" stroke="#d52234" stroke-linecap="round" stroke-linejoin="round" stroke-width="3"/><line y1="0.946" x2="7.72" transform="translate(7.901 67.291)" fill="none" stroke="#d52234" stroke-linecap="round" stroke-linejoin="round" stroke-width="3"/><line y1="0.946" x2="7.72" transform="translate(10.314 86.974)" fill="none" stroke="#d52234" stroke-linecap="round" stroke-linejoin="round" stroke-width="3"/><line y1="0.947" x2="7.72" transform="translate(11.524 96.841)" fill="none" stroke="#d52234" stroke-linecap="round" stroke-linejoin="round" stroke-width="3"/></g><g transform="translate(60.449 56.569)"><g transform="translate(11.265 20.483)"><line y1="4.167" x2="8.349" transform="translate(8.879 15.705)" fill="none" stroke="#d52234" stroke-linecap="round" stroke-linejoin="round" stroke-width="3"/><line y1="4.167" x2="8.349" transform="translate(22.153 42.297)" fill="none" stroke="#d52234" stroke-linecap="round" stroke-linejoin="round" stroke-width="3"/><line y1="4.167" x2="8.348" transform="translate(35.426 68.888)" fill="none" stroke="#d52234" stroke-linecap="round" stroke-linejoin="round" stroke-width="3"/><line y1="2.084" x2="4.174" transform="translate(0)" fill="none" stroke="#d52234" stroke-linecap="round" stroke-linejoin="round" stroke-width="3"/><line y1="2.084" x2="4.174" transform="translate(4.44 8.894)" fill="none" stroke="#d52234" stroke-linecap="round" stroke-linejoin="round" stroke-width="3"/><line y1="2.084" x2="4.174" transform="translate(13.296 26.637)" fill="none" stroke="#d52234" stroke-linecap="round" stroke-linejoin="round" stroke-width="3"/><line y1="2.084" x2="4.174" transform="translate(17.736 35.532)" fill="none" stroke="#d52234" stroke-linecap="round" stroke-linejoin="round" stroke-width="3"/><line y1="2.084" x2="4.174" transform="translate(26.592 53.275)" fill="none" stroke="#d52234" stroke-linecap="round" stroke-linejoin="round" stroke-width="3"/><line y1="2.084" x2="4.174" transform="translate(40.083 80.301)" fill="none" stroke="#d52234" stroke-linecap="round" stroke-linejoin="round" stroke-width="3"/><line y1="2.084" x2="4.174" transform="translate(31.032 62.169)" fill="none" stroke="#d52234" stroke-linecap="round" stroke-linejoin="round" stroke-width="3"/></g><path d="M-337.7,156.894-456.514,72.842l57.286,114.765Z" transform="translate(456.514 -72.842)" fill="none" stroke="#d52234" stroke-linecap="round" stroke-linejoin="round" stroke-width="3"/><path d="M-393.078,145.476l-32.5-22.991,15.669,31.392Z" transform="translate(475.576 -64.203)" fill="none" stroke="#d52234" stroke-linecap="round" stroke-linejoin="round" stroke-width="3"/></g></g><g transform="translate(-1351.43 480.861)"><g transform="translate(11.686 11.686)"><rect width="31.284" height="86.681" transform="matrix(-0.707, 0.707, -0.707, -0.707, 83.414, 61.293)" fill="none" stroke="#d52234" stroke-linecap="round" stroke-linejoin="round" stroke-width="3"/></g><path d="M-1261.159,457.591l-5.989-28.11-22.121,22.121Z" transform="translate(1362.248 -356.502)" fill="none" stroke="#d52234" stroke-linecap="round" stroke-linejoin="round" stroke-width="3"/><line x1="10.327" y2="10.327" transform="translate(87.966 87.966)" fill="none" stroke="#d52234" stroke-linecap="round" stroke-linejoin="round" stroke-width="3"/><path d="M0,0H31.284a0,0,0,0,1,0,0V9a7.524,7.524,0,0,1-7.524,7.524H7.524A7.524,7.524,0,0,1,0,9V0A0,0,0,0,1,0,0Z" transform="translate(33.807 11.686) rotate(135)" fill="none" stroke="#d52234" stroke-linecap="round" stroke-linejoin="round" stroke-width="3"/><line x1="22.121" y2="22.121" transform="translate(17.661 17.661)" fill="none" stroke="#d52234" stroke-linecap="round" stroke-linejoin="round" stroke-width="3"/><line x1="55.317" y1="55.317" transform="translate(28.722 28.722)" fill="none" stroke="#d52234" stroke-linecap="round" stroke-linejoin="round" stroke-width="3"/></g></g></g></svg>