<svg width="130" height="115" viewBox="0 0 130 115" fill="none" xmlns="http://www.w3.org/2000/svg">
<g clip-path="url(#clip0_14976_17158)">
<path d="M62.9542 3.86892C64.1105 1.87682 66.9873 1.87682 68.1435 3.86892L127.006 105.287C128.167 107.287 126.724 109.793 124.411 109.793H6.68635C4.37391 109.793 2.93092 107.287 4.0917 105.287L62.9542 3.86892Z" fill="#D01830"/>
<path d="M4.02256 94.0876L4.02383 94.0854L53.8216 8.31262C56.1232 4.35971 60.2169 2 64.8273 2C69.4371 2 73.5304 4.35919 75.8321 8.31131C75.8324 8.31174 75.8326 8.31218 75.8329 8.31262L125.608 94.0627L125.609 94.065C127.908 98.0122 127.908 102.718 125.609 106.665C123.308 110.618 119.214 112.977 114.604 112.977H113.778L113.755 113H15.0282C10.4178 113 6.32419 110.64 4.02256 106.687C1.72425 102.74 1.72425 98.0348 4.02256 94.0876ZM7.18162 95.8547L7.18155 95.8549C5.54786 98.6698 5.54786 102.083 7.18155 104.897C8.81026 107.704 11.7634 109.422 15.0282 109.422H114.581C117.834 109.422 120.794 107.736 122.429 104.895C124.061 102.08 124.061 98.669 122.428 95.8551C122.428 95.855 122.428 95.8549 122.427 95.8549L72.674 10.1027L72.6739 10.1025C71.0452 7.29614 68.092 5.57769 64.8273 5.57769C61.5696 5.57769 58.6158 7.26691 56.9611 10.0969L58.6876 11.1064L56.9579 10.1024L7.18162 95.8547Z" fill="#D01830" stroke="white" stroke-width="4"/>
<path d="M64.8279 31.0312C70.3308 31.0312 74.6285 35.8267 73.9691 41.2781L69.9215 74.8914C69.6031 77.4701 67.4202 79.4154 64.8051 79.4154C62.1901 79.4154 59.9844 77.4701 59.6888 74.8914L55.7094 41.2555C55.0727 35.8041 59.3477 31.0312 64.8506 31.0312H64.8279Z" fill="white"/>
<path d="M59.6199 95.7675C58.2101 94.365 57.4824 92.6233 57.4824 90.5875C57.4824 88.5517 58.1873 86.81 59.6199 85.4075C61.0298 84.0051 62.7807 83.2812 64.8272 83.2812C66.8738 83.2812 68.6247 83.9825 70.0345 85.4075C71.4443 86.81 72.172 88.5517 72.172 90.5875C72.172 92.6233 71.4671 94.365 70.0345 95.7675C68.6247 97.1699 66.8738 97.8938 64.8272 97.8938C62.7807 97.8938 61.0298 97.1925 59.6199 95.7675Z" fill="white"/>
</g>
<defs>
<clipPath id="clip0_14976_17158">
<rect width="129" height="115" fill="white" transform="translate(0.316406)"/>
</clipPath>
</defs>
</svg>
