<svg xmlns="http://www.w3.org/2000/svg" xmlns:xlink="http://www.w3.org/1999/xlink" width="642.936" height="549.601" viewBox="0 0 642.936 549.601"><defs><linearGradient id="a" x1="1.174" y1="0.02" x2="0.397" y2="0.648" gradientUnits="objectBoundingBox"><stop offset="0" stop-color="#fff"/><stop offset="0.216" stop-color="#fff" stop-opacity="0.761"/><stop offset="0.604" stop-color="#fff" stop-opacity="0.357"/><stop offset="0.874" stop-color="#fff" stop-opacity="0.098"/><stop offset="1" stop-color="#fff" stop-opacity="0"/></linearGradient></defs><g transform="translate(-27.401 -42.824)"><g transform="translate(127.936 141.991)"><path d="M495.681,392.182c0,5.074-84.85,9.185-189.519,9.185s-189.519-4.111-189.519-9.185S201.5,383,306.163,383,495.681,387.111,495.681,392.182Z" transform="translate(-93.935 -12.385)" fill="#8191a4"/><g transform="translate(0 0)"><rect width="76.976" height="64.054" transform="translate(173.332 288.701)" fill="#cecece"/><rect width="76.976" height="20.305" transform="translate(173.332 288.701)" fill="#b5b5b5"/><path d="M394.235,394.433H174.384a24.438,24.438,0,0,1,24.366-24.366H369.869a24.437,24.437,0,0,1,24.366,24.366Z" transform="translate(-71.936 -17.311)" fill="#fff"/><path d="M524.393,124.088V365.307H100.2V124.763a10.161,10.161,0,0,1,10.131-10.131H514.936A9.484,9.484,0,0,1,524.393,124.088Z" transform="translate(-100.2 -114.632)" fill="#133248"/><rect width="424.193" height="128.292" transform="translate(0 122.382)" fill="#011b2e"/><path d="M524.4,296.149a38.019,38.019,0,0,1-38.03,38.024H138.223A38.023,38.023,0,0,1,100.2,296.149Z" transform="translate(-100.2 -45.474)" fill="#fff"/><path d="M266.182,312.642a9.876,9.876,0,1,1-9.876-9.876A9.875,9.875,0,0,1,266.182,312.642Z" transform="translate(-44.486 -42.953)" fill="#133248"/><path d="M501.147,134.508V329.444a6.66,6.66,0,0,1-6.644,6.637H119.721a6.662,6.662,0,0,1-6.643-6.637V134.508a6.662,6.662,0,0,1,6.643-6.644H494.5A6.66,6.66,0,0,1,501.147,134.508Z" transform="translate(-95.293 -109.591)" fill="#353535"/><path d="M501.147,134.508v13.814H113.079V134.508a6.659,6.659,0,0,1,6.643-6.643H494.5A6.659,6.659,0,0,1,501.147,134.508Z" transform="translate(-95.293 -109.59)" fill="#686868"/><g transform="translate(365.889 25.368)"><path d="M371.518,136.188A3.187,3.187,0,1,1,368.332,133,3.186,3.186,0,0,1,371.518,136.188Z" transform="translate(-365.145 -133.001)" fill="#f7bf18"/><path d="M379,136.188A3.187,3.187,0,1,1,375.81,133,3.186,3.186,0,0,1,379,136.188Z" transform="translate(-362.296 -133.001)" fill="#08c086"/><path d="M386.114,136.188A3.187,3.187,0,1,1,382.927,133,3.186,3.186,0,0,1,386.114,136.188Z" transform="translate(-359.584 -133.001)" fill="#fd3f2c"/></g><g transform="translate(61.613 56.465)"><rect width="301.521" height="150.17" fill="#fff"/><rect width="301.521" height="12.892" fill="#686868"/><g transform="translate(271.275 3.772)"><path d="M346.6,160.924a2.674,2.674,0,1,1-2.675-2.674A2.675,2.675,0,0,1,346.6,160.924Z" transform="translate(-341.249 -158.25)" fill="#f7bf18"/><path d="M352.875,160.924a2.674,2.674,0,1,1-2.675-2.674A2.675,2.675,0,0,1,352.875,160.924Z" transform="translate(-338.857 -158.25)" fill="#08c086"/><path d="M358.849,160.924a2.675,2.675,0,1,1-2.675-2.674A2.675,2.675,0,0,1,358.849,160.924Z" transform="translate(-336.582 -158.25)" fill="#fd3f2c"/></g><g transform="translate(98.164 26.711)"><circle cx="45.9" cy="45.9" r="45.9" transform="translate(0 90.64) rotate(-80.878)" fill="#0074fa"/><path d="M242.292,243.743V195.469l41.247,24.137Z" transform="translate(-205.84 -167.009)" fill="#fff"/></g><g transform="translate(17.147 24.371)" opacity="0.3"><rect width="48.336" height="6.471" transform="translate(0 103.403)" fill="#686868"/><rect width="48.336" height="6.471" transform="translate(0 88.631)" fill="#686868"/><rect width="48.336" height="6.471" transform="translate(0 73.86)" fill="#686868"/><rect width="48.336" height="6.471" transform="translate(0 59.088)" fill="#686868"/><rect width="48.336" height="6.471" transform="translate(0 44.316)" fill="#686868"/><rect width="48.336" height="6.471" transform="translate(0 29.544)" fill="#686868"/><rect width="48.336" height="6.471" transform="translate(0 14.772)" fill="#686868"/><rect width="48.336" height="6.471" fill="#686868"/></g><g transform="translate(234.282 24.371)" opacity="0.3"><rect width="48.336" height="6.471" transform="translate(0 103.403)" fill="#686868"/><rect width="48.336" height="6.471" transform="translate(0 88.631)" fill="#686868"/><rect width="48.336" height="6.471" transform="translate(0 73.86)" fill="#686868"/><rect width="48.336" height="6.471" transform="translate(0 59.088)" fill="#686868"/><rect width="48.336" height="6.471" transform="translate(0 44.316)" fill="#686868"/><rect width="48.336" height="6.471" transform="translate(0 29.544)" fill="#686868"/><rect width="48.336" height="6.471" transform="translate(0 14.772)" fill="#686868"/><rect width="48.336" height="6.471" fill="#686868"/></g></g><path d="M351.211,128.123l-207.74,207.74H247.256L455.931,127.188Z" transform="translate(-83.714 -109.848)" fill="#fff" opacity="0.1"/><path d="M241.811,127.189l-.933.933-127.8,127.8V152.133l24.012-24.012Z" transform="translate(-95.294 -109.848)" fill="#fff" opacity="0.1"/><path d="M429.743,184.7V288.48l-25.47,25.47H300.491Z" transform="translate(-23.889 -87.937)" fill="#fff" opacity="0.1"/></g></g><g transform="translate(449.977 317.929)"><path d="M552.5,436.5l-33.637-37.606H336.448A4.9,4.9,0,0,0,334.4,406.4l20.512,26.917a28.8,28.8,0,0,0,22.908,11.344H548.848A4.9,4.9,0,0,0,552.5,436.5Z" transform="translate(-333.394 -182.266)" fill="#8191a4"/><g transform="translate(0.001)"><g transform="translate(0.338 176.597)"><path d="M334.556,394.483c2.375,8.753,30.61,38.048,36.653,44.245a22.688,22.688,0,0,0,17.162,8.688,3.344,3.344,0,0,0,.334.015H527.6a3.223,3.223,0,1,0,0-6.447H389.067a16.255,16.255,0,1,1,0-32.51H527.6a3.225,3.225,0,1,0,0-6.451h-.2l.541-1.1L469.8,369.907H353.065S328.669,372.8,334.556,394.483Z" transform="translate(-333.639 -369.907)" fill="#fdb900"/><path d="M362.353,407.85c.062-.131.127-.261.193-.391a18.336,18.336,0,0,1,15.575-8.827H516.665a3.231,3.231,0,0,0,3.229-3.084H378.121A16.289,16.289,0,0,0,362.353,407.85Z" transform="translate(-322.699 -360.138)" opacity="0.2"/><g transform="translate(38.014 38.566)"><path d="M377.421,430.343h139.7v-32.51h-139.7A16.257,16.257,0,0,0,363,406.589h0a16.256,16.256,0,0,0,0,15h0A16.255,16.255,0,0,0,377.421,430.343Z" transform="translate(-361.166 -397.833)" fill="#fff"/></g><g transform="translate(54.932 46.225)"><path d="M512.451,405.547H374.5a1.084,1.084,0,0,1,0-2.168H512.451Z" transform="translate(-373.416 -403.379)" fill="#cecece"/><g transform="translate(0 7.513)"><path d="M512.451,410.987H374.5a1.084,1.084,0,0,1,0-2.168H512.451Z" transform="translate(-373.416 -408.819)" fill="#cecece"/></g><g transform="translate(0 15.025)"><path d="M512.451,416.427H374.5a1.084,1.084,0,0,1,0-2.168H512.451Z" transform="translate(-373.416 -414.259)" fill="#cecece"/></g></g></g><g transform="translate(0 130.923)"><path d="M334.311,361.41c2.493,9.175,33.415,40.945,37.368,44.979a22.683,22.683,0,0,0,16.785,8.22c.11.01.221.015.334.015H527.7a3.223,3.223,0,1,0,0-6.447H389.16a16.255,16.255,0,1,1,0-32.51H527.7a3.225,3.225,0,1,0,0-6.451h-.674l.674-1.362-58.14-31.021H352.819S328.424,339.723,334.311,361.41Z" transform="translate(-333.394 -336.834)" fill="#fd3f2c"/><path d="M362.357,374.955c.059-.128.124-.253.188-.38a16.241,16.241,0,0,1,14.122-8.749c.481-.044.963-.065,1.453-.065H516.663a3.23,3.23,0,0,0,3.229-3.084H378.12A16.294,16.294,0,0,0,362.357,374.955Z" transform="translate(-322.359 -326.987)" opacity="0.2"/><g transform="translate(38.352 38.832)"><path d="M377.421,397.463h139.7v-32.51h-139.7A16.255,16.255,0,0,0,363,373.709h0a16.256,16.256,0,0,0,0,15h0A16.255,16.255,0,0,0,377.421,397.463Z" transform="translate(-361.166 -364.953)" fill="#fff"/></g><g transform="translate(55.27 46.49)"><path d="M512.45,372.668H374.5a1.085,1.085,0,0,1,0-2.17H512.45Z" transform="translate(-373.416 -370.498)" fill="#cecece"/><g transform="translate(0 7.514)"><path d="M512.45,378.107H374.5a1.084,1.084,0,1,1,0-2.168H512.45Z" transform="translate(-373.416 -375.939)" fill="#cecece"/></g><g transform="translate(0 15.027)"><path d="M512.45,383.547H374.5a1.084,1.084,0,1,1,0-2.168H512.45Z" transform="translate(-373.416 -381.379)" fill="#cecece"/></g></g></g><g transform="translate(1.958 87.554)"><g transform="translate(36.394 36.794)"><path d="M377.421,364.583h139.7v-32.51h-139.7A16.255,16.255,0,0,0,363,340.829h0a16.256,16.256,0,0,0,0,15h0A16.255,16.255,0,0,0,377.421,364.583Z" transform="translate(-361.166 -332.073)" fill="#fff"/></g><path d="M335.729,330c1.689,6.194,16.268,22.622,26.808,33.919.092.092.186.2.293.305.146.16.291.307.425.453,3.269,3.5,6.086,6.433,7.948,8.347a.768.768,0,0,0,.106.1c1.1,1.143,1.848,1.9,2.1,2.167l.093.094.012.012a22.5,22.5,0,0,0,14.408,5.755,2.7,2.7,0,0,0,.333.028h138.9a3.23,3.23,0,0,0,0-6.46H388.613a16.248,16.248,0,0,1-16.254-16.254,15.833,15.833,0,0,1,.664-4.585.048.048,0,0,1,.014-.04,16.284,16.284,0,0,1,15.576-11.629H527.158a3.232,3.232,0,0,0,3.229-3.084V339a3.254,3.254,0,0,0-1.262-2.552l-.014-.014a3.658,3.658,0,0,0-.956-.5l-.04-.014L470.977,305.43H354.244S329.842,308.314,335.729,330Z" transform="translate(-334.812 -305.43)" fill="#0074fa"/><path d="M362,346.09c0,.319.014.638.026.957a.875.875,0,0,1,.014.134,11.644,11.644,0,0,1,.624-2.592.048.048,0,0,1,.014-.04,16.284,16.284,0,0,1,15.576-11.629H516.8a3.232,3.232,0,0,0,3.229-3.084H378.254A16.28,16.28,0,0,0,362,346.09Z" transform="translate(-324.454 -296.131)" opacity="0.2"/><g transform="translate(53.312 44.452)"><path d="M512.451,339.788H374.5a1.085,1.085,0,0,1,0-2.17H512.451Z" transform="translate(-373.416 -337.618)" fill="#cecece"/><g transform="translate(0 7.513)"><path d="M512.451,345.228H374.5a1.085,1.085,0,0,1,0-2.17H512.451Z" transform="translate(-373.416 -343.058)" fill="#cecece"/></g><g transform="translate(0 15.027)"><path d="M512.451,350.667H374.5a1.084,1.084,0,1,1,0-2.168H512.451Z" transform="translate(-373.416 -348.499)" fill="#cecece"/></g></g></g><g transform="translate(52.111)"><ellipse cx="37.689" cy="4.895" rx="37.689" ry="4.895" transform="translate(7.646 99.486)" fill="#0074fa" opacity="0.5" style="mix-blend-mode:multiply;isolation:isolate"/><path d="M461.771,299.55a37.3,37.3,0,0,1-3.288,13.994c-6.948,15.433-24.02,25.982-43.554,25.247-25.031-.94-44.624-20.034-43.774-42.647.511-13.622,8.334-25.413,19.935-32.434a15.7,15.7,0,0,1,6.81-2.146,28.92,28.92,0,0,1,5.528.091c4.5.442,9.307,1.536,14.335,1.725,5.8.218,11.372-.69,16.471-.51,3.854.135,7.442.894,10.621,3.229C455.6,273.981,462.274,286.151,461.771,299.55Z" transform="translate(-371.129 -234.625)" fill="#fd3f2c"/><path d="M427.228,262.87c1.4,3.615-3.038,6.822-7.219,8.638-8.234,3.581-27.9.737-30.111-5.179-.848-2.279-.17-3.78,1-4.766,6.039-.551,12.718,1.547,19.863,1.816C416.554,263.6,422.129,262.689,427.228,262.87Z" transform="translate(-364.122 -234.624)" fill="#dd1e20"/><path d="M411.727,274.435a7.507,7.507,0,0,1-2.449,1,3.073,3.073,0,0,1-2.179-.247s-.388-7.259-8.275-17.278a25.231,25.231,0,0,0-16.067-9.208,2.55,2.55,0,0,1-2.174-2.444,1.068,1.068,0,0,1,0-.175,2.542,2.542,0,0,1,.313-1.126,2.587,2.587,0,0,1,2.316-1.333C403.251,244.1,411.727,274.435,411.727,274.435Z" transform="translate(-367.528 -241.425)" fill="#6f3840"/><g transform="translate(43.186)"><path d="M441.5,242.031s-.1,30.085-39.1,34.165c0,0,.017-.091.061-.264.682-3.1,8.151-33.04,39.017-33.9Z" transform="translate(-402.4 -242.031)" fill="#08c086"/><path d="M441.5,242.031s-.1,30.085-39.1,34.165c0,0,.017-.091.061-.264l39.017-33.9Z" transform="translate(-402.4 -242.031)" fill="#08c086" opacity="0.8" style="mix-blend-mode:multiply;isolation:isolate"/></g><path d="M458.483,313.543c-6.948,15.433-24.02,25.982-43.554,25.247-25.031-.94-44.624-20.034-43.774-42.647.511-13.622,8.334-25.413,19.935-32.434a15.7,15.7,0,0,1,6.81-2.146,28.92,28.92,0,0,1,5.528.091,35.769,35.769,0,0,1,10.726,11.331s-17.271-1.718-24.605,12.348,1.518,42.38,27.261,44.291S458.483,313.543,458.483,313.543Z" transform="translate(-371.129 -234.625)" fill="#dd1e20"/><path d="M414.658,273.041l8.949-8.089S440.4,276.015,441.9,295.3l-8.31,3.657A45.667,45.667,0,0,0,414.658,273.041Z" transform="translate(-354.544 -233.298)" fill="url(#a)"/></g></g></g><g transform="translate(313.259 394.212)"><ellipse cx="84.503" cy="21.518" rx="84.503" ry="21.518" transform="translate(0 155.176)" fill="#8191a4"/><g transform="translate(2.398)"><path d="M293.088,410.1c25.188-33.864,35.4-71.479,35.4-71.479l-.036,32.694s-21.486,35.982-28.965,44C296.5,415.314,293.088,413.972,293.088,410.1Z" transform="translate(-214.43 -281.513)" fill="#009461"/><g transform="translate(0 126.811)"><g transform="translate(21.364)"><path d="M354.341,401.531s-35.291-15.706-51.312-11.819-51.377,40.4-51.377,40.4c-.45,4,2.16,6.772,6.542,8.825,0,0,29.081-17.4,46.943-34.55,0,0,30.636,16.629,47.515,11.313C354.287,415.181,358.644,406.126,354.341,401.531Z" transform="translate(-251.601 -389.094)" fill="#011b2e"/></g><path d="M264.412,430.518a5.068,5.068,0,0,1-1.772,2.259c-1.469,1.178-6.655,5.1-6.655,5.1l-19.855-24.756s3.784-3.182,8.356-1.7,6.422,7.921,13.349,9.934C257.836,421.359,257.7,423.5,264.412,430.518Z" transform="translate(-236.131 -380.736)" fill="#e8e8e8"/></g><g transform="translate(100.045)"><path d="M311.514,325.806c-.283-2.761.412-12.334,1.211-14.929,1.895-6.147,7.482-13.122,20.324-13.589,15.151-.55,23.563,10.584,23.183,26.837a8.338,8.338,0,0,1,6.419,7.584c.677,6.533-3.411,5.183-3.411,5.183a12.069,12.069,0,0,1,4.875,6.242c1.084,3.033-1.991,9.992-6.9,8.9,0,0-.811,5.853-5.948,5.563s-4.883-3.564-4.883-3.564-7.522,5.314-11.476,4.628a5.351,5.351,0,0,1-4.313-4.693s-3.905,5.407-8.246,3.629-4.613-7.319-4.613-7.319-5.407.946-7.029-3.245,2.951-9.735,2.951-9.735-3.58.131-4.528-2.072C307.049,330.412,311.514,325.806,311.514,325.806Z" transform="translate(-308.575 -297.269)" fill="#133248"/></g><g transform="translate(105.125 16.808)"><g transform="translate(18.654 26.683)"><path d="M325.761,333.144l.668,3.747.753,4.236.646,3.66a8.154,8.154,0,0,0,6.814.128,20,20,0,0,0,5.19-2.881l-.023-.3-.113-1.388L338.934,331l-.155-1.96c-1.17-.6-3.011-.167-4.955.576-1.913.721-3.932,1.757-5.518,2.407C326.8,332.648,325.761,333.144,325.761,333.144Z" transform="translate(-325.761 -328.762)" fill="#fdb491"/></g><g transform="translate(18.657 29.058)"><path d="M325.763,332.492l1.417,7.981c5.285-1.911,8.93-9.992,8.93-9.992l-7.807.889C326.793,331.992,325.763,332.492,325.763,332.492Z" transform="translate(-325.763 -330.481)" fill="#ef887a"/></g><path d="M322.358,343.948a18.1,18.1,0,0,0,9.215.3,29.626,29.626,0,0,0,7.785-2.924,41.479,41.479,0,0,0,4.724-2.966c1.051-.757,1.906-1.446,2.505-1.951.646-.552,1-.895,1-.895s.128-2.011.09-4.927a63.323,63.323,0,0,0-1.03-11.044c-.916-4.568-2.592-8.7-5.64-10.1l-4.977.046-23.576.218s-.03.355-.068.992c-.079,1.389-.188,4.125-.106,7.462,0,.25.012.5.022.761C312.6,328.19,314.452,341.471,322.358,343.948Z" transform="translate(-312.253 -309.44)" fill="#fdb491"/><g transform="translate(31.791 21.149)"><path d="M336.143,334.5c.65-.552,2.676-4.813,2.676-4.813s.128-2.011.088-4.929l-2.121,1.186S333.864,332.807,336.143,334.5Z" transform="translate(-335.274 -324.754)" fill="#133248"/></g><g transform="translate(30.447 10.049)"><path d="M334.3,319.662s2.895-4.788,6.191-2.154c3.632,2.9,2,13.111-5.242,13.055Z" transform="translate(-334.3 -316.716)" fill="#fdb491"/></g><g transform="translate(0.137)"><path d="M312.352,310.7c.072,3.045,5.405,6.09,24.888,6.266,0,0,.007,8.978,3.843,8.16.913-.195,1.812-5.333,5.527-5.579-.913-4.568-2.592-8.7-5.639-10.1l-28.555.264S312.388,310.059,312.352,310.7Z" transform="translate(-312.352 -309.44)" fill="#133248"/></g><g transform="translate(23.141 0.001)"><path d="M329.01,310.517s2.3,13.433,3.577,26.463c.144,1.458.275,2.917.385,4.349.258,3.3,2.744,7.058,5.6,7.771l-.874-10.736c1.052-.758,1.906-1.447,2.505-1.954.65-.552,1.005-.895,1.005-.895s.126-2.008.087-4.927a62.522,62.522,0,0,0-1.029-11.044c-.913-4.567-2.592-8.695-5.641-10.1l-4.979.044A2,2,0,0,0,329.01,310.517Z" transform="translate(-329.01 -309.441)" fill="#133248"/></g></g><g transform="translate(16.975 139.726)"><g transform="translate(20.228)"><path d="M378.933,400.675s-44.07-3.74-60.408-1.53-55.276,34.87-55.276,34.87c-.862,3.937,1.449,6.96,5.594,9.454,0,0,30.723-14.3,50.261-29.515,0,0,33.779,17.362,51.362,15.355C384.3,427.731,382.633,406.442,378.933,400.675Z" transform="translate(-263.07 -398.446)" fill="#133248"/></g><path d="M274.755,437.031a5.057,5.057,0,0,1-2,2.063c-1.584,1.021-7.147,4.386-7.147,4.386l-17.189-26.674s4.091-2.774,8.485-.824,5.57,8.543,12.252,11.259C269.16,427.241,268.8,429.351,274.755,437.031Z" transform="translate(-248.423 -392.03)" fill="#fff"/></g><g transform="translate(107.523 55.98)"><path d="M321.583,393.426c.661,11.526-1.461,18.208-4.758,28.109,19.472,6.912,28.38,9.574,44.5,6.964.566-9.471,2.153-25.957,1.878-35.885-.823-29.516-4.176-48.468-4.176-48.468l-8.1-3.132-8.305-3.209-14.088.717-2.966.152-5.041.26s-.645,14.378-5.1,26.718c-3.627,10.034.534,12.051,2.808,14.441.09.093.173.185.257.28a4.542,4.542,0,0,1,.772,1.181c.057.131.111.272.167.421.137.376.275.8.4,1.255A78.466,78.466,0,0,1,321.583,393.426Z" transform="translate(-313.99 -337.805)" fill="#08c086"/><g transform="translate(4.235 42.288)"><path d="M317.056,368.426c.09.093.173.185.257.28a4.542,4.542,0,0,1,.772,1.181c.057.131.111.272.167.421a53.576,53.576,0,0,0,21.048,4.133c.453,0,.913,0,1.378-.014a.6.6,0,0,0-.012-1.193h-.015A51.857,51.857,0,0,1,317.056,368.426Z" transform="translate(-317.056 -368.426)" fill="#009461"/></g><path d="M324.517,338.523c.544,5.314.463,14.224,7.159,14.4,8.048.21,13.439-8.5,15.234-11.906l-8.305-3.209Z" transform="translate(-309.979 -337.805)" fill="#fdb491"/></g><g transform="translate(93.604 62.322)"><path d="M303.911,412.683c10.338-5.762,32.433-18.624,32.433-18.624s12.341-15.326,26.521-51.662c0,0,7.183,6.412,2.988,25.783s-22.093,37.263-22.093,37.263-24.162,12.012-34.877,12.807Z" transform="translate(-303.911 -342.397)" fill="#009461"/></g><g transform="translate(35.54 102.932)"><path d="M273.86,398.838l70.207,7.024a2.886,2.886,0,0,0,3.158-2.584h0a2.886,2.886,0,0,0-2.584-3.16l-70.207-7.024a2.886,2.886,0,0,0-3.16,2.584h0A2.886,2.886,0,0,0,273.86,398.838Z" transform="translate(-258.286 -363.697)" fill="#fff"/><path d="M273.861,405.652l.006.012L336,411.675,321.529,378.42a4.357,4.357,0,0,0-3.567-2.6l-4.078-.4,18.25,35.866Z" transform="translate(-257.296 -370.425)" fill="#fff"/><path d="M277.324,406.923l51.424,4.973a4.7,4.7,0,0,0,4.766-6.56l-11.2-25.731a4.706,4.706,0,0,0-3.86-2.8l-51.424-4.974a4.7,4.7,0,0,0-4.766,6.561l11.2,25.731A4.706,4.706,0,0,0,277.324,406.923Z" transform="translate(-261.866 -371.803)" fill="#cecece"/><path d="M283.726,386.972a3.978,3.978,0,1,0,4.354-3.562A3.979,3.979,0,0,0,283.726,386.972Z" transform="translate(-253.545 -367.389)" fill="#011b2e" opacity="0.2"/></g></g></g><g transform="translate(348 42.824)"><g transform="translate(9.354)"><path d="M327.771,75.558A28.888,28.888,0,0,0,331.233,65.3c.47-6.637-2.313-15.453-14.525-20.7C302.3,38.4,288.723,49.215,283.014,65.035c-7.863,21.789-16.689,32.235-16.689,32.235l34.641,18.717S311.29,102.051,327.771,75.558Z" transform="translate(-266.325 -42.824)" fill="#133248"/></g><g transform="translate(42.92 54.042)"><path d="M353.365,105.4s-14.612,17.9-46.973,21.778l-.007-.012v0c-5.123-5.717-10.823-19.124-14.618-30.26-1.42-4.162-1.5-6.6-.283-9.168a11.674,11.674,0,0,1,5.86-5.63c.579-.255,1.137-.267,1.654.808,1.174,2.433,2.341,5.3,3.673,8.1,4.041,8.495,7.218,16.343,9.171,21.422h0a73.891,73.891,0,0,1,18.769-4.567c10.781-1.225,19.515-8.21,19.515-8.21Z" transform="translate(-290.63 -81.957)" fill="#dd1e20"/></g><g transform="translate(0.825 46.527)"><path d="M303.55,129.316c-.13-6.459-.423-2.3.706-10.138.035-.307.073-.62.112-.931.1-.178.2-.352.3-.528a29.316,29.316,0,0,0,3.248-7.061c1.875-7.039.468-11.509-.039-15.935.41-2.042,1.849-8.95,2.306-10.984l-9.023-3.482-1.881-.725-.112-.043v0l-1.922-.74-.148-.055a32.4,32.4,0,0,0-13.655-2.116c-.307.019-.6.039-.911.069l-3.45.307-.131.012-2.214.2L263.912,78.3l-3.763,51.016Z" transform="translate(-260.149 -76.515)" fill="#fd3f2c"/><g transform="translate(16.583 0)"><path d="M272.157,77.159c4.186,8.435,14.434,17.86,19.685,14.952,3.23-1.784,4.55-7.651,4.74-11.853l-1.881-.724-.115-.043v0l-1.921-.74-.146-.058a32.441,32.441,0,0,0-13.658-2.114l-.475.065-.432.054-3.452.257-.133.011Z" transform="translate(-272.157 -76.515)" fill="#fdb491"/></g><g transform="translate(17.704 38.678)"><path d="M299.486,107.577c-.039.311-.082.621-.115.929-2.223.475-9.2,1.456-21.067-1.385q-2.306-.553-4.862-1.309a.658.658,0,1,1,.374-1.262c17.113,5.083,25.851,2.533,25.938,2.509l.025-.008C299.683,107.222,299.586,107.4,299.486,107.577Z" transform="translate(-272.969 -104.522)" fill="#d91866"/></g></g><g transform="translate(21.558 10.486)"><g transform="translate(3.653 24.74)"><path d="M294.739,77.307l-2.085,3.337L290.3,84.42l-2.036,3.258c-2.538.342-4.814-.932-6.587-2.508a20.623,20.623,0,0,1-3.865-4.769l5.119-10.24.91-1.82c1.352-.123,2.95,1,4.531,2.464,1.555,1.436,3.092,3.205,4.365,4.444C293.943,76.428,294.739,77.307,294.739,77.307Z" transform="translate(-277.807 -68.331)" fill="#fdb491"/></g><g transform="translate(11.432 27.79)"><path d="M292.592,76.466l-4.444,7.111C283.816,79.7,283.44,70.54,283.44,70.54l7.147,3.868C291.8,75.589,292.592,76.466,292.592,76.466Z" transform="translate(-283.44 -70.54)" fill="#ef887a"/></g><g transform="translate(6.505)"><path d="M300.83,90.735a18.762,18.762,0,0,1-8.965-3.266,30.691,30.691,0,0,1-6.337-5.814,43.63,43.63,0,0,1-3.389-4.668c-.714-1.137-1.266-2.125-1.645-2.845-.413-.782-.621-1.243-.621-1.243s.655-1.98,1.819-4.766a65.21,65.21,0,0,1,5.257-10.2c2.638-4.03,5.844-7.344,9.311-7.517l4.759,1.969L323.56,61.7s-.108.354-.319.982c-.461,1.364-1.409,4.027-2.774,7.194-.1.24-.209.482-.318.729C316.274,79.383,309.376,91.416,300.83,90.735Z" transform="translate(-279.872 -50.417)" fill="#fdb491"/></g><g transform="translate(6.505 17.72)"><path d="M280.582,73.664c-.41-.78-.71-5.652-.71-5.652s.655-1.979,1.82-4.763l1.577,1.957S283.421,72.923,280.582,73.664Z" transform="translate(-279.872 -63.248)" fill="#133248"/></g><g transform="translate(6.749 7.177)"><path d="M289.552,60.253s-.928-5.712-5.108-4.459c-4.607,1.382-6.985,11.81-.012,14.553Z" transform="translate(-280.049 -55.614)" fill="#fdb491"/></g><g transform="translate(13.579 0.001)"><path d="M321.288,62.68c-1.244,2.893-7.54,3.755-26.3-3.6,0,0-3.475,8.613-6.84,6.346-.8-.539.32-5.817-3.149-7.489,2.64-4.03,5.846-7.343,9.315-7.515l27.3,11.281S321.5,62.053,321.288,62.68Z" transform="translate(-284.995 -50.418)" fill="#133248"/></g><path d="M303.025,53.62s-7.394,12-13.65,24.01c-.7,1.346-1.391,2.7-2.051,4.027-1.838,3.7-6.006,5.2-9.706,4.795-2.386-2.114-2.457-3.077-2.457-3.077l8.772-6.389c-.717-1.137-1.268-2.124-1.648-2.842-.41-.782-.62-1.244-.62-1.244s.653-1.979,1.819-4.764a65.128,65.128,0,0,1,5.255-10.2c2.642-4.03,5.847-7.343,9.315-7.517l4.759,1.968A2.022,2.022,0,0,1,303.025,53.62Z" transform="translate(-275.162 -50.417)" fill="#133248"/></g><g transform="translate(0 48.311)"><path d="M323.682,110.31s-16.056,13.385-48.418,17.258l-.005-.012v0c-5.125-5.717-10.823-19.123-14.618-30.26a20.461,20.461,0,0,1,3.5-19.486c1.374,1.063,2.559,3.063,3.733,5.5s2.341,5.3,3.672,8.1c4.041,8.495,7.22,16.343,9.171,21.422h0a73.81,73.81,0,0,1,18.771-4.568,117.09,117.09,0,0,0,21.115-4.7Z" transform="translate(-259.551 -77.807)" fill="#dd1e20"/></g><path d="M303.76,98.358s8.624-7.466,13.259-6.868,8.077,4.789,8.376,8.082-3.932,2.877-7.482,2.073-11.074,3.465-11.074,3.465A13.233,13.233,0,0,1,303.76,98.358Z" transform="translate(-242.708 -24.295)" fill="#fdb491"/><g transform="translate(63.318 53.139)"><path d="M354.289,86.6l-16.626,40.731a3.843,3.843,0,0,1-3.56,2.392h-24.85a3.843,3.843,0,0,1-3.562-5.3l16.62-40.731a3.845,3.845,0,0,1,3.56-2.392h24.85A3.847,3.847,0,0,1,354.289,86.6Z" transform="translate(-305.401 -81.303)" fill="#e8e8e8"/><path d="M353.011,86.6l-16.626,40.731a3.843,3.843,0,0,1-3.56,2.392H312.606a3.843,3.843,0,0,1-3.562-5.3l16.62-40.731a3.845,3.845,0,0,1,3.56-2.392h20.219A3.847,3.847,0,0,1,353.011,86.6Z" transform="translate(-304.123 -81.303)" fill="#fff"/><path d="M331.269,100.931a6.573,6.573,0,0,1-5.605,4.05c-2.237,0-3.354-1.813-2.5-4.05a6.573,6.573,0,0,1,5.605-4.05C331.011,96.881,332.128,98.694,331.269,100.931Z" transform="translate(-298.742 -75.368)" fill="#e8e8e8"/><path d="M341.485,98.132s1.863-4.171-.115-5.288l-1.682,4.121s-3.654-3.3-6.192-1.693-6.626,10.385-5.347,12.737,8.367,4.426,10.893,1.494S342.419,100.808,341.485,98.132Z" transform="translate(-296.826 -76.906)" fill="#fdb491"/></g></g><g transform="translate(127.178 361.406)"><path d="M234.483,415.373c0,4.788-30.183,8.67-67.416,8.67s-67.416-3.882-67.416-8.67,30.183-8.671,67.416-8.671S234.483,410.584,234.483,415.373Z" transform="translate(-99.651 -222.769)" fill="#8191a4"/><g transform="translate(2.284)"><g transform="translate(23.389)"><g transform="translate(0 1.024)"><rect width="19.613" height="147.861" transform="translate(0.001 22.467) rotate(-8.709)" fill="#0074fa"/><path d="M137.628,293.754l-19.388,2.97,4.267-14.806,2.212-7.663,4.4,6.649Z" transform="translate(-118.241 -274.255)" fill="#fdb491"/><rect width="19.613" height="10.743" transform="translate(20.764 158.004) rotate(-8.709)" fill="#133248"/><path d="M0,0H19.613a0,0,0,0,1,0,0V7.362a1.2,1.2,0,0,1-1.2,1.2H1.2A1.2,1.2,0,0,1,0,7.362V0A0,0,0,0,1,0,0Z" transform="translate(22.39 168.622) rotate(-8.708)" fill="#fd3f2c"/><path d="M127.948,280.9l-6.617,1.013,2.212-7.663Z" transform="translate(-117.064 -274.255)" fill="#0074fa"/><rect width="19.613" height="7.704" transform="translate(19.597 150.389) rotate(-8.709)" fill="#0052dd"/><path d="M122.535,295.68l16.58,108.234a1.5,1.5,0,0,0,1.708,1.254h0a1.5,1.5,0,0,0,1.253-1.708L125.5,295.226a1.5,1.5,0,0,0-1.708-1.254h0A1.5,1.5,0,0,0,122.535,295.68Z" transform="translate(-116.612 -266.75)" fill="#0052dd"/><path d="M128.025,294.834l16.58,108.234a1.5,1.5,0,0,0,1.708,1.254h0a1.5,1.5,0,0,0,1.254-1.708L130.987,294.38a1.5,1.5,0,0,0-1.708-1.254h0A1.5,1.5,0,0,0,128.025,294.834Z" transform="translate(-114.52 -267.072)" fill="#0052dd"/></g><g transform="translate(34.825)"><rect width="19.613" height="147.861" transform="translate(0.001 21.258) rotate(-0.187)" fill="#fdb900"/><path d="M163.072,294.711l-19.614.064,6.415-14.01,3.323-7.25,3.371,7.229Z" transform="translate(-143.458 -273.514)" fill="#fdb491"/><rect width="19.613" height="10.743" transform="translate(0.449 158.376) rotate(-0.187)" fill="#133248"/><path d="M0,0H19.613a0,0,0,0,1,0,0V7.362a1.2,1.2,0,0,1-1.2,1.2H1.2A1.2,1.2,0,0,1,0,7.362V0A0,0,0,0,1,0,0Z" transform="translate(0.484 169.118) rotate(-0.186)" fill="#fd3f2c"/><path d="M154.8,280.742l-6.694.022,3.323-7.25Z" transform="translate(-141.688 -273.514)" fill="#fdb900"/><rect width="19.613" height="7.704" transform="translate(0.424 150.672) rotate(-0.187)" fill="#fdb900" opacity="0.7" style="mix-blend-mode:multiply;isolation:isolate"/><path d="M147.006,294.586l.359,109.5a1.5,1.5,0,0,0,1.5,1.494h0a1.5,1.5,0,0,0,1.493-1.5L150,294.576a1.5,1.5,0,0,0-1.5-1.493h0A1.5,1.5,0,0,0,147.006,294.586Z" transform="translate(-142.106 -266.058)" fill="#fdb900" opacity="0.7" style="mix-blend-mode:multiply;isolation:isolate"/><path d="M152.562,294.563l.358,109.5a1.5,1.5,0,0,0,1.5,1.493h0a1.5,1.5,0,0,0,1.493-1.5l-.358-109.5a1.5,1.5,0,0,0-1.5-1.493h0A1.5,1.5,0,0,0,152.562,294.563Z" transform="translate(-139.99 -266.067)" fill="#fdb900" opacity="0.7" style="mix-blend-mode:multiply;isolation:isolate"/></g><g transform="translate(46.859 0.882)"><rect width="19.613" height="147.861" transform="translate(22.001 19.636) rotate(8.085)" fill="#fd3f2c"/><path d="M187.52,296.55,168.1,293.791l8.364-12.942,4.332-6.7,2.3,7.638Z" transform="translate(-146.103 -274.153)" fill="#fdb491"/><rect width="19.613" height="10.743" transform="translate(2.716 155.392) rotate(8.085)" fill="#133248"/><path d="M0,0H19.613a0,0,0,0,1,0,0V7.362a1.2,1.2,0,0,1-1.2,1.2H1.2A1.2,1.2,0,0,1,0,7.362V0A0,0,0,0,1,0,0Z" transform="translate(1.204 166.027) rotate(8.086)" fill="#fd3f2c"/><path d="M180.785,281.791l-6.627-.942,4.332-6.7Z" transform="translate(-143.795 -274.153)" fill="#fd3f2c"/><rect width="7.704" height="19.613" transform="translate(2.716 155.392) rotate(-81.915)" fill="#dd1e20"/><path d="M175.109,294.447l-15.4,108.408a1.5,1.5,0,0,0,1.272,1.693h0a1.5,1.5,0,0,0,1.693-1.272l15.4-108.408a1.5,1.5,0,0,0-1.273-1.694h0A1.5,1.5,0,0,0,175.109,294.447Z" transform="translate(-149.306 -266.911)" fill="#dd1e20"/><path d="M180.61,295.223l-15.4,108.408a1.5,1.5,0,0,0,1.272,1.694h0a1.5,1.5,0,0,0,1.694-1.273l15.4-108.408a1.5,1.5,0,0,0-1.273-1.693h0A1.5,1.5,0,0,0,180.61,295.223Z" transform="translate(-147.21 -266.615)" fill="#dd1e20"/></g></g><g transform="translate(12.231 79.68)"><path d="M215.961,331.211l-1.016,7.935-.932,7.2-.648,5-.766,5.945-.917,7.122-.577,4.477-.847,6.55-.913,7.033-1.434,11.117-.892,6.933-1.453,11.212-.877,6.847-1.46,11.3-.877,6.757-.751,5.849a249.479,249.479,0,0,1-77.075,0l-.753-5.849-.881-6.757-1.46-11.3-.877-6.847-1.449-11.212-.9-6.933-1.433-11.117-.913-7.033-.847-6.55-.577-4.477-.911-7.122-.768-5.945-.646-5-.932-7.2-1.022-7.935Z" transform="translate(-110.161 -331.211)" fill="#fff"/></g><path d="M5.81,0h117.2a5.809,5.809,0,0,1,5.809,5.809v8.509a5.809,5.809,0,0,1-5.809,5.809H5.81A5.81,5.81,0,0,1,0,14.318V5.81A5.81,5.81,0,0,1,5.81,0Z" transform="translate(0 79.682)" fill="#fff"/><path d="M212.647,345.787l-.767,5.945-.917,7.123-.576,4.476H114.3l-.576-4.476-.912-7.123-.767-5.945Z" transform="translate(-97.213 -245.978)" fill="#cecece" opacity="0.5"/></g></g><g transform="translate(27.401 258.265)"><path d="M27.4,428.875c0,4.5,27.972,8.158,62.478,8.158s62.476-3.653,62.476-8.158-27.972-8.158-62.476-8.158S27.4,424.37,27.4,428.875Z" transform="translate(-27.401 -114.288)" fill="#8191a4"/><g transform="translate(16.372)"><g transform="translate(57.074 61.546)"><path d="M84.176,243.394s15.318,14.995,22.382,19.991c0,0,6.336-1.456,19.719-5.385a176.3,176.3,0,0,0,17.249-5.731,52.919,52.919,0,0,0-4.015,12.352s-24.923,12.951-34.943,13.269c0,0-13.7-8.238-23.984-19.077Z" transform="translate(-80.584 -243.394)" fill="#0052dd"/></g><g transform="translate(39.469 147.621)"><path d="M86.522,463.025H97.014l6.68-80.663-7.507-73.986-28.351-2.654,17,84.338C80.034,409.55,84.049,434.489,86.522,463.025Z" transform="translate(-67.836 -305.722)" fill="#011b2e"/><path d="M81.322,419.329a4.9,4.9,0,0,0-.632,2.705c0,1.824.18,8.113.18,8.113h30.707s.112-4.782-3.778-7.335-9.867-.052-15.579-4.064C92.218,418.749,90.687,420.147,81.322,419.329Z" transform="translate(-62.939 -262.659)" fill="#fff"/></g><g transform="translate(0 146.472)"><g transform="translate(0.7)"><path d="M39.763,462.733c2.03-21.864,11.56-65.863,17.64-75.352l.059-82.491,27.707,6.567-8.28,76.1-26.5,74.571C47.225,463.9,43.554,463.563,39.763,462.733Z" transform="translate(-39.763 -304.89)" fill="#133248"/></g><path d="M39.956,419.353a4.818,4.818,0,0,0-.7,2.754v8.042H69.935s.113-4.782-3.777-7.335-9.867-.052-15.58-4.064C50.577,418.749,49.323,420.17,39.956,419.353Z" transform="translate(-39.256 -261.51)" fill="#fff"/></g><g transform="translate(10.729 57.644)"><path d="M107.4,335.829c-1.352,2.277-5.969,4.016-9.939,4.981-.273.068-.543.13-.808.189-.693.155-1.352.282-1.964.384a118.078,118.078,0,0,1-19.667,1.558,31.61,31.61,0,0,1-3.847-.257c-.268-.033-.539-.07-.809-.108-6.861-1.009-14.488-4-18.309-7.83l5.582-24.971-10.617-62.1,14.255-4.879.765-.262,3.2-1.1,2.54-.867,15.078,2.02,2.453.327.865.116,10.786,1.445Z" transform="translate(-47.025 -240.569)" fill="#0074fa"/></g><g transform="translate(19.856)"><g transform="translate(35.611 12.305)"><path d="M81.609,207.738s4.057,1.993,3.567,8.872-2.993,7.921-2.993,7.921S76.369,210.178,81.609,207.738Z" transform="translate(-79.42 -207.738)" fill="#133248"/></g><g transform="translate(9.989 44.835)"><path d="M75.435,232.29l.6,8.541.276,5.121c-4.427,4.234-13-.939-13-.939l-2.444-12.464c2.067-1.81,8.053-1.282,11.676-.754C74.252,232.044,75.435,232.29,75.435,232.29Z" transform="translate(-60.867 -231.294)" fill="#fdb491"/></g><g transform="translate(13.44 45.337)"><path d="M74.483,232.151l.6,8.541c-5.905-.6-11.719-7.937-11.719-7.937l8.225-1.1C73.3,231.906,74.483,232.151,74.483,232.151Z" transform="translate(-63.366 -231.657)" fill="#ef887a"/></g><path d="M91.112,214.646s8.609-5.419,4.973-12.591-13.938-.424-24.368,1.46c-15.734,2.842-19.262,9.326-17.771,17.86s2.863,20.055,7.3,23.853S67.567,242.622,68.9,237,80.562,213.359,91.112,214.646Z" transform="translate(-53.634 -198.828)" fill="#133248"/><g transform="translate(3.198 10.225)"><path d="M91.984,219.023c.03.29.064.587.093.885a133.581,133.581,0,0,1,.182,17.329,10.149,10.149,0,0,1-10.875,9.678c-6.868-.5-15.386-1.505-19.468-3.5A4.1,4.1,0,0,1,59.6,241.3a56.261,56.261,0,0,1-1.548-7.317c-1.363-8.611-2.1-19.476-2.1-19.476,6.779-11.018,29.705-9.965,34.05-3.085C90.993,213,91.616,215.739,91.984,219.023Z" transform="translate(-55.95 -206.232)" fill="#fdb491"/></g><g transform="translate(2.177 6.994)"><path d="M57.288,226.96s3.287-2.788,6.833.993l2.348-.3s-.746-4.806.062-7.566,5.311-3.263,5.59-6.434c0,0,11.145,2.874,18.389-.939s-17.169-13.6-27.385-6.029S54.54,218.965,57.288,226.96Z" transform="translate(-55.211 -203.893)" fill="#133248"/></g><g transform="translate(5.299 37.978)"><path d="M61.336,235.755a4.1,4.1,0,0,1-2.317-2.11,56.261,56.261,0,0,1-1.548-7.317l6.438,3.317S64.522,233.85,61.336,235.755Z" transform="translate(-57.471 -226.328)" fill="#133248"/></g><g transform="translate(3.228 28.986)"><path d="M63.832,221.886s-4.146-3.9-6.833-.993c-2.962,3.2.773,12.3,7.482,11.234Z" transform="translate(-55.971 -219.817)" fill="#fdb491"/></g></g><g transform="translate(26.876 5.126)"><rect width="22.832" height="172.129" transform="translate(122.411 10.621) rotate(42.239)" fill="#fdb900"/><path d="M164.259,228.511l-16.9-15.349,16.516-7,8.55-3.62-2.781,8.859Z" transform="translate(-24.946 -202.54)" fill="#fdb491"/><rect width="22.832" height="12.506" transform="translate(15.108 128.797) rotate(42.239)" fill="#133248"/><rect width="22.832" height="9.968" transform="translate(6.701 138.055) rotate(42.241)" fill="#fd3f2c"/><path d="M165.083,211.4l-5.769-5.238,8.55-3.62Z" transform="translate(-20.39 -202.54)" fill="#133248"/><rect width="8.968" height="22.832" transform="matrix(0.672, -0.74, 0.74, 0.672, 15.108, 128.797)" fill="#fdb900" opacity="0.7" style="mix-blend-mode:multiply;isolation:isolate"/><path d="M170.036,217.7,84.348,312.07a1.743,1.743,0,0,0,.119,2.462h0a1.742,1.742,0,0,0,2.462-.119l85.69-94.371a1.745,1.745,0,0,0-.12-2.464h0A1.743,1.743,0,0,0,170.036,217.7Z" transform="translate(-49.124 -196.983)" fill="#fdb900" opacity="0.7" style="mix-blend-mode:multiply;isolation:isolate"/><path d="M174.829,222.041l-85.69,94.372a1.743,1.743,0,0,0,.119,2.462h0a1.744,1.744,0,0,0,2.464-.117l85.688-94.371a1.746,1.746,0,0,0-.119-2.465h0A1.744,1.744,0,0,0,174.829,222.041Z" transform="translate(-47.299 -195.328)" fill="#fdb900" opacity="0.7" style="mix-blend-mode:multiply;isolation:isolate"/></g><g transform="translate(6.452 64.748)"><path d="M48.2,245.713s-7.372,9.418-2.759,19.414,28.7,23.579,28.7,23.579l41.032,5.125,1.21-8.257s-11.553-2.635-16-3.531-15.734-5-22.009-4.23C78.376,277.813,58.14,252.7,48.2,245.713Z" transform="translate(-43.928 -245.713)" fill="#0052dd"/><path d="M96.73,274.946a21.931,21.931,0,0,0,2.969-.521c2.925-.86,9.03-1.273,8.778-.064-.192.917-1.812.713-2.692,1.537-1.021.958,3.378,1.63,5.543,2.435,3.759,1.4.805,6.615-3.332,7.945s-10.139.58-12.476-3.075Z" transform="translate(-24.271 -235.085)" fill="#fdb491"/></g></g></g></g></svg>