<svg xmlns="http://www.w3.org/2000/svg" width="36" height="36.153" viewBox="0 0 36 36.153"><g transform="translate(-3.868 -4)"><path d="M4.868,39.358l2.417-8.822a17.032,17.032,0,1,1,14.758,8.527h-.007A17.012,17.012,0,0,1,13.9,36.99Z" transform="translate(-0.103 -0.103)" fill="#fff"/><path d="M4.817,39.755a.448.448,0,0,1-.432-.566l2.367-8.644a17.477,17.477,0,1,1,7.037,6.872L4.93,39.74A.41.41,0,0,1,4.817,39.755Z" transform="translate(-0.052 -0.051)" fill="#fff"/><path d="M21.939,4.9a17.031,17.031,0,0,1,0,34.063h-.007a17.012,17.012,0,0,1-8.139-2.073L4.765,39.255l2.417-8.822A17.033,17.033,0,0,1,21.939,4.9m0,34.063h0m0,0h0m0-34.96h0A17.933,17.933,0,0,0,6.218,30.552L3.9,39.019a.9.9,0,0,0,1.093,1.1l8.689-2.278A17.93,17.93,0,1,0,21.939,4Z" fill="#cfd8dc"/><path d="M32.4,12.356a14.157,14.157,0,0,0-22,17.531l.337.536L9.3,35.644l5.358-1.4.518.307a14.128,14.128,0,0,0,7.2,1.973h.005A14.157,14.157,0,0,0,32.4,12.356Z" transform="translate(-0.449 -0.433)" fill="#40c351"/><path d="M18.763,15.959c-.318-.709-.654-.723-.958-.736-.248-.011-.532-.01-.815-.01a1.564,1.564,0,0,0-1.135.533,4.77,4.77,0,0,0-1.49,3.549A8.275,8.275,0,0,0,16.1,23.7c.213.283,2.944,4.717,7.269,6.423,3.594,1.417,4.326,1.136,5.107,1.065a4.3,4.3,0,0,0,2.872-2.023,3.564,3.564,0,0,0,.248-2.023c-.107-.178-.39-.283-.815-.5s-2.518-1.242-2.908-1.384-.674-.213-.958.213-1.1,1.384-1.347,1.668-.5.32-.922.107a11.648,11.648,0,0,1-3.422-2.112,12.821,12.821,0,0,1-2.367-2.947c-.248-.425-.027-.656.187-.868.191-.191.425-.5.639-.745a2.91,2.91,0,0,0,.425-.71.783.783,0,0,0-.036-.745C19.969,18.905,19.142,16.8,18.763,15.959Z" transform="translate(-1.081 -1.155)" fill="#fff" fill-rule="evenodd"/></g></svg>