<svg xmlns="http://www.w3.org/2000/svg" width="1280" height="653.662" viewBox="0 0 1280 653.662">
  <g id="wireframe_section" data-name="wireframe section" transform="translate(-3374 -3876.615)">
    <path id="Path_3445" data-name="Path 3445" d="M8.5,0h1262.99c4.7,0,8.505,3.048,8.505,6.809V646.853c0,3.76-3.808,6.809-8.505,6.809H8.5c-4.7,0-8.5-3.049-8.5-6.809V6.809C0,3.048,3.808,0,8.5,0Z" transform="translate(3374 3876.615)" fill="#f5f6fa"/>
    <rect id="Rectangle_2798" data-name="Rectangle 2798" width="254.27" height="208.77" rx="5" transform="translate(3442 4015)" fill="#fff"/>
    <rect id="Rectangle_2826" data-name="Rectangle 2826" width="254.27" height="208.77" rx="5" transform="translate(3442 4266)" fill="#fff"/>
    <rect id="Rectangle_2799" data-name="Rectangle 2799" width="254.27" height="208.77" rx="5" transform="translate(3739 4015)" fill="#fff"/>
    <rect id="Rectangle_2827" data-name="Rectangle 2827" width="254.27" height="208.77" rx="5" transform="translate(3739 4266)" fill="#fff"/>
    <rect id="Rectangle_2800" data-name="Rectangle 2800" width="254.27" height="208.77" rx="5" transform="translate(4035 4015)" fill="#fff"/>
    <rect id="Rectangle_2828" data-name="Rectangle 2828" width="254.27" height="208.77" rx="5" transform="translate(4035 4266)" fill="#fff"/>
    <rect id="Rectangle_2801" data-name="Rectangle 2801" width="254.27" height="208.77" rx="5" transform="translate(4332 4015)" fill="#fff"/>
    <rect id="Rectangle_2824" data-name="Rectangle 2824" width="254.27" height="208.77" rx="5" transform="translate(4332 4266)" fill="#fff"/>
    <path id="Rectangle_2806" data-name="Rectangle 2806" d="M5,0H249a5,5,0,0,1,5,5V65a0,0,0,0,1,0,0H0a0,0,0,0,1,0,0V5A5,5,0,0,1,5,0Z" transform="translate(3442 4015)" fill="#e3e8f1"/>
    <path id="Rectangle_2829" data-name="Rectangle 2829" d="M5,0H249a5,5,0,0,1,5,5V65a0,0,0,0,1,0,0H0a0,0,0,0,1,0,0V5A5,5,0,0,1,5,0Z" transform="translate(3442 4266)" fill="#e3e8f1"/>
    <path id="Rectangle_2807" data-name="Rectangle 2807" d="M5,0H249a5,5,0,0,1,5,5V65a0,0,0,0,1,0,0H0a0,0,0,0,1,0,0V5A5,5,0,0,1,5,0Z" transform="translate(3740 4015)" fill="#e3e8f1"/>
    <path id="Rectangle_2830" data-name="Rectangle 2830" d="M5,0H249a5,5,0,0,1,5,5V65a0,0,0,0,1,0,0H0a0,0,0,0,1,0,0V5A5,5,0,0,1,5,0Z" transform="translate(3740 4266)" fill="#e3e8f1"/>
    <path id="Rectangle_2808" data-name="Rectangle 2808" d="M5,0H249a5,5,0,0,1,5,5V65a0,0,0,0,1,0,0H0a0,0,0,0,1,0,0V5A5,5,0,0,1,5,0Z" transform="translate(4035 4015)" fill="#e3e8f1"/>
    <path id="Rectangle_2831" data-name="Rectangle 2831" d="M5,0H249a5,5,0,0,1,5,5V65a0,0,0,0,1,0,0H0a0,0,0,0,1,0,0V5A5,5,0,0,1,5,0Z" transform="translate(4035 4266)" fill="#e3e8f1"/>
    <path id="Rectangle_2809" data-name="Rectangle 2809" d="M5,0H249a5,5,0,0,1,5,5V65a0,0,0,0,1,0,0H0a0,0,0,0,1,0,0V5A5,5,0,0,1,5,0Z" transform="translate(4332 4015)" fill="#e3e8f1"/>
    <path id="Rectangle_2825" data-name="Rectangle 2825" d="M5,0H249a5,5,0,0,1,5,5V65a0,0,0,0,1,0,0H0a0,0,0,0,1,0,0V5A5,5,0,0,1,5,0Z" transform="translate(4332 4266)" fill="#e3e8f1"/>
    <rect id="Rectangle_2810" data-name="Rectangle 2810" width="196" height="22" rx="4" transform="translate(3456 4103)" fill="#e3e8f1"/>
    <rect id="Rectangle_2835" data-name="Rectangle 2835" width="196" height="22" rx="4" transform="translate(3456 4354)" fill="#e3e8f1"/>
    <rect id="Rectangle_2814" data-name="Rectangle 2814" width="196" height="22" rx="4" transform="translate(3755 4103)" fill="#e3e8f1"/>
    <rect id="Rectangle_2832" data-name="Rectangle 2832" width="196" height="22" rx="4" transform="translate(3755 4354)" fill="#e3e8f1"/>
    <rect id="Rectangle_2818" data-name="Rectangle 2818" width="196" height="22" rx="4" transform="translate(4054 4103)" fill="#e3e8f1"/>
    <rect id="Rectangle_2833" data-name="Rectangle 2833" width="196" height="22" rx="4" transform="translate(4054 4354)" fill="#e3e8f1"/>
    <rect id="Rectangle_2821" data-name="Rectangle 2821" width="196" height="22" rx="4" transform="translate(4351 4103)" fill="#e3e8f1"/>
    <rect id="Rectangle_2834" data-name="Rectangle 2834" width="196" height="22" rx="4" transform="translate(4351 4354)" fill="#e3e8f1"/>
    <rect id="Rectangle_2812" data-name="Rectangle 2812" width="83" height="22" rx="4" transform="translate(3456 4148)" fill="#e3e8f1"/>
    <rect id="Rectangle_2836" data-name="Rectangle 2836" width="83" height="22" rx="4" transform="translate(3456 4399)" fill="#e3e8f1"/>
    <rect id="Rectangle_2815" data-name="Rectangle 2815" width="83" height="22" rx="4" transform="translate(3755 4148)" fill="#e3e8f1"/>
    <rect id="Rectangle_2837" data-name="Rectangle 2837" width="83" height="22" rx="4" transform="translate(3755 4399)" fill="#e3e8f1"/>
    <rect id="Rectangle_2819" data-name="Rectangle 2819" width="83" height="22" rx="4" transform="translate(4054 4148)" fill="#e3e8f1"/>
    <rect id="Rectangle_2838" data-name="Rectangle 2838" width="83" height="22" rx="4" transform="translate(4054 4399)" fill="#e3e8f1"/>
    <rect id="Rectangle_2822" data-name="Rectangle 2822" width="83" height="22" rx="4" transform="translate(4351 4148)" fill="#e3e8f1"/>
    <rect id="Rectangle_2839" data-name="Rectangle 2839" width="83" height="22" rx="4" transform="translate(4351 4399)" fill="#e3e8f1"/>
    <rect id="Rectangle_2813" data-name="Rectangle 2813" width="82" height="35" rx="4" transform="translate(3590 4178)" fill="#e3e8f1"/>
    <rect id="Rectangle_2840" data-name="Rectangle 2840" width="82" height="35" rx="4" transform="translate(3590 4429)" fill="#e3e8f1"/>
    <rect id="Rectangle_2817" data-name="Rectangle 2817" width="82" height="35" rx="4" transform="translate(3889 4178)" fill="#e3e8f1"/>
    <rect id="Rectangle_2841" data-name="Rectangle 2841" width="82" height="35" rx="4" transform="translate(3889 4429)" fill="#e3e8f1"/>
    <rect id="Rectangle_2820" data-name="Rectangle 2820" width="82" height="35" rx="4" transform="translate(4188 4178)" fill="#e3e8f1"/>
    <rect id="Rectangle_2842" data-name="Rectangle 2842" width="82" height="35" rx="4" transform="translate(4188 4429)" fill="#e3e8f1"/>
    <rect id="Rectangle_2823" data-name="Rectangle 2823" width="82" height="35" rx="4" transform="translate(4485 4178)" fill="#e3e8f1"/>
    <rect id="Rectangle_2843" data-name="Rectangle 2843" width="82" height="35" rx="4" transform="translate(4485 4429)" fill="#e3e8f1"/>
    <rect id="Rectangle_2844" data-name="Rectangle 2844" width="1017" height="19" rx="4" transform="translate(3442 3953)" fill="#e3e8f1"/>
    <rect id="Rectangle_2845" data-name="Rectangle 2845" width="163" height="22" rx="4" transform="translate(3442 3920)" fill="#e3e8f1"/>
  </g>
</svg>
