<svg width="24" height="24" viewBox="0 0 24 24" fill="none" xmlns="http://www.w3.org/2000/svg">
<g id="fi_271220">
<g id="Group">
<g id="Group_2">
<path id="Vector" d="M11.997 10.7638L17.2346 16.0012C17.3785 16.1454 17.5709 16.2247 17.776 16.2247C17.9812 16.2247 18.1734 16.1454 18.3175 16.0012L18.7762 15.5422C18.9206 15.3983 19 15.2058 19 15.0007C19 14.7956 18.9206 14.6033 18.7762 14.4592L12.5404 8.22332C12.3959 8.07865 12.2027 7.99943 11.9974 8C11.7911 7.99943 11.5982 8.07854 11.4535 8.22332L5.22377 14.4534C5.07945 14.5975 5 14.7898 5 14.995C5 15.2001 5.07945 15.3923 5.22377 15.5366L5.68247 15.9954C5.98102 16.2939 6.46704 16.2939 6.76548 15.9954L11.997 10.7638Z" fill="#8A8A8A"/>
</g>
</g>
</g>
</svg>
