<svg width="20" height="20" viewBox="0 0 20 20" fill="none" xmlns="http://www.w3.org/2000/svg">
<g id="fi_7887083">
<g id="ESSENTIAL UI">
<path id="Vector" d="M17.1795 5.52237C16.8974 4.24851 15.6625 3.08159 14.3851 2.83374C13.607 2.67817 11.4357 2.48598 10.0002 2.50092C8.56458 2.4851 6.39334 2.6767 5.6152 2.83286C4.33783 3.08159 3.10294 4.24851 2.82227 5.52237C2.65996 6.29582 2.50234 7.34819 2.5 8.78464C2.50234 10.2202 2.65996 11.2729 2.82227 12.0466C3.10441 13.3205 4.3393 14.4874 5.61667 14.7353C6.03679 14.819 6.86298 14.914 7.76036 14.9808C7.86193 15.1403 7.97218 15.3103 8.09113 15.4905C8.56751 16.2118 8.93167 16.7143 9.20766 17.0644C9.66704 17.6468 10.3359 17.6468 10.7953 17.0644C11.0713 16.7143 11.4354 16.2118 11.9118 15.4905C12.0308 15.3101 12.141 15.1401 12.2426 14.9808C13.14 14.914 13.9664 14.819 14.3866 14.7353C15.6639 14.4874 16.8988 13.3205 17.181 12.0466C17.3415 11.2729 17.4994 10.2208 17.5018 8.78464C17.498 7.34789 17.34 6.29611 17.1795 5.52237Z" fill="#DD4247"/>
<path id="Vector_2" d="M10.0002 2.50092C8.56458 2.4851 6.39334 2.6767 5.6152 2.83286C4.33783 3.08159 3.10294 4.24851 2.82227 5.52237C2.65996 6.29582 2.50234 7.34819 2.5 8.78435C2.50234 10.2199 2.65996 11.2729 2.82227 12.0466C2.98839 12.7975 3.48615 13.5115 4.12835 14.0216C4.75011 14.1697 5.38709 14.2443 6.02624 14.2439C10.5272 14.2439 14.1759 10.5952 14.1759 6.09455C14.1769 4.92216 13.9241 3.76346 13.4347 2.69809C12.4339 2.58588 11.0285 2.49037 10.0002 2.50092Z" fill="#E55353"/>
<g id="Group">
<path id="Vector_3" d="M10.8286 13.0419C10.8091 13.1331 10.7636 13.2168 10.6977 13.2827C10.6317 13.3487 10.5481 13.3942 10.4569 13.4137C10.1542 13.4606 9.84606 13.4606 9.54337 13.4137C9.45211 13.3943 9.36845 13.3488 9.30247 13.2828C9.23649 13.2168 9.19103 13.1332 9.17158 13.0419C9.1251 12.7393 9.1251 12.4313 9.17158 12.1287C9.19115 12.0376 9.23667 11.9541 9.30264 11.8883C9.36861 11.8225 9.45221 11.7772 9.54337 11.7578C9.84606 11.7109 10.1542 11.7109 10.4569 11.7578C10.5481 11.7772 10.6318 11.8227 10.6978 11.8887C10.7638 11.9546 10.8092 12.0383 10.8286 12.1296C10.8751 12.4322 10.8751 12.7402 10.8286 13.0428V13.0419Z" fill="white"/>
<path id="Vector_4" d="M9.16968 5.28791C9.16968 5.06755 9.25722 4.85621 9.41304 4.70039C9.56886 4.54457 9.78019 4.45703 10.0006 4.45703C10.2209 4.45703 10.4323 4.54457 10.5881 4.70039C10.7439 4.85621 10.8314 5.06755 10.8314 5.28791V9.94826C10.8314 10.1686 10.7439 10.38 10.5881 10.5358C10.4323 10.6916 10.2209 10.7791 10.0006 10.7791C9.78019 10.7791 9.56886 10.6916 9.41304 10.5358C9.25722 10.38 9.16968 10.1686 9.16968 9.94826V5.28791Z" fill="white"/>
</g>
</g>
</g>
</svg>
