<svg width="14" height="14" viewBox="0 0 14 14" fill="none" xmlns="http://www.w3.org/2000/svg">
<path id="Icon ionic-md-close" d="M12.8234 2.72865C13.1162 2.43562 13.116 1.96071 12.8229 1.66793L12.3308 1.17631C12.0379 0.883682 11.5633 0.883762 11.2705 1.17649L7.17747 5.26842C7.07987 5.366 6.92165 5.36602 6.82401 5.26846L2.72875 1.17639C2.43585 0.883714 1.96119 0.883775 1.66837 1.17652L1.17694 1.66781C0.883955 1.96072 0.883955 2.43571 1.17694 2.72862L5.26948 6.82004C5.36712 6.91766 5.36714 7.07596 5.26952 7.1736L1.1766 11.2675C0.883808 11.5604 0.883788 12.0351 1.17656 12.328L1.6684 12.82C1.96114 13.1129 2.43584 13.1131 2.72883 12.8205L6.82316 8.7314C6.9208 8.63389 7.07898 8.63393 7.17657 8.73149L11.2696 12.8234C11.5625 13.1162 12.0372 13.1162 12.3301 12.8234L12.8233 12.3303C13.1161 12.0376 13.1163 11.5628 12.8237 11.2699L8.73332 7.17512C8.6358 7.0775 8.63582 6.91933 8.73335 6.82173L12.8234 2.72865Z" fill="#9E9E9E" stroke="#9E9E9E" stroke-width="0.5"/>
</svg>
