<svg width="23" height="23" viewBox="0 0 23 23" fill="none" xmlns="http://www.w3.org/2000/svg">
<path d="M8.09322 18.4527H5.85775C5.46249 18.4527 5.08342 18.2982 4.80393 18.0231C4.52445 17.7481 4.36743 17.375 4.36743 16.986V11.8527C4.36743 11.4638 4.52445 11.0907 4.80393 10.8157C5.08342 10.5406 5.46249 10.3861 5.85775 10.3861H8.09322M13.3093 8.91943V5.98612C13.3093 5.40265 13.0738 4.84307 12.6546 4.43049C12.2353 4.01792 11.6667 3.78613 11.0738 3.78613L8.09322 10.3861V18.4527H16.4986C16.858 18.4567 17.2068 18.3327 17.4806 18.1036C17.7545 17.8746 17.935 17.5558 17.9889 17.206L19.0172 10.6061C19.0496 10.3959 19.0352 10.1813 18.975 9.97708C18.9148 9.7729 18.8101 9.58404 18.6684 9.42361C18.5266 9.26317 18.3511 9.13498 18.154 9.04792C17.9569 8.96087 17.7429 8.91703 17.5269 8.91943H13.3093Z" stroke="black" stroke-width="1.4" stroke-linecap="round" stroke-linejoin="round"/>
</svg>
