<svg width="32" height="32" viewBox="0 0 32 32" fill="none" xmlns="http://www.w3.org/2000/svg">
<g id="fi_10628587">
<path id="Vector" d="M24 2H11.3232C8.896 2 6.9232 3.9728 6.9232 6.4V6.8H6.4C3.9728 6.8 2 8.7728 2 11.2V25.6C2 28.0272 3.9728 30 6.4 30H20.8C22.808 30 24.4864 28.6416 25.0128 26.8H25.6C28.0272 26.8 30 24.8272 30 22.4V8C30 4.6928 27.3072 2 24 2ZM20.8 27.6H6.4C5.2976 27.6 4.4 26.7024 4.4 25.6V11.2C4.4 10.0976 5.2976 9.2 6.4 9.2H20.8C21.9024 9.2 22.8 10.0976 22.8 11.2V25.6C22.8 26.7024 21.9024 27.6 20.8 27.6ZM27.6 22.4C27.6 23.5024 26.7024 24.4 25.6 24.4H25.2V11.2C25.2 8.7728 23.2272 6.8 20.8 6.8H9.3232V6.4C9.3232 5.2976 10.2208 4.4 11.3232 4.4H24C25.984 4.4 27.6 6.016 27.6 8V22.4Z" fill="url(#paint0_linear_1698_30700)"/>
</g>
<defs>
<linearGradient id="paint0_linear_1698_30700" x1="3.6896" y1="29.1104" x2="28.64" y2="4.16" gradientUnits="userSpaceOnUse">
<stop stop-color="#5433FF"/>
<stop offset="1" stop-color="#20BDFF"/>
</linearGradient>
</defs>
</svg>
