<svg width="4" height="14" viewBox="0 0 4 14" fill="none" xmlns="http://www.w3.org/2000/svg">
<g id="Group 1410117721">
<path id="XMLID_294_" d="M0.38501 6.9979C0.38501 7.88835 1.10964 8.61298 2.00009 8.61298C2.89054 8.61298 3.61518 7.88835 3.61518 6.9979C3.61518 6.10745 2.89054 5.38281 2.00009 5.38281C1.10964 5.38281 0.38501 6.10745 0.38501 6.9979Z" fill="#9D9D9D"/>
<path id="XMLID_295_" d="M0.38501 12.3807C0.38501 13.2712 1.10964 13.9958 2.00009 13.9958C2.89054 13.9958 3.61518 13.2712 3.61518 12.3807C3.61518 11.4903 2.89054 10.7656 2.00009 10.7656C1.10964 10.7656 0.38501 11.4903 0.38501 12.3807Z" fill="#9D9D9D"/>
<path id="XMLID_297_" d="M0.38501 1.61508C0.38501 2.50553 1.10964 3.23017 2.00009 3.23017C2.89054 3.23017 3.61518 2.50553 3.61518 1.61508C3.61518 0.724634 2.89054 0 2.00009 0C1.10964 0 0.38501 0.724634 0.38501 1.61508Z" fill="#9D9D9D"/>
</g>
</svg>
