<svg width="16" height="16" viewBox="0 0 16 16" fill="none" xmlns="http://www.w3.org/2000/svg">
<g id="fi_2838764">
<g id="Group">
<path id="Vector" d="M1.39941 11.5996H11.8533C11.9471 11.5996 12.0377 11.5668 12.1095 11.507C12.21 11.4229 14.5004 9.45251 14.6401 5.19922H3.4128C3.27367 9.06006 1.16428 10.8748 1.14236 10.8929C1.01384 11.0015 0.966559 11.1788 1.02438 11.3367C1.08179 11.4941 1.23143 11.5996 1.39941 11.5996Z" fill="#CE434E"/>
<path id="Vector_2" d="M14.253 2.80004H12.2529V2.40002C12.2529 2.17601 12.0769 2 11.8529 2C11.6289 2 11.4529 2.17601 11.4529 2.40002V2.80004H9.4261V2.40002C9.4261 2.17601 9.25009 2 9.02608 2C8.80207 2 8.62606 2.17601 8.62606 2.40002V2.80004H6.62595V2.40002C6.62595 2.17601 6.44994 2 6.22593 2C6.00192 2 5.82591 2.17601 5.82591 2.40002V2.80004H3.8258C3.60179 2.80004 3.42578 2.97605 3.42578 3.20006V4.40013H14.653V3.20006C14.653 2.97605 14.477 2.80004 14.253 2.80004Z" fill="#CE434E"/>
<path id="Vector_3" d="M12.6229 12.1219C12.4056 12.3028 12.133 12.4013 11.8529 12.4013H3.42578V13.6013C3.42578 13.8224 3.6047 14.0013 3.8258 14.0013H14.253C14.4741 14.0013 14.653 13.8224 14.653 13.6013V9.11719C13.8818 11.0093 12.8056 11.969 12.6229 12.1219Z" fill="#CE434E"/>
</g>
</g>
</svg>
