<svg width="18" height="19" viewBox="0 0 18 19" fill="none" xmlns="http://www.w3.org/2000/svg">
<g clip-path="url(#clip0_583_498)">
<path d="M12 8.43164C13.0355 8.43164 13.875 7.59217 13.875 6.55664C13.875 5.52111 13.0355 4.68164 12 4.68164C10.9645 4.68164 10.125 5.52111 10.125 6.55664C10.125 7.59217 10.9645 8.43164 12 8.43164Z" fill="#E03249"/>
<path d="M17.25 12.5488C17.0511 12.5488 16.8603 12.6278 16.7197 12.7685C16.579 12.9091 16.5 13.0999 16.5 13.2988V14.7988C16.5 15.3956 16.2629 15.9679 15.841 16.3898C15.419 16.8118 14.8467 17.0488 14.25 17.0488H12.75C12.5511 17.0488 12.3603 17.1278 12.2197 17.2685C12.079 17.4091 12 17.5999 12 17.7988C12 17.9977 12.079 18.1885 12.2197 18.3291C12.3603 18.4698 12.5511 18.5488 12.75 18.5488H14.25C15.2442 18.5476 16.1973 18.1522 16.9003 17.4492C17.6033 16.7462 17.9988 15.793 18 14.7988V13.2988C18 13.0999 17.921 12.9091 17.7803 12.7685C17.6397 12.6278 17.4489 12.5488 17.25 12.5488Z" fill="#E03249"/>
<path d="M0.75 6.54883C0.948912 6.54883 1.13968 6.46981 1.28033 6.32916C1.42098 6.18851 1.5 5.99774 1.5 5.79883V4.29883C1.5 3.70209 1.73705 3.12979 2.15901 2.70784C2.58097 2.28588 3.15326 2.04883 3.75 2.04883H5.25C5.44891 2.04883 5.63968 1.96981 5.78033 1.82916C5.92098 1.68851 6 1.49774 6 1.29883C6 1.09992 5.92098 0.90915 5.78033 0.768498C5.63968 0.627846 5.44891 0.548828 5.25 0.548828H3.75C2.7558 0.550019 1.80267 0.94549 1.09966 1.64849C0.396661 2.3515 0.00119089 3.30463 0 4.29883L0 5.79883C0 5.99774 0.0790176 6.18851 0.21967 6.32916C0.360322 6.46981 0.551088 6.54883 0.75 6.54883Z" fill="#E03249"/>
<path d="M5.25 17.0488H3.75C3.15326 17.0488 2.58097 16.8118 2.15901 16.3898C1.73705 15.9679 1.5 15.3956 1.5 14.7988V13.2988C1.5 13.0999 1.42098 12.9091 1.28033 12.7685C1.13968 12.6278 0.948912 12.5488 0.75 12.5488C0.551088 12.5488 0.360322 12.6278 0.21967 12.7685C0.0790176 12.9091 0 13.0999 0 13.2988L0 14.7988C0.00119089 15.793 0.396661 16.7462 1.09966 17.4492C1.80267 18.1522 2.7558 18.5476 3.75 18.5488H5.25C5.44891 18.5488 5.63968 18.4698 5.78033 18.3291C5.92098 18.1885 6 17.9977 6 17.7988C6 17.5999 5.92098 17.4091 5.78033 17.2685C5.63968 17.1278 5.44891 17.0488 5.25 17.0488Z" fill="#E03249"/>
<path d="M14.25 0.548828H12.75C12.5511 0.548828 12.3603 0.627846 12.2197 0.768498C12.079 0.90915 12 1.09992 12 1.29883C12 1.49774 12.079 1.68851 12.2197 1.82916C12.3603 1.96981 12.5511 2.04883 12.75 2.04883H14.25C14.8467 2.04883 15.419 2.28588 15.841 2.70784C16.2629 3.12979 16.5 3.70209 16.5 4.29883V5.79883C16.5 5.99774 16.579 6.18851 16.7197 6.32916C16.8603 6.46981 17.0511 6.54883 17.25 6.54883C17.4489 6.54883 17.6397 6.46981 17.7803 6.32916C17.921 6.18851 18 5.99774 18 5.79883V4.29883C17.9988 3.30463 17.6033 2.3515 16.9003 1.64849C16.1973 0.94549 15.2442 0.550019 14.25 0.548828V0.548828Z" fill="#E03249"/>
<path d="M14.0303 13.5182L8.34075 7.82869C7.91881 7.40688 7.34662 7.16992 6.75 7.16992C6.15338 7.16992 5.58119 7.40688 5.15925 7.82869L3.4395 9.54844C3.15818 9.82968 3.00008 10.2111 3 10.6089V12.5484C3 13.1452 3.23705 13.7175 3.65901 14.1394C4.08097 14.5614 4.65326 14.7984 5.25 14.7984H13.5C13.6483 14.7984 13.7933 14.7544 13.9166 14.672C14.0399 14.5896 14.136 14.4724 14.1928 14.3354C14.2495 14.1984 14.2644 14.0476 14.2354 13.9022C14.2065 13.7567 14.1351 13.6231 14.0303 13.5182Z" fill="#E03249"/>
</g>
<defs>
<clipPath id="clip0_583_498">
<rect width="18" height="18" fill="white" transform="translate(0 0.548828)"/>
</clipPath>
</defs>
</svg>
