<svg width="32" height="32" viewBox="0 0 32 32" fill="none" xmlns="http://www.w3.org/2000/svg">
<g id="fi_2111463" clip-path="url(#clip0_1698_30683)">
<path id="Vector" d="M1.99961 2.17772C-0.515052 4.78972 -0.000385359 7.56439 -0.000385359 15.9937C-0.000385359 22.9937 -1.22172 30.0111 5.17028 31.6631C7.16628 32.1764 24.8516 32.1764 26.8449 31.6604C29.5063 30.9737 31.6716 28.8151 31.9676 25.0511C32.0089 24.5257 32.0089 7.47105 31.9663 6.93505C31.6516 2.92572 29.1836 0.615054 25.9316 0.147054C25.1863 0.0390541 25.0369 0.00705405 21.2129 0.000387382C7.64895 0.00705405 4.67561 -0.596946 1.99961 2.17772Z" fill="url(#paint0_linear_1698_30683)"/>
<path id="Vector_2" d="M15.9977 4.18718C11.1564 4.18718 6.55907 3.75652 4.80307 8.26318C4.07774 10.1245 4.18307 12.5419 4.18307 16.0032C4.18307 19.0405 4.08574 21.8952 4.80307 23.7419C6.55507 28.2512 11.1897 27.8192 15.9951 27.8192C20.6311 27.8192 25.4111 28.3019 27.1884 23.7419C27.9151 21.8619 27.8084 19.4805 27.8084 16.0032C27.8084 11.3872 28.0631 8.40718 25.8244 6.16985C23.5577 3.90318 20.4924 4.18718 15.9924 4.18718H15.9977ZM14.9391 6.31652C25.0377 6.30052 26.3231 5.17785 25.6137 20.7739C25.3617 26.2899 21.1617 25.6845 15.9991 25.6845C6.58574 25.6845 6.31507 25.4152 6.31507 15.9979C6.31507 6.47118 7.06174 6.32185 14.9391 6.31385V6.31652ZM22.3044 8.27785C21.5217 8.27785 20.8871 8.91252 20.8871 9.69518C20.8871 10.4779 21.5217 11.1125 22.3044 11.1125C23.0871 11.1125 23.7217 10.4779 23.7217 9.69518C23.7217 8.91252 23.0871 8.27785 22.3044 8.27785ZM15.9977 9.93518C12.6471 9.93518 9.93107 12.6525 9.93107 16.0032C9.93107 19.3539 12.6471 22.0699 15.9977 22.0699C19.3484 22.0699 22.0631 19.3539 22.0631 16.0032C22.0631 12.6525 19.3484 9.93518 15.9977 9.93518ZM15.9977 12.0645C21.2044 12.0645 21.2111 19.9419 15.9977 19.9419C10.7924 19.9419 10.7844 12.0645 15.9977 12.0645Z" fill="white"/>
</g>
<defs>
<linearGradient id="paint0_linear_1698_30683" x1="2.06097" y1="29.9565" x2="31.8016" y2="4.21635" gradientUnits="userSpaceOnUse">
<stop stop-color="#FFDD55"/>
<stop offset="0.5" stop-color="#FF543E"/>
<stop offset="1" stop-color="#C837AB"/>
</linearGradient>
<clipPath id="clip0_1698_30683">
<rect width="32" height="32" fill="white"/>
</clipPath>
</defs>
</svg>
