<svg width="21" height="20" viewBox="0 0 21 20" fill="none" xmlns="http://www.w3.org/2000/svg">
<path d="M2.24865 0.425568L20.3087 9.063C20.4912 9.15016 20.6453 9.28722 20.7532 9.45832C20.8611 9.62942 20.9184 9.82757 20.9184 10.0299C20.9184 10.2321 20.8611 10.4303 20.7532 10.6014C20.6453 10.7725 20.4912 10.9095 20.3087 10.9967L2.24865 19.6341C2.06351 19.7228 1.85679 19.7564 1.65309 19.731C1.44939 19.7056 1.25728 19.6222 1.09962 19.4907C0.941961 19.3592 0.825391 19.1852 0.763778 18.9894C0.702165 18.7936 0.698103 18.5842 0.752075 18.3861L2.55893 11.7621C2.58105 11.681 2.62658 11.6081 2.68983 11.5526C2.75309 11.4971 2.83128 11.4615 2.91465 11.4501L11.6661 10.2613C11.7027 10.2561 11.7373 10.2415 11.7666 10.219C11.7958 10.1965 11.8188 10.1667 11.8332 10.1327L11.8486 10.0796C11.8554 10.0317 11.8458 9.98298 11.8214 9.94128C11.7969 9.89958 11.7591 9.86736 11.7141 9.84985L11.6669 9.837L2.92408 8.64814C2.84086 8.63664 2.76286 8.60093 2.69976 8.54546C2.63667 8.48999 2.59128 8.4172 2.56922 8.33614L0.752075 1.67443C0.697884 1.47631 0.701781 1.26679 0.763301 1.07083C0.824822 0.874861 0.941373 0.700708 1.09907 0.569111C1.25677 0.437514 1.44897 0.354019 1.65279 0.328569C1.8566 0.30312 2.06343 0.33679 2.24865 0.425568Z" fill="#D6D6D6"/>
</svg>
