<svg width="14" height="14" viewBox="0 0 14 14" fill="none" xmlns="http://www.w3.org/2000/svg">
<g id="share_black_24dp 1" clip-path="url(#clip0_1752_7244)">
<path id="Vector" d="M10.399 9.33162C9.96862 9.33162 9.58351 9.50152 9.289 9.76771L5.25093 7.41736C5.27925 7.2871 5.3019 7.15684 5.3019 7.02091C5.3019 6.88499 5.27925 6.75473 5.25093 6.62447L9.2437 4.29677C9.54952 4.57995 9.95163 4.75552 10.399 4.75552C11.3392 4.75552 12.0981 3.99661 12.0981 3.05647C12.0981 2.11633 11.3392 1.35742 10.399 1.35742C9.45891 1.35742 8.7 2.11633 8.7 3.05647C8.7 3.19239 8.72265 3.32265 8.75097 3.45291L4.75821 5.78061C4.45238 5.49744 4.05027 5.32187 3.60286 5.32187C2.66272 5.32187 1.90381 6.08077 1.90381 7.02091C1.90381 7.96105 2.66272 8.71996 3.60286 8.71996C4.05027 8.71996 4.45238 8.54439 4.75821 8.26122L8.79062 10.6172C8.7623 10.7362 8.74531 10.8608 8.74531 10.9854C8.74531 11.8972 9.48723 12.6391 10.399 12.6391C11.3109 12.6391 12.0528 11.8972 12.0528 10.9854C12.0528 10.0735 11.3109 9.33162 10.399 9.33162Z" fill="#CE434E"/>
</g>
<defs>
<clipPath id="clip0_1752_7244">
<rect width="12.6667" height="12.6667" fill="white" transform="translate(0.666748 0.666016)"/>
</clipPath>
</defs>
</svg>
