<svg width="24" height="24" viewBox="0 0 24 24" fill="none" xmlns="http://www.w3.org/2000/svg">
<g id="fi_10883733">
<g id="Group">
<path id="Vector" fill-rule="evenodd" clip-rule="evenodd" d="M12 6.375C12.6213 6.375 13.125 6.87868 13.125 7.5V10.875H16.5C17.1213 10.875 17.625 11.3787 17.625 12C17.625 12.6213 17.1213 13.125 16.5 13.125H12C11.3787 13.125 10.875 12.6213 10.875 12V7.5C10.875 6.87868 11.3787 6.375 12 6.375Z" fill="url(#paint0_linear_1698_27666)"/>
<path id="Vector_2" fill-rule="evenodd" clip-rule="evenodd" d="M12 4.875C8.06498 4.875 4.875 8.06498 4.875 12C4.875 15.935 8.06498 19.125 12 19.125C15.935 19.125 19.125 15.935 19.125 12C19.125 8.06498 15.935 4.875 12 4.875ZM2.625 12C2.625 6.82233 6.82233 2.625 12 2.625C17.1777 2.625 21.375 6.82233 21.375 12C21.375 17.1777 17.1777 21.375 12 21.375C6.82233 21.375 2.625 17.1777 2.625 12Z" fill="url(#paint1_linear_1698_27666)"/>
<path id="Vector_3" fill-rule="evenodd" clip-rule="evenodd" d="M18.0951 1.12638C18.5344 0.68704 19.2468 0.68704 19.6861 1.12638L22.8736 4.31388C23.3129 4.75322 23.3129 5.46553 22.8736 5.90487C22.4343 6.34421 21.7219 6.34421 21.2826 5.90487L18.0951 2.71737C17.6558 2.27803 17.6558 1.56572 18.0951 1.12638Z" fill="url(#paint2_linear_1698_27666)"/>
<path id="Vector_4" fill-rule="evenodd" clip-rule="evenodd" d="M5.90487 1.12638C6.34421 1.56572 6.34421 2.27803 5.90487 2.71737L2.71737 5.90487C2.27803 6.34421 1.56572 6.34421 1.12638 5.90487C0.68704 5.46553 0.68704 4.75322 1.12638 4.31388L4.31388 1.12638C4.75322 0.68704 5.46553 0.68704 5.90487 1.12638Z" fill="url(#paint3_linear_1698_27666)"/>
</g>
</g>
<defs>
<linearGradient id="paint0_linear_1698_27666" x1="12" y1="-0.117749" x2="12" y2="21.375" gradientUnits="userSpaceOnUse">
<stop stop-color="#FD4685"/>
<stop offset="1" stop-color="#FF9D8C"/>
</linearGradient>
<linearGradient id="paint1_linear_1698_27666" x1="12" y1="-0.11775" x2="12" y2="21.375" gradientUnits="userSpaceOnUse">
<stop stop-color="#FD4685"/>
<stop offset="1" stop-color="#FF9D8C"/>
</linearGradient>
<linearGradient id="paint2_linear_1698_27666" x1="12" y1="-0.11775" x2="12" y2="21.375" gradientUnits="userSpaceOnUse">
<stop stop-color="#FD4685"/>
<stop offset="1" stop-color="#FF9D8C"/>
</linearGradient>
<linearGradient id="paint3_linear_1698_27666" x1="12" y1="-0.11775" x2="12" y2="21.375" gradientUnits="userSpaceOnUse">
<stop stop-color="#FD4685"/>
<stop offset="1" stop-color="#FF9D8C"/>
</linearGradient>
</defs>
</svg>
