<svg width="32" height="32" viewBox="0 0 32 32" fill="none" xmlns="http://www.w3.org/2000/svg">
<g id="fi_733585">
<path id="Vector" d="M16.0033 3H15.9967C8.82888 3 3 8.8305 3 16C3 18.8438 3.9165 21.4795 5.47487 23.6196L3.85475 28.4491L8.85162 26.8518C10.9072 28.2135 13.3594 29 16.0033 29C23.1711 29 29 23.1679 29 16C29 8.83213 23.1711 3 16.0033 3Z" fill="#4CAF50"/>
<path id="Vector_2" d="M22.7498 20.3915C22.4646 21.133 21.3327 21.7479 20.4298 21.9275C19.8121 22.0486 19.0053 22.1452 16.2894 21.1085C12.8154 19.7833 10.5782 16.5331 10.4038 16.3222C10.2368 16.1114 9 14.6012 9 13.0394C9 11.4775 9.86148 10.717 10.2087 10.3905C10.4939 10.1224 10.9653 10 11.4175 10C11.5638 10 11.6953 10.0068 11.8135 10.0122C12.1607 10.0258 12.3351 10.0449 12.5642 10.5496C12.8493 11.1823 13.5438 12.7441 13.6266 12.9047C13.7108 13.0652 13.7951 13.2829 13.6768 13.4938C13.566 13.7114 13.4685 13.808 13.2941 13.9931C13.1198 14.1781 12.9543 14.3196 12.7799 14.5182C12.6203 14.691 12.44 14.876 12.641 15.1957C12.842 15.5087 13.5365 16.5522 14.559 17.3902C15.8786 18.4718 16.9484 18.8174 17.3311 18.9643C17.6163 19.0732 17.9562 19.0473 18.1645 18.8432C18.429 18.5807 18.7556 18.1453 19.0881 17.7167C19.3245 17.4093 19.623 17.3712 19.9363 17.48C20.2554 17.5821 21.9444 18.3507 22.2917 18.5099C22.6389 18.6705 22.868 18.7466 22.9522 18.8813C23.035 19.016 23.035 19.6487 22.7498 20.3915Z" fill="#FAFAFA"/>
</g>
</svg>
