<svg width="703" height="231" viewBox="0 0 703 231" fill="none" xmlns="http://www.w3.org/2000/svg">
<g clip-path="url(#clip0_629_2027)">
<path d="M503.801 48.3574C503.801 49.028 504.313 49.5309 505.166 50.2014C506.36 49.028 507.042 48.525 508.578 47.8545C508.066 47.3515 507.725 46.8486 507.554 45.8428C505.848 46.3457 504.824 47.1839 503.801 48.3574Z" fill="url(#paint0_linear_629_2027)"/>
<path d="M31.043 151.288C31.2136 152.797 31.3842 153.635 31.896 154.809C32.7491 154.306 33.2609 153.97 33.7727 153.467C33.2609 152.797 33.2609 152.294 33.2609 151.288C32.4078 151.623 31.896 151.623 31.043 151.288Z" fill="url(#paint1_linear_629_2027)"/>
<path d="M283.375 13.8232C283.033 14.4938 282.692 14.9967 282.01 15.4996C283.716 16.1702 284.91 16.6731 285.934 17.3437C286.787 16.8408 287.128 16.5055 287.299 15.8349C286.787 15.332 285.251 14.4938 283.375 13.8232Z" fill="url(#paint2_linear_629_2027)"/>
<path d="M521.203 26.564C521.544 28.0727 522.056 29.7491 523.421 30.9226C524.786 30.9226 525.639 31.0902 526.833 31.4255C526.321 30.4197 526.492 29.5815 527.345 28.2404C525.468 28.0727 523.592 27.4022 521.203 26.564Z" fill="url(#paint3_linear_629_2027)"/>
<path d="M633.121 110.216C630.903 110.048 629.709 109.713 627.662 108.875C627.15 109.881 626.979 110.719 627.15 111.725C628.515 112.395 630.221 113.066 632.78 113.401C632.268 112.06 632.268 111.222 633.121 110.216Z" fill="url(#paint4_linear_629_2027)"/>
<path d="M34.1152 101.332C34.7977 102.002 34.9683 102.505 34.7977 103.511C35.9919 103.176 36.5038 102.673 37.698 101.667C37.8686 100.829 37.5274 100.326 36.845 99.6553C35.9919 100.661 35.3095 101.164 34.1152 101.332Z" fill="url(#paint5_linear_629_2027)"/>
<path d="M105.77 6.78214C107.476 7.28507 108.84 8.29091 111.058 11.8114C112.423 10.6379 113.276 9.29674 113.788 7.11742C111.741 4.77045 110.376 3.42934 107.646 2.25586C107.646 3.93226 106.964 4.9381 105.77 6.78214Z" fill="url(#paint6_linear_629_2027)"/>
<path d="M359.467 33.9399C358.614 33.7723 357.931 33.2693 356.908 31.4253C356.225 31.9282 355.884 32.7664 355.543 33.7723C356.567 34.9458 357.249 35.6163 358.614 36.1192C358.614 35.281 358.955 34.7781 359.467 33.9399Z" fill="url(#paint7_linear_629_2027)"/>
<path d="M520.009 152.964C519.667 154.641 519.838 155.814 520.691 157.491C522.568 156.485 523.933 156.15 525.468 156.317C525.809 154.809 525.809 153.635 525.639 151.791C523.762 152.797 522.226 152.964 520.009 152.964Z" fill="url(#paint8_linear_629_2027)"/>
<path d="M4.25736 172.746C5.11041 171.237 5.45163 170.232 4.9398 168.555C2.03945 167.717 0.503973 167.047 -2.05516 165.873C-2.22577 166.879 -2.56699 167.549 -2.9082 168.052C0.162755 169.393 1.86884 170.567 4.25736 172.746Z" fill="url(#paint9_linear_629_2027)"/>
<path d="M469.85 36.79C468.997 37.6282 468.826 38.6341 468.826 40.3105C471.556 40.4781 473.091 40.8134 475.48 41.9869C475.48 40.8134 475.821 39.9752 477.015 38.4664C474.456 37.293 472.409 36.9577 469.85 36.79Z" fill="url(#paint10_linear_629_2027)"/>
<path d="M181.009 20.1937C180.667 21.1995 180.838 22.2054 181.691 23.7141C184.079 22.7083 185.615 22.5407 188.003 22.5407C187.492 21.5348 187.492 20.6966 187.833 18.8526C185.274 18.6849 183.397 19.1879 181.009 20.1937Z" fill="url(#paint11_linear_629_2027)"/>
<path d="M105.941 199.736C106.624 200.742 107.136 201.748 107.477 203.257C110.036 201.245 111.742 199.904 114.131 198.898C114.131 197.222 113.789 196.383 113.107 195.21C111.23 196.048 108.671 197.557 105.941 199.736Z" fill="url(#paint12_linear_629_2027)"/>
<path d="M592.006 24.0496C593.371 22.3732 594.736 20.5292 594.906 18.1822C593.883 16.8411 593.2 15.8353 592.518 13.9912C591.835 15.3323 590.812 15.8352 588.594 16.0029C590.129 18.1822 590.982 20.6968 592.006 24.0496Z" fill="url(#paint13_linear_629_2027)"/>
<path d="M658.031 203.257C658.372 203.425 658.714 203.592 658.884 204.095C659.737 203.257 660.249 202.587 660.932 201.413C660.42 200.743 660.079 200.575 659.737 200.407C659.396 201.581 658.884 202.251 658.031 203.257Z" fill="url(#paint14_linear_629_2027)"/>
<path d="M681.746 103.846C682.258 105.355 682.599 106.025 683.964 107.199C685.158 105.69 686.011 105.019 687.376 104.517C687.035 103.175 686.694 102.17 685.841 100.996C684.476 102.17 683.452 103.008 681.746 103.846Z" fill="url(#paint15_linear_629_2027)"/>
<path d="M102.699 115.246C104.235 114.743 104.917 114.072 105.941 112.731C104.235 111.725 103.382 110.887 102.87 109.713C101.505 110.216 100.652 110.719 99.2871 111.725C100.823 112.731 101.676 113.569 102.699 115.246Z" fill="url(#paint16_linear_629_2027)"/>
<path d="M124.536 156.485C124.025 155.814 123.172 155.647 121.977 155.312C121.466 157.826 120.101 160.508 118.395 163.358C119.418 163.694 119.93 164.029 120.612 164.867C122.66 161.85 123.513 160.005 124.536 156.485Z" fill="url(#paint17_linear_629_2027)"/>
<path d="M383.522 172.746C384.034 171.908 384.205 171.405 383.864 170.399C382.328 170.064 381.304 169.729 379.94 169.058C379.94 169.561 379.769 170.064 379.428 170.399C381.134 170.902 382.157 171.573 383.522 172.746Z" fill="url(#paint18_linear_629_2027)"/>
<path d="M517.621 112.228C519.327 112.564 520.351 112.564 522.057 111.725C522.057 108.876 522.227 107.031 522.739 104.349C521.716 104.517 520.863 104.349 520.351 104.182C519.839 107.367 518.986 109.211 517.621 112.228Z" fill="url(#paint19_linear_629_2027)"/>
<path d="M444.941 149.612C445.453 150.618 446.136 150.953 447.159 151.121C448.012 150.45 448.524 149.78 448.695 148.941C447.842 148.103 447.5 147.265 447.159 145.924C446.477 147.433 446.136 148.271 444.941 149.612Z" fill="url(#paint20_linear_629_2027)"/>
<path d="M685.814 15.05C687.009 16.2235 688.032 16.5588 689.738 16.2235C690.591 14.7148 691.103 13.5413 690.933 12.3678C689.227 11.5296 688.544 10.5237 687.179 8.67969C687.179 11.1943 687.009 12.703 685.814 15.05Z" fill="url(#paint21_linear_629_2027)"/>
<path d="M5.45536 123.342C4.77292 123.007 4.2611 122.504 3.74927 121.666C2.72562 123.342 2.04318 124.516 1.01953 125.522C1.36075 126.528 1.87258 126.863 2.3844 127.366C3.23745 126.528 4.2611 125.186 5.45536 123.342Z" fill="url(#paint22_linear_629_2027)"/>
<path d="M114.642 139.386C113.618 139.218 112.253 139.051 111.229 139.721C110.888 140.559 110.547 141.062 110.035 141.9C110.888 141.9 111.4 142.236 112.082 143.074C112.594 141.733 113.447 140.727 114.642 139.386Z" fill="url(#paint23_linear_629_2027)"/>
<path d="M123.685 55.3979C124.368 54.5597 124.709 54.0568 125.732 53.3862C125.391 52.8833 125.05 52.548 124.538 52.3804C123.856 52.7157 123.173 53.3862 122.32 54.3921C123.173 54.5597 123.515 54.7273 123.685 55.3979Z" fill="url(#paint24_linear_629_2027)"/>
<path d="M232.362 133.519C231.85 131.842 231.85 130.669 233.044 128.825C230.656 128.489 229.12 128.825 226.22 129.663C225.367 131.004 225.367 132.01 225.879 133.854C228.438 133.183 230.314 132.848 232.362 133.519Z" fill="url(#paint25_linear_629_2027)"/>
<path d="M25.7559 68.3064C26.6089 69.4799 26.7795 70.3181 26.2677 71.9945C28.1444 71.6593 29.3386 70.9887 31.2153 69.6476C31.5566 68.3064 31.3859 67.6359 30.3623 66.4624C28.8268 67.4682 27.4619 68.1388 25.7559 68.3064Z" fill="url(#paint26_linear_629_2027)"/>
<path d="M684.449 64.5044C685.985 62.9956 687.35 62.6604 689.397 62.4927C687.52 59.4752 685.303 56.793 683.767 55.7871C682.232 56.6253 681.208 57.6312 680.014 59.3076C681.72 60.3134 682.743 61.8222 684.449 64.5044Z" fill="url(#paint27_linear_629_2027)"/>
<path d="M326.026 97.9785C325.343 97.3079 325.002 96.6373 325.002 95.4639C322.272 96.3021 320.566 97.1402 318.178 98.4814C318.348 100.158 318.86 100.996 319.372 101.499C321.419 99.6549 323.296 98.8167 326.026 97.9785Z" fill="url(#paint28_linear_629_2027)"/>
<path d="M576.308 107.199C576.82 106.529 577.332 105.858 578.526 105.69C576.991 103.343 575.797 102.002 573.749 100.158C572.214 100.829 571.531 101.499 571.02 102.002C573.579 103.511 574.773 104.852 576.308 107.199Z" fill="url(#paint29_linear_629_2027)"/>
<path d="M557.371 40.1426C558.565 40.6455 559.077 41.1484 559.76 41.9866C560.101 41.6513 560.442 41.4837 560.783 41.4837C560.101 40.4778 559.589 39.9749 558.395 39.1367C557.883 39.472 557.542 39.8073 557.371 40.1426Z" fill="url(#paint30_linear_629_2027)"/>
<path d="M260 76.3528C258.465 76.8558 256.588 76.6881 253.005 75.0117C252.494 76.6881 252.494 78.1969 253.176 80.2086C256.076 81.2144 257.783 81.3821 260.683 81.0468C259.83 79.538 259.83 78.3645 260 76.3528Z" fill="url(#paint31_linear_629_2027)"/>
<path d="M57.1479 32.9342C58.854 33.4371 59.8776 33.4371 61.9249 32.9342C61.0719 30.9225 61.0719 29.5813 61.4131 28.0726C59.8776 27.402 58.6833 27.402 56.8066 27.2344C57.4891 29.2461 57.4891 30.7548 57.1479 32.9342Z" fill="url(#paint32_linear_629_2027)"/>
<path d="M661.759 29.1317C662.612 28.9641 663.124 28.6288 663.977 27.7906C662.1 26.1142 660.735 23.7672 659.37 21.085C658.688 21.7555 658.176 21.9232 657.152 22.0908C658.347 25.1083 659.37 26.6171 661.759 29.1317Z" fill="url(#paint33_linear_629_2027)"/>
<path d="M18.2503 14.2086C19.6152 13.8733 20.127 13.3704 20.9801 12.1969C19.7858 10.3528 19.274 9.01169 18.4209 7C17.7385 7.50292 17.2267 7.67056 16.7148 7.83821C17.7385 10.1852 17.9091 11.694 18.2503 14.2086Z" fill="url(#paint34_linear_629_2027)"/>
<path d="M147.91 103.343C148.081 104.014 148.422 104.349 149.275 104.684C150.128 103.511 150.64 103.008 151.834 102.17C151.322 101.834 150.981 101.499 150.64 100.493C149.446 101.499 148.763 102.17 147.91 103.343Z" fill="url(#paint35_linear_629_2027)"/>
<path d="M657.008 148.774C657.861 148.774 658.714 149.109 659.737 149.612C659.737 147.433 659.908 145.924 660.42 144.248C659.567 143.409 658.884 143.242 658.031 143.242C657.52 144.415 657.178 146.427 657.008 148.774Z" fill="url(#paint36_linear_629_2027)"/>
<path d="M27.9725 213.65C26.6076 211.974 25.9252 210.968 25.0721 208.957C24.0485 209.292 23.1954 209.795 22.6836 210.633C23.0248 211.974 23.8779 213.65 25.2427 215.662C26.0958 214.153 26.6076 213.65 27.9725 213.65Z" fill="url(#paint37_linear_629_2027)"/>
<path d="M397.17 49.6982C399.217 50.704 400.411 51.3746 402.118 53.051C402.971 52.2128 403.482 51.3746 403.653 50.3687C402.629 49.1953 401.094 48.0218 398.876 46.6807C398.705 48.3571 398.364 49.1953 397.17 49.6982Z" fill="url(#paint38_linear_629_2027)"/>
<path d="M5.96701 65.0039C5.96701 66.0097 5.62579 66.5126 4.94336 67.3508C6.64945 67.6861 8.18493 67.8537 9.03797 67.6861C9.20858 66.8479 9.20858 66.1774 9.03797 65.3392C8.18493 65.5068 7.33188 65.3392 5.96701 65.0039Z" fill="url(#paint39_linear_629_2027)"/>
<path d="M4.25734 118.431C5.28099 117.928 6.64587 117.928 9.37561 118.933C9.54622 117.76 9.54622 116.586 8.86378 115.245C6.81648 114.742 5.4516 114.742 3.4043 115.245C3.91612 116.084 4.08673 116.922 4.25734 118.431Z" fill="url(#paint40_linear_629_2027)"/>
<path d="M697.1 -2.60587C697.27 -1.26474 698.123 -0.426523 699.829 0.746964C701.706 -1.60001 703.242 -2.77351 705.801 -4.11464C704.606 -4.95284 704.095 -5.79104 703.412 -7.80273C700.853 -6.62925 699.147 -4.95284 697.1 -2.60587Z" fill="url(#paint41_linear_629_2027)"/>
<path d="M72.332 34.611C72.332 35.6168 72.6732 36.2874 73.6969 36.9579C74.7206 36.6227 75.5736 36.2874 76.0854 35.7845C75.7442 34.611 75.7442 33.9404 76.0854 32.4316C74.5499 33.4375 73.8675 33.9404 72.332 34.611Z" fill="url(#paint42_linear_629_2027)"/>
<path d="M680.184 98.2001C680.866 96.6914 681.208 95.5179 681.378 94.1768C680.184 94.1768 679.502 94.3444 678.819 94.512C678.99 95.3502 678.649 96.0208 678.137 97.0267C679.16 97.1943 679.672 97.5296 680.184 98.2001Z" fill="url(#paint43_linear_629_2027)"/>
<path d="M528.709 65.6243C531.78 67.1331 533.827 67.636 536.728 67.9713C536.898 65.7919 536.557 64.2832 536.045 63.1097C534.339 63.2773 532.974 62.7744 531.098 61.7686C530.756 63.6126 530.074 64.6185 528.709 65.6243Z" fill="url(#paint44_linear_629_2027)"/>
<path d="M204.552 79.8736C203.358 79.0354 201.823 78.1972 200.116 78.3648C199.263 79.203 198.581 79.706 197.387 80.3765C198.41 80.7118 198.752 81.3824 199.093 82.8911C200.458 81.7177 202.164 80.8795 204.552 79.8736Z" fill="url(#paint45_linear_629_2027)"/>
<path d="M449.718 110.719C448.524 109.714 447.159 108.708 445.283 108.54C444.259 109.378 443.406 109.714 442.041 110.216C443.065 110.719 443.406 111.558 443.576 113.234C445.112 112.06 447.159 111.558 449.718 110.719Z" fill="url(#paint46_linear_629_2027)"/>
<path d="M314.937 48.5247C315.278 47.5189 315.449 47.0159 316.131 46.1777C315.79 45.8425 315.278 45.6748 314.937 45.6748C314.425 46.1777 314.084 46.8483 313.572 48.0218C314.255 47.8542 314.596 48.0218 314.937 48.5247Z" fill="url(#paint47_linear_629_2027)"/>
<path d="M60.5586 172.076C61.241 172.746 61.5822 173.417 61.4116 174.59C62.6059 174.087 63.4589 173.417 64.6532 172.243C64.6532 171.237 64.4826 170.902 63.6295 170.064C62.6059 171.237 61.7529 171.908 60.5586 172.076Z" fill="url(#paint48_linear_629_2027)"/>
<path d="M243.793 6.2793C241.916 6.94986 240.551 7.78808 239.527 9.1292C239.869 10.3027 240.38 10.9732 241.233 11.6438C242.598 10.135 243.622 9.63211 245.499 8.96155C244.304 7.95571 243.793 7.45278 243.793 6.2793Z" fill="url(#paint49_linear_629_2027)"/>
<path d="M78.4739 164.699C78.3033 163.693 77.9621 162.855 77.2796 162.185C76.5972 162.352 76.0854 162.52 75.7441 162.855C76.4266 163.693 76.5972 164.196 76.9384 165.202C77.4502 164.867 77.7915 164.699 78.4739 164.699Z" fill="url(#paint50_linear_629_2027)"/>
<path d="M63.4594 197.39C62.9476 197.893 62.4358 198.396 61.4121 198.563C62.4358 200.743 63.2888 202.084 64.8243 203.76C66.1892 203.425 66.8716 202.922 67.2128 202.419C65.3361 200.91 64.4831 199.401 63.4594 197.39Z" fill="url(#paint51_linear_629_2027)"/>
<path d="M610.602 32.7663C612.138 32.2634 613.844 32.5987 617.256 34.2751C617.768 32.7664 617.768 31.2576 617.256 29.2459C614.526 28.2401 612.82 27.9048 609.92 28.0724C610.773 29.7488 610.944 30.7547 610.602 32.7663Z" fill="url(#paint52_linear_629_2027)"/>
<path d="M87.8559 80.041C87.6853 80.8792 87.6853 81.3821 88.1972 82.388C89.2208 81.885 89.9033 81.7174 90.5857 81.885C90.7563 81.0468 90.7563 80.5439 90.7563 79.5381C89.7326 79.8734 89.0502 80.041 87.8559 80.041Z" fill="url(#paint53_linear_629_2027)"/>
</g>
<defs>
<linearGradient id="paint0_linear_629_2027" x1="507.036" y1="49.3295" x2="504.989" y2="46.5287" gradientUnits="userSpaceOnUse">
<stop stop-color="#FF5C5C"/>
<stop offset="0.3013" stop-color="#F44444"/>
<stop offset="0.935" stop-color="#D60707"/>
<stop offset="1" stop-color="#D30000"/>
</linearGradient>
<linearGradient id="paint1_linear_629_2027" x1="30.9659" y1="153.231" x2="33.5649" y2="152.45" gradientUnits="userSpaceOnUse">
<stop stop-color="#FF5C5C"/>
<stop offset="0.3013" stop-color="#F44444"/>
<stop offset="0.935" stop-color="#D60707"/>
<stop offset="1" stop-color="#D30000"/>
</linearGradient>
<linearGradient id="paint2_linear_629_2027" x1="283.929" y1="17.4186" x2="285.553" y2="14.3247" gradientUnits="userSpaceOnUse">
<stop stop-color="#FF5C5C"/>
<stop offset="0.3013" stop-color="#F44444"/>
<stop offset="0.935" stop-color="#D60707"/>
<stop offset="1" stop-color="#D30000"/>
</linearGradient>
<linearGradient id="paint3_linear_629_2027" x1="524.331" y1="27.061" x2="523.833" y2="31.6568" gradientUnits="userSpaceOnUse">
<stop stop-color="#FF5C5C"/>
<stop offset="0.3013" stop-color="#F44444"/>
<stop offset="0.935" stop-color="#D60707"/>
<stop offset="1" stop-color="#D30000"/>
</linearGradient>
<linearGradient id="paint4_linear_629_2027" x1="630.505" y1="109.497" x2="629.578" y2="113.524" gradientUnits="userSpaceOnUse">
<stop stop-color="#FF5C5C"/>
<stop offset="0.3013" stop-color="#F44444"/>
<stop offset="0.935" stop-color="#D60707"/>
<stop offset="1" stop-color="#D30000"/>
</linearGradient>
<linearGradient id="paint5_linear_629_2027" x1="35.3931" y1="100.513" x2="36.7997" y2="103.207" gradientUnits="userSpaceOnUse">
<stop stop-color="#FF5C5C"/>
<stop offset="0.3013" stop-color="#F44444"/>
<stop offset="0.935" stop-color="#D60707"/>
<stop offset="1" stop-color="#D30000"/>
</linearGradient>
<linearGradient id="paint6_linear_629_2027" x1="107.126" y1="9.86766" x2="112.27" y2="3.35113" gradientUnits="userSpaceOnUse">
<stop stop-color="#FF5C5C"/>
<stop offset="0.3013" stop-color="#F44444"/>
<stop offset="0.935" stop-color="#D60707"/>
<stop offset="1" stop-color="#D30000"/>
</linearGradient>
<linearGradient id="paint7_linear_629_2027" x1="358.836" y1="32.4229" x2="356.307" y2="35.6582" gradientUnits="userSpaceOnUse">
<stop stop-color="#FF5C5C"/>
<stop offset="0.3013" stop-color="#F44444"/>
<stop offset="0.935" stop-color="#D60707"/>
<stop offset="1" stop-color="#D30000"/>
</linearGradient>
<linearGradient id="paint8_linear_629_2027" x1="522.59" y1="152.527" x2="523.482" y2="157.857" gradientUnits="userSpaceOnUse">
<stop stop-color="#FF5C5C"/>
<stop offset="0.3013" stop-color="#F44444"/>
<stop offset="0.935" stop-color="#D60707"/>
<stop offset="1" stop-color="#D30000"/>
</linearGradient>
<linearGradient id="paint9_linear_629_2027" x1="2.04981" y1="166.916" x2="0.490373" y2="171.435" gradientUnits="userSpaceOnUse">
<stop stop-color="#FF5C5C"/>
<stop offset="0.3013" stop-color="#F44444"/>
<stop offset="0.935" stop-color="#D60707"/>
<stop offset="1" stop-color="#D30000"/>
</linearGradient>
<linearGradient id="paint10_linear_629_2027" x1="472.067" y1="41.9174" x2="473.324" y2="36.3973" gradientUnits="userSpaceOnUse">
<stop stop-color="#4D8EFF"/>
<stop offset="0.4282" stop-color="#3F76FF"/>
<stop offset="1" stop-color="#2850FF"/>
</linearGradient>
<linearGradient id="paint11_linear_629_2027" x1="185.107" y1="23.6679" x2="183.987" y2="18.3865" gradientUnits="userSpaceOnUse">
<stop stop-color="#4D8EFF"/>
<stop offset="0.4282" stop-color="#3F76FF"/>
<stop offset="1" stop-color="#2850FF"/>
</linearGradient>
<linearGradient id="paint12_linear_629_2027" x1="112.045" y1="202.233" x2="108.848" y2="196.829" gradientUnits="userSpaceOnUse">
<stop stop-color="#4D8EFF"/>
<stop offset="0.4282" stop-color="#3F76FF"/>
<stop offset="1" stop-color="#2850FF"/>
</linearGradient>
<linearGradient id="paint13_linear_629_2027" x1="589.837" y1="20.2949" x2="595.249" y2="16.9013" gradientUnits="userSpaceOnUse">
<stop stop-color="#4D8EFF"/>
<stop offset="0.4282" stop-color="#3F76FF"/>
<stop offset="1" stop-color="#2850FF"/>
</linearGradient>
<linearGradient id="paint14_linear_629_2027" x1="658.794" y1="201.731" x2="660.415" y2="202.888" gradientUnits="userSpaceOnUse">
<stop stop-color="#4D8EFF"/>
<stop offset="0.4282" stop-color="#3F76FF"/>
<stop offset="1" stop-color="#2850FF"/>
</linearGradient>
<linearGradient id="paint15_linear_629_2027" x1="683.544" y1="102.48" x2="686.233" y2="106.361" gradientUnits="userSpaceOnUse">
<stop stop-color="#4D8EFF"/>
<stop offset="0.4282" stop-color="#3F76FF"/>
<stop offset="1" stop-color="#2850FF"/>
</linearGradient>
<linearGradient id="paint16_linear_629_2027" x1="101.172" y1="113.634" x2="104.807" y2="110.441" gradientUnits="userSpaceOnUse">
<stop stop-color="#4D8EFF"/>
<stop offset="0.4282" stop-color="#3F76FF"/>
<stop offset="1" stop-color="#2850FF"/>
</linearGradient>
<linearGradient id="paint17_linear_629_2027" x1="123.667" y1="161.167" x2="119.761" y2="158.739" gradientUnits="userSpaceOnUse">
<stop stop-color="#4D8EFF"/>
<stop offset="0.4282" stop-color="#3F76FF"/>
<stop offset="1" stop-color="#2850FF"/>
</linearGradient>
<linearGradient id="paint18_linear_629_2027" x1="382.203" y1="169.489" x2="381.409" y2="172.021" gradientUnits="userSpaceOnUse">
<stop stop-color="#4D8EFF"/>
<stop offset="0.4282" stop-color="#3F76FF"/>
<stop offset="1" stop-color="#2850FF"/>
</linearGradient>
<linearGradient id="paint19_linear_629_2027" x1="522.696" y1="108.474" x2="517.826" y2="108.199" gradientUnits="userSpaceOnUse">
<stop stop-color="#4D8EFF"/>
<stop offset="0.4282" stop-color="#3F76FF"/>
<stop offset="1" stop-color="#2850FF"/>
</linearGradient>
<linearGradient id="paint20_linear_629_2027" x1="445.731" y1="147.721" x2="448.992" y2="149.923" gradientUnits="userSpaceOnUse">
<stop stop-color="#FC9512"/>
<stop offset="0.00696701" stop-color="#FC9612"/>
<stop offset="0.68" stop-color="#FED319"/>
<stop offset="1" stop-color="#FFEB1C"/>
</linearGradient>
<linearGradient id="paint21_linear_629_2027" x1="686.232" y1="12.0167" x2="691.98" y2="13.7315" gradientUnits="userSpaceOnUse">
<stop stop-color="#FC9512"/>
<stop offset="0.00696701" stop-color="#FC9612"/>
<stop offset="0.68" stop-color="#FED319"/>
<stop offset="1" stop-color="#FFEB1C"/>
</linearGradient>
<linearGradient id="paint22_linear_629_2027" x1="1.37317" y1="123.252" x2="4.40216" y2="125.586" gradientUnits="userSpaceOnUse">
<stop stop-color="#FC9512"/>
<stop offset="0.00696701" stop-color="#FC9612"/>
<stop offset="0.68" stop-color="#FED319"/>
<stop offset="1" stop-color="#FFEB1C"/>
</linearGradient>
<linearGradient id="paint23_linear_629_2027" x1="113.542" y1="141.277" x2="110.606" y2="139.655" gradientUnits="userSpaceOnUse">
<stop stop-color="#FC9512"/>
<stop offset="0.00696701" stop-color="#FC9612"/>
<stop offset="0.68" stop-color="#FED319"/>
<stop offset="1" stop-color="#FFEB1C"/>
</linearGradient>
<linearGradient id="paint24_linear_629_2027" x1="124.668" y1="54.4104" x2="123.132" y2="52.9598" gradientUnits="userSpaceOnUse">
<stop stop-color="#FC9512"/>
<stop offset="0.00696701" stop-color="#FC9612"/>
<stop offset="0.68" stop-color="#FED319"/>
<stop offset="1" stop-color="#FFEB1C"/>
</linearGradient>
<linearGradient id="paint25_linear_629_2027" x1="229.453" y1="133.897" x2="229.25" y2="127.886" gradientUnits="userSpaceOnUse">
<stop stop-color="#FC9512"/>
<stop offset="0.00696701" stop-color="#FC9612"/>
<stop offset="0.68" stop-color="#FED319"/>
<stop offset="1" stop-color="#FFEB1C"/>
</linearGradient>
<linearGradient id="paint26_linear_629_2027" x1="27.918" y1="67.2631" x2="29.5" y2="71.8172" gradientUnits="userSpaceOnUse">
<stop stop-color="#FC9512"/>
<stop offset="0.00696701" stop-color="#FC9612"/>
<stop offset="0.68" stop-color="#FED319"/>
<stop offset="1" stop-color="#FFEB1C"/>
</linearGradient>
<linearGradient id="paint27_linear_629_2027" x1="681.987" y1="62.3998" x2="687.909" y2="57.8986" gradientUnits="userSpaceOnUse">
<stop stop-color="#FC9512"/>
<stop offset="0.00696701" stop-color="#FC9612"/>
<stop offset="0.68" stop-color="#FED319"/>
<stop offset="1" stop-color="#FFEB1C"/>
</linearGradient>
<linearGradient id="paint28_linear_629_2027" x1="322.827" y1="99.9805" x2="320.9" y2="96.03" gradientUnits="userSpaceOnUse">
<stop stop-color="#FC9512"/>
<stop offset="0.00696701" stop-color="#FC9612"/>
<stop offset="0.68" stop-color="#FED319"/>
<stop offset="1" stop-color="#FFEB1C"/>
</linearGradient>
<linearGradient id="paint29_linear_629_2027" x1="573.583" y1="104.815" x2="576.798" y2="101.854" gradientUnits="userSpaceOnUse">
<stop stop-color="#FC9512"/>
<stop offset="0.00696701" stop-color="#FC9612"/>
<stop offset="0.68" stop-color="#FED319"/>
<stop offset="1" stop-color="#FFEB1C"/>
</linearGradient>
<linearGradient id="paint30_linear_629_2027" x1="559.767" y1="39.9058" x2="558.355" y2="41.6239" gradientUnits="userSpaceOnUse">
<stop stop-color="#FC9512"/>
<stop offset="0.00696701" stop-color="#FC9612"/>
<stop offset="0.68" stop-color="#FED319"/>
<stop offset="1" stop-color="#FFEB1C"/>
</linearGradient>
<linearGradient id="paint31_linear_629_2027" x1="257.19" y1="74.5091" x2="256.275" y2="82.3923" gradientUnits="userSpaceOnUse">
<stop stop-color="#FC9512"/>
<stop offset="0.00696701" stop-color="#FC9612"/>
<stop offset="0.68" stop-color="#FED319"/>
<stop offset="1" stop-color="#FFEB1C"/>
</linearGradient>
<linearGradient id="paint32_linear_629_2027" x1="57.0054" y1="30.3758" x2="62.5616" y2="30.2055" gradientUnits="userSpaceOnUse">
<stop stop-color="#FC9512"/>
<stop offset="0.00696701" stop-color="#FC9612"/>
<stop offset="0.68" stop-color="#FED319"/>
<stop offset="1" stop-color="#FFEB1C"/>
</linearGradient>
<linearGradient id="paint33_linear_629_2027" x1="658.347" y1="26.1943" x2="662.179" y2="24.2286" gradientUnits="userSpaceOnUse">
<stop stop-color="#FC9512"/>
<stop offset="0.00696701" stop-color="#FC9612"/>
<stop offset="0.68" stop-color="#FED319"/>
<stop offset="1" stop-color="#FFEB1C"/>
</linearGradient>
<linearGradient id="paint34_linear_629_2027" x1="20.05" y1="9.70478" x2="16.7644" y2="11.4583" gradientUnits="userSpaceOnUse">
<stop stop-color="#FC9512"/>
<stop offset="0.00696701" stop-color="#FC9612"/>
<stop offset="0.68" stop-color="#FED319"/>
<stop offset="1" stop-color="#FFEB1C"/>
</linearGradient>
<linearGradient id="paint35_linear_629_2027" x1="150.908" y1="103.765" x2="148.789" y2="101.673" gradientUnits="userSpaceOnUse">
<stop stop-color="#FF3EB9"/>
<stop offset="0.0433129" stop-color="#FF44BC"/>
<stop offset="0.7006" stop-color="#FF98E3"/>
<stop offset="1" stop-color="#FFB9F2"/>
</linearGradient>
<linearGradient id="paint36_linear_629_2027" x1="661.264" y1="146.857" x2="656.875" y2="146.076" gradientUnits="userSpaceOnUse">
<stop stop-color="#FF3EB9"/>
<stop offset="0.0433129" stop-color="#FF44BC"/>
<stop offset="0.7006" stop-color="#FF98E3"/>
<stop offset="1" stop-color="#FFB9F2"/>
</linearGradient>
<linearGradient id="paint37_linear_629_2027" x1="26.6695" y1="211.27" x2="23.176" y2="213.425" gradientUnits="userSpaceOnUse">
<stop stop-color="#FF3EB9"/>
<stop offset="0.0433129" stop-color="#FF44BC"/>
<stop offset="0.7006" stop-color="#FF98E3"/>
<stop offset="1" stop-color="#FFB9F2"/>
</linearGradient>
<linearGradient id="paint38_linear_629_2027" x1="399.493" y1="51.446" x2="401.909" y2="47.8057" gradientUnits="userSpaceOnUse">
<stop stop-color="#FF3EB9"/>
<stop offset="0.0433129" stop-color="#FF44BC"/>
<stop offset="0.7006" stop-color="#FF98E3"/>
<stop offset="1" stop-color="#FFB9F2"/>
</linearGradient>
<linearGradient id="paint39_linear_629_2027" x1="7.41011" y1="64.9575" x2="6.93346" y2="68.3484" gradientUnits="userSpaceOnUse">
<stop stop-color="#FF3EB9"/>
<stop offset="0.0433129" stop-color="#FF44BC"/>
<stop offset="0.7006" stop-color="#FF98E3"/>
<stop offset="1" stop-color="#FFB9F2"/>
</linearGradient>
<linearGradient id="paint40_linear_629_2027" x1="6.29906" y1="119.556" x2="6.35881" y2="113.832" gradientUnits="userSpaceOnUse">
<stop stop-color="#FF3EB9"/>
<stop offset="0.0433129" stop-color="#FF44BC"/>
<stop offset="0.7006" stop-color="#FF98E3"/>
<stop offset="1" stop-color="#FFB9F2"/>
</linearGradient>
<linearGradient id="paint41_linear_629_2027" x1="703.474" y1="-1.23676" x2="699.213" y2="-6.21621" gradientUnits="userSpaceOnUse">
<stop stop-color="#00EE98"/>
<stop offset="0.2798" stop-color="#00D685"/>
<stop offset="0.8679" stop-color="#009955"/>
<stop offset="1" stop-color="#008A49"/>
</linearGradient>
<linearGradient id="paint42_linear_629_2027" x1="73.7759" y1="33.3652" x2="75.6035" y2="36.6971" gradientUnits="userSpaceOnUse">
<stop stop-color="#00EE98"/>
<stop offset="0.2798" stop-color="#00D685"/>
<stop offset="0.8679" stop-color="#009955"/>
<stop offset="1" stop-color="#008A49"/>
</linearGradient>
<linearGradient id="paint43_linear_629_2027" x1="681.421" y1="96.3088" x2="678.35" y2="95.6416" gradientUnits="userSpaceOnUse">
<stop stop-color="#00EE98"/>
<stop offset="0.2798" stop-color="#00D685"/>
<stop offset="0.8679" stop-color="#009955"/>
<stop offset="1" stop-color="#008A49"/>
</linearGradient>
<linearGradient id="paint44_linear_629_2027" x1="532.397" y1="67.9706" x2="533.677" y2="62.1496" gradientUnits="userSpaceOnUse">
<stop stop-color="#00EE98"/>
<stop offset="0.2798" stop-color="#00D685"/>
<stop offset="0.8679" stop-color="#009955"/>
<stop offset="1" stop-color="#008A49"/>
</linearGradient>
<linearGradient id="paint45_linear_629_2027" x1="202.03" y1="81.6666" x2="199.301" y2="78.0665" gradientUnits="userSpaceOnUse">
<stop stop-color="#00EE98"/>
<stop offset="0.2798" stop-color="#00D685"/>
<stop offset="0.8679" stop-color="#009955"/>
<stop offset="1" stop-color="#008A49"/>
</linearGradient>
<linearGradient id="paint46_linear_629_2027" x1="446.767" y1="112.272" x2="444.43" y2="108.118" gradientUnits="userSpaceOnUse">
<stop stop-color="#00EE98"/>
<stop offset="0.2798" stop-color="#00D685"/>
<stop offset="0.8679" stop-color="#009955"/>
<stop offset="1" stop-color="#008A49"/>
</linearGradient>
<linearGradient id="paint47_linear_629_2027" x1="315.537" y1="47.3956" x2="313.795" y2="46.5632" gradientUnits="userSpaceOnUse">
<stop stop-color="#00EE98"/>
<stop offset="0.2798" stop-color="#00D685"/>
<stop offset="0.8679" stop-color="#009955"/>
<stop offset="1" stop-color="#008A49"/>
</linearGradient>
<linearGradient id="paint48_linear_629_2027" x1="61.9262" y1="171.158" x2="63.6659" y2="174.141" gradientUnits="userSpaceOnUse">
<stop stop-color="#00EE98"/>
<stop offset="0.2798" stop-color="#00D685"/>
<stop offset="0.8679" stop-color="#009955"/>
<stop offset="1" stop-color="#008A49"/>
</linearGradient>
<linearGradient id="paint49_linear_629_2027" x1="241.286" y1="7.4226" x2="243.309" y2="10.3227" gradientUnits="userSpaceOnUse">
<stop stop-color="#00EE98"/>
<stop offset="0.2798" stop-color="#00D685"/>
<stop offset="0.8679" stop-color="#009955"/>
<stop offset="1" stop-color="#008A49"/>
</linearGradient>
<linearGradient id="paint50_linear_629_2027" x1="78.0289" y1="163.377" x2="76.3194" y2="164.247" gradientUnits="userSpaceOnUse">
<stop stop-color="#00EE98"/>
<stop offset="0.2798" stop-color="#00D685"/>
<stop offset="0.8679" stop-color="#009955"/>
<stop offset="1" stop-color="#008A49"/>
</linearGradient>
<linearGradient id="paint51_linear_629_2027" x1="65.4872" y1="199.676" x2="62.4242" y2="201.837" gradientUnits="userSpaceOnUse">
<stop stop-color="#00EE98"/>
<stop offset="0.2798" stop-color="#00D685"/>
<stop offset="0.8679" stop-color="#009955"/>
<stop offset="1" stop-color="#008A49"/>
</linearGradient>
<linearGradient id="paint52_linear_629_2027" x1="613.27" y1="34.7083" x2="614.393" y2="27.0704" gradientUnits="userSpaceOnUse">
<stop stop-color="#00EE98"/>
<stop offset="0.2798" stop-color="#00D685"/>
<stop offset="0.8679" stop-color="#009955"/>
<stop offset="1" stop-color="#008A49"/>
</linearGradient>
<linearGradient id="paint53_linear_629_2027" x1="89.2151" y1="79.747" x2="89.644" y2="82.4656" gradientUnits="userSpaceOnUse">
<stop stop-color="#00EE98"/>
<stop offset="0.2798" stop-color="#00D685"/>
<stop offset="0.8679" stop-color="#009955"/>
<stop offset="1" stop-color="#008A49"/>
</linearGradient>
<clipPath id="clip0_629_2027">
<rect width="703" height="231" fill="white"/>
</clipPath>
</defs>
</svg>
